<?xml version="1.0" encoding="UTF-8"?>
<svg xmlns="http://www.w3.org/2000/svg" xmlns:xlink="http://www.w3.org/1999/xlink" version="1.2" >
<font id="Bitstream Charter Italic">
<font-face  font-family="Bitstream Charter" units-per-em="1000" ascent="737" descent="-218" font-style="italic" font-weight="400" font-stretch="normal" slope="11" cap-height="672" x-height="486" underline-position="-78.5" underline-thickness="61" />
<missing-glyph  horiz-adv-x="278" d="" />
<glyph glyph-name="NULL" d="" />
<glyph glyph-name="CR" unicode="&#xd;" horiz-adv-x="250" d="" />
<glyph glyph-name="space" unicode="&#x20;" horiz-adv-x="278" d="" />
<glyph glyph-name="exclam" unicode="&#x21;" horiz-adv-x="338" d="M263 553 C274 594 280 623 280 638 C280 666 264 683 236 683 C182 683 168 639 158 553 L113 171 L162 171 L263 553 Z M120 105 C90 105 64 79 64 48 C64 16 90 -9 120 -9 C152 -9 178 16 178 48 C178 79 152 105 120 105 L120 105 Z " />
<glyph glyph-name="quotedbl" unicode="&#x22;" horiz-adv-x="331" d="M93 422 L125 645 C126 653 127 660 127 665 C127 697 111 714 85 714 C59 714 44 697 44 665 C44 659 45 652 46 645 L77 422 L93 422 Z M253 422 L286 645 C287 653 287 660 287 665 C287 697 272 714 246 714 C220 714 204 697 204 664 C204 658 205 652 206 645 L238 422 L253 422 Z " />
<glyph glyph-name="numbersign" unicode="&#x23;" horiz-adv-x="745" d="M370 710 L287 470 L113 470 L113 423 L271 423 L223 277 L64 277 L64 230 L208 230 L126 -7 L173 -23 L256 230 L409 230 L329 -7 L376 -23 L460 230 L639 230 L639 277 L476 277 L525 423 L680 423 L680 470 L541 470 L619 692 L572 709 L492 470 L338 470 L417 692 L370 710 Z M323 423 L474 423 L423 277 L274 277 L323 423 Z " />
<glyph glyph-name="dollar" unicode="&#x24;" horiz-adv-x="556" d="M338 743 L324 669 C194 660 108 572 108 472 C108 401 155 351 254 306 L204 46 C172 47 139 56 104 73 L95 85 L105 197 L53 197 L21 44 C69 18 126 3 195 0 L175 -102 L217 -102 L237 0 C383 17 468 97 468 206 C468 284 417 336 309 375 L357 627 C382 626 407 620 431 609 L443 592 L438 496 L483 496 L514 642 C460 661 411 671 366 672 L379 743 L338 743 Z M315 626 L270 395 C216 418 191 450 191 498 C191 560 237 611 315 626 L315 626 Z M294 287 C353 264 380 233 380 181 C380 113 334 63 248 47 L294 287 Z " />
<glyph glyph-name="percent" unicode="&#x25;" horiz-adv-x="852" d="M247 683 C189 683 137 652 100 592 C69 541 50 471 50 404 C50 315 94 264 167 264 C226 264 277 295 314 355 C346 407 365 475 365 542 C365 630 320 683 247 683 L247 683 Z M673 671 L116 0 L177 0 L734 671 L673 671 Z M239 647 C276 647 294 617 294 558 C294 493 278 422 255 372 C233 323 206 300 174 300 C135 300 118 328 118 388 C118 452 133 521 157 574 C179 623 206 647 239 647 L239 647 Z M684 407 C626 407 574 376 537 316 C506 265 487 196 487 129 C487 40 531 -12 604 -12 C663 -12 714 20 751 80 C783 132 802 200 802 267 C802 355 757 407 684 407 L684 407 Z M676 372 C713 372 731 342 731 283 C731 218 715 147 692 97 C670 48 643 24 611 24 C572 24 555 53 555 113 C555 177 570 246 594 299 C616 348 643 372 676 372 L676 372 Z " />
<glyph glyph-name="ampersand" unicode="&#x26;" horiz-adv-x="704" d="M665 360 L469 360 L469 318 L518 308 L530 292 C498 230 470 186 443 162 L294 360 C428 401 498 469 498 553 C498 630 442 684 352 684 C225 684 137 599 137 499 C137 459 156 417 192 366 C76 307 20 238 20 152 C20 58 89 -11 191 -11 C267 -11 343 17 411 74 C456 20 485 -4 535 -4 C540 -4 548 -4 560 -3 L631 1 L631 41 C627 41 624 41 620 41 C555 41 509 67 468 128 C508 167 551 228 594 309 L665 318 L665 360 Z M387 105 C340 67 290 48 241 48 C165 48 110 105 110 182 C110 246 144 291 215 335 L387 105 Z M271 387 C232 438 212 482 212 524 C212 589 263 639 331 639 C382 639 416 603 416 546 C416 473 368 422 271 387 L271 387 Z " />
<glyph glyph-name="quotesingle" unicode="&#x27;" horiz-adv-x="170" d="M93 422 L125 645 C126 653 127 660 127 665 C127 697 111 714 85 714 C59 714 44 697 44 664 C44 658 44 652 45 645 L77 422 L93 422 Z " />
<glyph glyph-name="parenleft" unicode="&#x28;" horiz-adv-x="419" d="M459 718 C391 713 324 682 267 629 C207 574 165 512 138 437 C98 325 79 223 79 137 C79 -22 167 -132 294 -142 L302 -100 C211 -86 161 -10 161 121 C161 192 177 295 216 425 C236 492 266 549 310 598 C348 641 398 668 451 676 L459 718 Z " />
<glyph glyph-name="parenright" unicode="&#x29;" horiz-adv-x="419" d="M99 718 L91 676 C180 663 231 587 231 461 C231 398 218 299 183 171 C162 94 130 30 83 -22 C45 -65 -5 -93 -58 -100 L-66 -142 C0 -138 67 -107 126 -53 C243 55 313 232 313 445 C313 598 226 707 99 718 L99 718 Z " />
<glyph glyph-name="asterisk" unicode="&#x2a;" horiz-adv-x="500" d="M323 718 L272 657 L281 532 L295 532 L351 657 L323 718 Z M426 589 L304 520 L306 507 L436 515 L492 571 L426 589 Z M295 491 L283 484 L307 364 L369 338 L379 410 L295 491 Z M264 491 L148 410 L131 338 L203 363 L273 484 L264 491 Z M172 589 L99 571 L133 515 L261 507 L267 519 L172 589 Z " />
<glyph glyph-name="plus" unicode="&#x2b;" horiz-adv-x="833" d="M388 596 L388 327 L124 327 L124 270 L388 270 L388 0 L446 0 L446 270 L709 270 L709 327 L446 327 L446 596 L388 596 Z " />
<glyph glyph-name="comma" unicode="&#x2c;" horiz-adv-x="278" d="M-57 -169 C65 -154 148 -55 148 38 C148 81 125 106 84 106 C44 106 13 77 13 36 C13 25 16 16 22 7 L86 7 C75 -72 29 -121 -51 -136 L-57 -169 Z " />
<glyph glyph-name="hyphen" unicode="&#x2d;" horiz-adv-x="319" d="M36 274 L23 207 L247 207 L260 274 L36 274 Z " />
<glyph glyph-name="period" unicode="&#x2e;" horiz-adv-x="278" d="M85 114 C52 114 26 87 26 54 C26 21 53 -5 85 -5 C118 -5 145 21 145 54 C145 87 118 114 85 114 L85 114 Z " />
<glyph glyph-name="slash" unicode="&#x2f;" horiz-adv-x="481" d="M464 671 L-111 -93 L-50 -93 L525 671 L464 671 Z " />
<glyph glyph-name="zero" unicode="0" horiz-adv-x="556" d="M344 683 C251 683 170 631 111 532 C59 444 27 328 27 213 C27 72 98 -12 211 -12 C304 -12 385 41 444 140 C496 227 528 342 528 458 C528 600 457 683 344 683 L344 683 Z M335 636 C402 636 436 582 436 476 C436 438 431 392 420 336 C405 261 387 201 368 161 C328 77 279 36 222 36 C152 36 119 89 119 196 C119 235 124 281 135 336 C150 412 168 470 187 510 C227 594 274 636 335 636 L335 636 Z " />
<glyph glyph-name="one" unicode="1" horiz-adv-x="556" d="M380 683 L147 617 L147 576 L292 595 L302 585 L202 66 L186 49 L82 43 L82 0 L381 0 L381 42 L294 47 L285 62 L404 683 L380 683 Z " />
<glyph glyph-name="two" unicode="2" horiz-adv-x="556" d="M92 79 C368 269 517 389 517 533 C517 627 454 683 342 683 C266 683 192 654 144 610 C115 583 101 553 101 526 C101 503 119 486 148 486 C164 486 180 491 196 501 L216 608 C249 624 279 632 310 632 C380 632 419 592 419 523 C419 372 266 256 -10 63 L-22 0 L441 0 L472 164 L427 164 L393 79 L92 79 Z " />
<glyph glyph-name="three" unicode="3" horiz-adv-x="556" d="M319 357 C444 388 512 461 512 546 C512 629 449 683 341 683 C203 683 103 609 103 543 C103 515 122 496 147 496 C159 496 174 501 194 508 L208 604 C239 625 270 636 303 636 C372 636 415 595 415 529 C415 444 342 375 228 375 C220 375 212 375 203 376 L195 320 C217 322 237 324 255 324 C333 324 377 283 377 215 C377 115 298 36 190 36 C159 36 132 44 106 60 L91 146 C78 151 66 153 56 153 C22 153 1 131 1 97 C1 37 73 -11 179 -11 C247 -11 313 9 365 44 C433 91 472 160 472 227 C472 303 417 353 319 357 L319 357 Z " />
<glyph glyph-name="four" unicode="4" horiz-adv-x="556" d="M433 677 L12 259 L0 194 L322 194 L278 -37 L355 -37 L399 194 L511 194 L524 259 L412 259 L492 677 L433 677 Z M394 568 L335 259 L87 259 L394 568 Z " />
<glyph glyph-name="five" unicode="5" horiz-adv-x="556" d="M169 671 L103 346 C158 350 189 352 199 352 C318 352 377 309 377 223 C377 121 290 34 185 34 C158 34 134 39 112 49 L86 134 C77 136 68 137 61 137 C28 137 3 112 3 79 C3 26 59 -13 162 -13 C242 -13 314 12 372 60 C433 110 467 181 467 247 C467 346 401 408 285 408 C251 408 214 402 173 391 L214 595 L505 595 L519 671 L169 671 Z " />
<glyph glyph-name="six" unicode="6" horiz-adv-x="556" d="M488 716 C371 701 276 661 203 595 C92 495 32 360 32 217 C32 73 111 -12 229 -12 C383 -12 501 117 501 268 C501 381 431 450 326 450 C271 450 212 430 154 387 C195 545 320 648 490 665 L488 716 Z M141 336 C183 371 233 390 283 390 C368 390 411 341 411 247 C411 123 332 34 239 34 C166 34 122 97 122 208 C122 254 128 296 141 336 L141 336 Z " />
<glyph glyph-name="seven" unicode="7" horiz-adv-x="556" d="M135 671 L103 504 L150 504 L183 595 L492 595 L45 -37 L128 -37 L132 -15 L588 631 L596 671 L135 671 Z " />
<glyph glyph-name="eight" unicode="8" horiz-adv-x="556" d="M325 369 C233 408 189 443 189 499 C189 581 254 640 331 640 C398 640 438 600 438 535 C438 466 396 402 325 369 L325 369 Z M365 353 C465 392 517 459 517 541 C517 627 452 684 346 684 C208 684 105 592 105 477 C105 418 131 379 188 350 C76 299 18 225 18 141 C18 48 92 -17 223 -17 C380 -17 492 86 492 205 C492 273 452 311 365 353 L365 353 Z M222 328 C343 273 402 251 402 180 C402 99 334 32 240 32 C157 32 102 82 102 159 C102 232 141 282 222 328 L222 328 Z " />
<glyph glyph-name="nine" unicode="9" horiz-adv-x="556" d="M413 344 C366 302 317 281 266 281 C188 281 138 336 138 425 C138 544 219 639 308 639 C386 639 432 584 432 479 C432 439 425 394 413 344 L413 344 Z M46 -56 C353 45 522 248 522 477 C522 609 451 683 324 683 C258 683 198 661 146 618 C83 565 46 485 46 405 C46 297 118 225 220 225 C269 225 326 244 391 280 C316 141 198 48 28 -14 L46 -56 Z " />
<glyph glyph-name="colon" unicode="&#x3a;" horiz-adv-x="319" d="M175 477 C142 477 116 451 116 418 C116 385 143 358 175 358 C208 358 234 385 234 418 C234 451 208 477 175 477 L175 477 Z M106 114 C73 114 47 87 47 54 C47 21 74 -5 106 -5 C139 -5 166 21 166 54 C166 87 139 114 106 114 L106 114 Z " />
<glyph glyph-name="semicolon" unicode="&#x3b;" horiz-adv-x="319" d="M175 477 C142 477 116 451 116 418 C116 385 143 358 175 358 C208 358 234 385 234 418 C234 451 208 477 175 477 L175 477 Z M-32 -169 C90 -154 173 -55 173 38 C173 81 150 106 109 106 C69 106 38 77 38 36 C38 25 41 16 47 7 L111 7 C100 -72 54 -121 -26 -136 L-32 -169 Z " />
<glyph glyph-name="less" unicode="&#x3c;" horiz-adv-x="833" d="M704 559 L129 323 L129 273 L704 37 L704 100 L216 298 L704 497 L704 559 Z " />
<glyph glyph-name="equal" unicode="&#x3d;" horiz-adv-x="833" d="M124 420 L124 363 L709 363 L709 420 L124 420 Z M124 233 L124 176 L709 176 L709 233 L124 233 Z " />
<glyph glyph-name="greater" unicode="&#x3e;" horiz-adv-x="833" d="M129 559 L129 497 L617 298 L129 100 L129 37 L704 273 L704 323 L129 559 Z " />
<glyph glyph-name="question" unicode="&#x3f;" horiz-adv-x="486" d="M218 288 C369 347 445 433 445 540 C445 628 381 683 269 683 C170 683 103 633 103 576 C103 552 121 537 154 537 C160 537 166 537 172 538 L232 637 C233 637 234 637 235 637 C312 637 353 601 353 532 C353 436 290 359 171 317 L143 171 L195 171 L218 288 Z M151 105 C121 105 94 79 94 48 C94 16 121 -9 151 -9 C183 -9 208 16 208 48 C208 79 183 105 151 105 L151 105 Z " />
<glyph glyph-name="at" unicode="&#x40;" horiz-adv-x="942" d="M553 450 L594 394 L553 184 C518 140 484 118 448 118 C395 118 365 156 365 229 C365 359 439 452 531 452 C538 452 546 451 553 450 L553 450 Z M551 141 C551 138 551 135 551 132 C551 81 577 56 625 56 C689 56 765 99 815 176 C852 233 871 299 871 373 C871 564 740 692 528 692 C413 692 300 650 221 578 C125 490 76 379 76 246 C76 128 114 31 188 -40 C265 -114 365 -153 477 -153 C571 -153 675 -124 781 -65 L767 -31 C683 -80 593 -104 504 -104 C290 -104 147 39 147 258 C147 376 188 472 271 549 C342 615 433 649 542 649 C711 649 825 533 825 377 C825 293 799 215 755 163 C726 128 693 111 667 111 C642 111 625 128 625 154 C625 165 627 183 633 209 L672 381 C680 419 686 455 699 488 L645 488 L627 465 C593 483 561 492 529 492 C458 492 385 454 336 388 C300 339 280 280 280 217 C280 119 333 56 404 56 C450 56 497 85 551 141 L551 141 Z " />
<glyph glyph-name="A" unicode="A" horiz-adv-x="606" d="M345 677 L-24 44 L-79 38 L-79 0 L119 0 L119 38 L58 43 L50 57 L157 248 L400 248 L431 57 L424 43 L365 38 L365 0 L584 0 L584 38 L535 43 L518 61 L411 677 L345 677 Z M345 579 L391 291 L182 291 L345 579 Z " />
<glyph glyph-name="B" unicode="B" horiz-adv-x="588" d="M84 671 L84 633 L148 628 L158 613 L52 58 L35 44 L-28 38 L-28 0 L222 0 C424 0 524 73 524 223 C524 305 470 351 366 356 C482 385 543 451 543 546 C543 633 476 671 341 671 L84 671 Z M199 369 L247 629 C271 631 289 632 302 632 C398 632 444 602 444 536 C444 434 372 366 250 366 C237 366 221 367 199 369 L199 369 Z M137 44 L191 322 C224 325 250 327 268 327 C375 327 426 294 426 216 C426 100 351 41 203 41 C182 41 160 42 137 44 L137 44 Z " />
<glyph glyph-name="C" unicode="C" horiz-adv-x="604" d="M622 649 C557 672 497 683 441 683 C349 683 265 653 196 597 C98 516 41 395 41 265 C41 96 145 -12 310 -12 C372 -12 440 0 509 23 L536 181 L493 181 L449 66 L430 49 C401 40 372 35 344 35 C212 35 136 115 136 253 C136 384 183 498 261 568 C310 612 372 636 438 636 C475 636 510 628 544 610 L552 591 L552 495 L594 495 L622 649 Z " />
<glyph glyph-name="D" unicode="D" horiz-adv-x="671" d="M84 671 L84 633 L149 628 L159 613 L52 58 L36 44 L-28 38 L-28 0 L183 0 C320 0 420 33 499 111 C578 189 623 299 623 416 C623 581 516 671 311 671 L84 671 Z M249 625 L303 625 C453 625 526 561 526 426 C526 322 491 219 440 152 C388 84 304 47 195 47 L140 47 L249 625 Z " />
<glyph glyph-name="E" unicode="E" horiz-adv-x="546" d="M88 671 L88 633 L152 628 L163 613 L56 58 L39 44 L-24 38 L-24 0 L460 0 L492 163 L446 163 L412 62 L394 46 L139 46 L193 325 L346 325 L358 311 L354 239 L395 239 L437 459 L394 459 L372 386 L354 372 L202 372 L251 625 L466 625 L477 610 L477 525 L525 525 L553 671 L88 671 Z " />
<glyph glyph-name="F" unicode="F" horiz-adv-x="509" d="M86 671 L86 633 L150 627 L160 613 L53 57 L37 43 L-26 38 L-26 0 L225 0 L225 40 L155 45 L141 60 L190 315 L331 315 L343 300 L339 228 L382 228 L425 448 L381 448 L358 376 L340 361 L199 361 L249 625 L451 625 L461 609 L461 514 L509 514 L540 671 L86 671 Z " />
<glyph glyph-name="G" unicode="G" horiz-adv-x="664" d="M639 654 C593 672 532 684 459 684 C363 684 275 653 201 596 C98 516 39 395 39 266 C39 99 147 -12 312 -12 C367 -12 438 -1 523 23 L570 264 L586 278 L650 283 L650 322 L404 322 L404 283 L469 278 L479 264 L441 51 C398 42 363 37 336 37 C218 37 136 123 136 252 C136 383 186 496 267 565 C320 610 384 635 450 635 C485 635 519 626 551 610 L560 589 L557 495 L610 495 L639 654 Z " />
<glyph glyph-name="H" unicode="H" horiz-adv-x="712" d="M84 671 L84 633 L149 628 L159 613 L52 58 L36 44 L-28 38 L-28 0 L215 0 L215 38 L151 44 L139 58 L191 328 L516 328 L465 58 L450 44 L385 38 L385 0 L627 0 L627 38 L563 44 L553 58 L659 613 L675 628 L741 633 L741 671 L497 671 L497 633 L561 628 L573 613 L526 374 L200 374 L247 613 L262 628 L328 633 L328 671 L84 671 Z " />
<glyph glyph-name="I" unicode="I" horiz-adv-x="312" d="M89 671 L89 633 L153 628 L164 613 L57 58 L41 44 L-23 38 L-23 0 L221 0 L221 38 L156 44 L144 58 L251 613 L267 628 L333 633 L333 671 L89 671 Z " />
<glyph glyph-name="J" unicode="J" horiz-adv-x="447" d="M228 671 L228 633 L292 628 L303 613 L233 252 C205 108 181 36 88 36 C79 36 67 37 53 40 L41 53 L41 180 L-9 180 L-42 12 C-8 -4 33 -12 81 -12 C233 -12 288 69 323 256 L390 613 L406 628 L471 633 L471 671 L228 671 Z " />
<glyph glyph-name="K" unicode="K" horiz-adv-x="625" d="M82 671 L82 633 L146 628 L157 613 L50 58 L34 44 L-30 38 L-30 0 L214 0 L214 38 L149 44 L136 58 L182 298 L252 298 L368 69 C398 10 413 -4 484 -4 C497 -4 528 -3 574 0 L574 38 C567 38 560 38 554 38 C494 38 477 51 456 92 L314 368 L577 625 L660 631 L660 671 L418 671 L418 632 L488 627 L494 611 L219 340 L190 340 L244 613 L260 628 L325 633 L325 671 L82 671 Z " />
<glyph glyph-name="L" unicode="L" horiz-adv-x="498" d="M84 671 L84 633 L149 628 L159 613 L52 58 L36 43 L-28 38 L-28 0 L418 0 L453 182 L405 182 L366 62 L348 46 L136 46 L246 613 L262 628 L327 633 L327 671 L84 671 Z " />
<glyph glyph-name="M" unicode="M" horiz-adv-x="839" d="M84 671 L84 633 L147 628 L158 613 L52 58 L36 44 L-27 38 L-27 0 L181 0 L181 38 L122 44 L107 58 L211 616 L319 0 L363 0 L708 619 L601 58 L591 44 L519 38 L519 0 L756 0 L756 38 L692 44 L682 58 L788 613 L804 628 L867 633 L867 671 L659 671 L659 640 L379 135 L288 644 L288 671 L84 671 Z " />
<glyph glyph-name="N" unicode="N" horiz-adv-x="683" d="M81 671 L81 633 L146 628 L156 613 L49 58 L33 44 L-31 38 L-31 0 L180 0 L180 38 L116 44 L105 58 L202 556 L465 0 L523 0 L640 613 L656 628 L720 633 L720 671 L510 671 L510 633 L574 628 L584 613 L492 139 L253 646 L253 671 L81 671 Z " />
<glyph glyph-name="O" unicode="O" horiz-adv-x="708" d="M405 682 C303 682 203 631 135 541 C74 461 41 363 41 259 C41 100 150 -12 305 -12 C409 -12 508 39 577 129 C636 206 669 308 669 420 C669 508 630 586 562 636 C522 665 468 682 405 682 L405 682 Z M571 419 C571 320 540 220 492 149 C441 74 379 36 310 36 C207 36 137 119 137 253 C137 351 167 451 216 523 C267 598 330 636 398 636 C502 636 571 555 571 419 L571 419 Z " />
<glyph glyph-name="P" unicode="P" horiz-adv-x="542" d="M84 671 L84 633 L148 628 L159 613 L52 58 L36 44 L-28 38 L-28 0 L209 0 L209 38 L145 44 L138 58 L176 254 C203 253 223 252 238 252 C426 252 543 361 543 513 C543 577 505 632 447 653 C400 670 351 671 297 671 L84 671 Z M248 626 C262 627 276 628 289 628 C399 628 450 588 450 497 C450 373 369 299 226 299 C213 299 199 300 185 301 L248 626 Z " />
<glyph glyph-name="Q" unicode="Q" horiz-adv-x="708" d="M700 -80 C654 -99 616 -106 594 -106 C523 -106 494 -69 448 19 C588 95 669 240 669 419 C669 507 629 586 562 635 C521 665 468 682 407 682 C303 682 204 631 135 541 C74 461 40 362 40 258 C40 102 153 -12 302 -12 C318 -12 337 -11 360 -8 C406 -113 456 -160 540 -160 C587 -160 639 -143 700 -114 L700 -80 Z M136 253 C136 350 167 452 216 523 C268 598 330 636 399 636 C503 636 571 554 571 419 C571 320 540 220 492 149 C441 74 379 36 310 36 C207 36 136 122 136 253 L136 253 Z " />
<glyph glyph-name="R" unicode="R" horiz-adv-x="602" d="M76 671 L76 633 L147 627 L158 613 L51 57 L35 43 L-29 38 L-29 0 L215 0 L215 38 L150 43 L138 57 L185 297 C206 298 224 299 240 299 C267 299 286 297 298 291 C349 268 355 228 368 170 C383 102 392 50 428 20 C447 4 478 -5 520 -5 C536 -5 559 -3 590 1 L590 38 C587 38 584 38 581 38 C504 38 485 63 464 139 C437 233 429 298 341 317 C469 345 540 423 540 525 C540 628 471 671 329 671 L76 671 Z M194 345 L248 624 C263 625 277 626 290 626 C395 626 445 590 445 510 C445 407 370 344 231 344 C219 344 207 344 194 345 L194 345 Z " />
<glyph glyph-name="S" unicode="S" horiz-adv-x="537" d="M511 653 C457 673 401 682 344 682 C195 682 97 590 97 470 C97 389 161 350 266 296 C331 263 376 246 376 182 C376 94 309 36 205 36 C168 36 132 46 94 65 L84 78 L94 193 L42 193 L9 34 C65 3 127 -12 193 -12 C353 -12 464 80 464 202 C464 287 412 326 314 372 C230 411 182 430 182 503 C182 577 247 637 340 637 C369 637 398 631 427 618 L439 600 L435 501 L479 501 L511 653 Z " />
<glyph glyph-name="T" unicode="T" horiz-adv-x="565" d="M72 671 L43 522 L98 522 L130 615 L147 630 L288 630 L181 58 L165 44 L101 38 L101 0 L345 0 L345 38 L280 44 L267 58 L377 630 L519 630 L530 615 L526 522 L580 522 L610 671 L72 671 Z " />
<glyph glyph-name="U" unicode="U" horiz-adv-x="664" d="M73 671 L73 633 L137 628 L148 613 L76 240 C69 204 64 175 64 152 C64 46 136 -11 269 -11 C358 -11 431 17 477 64 C527 116 538 174 551 240 L624 613 L641 628 L704 633 L704 671 L495 671 L495 633 L560 628 L572 613 L501 249 C475 114 421 50 297 50 C205 50 155 94 155 174 C155 192 158 218 164 249 L235 613 L251 628 L316 633 L316 671 L73 671 Z " />
<glyph glyph-name="V" unicode="V" horiz-adv-x="590" d="M31 671 L31 633 L78 628 L94 610 L191 -5 L253 -5 L596 627 L649 633 L649 671 L461 671 L461 633 L519 628 L527 613 L256 92 L177 613 L184 628 L240 633 L240 671 L31 671 Z " />
<glyph glyph-name="W" unicode="W" horiz-adv-x="898" d="M51 671 L51 633 L99 628 L116 610 L166 0 L229 0 L484 549 L543 0 L600 0 L893 627 L951 633 L951 671 L759 671 L759 633 L818 628 L826 613 L607 135 L551 671 L486 671 L238 142 L201 613 L208 628 L265 633 L265 671 L51 671 Z " />
<glyph glyph-name="X" unicode="X" horiz-adv-x="569" d="M54 671 L54 633 L118 628 L128 613 L248 340 L-1 58 L-18 44 L-83 38 L-83 0 L144 0 L144 38 L79 44 L69 58 L275 288 L373 58 L357 44 L292 38 L292 0 L534 0 L534 38 L470 44 L460 58 L328 360 L562 628 L632 633 L632 671 L424 671 L424 633 L481 628 L487 613 L305 406 L216 613 L231 628 L297 633 L297 671 L54 671 Z " />
<glyph glyph-name="Y" unicode="Y" horiz-adv-x="562" d="M31 671 L31 633 L96 628 L106 613 L218 272 L176 58 L160 44 L97 38 L97 0 L340 0 L340 38 L275 44 L262 58 L306 281 L560 613 L576 628 L642 633 L642 671 L418 671 L418 633 L482 628 L492 613 L283 330 L193 613 L209 628 L274 633 L274 671 L31 671 Z " />
<glyph glyph-name="Z" unicode="Z" horiz-adv-x="556" d="M128 671 L98 516 L150 516 L184 610 L206 623 L454 623 L-18 41 L-25 0 L445 0 L479 181 L430 181 L390 62 L376 49 L90 49 L563 629 L572 671 L128 671 Z " />
<glyph glyph-name="bracketleft" unicode="&#x5b;" horiz-adv-x="421" d="M210 708 L49 -133 L286 -133 L294 -90 L136 -90 L281 665 L439 665 L447 708 L210 708 Z " />
<glyph glyph-name="backslash" unicode="&#x5c;" horiz-adv-x="481" d="M92 671 L35 671 L432 -93 L488 -93 L92 671 Z " />
<glyph glyph-name="bracketright" unicode="&#x5d;" horiz-adv-x="421" d="M117 708 L109 665 L267 665 L122 -90 L-36 -90 L-44 -133 L193 -133 L354 708 L117 708 Z " />
<glyph glyph-name="asciicircum" unicode="&#x5e;" horiz-adv-x="1000" d="M456 714 L201 438 L245 438 L499 651 L752 438 L797 438 L543 714 L456 714 Z " />
<glyph glyph-name="underscore" unicode="&#x5f;" horiz-adv-x="500" d="M0 -178 L0 -236 L500 -236 L500 -178 L0 -178 Z " />
<glyph glyph-name="grave" unicode="&#x60;" horiz-adv-x="500" d="M181 736 L290 546 L340 546 L280 736 L181 736 Z " />
<glyph glyph-name="a" unicode="a" horiz-adv-x="525" d="M410 482 L390 460 C359 475 328 482 300 482 C201 482 120 435 69 351 C35 295 17 233 17 166 C17 56 70 -9 155 -9 C203 -9 251 19 304 75 C304 72 304 70 304 67 C304 16 323 -9 365 -9 C392 -9 433 3 488 26 L488 56 C461 50 443 46 432 46 C395 46 378 60 378 92 C378 106 381 129 388 162 L424 339 C439 413 452 461 462 482 L410 482 Z M317 443 L357 382 L305 118 C264 74 225 52 187 52 C129 52 100 92 100 172 C100 331 186 443 303 443 C308 443 312 443 317 443 L317 443 Z " />
<glyph glyph-name="b" unicode="b" horiz-adv-x="507" d="M207 736 L55 706 L55 681 L142 665 L25 35 C73 5 124 -9 177 -9 C253 -9 323 24 374 86 C425 148 452 228 452 314 C452 417 397 484 322 484 C282 484 233 459 174 409 L217 644 C223 678 231 708 240 736 L207 736 Z M110 72 L167 370 C215 403 251 423 287 423 C336 423 370 378 370 301 C370 232 346 157 314 109 C280 58 241 32 199 32 C166 32 137 45 110 72 L110 72 Z " />
<glyph glyph-name="c" unicode="c" horiz-adv-x="394" d="M307 360 C345 361 370 384 370 415 C370 453 332 485 277 485 C215 485 149 454 98 398 C45 340 15 261 15 172 C15 59 75 -10 163 -10 C222 -10 288 22 350 87 L350 133 C296 78 240 50 194 50 C132 50 94 99 94 186 C94 335 163 436 244 436 C246 436 247 436 249 436 L307 360 Z " />
<glyph glyph-name="d" unicode="d" horiz-adv-x="523" d="M475 736 L322 707 L322 679 L410 669 L375 469 C348 481 322 486 295 486 C212 486 124 436 70 351 C38 300 21 238 21 170 C21 56 72 -9 152 -9 C205 -9 259 22 308 84 C307 77 307 70 307 64 C307 15 328 -7 374 -7 C400 -7 442 2 497 22 L497 52 C467 45 445 41 432 41 C402 41 388 55 388 83 C388 96 390 115 394 137 L501 736 L475 736 Z M313 444 L361 387 L316 133 C271 76 225 48 188 48 C136 48 102 92 102 171 C102 338 199 447 289 447 C296 447 304 445 313 444 L313 444 Z " />
<glyph glyph-name="e" unicode="e" horiz-adv-x="424" d="M110 256 C139 377 196 440 254 440 C283 440 306 417 306 386 C306 323 235 263 110 256 L110 256 Z M105 222 C283 234 378 298 378 383 C378 443 338 482 275 482 C226 482 161 453 110 400 C54 341 21 257 21 173 C21 57 78 -9 172 -9 C238 -9 304 21 366 81 L366 128 C308 74 252 46 206 46 C142 46 102 95 102 176 C102 192 103 208 105 222 L105 222 Z " />
<glyph glyph-name="f" unicode="f" horiz-adv-x="292" d="M354 621 C385 627 403 647 403 673 C403 703 368 732 320 732 C227 732 143 639 110 467 L34 436 L33 403 L100 410 L58 123 C39 -10 22 -101 -25 -150 L-129 -123 C-143 -133 -151 -147 -151 -163 C-151 -195 -129 -216 -97 -216 C-49 -216 6 -178 59 -103 C103 -41 121 34 134 126 L174 410 L323 410 L323 455 L182 455 C204 585 234 663 272 688 L354 621 Z " />
<glyph glyph-name="g" unicode="g" horiz-adv-x="481" d="M337 458 C306 474 276 483 244 483 C135 483 49 398 49 289 C49 236 81 192 141 168 C114 134 101 104 101 71 C101 65 101 60 102 54 C12 19 -31 -21 -31 -85 C-31 -165 41 -218 158 -218 C296 -218 399 -143 399 -69 C399 -26 373 6 321 30 L162 102 C162 104 162 106 162 108 C162 127 166 144 175 161 C188 160 196 160 198 160 C301 160 390 239 390 349 C390 370 386 392 377 415 L480 415 L480 458 L337 458 Z M311 355 C311 264 252 194 195 194 C154 194 128 224 128 278 C128 372 185 446 243 446 C286 446 311 414 311 355 L311 355 Z M139 34 L266 -25 C304 -42 322 -63 322 -89 C322 -134 269 -176 182 -176 C102 -176 47 -129 47 -65 C47 -14 79 20 139 34 L139 34 Z " />
<glyph glyph-name="h" unicode="h" horiz-adv-x="551" d="M223 736 L66 703 L66 678 L160 670 L23 0 L108 0 L170 339 C232 395 285 421 318 421 C356 421 372 400 372 357 C372 344 369 322 362 293 L319 108 C314 86 312 68 312 55 C312 13 335 -6 385 -6 C411 -6 452 4 505 25 L505 52 C482 46 463 43 449 43 C416 43 398 61 398 93 C398 110 402 131 408 158 L443 313 C451 349 457 378 457 403 C457 452 425 483 373 483 C321 483 259 451 181 388 L214 559 C228 629 241 688 254 736 L223 736 Z " />
<glyph glyph-name="i" unicode="i" horiz-adv-x="287" d="M201 704 C171 704 147 680 147 650 C147 619 171 596 201 596 C230 596 255 620 255 650 C255 679 230 704 201 704 L201 704 Z M181 482 L33 450 L33 424 L114 409 L55 111 C51 89 49 71 49 59 C49 15 70 -7 113 -7 C151 -7 199 5 254 28 L254 59 C223 49 199 44 180 44 C149 44 132 57 132 83 C132 89 133 97 135 108 L207 482 L181 482 Z " />
<glyph glyph-name="j" unicode="j" horiz-adv-x="269" d="M195 701 C165 701 141 677 141 647 C141 617 165 593 195 593 C224 593 249 617 249 647 C249 677 224 701 195 701 L195 701 Z M177 482 L25 453 L25 430 L126 418 L81 123 C61 -4 47 -96 -3 -150 L-106 -123 C-120 -133 -128 -147 -128 -163 C-128 -195 -107 -216 -75 -216 C-28 -216 28 -179 81 -104 C131 -34 144 42 157 126 L213 482 L177 482 Z " />
<glyph glyph-name="k" unicode="k" horiz-adv-x="514" d="M225 736 L68 707 L68 679 L160 674 L25 0 L108 0 L140 192 L197 244 L282 72 C308 20 336 -5 376 -5 C395 -5 435 3 493 22 L493 50 C473 46 456 43 441 43 C372 43 332 128 256 300 C300 340 342 377 385 408 L421 369 C458 384 476 405 476 431 C476 460 452 482 419 482 C395 482 366 465 331 429 L146 238 L253 736 L225 736 Z " />
<glyph glyph-name="l" unicode="l" horiz-adv-x="275" d="M212 736 L60 706 L60 680 L149 670 L53 180 C41 118 35 79 35 65 C35 15 59 -9 108 -9 C139 -9 184 1 241 25 L241 56 C211 46 187 40 170 40 C134 40 115 56 115 87 C115 101 118 128 126 168 L227 671 C228 677 232 699 239 736 L212 736 Z " />
<glyph glyph-name="m" unicode="m" horiz-adv-x="815" d="M181 482 L33 450 L33 424 L115 408 L32 0 L116 0 L179 339 C242 396 295 421 321 421 C356 421 376 399 376 362 C376 348 373 325 367 293 L307 0 L390 0 L455 340 C501 394 553 421 591 421 C624 421 640 399 640 357 C640 343 638 322 631 293 L588 108 C583 85 580 66 580 54 C580 13 603 -6 653 -6 C680 -6 720 5 773 25 L773 52 C750 46 731 43 717 43 C685 43 666 61 666 93 C666 109 671 131 677 158 L711 313 C719 347 723 375 723 397 C723 450 689 482 641 482 C593 482 531 452 458 391 C457 450 427 482 377 482 C330 482 266 451 188 387 L206 482 L181 482 Z " />
<glyph glyph-name="n" unicode="n" horiz-adv-x="556" d="M181 482 L33 449 L33 424 L115 409 L32 0 L117 0 L179 338 C240 394 293 420 327 420 C365 420 381 401 381 357 C381 344 379 322 372 293 L329 108 C324 86 321 67 321 54 C321 14 345 -6 394 -6 C422 -6 462 4 514 24 L514 52 C491 46 473 43 459 43 C426 43 407 60 407 92 C407 107 412 129 418 158 L452 313 C460 349 466 377 466 402 C466 451 434 482 382 482 C329 482 267 449 188 386 L206 482 L181 482 Z " />
<glyph glyph-name="o" unicode="o" horiz-adv-x="502" d="M279 483 C211 483 150 454 102 400 C52 343 22 262 22 181 C22 65 89 -9 192 -9 C261 -9 321 18 368 72 C420 132 449 208 449 287 C449 408 383 483 279 483 L279 483 Z M266 444 C327 444 364 392 364 293 C364 141 289 32 204 32 C144 32 107 84 107 180 C107 335 180 444 266 444 L266 444 Z " />
<glyph glyph-name="p" unicode="p" horiz-adv-x="516" d="M169 482 L27 452 L27 427 L105 417 L0 -165 L-10 -176 L-69 -188 L-69 -218 L171 -218 L171 -188 L76 -171 L109 15 C134 3 160 -4 186 -4 C254 -4 325 29 376 85 C433 148 461 221 461 308 C461 421 413 482 334 482 C291 482 241 462 183 421 L195 482 L169 482 Z M119 67 L176 377 C221 412 258 430 288 430 C342 430 378 385 378 306 C378 226 350 145 317 101 C286 60 249 40 205 40 C177 40 149 49 119 67 L119 67 Z " />
<glyph glyph-name="q" unicode="q" horiz-adv-x="512" d="M414 487 L388 462 C354 477 322 487 293 487 C222 487 145 446 91 375 C48 319 25 250 25 172 C25 60 78 -6 160 -6 C207 -6 256 19 309 69 L269 -162 L258 -174 L197 -186 L197 -218 L443 -218 L443 -186 L347 -169 L451 439 C453 452 457 467 462 487 L414 487 Z M314 444 L364 383 L316 112 C275 72 237 52 199 52 C142 52 106 95 106 167 C106 253 136 336 173 381 C209 424 249 445 294 445 C301 445 307 445 314 444 L314 444 Z " />
<glyph glyph-name="r" unicode="r" horiz-adv-x="398" d="M177 482 L29 449 L29 424 L111 409 L28 0 L112 0 L153 235 C169 327 201 381 299 419 L325 365 C327 365 329 365 332 365 C373 365 399 392 399 430 C399 460 377 482 343 482 C293 482 229 436 165 345 L197 482 L177 482 Z " />
<glyph glyph-name="s" unicode="s" horiz-adv-x="370" d="M266 369 C303 371 324 392 324 420 C324 455 288 482 231 482 C135 482 59 413 59 331 C59 275 97 248 154 205 C196 173 223 150 223 112 C223 59 189 27 132 27 C101 27 76 39 60 62 L78 112 C62 124 49 130 35 130 C4 130 -17 110 -17 79 C-17 27 32 -9 116 -9 C225 -9 299 58 299 145 C299 205 258 231 198 277 C151 313 123 334 123 370 C123 409 153 437 193 437 C204 437 214 434 224 427 L266 369 Z " />
<glyph glyph-name="t" unicode="t" horiz-adv-x="333" d="M167 579 L117 479 L44 447 L44 417 L106 422 L52 151 C46 123 44 100 44 84 C44 23 71 -7 128 -7 C163 -7 215 8 282 37 L282 69 C242 56 210 49 187 49 C147 49 126 71 126 111 C126 122 129 137 132 155 L184 422 L336 422 L336 465 L192 465 L213 579 L167 579 Z " />
<glyph glyph-name="u" unicode="u" horiz-adv-x="553" d="M187 483 L30 450 L30 424 L113 409 L55 146 C50 123 47 103 47 86 C47 27 84 -8 144 -8 C198 -8 258 19 325 75 C324 68 324 62 324 56 C324 12 343 -8 384 -8 C415 -8 457 3 512 23 L512 51 C488 44 469 40 456 40 C424 40 404 58 404 79 C404 100 409 122 414 147 L485 473 L404 473 L329 112 C273 68 222 49 187 49 C151 49 129 69 129 104 C129 119 133 144 140 178 L203 469 L187 483 Z " />
<glyph glyph-name="v" unicode="v" horiz-adv-x="454" d="M93 484 L-8 451 L-8 426 L69 420 C86 409 94 381 99 335 L124 101 C125 89 126 77 126 65 C126 41 122 19 112 0 L160 0 C346 210 434 358 434 427 C434 463 415 484 381 484 C364 484 347 477 331 464 L350 342 C324 273 273 192 197 95 L171 369 C163 449 152 484 95 484 C95 484 94 484 93 484 L93 484 Z " />
<glyph glyph-name="w" unicode="w" horiz-adv-x="713" d="M115 485 L0 451 L0 427 L74 418 L101 22 L93 0 L158 0 C260 175 323 292 349 349 L373 0 L431 0 C596 217 688 352 688 427 C688 463 669 484 636 484 C615 484 598 477 585 461 L605 344 C582 274 526 186 443 75 C429 244 420 375 416 467 L356 460 C303 336 238 214 172 89 L150 483 L115 485 Z " />
<glyph glyph-name="x" unicode="x" horiz-adv-x="477" d="M129 485 L28 450 L28 426 L111 415 C138 390 161 332 187 241 C146 142 93 78 48 54 L2 97 C-29 91 -47 73 -47 46 C-47 14 -23 -8 15 -8 C81 -8 141 59 206 195 C239 53 252 -6 322 -6 C349 -6 387 4 434 23 L434 54 C410 47 392 43 381 43 C321 43 307 106 268 241 C312 343 356 400 402 412 L445 373 C477 386 494 405 494 429 C494 460 469 485 437 485 C374 485 312 418 246 284 C211 420 199 486 140 486 C136 486 133 485 129 485 L129 485 Z " />
<glyph glyph-name="y" unicode="y" horiz-adv-x="475" d="M83 485 L-15 453 L-15 431 L70 424 C88 400 101 366 110 320 L172 19 L175 21 C116 -92 61 -151 0 -155 L-59 -96 C-92 -101 -113 -124 -113 -151 C-113 -187 -78 -217 -29 -217 C54 -217 145 -133 237 34 C320 184 360 323 433 405 L484 435 L484 456 L405 482 L386 482 C323 335 271 209 229 102 L196 271 C167 417 160 486 96 486 C92 486 87 486 83 485 L83 485 Z " />
<glyph glyph-name="z" unicode="z" horiz-adv-x="440" d="M373 490 L354 441 C343 436 333 433 324 433 C303 433 282 443 256 456 C229 470 204 483 174 483 C105 483 39 413 39 343 C39 306 58 284 86 284 C106 284 121 295 133 316 L80 380 C95 401 117 412 143 412 C164 412 194 402 231 383 L330 405 L-14 19 L41 -11 L65 32 C76 38 86 41 97 41 C145 41 196 -2 253 -2 C326 -2 392 69 392 138 C392 174 371 198 343 198 C326 198 309 186 295 162 L350 101 C334 77 313 65 288 65 C269 65 235 76 186 98 L89 73 L434 458 L373 490 Z " />
<glyph glyph-name="braceleft" unicode="&#x7b;" horiz-adv-x="486" d="M418 703 C414 703 409 703 405 703 C268 703 210 656 210 542 L210 440 C210 347 181 311 91 311 C83 311 74 311 65 312 L65 268 C73 268 81 268 88 268 C180 268 211 233 211 134 L211 49 C211 -90 251 -134 393 -134 C401 -134 409 -134 418 -134 L418 -95 C305 -93 291 -62 291 38 L291 121 C291 221 254 269 160 290 C260 311 290 360 290 465 L290 546 C290 634 318 663 418 666 L418 703 Z " />
<glyph glyph-name="bar" unicode="&#x7c;" horiz-adv-x="500" d="M219 764 L219 -236 L281 -236 L281 764 L219 764 Z " />
<glyph glyph-name="braceright" unicode="&#x7d;" horiz-adv-x="486" d="M64 703 L64 666 C164 663 192 634 192 546 L192 465 C192 360 222 311 322 290 C228 269 191 221 191 121 L191 38 C191 -62 177 -93 64 -95 L64 -134 C72 -134 80 -134 88 -134 C231 -134 271 -89 271 49 L271 134 C271 233 302 268 394 268 C401 268 409 268 417 268 L417 312 C408 311 399 311 391 311 C301 311 272 347 272 440 L272 542 C272 656 214 703 77 703 C73 703 68 703 64 703 L64 703 Z " />
<glyph glyph-name="asciitilde" unicode="&#x7e;" horiz-adv-x="833" d="M747 370 C677 321 619 294 559 294 C509 294 466 312 418 329 C373 345 328 361 276 361 C218 361 155 337 87 290 L87 225 C158 275 216 303 275 303 C337 303 396 276 465 253 C498 242 529 236 558 236 C618 236 681 259 747 306 L747 370 Z " />
<glyph glyph-name="exclamdown" unicode="&#xa1;" horiz-adv-x="338" d="M221 683 C189 683 163 658 163 626 C163 594 189 569 221 569 C252 569 277 595 277 626 C277 657 251 683 221 683 L221 683 Z M179 503 L78 121 C67 78 61 50 61 39 C61 8 76 -9 105 -9 C159 -9 173 35 183 121 L228 503 L179 503 Z " />
<glyph glyph-name="cent" unicode="&#xa2;" horiz-adv-x="556" d="M324 601 L305 500 C146 474 42 345 42 187 C42 89 102 20 209 3 L190 -98 L235 -98 L254 1 C262 1 270 1 277 1 C321 1 362 8 403 22 L426 139 L373 139 L351 65 C324 52 294 46 263 46 L342 458 C372 458 399 451 422 438 L417 367 L470 367 L491 480 C458 495 417 502 369 502 C362 502 356 502 350 502 L369 601 L324 601 Z M296 454 L218 48 C161 64 127 117 127 194 C127 319 198 427 296 454 L296 454 Z " />
<glyph glyph-name="sterling" unicode="&#xa3;" horiz-adv-x="556" d="M467 547 C520 556 547 576 547 611 C547 650 498 682 421 682 C272 682 172 568 150 351 L72 351 L72 305 L142 305 C117 152 87 79 -21 57 L-21 0 L448 0 L448 76 L151 76 C143 76 121 75 82 71 L81 73 C159 117 208 195 225 305 L418 305 L418 351 L234 351 C264 543 309 634 418 634 C420 634 421 634 422 634 L467 547 Z " />
<glyph glyph-name="currency" unicode="&#xa4;" horiz-adv-x="606" d="M77 693 L42 657 L143 557 C115 520 100 478 100 432 C100 386 115 344 143 307 L42 207 L77 171 L178 272 C215 243 255 229 303 229 C351 229 393 243 430 272 L530 171 L565 207 L465 307 C493 344 507 386 507 432 C507 478 493 520 465 557 L565 657 L530 693 L430 592 C392 621 350 636 303 636 C256 636 216 621 178 592 L77 693 Z M304 586 C389 586 457 517 457 433 C457 349 389 279 304 279 C219 279 151 348 151 433 C151 517 219 586 304 586 L304 586 Z " />
<glyph glyph-name="yen" unicode="&#xa5;" horiz-adv-x="556" d="M56 664 L56 624 L108 614 L170 421 L31 421 L31 380 L187 380 L221 277 L2 277 L2 236 L213 236 L180 59 L159 45 L86 40 L86 0 L341 0 L341 40 L274 45 L260 59 L293 236 L520 236 L520 277 L298 277 L375 380 L548 380 L548 421 L411 421 L556 612 L616 624 L616 664 L433 664 L433 624 L481 613 L487 599 L286 337 L199 607 L210 618 L271 624 L271 664 L56 664 Z " />
<glyph glyph-name="brokenbar" unicode="&#xa6;" horiz-adv-x="500" d="M219 699 L219 329 L281 329 L281 699 L219 699 Z M219 199 L219 -171 L281 -171 L281 199 L219 199 Z " />
<glyph glyph-name="section" unicode="&#xa7;" horiz-adv-x="500" d="M475 695 C432 710 390 718 346 718 C207 718 123 648 123 550 C123 503 148 473 202 443 C103 405 50 336 50 260 C50 200 80 156 139 125 C226 79 283 60 283 0 C283 -49 232 -96 162 -96 C131 -96 102 -88 72 -70 L75 20 L26 20 L4 -109 C52 -130 98 -140 144 -140 C270 -140 360 -57 360 37 C360 82 333 116 278 144 C376 182 434 260 434 330 C434 392 400 433 328 472 C251 514 202 527 202 580 C202 629 254 676 320 676 C349 676 378 666 410 646 L406 566 L450 566 L475 695 Z M240 424 C317 393 355 355 355 305 C355 251 319 204 246 162 C166 202 129 230 129 289 C129 345 167 394 240 424 L240 424 Z " />
<glyph glyph-name="dieresis" unicode="&#xa8;" horiz-adv-x="500" d="M213 692 C186 692 163 670 163 641 C163 613 187 590 213 590 C241 590 265 613 265 641 C265 669 242 692 213 692 L213 692 Z M400 692 C373 692 349 670 349 641 C349 613 374 590 400 590 C428 590 451 613 451 641 C451 669 429 692 400 692 L400 692 Z " />
<glyph glyph-name="copyright" unicode="&#xa9;" horiz-adv-x="900" d="M453 726 C350 726 251 684 179 611 C106 537 67 442 67 340 C67 236 106 141 180 67 C253 -6 349 -46 447 -46 C553 -46 647 -8 719 63 C795 138 837 237 837 336 C837 440 797 539 727 610 C655 683 554 726 453 726 L453 726 Z M453 685 C541 685 629 648 693 584 C756 521 793 432 793 340 C793 250 757 164 692 97 C628 31 544 -4 452 -4 C360 -4 278 31 211 97 C145 163 111 246 111 340 C111 432 146 516 211 583 C275 648 362 685 453 685 L453 685 Z M609 551 C558 567 510 574 468 574 C319 574 221 478 221 338 C221 199 320 102 462 102 C513 102 563 111 609 127 L609 252 L566 252 L553 168 C520 156 492 148 468 148 C378 148 308 229 308 339 C308 449 378 528 473 528 C501 528 526 521 551 506 L566 431 L609 431 L609 551 Z " />
<glyph glyph-name="ordfeminine" unicode="&#xaa;" horiz-adv-x="394" d="M308 669 L293 654 C269 664 246 669 225 669 C151 669 90 636 52 578 C26 538 13 495 13 448 C13 371 53 326 116 326 C152 326 188 345 228 384 C228 382 228 381 228 379 C228 343 242 326 274 326 C294 326 325 334 366 350 L366 371 C346 367 332 364 324 364 C296 364 284 374 284 396 C284 406 286 422 291 445 L318 569 C329 621 339 655 347 669 L308 669 Z M238 642 L268 599 L229 415 C198 384 169 368 140 368 C97 368 75 396 75 452 C75 564 140 642 227 642 C231 642 234 642 238 642 L238 642 Z " />
<glyph glyph-name="guillemotleft" unicode="&#xab;" horiz-adv-x="442" d="M218 413 L28 280 L13 200 L151 67 L164 132 L67 240 L205 347 L218 413 Z M415 413 L226 280 L211 200 L349 67 L361 132 L265 240 L403 347 L415 413 Z " />
<glyph glyph-name="logicalnot" unicode="&#xac;" horiz-adv-x="833" d="M124 419 L124 362 L653 362 L653 174 L709 174 L709 419 L124 419 Z " />
<glyph glyph-name="registered" unicode="&#xae;" horiz-adv-x="900" d="M453 726 C350 726 251 684 179 611 C106 537 67 442 67 340 C67 236 106 141 180 67 C253 -6 349 -46 447 -46 C553 -46 647 -8 719 63 C795 138 837 237 837 336 C837 440 797 539 727 610 C655 683 554 726 453 726 L453 726 Z M453 685 C541 685 629 648 693 584 C756 521 793 432 793 340 C793 250 757 164 692 97 C628 31 544 -4 452 -4 C360 -4 278 31 211 97 C145 163 111 246 111 340 C111 432 146 516 211 583 C275 648 362 685 453 685 L453 685 Z M254 560 L254 526 L312 516 L312 164 L259 157 L259 121 L450 121 L450 158 L387 165 L387 315 C398 316 407 316 416 316 C470 316 495 304 515 259 C533 218 538 172 570 145 C593 125 618 116 649 116 C664 116 685 119 711 124 L711 160 C653 160 631 172 614 215 C604 239 601 271 578 299 C560 321 537 333 506 338 C585 355 627 396 627 451 C627 526 573 560 465 560 L254 560 Z M387 522 C396 523 405 524 413 524 C496 524 540 492 540 437 C540 383 496 354 412 354 C404 354 396 354 387 355 L387 522 Z " />
<glyph glyph-name="macron" unicode="&#xaf;" horiz-adv-x="500" d="M164 666 L155 615 L456 615 L465 666 L164 666 Z " />
<glyph glyph-name="degree" unicode="&#xb0;" horiz-adv-x="329" d="M165 710 C89 710 27 650 27 572 C27 495 87 434 164 434 C242 434 303 497 303 572 C303 648 241 710 165 710 L165 710 Z M165 670 C220 670 263 626 263 572 C263 518 221 473 165 473 C111 473 66 516 66 572 C66 627 111 670 165 670 L165 670 Z " />
<glyph glyph-name="plusminus" unicode="&#xb1;" horiz-adv-x="833" d="M388 576 L388 408 L124 408 L124 351 L388 351 L388 183 L446 183 L446 351 L709 351 L709 408 L446 408 L446 576 L388 576 Z M124 77 L124 20 L709 20 L709 77 L124 77 Z " />
<glyph glyph-name="twosuperior" unicode="&#xb2;" horiz-adv-x="367" d="M61 315 C243 429 341 501 341 588 C341 644 300 678 226 678 C176 678 127 660 95 634 C76 618 67 600 67 584 C67 570 79 560 98 560 C108 560 119 563 129 569 L143 633 C164 642 184 647 205 647 C251 647 277 623 277 582 C277 491 176 422 -7 306 L-15 268 L291 268 L312 366 L282 366 L259 315 L61 315 Z " />
<glyph glyph-name="threesuperior" unicode="&#xb3;" horiz-adv-x="367" d="M211 482 C293 501 338 545 338 596 C338 645 296 678 225 678 C134 678 68 633 68 594 C68 577 81 566 97 566 C105 566 115 569 128 573 L137 630 C158 643 178 650 200 650 C246 650 274 625 274 585 C274 534 226 493 150 493 C145 493 140 493 134 494 L129 460 C143 461 156 462 168 462 C220 462 249 438 249 397 C249 337 197 290 125 290 C105 290 87 294 70 304 L60 356 C51 359 44 360 37 360 C15 360 1 347 1 326 C1 290 48 261 118 261 C163 261 207 273 241 294 C286 323 312 364 312 404 C312 450 275 480 211 482 L211 482 Z " />
<glyph glyph-name="acute" unicode="&#xb4;" horiz-adv-x="500" d="M386 736 L253 546 L302 546 L485 736 L386 736 Z " />
<glyph glyph-name="mu" unicode="&#xb5;" horiz-adv-x="547" d="M80 94 C89 25 126 -11 189 -11 C251 -11 296 24 326 95 C326 91 326 87 326 84 C326 25 356 -9 399 -9 C450 -9 487 18 511 71 C526 104 531 132 531 144 C531 155 526 162 518 162 C501 162 502 122 479 87 C465 65 444 53 422 53 C396 53 377 74 377 106 C377 123 381 144 387 173 L443 432 L370 432 L316 183 C297 96 253 52 190 52 C141 52 112 83 112 137 C112 153 114 172 118 192 L169 432 L97 432 L44 181 C4 -9 -39 -120 -39 -161 C-39 -188 -24 -204 0 -204 C57 -204 41 -105 80 94 L80 94 Z " />
<glyph glyph-name="paragraph" unicode="&#xb6;" horiz-adv-x="484" d="M262 671 C101 671 26 614 26 474 C26 344 100 281 253 281 C259 281 265 281 271 281 L271 630 L347 630 L347 -79 L396 -79 L396 625 L458 635 L458 671 L262 671 Z " />
<glyph glyph-name="periodcentered" unicode="&#xb7;" horiz-adv-x="278" d="M138 395 C105 395 79 368 79 335 C79 302 106 276 138 276 C171 276 198 302 198 335 C198 368 171 395 138 395 L138 395 Z " />
<glyph glyph-name="cedilla" unicode="&#xb8;" horiz-adv-x="500" d="M158 0 L137 -107 C145 -106 152 -105 158 -105 C185 -105 201 -116 201 -133 C201 -164 173 -185 126 -185 C105 -185 86 -182 68 -177 L61 -213 C85 -220 108 -223 129 -223 C212 -223 266 -175 266 -116 C266 -80 244 -60 203 -60 C199 -60 191 -60 182 -61 L194 0 L158 0 Z " />
<glyph glyph-name="onesuperior" unicode="&#xb9;" horiz-adv-x="367" d="M251 678 L97 638 L97 614 L193 625 L200 619 L134 308 L123 297 L55 294 L55 268 L252 268 L252 293 L195 296 L189 305 L267 678 L251 678 Z " />
<glyph glyph-name="ordmasculine" unicode="&#xba;" horiz-adv-x="377" d="M209 670 C158 670 113 650 77 612 C39 572 17 515 17 459 C17 377 67 326 144 326 C196 326 241 345 276 382 C315 424 337 478 337 533 C337 618 287 670 209 670 L209 670 Z M200 643 C245 643 273 606 273 537 C273 431 217 354 153 354 C108 354 80 391 80 458 C80 566 135 643 200 643 L200 643 Z " />
<glyph glyph-name="guillemotright" unicode="&#xbb;" horiz-adv-x="442" d="M60 413 L48 347 L144 240 L6 132 L-6 67 L184 200 L199 280 L60 413 Z M258 413 L245 347 L342 240 L204 132 L191 67 L381 200 L396 280 L258 413 Z " />
<glyph glyph-name="onequarter" unicode="&#xbc;" horiz-adv-x="867" d="M239 677 L92 641 L92 618 L183 628 L190 623 L127 332 L117 322 L51 319 L51 295 L240 295 L240 319 L185 321 L179 330 L254 677 L239 677 Z M681 671 L124 0 L185 0 L742 671 L681 671 Z M790 379 L525 145 L517 109 L720 109 L692 -21 L741 -21 L768 109 L839 109 L847 145 L777 145 L827 379 L790 379 Z M765 318 L728 145 L572 145 L765 318 Z " />
<glyph glyph-name="onehalf" unicode="&#xbd;" horiz-adv-x="867" d="M239 677 L92 641 L92 618 L183 628 L190 623 L127 332 L117 322 L51 319 L51 295 L240 295 L240 319 L185 321 L179 330 L254 677 L239 677 Z M681 671 L124 0 L185 0 L742 671 L681 671 Z M575 44 C749 151 843 218 843 298 C843 351 803 382 732 382 C685 382 638 366 608 342 C589 326 581 310 581 295 C581 282 592 272 610 272 C620 272 630 275 640 281 L653 340 C674 349 693 354 712 354 C756 354 781 332 781 293 C781 208 685 143 511 35 L503 0 L795 0 L814 92 L786 92 L765 44 L575 44 Z " />
<glyph glyph-name="threequarters" unicode="&#xbe;" horiz-adv-x="868" d="M201 495 C280 512 323 553 323 601 C323 647 283 677 215 677 C128 677 65 636 65 599 C65 583 77 573 93 573 C100 573 110 576 122 579 L131 633 C151 645 170 651 191 651 C234 651 261 628 261 591 C261 544 215 505 144 505 C139 505 134 505 128 506 L123 474 C137 475 149 476 161 476 C210 476 238 453 238 415 C238 359 188 315 120 315 C100 315 83 320 67 329 L57 377 C49 380 42 381 35 381 C14 381 1 368 1 349 C1 316 46 289 113 289 C156 289 197 300 230 320 C273 346 297 385 297 422 C297 465 263 493 201 495 L201 495 Z M681 671 L124 0 L185 0 L742 671 L681 671 Z M790 379 L525 145 L517 109 L720 109 L692 -21 L741 -21 L768 109 L839 109 L847 145 L777 145 L827 379 L790 379 Z M765 318 L728 145 L572 145 L765 318 Z " />
<glyph glyph-name="questiondown" unicode="&#xbf;" horiz-adv-x="486" d="M322 683 C291 683 265 658 265 626 C265 594 290 569 322 569 C353 569 379 595 379 626 C379 657 352 683 322 683 L322 683 Z M278 503 L256 386 C105 327 28 241 28 134 C28 46 93 -9 205 -9 C304 -9 370 41 370 98 C370 123 353 137 319 137 C314 137 308 137 301 136 L241 37 C240 37 239 37 238 37 C161 37 120 73 120 142 C120 238 182 315 302 357 L330 503 L278 503 Z " />
<glyph glyph-name="Agrave" unicode="&#xc0;" horiz-adv-x="606" d="M345 677 L-24 44 L-79 38 L-79 0 L119 0 L119 38 L58 43 L50 57 L157 248 L400 248 L431 57 L424 43 L365 38 L365 0 L584 0 L584 38 L535 43 L518 61 L411 677 L345 677 Z M345 579 L391 291 L182 291 L345 579 Z M261 928 L370 738 L420 738 L360 928 L261 928 Z " />
<glyph glyph-name="Aacute" unicode="&#xc1;" horiz-adv-x="606" d="M345 677 L-24 44 L-79 38 L-79 0 L119 0 L119 38 L58 43 L50 57 L157 248 L400 248 L431 57 L424 43 L365 38 L365 0 L584 0 L584 38 L535 43 L518 61 L411 677 L345 677 Z M345 579 L391 291 L182 291 L345 579 Z M466 928 L333 738 L382 738 L565 928 L466 928 Z " />
<glyph glyph-name="Acircumflex" unicode="&#xc2;" horiz-adv-x="606" d="M345 677 L-24 44 L-79 38 L-79 0 L119 0 L119 38 L58 43 L50 57 L157 248 L400 248 L431 57 L424 43 L365 38 L365 0 L584 0 L584 38 L535 43 L518 61 L411 677 L345 677 Z M345 579 L391 291 L182 291 L345 579 Z M374 928 L228 738 L283 738 L397 879 L458 738 L513 738 L439 928 L374 928 Z " />
<glyph glyph-name="Atilde" unicode="&#xc3;" horiz-adv-x="606" d="M345 677 L-24 44 L-79 38 L-79 0 L119 0 L119 38 L58 43 L50 57 L157 248 L400 248 L431 57 L424 43 L365 38 L365 0 L584 0 L584 38 L535 43 L518 61 L411 677 L345 677 Z M345 579 L391 291 L182 291 L345 579 Z M512 900 C505 855 488 833 461 833 C427 833 384 885 331 885 C273 885 235 844 223 765 L266 765 C269 806 290 830 313 830 C341 830 389 780 448 780 C499 780 545 825 554 900 L512 900 Z " />
<glyph glyph-name="Adieresis" unicode="&#xc4;" horiz-adv-x="606" d="M345 677 L-24 44 L-79 38 L-79 0 L119 0 L119 38 L58 43 L50 57 L157 248 L400 248 L431 57 L424 43 L365 38 L365 0 L584 0 L584 38 L535 43 L518 61 L411 677 L345 677 Z M345 579 L391 291 L182 291 L345 579 Z M293 884 C266 884 243 862 243 833 C243 805 267 782 293 782 C321 782 345 805 345 833 C345 861 322 884 293 884 L293 884 Z M480 884 C453 884 429 862 429 833 C429 805 454 782 480 782 C508 782 531 805 531 833 C531 861 509 884 480 884 L480 884 Z " />
<glyph glyph-name="Aring" unicode="&#xc5;" horiz-adv-x="606" d="M393 980 C327 980 274 927 274 860 C274 793 327 741 394 741 C461 741 513 793 513 860 C513 927 460 980 393 980 L393 980 Z M394 934 C436 934 469 902 469 860 C469 819 436 786 394 786 C353 786 319 819 319 860 C319 902 353 934 394 934 L394 934 Z M345 677 L-24 44 L-79 38 L-79 0 L119 0 L119 38 L58 43 L50 57 L157 248 L400 248 L431 57 L424 43 L365 38 L365 0 L584 0 L584 38 L535 43 L518 61 L411 677 L345 677 Z M345 579 L391 291 L182 291 L345 579 Z " />
<glyph glyph-name="AE" unicode="&#xc6;" horiz-adv-x="873" d="M338 671 L338 631 L396 625 L402 610 L-54 51 L-115 38 L-115 0 L87 0 L87 38 L23 47 L21 61 L180 256 L421 256 L382 58 L366 44 L303 38 L303 0 L786 0 L818 163 L772 163 L737 62 L720 46 L465 46 L519 325 L672 325 L683 311 L679 239 L720 239 L763 459 L720 459 L697 386 L680 372 L528 372 L577 625 L792 625 L803 610 L803 525 L850 525 L879 671 L338 671 Z M494 641 L430 303 L218 303 L494 641 Z " />
<glyph glyph-name="Ccedilla" unicode="&#xc7;" horiz-adv-x="604" d="M622 649 C557 672 497 683 441 683 C349 683 265 653 196 597 C98 516 41 395 41 265 C41 96 145 -12 310 -12 C372 -12 440 0 509 23 L536 181 L493 181 L449 66 L430 49 C401 40 372 35 344 35 C212 35 136 115 136 253 C136 384 183 498 261 568 C310 612 372 636 438 636 C475 636 510 628 544 610 L552 591 L552 495 L594 495 L622 649 Z M278 0 L257 -107 C265 -106 272 -105 278 -105 C305 -105 321 -116 321 -133 C321 -164 293 -185 246 -185 C225 -185 206 -182 188 -177 L181 -213 C205 -220 228 -223 249 -223 C332 -223 386 -175 386 -116 C386 -80 364 -60 323 -60 C319 -60 311 -60 302 -61 L314 0 L278 0 Z " />
<glyph glyph-name="Egrave" unicode="&#xc8;" horiz-adv-x="546" d="M88 671 L88 633 L152 628 L163 613 L56 58 L39 44 L-24 38 L-24 0 L460 0 L492 163 L446 163 L412 62 L394 46 L139 46 L193 325 L346 325 L358 311 L354 239 L395 239 L437 459 L394 459 L372 386 L354 372 L202 372 L251 625 L466 625 L477 610 L477 525 L525 525 L553 671 L88 671 Z M231 928 L340 738 L390 738 L330 928 L231 928 Z " />
<glyph glyph-name="Eacute" unicode="&#xc9;" horiz-adv-x="546" d="M88 671 L88 633 L152 628 L163 613 L56 58 L39 44 L-24 38 L-24 0 L460 0 L492 163 L446 163 L412 62 L394 46 L139 46 L193 325 L346 325 L358 311 L354 239 L395 239 L437 459 L394 459 L372 386 L354 372 L202 372 L251 625 L466 625 L477 610 L477 525 L525 525 L553 671 L88 671 Z M436 928 L303 738 L352 738 L535 928 L436 928 Z " />
<glyph glyph-name="Ecircumflex" unicode="&#xca;" horiz-adv-x="546" d="M88 671 L88 633 L152 628 L163 613 L56 58 L39 44 L-24 38 L-24 0 L460 0 L492 163 L446 163 L412 62 L394 46 L139 46 L193 325 L346 325 L358 311 L354 239 L395 239 L437 459 L394 459 L372 386 L354 372 L202 372 L251 625 L466 625 L477 610 L477 525 L525 525 L553 671 L88 671 Z M344 928 L198 738 L253 738 L367 879 L428 738 L483 738 L409 928 L344 928 Z " />
<glyph glyph-name="Edieresis" unicode="&#xcb;" horiz-adv-x="546" d="M88 671 L88 633 L152 628 L163 613 L56 58 L39 44 L-24 38 L-24 0 L460 0 L492 163 L446 163 L412 62 L394 46 L139 46 L193 325 L346 325 L358 311 L354 239 L395 239 L437 459 L394 459 L372 386 L354 372 L202 372 L251 625 L466 625 L477 610 L477 525 L525 525 L553 671 L88 671 Z M263 884 C236 884 213 862 213 833 C213 805 237 782 263 782 C291 782 315 805 315 833 C315 861 292 884 263 884 L263 884 Z M450 884 C423 884 399 862 399 833 C399 805 424 782 450 782 C478 782 501 805 501 833 C501 861 479 884 450 884 L450 884 Z " />
<glyph glyph-name="Igrave" unicode="&#xcc;" horiz-adv-x="312" d="M89 671 L89 633 L153 628 L164 613 L57 58 L41 44 L-23 38 L-23 0 L221 0 L221 38 L156 44 L144 58 L251 613 L267 628 L333 633 L333 671 L89 671 Z M114 928 L223 738 L273 738 L213 928 L114 928 Z " />
<glyph glyph-name="Iacute" unicode="&#xcd;" horiz-adv-x="312" d="M89 671 L89 633 L153 628 L164 613 L57 58 L41 44 L-23 38 L-23 0 L221 0 L221 38 L156 44 L144 58 L251 613 L267 628 L333 633 L333 671 L89 671 Z M319 928 L186 738 L235 738 L418 928 L319 928 Z " />
<glyph glyph-name="Icircumflex" unicode="&#xce;" horiz-adv-x="312" d="M89 671 L89 633 L153 628 L164 613 L57 58 L41 44 L-23 38 L-23 0 L221 0 L221 38 L156 44 L144 58 L251 613 L267 628 L333 633 L333 671 L89 671 Z M227 928 L81 738 L136 738 L250 879 L311 738 L366 738 L292 928 L227 928 Z " />
<glyph glyph-name="Idieresis" unicode="&#xcf;" horiz-adv-x="312" d="M89 671 L89 633 L153 628 L164 613 L57 58 L41 44 L-23 38 L-23 0 L221 0 L221 38 L156 44 L144 58 L251 613 L267 628 L333 633 L333 671 L89 671 Z M146 884 C119 884 96 862 96 833 C96 805 120 782 146 782 C174 782 198 805 198 833 C198 861 175 884 146 884 L146 884 Z M333 884 C306 884 282 862 282 833 C282 805 307 782 333 782 C361 782 384 805 384 833 C384 861 362 884 333 884 L333 884 Z " />
<glyph glyph-name="Eth" unicode="&#xd0;" horiz-adv-x="671" d="M85 671 L85 633 L149 628 L159 613 L114 377 L24 377 L19 331 L105 331 L52 58 L36 44 L-28 38 L-28 0 L183 0 C320 0 421 33 500 111 C579 189 623 299 623 416 C623 581 517 671 312 671 L85 671 Z M249 625 L304 625 C454 625 526 561 526 426 C526 322 492 219 441 152 C389 84 304 47 195 47 L140 47 L192 331 L343 331 L352 377 L202 377 L249 625 Z " />
<glyph glyph-name="Ntilde" unicode="&#xd1;" horiz-adv-x="683" d="M81 671 L81 633 L146 628 L156 613 L49 58 L33 44 L-31 38 L-31 0 L180 0 L180 38 L116 44 L105 58 L202 556 L465 0 L523 0 L640 613 L656 628 L720 633 L720 671 L510 671 L510 633 L574 628 L584 613 L492 139 L253 646 L253 671 L81 671 Z M550 900 C543 855 526 833 499 833 C465 833 422 885 369 885 C311 885 273 844 261 765 L304 765 C307 806 328 830 351 830 C379 830 427 780 486 780 C537 780 583 825 592 900 L550 900 Z " />
<glyph glyph-name="Ograve" unicode="&#xd2;" horiz-adv-x="708" d="M405 682 C303 682 203 631 135 541 C74 461 41 363 41 259 C41 100 150 -12 305 -12 C409 -12 508 39 577 129 C636 206 669 308 669 420 C669 508 630 586 562 636 C522 665 468 682 405 682 L405 682 Z M571 419 C571 320 540 220 492 149 C441 74 379 36 310 36 C207 36 137 119 137 253 C137 351 167 451 216 523 C267 598 330 636 398 636 C502 636 571 555 571 419 L571 419 Z M312 928 L421 738 L471 738 L411 928 L312 928 Z " />
<glyph glyph-name="Oacute" unicode="&#xd3;" horiz-adv-x="708" d="M405 682 C303 682 203 631 135 541 C74 461 41 363 41 259 C41 100 150 -12 305 -12 C409 -12 508 39 577 129 C636 206 669 308 669 420 C669 508 630 586 562 636 C522 665 468 682 405 682 L405 682 Z M571 419 C571 320 540 220 492 149 C441 74 379 36 310 36 C207 36 137 119 137 253 C137 351 167 451 216 523 C267 598 330 636 398 636 C502 636 571 555 571 419 L571 419 Z M517 928 L384 738 L433 738 L616 928 L517 928 Z " />
<glyph glyph-name="Ocircumflex" unicode="&#xd4;" horiz-adv-x="708" d="M405 682 C303 682 203 631 135 541 C74 461 41 363 41 259 C41 100 150 -12 305 -12 C409 -12 508 39 577 129 C636 206 669 308 669 420 C669 508 630 586 562 636 C522 665 468 682 405 682 L405 682 Z M571 419 C571 320 540 220 492 149 C441 74 379 36 310 36 C207 36 137 119 137 253 C137 351 167 451 216 523 C267 598 330 636 398 636 C502 636 571 555 571 419 L571 419 Z M425 928 L279 738 L334 738 L448 879 L509 738 L564 738 L490 928 L425 928 Z " />
<glyph glyph-name="Otilde" unicode="&#xd5;" horiz-adv-x="708" d="M405 682 C303 682 203 631 135 541 C74 461 41 363 41 259 C41 100 150 -12 305 -12 C409 -12 508 39 577 129 C636 206 669 308 669 420 C669 508 630 586 562 636 C522 665 468 682 405 682 L405 682 Z M571 419 C571 320 540 220 492 149 C441 74 379 36 310 36 C207 36 137 119 137 253 C137 351 167 451 216 523 C267 598 330 636 398 636 C502 636 571 555 571 419 L571 419 Z M563 900 C556 855 539 833 512 833 C478 833 435 885 382 885 C324 885 286 844 274 765 L317 765 C320 806 341 830 364 830 C392 830 440 780 499 780 C550 780 596 825 605 900 L563 900 Z " />
<glyph glyph-name="Odieresis" unicode="&#xd6;" horiz-adv-x="708" d="M405 682 C303 682 203 631 135 541 C74 461 41 363 41 259 C41 100 150 -12 305 -12 C409 -12 508 39 577 129 C636 206 669 308 669 420 C669 508 630 586 562 636 C522 665 468 682 405 682 L405 682 Z M571 419 C571 320 540 220 492 149 C441 74 379 36 310 36 C207 36 137 119 137 253 C137 351 167 451 216 523 C267 598 330 636 398 636 C502 636 571 555 571 419 L571 419 Z M344 884 C317 884 294 862 294 833 C294 805 318 782 344 782 C372 782 396 805 396 833 C396 861 373 884 344 884 L344 884 Z M531 884 C504 884 480 862 480 833 C480 805 505 782 531 782 C559 782 582 805 582 833 C582 861 560 884 531 884 L531 884 Z " />
<glyph glyph-name="multiply" unicode="&#xd7;" horiz-adv-x="833" d="M186 571 L147 531 L379 298 L147 66 L186 26 L419 258 L651 26 L691 66 L459 298 L691 531 L651 571 L419 338 L186 571 Z " />
<glyph glyph-name="Oslash" unicode="&#xd8;" horiz-adv-x="708" d="M579 743 L524 657 C490 674 452 682 409 682 C303 682 204 631 135 541 C74 461 42 365 42 263 C42 169 73 96 130 49 L66 -50 L98 -74 L162 25 C208 0 256 -12 306 -12 C410 -12 508 39 577 129 C636 206 669 308 669 420 C669 507 632 582 561 636 L616 720 L579 743 Z M493 610 L168 110 C143 154 131 202 131 257 C131 352 161 453 210 524 C262 600 322 636 399 636 C434 636 465 627 493 610 L493 610 Z M525 582 C560 540 577 484 577 414 C577 317 546 217 498 146 C447 71 385 33 314 33 C270 33 232 48 198 79 L525 582 Z " />
<glyph glyph-name="Ugrave" unicode="&#xd9;" horiz-adv-x="664" d="M73 671 L73 633 L137 628 L148 613 L76 240 C69 204 64 175 64 152 C64 46 136 -11 269 -11 C358 -11 431 17 477 64 C527 116 538 174 551 240 L624 613 L641 628 L704 633 L704 671 L495 671 L495 633 L560 628 L572 613 L501 249 C475 114 421 50 297 50 C205 50 155 94 155 174 C155 192 158 218 164 249 L235 613 L251 628 L316 633 L316 671 L73 671 Z M290 928 L399 738 L449 738 L389 928 L290 928 Z " />
<glyph glyph-name="Uacute" unicode="&#xda;" horiz-adv-x="664" d="M73 671 L73 633 L137 628 L148 613 L76 240 C69 204 64 175 64 152 C64 46 136 -11 269 -11 C358 -11 431 17 477 64 C527 116 538 174 551 240 L624 613 L641 628 L704 633 L704 671 L495 671 L495 633 L560 628 L572 613 L501 249 C475 114 421 50 297 50 C205 50 155 94 155 174 C155 192 158 218 164 249 L235 613 L251 628 L316 633 L316 671 L73 671 Z M495 928 L362 738 L411 738 L594 928 L495 928 Z " />
<glyph glyph-name="Ucircumflex" unicode="&#xdb;" horiz-adv-x="664" d="M73 671 L73 633 L137 628 L148 613 L76 240 C69 204 64 175 64 152 C64 46 136 -11 269 -11 C358 -11 431 17 477 64 C527 116 538 174 551 240 L624 613 L641 628 L704 633 L704 671 L495 671 L495 633 L560 628 L572 613 L501 249 C475 114 421 50 297 50 C205 50 155 94 155 174 C155 192 158 218 164 249 L235 613 L251 628 L316 633 L316 671 L73 671 Z M403 928 L257 738 L312 738 L426 879 L487 738 L542 738 L468 928 L403 928 Z " />
<glyph glyph-name="Udieresis" unicode="&#xdc;" horiz-adv-x="664" d="M73 671 L73 633 L137 628 L148 613 L76 240 C69 204 64 175 64 152 C64 46 136 -11 269 -11 C358 -11 431 17 477 64 C527 116 538 174 551 240 L624 613 L641 628 L704 633 L704 671 L495 671 L495 633 L560 628 L572 613 L501 249 C475 114 421 50 297 50 C205 50 155 94 155 174 C155 192 158 218 164 249 L235 613 L251 628 L316 633 L316 671 L73 671 Z M322 884 C295 884 272 862 272 833 C272 805 296 782 322 782 C350 782 374 805 374 833 C374 861 351 884 322 884 L322 884 Z M509 884 C482 884 458 862 458 833 C458 805 483 782 509 782 C537 782 560 805 560 833 C560 861 538 884 509 884 L509 884 Z " />
<glyph glyph-name="Yacute" unicode="&#xdd;" horiz-adv-x="562" d="M31 671 L31 633 L96 628 L106 613 L218 272 L176 58 L160 44 L97 38 L97 0 L340 0 L340 38 L275 44 L262 58 L306 281 L560 613 L576 628 L642 633 L642 671 L418 671 L418 633 L482 628 L492 613 L283 330 L193 613 L209 628 L274 633 L274 671 L31 671 Z M444 928 L311 738 L360 738 L543 928 L444 928 Z " />
<glyph glyph-name="Thorn" unicode="&#xde;" horiz-adv-x="532" d="M83 671 L83 633 L146 628 L158 614 L50 58 L34 44 L-29 38 L-29 0 L207 0 L207 38 L143 44 L136 58 L150 128 C175 127 197 126 214 126 C399 126 517 237 517 382 C517 498 437 545 271 545 L232 545 L245 614 L261 628 L326 633 L326 671 L83 671 Z M223 500 C237 501 250 502 263 502 C372 502 423 462 423 371 C423 248 341 173 197 173 C185 173 172 174 159 175 L223 500 Z " />
<glyph glyph-name="germandbls" unicode="&#xdf;" horiz-adv-x="574" d="M490 437 C512 516 522 573 522 607 C522 688 468 738 374 738 C224 738 132 628 100 410 L58 123 C39 -10 22 -101 -25 -150 L-129 -123 C-143 -133 -151 -147 -151 -163 C-151 -195 -129 -216 -97 -216 C-49 -216 6 -178 59 -103 C105 -39 121 36 134 126 L179 431 C205 606 266 694 369 694 C425 694 455 664 455 610 C455 575 447 532 432 481 C333 473 270 408 270 331 C270 275 308 248 365 205 C407 173 434 150 434 112 C434 59 399 27 342 27 C311 27 287 39 271 62 L289 112 C273 124 260 130 246 130 C215 130 194 110 194 79 C194 27 242 -9 326 -9 C435 -9 509 58 509 145 C509 205 469 231 409 277 C362 313 334 335 334 368 C334 411 374 440 447 440 C458 440 472 439 490 437 L490 437 Z " />
<glyph glyph-name="agrave" unicode="&#xe0;" horiz-adv-x="525" d="M410 482 L390 460 C359 475 328 482 300 482 C201 482 120 435 69 351 C35 295 17 233 17 166 C17 56 70 -9 155 -9 C203 -9 251 19 304 75 C304 72 304 70 304 67 C304 16 323 -9 365 -9 C392 -9 433 3 488 26 L488 56 C461 50 443 46 432 46 C395 46 378 60 378 92 C378 106 381 129 388 162 L424 339 C439 413 452 461 462 482 L410 482 Z M317 443 L357 382 L305 118 C264 74 225 52 187 52 C129 52 100 92 100 172 C100 331 186 443 303 443 C308 443 312 443 317 443 L317 443 Z M194 736 L303 546 L353 546 L293 736 L194 736 Z " />
<glyph glyph-name="aacute" unicode="&#xe1;" horiz-adv-x="525" d="M410 482 L390 460 C359 475 328 482 300 482 C201 482 120 435 69 351 C35 295 17 233 17 166 C17 56 70 -9 155 -9 C203 -9 251 19 304 75 C304 72 304 70 304 67 C304 16 323 -9 365 -9 C392 -9 433 3 488 26 L488 56 C461 50 443 46 432 46 C395 46 378 60 378 92 C378 106 381 129 388 162 L424 339 C439 413 452 461 462 482 L410 482 Z M317 443 L357 382 L305 118 C264 74 225 52 187 52 C129 52 100 92 100 172 C100 331 186 443 303 443 C308 443 312 443 317 443 L317 443 Z M399 736 L266 546 L315 546 L498 736 L399 736 Z " />
<glyph glyph-name="acircumflex" unicode="&#xe2;" horiz-adv-x="525" d="M410 482 L390 460 C359 475 328 482 300 482 C201 482 120 435 69 351 C35 295 17 233 17 166 C17 56 70 -9 155 -9 C203 -9 251 19 304 75 C304 72 304 70 304 67 C304 16 323 -9 365 -9 C392 -9 433 3 488 26 L488 56 C461 50 443 46 432 46 C395 46 378 60 378 92 C378 106 381 129 388 162 L424 339 C439 413 452 461 462 482 L410 482 Z M317 443 L357 382 L305 118 C264 74 225 52 187 52 C129 52 100 92 100 172 C100 331 186 443 303 443 C308 443 312 443 317 443 L317 443 Z M307 736 L161 546 L216 546 L330 687 L391 546 L446 546 L372 736 L307 736 Z " />
<glyph glyph-name="atilde" unicode="&#xe3;" horiz-adv-x="525" d="M410 482 L390 460 C359 475 328 482 300 482 C201 482 120 435 69 351 C35 295 17 233 17 166 C17 56 70 -9 155 -9 C203 -9 251 19 304 75 C304 72 304 70 304 67 C304 16 323 -9 365 -9 C392 -9 433 3 488 26 L488 56 C461 50 443 46 432 46 C395 46 378 60 378 92 C378 106 381 129 388 162 L424 339 C439 413 452 461 462 482 L410 482 Z M317 443 L357 382 L305 118 C264 74 225 52 187 52 C129 52 100 92 100 172 C100 331 186 443 303 443 C308 443 312 443 317 443 L317 443 Z M445 708 C438 663 421 641 394 641 C360 641 317 693 264 693 C206 693 168 652 156 573 L199 573 C202 614 223 638 246 638 C274 638 322 588 381 588 C432 588 478 633 487 708 L445 708 Z " />
<glyph glyph-name="adieresis" unicode="&#xe4;" horiz-adv-x="525" d="M410 482 L390 460 C359 475 328 482 300 482 C201 482 120 435 69 351 C35 295 17 233 17 166 C17 56 70 -9 155 -9 C203 -9 251 19 304 75 C304 72 304 70 304 67 C304 16 323 -9 365 -9 C392 -9 433 3 488 26 L488 56 C461 50 443 46 432 46 C395 46 378 60 378 92 C378 106 381 129 388 162 L424 339 C439 413 452 461 462 482 L410 482 Z M317 443 L357 382 L305 118 C264 74 225 52 187 52 C129 52 100 92 100 172 C100 331 186 443 303 443 C308 443 312 443 317 443 L317 443 Z M226 692 C199 692 176 670 176 641 C176 613 200 590 226 590 C254 590 278 613 278 641 C278 669 255 692 226 692 L226 692 Z M413 692 C386 692 362 670 362 641 C362 613 387 590 413 590 C441 590 464 613 464 641 C464 669 442 692 413 692 L413 692 Z " />
<glyph glyph-name="aring" unicode="&#xe5;" horiz-adv-x="525" d="M318 761 C258 761 210 713 210 653 C210 593 258 546 318 546 C379 546 426 593 426 653 C426 713 378 761 318 761 L318 761 Z M318 720 C355 720 385 690 385 653 C385 617 355 587 318 587 C281 587 251 616 251 653 C251 691 281 720 318 720 L318 720 Z M390 460 C359 475 328 482 300 482 C201 482 120 435 69 351 C35 295 17 233 17 166 C17 56 70 -9 155 -9 C203 -9 251 19 304 75 C304 72 304 70 304 67 C304 16 323 -9 365 -9 C392 -9 433 3 488 26 L488 56 C461 50 443 46 432 46 C395 46 378 60 378 92 C378 106 381 129 388 162 L424 339 C439 413 452 461 462 482 L410 482 L390 460 Z M317 443 L357 382 L305 118 C264 74 225 52 187 52 C129 52 100 92 100 172 C100 331 186 443 303 443 C308 443 312 443 317 443 L317 443 Z " />
<glyph glyph-name="ae" unicode="&#xe6;" horiz-adv-x="671" d="M291 68 C320 16 362 -8 422 -8 C488 -8 554 21 616 81 L616 128 C558 74 502 46 456 46 C392 46 352 95 352 176 C352 192 353 208 355 222 C533 234 628 298 628 383 C628 443 588 482 525 482 C476 482 430 459 376 415 C362 461 327 482 268 482 C146 482 58 422 58 341 L156 341 L172 423 C196 433 218 439 239 439 C282 439 306 417 306 377 C306 364 304 348 300 329 L288 268 C97 249 2 192 2 93 C2 33 40 -8 103 -8 C158 -8 221 18 291 68 L291 68 Z M282 100 C237 68 196 52 159 52 C115 52 92 75 92 116 C92 181 153 215 280 231 C277 211 275 192 275 172 C275 148 278 124 282 100 L282 100 Z M360 256 C389 377 446 439 504 439 C533 439 556 417 556 386 C556 323 485 263 360 256 L360 256 Z " />
<glyph glyph-name="ccedilla" unicode="&#xe7;" horiz-adv-x="394" d="M307 360 C345 361 370 384 370 415 C370 453 332 485 277 485 C215 485 149 454 98 398 C45 340 15 261 15 172 C15 59 75 -10 163 -10 C222 -10 288 22 350 87 L350 133 C296 78 240 50 194 50 C132 50 94 99 94 186 C94 335 163 436 244 436 C246 436 247 436 249 436 L307 360 Z M105 0 L84 -107 C92 -106 99 -105 105 -105 C132 -105 148 -116 148 -133 C148 -164 120 -185 73 -185 C52 -185 33 -182 15 -177 L8 -213 C32 -220 55 -223 76 -223 C159 -223 213 -175 213 -116 C213 -80 191 -60 150 -60 C146 -60 138 -60 129 -61 L141 0 L105 0 Z " />
<glyph glyph-name="egrave" unicode="&#xe8;" horiz-adv-x="424" d="M110 256 C139 377 196 440 254 440 C283 440 306 417 306 386 C306 323 235 263 110 256 L110 256 Z M105 222 C283 234 378 298 378 383 C378 443 338 482 275 482 C226 482 161 453 110 400 C54 341 21 257 21 173 C21 57 78 -9 172 -9 C238 -9 304 21 366 81 L366 128 C308 74 252 46 206 46 C142 46 102 95 102 176 C102 192 103 208 105 222 L105 222 Z M156 736 L265 546 L315 546 L255 736 L156 736 Z " />
<glyph glyph-name="eacute" unicode="&#xe9;" horiz-adv-x="424" d="M110 256 C139 377 196 440 254 440 C283 440 306 417 306 386 C306 323 235 263 110 256 L110 256 Z M105 222 C283 234 378 298 378 383 C378 443 338 482 275 482 C226 482 161 453 110 400 C54 341 21 257 21 173 C21 57 78 -9 172 -9 C238 -9 304 21 366 81 L366 128 C308 74 252 46 206 46 C142 46 102 95 102 176 C102 192 103 208 105 222 L105 222 Z M361 736 L228 546 L277 546 L460 736 L361 736 Z " />
<glyph glyph-name="ecircumflex" unicode="&#xea;" horiz-adv-x="424" d="M110 256 C139 377 196 440 254 440 C283 440 306 417 306 386 C306 323 235 263 110 256 L110 256 Z M105 222 C283 234 378 298 378 383 C378 443 338 482 275 482 C226 482 161 453 110 400 C54 341 21 257 21 173 C21 57 78 -9 172 -9 C238 -9 304 21 366 81 L366 128 C308 74 252 46 206 46 C142 46 102 95 102 176 C102 192 103 208 105 222 L105 222 Z M269 736 L123 546 L178 546 L292 687 L353 546 L408 546 L334 736 L269 736 Z " />
<glyph glyph-name="edieresis" unicode="&#xeb;" horiz-adv-x="424" d="M110 256 C139 377 196 440 254 440 C283 440 306 417 306 386 C306 323 235 263 110 256 L110 256 Z M105 222 C283 234 378 298 378 383 C378 443 338 482 275 482 C226 482 161 453 110 400 C54 341 21 257 21 173 C21 57 78 -9 172 -9 C238 -9 304 21 366 81 L366 128 C308 74 252 46 206 46 C142 46 102 95 102 176 C102 192 103 208 105 222 L105 222 Z M188 692 C161 692 138 670 138 641 C138 613 162 590 188 590 C216 590 240 613 240 641 C240 669 217 692 188 692 L188 692 Z M375 692 C348 692 324 670 324 641 C324 613 349 590 375 590 C403 590 426 613 426 641 C426 669 404 692 375 692 L375 692 Z " />
<glyph glyph-name="igrave" unicode="&#xec;" horiz-adv-x="287" d="M181 482 L33 450 L33 424 L114 409 L55 111 C51 89 49 71 49 59 C49 15 70 -7 113 -7 C151 -7 199 5 254 28 L254 59 C223 49 199 44 180 44 C149 44 132 57 132 83 C132 89 133 97 135 108 L207 482 L181 482 Z M75 736 L184 546 L234 546 L174 736 L75 736 Z " />
<glyph glyph-name="iacute" unicode="&#xed;" horiz-adv-x="287" d="M181 482 L33 450 L33 424 L114 409 L55 111 C51 89 49 71 49 59 C49 15 70 -7 113 -7 C151 -7 199 5 254 28 L254 59 C223 49 199 44 180 44 C149 44 132 57 132 83 C132 89 133 97 135 108 L207 482 L181 482 Z M280 736 L147 546 L196 546 L379 736 L280 736 Z " />
<glyph glyph-name="icircumflex" unicode="&#xee;" horiz-adv-x="287" d="M181 482 L33 450 L33 424 L114 409 L55 111 C51 89 49 71 49 59 C49 15 70 -7 113 -7 C151 -7 199 5 254 28 L254 59 C223 49 199 44 180 44 C149 44 132 57 132 83 C132 89 133 97 135 108 L207 482 L181 482 Z M188 736 L42 546 L97 546 L211 687 L272 546 L327 546 L253 736 L188 736 Z " />
<glyph glyph-name="idieresis" unicode="&#xef;" horiz-adv-x="287" d="M181 482 L33 450 L33 424 L114 409 L55 111 C51 89 49 71 49 59 C49 15 70 -7 113 -7 C151 -7 199 5 254 28 L254 59 C223 49 199 44 180 44 C149 44 132 57 132 83 C132 89 133 97 135 108 L207 482 L181 482 Z M107 692 C80 692 57 670 57 641 C57 613 81 590 107 590 C135 590 159 613 159 641 C159 669 136 692 107 692 L107 692 Z M294 692 C267 692 243 670 243 641 C243 613 268 590 294 590 C322 590 345 613 345 641 C345 669 323 692 294 692 L294 692 Z " />
<glyph glyph-name="eth" unicode="&#xf0;" horiz-adv-x="500" d="M330 476 C308 480 288 481 271 481 C205 481 148 455 104 404 C52 344 22 261 22 181 C22 64 89 -9 192 -9 C335 -9 443 117 443 298 C443 394 411 493 352 604 L464 649 L449 684 L331 638 L270 725 L153 709 L149 681 L227 661 L262 610 L131 559 L145 522 L284 578 C301 545 316 511 330 476 L330 476 Z M340 437 C354 390 361 341 361 290 C361 134 289 32 204 32 C145 32 107 84 107 180 C107 338 178 444 283 444 C300 444 319 442 340 437 L340 437 Z " />
<glyph glyph-name="ntilde" unicode="&#xf1;" horiz-adv-x="556" d="M181 482 L33 449 L33 424 L115 409 L32 0 L117 0 L179 338 C240 394 293 420 327 420 C365 420 381 401 381 357 C381 344 379 322 372 293 L329 108 C324 86 321 67 321 54 C321 14 345 -6 394 -6 C422 -6 462 4 514 24 L514 52 C491 46 473 43 459 43 C426 43 407 60 407 92 C407 107 412 129 418 158 L452 313 C460 349 466 377 466 402 C466 451 434 482 382 482 C329 482 267 449 188 386 L206 482 L181 482 Z M443 708 C436 663 419 641 392 641 C358 641 315 693 262 693 C204 693 166 652 154 573 L197 573 C200 614 221 638 244 638 C272 638 320 588 379 588 C430 588 476 633 485 708 L443 708 Z " />
<glyph glyph-name="ograve" unicode="&#xf2;" horiz-adv-x="502" d="M279 483 C211 483 150 454 102 400 C52 343 22 262 22 181 C22 65 89 -9 192 -9 C261 -9 321 18 368 72 C420 132 449 208 449 287 C449 408 383 483 279 483 L279 483 Z M266 444 C327 444 364 392 364 293 C364 141 289 32 204 32 C144 32 107 84 107 180 C107 335 180 444 266 444 L266 444 Z M182 736 L291 546 L341 546 L281 736 L182 736 Z " />
<glyph glyph-name="oacute" unicode="&#xf3;" horiz-adv-x="502" d="M279 483 C211 483 150 454 102 400 C52 343 22 262 22 181 C22 65 89 -9 192 -9 C261 -9 321 18 368 72 C420 132 449 208 449 287 C449 408 383 483 279 483 L279 483 Z M266 444 C327 444 364 392 364 293 C364 141 289 32 204 32 C144 32 107 84 107 180 C107 335 180 444 266 444 L266 444 Z M387 736 L254 546 L303 546 L486 736 L387 736 Z " />
<glyph glyph-name="ocircumflex" unicode="&#xf4;" horiz-adv-x="502" d="M279 483 C211 483 150 454 102 400 C52 343 22 262 22 181 C22 65 89 -9 192 -9 C261 -9 321 18 368 72 C420 132 449 208 449 287 C449 408 383 483 279 483 L279 483 Z M266 444 C327 444 364 392 364 293 C364 141 289 32 204 32 C144 32 107 84 107 180 C107 335 180 444 266 444 L266 444 Z M295 736 L149 546 L204 546 L318 687 L379 546 L434 546 L360 736 L295 736 Z " />
<glyph glyph-name="otilde" unicode="&#xf5;" horiz-adv-x="502" d="M279 483 C211 483 150 454 102 400 C52 343 22 262 22 181 C22 65 89 -9 192 -9 C261 -9 321 18 368 72 C420 132 449 208 449 287 C449 408 383 483 279 483 L279 483 Z M266 444 C327 444 364 392 364 293 C364 141 289 32 204 32 C144 32 107 84 107 180 C107 335 180 444 266 444 L266 444 Z M433 708 C426 663 409 641 382 641 C348 641 305 693 252 693 C194 693 156 652 144 573 L187 573 C190 614 211 638 234 638 C262 638 310 588 369 588 C420 588 466 633 475 708 L433 708 Z " />
<glyph glyph-name="odieresis" unicode="&#xf6;" horiz-adv-x="502" d="M279 483 C211 483 150 454 102 400 C52 343 22 262 22 181 C22 65 89 -9 192 -9 C261 -9 321 18 368 72 C420 132 449 208 449 287 C449 408 383 483 279 483 L279 483 Z M266 444 C327 444 364 392 364 293 C364 141 289 32 204 32 C144 32 107 84 107 180 C107 335 180 444 266 444 L266 444 Z M214 692 C187 692 164 670 164 641 C164 613 188 590 214 590 C242 590 266 613 266 641 C266 669 243 692 214 692 L214 692 Z M401 692 C374 692 350 670 350 641 C350 613 375 590 401 590 C429 590 452 613 452 641 C452 669 430 692 401 692 L401 692 Z " />
<glyph glyph-name="divide" unicode="&#xf7;" horiz-adv-x="833" d="M417 530 C387 530 361 505 361 474 C361 443 385 418 417 418 C449 418 473 444 473 474 C473 505 448 530 417 530 L417 530 Z M124 327 L124 270 L709 270 L709 327 L124 327 Z M417 178 C387 178 361 154 361 122 C361 91 386 66 417 66 C449 66 473 92 473 122 C473 153 447 178 417 178 L417 178 Z " />
<glyph glyph-name="oslash" unicode="&#xf8;" horiz-adv-x="502" d="M414 547 L362 463 C340 476 312 483 279 483 C210 483 150 454 102 400 C52 343 22 262 22 181 C22 113 44 62 88 24 L35 -63 L60 -80 L116 7 C143 -4 169 -9 192 -9 C261 -9 321 19 368 72 C420 132 449 209 449 287 C449 357 427 410 388 445 L442 529 L414 547 Z M334 416 L122 81 C108 113 102 146 102 182 C102 331 179 444 268 444 C295 444 316 435 334 416 L334 416 Z M353 386 C365 363 371 331 371 291 C371 142 294 32 204 32 C180 32 159 39 143 55 L353 386 Z " />
<glyph glyph-name="ugrave" unicode="&#xf9;" horiz-adv-x="553" d="M187 483 L30 450 L30 424 L113 409 L55 146 C50 123 47 103 47 86 C47 27 84 -8 144 -8 C198 -8 258 19 325 75 C324 68 324 62 324 56 C324 12 343 -8 384 -8 C415 -8 457 3 512 23 L512 51 C488 44 469 40 456 40 C424 40 404 58 404 79 C404 100 409 122 414 147 L485 473 L404 473 L329 112 C273 68 222 49 187 49 C151 49 129 69 129 104 C129 119 133 144 140 178 L203 469 L187 483 Z M186 736 L295 546 L345 546 L285 736 L186 736 Z " />
<glyph glyph-name="uacute" unicode="&#xfa;" horiz-adv-x="553" d="M187 483 L30 450 L30 424 L113 409 L55 146 C50 123 47 103 47 86 C47 27 84 -8 144 -8 C198 -8 258 19 325 75 C324 68 324 62 324 56 C324 12 343 -8 384 -8 C415 -8 457 3 512 23 L512 51 C488 44 469 40 456 40 C424 40 404 58 404 79 C404 100 409 122 414 147 L485 473 L404 473 L329 112 C273 68 222 49 187 49 C151 49 129 69 129 104 C129 119 133 144 140 178 L203 469 L187 483 Z M391 736 L258 546 L307 546 L490 736 L391 736 Z " />
<glyph glyph-name="ucircumflex" unicode="&#xfb;" horiz-adv-x="553" d="M187 483 L30 450 L30 424 L113 409 L55 146 C50 123 47 103 47 86 C47 27 84 -8 144 -8 C198 -8 258 19 325 75 C324 68 324 62 324 56 C324 12 343 -8 384 -8 C415 -8 457 3 512 23 L512 51 C488 44 469 40 456 40 C424 40 404 58 404 79 C404 100 409 122 414 147 L485 473 L404 473 L329 112 C273 68 222 49 187 49 C151 49 129 69 129 104 C129 119 133 144 140 178 L203 469 L187 483 Z M299 736 L153 546 L208 546 L322 687 L383 546 L438 546 L364 736 L299 736 Z " />
<glyph glyph-name="udieresis" unicode="&#xfc;" horiz-adv-x="553" d="M187 483 L30 450 L30 424 L113 409 L55 146 C50 123 47 103 47 86 C47 27 84 -8 144 -8 C198 -8 258 19 325 75 C324 68 324 62 324 56 C324 12 343 -8 384 -8 C415 -8 457 3 512 23 L512 51 C488 44 469 40 456 40 C424 40 404 58 404 79 C404 100 409 122 414 147 L485 473 L404 473 L329 112 C273 68 222 49 187 49 C151 49 129 69 129 104 C129 119 133 144 140 178 L203 469 L187 483 Z M218 692 C191 692 168 670 168 641 C168 613 192 590 218 590 C246 590 270 613 270 641 C270 669 247 692 218 692 L218 692 Z M405 692 C378 692 354 670 354 641 C354 613 379 590 405 590 C433 590 456 613 456 641 C456 669 434 692 405 692 L405 692 Z " />
<glyph glyph-name="yacute" unicode="&#xfd;" horiz-adv-x="475" d="M83 485 L-15 453 L-15 431 L70 424 C88 400 101 366 110 320 L172 19 L175 21 C116 -92 61 -151 0 -155 L-59 -96 C-92 -101 -113 -124 -113 -151 C-113 -187 -78 -217 -29 -217 C54 -217 145 -133 237 34 C320 184 360 323 433 405 L484 435 L484 456 L405 482 L386 482 C323 335 271 209 229 102 L196 271 C167 417 160 486 96 486 C92 486 87 486 83 485 L83 485 Z M374 736 L241 546 L290 546 L473 736 L374 736 Z " />
<glyph glyph-name="thorn" unicode="&#xfe;" horiz-adv-x="516" d="M212 736 L60 706 L60 680 L149 670 L0 -165 L-10 -176 L-69 -188 L-69 -218 L171 -218 L171 -188 L76 -171 L109 15 C134 3 160 -4 186 -4 C254 -4 325 29 376 85 C433 148 461 221 461 308 C461 421 413 483 334 483 C291 483 241 462 183 421 L227 671 C229 681 233 703 239 736 L212 736 Z M119 67 L176 377 C221 412 258 430 288 430 C342 430 378 385 378 306 C378 226 350 145 317 101 C286 60 249 40 205 40 C177 40 149 49 119 67 L119 67 Z " />
<glyph glyph-name="ydieresis" unicode="&#xff;" horiz-adv-x="475" d="M83 485 L-15 453 L-15 431 L70 424 C88 400 101 366 110 320 L172 19 L175 21 C116 -92 61 -151 0 -155 L-59 -96 C-92 -101 -113 -124 -113 -151 C-113 -187 -78 -217 -29 -217 C54 -217 145 -133 237 34 C320 184 360 323 433 405 L484 435 L484 456 L405 482 L386 482 C323 335 271 209 229 102 L196 271 C167 417 160 486 96 486 C92 486 87 486 83 485 L83 485 Z M201 692 C174 692 151 670 151 641 C151 613 175 590 201 590 C229 590 253 613 253 641 C253 669 230 692 201 692 L201 692 Z M388 692 C361 692 337 670 337 641 C337 613 362 590 388 590 C416 590 439 613 439 641 C439 669 417 692 388 692 L388 692 Z " />
<glyph glyph-name="dotlessi" unicode="&#x131;" horiz-adv-x="287" d="M181 482 L33 450 L33 424 L114 409 L55 111 C51 89 49 71 49 59 C49 15 70 -7 113 -7 C151 -7 199 5 254 28 L254 59 C223 49 199 44 180 44 C149 44 132 57 132 83 C132 89 133 97 135 108 L207 482 L181 482 Z " />
<glyph glyph-name="Lslash" unicode="&#x141;" horiz-adv-x="498" d="M84 671 L84 633 L149 628 L159 613 L109 355 L6 298 L27 256 L97 295 L52 58 L36 43 L-28 38 L-28 0 L418 0 L453 182 L405 182 L366 62 L348 46 L136 46 L196 352 L330 423 L307 464 L206 409 L246 613 L262 628 L327 633 L327 671 L84 671 Z " />
<glyph glyph-name="lslash" unicode="&#x142;" horiz-adv-x="275" d="M212 736 L60 706 L60 680 L149 670 L89 376 L-14 323 L3 286 L82 329 L53 180 C41 117 35 79 35 65 C35 15 59 -9 108 -9 C139 -9 184 1 241 25 L241 56 C211 46 187 40 170 40 C134 40 115 56 115 87 C115 101 118 129 126 168 L167 371 L292 436 L273 471 L178 422 L227 671 C228 677 232 699 239 736 L212 736 Z " />
<glyph glyph-name="OE" unicode="&#x152;" horiz-adv-x="1007" d="M571 419 C571 320 540 220 492 149 C441 74 379 36 310 36 C207 36 137 118 137 253 C137 352 167 452 216 523 C267 598 330 636 398 636 C502 636 571 555 571 419 L571 419 Z M606 556 C568 642 506 682 411 682 C331 682 257 654 195 603 C98 522 41 397 41 259 C41 100 150 -12 304 -12 C385 -12 453 20 514 85 L499 0 L911 0 L943 163 L897 163 L862 62 L845 46 L590 46 L644 325 L797 325 L808 311 L804 239 L845 239 L888 459 L845 459 L822 386 L805 372 L653 372 L702 625 L917 625 L927 610 L927 525 L975 525 L1004 671 L626 671 L606 556 Z " />
<glyph glyph-name="oe" unicode="&#x153;" horiz-adv-x="750" d="M263 444 C322 444 359 391 359 293 C359 141 287 32 203 32 C145 32 108 83 108 178 C108 335 179 444 263 444 L263 444 Z M429 390 C400 451 348 483 279 483 C210 483 150 454 102 400 C52 343 22 262 22 181 C22 65 89 -9 192 -9 C260 -9 317 18 366 71 C391 18 436 -9 499 -9 C564 -9 630 21 692 81 L692 128 C634 74 579 46 533 46 C469 46 428 95 428 176 C428 192 429 208 431 222 C609 234 704 298 704 383 C704 443 665 483 602 483 C548 483 484 451 429 390 L429 390 Z M437 256 C466 377 523 440 581 440 C610 440 632 417 632 386 C632 323 562 263 437 256 L437 256 Z " />
<glyph glyph-name="Scaron" unicode="&#x160;" horiz-adv-x="537" d="M511 653 C457 673 401 682 344 682 C195 682 97 590 97 470 C97 389 161 350 266 296 C331 263 376 246 376 182 C376 94 309 36 205 36 C168 36 132 46 94 65 L84 78 L94 193 L42 193 L9 34 C65 3 127 -12 193 -12 C353 -12 464 80 464 202 C464 287 412 326 314 372 C230 411 182 430 182 503 C182 577 247 637 340 637 C369 637 398 631 427 618 L439 600 L435 501 L479 501 L511 653 Z M229 928 L303 738 L368 738 L514 928 L460 928 L345 787 L285 928 L229 928 Z " />
<glyph glyph-name="scaron" unicode="&#x161;" horiz-adv-x="370" d="M266 369 C303 371 324 392 324 420 C324 455 288 482 231 482 C135 482 59 413 59 331 C59 275 97 248 154 205 C196 173 223 150 223 112 C223 59 189 27 132 27 C101 27 76 39 60 62 L78 112 C62 124 49 130 35 130 C4 130 -17 110 -17 79 C-17 27 32 -9 116 -9 C225 -9 299 58 299 145 C299 205 258 231 198 277 C151 313 123 334 123 370 C123 409 153 437 193 437 C204 437 214 434 224 427 L266 369 Z M119 736 L193 546 L258 546 L404 736 L350 736 L235 595 L175 736 L119 736 Z " />
<glyph glyph-name="Ydieresis" unicode="&#x178;" horiz-adv-x="562" d="M31 671 L31 633 L96 628 L106 613 L218 272 L176 58 L160 44 L97 38 L97 0 L340 0 L340 38 L275 44 L262 58 L306 281 L560 613 L576 628 L642 633 L642 671 L418 671 L418 633 L482 628 L492 613 L283 330 L193 613 L209 628 L274 633 L274 671 L31 671 Z M271 884 C244 884 221 862 221 833 C221 805 245 782 271 782 C299 782 323 805 323 833 C323 861 300 884 271 884 L271 884 Z M458 884 C431 884 407 862 407 833 C407 805 432 782 458 782 C486 782 509 805 509 833 C509 861 487 884 458 884 L458 884 Z " />
<glyph glyph-name="Zcaron" unicode="&#x17d;" horiz-adv-x="556" d="M128 671 L98 516 L150 516 L184 610 L206 623 L454 623 L-18 41 L-25 0 L445 0 L479 181 L430 181 L390 62 L376 49 L90 49 L563 629 L572 671 L128 671 Z M239 928 L313 738 L378 738 L524 928 L470 928 L355 787 L295 928 L239 928 Z " />
<glyph glyph-name="zcaron" unicode="&#x17e;" horiz-adv-x="440" d="M373 490 L354 441 C343 436 333 433 324 433 C303 433 282 443 256 456 C229 470 204 483 174 483 C105 483 39 413 39 343 C39 306 58 284 86 284 C106 284 121 295 133 316 L80 380 C95 401 117 412 143 412 C164 412 194 402 231 383 L330 405 L-14 19 L41 -11 L65 32 C76 38 86 41 97 41 C145 41 196 -2 253 -2 C326 -2 392 69 392 138 C392 174 371 198 343 198 C326 198 309 186 295 162 L350 101 C334 77 313 65 288 65 C269 65 235 76 186 98 L89 73 L434 458 L373 490 Z M154 736 L228 546 L293 546 L439 736 L385 736 L270 595 L210 736 L154 736 Z " />
<glyph glyph-name="florin" unicode="&#x192;" horiz-adv-x="556" d="M505 561 C543 580 563 603 563 633 C563 660 534 683 488 683 C442 683 384 661 337 622 C278 573 254 521 239 443 L225 368 L106 368 L106 319 L216 319 L173 100 C152 -7 127 -74 59 -109 L-32 -52 C-64 -70 -81 -96 -81 -123 C-81 -151 -60 -169 -25 -169 C43 -169 124 -127 181 -52 C243 29 269 151 297 319 L464 319 L464 368 L306 368 L321 448 C341 550 364 610 434 633 L505 561 Z " />
<glyph glyph-name="circumflex" unicode="&#x2c6;" horiz-adv-x="500" d="M294 736 L148 546 L203 546 L317 687 L378 546 L433 546 L359 736 L294 736 Z " />
<glyph glyph-name="caron" unicode="&#x2c7;" horiz-adv-x="500" d="M184 736 L258 546 L323 546 L469 736 L415 736 L300 595 L240 736 L184 736 Z " />
<glyph glyph-name="breve" unicode="&#x2d8;" horiz-adv-x="500" d="M180 709 C178 695 177 683 177 671 C177 600 215 567 296 567 C394 567 444 611 463 709 L424 709 C409 646 376 630 303 630 C244 630 219 649 219 693 C219 698 219 703 220 709 L180 709 Z " />
<glyph glyph-name="dotaccent" unicode="&#x2d9;" horiz-adv-x="500" d="M303 697 C273 697 249 672 249 641 C249 610 275 585 303 585 C334 585 361 610 361 641 C361 672 335 697 303 697 L303 697 Z " />
<glyph glyph-name="ring" unicode="&#x2da;" horiz-adv-x="500" d="M318 773 C258 773 210 726 210 666 C210 606 258 558 318 558 C379 558 426 606 426 666 C426 726 378 773 318 773 L318 773 Z M318 732 C355 732 385 702 385 665 C385 629 355 599 318 599 C281 599 252 628 252 665 C252 703 281 732 318 732 L318 732 Z " />
<glyph glyph-name="ogonek" unicode="&#x2db;" horiz-adv-x="500" d="M229 0 L186 0 C124 -42 91 -103 91 -154 C91 -193 119 -216 173 -216 C190 -216 207 -214 225 -209 L235 -159 C219 -161 208 -163 201 -163 C171 -163 154 -147 154 -122 C154 -84 179 -37 229 0 L229 0 Z " />
<glyph glyph-name="tilde" unicode="&#x2dc;" horiz-adv-x="500" d="M432 708 C425 663 408 641 381 641 C347 641 304 693 251 693 C193 693 155 652 143 573 L186 573 C189 614 210 638 233 638 C261 638 309 588 368 588 C419 588 465 633 474 708 L432 708 Z " />
<glyph glyph-name="hungarumlaut" unicode="&#x2dd;" horiz-adv-x="500" d="M311 736 L175 546 L218 546 L403 736 L311 736 Z M462 736 L281 546 L328 546 L569 736 L462 736 Z " />
<glyph glyph-name="endash" unicode="&#x2013;" horiz-adv-x="500" d="M-12 271 L-24 210 L476 210 L487 271 L-12 271 Z " />
<glyph glyph-name="emdash" unicode="&#x2014;" horiz-adv-x="1000" d="M991 271 L-7 271 L-19 210 L979 210 L991 271 Z " />
<glyph glyph-name="quoteleft" unicode="&#x2018;" horiz-adv-x="201" d="M203 713 C114 641 70 569 70 509 C70 467 95 442 134 442 C175 442 205 475 205 510 C205 519 203 527 198 536 L134 536 C134 537 134 537 134 538 C134 590 173 646 246 713 L203 713 Z " />
<glyph glyph-name="quoteright" unicode="&#x2019;" horiz-adv-x="201" d="M94 442 C183 514 227 585 227 647 C227 687 202 713 163 713 C123 713 92 680 92 645 C92 636 94 628 99 619 L163 619 C163 618 163 616 163 615 C163 568 129 513 51 442 L94 442 Z " />
<glyph glyph-name="quotesinglbase" unicode="&#x201a;" horiz-adv-x="201" d="M-22 -164 C67 -92 111 -21 111 41 C111 81 86 106 47 106 C7 106 -24 74 -24 39 C-24 30 -22 21 -17 12 L47 12 C47 -41 9 -96 -65 -164 L-22 -164 Z " />
<glyph glyph-name="quotedblleft" unicode="&#x201c;" horiz-adv-x="403" d="M203 713 C114 641 70 569 70 509 C70 467 95 442 134 442 C175 442 205 475 205 510 C205 519 203 527 198 536 L134 536 C134 537 134 537 134 538 C134 590 173 646 246 713 L203 713 Z M405 713 C316 641 272 569 272 509 C272 467 296 442 335 442 C376 442 407 475 407 510 C407 519 405 527 400 536 L336 536 C336 537 336 539 336 540 C336 587 371 642 448 713 L405 713 Z " />
<glyph glyph-name="quotedblright" unicode="&#x201d;" horiz-adv-x="403" d="M94 442 C183 514 227 585 227 647 C227 687 202 713 163 713 C123 713 92 680 92 645 C92 636 94 628 99 619 L163 619 C163 618 163 616 163 615 C163 568 129 513 51 442 L94 442 Z M296 442 C385 514 428 585 428 647 C428 687 404 713 365 713 C325 713 293 680 293 645 C293 636 295 628 300 619 L365 619 C365 618 365 616 365 615 C365 568 331 513 253 442 L296 442 Z " />
<glyph glyph-name="quotedblbase" unicode="&#x201e;" horiz-adv-x="403" d="M-22 -164 C67 -92 111 -21 111 41 C111 81 86 106 47 106 C7 106 -24 74 -24 39 C-24 30 -22 21 -17 12 L47 12 C47 -41 9 -96 -65 -164 L-22 -164 Z M180 -164 C269 -92 312 -21 312 41 C312 81 288 106 249 106 C209 106 177 74 177 39 C177 30 179 21 184 12 L249 12 C249 -41 211 -96 137 -164 L180 -164 Z " />
<glyph glyph-name="dagger" unicode="&#x2020;" horiz-adv-x="500" d="M323 718 L263 642 L275 502 L289 502 L353 642 L323 718 Z M125 528 L46 483 L107 437 L258 472 L261 488 L125 528 Z M447 528 L298 488 L295 472 L429 437 L511 483 L447 528 Z M267 460 L194 294 L154 -129 L168 -129 L291 294 L281 460 L267 460 Z " />
<glyph glyph-name="daggerdbl" unicode="&#x2021;" horiz-adv-x="500" d="M323 718 L263 642 L275 502 L289 502 L353 642 L323 718 Z M125 528 L46 483 L107 437 L258 472 L261 488 L125 528 Z M447 528 L298 488 L295 472 L429 437 L511 483 L447 528 Z M267 460 L184 294 L203 127 L217 127 L297 294 L281 460 L267 460 Z M53 151 L-27 106 L35 60 L186 95 L189 111 L53 151 Z M374 151 L225 111 L222 95 L357 60 L439 106 L374 151 Z M195 84 L129 -56 L159 -132 L219 -56 L209 84 L195 84 Z " />
<glyph glyph-name="bullet" unicode="&#x2022;" horiz-adv-x="590" d="M150 372 C150 292 214 227 294 227 C374 227 439 293 439 372 C439 452 374 516 295 516 C215 516 150 452 150 372 L150 372 Z " />
<glyph glyph-name="ellipsis" unicode="&#x2026;" horiz-adv-x="1000" d="M113 114 C80 114 54 87 54 54 C54 21 81 -5 113 -5 C146 -5 173 21 173 54 C173 87 146 114 113 114 L113 114 Z M446 114 C413 114 387 87 387 54 C387 21 414 -5 446 -5 C479 -5 506 21 506 54 C506 87 479 114 446 114 L446 114 Z M780 114 C747 114 721 87 721 54 C721 21 748 -5 780 -5 C813 -5 840 21 840 54 C840 87 813 114 780 114 L780 114 Z " />
<glyph glyph-name="perthousand" unicode="&#x2030;" horiz-adv-x="1225" d="M247 683 C189 683 137 652 100 592 C69 541 50 471 50 404 C50 315 94 264 167 264 C226 264 277 295 314 355 C346 407 365 475 365 542 C365 630 320 683 247 683 L247 683 Z M673 671 L116 0 L177 0 L734 671 L673 671 Z M239 647 C276 647 294 617 294 558 C294 493 278 422 255 372 C233 323 206 300 174 300 C135 300 118 328 118 388 C118 452 133 521 157 574 C179 623 206 647 239 647 L239 647 Z M684 407 C626 407 574 376 537 316 C506 265 487 196 487 129 C487 40 531 -12 604 -12 C663 -12 714 20 751 80 C783 132 802 200 802 267 C802 355 757 407 684 407 L684 407 Z M1056 407 C998 407 947 376 910 316 C879 265 859 195 859 128 C859 39 903 -12 976 -12 C1035 -12 1086 20 1123 80 C1155 132 1174 200 1174 267 C1174 355 1129 407 1056 407 L1056 407 Z M676 372 C713 372 731 342 731 283 C731 218 715 147 692 97 C670 48 643 24 611 24 C572 24 555 53 555 113 C555 177 570 246 594 299 C616 348 643 372 676 372 L676 372 Z M1048 372 C1085 372 1104 342 1104 283 C1104 218 1088 147 1065 97 C1043 49 1015 24 983 24 C944 24 928 53 928 113 C928 177 943 246 967 299 C989 348 1015 372 1048 372 L1048 372 Z " />
<glyph glyph-name="guilsinglleft" unicode="&#x2039;" horiz-adv-x="245" d="M218 413 L28 280 L13 200 L151 67 L164 132 L67 240 L205 347 L218 413 Z " />
<glyph glyph-name="guilsinglright" unicode="&#x203a;" horiz-adv-x="245" d="M60 413 L48 347 L144 240 L6 132 L-6 67 L184 200 L199 280 L60 413 Z " />
<glyph glyph-name="fraction" unicode="&#x2044;" horiz-adv-x="167" d="M331 671 L-226 0 L-165 0 L392 671 L331 671 Z " />
<glyph glyph-name="trademark" unicode="&#x2122;" horiz-adv-x="822" d="M118 662 L118 593 L145 593 L151 633 L159 639 L211 639 L211 425 L172 421 L172 399 L294 399 L294 421 L256 425 L256 639 L308 639 L315 633 L321 593 L347 593 L347 662 L118 662 Z M377 662 L377 639 L409 634 L409 425 L378 421 L378 399 L468 399 L468 421 L437 425 L437 637 L525 399 L547 399 L639 637 L639 425 L609 421 L609 399 L716 399 L716 421 L684 425 L684 634 L716 639 L716 662 L616 662 L616 649 L547 470 L479 650 L479 662 L377 662 Z " />
<glyph glyph-name="minus" unicode="&#x2212;" horiz-adv-x="833" d="M124 327 L124 269 L709 269 L709 327 L124 327 Z " />
<glyph glyph-name="fi" unicode="&#xfb01;" horiz-adv-x="574" d="M493 704 C463 704 439 680 439 650 C439 619 463 596 493 596 C522 596 547 620 547 650 C547 679 522 704 493 704 L493 704 Z M354 621 C385 627 403 647 403 673 C403 703 368 732 320 732 C227 732 143 639 110 467 L34 436 L33 403 L100 410 L58 123 C39 -10 22 -101 -25 -150 L-129 -123 C-143 -133 -151 -147 -151 -163 C-151 -195 -129 -216 -97 -216 C-49 -216 6 -178 59 -103 C103 -41 121 34 134 126 L174 410 L406 409 L347 111 C343 89 341 71 341 59 C341 15 362 -7 405 -7 C443 -7 491 5 546 28 L546 59 C515 49 491 44 472 44 C441 44 424 57 424 83 C424 89 425 97 427 108 L499 482 L473 482 L348 455 L182 455 C204 585 234 663 272 688 L354 621 Z " />
<glyph glyph-name="fl" unicode="&#xfb02;" horiz-adv-x="579" d="M515 736 L383 710 C367 725 347 732 320 732 C227 732 143 639 110 467 L34 436 L33 403 L100 410 L58 123 C39 -10 22 -101 -25 -150 L-129 -123 C-143 -133 -151 -147 -151 -163 C-151 -195 -129 -216 -97 -216 C-49 -216 6 -178 59 -103 C103 -41 121 34 134 126 L174 409 L322 409 L322 455 L182 455 C204 585 234 663 272 688 L354 621 L403 675 L452 670 L356 180 C344 118 339 79 339 65 C339 15 362 -9 411 -9 C442 -9 487 1 544 25 L544 56 C514 46 490 40 473 40 C437 40 418 56 418 87 C418 101 421 128 429 168 L530 671 C531 677 535 699 542 736 L515 736 Z " />
</font>
</svg>
