<?xml version="1.0" encoding="UTF-8"?>
<svg xmlns="http://www.w3.org/2000/svg" xmlns:xlink="http://www.w3.org/1999/xlink" version="1.2" >
<font id="Courier 10 Pitch">
<font-face  font-family="Courier 10 Pitch" units-per-em="1000" ascent="639" descent="-195" font-style="normal" font-weight="400" font-stretch="normal" cap-height="579" x-height="452" underline-position="-56.5" underline-thickness="81" />
<missing-glyph  horiz-adv-x="602" d="" />
<glyph glyph-name="NULL" d="" />
<glyph glyph-name="CR" unicode="&#xd;" horiz-adv-x="250" d="" />
<glyph glyph-name="space" unicode="&#x20;" horiz-adv-x="602" d="" />
<glyph glyph-name="exclam" unicode="&#x21;" horiz-adv-x="602" d="M210 67 C210 23 246 -11 301 -11 C357 -11 392 22 392 67 C392 111 357 144 301 144 C245 144 210 111 210 67 L210 67 Z M244 546 L261 229 C262 208 278 192 301 192 C324 192 340 208 341 229 L358 546 C358 548 358 549 358 551 C358 589 336 612 301 612 C266 612 244 589 244 551 C244 549 244 548 244 546 L244 546 Z " />
<glyph glyph-name="quotedbl" unicode="&#x22;" horiz-adv-x="602" d="M195 338 L225 338 C244 338 248 347 250 368 L265 549 C265 551 265 553 265 555 C265 571 257 579 242 579 L177 579 C162 579 155 571 155 555 C155 553 155 551 155 549 L170 368 C172 347 176 338 195 338 L195 338 Z M377 338 L407 338 C426 338 430 347 432 368 L447 549 C447 551 447 553 447 555 C447 571 440 579 425 579 L360 579 C345 579 337 571 337 555 C337 553 337 551 337 549 L352 368 C354 347 358 338 377 338 L377 338 Z " />
<glyph glyph-name="numbersign" unicode="&#x23;" horiz-adv-x="602" d="M247 -27 L259 184 L330 184 L320 -24 C320 -25 320 -26 320 -26 C320 -46 332 -58 349 -58 C369 -58 380 -47 381 -27 L392 184 L464 184 C485 184 496 196 496 217 C496 238 485 250 464 250 L396 250 L402 366 L464 366 C485 366 496 378 496 399 C496 420 485 431 464 431 L404 431 L416 640 C416 641 416 642 416 642 C416 662 403 673 385 673 C367 673 356 663 355 643 L343 431 L272 431 L282 640 C282 641 282 642 282 642 C282 662 270 673 252 673 C234 673 223 663 222 643 L210 431 L137 431 C116 431 105 420 105 399 C105 378 116 366 137 366 L207 366 L202 250 L137 250 C116 250 105 238 105 217 C105 196 116 184 137 184 L198 184 L187 -24 C187 -25 187 -26 187 -27 C187 -46 198 -58 215 -58 C235 -58 246 -47 247 -27 L247 -27 Z M262 250 L268 366 L341 366 L334 250 L262 250 Z " />
<glyph glyph-name="dollar" unicode="&#x24;" horiz-adv-x="602" d="M359 337 L265 368 C217 384 192 412 192 448 C192 493 232 525 301 525 C348 525 386 509 399 483 C410 462 412 441 442 441 C464 441 476 455 476 478 L476 538 C476 565 469 578 442 578 C433 578 424 573 414 561 C391 572 368 580 345 586 L348 625 C348 627 348 629 348 631 C348 654 336 666 314 666 C292 666 280 652 278 626 L275 589 C169 581 111 525 111 443 C111 379 152 323 219 300 L304 271 C373 247 413 230 413 178 C413 134 374 101 311 101 C252 101 197 128 185 149 C175 166 176 203 138 203 C114 203 98 186 98 163 L98 95 C98 65 115 47 140 47 C155 47 165 54 175 69 C199 52 223 41 251 36 L245 -74 C245 -77 245 -81 245 -84 C245 -110 253 -122 278 -122 C301 -122 313 -108 314 -80 L320 33 C433 40 497 101 497 183 C497 259 451 307 359 337 L359 337 Z " />
<glyph glyph-name="percent" unicode="&#x25;" horiz-adv-x="602" d="M101 485 C101 410 160 353 244 353 C328 353 386 410 386 485 C386 560 328 617 244 617 C161 617 101 560 101 485 L101 485 Z M215 131 C215 56 274 -1 358 -1 C442 -1 500 56 500 131 C500 206 442 262 358 262 C275 262 215 206 215 131 L215 131 Z M454 399 L127 269 C115 264 106 253 106 242 C106 227 118 215 134 215 C138 215 142 216 147 218 L475 348 C487 353 494 364 494 375 C494 391 484 402 468 402 C464 402 459 401 454 399 L454 399 Z M162 485 C162 528 194 559 244 559 C294 559 326 528 326 485 C326 442 294 411 244 411 C194 411 162 442 162 485 L162 485 Z M275 131 C275 174 308 205 358 205 C408 205 440 174 440 131 C440 88 408 56 358 56 C308 56 275 88 275 131 L275 131 Z " />
<glyph glyph-name="ampersand" unicode="&#x26;" horiz-adv-x="602" d="M341 103 C314 78 289 65 261 65 C213 65 175 105 175 156 C175 193 193 224 232 251 L341 103 Z M384 46 L399 27 C410 12 417 0 430 0 L471 0 C485 0 496 13 496 39 C496 61 486 72 475 72 L463 72 L433 114 C449 148 462 182 470 216 C495 221 501 229 501 253 C501 276 487 290 474 290 L444 290 C404 290 413 241 386 175 L265 341 C240 376 221 402 221 429 C221 459 244 482 278 482 C318 482 347 446 369 446 C385 446 407 467 407 491 C407 509 395 520 374 520 C370 520 366 520 362 519 C330 536 303 547 274 547 C200 547 143 493 143 425 C143 390 159 353 189 310 C121 259 89 212 89 147 C89 57 154 -11 241 -11 C293 -11 340 8 384 46 L384 46 Z " />
<glyph glyph-name="quotesingle" unicode="&#x27;" horiz-adv-x="602" d="M285 331 L316 331 C336 331 340 340 342 362 L358 548 C358 550 358 552 358 554 C358 571 349 579 334 579 L267 579 C252 579 244 571 244 554 C244 552 244 550 244 548 L259 362 C261 340 265 331 285 331 L285 331 Z " />
<glyph glyph-name="parenleft" unicode="&#x28;" horiz-adv-x="602" d="M400 574 C400 588 392 596 381 596 C358 596 326 565 288 503 C230 409 202 310 202 200 C202 90 230 -9 288 -103 C326 -165 358 -196 381 -196 C392 -196 400 -187 400 -173 C400 -154 373 -114 345 -43 C314 37 298 114 298 200 C298 310 324 393 359 476 C380 526 400 557 400 574 L400 574 Z " />
<glyph glyph-name="parenright" unicode="&#x29;" horiz-adv-x="602" d="M201 -173 C201 -187 209 -196 220 -196 C243 -196 275 -165 313 -103 C371 -9 400 90 400 200 C400 310 371 409 313 503 C275 565 243 596 220 596 C209 596 201 588 201 574 C201 555 228 515 256 444 C287 364 303 286 303 200 C303 90 278 7 243 -76 C222 -126 201 -156 201 -173 L201 -173 Z " />
<glyph glyph-name="asterisk" unicode="&#x2a;" horiz-adv-x="602" d="M329 419 L341 559 C341 561 341 563 341 565 C341 577 336 579 320 579 L281 579 C265 579 260 577 260 565 C260 563 260 561 260 559 L273 419 L144 475 C139 477 135 477 132 477 C126 477 123 472 119 460 L106 423 C104 416 103 410 103 408 C103 403 109 399 119 397 L255 366 L163 260 C158 255 156 251 156 246 C156 243 160 238 169 232 L200 209 C208 203 213 201 215 201 C219 201 224 205 228 212 L301 333 L373 212 C377 204 381 201 386 201 C389 201 393 204 401 209 L433 232 C442 238 445 243 445 246 C445 251 442 255 438 260 L346 366 L483 397 C493 399 498 403 498 409 C498 411 497 415 495 423 L483 460 C479 472 477 477 470 477 C468 477 463 476 458 474 L329 419 Z " />
<glyph glyph-name="plus" unicode="&#x2b;" horiz-adv-x="602" d="M514 343 L337 343 L337 527 C337 550 323 566 301 566 C279 566 264 550 264 527 L264 343 L88 343 C67 343 49 327 49 307 C49 286 65 272 88 272 L264 272 L264 89 C264 68 281 50 301 50 C323 50 337 66 337 89 L337 272 L514 272 C537 272 553 286 553 307 C553 329 537 343 514 343 L514 343 Z " />
<glyph glyph-name="comma" unicode="&#x2c;" horiz-adv-x="602" d="M243 136 L180 -112 C179 -116 179 -119 179 -124 C179 -132 184 -138 194 -142 L229 -155 C232 -156 235 -157 238 -157 C247 -157 255 -151 260 -141 L394 138 C397 144 398 149 398 152 C398 158 392 162 382 162 L275 162 C253 162 248 157 243 136 L243 136 Z " />
<glyph glyph-name="hyphen" unicode="&#x2d;" horiz-adv-x="602" d="M97 178 L502 178 C514 178 525 189 525 201 L525 253 C525 265 517 273 502 273 L97 273 C84 273 76 265 76 253 L76 201 C76 187 84 178 97 178 L97 178 Z " />
<glyph glyph-name="period" unicode="&#x2e;" horiz-adv-x="602" d="M205 80 C205 30 243 -7 301 -7 C359 -7 397 29 397 80 C397 131 359 167 301 167 C243 167 205 130 205 80 L205 80 Z " />
<glyph glyph-name="slash" unicode="&#x2f;" horiz-adv-x="602" d="M191 -13 L498 648 C501 654 503 660 503 666 C503 685 486 699 468 699 C448 699 438 685 424 656 L119 -1 C116 -8 114 -15 114 -21 C114 -40 130 -55 148 -55 C169 -55 179 -40 191 -13 L191 -13 Z " />
<glyph glyph-name="zero" unicode="0" horiz-adv-x="602" d="M301 -16 C420 -16 501 101 501 308 C501 515 420 632 301 632 C182 632 101 515 101 308 C101 101 182 -16 301 -16 L301 -16 Z M301 562 C373 562 419 476 419 308 C419 140 373 53 301 53 C229 53 182 140 182 308 C182 476 229 562 301 562 L301 562 Z " />
<glyph glyph-name="one" unicode="1" horiz-adv-x="602" d="M184 524 L276 546 L276 69 L195 69 C149 69 128 67 128 35 C128 12 141 0 167 0 L459 0 C485 0 498 12 498 35 C498 67 477 69 431 69 L353 69 L353 597 C353 617 345 629 333 629 C327 629 320 628 312 626 L167 587 C146 581 135 569 135 553 C135 535 148 522 169 522 C174 522 179 523 184 524 L184 524 Z " />
<glyph glyph-name="two" unicode="2" horiz-adv-x="602" d="M131 0 L453 0 C468 0 479 11 481 32 L486 70 C486 73 487 77 487 80 C487 106 473 120 452 120 C431 120 418 106 415 77 L192 77 L252 135 C379 261 483 335 483 451 C483 553 402 632 293 632 C227 632 162 606 121 566 C106 551 105 542 105 523 C105 489 110 472 134 472 C168 472 175 501 187 517 C209 546 250 564 291 564 C354 564 398 517 398 447 C398 365 316 297 188 176 C119 110 80 77 80 43 C80 13 97 0 131 0 L131 0 Z " />
<glyph glyph-name="three" unicode="3" horiz-adv-x="602" d="M377 336 C445 360 476 404 476 472 C476 559 404 632 299 632 C200 632 123 576 123 543 C123 525 137 512 155 512 C185 512 222 564 294 564 C352 564 395 521 395 458 C395 410 361 373 310 365 C259 357 244 364 244 328 C244 285 270 299 320 290 C379 279 414 236 414 178 C414 109 362 59 283 59 C205 59 155 109 126 109 C106 109 90 95 90 75 C90 31 176 -16 280 -16 C411 -16 497 67 497 178 C497 257 454 315 377 336 L377 336 Z " />
<glyph glyph-name="four" unicode="4" horiz-adv-x="602" d="M289 0 L447 0 C473 0 486 12 486 35 C486 62 470 69 431 69 C426 69 420 69 414 69 L414 151 L455 151 C476 151 482 160 486 181 L490 201 C492 209 492 215 492 218 C492 232 482 242 469 242 C453 242 459 225 439 225 L414 225 L414 596 C414 611 409 619 399 621 L349 629 C344 630 340 630 336 630 C325 630 320 626 312 612 L106 262 C98 249 88 238 88 215 L88 181 C88 161 98 151 114 151 L342 151 L342 69 L285 69 C260 69 249 59 249 35 C249 7 260 0 289 0 L289 0 Z M342 225 L157 225 L342 556 L342 225 Z " />
<glyph glyph-name="five" unicode="5" horiz-adv-x="602" d="M191 382 L191 540 L412 540 C442 540 459 554 459 578 C459 603 444 616 412 616 L165 616 C134 616 120 609 120 586 L120 343 C120 312 123 293 147 293 C176 293 208 337 284 337 C362 337 420 276 420 196 C420 115 362 55 273 55 C197 55 143 93 119 93 C100 93 85 77 85 60 C85 20 163 -16 278 -16 C411 -16 502 77 502 199 C502 315 419 405 303 405 C269 405 232 397 191 382 L191 382 Z " />
<glyph glyph-name="six" unicode="6" horiz-adv-x="602" d="M185 320 C202 458 270 543 371 562 C440 575 490 553 490 599 C490 627 469 632 412 632 C226 632 101 487 101 264 C101 92 186 -16 313 -16 C422 -16 499 69 499 187 C499 303 414 388 314 388 C263 388 220 365 185 320 L185 320 Z M196 190 C196 265 243 317 305 317 C369 317 416 263 416 183 C416 104 370 54 309 54 C245 54 196 107 196 190 L196 190 Z " />
<glyph glyph-name="seven" unicode="7" horiz-adv-x="602" d="M308 10 L481 533 C487 551 491 564 491 574 L491 591 C491 609 482 616 464 616 L141 616 C122 616 110 606 108 588 L103 544 C102 539 102 535 102 531 C102 509 112 498 135 498 C158 498 169 513 171 543 L419 543 L227 22 C225 16 224 10 224 6 C224 -3 232 -9 245 -9 L280 -9 C283 -9 285 -9 288 -9 C299 -9 302 -8 308 10 L308 10 Z " />
<glyph glyph-name="eight" unicode="8" horiz-adv-x="602" d="M203 316 C138 288 102 234 102 168 C102 60 182 -16 301 -16 C419 -16 500 59 500 166 C500 235 464 289 398 316 C461 346 494 395 494 459 C494 555 416 632 301 632 C186 632 108 558 108 459 C108 395 139 348 203 316 L203 316 Z M187 459 C187 522 233 568 301 568 C370 568 415 520 415 460 C415 394 367 349 301 349 C234 349 187 395 187 459 L187 459 Z M182 166 C182 236 231 280 301 280 C371 280 420 235 420 166 C420 97 373 52 301 52 C228 52 182 101 182 166 L182 166 Z " />
<glyph glyph-name="nine" unicode="9" horiz-adv-x="602" d="M402 426 C402 351 353 299 292 299 C228 299 182 353 182 433 C182 512 227 562 288 562 C352 562 402 509 402 426 L402 426 Z M412 295 C395 157 328 74 226 54 C158 41 107 63 107 16 C107 -11 128 -16 182 -16 C374 -16 497 128 497 351 C497 524 410 632 284 632 C176 632 99 547 99 428 C99 312 184 228 284 228 C335 228 376 250 412 295 L412 295 Z " />
<glyph glyph-name="colon" unicode="&#x3a;" horiz-adv-x="602" d="M205 80 C205 30 243 -7 301 -7 C359 -7 397 29 397 80 C397 131 359 167 301 167 C243 167 205 130 205 80 L205 80 Z M205 350 C205 300 243 263 301 263 C359 263 397 299 397 350 C397 401 359 437 301 437 C243 437 205 400 205 350 L205 350 Z " />
<glyph glyph-name="semicolon" unicode="&#x3b;" horiz-adv-x="602" d="M202 350 C202 300 240 263 298 263 C356 263 395 299 395 350 C395 401 356 437 298 437 C240 437 202 400 202 350 L202 350 Z M240 119 L181 -114 C180 -117 179 -121 179 -126 C179 -133 185 -140 194 -143 L226 -155 C229 -156 232 -157 235 -157 C244 -157 251 -151 256 -141 L382 121 C385 127 386 131 386 134 C386 139 380 144 371 144 L270 144 C249 144 245 138 240 119 L240 119 Z " />
<glyph glyph-name="less" unicode="&#x3c;" horiz-adv-x="602" d="M84 356 C51 341 34 335 34 309 C34 283 53 276 84 262 L472 81 C488 74 499 69 511 69 C531 69 543 81 543 100 C543 120 529 132 503 144 L158 308 L503 472 C529 484 543 495 543 515 C543 534 531 546 511 546 C500 546 488 542 472 534 L84 356 Z " />
<glyph glyph-name="equal" unicode="&#x3d;" horiz-adv-x="602" d="M82 190 L519 190 C539 190 550 202 550 226 C550 250 539 262 519 262 L82 262 C62 262 51 250 51 226 C51 202 62 190 82 190 L82 190 Z M82 354 L519 354 C539 354 550 366 550 390 C550 414 539 426 519 426 L82 426 C62 426 51 414 51 390 C51 366 62 354 82 354 L82 354 Z " />
<glyph glyph-name="greater" unicode="&#x3e;" horiz-adv-x="602" d="M518 259 C551 274 568 280 568 306 C568 332 549 339 518 353 L130 534 C114 541 103 546 91 546 C71 546 59 534 59 515 C59 495 74 484 100 472 L444 307 L100 144 C74 132 59 120 59 100 C59 81 71 69 91 69 C102 69 114 73 130 81 L518 259 Z " />
<glyph glyph-name="question" unicode="&#x3f;" horiz-adv-x="602" d="M234 252 L234 223 C234 201 247 188 270 188 C293 188 307 203 307 224 L307 263 C429 308 487 357 487 442 C487 541 414 612 298 612 C204 612 122 583 122 548 L122 500 C122 473 138 457 158 457 C200 457 190 506 196 515 C203 527 244 544 290 544 C366 544 409 502 409 443 C409 369 340 355 274 320 C243 304 234 285 234 252 L234 252 Z M180 67 C180 26 215 -7 270 -7 C326 -7 361 25 361 67 C361 109 326 140 270 140 C214 140 180 109 180 67 L180 67 Z " />
<glyph glyph-name="at" unicode="&#x40;" horiz-adv-x="602" d="M392 455 C386 455 381 456 375 456 C273 456 212 394 212 299 C212 216 263 164 324 164 C349 164 374 170 399 181 C413 166 424 158 436 158 C456 158 475 177 475 199 C475 210 469 220 458 234 L458 433 C458 590 417 668 310 668 C187 668 109 546 109 311 C109 71 192 -52 329 -52 C397 -52 445 -26 445 5 C445 19 435 30 423 30 C402 30 373 11 334 11 C229 11 176 115 176 322 C176 508 227 607 306 607 C361 607 392 559 392 468 C392 464 392 459 392 455 L392 455 Z M392 237 C371 229 355 225 344 225 C301 225 276 253 276 302 C276 361 312 400 373 400 C379 400 385 400 392 399 L392 237 Z " />
<glyph glyph-name="A" unicode="A" horiz-adv-x="602" d="M225 509 L59 69 C55 69 51 69 47 69 C14 69 1 61 1 35 C1 5 15 0 52 0 L180 0 C218 0 237 3 237 35 C237 63 219 69 181 69 L134 69 L176 185 L424 185 L471 69 L426 69 C388 69 371 63 371 35 C371 3 390 0 429 0 L562 0 C594 0 606 7 606 35 C606 62 594 69 560 69 C557 69 555 69 552 69 L361 546 C348 578 335 579 307 579 L168 579 C122 579 100 579 100 544 C100 517 117 509 154 509 L225 509 Z M200 250 L294 509 L400 250 L200 250 Z " />
<glyph glyph-name="B" unicode="B" horiz-adv-x="602" d="M295 0 C307 0 319 0 330 0 C391 0 444 3 493 39 C534 70 557 116 557 167 C557 237 524 282 453 307 C497 332 519 371 519 422 C519 522 448 579 307 579 L79 579 C57 579 45 567 45 544 C45 512 62 509 104 509 L120 509 L120 69 L103 69 C60 69 42 68 42 35 C42 12 53 0 76 0 L295 0 Z M197 329 L197 509 L318 509 C395 509 435 476 435 419 C435 357 390 329 299 329 L197 329 Z M197 69 L197 269 L310 269 C417 269 472 249 472 169 C472 91 417 69 305 69 L197 69 Z " />
<glyph glyph-name="C" unicode="C" horiz-adv-x="602" d="M455 563 C408 583 364 594 319 594 C157 594 39 463 39 289 C39 110 159 -14 317 -14 C380 -14 432 3 486 38 C522 61 541 77 541 99 C541 119 526 134 505 134 C488 134 468 112 436 94 C398 73 357 62 321 62 C212 62 128 147 128 289 C128 443 206 528 319 528 C384 528 434 492 446 446 C457 402 452 378 494 378 C523 378 529 391 529 417 C529 424 527 463 527 538 C527 572 525 587 491 587 C472 587 462 580 455 563 L455 563 Z " />
<glyph glyph-name="D" unicode="D" horiz-adv-x="602" d="M184 0 C209 0 232 -2 253 -2 C355 -2 425 17 477 71 C529 125 558 201 558 289 C558 469 452 579 292 579 C273 579 237 579 184 579 L107 579 C68 579 49 577 49 544 C49 517 63 509 96 509 C100 509 104 509 108 509 L108 69 C103 69 99 69 95 69 C62 69 49 62 49 35 C49 12 61 0 85 0 C95 0 101 0 107 0 L184 0 Z M184 69 L184 509 C204 511 223 511 241 511 C405 511 477 445 477 289 C477 135 405 66 245 66 C226 66 205 67 184 69 L184 69 Z " />
<glyph glyph-name="E" unicode="E" horiz-adv-x="602" d="M92 0 L495 0 C517 0 529 13 529 36 L529 159 C529 192 523 207 495 207 C463 207 460 189 460 148 L460 69 L200 69 L200 285 L328 285 C328 280 328 275 328 271 C328 229 333 211 359 211 C388 211 390 229 390 268 L390 359 C390 399 386 417 359 417 C334 417 327 403 327 370 C327 368 328 359 328 344 L200 344 L200 509 L460 509 L460 439 C460 430 460 425 460 423 C460 393 469 380 495 380 C522 380 529 394 529 425 L529 540 C529 566 517 579 495 579 L92 579 C53 579 33 577 33 544 C33 513 50 509 92 509 L123 509 L123 69 L92 69 C50 69 33 66 33 35 C33 12 45 0 69 0 C79 0 87 0 92 0 L92 0 Z " />
<glyph glyph-name="F" unicode="F" horiz-adv-x="602" d="M297 69 L212 69 L212 285 L341 285 C341 280 341 275 341 271 C341 229 346 211 372 211 C396 211 402 224 402 254 L402 378 C402 405 393 417 372 417 C346 417 341 399 341 357 C341 353 341 348 341 344 L212 344 L212 509 L477 509 L477 439 C477 430 477 425 477 423 C477 393 486 380 512 380 C535 380 546 392 546 414 L546 540 C546 566 534 579 512 579 L80 579 C58 579 46 567 46 544 C46 520 58 509 85 509 C88 509 94 509 104 509 L135 509 L135 69 L104 69 C95 69 90 69 88 69 C58 69 46 61 46 35 C46 12 58 0 80 0 L321 0 C343 0 355 12 355 35 C355 59 343 69 316 69 C313 69 307 69 297 69 L297 69 Z " />
<glyph glyph-name="G" unicode="G" horiz-adv-x="602" d="M456 84 C412 64 373 53 334 53 C213 53 123 142 123 289 C123 443 200 529 314 529 C374 529 421 498 444 448 C455 425 456 403 487 403 C515 403 524 415 524 446 C524 472 524 494 524 512 C524 570 520 589 486 589 C467 589 457 581 450 565 C403 585 359 595 314 595 C151 595 34 463 34 289 C34 107 149 -15 326 -15 C410 -15 484 7 515 25 C529 33 530 39 530 53 C530 57 530 61 530 65 L530 200 C532 200 534 200 536 200 C564 200 573 208 573 232 C573 254 565 264 548 264 L337 264 C313 264 306 257 306 232 C306 211 315 200 334 200 L456 200 L456 84 Z " />
<glyph glyph-name="H" unicode="H" horiz-adv-x="602" d="M184 69 L184 272 L418 272 L418 69 C409 69 401 69 394 69 C351 69 333 63 333 35 C333 2 353 0 394 0 L494 0 C534 0 553 2 553 35 C553 62 540 69 507 69 C503 69 499 69 494 69 L494 509 C498 509 502 509 506 509 C539 509 553 517 553 544 C553 567 541 579 517 579 C506 579 498 579 494 579 L398 579 C354 579 333 579 333 544 C333 518 349 509 385 509 C407 509 418 509 418 509 L418 339 L184 339 L184 509 C192 509 199 509 206 509 C250 509 269 515 269 544 C269 577 250 579 209 579 L107 579 C68 579 49 577 49 544 C49 517 63 509 96 509 C100 509 104 509 108 509 L108 69 C103 69 99 69 95 69 C62 69 49 62 49 35 C49 12 61 0 85 0 C95 0 101 0 107 0 L214 0 C251 0 269 4 269 35 C269 61 253 70 217 70 C195 70 184 69 184 69 L184 69 Z " />
<glyph glyph-name="I" unicode="I" horiz-adv-x="602" d="M449 69 L339 69 L339 509 L449 509 C491 509 508 513 508 544 C508 567 496 579 472 579 C461 579 453 579 449 579 L153 579 C114 579 94 577 94 544 C94 513 111 509 153 509 L262 509 L262 69 L153 69 C111 69 94 66 94 35 C94 12 106 0 130 0 C136 0 144 0 153 0 L449 0 C489 0 508 2 508 35 C508 66 491 69 449 69 L449 69 Z " />
<glyph glyph-name="J" unicode="J" horiz-adv-x="602" d="M375 509 L375 209 C375 99 340 48 247 48 C185 48 142 81 128 131 C123 152 122 171 122 187 C122 189 122 191 122 192 C122 207 122 219 118 228 C113 239 102 246 86 246 C54 246 54 227 54 195 L54 80 C54 52 56 43 81 29 C135 0 190 -14 252 -14 C398 -14 452 53 452 197 L452 509 L515 509 C557 509 573 513 573 544 C573 567 562 579 538 579 C528 579 520 579 515 579 L243 579 C204 579 184 577 184 544 C184 513 201 509 243 509 L375 509 Z " />
<glyph glyph-name="K" unicode="K" horiz-adv-x="602" d="M201 69 L201 222 L255 273 C303 266 341 227 381 154 C426 72 450 27 455 19 C464 4 470 0 492 0 L539 0 C561 0 573 12 573 35 C573 62 560 69 527 69 C523 69 518 69 513 69 C432 222 382 311 308 326 L497 509 C500 509 502 509 505 509 C541 509 556 516 556 544 C556 567 544 579 522 579 L378 579 C353 579 343 569 343 544 C343 519 357 508 388 508 C393 508 399 508 405 509 L201 310 L201 509 C209 509 216 509 223 509 C267 509 286 515 286 544 C286 574 271 579 237 579 L70 579 C48 579 36 567 36 544 C36 520 48 509 75 509 C78 509 84 509 94 509 L125 509 L125 69 L94 69 C85 69 80 69 78 69 C48 69 36 61 36 35 C36 12 48 0 70 0 L237 0 C271 0 286 5 286 35 C286 61 270 70 234 70 C212 70 201 69 201 69 L201 69 Z " />
<glyph glyph-name="L" unicode="L" horiz-adv-x="602" d="M485 197 L485 69 L225 69 L225 509 L307 509 C348 509 366 512 366 544 C366 567 354 579 330 579 C326 579 318 579 307 579 L87 579 C48 579 29 577 29 544 C29 513 45 509 87 509 L148 509 L148 69 L87 69 C45 69 29 66 29 35 C29 12 40 0 64 0 C74 0 82 0 87 0 L520 0 C542 0 555 13 555 36 L555 197 C555 237 553 255 520 255 C489 255 485 239 485 197 L485 197 Z " />
<glyph glyph-name="M" unicode="M" horiz-adv-x="602" d="M302 240 L195 546 C186 571 170 579 142 579 L62 579 C41 579 30 567 30 546 C30 520 43 513 77 513 C80 513 82 513 85 513 L71 69 C65 69 60 69 55 69 C20 69 7 62 7 35 C7 12 18 0 41 0 L178 0 C212 0 227 5 227 35 C227 61 211 70 175 70 C153 70 142 69 142 69 L151 489 L249 208 C258 181 271 172 298 172 C326 172 339 181 348 208 L444 489 L455 69 C448 69 441 69 434 69 C393 69 375 63 375 35 C375 5 390 0 424 0 L561 0 C584 0 595 12 595 35 C595 62 582 69 547 69 C542 69 537 69 531 69 L517 513 C520 513 522 513 525 513 C559 513 572 520 572 546 C572 567 561 579 540 579 L459 579 C431 579 415 571 406 546 L302 240 Z " />
<glyph glyph-name="N" unicode="N" horiz-adv-x="602" d="M168 69 L168 468 L428 20 C444 -7 443 -8 470 -8 C472 -8 474 -8 476 -8 C500 -8 512 -7 512 17 L512 509 C514 509 517 509 519 509 C555 509 568 517 568 544 C568 567 557 579 533 579 C522 579 514 579 510 579 L393 579 C357 579 340 575 340 544 C340 519 356 509 390 509 C408 509 419 509 425 509 L444 509 L444 123 L198 548 C183 575 177 579 145 579 L99 579 C45 579 17 578 17 544 C17 513 42 509 99 509 L99 69 C96 69 93 69 90 69 C55 69 41 63 41 35 C41 12 52 0 76 0 C80 0 88 0 99 0 L221 0 C260 0 278 3 278 35 C278 60 262 69 228 69 C222 69 211 69 193 69 L168 69 Z " />
<glyph glyph-name="O" unicode="O" horiz-adv-x="602" d="M301 54 C196 54 125 138 125 290 C125 442 193 526 301 526 C406 526 477 442 477 290 C477 138 406 54 301 54 L301 54 Z M565 290 C565 470 454 595 301 595 C146 595 37 470 37 290 C37 111 150 -15 301 -15 C454 -15 565 110 565 290 L565 290 Z " />
<glyph glyph-name="P" unicode="P" horiz-adv-x="602" d="M321 69 L219 69 L219 218 L304 218 C465 218 546 280 546 398 C546 516 465 579 304 579 L78 579 C55 579 44 567 44 544 C44 511 63 509 108 509 L142 509 L142 69 L79 69 C55 69 44 58 44 35 C44 12 55 0 78 0 L317 0 C351 0 366 5 366 35 C366 59 352 69 321 69 L321 69 Z M219 509 L309 509 C411 509 463 472 463 396 C463 320 411 282 309 282 L219 282 L219 509 Z " />
<glyph glyph-name="Q" unicode="Q" horiz-adv-x="602" d="M301 55 C199 55 125 138 125 290 C125 442 199 526 301 526 C403 526 477 442 477 290 C477 138 402 55 301 55 L301 55 Z M224 1 C173 -50 141 -75 141 -92 C141 -109 160 -128 174 -128 C194 -128 234 -93 297 -93 C349 -93 399 -125 453 -125 C500 -125 545 -96 545 -77 C545 -59 531 -42 517 -42 C498 -42 478 -60 450 -60 C414 -60 377 -37 335 -37 C285 -37 246 -47 214 -60 L266 -9 C277 -10 287 -10 298 -10 C456 -10 565 109 565 290 C565 464 449 595 301 595 C153 595 37 465 37 291 C37 147 112 33 224 1 L224 1 Z " />
<glyph glyph-name="R" unicode="R" horiz-adv-x="602" d="M192 69 L192 251 L256 251 C301 251 318 235 353 182 L448 40 C465 15 473 0 499 0 L553 0 C576 0 587 12 587 35 C587 62 574 69 540 69 C535 69 530 69 524 69 L426 219 C415 235 403 248 384 260 C467 281 514 338 514 412 C514 461 493 507 459 537 C414 576 353 579 270 579 L64 579 C42 579 30 568 30 546 C30 523 42 513 70 513 C74 513 79 513 88 513 L116 513 L116 69 L88 69 C79 69 74 69 72 69 C42 69 30 61 30 35 C30 12 42 0 64 0 L228 0 C262 0 277 5 277 35 C277 61 261 70 225 70 C203 70 192 69 192 69 L192 69 Z M192 513 L296 513 C386 513 430 480 430 414 C430 350 384 316 293 316 L192 316 L192 513 Z " />
<glyph glyph-name="S" unicode="S" horiz-adv-x="602" d="M158 17 C207 -5 252 -17 302 -17 C439 -17 527 56 527 164 C527 256 469 311 355 326 L277 336 C202 346 165 375 165 424 C165 486 218 530 298 530 C350 530 392 510 413 479 C434 448 428 412 467 412 C490 412 504 425 504 448 C504 450 504 451 504 453 L497 555 C495 581 492 592 457 592 C435 592 426 586 426 567 C381 585 342 596 302 596 C176 596 86 517 86 420 C86 322 150 275 280 257 L352 247 C414 238 447 206 447 155 C447 95 392 49 305 49 C235 49 184 77 163 120 C145 156 150 194 109 194 C79 194 71 180 71 152 C71 149 71 146 71 142 L77 29 C79 -6 91 -22 119 -22 C146 -22 155 -12 158 17 L158 17 Z " />
<glyph glyph-name="T" unicode="T" horiz-adv-x="602" d="M118 382 L122 509 L262 509 L262 69 L188 69 C179 69 174 69 172 69 C142 69 130 61 130 35 C130 12 142 0 164 0 L438 0 C460 0 472 12 472 35 C472 59 460 69 433 69 C430 69 424 69 414 69 L339 69 L339 509 L479 509 L484 382 C485 340 488 325 522 325 C544 325 556 337 556 360 C556 362 555 369 555 384 L550 545 C549 569 538 579 513 579 L89 579 C64 579 53 569 52 545 L47 384 C46 369 46 361 46 361 C46 337 58 325 80 325 C114 325 117 340 118 382 L118 382 Z " />
<glyph glyph-name="U" unicode="U" horiz-adv-x="602" d="M90 509 L90 203 C90 66 175 -16 301 -16 C443 -16 513 62 513 221 L513 509 C515 509 518 509 520 509 C556 509 569 517 569 544 C569 567 558 579 534 579 C526 579 519 579 511 579 L403 579 C367 579 350 575 350 544 C350 515 369 509 414 509 C422 509 431 509 440 509 L440 232 C440 113 404 54 306 54 C257 54 214 77 191 117 C169 156 169 195 169 241 L169 509 C177 509 184 509 190 509 C233 509 251 515 251 544 C251 578 231 579 190 579 L90 579 C51 579 31 577 31 544 C31 517 45 509 78 509 C82 509 86 509 90 509 L90 509 Z " />
<glyph glyph-name="V" unicode="V" horiz-adv-x="602" d="M59 509 L239 49 C252 15 259 -6 292 -6 L319 -6 C343 -6 353 14 366 49 L542 509 C544 509 546 509 548 509 C581 509 594 518 594 544 C594 567 582 579 560 579 L407 579 C373 579 358 574 358 544 C358 520 372 509 403 509 L468 509 L306 83 L140 509 L194 509 C225 509 239 520 239 544 C239 574 224 579 190 579 L42 579 C20 579 8 567 8 544 C8 516 22 509 59 509 L59 509 Z " />
<glyph glyph-name="W" unicode="W" horiz-adv-x="602" d="M175 125 L122 513 L191 513 C220 513 234 523 234 546 C234 573 219 579 187 579 L29 579 C15 579 2 567 2 546 C2 524 15 513 40 513 C42 513 44 513 46 513 L120 26 C122 10 124 0 141 0 L178 0 C195 0 200 5 204 20 L298 357 L404 21 C409 6 416 0 431 0 L466 0 C480 0 483 8 485 25 L553 513 C555 513 557 513 559 513 C584 513 597 524 597 546 C597 567 584 579 570 579 L412 579 C380 579 365 573 365 546 C365 523 379 513 408 513 L485 513 L437 125 L342 419 C336 437 331 441 311 441 L289 441 C268 441 264 435 259 417 L175 125 Z " />
<glyph glyph-name="X" unicode="X" horiz-adv-x="602" d="M95 509 L251 295 L86 69 C57 68 43 58 43 35 C43 14 57 0 79 0 L209 0 C239 0 252 6 252 35 C252 62 237 70 200 70 C192 70 183 70 174 69 L297 241 L422 69 C414 69 406 70 399 70 C363 70 349 62 349 35 C349 6 362 0 392 0 L522 0 C544 0 559 14 559 35 C559 57 545 68 517 69 L347 298 L503 509 C533 509 546 519 546 544 C546 567 535 579 512 579 L389 579 C365 579 350 565 350 544 C350 522 368 508 401 508 C405 508 411 508 416 509 L301 352 L190 509 C195 508 200 508 204 508 C233 508 249 522 249 544 C249 567 237 579 213 579 L90 579 C67 579 56 567 56 544 C56 520 67 510 95 509 L95 509 Z " />
<glyph glyph-name="Y" unicode="Y" horiz-adv-x="602" d="M408 69 L337 69 L337 224 L503 509 C506 509 508 509 511 509 C547 509 561 516 561 544 C561 576 544 579 503 579 L426 579 C421 579 417 579 413 579 C374 579 359 577 359 544 C359 517 372 508 407 508 C413 508 420 509 427 509 L304 297 L186 509 C192 509 197 509 202 509 C241 509 258 516 258 544 C258 574 243 579 209 579 L97 579 C58 579 38 577 38 544 C38 516 53 509 89 509 C92 509 94 509 97 509 L260 231 L260 69 L189 69 C145 69 130 65 130 35 C130 5 145 0 182 0 L414 0 C452 0 467 5 467 35 C467 66 450 69 408 69 L408 69 Z " />
<glyph glyph-name="Z" unicode="Z" horiz-adv-x="602" d="M187 509 L394 509 L114 102 C98 79 90 60 90 44 C90 18 109 0 137 0 L444 0 C469 0 480 9 481 33 L488 181 C488 187 489 193 489 199 C489 228 479 241 454 241 C419 241 418 226 416 183 L411 69 L184 69 L473 488 C485 506 491 522 491 537 C491 565 472 579 433 579 L153 579 C128 579 117 569 116 545 L110 410 C110 406 110 402 110 399 C110 394 110 391 110 390 C110 363 120 350 144 350 C169 350 181 360 181 384 C181 386 181 394 182 407 L187 509 Z " />
<glyph glyph-name="bracketleft" unicode="&#x5b;" horiz-adv-x="602" d="M286 -121 L286 519 L368 519 C387 519 400 531 400 549 C400 568 388 579 369 579 L237 579 C216 579 202 565 202 547 L202 -149 C202 -167 216 -181 237 -181 L369 -181 C388 -181 400 -169 400 -150 C400 -132 387 -121 368 -121 L286 -121 Z " />
<glyph glyph-name="backslash" unicode="&#x5c;" horiz-adv-x="602" d="M436 -33 C442 -46 455 -55 468 -55 C487 -55 502 -40 502 -21 C502 -15 500 -8 497 -1 L182 676 C177 688 161 698 147 698 C129 698 114 684 114 666 C114 660 115 654 118 648 L436 -33 Z " />
<glyph glyph-name="bracketright" unicode="&#x5d;" horiz-adv-x="602" d="M316 519 L316 -121 L234 -121 C215 -121 202 -132 202 -150 C202 -169 214 -181 233 -181 L364 -181 C385 -181 400 -167 400 -149 L400 547 C400 565 385 579 364 579 L233 579 C214 579 202 568 202 549 C202 531 215 519 234 519 L316 519 Z " />
<glyph glyph-name="asciicircum" unicode="&#x5e;" horiz-adv-x="602" d="M334 664 C328 671 316 676 301 676 C286 676 275 672 269 664 L133 492 C129 486 127 481 127 474 C127 459 140 449 152 449 C157 449 161 450 165 454 L301 590 L437 454 C441 450 445 449 450 449 C462 449 475 459 475 474 C475 481 473 486 469 492 L334 664 Z " />
<glyph glyph-name="underscore" unicode="&#x5f;" horiz-adv-x="602" d="M602 -218 L0 -218 C-13 -218 -22 -226 -22 -238 L-22 -275 C-22 -289 -13 -299 0 -299 L602 -299 C614 -299 625 -288 625 -275 L625 -238 C625 -225 617 -218 602 -218 L602 -218 Z " />
<glyph glyph-name="grave" unicode="&#x60;" horiz-adv-x="602" d="M393 505 L406 531 L173 667 C171 668 168 669 166 669 C156 669 148 664 143 654 L127 625 C125 622 125 617 125 614 C125 606 130 598 138 595 L393 505 Z " />
<glyph glyph-name="a" unicode="a" horiz-adv-x="602" d="M412 62 L417 32 C421 11 433 0 451 0 L528 0 C554 0 567 12 567 35 C567 64 550 69 509 69 L484 69 L484 290 C484 408 426 463 301 463 C191 463 119 428 119 394 C119 369 134 353 152 353 C190 353 230 394 299 394 C374 394 409 359 409 284 C409 283 409 282 409 281 C369 291 331 296 293 296 C148 296 67 235 67 134 C67 48 131 -12 229 -12 C296 -12 359 14 412 62 L412 62 Z M409 216 L409 163 C409 119 329 63 241 63 C184 63 145 96 145 139 C145 194 202 233 306 233 C342 233 376 227 409 216 L409 216 Z " />
<glyph glyph-name="b" unicode="b" horiz-adv-x="602" d="M175 381 L175 619 C175 633 166 639 147 639 L73 639 C47 639 34 627 34 604 C34 579 48 570 79 570 C86 570 94 569 101 569 L101 69 C97 69 94 69 91 69 C51 69 34 63 34 35 C34 12 47 0 73 0 L162 0 C177 0 182 8 182 25 L182 64 C215 15 266 -9 334 -9 C465 -9 565 94 565 221 C565 350 467 451 336 451 C267 451 212 427 175 381 L175 381 Z M327 68 C236 68 173 134 173 224 C173 315 237 380 327 380 C418 380 481 313 481 224 C481 131 418 68 327 68 L327 68 Z " />
<glyph glyph-name="c" unicode="c" horiz-adv-x="602" d="M521 304 L521 395 C521 437 516 455 486 455 C461 455 448 446 448 424 C448 424 448 423 448 422 C394 449 345 463 294 463 C154 463 48 360 48 225 C48 90 153 -12 295 -12 C413 -12 523 61 523 107 C523 127 509 141 489 141 C463 141 444 117 414 97 C379 74 339 61 300 61 C198 61 133 129 133 226 C133 320 203 387 304 387 C362 387 408 360 438 307 C453 280 463 268 484 268 C508 268 521 280 521 304 L521 304 Z " />
<glyph glyph-name="d" unicode="d" horiz-adv-x="602" d="M128 219 C128 316 190 380 282 380 C373 380 436 314 436 224 C436 134 371 66 281 66 C194 66 128 127 128 219 L128 219 Z M448 0 L541 0 C562 0 576 13 576 35 C576 60 562 69 531 69 C524 69 516 69 509 69 L509 619 C509 633 500 639 481 639 L381 639 C355 639 342 627 342 604 C342 572 363 569 409 569 L435 569 L435 382 C397 429 343 452 276 452 C144 452 44 350 44 221 C44 84 138 -12 261 -12 C330 -12 390 16 429 65 L429 25 C429 8 433 0 448 0 L448 0 Z " />
<glyph glyph-name="e" unicode="e" horiz-adv-x="602" d="M138 268 C157 349 220 397 306 397 C385 397 447 346 456 268 L138 268 Z M136 204 L464 204 C524 204 545 204 545 250 C545 359 454 464 306 464 C155 464 51 367 51 227 C51 81 145 -12 296 -12 C362 -12 433 4 500 37 C529 51 543 66 543 86 C543 104 528 118 509 118 C465 118 402 57 303 57 C202 57 141 110 136 204 L136 204 Z " />
<glyph glyph-name="f" unicode="f" horiz-adv-x="602" d="M451 70 L291 70 L291 368 L461 368 C486 368 500 381 500 404 C500 427 486 439 459 439 L288 439 C287 449 287 458 287 467 C287 537 316 567 390 567 C433 567 466 555 490 555 C513 555 530 569 530 590 C530 625 494 640 423 640 C274 640 209 591 209 474 C209 463 210 451 211 439 L133 439 C107 439 94 427 94 404 C94 381 107 368 134 368 L215 368 L215 70 L132 70 C107 70 93 58 93 35 C93 12 107 0 134 0 L453 0 C479 0 492 12 492 35 C492 58 478 70 451 70 L451 70 Z " />
<glyph glyph-name="g" unicode="g" horiz-adv-x="602" d="M499 26 L499 382 C502 382 505 382 508 382 C549 382 566 389 566 417 C566 440 553 451 527 451 L453 451 C434 451 425 445 425 431 L425 396 C378 433 331 452 281 452 C163 452 66 363 66 237 C66 109 156 20 277 20 C340 20 386 41 426 87 L426 28 C426 -73 395 -119 293 -119 C267 -119 240 -112 211 -112 C188 -112 169 -130 169 -150 C169 -182 204 -195 276 -195 C367 -195 433 -168 469 -121 C498 -83 499 -40 499 15 C499 19 499 22 499 26 L499 26 Z M287 379 C373 379 432 319 432 237 C432 154 372 95 287 95 C201 95 142 155 142 237 C142 321 202 379 287 379 L287 379 Z " />
<glyph glyph-name="h" unicode="h" horiz-adv-x="602" d="M117 69 C113 69 110 69 107 69 C67 69 50 63 50 35 C50 12 63 0 89 0 L219 0 C248 0 258 7 258 35 C258 62 245 70 211 70 C205 70 198 69 190 69 L190 272 C190 345 258 389 317 389 C381 389 420 350 420 272 L420 69 C411 69 406 69 401 69 C366 69 353 62 353 35 C353 7 363 0 392 0 L522 0 C548 0 561 12 561 35 C561 60 546 69 515 69 C508 69 501 69 494 69 L494 290 C494 403 427 464 334 464 C283 464 238 442 191 398 L191 619 C191 631 182 639 163 639 L89 639 C63 639 50 627 50 604 C50 579 64 570 95 570 C102 570 110 569 117 569 L117 69 Z " />
<glyph glyph-name="i" unicode="i" horiz-adv-x="602" d="M346 69 L346 431 C346 443 337 451 318 451 L175 451 C149 451 136 440 136 417 C136 394 150 382 177 382 L272 382 L272 69 L123 69 C96 69 82 58 82 35 C82 12 95 0 121 0 L500 0 C529 0 540 7 540 35 C540 59 528 69 503 69 L346 69 Z M255 592 C255 552 265 544 306 544 C353 544 356 555 356 606 C356 657 351 672 306 672 C261 672 255 657 255 592 L255 592 Z " />
<glyph glyph-name="j" unicode="j" horiz-adv-x="602" d="M451 67 L451 398 L451 431 C451 443 442 451 423 451 L154 451 C128 451 115 440 115 417 C115 392 129 382 161 382 C166 382 175 382 186 382 L377 382 L377 31 C377 -70 346 -116 244 -116 C218 -116 191 -109 162 -109 C139 -109 120 -127 120 -147 C120 -179 155 -193 227 -193 C338 -193 412 -152 437 -88 C450 -55 451 -5 451 67 L451 67 Z M319 592 C319 552 328 544 369 544 C416 544 419 555 419 606 C419 657 415 672 370 672 C325 672 319 657 319 592 L319 592 Z " />
<glyph glyph-name="k" unicode="k" horiz-adv-x="602" d="M212 187 L256 227 L401 69 C376 61 363 49 363 31 C363 9 376 0 404 0 L536 0 C561 0 575 12 575 35 C575 60 564 70 536 70 L493 70 L309 270 L380 332 C415 362 448 379 472 382 C510 387 534 384 534 418 C534 440 521 451 496 451 L364 451 C336 451 322 441 322 422 C322 407 332 396 353 387 L212 269 L212 619 C212 631 203 639 184 639 L91 639 C65 639 52 627 52 604 C52 572 73 569 118 569 L138 569 L138 69 L115 69 C72 69 53 65 53 35 C53 12 67 0 93 0 L183 0 C199 0 212 15 212 43 L212 187 Z " />
<glyph glyph-name="l" unicode="l" horiz-adv-x="602" d="M268 569 L268 69 L133 69 C106 69 92 58 92 35 C92 12 105 0 131 0 L491 0 C520 0 531 7 531 35 C531 59 519 69 494 69 L342 69 L342 619 C342 631 333 639 314 639 L153 639 C127 639 114 627 114 604 C114 579 128 570 160 570 C165 570 174 569 185 569 L268 569 Z " />
<glyph glyph-name="m" unicode="m" horiz-adv-x="602" d="M479 272 L479 49 C479 17 493 0 520 0 L579 0 C602 0 614 12 614 35 C614 63 600 69 563 69 C560 69 557 69 554 69 L554 290 C554 404 524 464 434 464 C387 464 352 444 325 404 C311 444 281 464 236 464 C198 464 168 451 142 422 C140 446 135 451 114 451 L39 451 C13 451 1 440 1 417 C1 392 15 382 46 382 C53 382 61 382 68 382 L68 69 C64 69 61 69 58 69 C18 69 1 63 1 35 C1 12 13 0 39 0 L169 0 C198 0 209 7 209 35 C209 62 196 70 162 70 C156 70 149 69 141 69 L141 338 C159 372 183 389 213 389 C250 389 277 360 277 310 C277 304 277 291 277 272 L277 66 C277 61 277 57 277 53 C277 15 279 0 311 0 L373 0 C396 0 407 12 407 35 C407 63 393 69 356 69 C353 69 350 69 347 69 L347 272 C347 350 381 389 426 389 C475 389 479 346 479 272 L479 272 Z " />
<glyph glyph-name="n" unicode="n" horiz-adv-x="602" d="M119 69 C115 69 112 69 109 69 C69 69 52 63 52 35 C52 12 65 0 93 0 C106 0 115 0 119 0 L208 0 C245 0 260 2 260 35 C260 62 247 70 213 70 C207 70 200 69 192 69 L192 272 C192 345 260 389 319 389 C383 389 419 350 419 272 L419 69 C413 69 408 69 403 69 C368 69 354 62 354 35 C354 3 368 0 403 0 L511 0 C546 0 563 7 563 35 C563 60 548 69 517 69 C510 69 502 69 495 69 L495 290 C495 403 429 464 336 464 C285 464 240 442 193 398 L193 431 C193 443 184 451 165 451 L119 451 C74 451 52 451 52 417 C52 392 66 382 97 382 C104 382 112 382 119 382 L119 69 Z " />
<glyph glyph-name="o" unicode="o" horiz-adv-x="602" d="M556 225 C556 360 456 462 301 462 C146 462 45 361 45 225 C45 89 146 -12 301 -12 C456 -12 556 89 556 225 L556 225 Z M301 56 C200 56 130 128 130 225 C130 322 200 395 301 395 C402 395 472 322 472 225 C472 127 402 56 301 56 L301 56 Z " />
<glyph glyph-name="p" unicode="p" horiz-adv-x="602" d="M326 71 C235 71 172 136 172 224 C172 312 235 377 326 377 C418 377 481 312 481 224 C481 133 416 71 326 71 L326 71 Z M174 -125 L174 70 C214 24 274 -1 343 -1 C471 -1 565 89 565 219 C565 356 463 452 335 452 C273 452 219 429 175 384 L175 431 C175 445 166 451 147 451 L72 451 C46 451 33 440 33 417 C33 392 48 382 79 382 C86 382 94 382 101 382 L101 -125 C98 -125 95 -125 92 -125 C51 -125 33 -132 33 -160 C33 -183 46 -195 72 -195 L288 -195 C317 -195 329 -187 329 -160 C329 -137 317 -125 292 -125 L174 -125 Z " />
<glyph glyph-name="q" unicode="q" horiz-adv-x="602" d="M430 -125 L313 -125 C288 -125 275 -137 275 -160 C275 -187 287 -195 316 -195 L532 -195 C558 -195 571 -183 571 -160 C571 -135 556 -125 525 -125 C518 -125 511 -125 504 -125 L504 382 C507 382 510 382 513 382 C554 382 571 389 571 417 C571 440 558 451 532 451 L458 451 C439 451 430 445 430 431 L430 384 C386 429 332 452 270 452 C142 452 39 356 39 219 C39 89 133 -1 261 -1 C330 -1 390 24 430 70 L430 -125 Z M124 224 C124 312 186 377 278 377 C369 377 432 312 432 224 C432 136 369 71 278 71 C188 71 124 133 124 224 L124 224 Z " />
<glyph glyph-name="r" unicode="r" horiz-adv-x="602" d="M253 69 L253 271 C318 345 373 384 427 384 C465 384 486 354 512 354 C533 354 555 376 555 400 C555 436 519 463 458 463 C380 463 314 425 253 348 L253 431 C253 445 244 451 226 451 L115 451 C89 451 76 440 76 417 C76 392 90 382 122 382 C127 382 136 382 147 382 L180 382 L180 69 L94 69 C67 69 53 58 53 35 C53 12 67 0 93 0 L412 0 C441 0 452 7 452 35 C452 59 440 69 415 69 L253 69 Z " />
<glyph glyph-name="s" unicode="s" horiz-adv-x="602" d="M87 35 C87 4 100 -12 123 -12 C134 -12 150 -4 173 11 C228 -3 277 -11 321 -11 C443 -11 512 50 512 134 C512 230 445 268 316 271 C220 273 164 278 164 330 C164 369 201 402 266 402 C317 402 353 390 390 357 C419 331 429 306 451 306 C475 306 484 323 484 355 L484 412 C484 445 473 461 451 461 C425 461 415 442 401 442 C387 442 348 464 277 464 C156 464 89 408 89 327 C89 240 160 192 293 192 C307 192 316 192 321 192 C395 192 431 178 431 128 C431 84 387 52 316 52 C250 52 194 76 168 110 C149 135 152 162 122 162 C96 162 87 148 87 122 L87 35 Z " />
<glyph glyph-name="t" unicode="t" horiz-adv-x="602" d="M434 424 L242 424 L242 523 C242 571 238 591 203 591 C177 591 165 577 165 550 C165 537 165 528 165 524 L165 424 L111 424 C64 424 44 421 44 389 C44 365 56 355 83 355 L165 355 L165 192 C165 187 165 182 165 177 C165 132 166 93 183 64 C211 15 263 -9 338 -9 C384 -9 435 4 496 28 C532 42 550 56 550 79 C550 97 534 114 516 114 C477 114 412 62 333 62 C247 62 241 114 241 192 L241 355 L439 355 C466 355 480 366 480 389 C480 414 465 424 434 424 L434 424 Z " />
<glyph glyph-name="u" unicode="u" horiz-adv-x="602" d="M177 180 L177 414 C177 416 177 417 177 419 C177 441 176 451 149 451 L75 451 C49 451 36 440 36 417 C36 392 50 382 81 382 C88 382 96 382 103 382 L103 162 C103 48 157 -10 264 -10 C323 -10 365 13 416 53 L416 20 C416 8 425 0 444 0 L518 0 C544 0 557 12 557 35 C557 60 543 69 512 69 C505 69 497 69 490 69 L490 404 C490 433 490 451 456 451 L352 451 C325 451 313 441 313 417 C313 393 323 382 349 382 L416 382 L416 180 C416 108 353 62 287 62 C211 62 177 100 177 180 L177 180 Z " />
<glyph glyph-name="v" unicode="v" horiz-adv-x="602" d="M77 382 L237 26 C250 -4 261 -17 294 -17 C329 -17 339 -5 353 26 L514 382 C517 382 520 382 523 382 C562 382 579 389 579 417 C579 440 566 451 540 451 L389 451 C357 451 343 446 343 417 C343 388 361 381 407 381 C416 381 425 382 436 382 L295 66 L168 382 C174 382 180 382 186 382 C226 382 243 389 243 417 C243 446 229 451 197 451 L60 451 C34 451 21 440 21 417 C21 389 37 382 77 382 L77 382 Z " />
<glyph glyph-name="w" unicode="w" horiz-adv-x="602" d="M297 248 L362 26 C371 -4 381 -17 410 -17 C433 -17 444 -8 451 16 L561 382 C592 382 603 391 603 417 C603 440 592 451 573 451 L442 451 C411 451 399 445 399 417 C399 388 415 381 456 381 C466 381 477 381 490 382 L408 89 L347 292 C338 322 328 335 299 335 C276 335 265 325 258 302 L195 89 L111 382 C123 381 133 381 143 381 C186 381 203 388 203 417 C203 446 190 451 159 451 L28 451 C3 451 -9 439 -9 417 C-9 391 3 382 34 382 L146 26 C155 -4 165 -17 194 -17 C216 -17 229 -7 235 16 L297 248 Z " />
<glyph glyph-name="x" unicode="x" horiz-adv-x="602" d="M194 69 L306 189 L429 69 L402 69 C373 69 358 55 358 34 C358 10 375 0 408 0 L508 0 C551 0 567 5 567 34 C567 56 554 69 529 69 C528 69 526 69 524 69 L353 236 L493 382 C498 382 503 381 507 381 C541 381 558 392 558 417 C558 438 544 451 524 451 L397 451 C363 451 347 441 347 416 C347 393 365 382 401 382 C405 382 408 382 411 382 L311 279 L206 382 C243 382 262 393 262 416 C262 441 246 451 212 451 L112 451 C69 451 52 445 52 416 C52 390 66 382 102 382 C104 382 107 382 109 382 L264 231 L106 69 C102 69 99 69 96 69 C60 69 41 59 41 37 C41 13 55 0 75 0 L209 0 C242 0 260 10 260 34 C260 56 241 70 208 70 C203 70 199 69 194 69 L194 69 Z " />
<glyph glyph-name="y" unicode="y" horiz-adv-x="602" d="M264 -125 L521 382 C555 383 570 391 570 417 C570 440 557 451 531 451 L410 451 C378 451 364 446 364 417 C364 389 381 382 423 382 C429 382 435 382 442 382 L306 113 L175 382 C181 382 187 382 193 382 C233 382 250 389 250 417 C250 446 236 451 204 451 L68 451 C42 451 29 440 29 417 C29 389 45 382 85 382 L264 31 L184 -125 L78 -125 C53 -125 41 -137 41 -160 C41 -187 53 -195 82 -195 L306 -195 C332 -195 346 -183 346 -160 C346 -131 328 -125 285 -125 C279 -125 272 -125 264 -125 L264 -125 Z " />
<glyph glyph-name="z" unicode="z" horiz-adv-x="602" d="M195 69 L463 331 C492 359 507 383 507 402 C507 434 484 451 438 451 L177 451 C132 451 109 440 109 412 L109 329 C109 303 121 290 144 290 C176 290 179 311 179 357 L179 382 L412 382 L133 103 C113 83 98 68 98 44 C98 15 117 0 154 0 L449 0 C487 0 507 8 507 41 L507 122 C507 148 496 161 473 161 C441 161 438 140 438 94 L438 69 L195 69 Z " />
<glyph glyph-name="braceleft" unicode="&#x7b;" horiz-adv-x="602" d="M357 409 C357 465 362 495 412 504 C439 509 467 505 467 542 C467 566 452 581 430 581 C298 581 275 515 275 384 L275 353 C275 243 232 251 173 236 C153 231 143 221 143 199 C143 175 152 164 179 159 C243 148 275 141 275 44 L275 13 C275 -116 299 -183 425 -183 C453 -183 467 -169 467 -144 C467 -104 433 -111 406 -104 C360 -93 357 -68 357 -12 L357 34 C357 126 343 176 268 199 C343 221 357 270 357 363 L357 409 Z " />
<glyph glyph-name="bar" unicode="&#x7c;" horiz-adv-x="602" d="M342 -236 L342 764 C341 777 324 788 301 788 C278 788 261 777 260 764 L260 -236 C261 -249 278 -261 301 -261 C324 -261 341 -249 342 -236 L342 -236 Z " />
<glyph glyph-name="braceright" unicode="&#x7d;" horiz-adv-x="602" d="M253 409 L253 363 C253 270 267 221 342 199 C267 176 253 126 253 34 L253 -12 C253 -69 249 -96 198 -105 C170 -110 143 -108 143 -144 C143 -169 158 -183 186 -183 C312 -183 335 -116 335 13 L335 44 C335 141 367 148 431 159 C458 164 467 175 467 199 C467 221 457 231 437 236 C378 251 335 243 335 353 L335 384 C335 515 312 581 180 581 C158 581 143 566 143 542 C143 502 178 509 204 502 C250 490 253 464 253 409 L253 409 Z " />
<glyph glyph-name="asciitilde" unicode="&#x7e;" horiz-adv-x="602" d="M65 286 C65 267 73 256 89 256 C111 256 143 292 199 292 C266 292 334 250 401 250 C472 250 537 296 537 329 C537 348 529 359 513 359 C490 359 459 323 403 323 C337 323 268 365 201 365 C129 365 65 319 65 286 L65 286 Z " />
<glyph glyph-name="exclamdown" unicode="&#xa1;" horiz-adv-x="602" d="M210 517 C210 473 245 441 301 441 C357 441 392 473 392 517 C392 562 357 595 301 595 C246 595 210 561 210 517 L210 517 Z M244 38 C244 36 244 35 244 33 C244 -5 266 -28 301 -28 C336 -28 358 -5 358 33 C358 35 358 36 358 38 L341 355 C340 376 324 392 301 392 C278 392 262 376 261 355 L244 38 Z " />
<glyph glyph-name="cent" unicode="&#xa2;" horiz-adv-x="602" d="M426 489 C401 502 372 510 339 516 L345 617 C345 618 345 619 345 619 C345 638 334 646 310 646 C289 646 278 637 277 618 L271 516 C162 497 94 415 94 310 C94 213 156 130 253 109 L247 -4 C247 -5 247 -6 247 -6 C247 -25 258 -33 281 -33 C302 -33 313 -25 314 -5 L322 103 C426 111 492 154 492 190 C492 207 480 219 462 219 C431 219 399 170 319 170 C230 170 173 227 173 311 C173 390 230 453 312 453 C362 453 391 435 413 393 C428 365 435 348 456 348 C478 348 490 359 490 380 L490 450 C490 484 485 499 458 499 C446 499 437 495 426 489 L426 489 Z " />
<glyph glyph-name="sterling" unicode="&#xa3;" horiz-adv-x="602" d="M269 275 L429 275 C440 275 446 282 446 294 L446 311 C446 325 440 330 425 330 L252 330 C234 393 225 442 225 476 C225 536 263 568 326 568 C362 568 388 555 396 536 C406 511 404 486 431 486 C448 486 461 503 461 524 L461 552 C461 569 461 579 454 585 C433 603 378 624 312 624 C215 624 148 559 148 468 C148 424 158 379 173 330 L143 330 C132 330 127 326 127 316 L127 294 C127 283 134 275 146 275 L188 275 C203 229 213 192 213 160 C213 116 197 82 174 65 C150 47 130 41 130 28 C130 15 142 -4 155 -4 C181 -4 210 24 256 24 C302 24 348 0 396 0 C454 0 501 44 501 59 C501 62 499 65 497 69 L482 96 C479 101 474 104 468 104 C457 104 436 74 393 74 C357 74 320 93 277 93 C274 93 271 93 268 93 C282 121 288 147 288 173 C288 200 281 233 269 275 L269 275 Z " />
<glyph glyph-name="currency" unicode="&#xa4;" horiz-adv-x="602" d="M164 432 C164 509 226 573 304 573 C382 573 445 510 445 432 C445 355 381 292 304 292 C226 292 164 355 164 432 L164 432 Z M60 224 L95 189 L188 282 C222 255 260 242 304 242 C347 242 385 255 420 282 L512 189 L547 224 L454 316 C481 352 493 391 493 432 C493 474 480 512 454 547 L547 640 L512 675 L420 582 C385 609 347 622 304 622 C261 622 222 609 188 582 L95 675 L60 640 L153 547 C127 512 114 474 114 432 C114 390 127 351 153 316 L60 224 Z " />
<glyph glyph-name="yen" unicode="&#xa5;" horiz-adv-x="602" d="M408 69 L336 69 L336 228 L510 228 C539 228 554 231 554 253 C554 273 539 279 510 279 L365 279 L417 364 L510 364 C539 364 554 367 554 389 C554 409 539 415 510 415 L447 415 L503 509 C506 509 508 509 511 509 C547 509 561 516 561 544 C561 576 544 579 503 579 L426 579 C421 579 417 579 413 579 C374 579 359 577 359 544 C359 516 373 508 412 508 C420 508 428 509 437 509 L304 285 L177 509 C184 509 190 509 196 509 C239 509 258 516 258 544 C258 574 243 579 209 579 L97 579 C58 579 38 577 38 544 C38 516 53 509 91 509 C94 509 97 509 100 509 L155 415 L84 415 C55 415 40 409 40 389 C40 367 55 364 84 364 L182 364 L233 280 L84 280 C55 280 40 274 40 254 C40 232 55 228 84 228 L262 228 L262 69 L189 69 C145 69 130 65 130 35 C130 5 145 0 182 0 L414 0 C452 0 467 5 467 35 C467 66 450 69 408 69 L408 69 Z " />
<glyph glyph-name="brokenbar" unicode="&#xa6;" horiz-adv-x="602" d="M271 -172 L330 -172 L330 199 L271 199 L271 -172 Z M271 329 L330 329 L330 699 L271 699 L271 329 Z " />
<glyph glyph-name="section" unicode="&#xa7;" horiz-adv-x="602" d="M146 -105 L297 -105 C405 -105 459 -67 459 6 C459 14 458 24 456 37 C504 61 526 93 526 140 C526 200 492 236 434 275 L304 363 C249 400 222 432 222 465 C222 502 253 516 313 516 L422 516 L422 459 C422 436 436 420 455 420 C477 420 489 434 489 459 L489 552 C489 571 479 579 456 579 L322 579 C316 579 309 579 303 579 C261 579 224 578 190 554 C161 534 145 503 145 471 C145 464 145 453 147 439 C99 413 76 380 76 335 C76 287 103 241 154 206 L289 115 C348 75 380 45 380 9 C380 -23 355 -40 305 -40 L187 -40 L187 22 C187 45 173 59 152 59 C133 59 117 41 117 22 L117 -76 C117 -97 124 -105 146 -105 L146 -105 Z M422 96 C398 130 362 154 320 183 L213 256 C169 286 148 313 148 338 C148 357 157 369 177 378 C197 348 227 326 262 302 L393 213 C433 186 452 158 452 138 C452 117 443 105 422 96 L422 96 Z " />
<glyph glyph-name="dieresis" unicode="&#xa8;" horiz-adv-x="602" d="M117 582 C117 549 144 522 177 522 C211 522 235 547 235 582 C235 614 209 640 177 640 C145 640 117 613 117 582 L117 582 Z M366 582 C366 549 392 522 425 522 C459 522 484 547 484 582 C484 614 457 640 425 640 C393 640 366 613 366 582 L366 582 Z " />
<glyph glyph-name="copyright" unicode="&#xa9;" horiz-adv-x="602" d="M375 500 C349 510 325 515 301 515 C204 515 131 436 131 329 C131 224 205 149 299 149 C374 149 436 196 436 223 C436 240 425 251 407 251 C391 251 356 209 302 209 C243 209 199 256 199 332 C199 414 239 460 300 460 C334 460 360 442 365 421 C372 390 373 374 400 374 C423 374 430 384 430 407 C430 419 430 430 430 440 C430 493 428 511 401 511 C389 511 380 508 375 500 L375 500 Z M12 335 C12 236 59 148 142 93 C189 62 244 45 301 45 C379 45 450 75 504 130 C560 186 590 259 590 335 C590 411 558 487 505 540 C451 594 376 624 301 624 C224 624 151 594 96 539 C41 484 12 412 12 335 L12 335 Z M301 576 C365 576 425 551 471 506 C516 461 542 399 542 335 C542 272 517 212 471 165 C426 120 364 94 301 94 C237 94 178 119 132 165 C87 210 60 272 60 335 C60 397 86 459 131 505 C177 551 238 576 301 576 L301 576 Z " />
<glyph glyph-name="ordfeminine" unicode="&#xaa;" horiz-adv-x="602" d="M393 274 L397 250 C400 233 410 225 424 225 L486 225 C507 225 517 234 517 252 C517 272 506 280 481 280 C477 280 474 280 471 280 L451 280 L451 456 C451 548 404 595 313 595 C215 595 158 569 158 537 C158 520 172 507 186 507 C216 507 249 540 303 540 C363 540 390 512 390 452 C390 451 390 450 390 449 C358 457 328 461 298 461 C183 461 117 413 117 333 C117 265 168 215 246 215 C298 215 350 235 393 274 L393 274 Z M390 398 L390 355 C390 320 326 275 261 275 C210 275 180 301 180 336 C180 378 225 410 301 410 C330 410 358 409 390 398 L390 398 Z M466 170 L148 170 C139 170 132 163 132 155 L132 128 C132 117 139 111 148 111 L466 111 C475 111 483 119 483 128 L483 155 C483 164 477 170 466 170 L466 170 Z " />
<glyph glyph-name="guillemotleft" unicode="&#xab;" horiz-adv-x="602" d="M384 225 L449 362 C451 367 452 372 452 377 C452 394 440 406 424 406 C413 406 403 399 397 389 L322 248 C317 239 315 231 315 225 C315 219 317 212 322 203 L397 62 C403 51 413 45 424 45 C440 45 452 57 452 74 C452 79 451 84 449 89 L384 225 Z M219 225 L283 362 C285 367 287 372 287 377 C287 394 274 406 258 406 C247 406 237 399 231 389 L156 248 C151 239 149 231 149 225 C149 219 151 212 156 203 L231 62 C237 51 247 45 258 45 C274 45 287 57 287 74 C287 79 285 84 283 89 L219 225 Z " />
<glyph glyph-name="logicalnot" unicode="&#xac;" horiz-adv-x="602" d="M479 373 L479 210 C479 188 496 171 516 171 C538 171 553 187 553 210 L553 425 C553 437 543 444 525 444 L87 444 C65 444 49 429 49 409 C49 388 64 373 87 373 L479 373 Z " />
<glyph glyph-name="registered" unicode="&#xae;" horiz-adv-x="602" d="M12 335 C12 236 59 148 142 93 C189 62 244 45 301 45 C379 45 450 75 504 130 C560 186 590 259 590 335 C590 411 558 487 505 540 C451 594 376 624 301 624 C224 624 151 594 96 539 C41 484 12 412 12 335 L12 335 Z M301 576 C365 576 425 551 471 506 C516 461 542 399 542 335 C542 272 517 212 471 165 C426 120 364 94 301 94 C237 94 178 119 132 165 C87 210 60 272 60 335 C60 397 86 459 131 505 C177 551 238 576 301 576 L301 576 Z M260 230 L260 312 L269 312 C291 312 296 305 314 278 L365 201 C375 185 383 176 400 176 L429 176 C446 176 456 186 456 203 C456 222 445 230 422 230 C421 230 419 230 418 230 L367 307 C362 314 358 319 355 322 C393 335 416 367 416 406 C416 475 369 505 276 505 L183 505 C166 505 156 495 156 478 C156 456 168 452 196 452 L203 452 L203 230 L196 230 C168 230 156 225 156 203 C156 186 166 176 183 176 L271 176 C295 176 306 183 306 203 C306 222 294 230 269 230 C266 230 263 230 260 230 L260 230 Z M260 452 L289 452 C332 452 353 439 353 408 C353 378 331 363 288 363 L260 363 L260 452 Z " />
<glyph glyph-name="macron" unicode="&#xaf;" horiz-adv-x="602" d="M471 567 L471 594 C471 603 464 610 455 610 L146 610 C137 610 130 603 130 594 L130 567 C130 558 137 552 146 552 L455 552 C464 552 471 558 471 567 L471 567 Z " />
<glyph glyph-name="degree" unicode="&#xb0;" horiz-adv-x="602" d="M144 507 C144 419 213 350 301 350 C389 350 458 419 458 507 C458 594 389 664 301 664 C213 664 144 594 144 507 L144 507 Z M218 507 C218 555 254 592 301 592 C348 592 384 554 384 507 C384 460 348 422 301 422 C254 422 218 459 218 507 L218 507 Z " />
<glyph glyph-name="plusminus" unicode="&#xb1;" horiz-adv-x="602" d="M144 45 L457 45 C480 45 496 60 496 81 C496 103 480 116 457 116 L144 116 C123 116 105 101 105 81 C105 60 121 45 144 45 L144 45 Z M457 434 L337 434 L337 580 C337 603 323 619 301 619 C279 619 264 603 264 580 L264 434 L144 434 C123 434 105 418 105 398 C105 377 121 362 144 362 L264 362 L264 216 C264 195 281 178 301 178 C323 178 337 193 337 216 L337 362 L457 362 C480 362 496 377 496 398 C496 420 480 434 457 434 L457 434 Z " />
<glyph glyph-name="twosuperior" unicode="&#xb2;" horiz-adv-x="602" d="M219 297 C355 383 431 427 431 512 C431 580 379 632 300 632 C225 632 159 593 159 562 C159 549 172 537 190 537 C214 537 246 572 293 572 C330 572 354 547 354 510 C354 464 317 435 254 391 C188 345 146 322 146 284 C146 259 159 241 184 241 L399 241 C425 241 441 247 444 267 L450 300 C451 303 451 307 451 310 C451 332 436 349 417 349 C400 349 385 335 382 314 L379 297 L219 297 Z " />
<glyph glyph-name="threesuperior" unicode="&#xb3;" horiz-adv-x="602" d="M385 445 C421 466 439 495 439 531 C439 584 388 633 311 633 C234 633 167 587 167 559 C167 544 179 532 196 532 C220 532 254 573 301 573 C342 573 366 552 366 520 C366 475 336 474 292 468 C265 464 255 458 255 438 C255 406 279 410 316 407 C358 404 383 381 383 351 C383 311 350 284 293 284 C231 284 197 320 174 320 C156 320 141 304 141 288 C141 259 197 223 289 223 C396 223 461 277 461 345 C461 387 435 421 385 445 L385 445 Z " />
<glyph glyph-name="acute" unicode="&#xb4;" horiz-adv-x="602" d="M196 531 L209 505 L464 595 C472 598 477 606 477 614 C477 617 477 622 475 625 L459 654 C454 664 446 669 436 669 C434 669 430 668 428 667 L196 531 Z " />
<glyph glyph-name="mu" unicode="&#xb5;" horiz-adv-x="602" d="M457 67 L532 416 C533 419 533 422 533 425 C533 442 521 451 500 451 C468 451 462 443 457 417 L411 190 C396 116 322 58 242 58 C190 58 164 80 164 123 C164 133 167 148 171 168 L228 428 C229 431 229 433 229 436 C229 447 221 451 205 451 L120 451 C91 451 76 437 76 412 C76 394 86 384 106 384 L145 384 L39 -130 C35 -148 33 -162 33 -172 C33 -192 43 -200 69 -200 C93 -200 101 -184 108 -144 L137 19 C158 -2 184 -11 219 -11 C280 -11 333 12 384 59 L374 24 C373 20 372 17 372 15 C372 4 380 0 396 0 L473 0 C502 0 517 14 517 39 C517 57 507 67 488 67 L457 67 Z " />
<glyph glyph-name="paragraph" unicode="&#xb6;" horiz-adv-x="602" d="M287 -11 L210 -11 C167 -11 147 -14 147 -44 C147 -65 160 -76 184 -76 L328 -76 C355 -76 366 -70 366 -44 C366 -27 360 -17 345 -11 L345 550 L401 550 L401 -11 C389 -21 383 -32 383 -44 C383 -65 396 -76 420 -76 L513 -76 C540 -76 550 -70 550 -44 C550 -22 539 -11 516 -11 L459 -11 L459 550 L499 550 C527 550 536 557 536 583 C536 606 525 616 499 616 L354 616 C157 616 57 549 57 433 C57 328 139 255 271 255 C276 255 282 255 287 255 L287 -11 Z " />
<glyph glyph-name="periodcentered" unicode="&#xb7;" horiz-adv-x="602" d="M207 308 C207 256 248 214 301 214 C353 214 395 256 395 308 C395 360 353 402 301 402 C249 402 207 360 207 308 L207 308 Z " />
<glyph glyph-name="cedilla" unicode="&#xb8;" horiz-adv-x="602" d="M308 -9 L274 -9 L274 -106 C289 -103 298 -103 301 -103 C335 -103 353 -117 353 -145 C353 -171 337 -185 306 -185 C258 -185 221 -160 202 -160 C188 -160 178 -168 178 -179 C178 -207 255 -232 319 -232 C390 -232 430 -200 430 -145 C430 -95 395 -61 344 -61 C336 -61 324 -63 308 -65 L308 -9 Z " />
<glyph glyph-name="onesuperior" unicode="&#xb9;" horiz-adv-x="602" d="M277 572 L277 293 L197 293 C175 293 165 286 165 267 C165 248 174 241 196 241 L430 241 C452 241 461 248 461 267 C461 286 452 293 430 293 L348 293 L348 613 C348 626 342 632 329 632 C325 632 321 632 316 631 L196 606 C179 602 171 596 171 582 C171 567 181 558 198 558 C202 558 206 558 210 559 L277 572 Z " />
<glyph glyph-name="ordmasculine" unicode="&#xba;" horiz-adv-x="602" d="M301 270 C220 270 164 327 164 405 C164 483 220 541 301 541 C383 541 439 483 439 405 C439 328 383 270 301 270 L301 270 Z M507 405 C507 514 426 595 301 595 C177 595 95 513 95 405 C95 297 177 216 301 216 C426 216 507 296 507 405 L507 405 Z M459 170 L141 170 C132 170 125 163 125 155 L125 128 C125 117 132 111 141 111 L459 111 C468 111 477 119 477 128 L477 155 C477 164 470 170 459 170 L459 170 Z " />
<glyph glyph-name="guillemotright" unicode="&#xbb;" horiz-adv-x="602" d="M217 225 L152 89 C150 84 149 79 149 74 C149 57 161 45 177 45 C188 45 199 52 205 62 L280 203 C285 212 287 219 287 225 C287 231 285 239 280 248 L205 388 C199 399 188 406 177 406 C161 406 149 394 149 377 C149 372 150 367 152 362 L217 225 Z M383 225 L318 89 C316 84 315 79 315 74 C315 57 327 45 343 45 C354 45 364 52 370 62 L445 203 C450 212 452 219 452 225 C452 231 450 239 445 248 L370 388 C364 399 354 406 343 406 C327 406 315 394 315 377 C315 372 316 367 318 362 L383 225 Z " />
<glyph glyph-name="onequarter" unicode="&#xbc;" horiz-adv-x="602" d="M496 419 L78 207 C67 201 60 191 60 181 C60 167 71 154 86 154 C91 154 97 155 102 158 L521 370 C532 376 539 387 539 397 C539 411 528 423 513 423 C508 423 502 422 496 419 L496 419 Z M466 -68 L466 -17 L503 -17 C525 -17 527 -9 527 12 C527 33 524 39 503 39 L466 39 L466 222 C466 239 463 250 450 253 L422 261 C417 262 411 263 406 263 C396 263 391 257 382 246 L244 75 C226 53 226 37 226 19 C226 -6 234 -17 257 -17 L405 -17 L405 -68 C405 -87 413 -93 432 -93 C454 -93 466 -89 466 -68 L466 -68 Z M410 39 L284 39 L410 203 L410 39 Z M100 328 L275 328 C297 328 310 339 310 356 C310 382 290 384 251 384 L223 384 L223 644 C223 669 214 680 192 680 C190 680 188 680 186 680 L116 675 C90 673 77 663 77 644 C77 629 92 616 117 616 C118 616 119 616 120 616 L157 618 L157 384 L124 384 C84 384 65 380 65 356 C65 339 78 328 100 328 L100 328 Z " />
<glyph glyph-name="onehalf" unicode="&#xbd;" horiz-adv-x="602" d="M496 419 L78 207 C67 201 60 191 60 181 C60 167 71 154 86 154 C91 154 97 155 102 158 L521 370 C532 376 539 387 539 397 C539 411 528 423 513 423 C508 423 502 422 496 419 L496 419 Z M320 -89 L493 -89 C513 -89 527 -77 527 -59 C527 -40 515 -29 491 -29 L357 -29 C466 35 522 85 522 154 C522 215 476 264 411 264 C345 264 286 226 286 203 C286 186 296 175 312 175 C335 175 362 206 400 206 C433 206 454 184 454 149 C454 111 419 81 359 36 C315 2 285 -17 285 -49 C285 -73 298 -89 320 -89 L320 -89 Z M100 328 L275 328 C297 328 310 339 310 356 C310 382 290 384 251 384 L223 384 L223 644 C223 669 214 680 192 680 C190 680 188 680 186 680 L116 675 C90 673 77 663 77 644 C77 629 92 616 117 616 C118 616 119 616 120 616 L157 618 L157 384 L124 384 C84 384 65 380 65 356 C65 339 78 328 100 328 L100 328 Z " />
<glyph glyph-name="threequarters" unicode="&#xbe;" horiz-adv-x="602" d="M466 -68 L466 -17 L503 -17 C525 -17 527 -9 527 12 C527 33 524 39 503 39 L466 39 L466 222 C466 239 463 250 450 253 L421 261 C416 262 411 263 406 263 C396 263 390 257 381 246 L244 75 C226 53 226 37 226 19 C226 -6 233 -17 256 -17 L404 -17 L404 -68 C404 -87 413 -93 432 -93 C454 -93 466 -89 466 -68 L466 -68 Z M409 39 L283 39 L409 203 L409 39 Z M496 419 L78 207 C67 201 60 191 60 181 C60 167 71 154 86 154 C91 154 97 155 102 158 L521 370 C532 376 539 387 539 397 C539 411 528 423 513 423 C508 423 502 422 496 419 L496 419 Z M262 513 C297 530 314 555 314 589 C314 637 268 680 201 680 C137 680 87 649 87 629 C87 615 99 602 114 602 C135 602 157 626 194 626 C222 626 246 604 246 578 C246 553 230 537 197 534 C173 531 165 526 165 508 C165 490 173 483 195 483 C197 483 199 483 201 483 C231 483 256 460 256 431 C256 400 228 374 188 374 C152 374 123 396 99 396 C81 396 66 383 66 366 C66 342 118 316 188 316 C273 316 327 364 327 425 C327 464 305 494 262 513 L262 513 Z " />
<glyph glyph-name="questiondown" unicode="&#xbf;" horiz-adv-x="602" d="M426 521 C426 562 391 595 336 595 C280 595 246 563 246 521 C246 479 280 448 336 448 C392 448 426 479 426 521 L426 521 Z M372 336 L372 365 C372 387 360 400 337 400 C314 400 300 385 300 364 L300 325 C178 280 119 231 119 146 C119 47 192 -24 308 -24 C402 -24 484 5 484 40 L484 87 C484 114 469 131 449 131 C407 131 417 82 411 73 C404 61 363 44 317 44 C241 44 197 86 197 145 C197 219 266 233 332 268 C363 284 372 303 372 336 L372 336 Z " />
<glyph glyph-name="Agrave" unicode="&#xc0;" horiz-adv-x="602" d="M225 509 L59 69 C55 69 51 69 47 69 C14 69 1 61 1 35 C1 5 15 0 52 0 L180 0 C218 0 237 3 237 35 C237 63 219 69 181 69 L134 69 L176 185 L424 185 L471 69 L426 69 C388 69 371 63 371 35 C371 3 390 0 429 0 L562 0 C594 0 606 7 606 35 C606 62 594 69 560 69 C557 69 555 69 552 69 L361 546 C348 578 335 579 307 579 L168 579 C122 579 100 579 100 544 C100 517 117 509 154 509 L225 509 Z M200 250 L294 509 L400 250 L200 250 Z M373 637 L386 663 L153 799 C151 800 148 801 146 801 C136 801 128 796 123 786 L107 757 C105 754 105 749 105 746 C105 738 110 730 118 727 L373 637 Z " />
<glyph glyph-name="Aacute" unicode="&#xc1;" horiz-adv-x="602" d="M225 509 L59 69 C55 69 51 69 47 69 C14 69 1 61 1 35 C1 5 15 0 52 0 L180 0 C218 0 237 3 237 35 C237 63 219 69 181 69 L134 69 L176 185 L424 185 L471 69 L426 69 C388 69 371 63 371 35 C371 3 390 0 429 0 L562 0 C594 0 606 7 606 35 C606 62 594 69 560 69 C557 69 555 69 552 69 L361 546 C348 578 335 579 307 579 L168 579 C122 579 100 579 100 544 C100 517 117 509 154 509 L225 509 Z M200 250 L294 509 L400 250 L200 250 Z M176 663 L189 637 L444 727 C452 730 457 738 457 746 C457 749 457 754 455 757 L439 786 C434 796 426 801 416 801 C414 801 410 800 408 799 L176 663 Z " />
<glyph glyph-name="Acircumflex" unicode="&#xc2;" horiz-adv-x="602" d="M225 509 L59 69 C55 69 51 69 47 69 C14 69 1 61 1 35 C1 5 15 0 52 0 L180 0 C218 0 237 3 237 35 C237 63 219 69 181 69 L134 69 L176 185 L424 185 L471 69 L426 69 C388 69 371 63 371 35 C371 3 390 0 429 0 L562 0 C594 0 606 7 606 35 C606 62 594 69 560 69 C557 69 555 69 552 69 L361 546 C348 578 335 579 307 579 L168 579 C122 579 100 579 100 544 C100 517 117 509 154 509 L225 509 Z M200 250 L294 509 L400 250 L200 250 Z M281 719 L422 644 C425 642 428 642 431 642 C440 642 449 649 449 660 C449 665 447 670 443 673 L308 779 C300 786 291 789 281 789 C271 789 262 786 254 779 L119 673 C115 670 113 665 113 660 C113 649 122 642 131 642 C134 642 137 642 140 644 L281 719 Z " />
<glyph glyph-name="Atilde" unicode="&#xc3;" horiz-adv-x="602" d="M225 509 L59 69 C55 69 51 69 47 69 C14 69 1 61 1 35 C1 5 15 0 52 0 L180 0 C218 0 237 3 237 35 C237 63 219 69 181 69 L134 69 L176 185 L424 185 L471 69 L426 69 C388 69 371 63 371 35 C371 3 390 0 429 0 L562 0 C594 0 606 7 606 35 C606 62 594 69 560 69 C557 69 555 69 552 69 L361 546 C348 578 335 579 307 579 L168 579 C122 579 100 579 100 544 C100 517 117 509 154 509 L225 509 Z M200 250 L294 509 L400 250 L200 250 Z M330 741 L274 755 C254 760 235 763 216 763 C147 763 104 712 104 688 C104 677 110 670 122 670 C144 670 151 703 190 703 C203 703 217 701 231 697 L287 682 C308 677 328 674 346 674 C415 674 457 726 457 749 C457 761 451 768 439 768 C417 768 410 734 371 734 C361 734 347 737 330 741 L330 741 Z " />
<glyph glyph-name="Adieresis" unicode="&#xc4;" horiz-adv-x="602" d="M225 509 L59 69 C55 69 51 69 47 69 C14 69 1 61 1 35 C1 5 15 0 52 0 L180 0 C218 0 237 3 237 35 C237 63 219 69 181 69 L134 69 L176 185 L424 185 L471 69 L426 69 C388 69 371 63 371 35 C371 3 390 0 429 0 L562 0 C594 0 606 7 606 35 C606 62 594 69 560 69 C557 69 555 69 552 69 L361 546 C348 578 335 579 307 579 L168 579 C122 579 100 579 100 544 C100 517 117 509 154 509 L225 509 Z M200 250 L294 509 L400 250 L200 250 Z M97 714 C97 681 124 654 157 654 C191 654 215 679 215 714 C215 746 189 772 157 772 C125 772 97 745 97 714 L97 714 Z M346 714 C346 681 372 654 405 654 C439 654 464 679 464 714 C464 746 437 772 405 772 C373 772 346 745 346 714 L346 714 Z " />
<glyph glyph-name="Aring" unicode="&#xc5;" horiz-adv-x="602" d="M215 734 C215 770 244 800 281 800 C317 800 347 770 347 734 C347 697 317 669 281 669 C244 669 215 697 215 734 L215 734 Z M157 735 C157 666 212 611 281 611 C350 611 404 666 404 735 C404 804 350 858 281 858 C212 858 157 803 157 735 L157 735 Z M200 250 L294 509 L400 250 L200 250 Z M225 509 L59 69 C55 69 51 69 47 69 C14 69 1 61 1 35 C1 5 15 0 52 0 L180 0 C218 0 237 3 237 35 C237 63 219 69 181 69 L134 69 L176 185 L424 185 L471 69 L426 69 C388 69 371 63 371 35 C371 3 390 0 429 0 L562 0 C594 0 606 7 606 35 C606 62 594 69 560 69 C557 69 555 69 552 69 L361 546 C348 578 335 579 307 579 L168 579 C122 579 100 579 100 544 C100 517 117 509 154 509 L225 509 Z " />
<glyph glyph-name="AE" unicode="&#xc6;" horiz-adv-x="602" d="M166 509 L213 509 L61 69 C56 69 51 69 47 69 C13 69 1 62 1 35 C1 12 12 0 34 0 L141 0 C178 0 191 4 191 35 C191 58 181 69 162 69 L132 69 L172 193 L279 193 L279 69 L263 69 C226 69 212 66 212 35 C212 12 223 0 242 0 L542 0 C564 0 576 13 576 36 L576 173 C576 195 565 207 542 207 C518 207 507 195 507 168 C507 165 507 158 507 148 L507 69 L348 69 L348 271 L420 271 C420 266 420 261 420 256 C420 213 425 195 451 195 C475 195 481 208 481 238 L481 362 C481 389 472 402 451 402 C425 402 420 382 420 340 C420 335 420 330 420 325 L348 325 L348 509 L508 509 L508 439 C508 430 508 425 508 423 C508 393 517 380 543 380 C566 380 577 392 577 414 L577 540 C577 566 565 579 543 579 L169 579 C140 579 129 572 129 544 C129 520 141 509 166 509 L166 509 Z M187 250 L269 522 L279 522 L279 250 L187 250 Z " />
<glyph glyph-name="Ccedilla" unicode="&#xc7;" horiz-adv-x="602" d="M455 563 C408 583 364 594 319 594 C157 594 39 463 39 289 C39 110 159 -14 317 -14 C380 -14 432 3 486 38 C522 61 541 77 541 99 C541 119 526 134 505 134 C488 134 468 112 436 94 C398 73 357 62 321 62 C212 62 128 147 128 289 C128 443 206 528 319 528 C384 528 434 492 446 446 C457 402 452 378 494 378 C523 378 529 391 529 417 C529 424 527 463 527 538 C527 572 525 587 491 587 C472 587 462 580 455 563 L455 563 Z M315 -9 L281 -9 L281 -106 C296 -103 305 -103 308 -103 C342 -103 360 -117 360 -145 C360 -171 344 -185 313 -185 C265 -185 228 -160 209 -160 C195 -160 185 -168 185 -179 C185 -207 262 -232 326 -232 C397 -232 437 -200 437 -145 C437 -95 402 -61 351 -61 C343 -61 331 -63 315 -65 L315 -9 Z " />
<glyph glyph-name="Egrave" unicode="&#xc8;" horiz-adv-x="602" d="M92 0 L495 0 C517 0 529 13 529 36 L529 159 C529 192 523 207 495 207 C463 207 460 189 460 148 L460 69 L200 69 L200 285 L328 285 C328 280 328 275 328 271 C328 229 333 211 359 211 C388 211 390 229 390 268 L390 359 C390 399 386 417 359 417 C334 417 327 403 327 370 C327 368 328 359 328 344 L200 344 L200 509 L460 509 L460 439 C460 430 460 425 460 423 C460 393 469 380 495 380 C522 380 529 394 529 425 L529 540 C529 566 517 579 495 579 L92 579 C53 579 33 577 33 544 C33 513 50 509 92 509 L123 509 L123 69 L92 69 C50 69 33 66 33 35 C33 12 45 0 69 0 C79 0 87 0 92 0 L92 0 Z M393 637 L406 663 L173 799 C171 800 168 801 166 801 C156 801 148 796 143 786 L127 757 C125 754 125 749 125 746 C125 738 130 730 138 727 L393 637 Z " />
<glyph glyph-name="Eacute" unicode="&#xc9;" horiz-adv-x="602" d="M92 0 L495 0 C517 0 529 13 529 36 L529 159 C529 192 523 207 495 207 C463 207 460 189 460 148 L460 69 L200 69 L200 285 L328 285 C328 280 328 275 328 271 C328 229 333 211 359 211 C388 211 390 229 390 268 L390 359 C390 399 386 417 359 417 C334 417 327 403 327 370 C327 368 328 359 328 344 L200 344 L200 509 L460 509 L460 439 C460 430 460 425 460 423 C460 393 469 380 495 380 C522 380 529 394 529 425 L529 540 C529 566 517 579 495 579 L92 579 C53 579 33 577 33 544 C33 513 50 509 92 509 L123 509 L123 69 L92 69 C50 69 33 66 33 35 C33 12 45 0 69 0 C79 0 87 0 92 0 L92 0 Z M196 663 L209 637 L464 727 C472 730 477 738 477 746 C477 749 477 754 475 757 L459 786 C454 796 446 801 436 801 C434 801 430 800 428 799 L196 663 Z " />
<glyph glyph-name="Ecircumflex" unicode="&#xca;" horiz-adv-x="602" d="M92 0 L495 0 C517 0 529 13 529 36 L529 159 C529 192 523 207 495 207 C463 207 460 189 460 148 L460 69 L200 69 L200 285 L328 285 C328 280 328 275 328 271 C328 229 333 211 359 211 C388 211 390 229 390 268 L390 359 C390 399 386 417 359 417 C334 417 327 403 327 370 C327 368 328 359 328 344 L200 344 L200 509 L460 509 L460 439 C460 430 460 425 460 423 C460 393 469 380 495 380 C522 380 529 394 529 425 L529 540 C529 566 517 579 495 579 L92 579 C53 579 33 577 33 544 C33 513 50 509 92 509 L123 509 L123 69 L92 69 C50 69 33 66 33 35 C33 12 45 0 69 0 C79 0 87 0 92 0 L92 0 Z M301 719 L442 644 C445 642 448 642 451 642 C460 642 469 649 469 660 C469 665 467 670 463 673 L328 779 C320 786 311 789 301 789 C291 789 282 786 274 779 L139 673 C135 670 133 665 133 660 C133 649 142 642 151 642 C154 642 157 642 160 644 L301 719 Z " />
<glyph glyph-name="Edieresis" unicode="&#xcb;" horiz-adv-x="602" d="M92 0 L495 0 C517 0 529 13 529 36 L529 159 C529 192 523 207 495 207 C463 207 460 189 460 148 L460 69 L200 69 L200 285 L328 285 C328 280 328 275 328 271 C328 229 333 211 359 211 C388 211 390 229 390 268 L390 359 C390 399 386 417 359 417 C334 417 327 403 327 370 C327 368 328 359 328 344 L200 344 L200 509 L460 509 L460 439 C460 430 460 425 460 423 C460 393 469 380 495 380 C522 380 529 394 529 425 L529 540 C529 566 517 579 495 579 L92 579 C53 579 33 577 33 544 C33 513 50 509 92 509 L123 509 L123 69 L92 69 C50 69 33 66 33 35 C33 12 45 0 69 0 C79 0 87 0 92 0 L92 0 Z M117 714 C117 681 144 654 177 654 C211 654 235 679 235 714 C235 746 209 772 177 772 C145 772 117 745 117 714 L117 714 Z M366 714 C366 681 392 654 425 654 C459 654 484 679 484 714 C484 746 457 772 425 772 C393 772 366 745 366 714 L366 714 Z " />
<glyph glyph-name="Igrave" unicode="&#xcc;" horiz-adv-x="602" d="M449 69 L339 69 L339 509 L449 509 C491 509 508 513 508 544 C508 567 496 579 472 579 C461 579 453 579 449 579 L153 579 C114 579 94 577 94 544 C94 513 111 509 153 509 L262 509 L262 69 L153 69 C111 69 94 66 94 35 C94 12 106 0 130 0 C136 0 144 0 153 0 L449 0 C489 0 508 2 508 35 C508 66 491 69 449 69 L449 69 Z M393 637 L406 663 L173 799 C171 800 168 801 166 801 C156 801 148 796 143 786 L127 757 C125 754 125 749 125 746 C125 738 130 730 138 727 L393 637 Z " />
<glyph glyph-name="Iacute" unicode="&#xcd;" horiz-adv-x="602" d="M449 69 L339 69 L339 509 L449 509 C491 509 508 513 508 544 C508 567 496 579 472 579 C461 579 453 579 449 579 L153 579 C114 579 94 577 94 544 C94 513 111 509 153 509 L262 509 L262 69 L153 69 C111 69 94 66 94 35 C94 12 106 0 130 0 C136 0 144 0 153 0 L449 0 C489 0 508 2 508 35 C508 66 491 69 449 69 L449 69 Z M196 663 L209 637 L464 727 C472 730 477 738 477 746 C477 749 477 754 475 757 L459 786 C454 796 446 801 436 801 C434 801 430 800 428 799 L196 663 Z " />
<glyph glyph-name="Icircumflex" unicode="&#xce;" horiz-adv-x="602" d="M449 69 L339 69 L339 509 L449 509 C491 509 508 513 508 544 C508 567 496 579 472 579 C461 579 453 579 449 579 L153 579 C114 579 94 577 94 544 C94 513 111 509 153 509 L262 509 L262 69 L153 69 C111 69 94 66 94 35 C94 12 106 0 130 0 C136 0 144 0 153 0 L449 0 C489 0 508 2 508 35 C508 66 491 69 449 69 L449 69 Z M301 719 L442 644 C445 642 448 642 451 642 C460 642 469 649 469 660 C469 665 467 670 463 673 L328 779 C320 786 311 789 301 789 C291 789 282 786 274 779 L139 673 C135 670 133 665 133 660 C133 649 142 642 151 642 C154 642 157 642 160 644 L301 719 Z " />
<glyph glyph-name="Idieresis" unicode="&#xcf;" horiz-adv-x="602" d="M449 69 L339 69 L339 509 L449 509 C491 509 508 513 508 544 C508 567 496 579 472 579 C461 579 453 579 449 579 L153 579 C114 579 94 577 94 544 C94 513 111 509 153 509 L262 509 L262 69 L153 69 C111 69 94 66 94 35 C94 12 106 0 130 0 C136 0 144 0 153 0 L449 0 C489 0 508 2 508 35 C508 66 491 69 449 69 L449 69 Z M117 714 C117 681 144 654 177 654 C211 654 235 679 235 714 C235 746 209 772 177 772 C145 772 117 745 117 714 L117 714 Z M366 714 C366 681 392 654 425 654 C459 654 484 679 484 714 C484 746 457 772 425 772 C393 772 366 745 366 714 L366 714 Z " />
<glyph glyph-name="Eth" unicode="&#xd0;" horiz-adv-x="602" d="M184 69 L184 274 L305 274 C337 274 351 281 351 306 C351 333 337 337 305 337 L184 337 L184 509 C204 511 223 511 241 511 C405 511 477 445 477 289 C477 135 405 66 245 66 C226 66 205 67 184 69 L184 69 Z M184 0 C209 0 232 -2 253 -2 C355 -2 425 17 477 71 C529 125 558 201 558 289 C558 469 452 579 292 579 C273 579 237 579 184 579 L107 579 C68 579 49 577 49 544 C49 517 63 509 96 509 C100 509 104 509 108 509 L108 337 L65 337 C35 337 21 331 21 306 C21 280 34 274 65 274 L108 274 L108 69 C103 69 99 69 95 69 C62 69 49 62 49 35 C49 12 61 0 85 0 C95 0 101 0 107 0 L184 0 Z " />
<glyph glyph-name="Ntilde" unicode="&#xd1;" horiz-adv-x="602" d="M168 69 L168 468 L428 20 C444 -7 443 -8 470 -8 C472 -8 474 -8 476 -8 C500 -8 512 -7 512 17 L512 509 C514 509 517 509 519 509 C555 509 568 517 568 544 C568 567 557 579 533 579 C522 579 514 579 510 579 L393 579 C357 579 340 575 340 544 C340 519 356 509 390 509 C408 509 419 509 425 509 L444 509 L444 123 L198 548 C183 575 177 579 145 579 L99 579 C45 579 17 578 17 544 C17 513 42 509 99 509 L99 69 C96 69 93 69 90 69 C55 69 41 63 41 35 C41 12 52 0 76 0 C80 0 88 0 99 0 L221 0 C260 0 278 3 278 35 C278 60 262 69 228 69 C222 69 211 69 193 69 L168 69 Z M350 741 L294 755 C274 760 255 763 236 763 C167 763 124 712 124 688 C124 677 130 670 142 670 C164 670 171 703 210 703 C223 703 237 701 251 697 L307 682 C328 677 348 674 366 674 C435 674 477 726 477 749 C477 761 471 768 459 768 C437 768 430 734 391 734 C381 734 367 737 350 741 L350 741 Z " />
<glyph glyph-name="Ograve" unicode="&#xd2;" horiz-adv-x="602" d="M301 54 C196 54 125 138 125 290 C125 442 193 526 301 526 C406 526 477 442 477 290 C477 138 406 54 301 54 L301 54 Z M565 290 C565 470 454 595 301 595 C146 595 37 470 37 290 C37 111 150 -15 301 -15 C454 -15 565 110 565 290 L565 290 Z M393 637 L406 663 L173 799 C171 800 168 801 166 801 C156 801 148 796 143 786 L127 757 C125 754 125 749 125 746 C125 738 130 730 138 727 L393 637 Z " />
<glyph glyph-name="Oacute" unicode="&#xd3;" horiz-adv-x="602" d="M301 54 C196 54 125 138 125 290 C125 442 193 526 301 526 C406 526 477 442 477 290 C477 138 406 54 301 54 L301 54 Z M565 290 C565 470 454 595 301 595 C146 595 37 470 37 290 C37 111 150 -15 301 -15 C454 -15 565 110 565 290 L565 290 Z M196 663 L209 637 L464 727 C472 730 477 738 477 746 C477 749 477 754 475 757 L459 786 C454 796 446 801 436 801 C434 801 430 800 428 799 L196 663 Z " />
<glyph glyph-name="Ocircumflex" unicode="&#xd4;" horiz-adv-x="602" d="M301 54 C196 54 125 138 125 290 C125 442 193 526 301 526 C406 526 477 442 477 290 C477 138 406 54 301 54 L301 54 Z M565 290 C565 470 454 595 301 595 C146 595 37 470 37 290 C37 111 150 -15 301 -15 C454 -15 565 110 565 290 L565 290 Z M301 719 L442 644 C445 642 448 642 451 642 C460 642 469 649 469 660 C469 665 467 670 463 673 L328 779 C320 786 311 789 301 789 C291 789 282 786 274 779 L139 673 C135 670 133 665 133 660 C133 649 142 642 151 642 C154 642 157 642 160 644 L301 719 Z " />
<glyph glyph-name="Otilde" unicode="&#xd5;" horiz-adv-x="602" d="M301 54 C196 54 125 138 125 290 C125 442 193 526 301 526 C406 526 477 442 477 290 C477 138 406 54 301 54 L301 54 Z M565 290 C565 470 454 595 301 595 C146 595 37 470 37 290 C37 111 150 -15 301 -15 C454 -15 565 110 565 290 L565 290 Z M350 741 L294 755 C274 760 255 763 236 763 C167 763 124 712 124 688 C124 677 130 670 142 670 C164 670 171 703 210 703 C223 703 237 701 251 697 L307 682 C328 677 348 674 366 674 C435 674 477 726 477 749 C477 761 471 768 459 768 C437 768 430 734 391 734 C381 734 367 737 350 741 L350 741 Z " />
<glyph glyph-name="Odieresis" unicode="&#xd6;" horiz-adv-x="602" d="M301 54 C196 54 125 138 125 290 C125 442 193 526 301 526 C406 526 477 442 477 290 C477 138 406 54 301 54 L301 54 Z M565 290 C565 470 454 595 301 595 C146 595 37 470 37 290 C37 111 150 -15 301 -15 C454 -15 565 110 565 290 L565 290 Z M117 714 C117 681 144 654 177 654 C211 654 235 679 235 714 C235 746 209 772 177 772 C145 772 117 745 117 714 L117 714 Z M366 714 C366 681 392 654 425 654 C459 654 484 679 484 714 C484 746 457 772 425 772 C393 772 366 745 366 714 L366 714 Z " />
<glyph glyph-name="multiply" unicode="&#xd7;" horiz-adv-x="602" d="M300 368 L170 498 C162 506 151 511 142 511 C123 511 106 494 106 476 C106 465 111 455 119 447 L248 317 L124 192 C116 184 112 174 112 163 C112 143 126 129 146 129 C155 129 166 134 174 142 L299 266 L428 137 C436 129 446 125 457 125 C477 125 492 141 492 161 C492 170 487 180 479 188 L350 318 L475 443 C483 451 488 461 488 470 C488 490 472 506 452 506 C443 506 433 501 425 493 L300 368 Z " />
<glyph glyph-name="Oslash" unicode="&#xd8;" horiz-adv-x="602" d="M476 523 L513 586 C516 591 517 596 517 601 C517 616 499 630 481 630 C473 630 464 625 459 617 L425 561 C387 584 348 594 301 594 C147 594 37 469 37 289 C37 199 69 114 124 58 L83 -10 C80 -15 79 -20 79 -26 C79 -38 97 -54 115 -54 C123 -54 132 -49 137 -41 L174 19 C214 -4 255 -16 301 -16 C454 -16 565 109 565 289 C565 384 534 465 476 523 L476 523 Z M435 454 C469 403 477 352 477 289 C477 137 407 54 301 54 C269 54 240 63 211 81 L435 454 Z M165 127 C131 177 125 228 125 289 C125 440 193 524 301 524 C331 524 359 516 388 500 L165 127 Z " />
<glyph glyph-name="Ugrave" unicode="&#xd9;" horiz-adv-x="602" d="M90 509 L90 203 C90 66 175 -16 301 -16 C443 -16 513 62 513 221 L513 509 C515 509 518 509 520 509 C556 509 569 517 569 544 C569 567 558 579 534 579 C526 579 519 579 511 579 L403 579 C367 579 350 575 350 544 C350 515 369 509 414 509 C422 509 431 509 440 509 L440 232 C440 113 404 54 306 54 C257 54 214 77 191 117 C169 156 169 195 169 241 L169 509 C177 509 184 509 190 509 C233 509 251 515 251 544 C251 578 231 579 190 579 L90 579 C51 579 31 577 31 544 C31 517 45 509 78 509 C82 509 86 509 90 509 L90 509 Z M393 637 L406 663 L173 799 C171 800 168 801 166 801 C156 801 148 796 143 786 L127 757 C125 754 125 749 125 746 C125 738 130 730 138 727 L393 637 Z " />
<glyph glyph-name="Uacute" unicode="&#xda;" horiz-adv-x="602" d="M90 509 L90 203 C90 66 175 -16 301 -16 C443 -16 513 62 513 221 L513 509 C515 509 518 509 520 509 C556 509 569 517 569 544 C569 567 558 579 534 579 C526 579 519 579 511 579 L403 579 C367 579 350 575 350 544 C350 515 369 509 414 509 C422 509 431 509 440 509 L440 232 C440 113 404 54 306 54 C257 54 214 77 191 117 C169 156 169 195 169 241 L169 509 C177 509 184 509 190 509 C233 509 251 515 251 544 C251 578 231 579 190 579 L90 579 C51 579 31 577 31 544 C31 517 45 509 78 509 C82 509 86 509 90 509 L90 509 Z M196 663 L209 637 L464 727 C472 730 477 738 477 746 C477 749 477 754 475 757 L459 786 C454 796 446 801 436 801 C434 801 430 800 428 799 L196 663 Z " />
<glyph glyph-name="Ucircumflex" unicode="&#xdb;" horiz-adv-x="602" d="M90 509 L90 203 C90 66 175 -16 301 -16 C443 -16 513 62 513 221 L513 509 C515 509 518 509 520 509 C556 509 569 517 569 544 C569 567 558 579 534 579 C526 579 519 579 511 579 L403 579 C367 579 350 575 350 544 C350 515 369 509 414 509 C422 509 431 509 440 509 L440 232 C440 113 404 54 306 54 C257 54 214 77 191 117 C169 156 169 195 169 241 L169 509 C177 509 184 509 190 509 C233 509 251 515 251 544 C251 578 231 579 190 579 L90 579 C51 579 31 577 31 544 C31 517 45 509 78 509 C82 509 86 509 90 509 L90 509 Z M301 719 L442 644 C445 642 448 642 451 642 C460 642 469 649 469 660 C469 665 467 670 463 673 L328 779 C320 786 311 789 301 789 C291 789 282 786 274 779 L139 673 C135 670 133 665 133 660 C133 649 142 642 151 642 C154 642 157 642 160 644 L301 719 Z " />
<glyph glyph-name="Udieresis" unicode="&#xdc;" horiz-adv-x="602" d="M90 509 L90 203 C90 66 175 -16 301 -16 C443 -16 513 62 513 221 L513 509 C515 509 518 509 520 509 C556 509 569 517 569 544 C569 567 558 579 534 579 C526 579 519 579 511 579 L403 579 C367 579 350 575 350 544 C350 515 369 509 414 509 C422 509 431 509 440 509 L440 232 C440 113 404 54 306 54 C257 54 214 77 191 117 C169 156 169 195 169 241 L169 509 C177 509 184 509 190 509 C233 509 251 515 251 544 C251 578 231 579 190 579 L90 579 C51 579 31 577 31 544 C31 517 45 509 78 509 C82 509 86 509 90 509 L90 509 Z M117 714 C117 681 144 654 177 654 C211 654 235 679 235 714 C235 746 209 772 177 772 C145 772 117 745 117 714 L117 714 Z M366 714 C366 681 392 654 425 654 C459 654 484 679 484 714 C484 746 457 772 425 772 C393 772 366 745 366 714 L366 714 Z " />
<glyph glyph-name="Yacute" unicode="&#xdd;" horiz-adv-x="602" d="M408 69 L337 69 L337 224 L503 509 C506 509 508 509 511 509 C547 509 561 516 561 544 C561 576 544 579 503 579 L426 579 C421 579 417 579 413 579 C374 579 359 577 359 544 C359 517 372 508 407 508 C413 508 420 509 427 509 L304 297 L186 509 C192 509 197 509 202 509 C241 509 258 516 258 544 C258 574 243 579 209 579 L97 579 C58 579 38 577 38 544 C38 516 53 509 89 509 C92 509 94 509 97 509 L260 231 L260 69 L189 69 C145 69 130 65 130 35 C130 5 145 0 182 0 L414 0 C452 0 467 5 467 35 C467 66 450 69 408 69 L408 69 Z M196 663 L209 637 L464 727 C472 730 477 738 477 746 C477 749 477 754 475 757 L459 786 C454 796 446 801 436 801 C434 801 430 800 428 799 L196 663 Z " />
<glyph glyph-name="Thorn" unicode="&#xde;" horiz-adv-x="602" d="M333 69 L231 69 L231 124 L306 124 C446 124 517 181 517 289 C517 397 446 455 306 455 L231 455 L231 509 L306 509 C340 509 356 515 356 544 C356 568 342 579 311 579 L90 579 C68 579 56 567 56 544 C56 510 75 509 120 509 L154 509 L154 69 L91 69 C67 69 56 58 56 35 C56 12 68 0 90 0 L329 0 C363 0 378 6 378 35 C378 59 364 69 333 69 L333 69 Z M231 385 L306 385 C388 385 428 353 428 287 C428 221 388 188 306 188 L231 188 L231 385 Z " />
<glyph glyph-name="germandbls" unicode="&#xdf;" horiz-adv-x="602" d="M120 69 L60 69 C34 69 21 58 21 35 C21 3 43 0 89 0 L165 0 C184 0 194 13 194 36 L194 420 C194 521 206 575 306 575 C375 575 417 537 417 484 C417 440 388 409 338 403 C306 399 279 398 279 368 C279 332 319 341 371 335 C424 329 468 277 468 195 C468 103 428 56 353 56 C334 56 318 59 304 59 C286 59 273 46 273 28 C273 -5 298 -11 359 -11 C480 -11 549 61 549 191 C549 301 491 370 397 378 C462 397 494 435 494 493 C494 582 427 639 314 639 C237 639 178 616 148 581 C120 549 120 503 120 439 L120 69 Z " />
<glyph glyph-name="agrave" unicode="&#xe0;" horiz-adv-x="602" d="M412 62 L417 32 C421 11 433 0 451 0 L528 0 C554 0 567 12 567 35 C567 64 550 69 509 69 L484 69 L484 290 C484 408 426 463 301 463 C191 463 119 428 119 394 C119 369 134 353 152 353 C190 353 230 394 299 394 C374 394 409 359 409 284 C409 283 409 282 409 281 C369 291 331 296 293 296 C148 296 67 235 67 134 C67 48 131 -12 229 -12 C296 -12 359 14 412 62 L412 62 Z M409 216 L409 163 C409 119 329 63 241 63 C184 63 145 96 145 139 C145 194 202 233 306 233 C342 233 376 227 409 216 L409 216 Z M381 505 L394 531 L161 667 C159 668 156 669 154 669 C144 669 136 664 131 654 L115 625 C113 622 113 617 113 614 C113 606 118 598 126 595 L381 505 Z " />
<glyph glyph-name="aacute" unicode="&#xe1;" horiz-adv-x="602" d="M412 62 L417 32 C421 11 433 0 451 0 L528 0 C554 0 567 12 567 35 C567 64 550 69 509 69 L484 69 L484 290 C484 408 426 463 301 463 C191 463 119 428 119 394 C119 369 134 353 152 353 C190 353 230 394 299 394 C374 394 409 359 409 284 C409 283 409 282 409 281 C369 291 331 296 293 296 C148 296 67 235 67 134 C67 48 131 -12 229 -12 C296 -12 359 14 412 62 L412 62 Z M409 216 L409 163 C409 119 329 63 241 63 C184 63 145 96 145 139 C145 194 202 233 306 233 C342 233 376 227 409 216 L409 216 Z M184 531 L197 505 L452 595 C460 598 465 606 465 614 C465 617 465 622 463 625 L447 654 C442 664 434 669 424 669 C422 669 418 668 416 667 L184 531 Z " />
<glyph glyph-name="acircumflex" unicode="&#xe2;" horiz-adv-x="602" d="M412 62 L417 32 C421 11 433 0 451 0 L528 0 C554 0 567 12 567 35 C567 64 550 69 509 69 L484 69 L484 290 C484 408 426 463 301 463 C191 463 119 428 119 394 C119 369 134 353 152 353 C190 353 230 394 299 394 C374 394 409 359 409 284 C409 283 409 282 409 281 C369 291 331 296 293 296 C148 296 67 235 67 134 C67 48 131 -12 229 -12 C296 -12 359 14 412 62 L412 62 Z M409 216 L409 163 C409 119 329 63 241 63 C184 63 145 96 145 139 C145 194 202 233 306 233 C342 233 376 227 409 216 L409 216 Z M289 587 L430 512 C433 510 436 510 439 510 C448 510 457 517 457 528 C457 533 455 538 451 541 L316 647 C308 654 299 657 289 657 C279 657 270 654 262 647 L127 541 C123 538 121 533 121 528 C121 517 130 510 139 510 C142 510 145 510 148 512 L289 587 Z " />
<glyph glyph-name="atilde" unicode="&#xe3;" horiz-adv-x="602" d="M412 62 L417 32 C421 11 433 0 451 0 L528 0 C554 0 567 12 567 35 C567 64 550 69 509 69 L484 69 L484 290 C484 408 426 463 301 463 C191 463 119 428 119 394 C119 369 134 353 152 353 C190 353 230 394 299 394 C374 394 409 359 409 284 C409 283 409 282 409 281 C369 291 331 296 293 296 C148 296 67 235 67 134 C67 48 131 -12 229 -12 C296 -12 359 14 412 62 L412 62 Z M409 216 L409 163 C409 119 329 63 241 63 C184 63 145 96 145 139 C145 194 202 233 306 233 C342 233 376 227 409 216 L409 216 Z M338 609 L282 623 C262 628 243 631 224 631 C155 631 112 580 112 556 C112 545 118 538 130 538 C152 538 159 571 198 571 C211 571 225 569 239 565 L295 550 C316 545 336 542 354 542 C423 542 465 594 465 617 C465 629 459 636 447 636 C425 636 418 602 379 602 C369 602 355 605 338 609 L338 609 Z " />
<glyph glyph-name="adieresis" unicode="&#xe4;" horiz-adv-x="602" d="M412 62 L417 32 C421 11 433 0 451 0 L528 0 C554 0 567 12 567 35 C567 64 550 69 509 69 L484 69 L484 290 C484 408 426 463 301 463 C191 463 119 428 119 394 C119 369 134 353 152 353 C190 353 230 394 299 394 C374 394 409 359 409 284 C409 283 409 282 409 281 C369 291 331 296 293 296 C148 296 67 235 67 134 C67 48 131 -12 229 -12 C296 -12 359 14 412 62 L412 62 Z M409 216 L409 163 C409 119 329 63 241 63 C184 63 145 96 145 139 C145 194 202 233 306 233 C342 233 376 227 409 216 L409 216 Z M105 582 C105 549 132 522 165 522 C199 522 223 547 223 582 C223 614 197 640 165 640 C133 640 105 613 105 582 L105 582 Z M354 582 C354 549 380 522 413 522 C447 522 472 547 472 582 C472 614 445 640 413 640 C381 640 354 613 354 582 L354 582 Z " />
<glyph glyph-name="aring" unicode="&#xe5;" horiz-adv-x="602" d="M228 619 C228 655 257 685 294 685 C330 685 359 656 359 619 C359 582 330 553 294 553 C257 553 228 582 228 619 L228 619 Z M170 619 C170 550 225 495 294 495 C363 495 417 550 417 619 C417 688 363 742 294 742 C225 742 170 687 170 619 L170 619 Z M409 216 L409 163 C409 119 329 63 241 63 C184 63 145 96 145 139 C145 194 202 233 306 233 C342 233 376 227 409 216 L409 216 Z M412 62 L417 32 C421 11 433 0 451 0 L528 0 C554 0 567 12 567 35 C567 64 550 69 509 69 L484 69 L484 290 C484 408 426 463 301 463 C191 463 119 428 119 394 C119 369 134 353 152 353 C190 353 230 394 299 394 C374 394 409 359 409 284 C409 283 409 282 409 281 C369 291 331 296 293 296 C148 296 67 235 67 134 C67 48 131 -12 229 -12 C296 -12 359 14 412 62 L412 62 Z " />
<glyph glyph-name="ae" unicode="&#xe6;" horiz-adv-x="602" d="M266 204 L266 145 C266 99 215 57 159 57 C114 57 88 82 88 125 C88 184 136 205 237 205 C246 205 256 204 266 204 L266 204 Z M333 263 C333 267 333 271 333 275 C333 354 369 397 422 397 C471 397 500 354 500 271 C500 269 500 266 500 263 L333 263 Z M530 204 C567 204 576 210 576 255 C576 390 517 465 423 465 C378 465 340 446 307 407 C279 447 246 465 199 465 C117 465 55 415 55 383 C55 367 67 355 80 355 C112 355 138 402 196 402 C245 402 270 367 270 296 C270 286 269 275 268 263 L215 263 C86 263 19 220 19 119 C19 43 71 -12 148 -12 C201 -12 243 13 296 61 C332 10 366 -12 419 -12 C507 -12 579 51 579 90 C579 108 566 121 550 121 C519 121 489 57 422 57 C365 57 332 98 332 175 C332 184 332 194 333 204 L530 204 Z " />
<glyph glyph-name="ccedilla" unicode="&#xe7;" horiz-adv-x="602" d="M521 304 L521 395 C521 437 516 455 486 455 C461 455 448 446 448 424 C448 424 448 423 448 422 C394 449 345 463 294 463 C154 463 48 360 48 225 C48 90 153 -12 295 -12 C413 -12 523 61 523 107 C523 127 509 141 489 141 C463 141 444 117 414 97 C379 74 339 61 300 61 C198 61 133 129 133 226 C133 320 203 387 304 387 C362 387 408 360 438 307 C453 280 463 268 484 268 C508 268 521 280 521 304 L521 304 Z M308 -9 L274 -9 L274 -106 C289 -103 298 -103 301 -103 C335 -103 353 -117 353 -145 C353 -171 337 -185 306 -185 C258 -185 221 -160 202 -160 C188 -160 178 -168 178 -179 C178 -207 255 -232 319 -232 C390 -232 430 -200 430 -145 C430 -95 395 -61 344 -61 C336 -61 324 -63 308 -65 L308 -9 Z " />
<glyph glyph-name="egrave" unicode="&#xe8;" horiz-adv-x="602" d="M138 268 C157 349 220 397 306 397 C385 397 447 346 456 268 L138 268 Z M136 204 L464 204 C524 204 545 204 545 250 C545 359 454 464 306 464 C155 464 51 367 51 227 C51 81 145 -12 296 -12 C362 -12 433 4 500 37 C529 51 543 66 543 86 C543 104 528 118 509 118 C465 118 402 57 303 57 C202 57 141 110 136 204 L136 204 Z M393 505 L406 531 L173 667 C171 668 168 669 166 669 C156 669 148 664 143 654 L127 625 C125 622 125 617 125 614 C125 606 130 598 138 595 L393 505 Z " />
<glyph glyph-name="eacute" unicode="&#xe9;" horiz-adv-x="602" d="M138 268 C157 349 220 397 306 397 C385 397 447 346 456 268 L138 268 Z M136 204 L464 204 C524 204 545 204 545 250 C545 359 454 464 306 464 C155 464 51 367 51 227 C51 81 145 -12 296 -12 C362 -12 433 4 500 37 C529 51 543 66 543 86 C543 104 528 118 509 118 C465 118 402 57 303 57 C202 57 141 110 136 204 L136 204 Z M196 531 L209 505 L464 595 C472 598 477 606 477 614 C477 617 477 622 475 625 L459 654 C454 664 446 669 436 669 C434 669 430 668 428 667 L196 531 Z " />
<glyph glyph-name="ecircumflex" unicode="&#xea;" horiz-adv-x="602" d="M138 268 C157 349 220 397 306 397 C385 397 447 346 456 268 L138 268 Z M136 204 L464 204 C524 204 545 204 545 250 C545 359 454 464 306 464 C155 464 51 367 51 227 C51 81 145 -12 296 -12 C362 -12 433 4 500 37 C529 51 543 66 543 86 C543 104 528 118 509 118 C465 118 402 57 303 57 C202 57 141 110 136 204 L136 204 Z M301 587 L442 512 C445 510 448 510 451 510 C460 510 469 517 469 528 C469 533 467 538 463 541 L328 647 C320 654 311 657 301 657 C291 657 282 654 274 647 L139 541 C135 538 133 533 133 528 C133 517 142 510 151 510 C154 510 157 510 160 512 L301 587 Z " />
<glyph glyph-name="edieresis" unicode="&#xeb;" horiz-adv-x="602" d="M138 268 C157 349 220 397 306 397 C385 397 447 346 456 268 L138 268 Z M136 204 L464 204 C524 204 545 204 545 250 C545 359 454 464 306 464 C155 464 51 367 51 227 C51 81 145 -12 296 -12 C362 -12 433 4 500 37 C529 51 543 66 543 86 C543 104 528 118 509 118 C465 118 402 57 303 57 C202 57 141 110 136 204 L136 204 Z M117 582 C117 549 144 522 177 522 C211 522 235 547 235 582 C235 614 209 640 177 640 C145 640 117 613 117 582 L117 582 Z M366 582 C366 549 392 522 425 522 C459 522 484 547 484 582 C484 614 457 640 425 640 C393 640 366 613 366 582 L366 582 Z " />
<glyph glyph-name="igrave" unicode="&#xec;" horiz-adv-x="602" d="M346 69 L346 431 C346 443 337 451 318 451 L175 451 C149 451 136 440 136 417 C136 394 150 382 177 382 L272 382 L272 69 L123 69 C96 69 82 58 82 35 C82 12 95 0 121 0 L500 0 C529 0 540 7 540 35 C540 59 528 69 503 69 L346 69 Z M367 505 L380 531 L147 667 C145 668 142 669 140 669 C130 669 122 664 117 654 L101 625 C99 622 99 617 99 614 C99 606 104 598 112 595 L367 505 Z " />
<glyph glyph-name="iacute" unicode="&#xed;" horiz-adv-x="602" d="M346 69 L346 431 C346 443 337 451 318 451 L175 451 C149 451 136 440 136 417 C136 394 150 382 177 382 L272 382 L272 69 L123 69 C96 69 82 58 82 35 C82 12 95 0 121 0 L500 0 C529 0 540 7 540 35 C540 59 528 69 503 69 L346 69 Z M170 531 L183 505 L438 595 C446 598 451 606 451 614 C451 617 451 622 449 625 L433 654 C428 664 420 669 410 669 C408 669 404 668 402 667 L170 531 Z " />
<glyph glyph-name="icircumflex" unicode="&#xee;" horiz-adv-x="602" d="M346 69 L346 431 C346 443 337 451 318 451 L175 451 C149 451 136 440 136 417 C136 394 150 382 177 382 L272 382 L272 69 L123 69 C96 69 82 58 82 35 C82 12 95 0 121 0 L500 0 C529 0 540 7 540 35 C540 59 528 69 503 69 L346 69 Z M275 587 L416 512 C419 510 422 510 425 510 C434 510 443 517 443 528 C443 533 441 538 437 541 L302 647 C294 654 285 657 275 657 C265 657 256 654 248 647 L113 541 C109 538 107 533 107 528 C107 517 116 510 125 510 C128 510 131 510 134 512 L275 587 Z " />
<glyph glyph-name="idieresis" unicode="&#xef;" horiz-adv-x="602" d="M346 69 L346 431 C346 443 337 451 318 451 L175 451 C149 451 136 440 136 417 C136 394 150 382 177 382 L272 382 L272 69 L123 69 C96 69 82 58 82 35 C82 12 95 0 121 0 L500 0 C529 0 540 7 540 35 C540 59 528 69 503 69 L346 69 Z M91 582 C91 549 118 522 151 522 C185 522 209 547 209 582 C209 614 183 640 151 640 C119 640 91 613 91 582 L91 582 Z M340 582 C340 549 366 522 399 522 C433 522 458 547 458 582 C458 614 431 640 399 640 C367 640 340 613 340 582 L340 582 Z " />
<glyph glyph-name="eth" unicode="&#xf0;" horiz-adv-x="602" d="M301 56 C200 56 130 130 130 223 C130 317 200 390 301 390 C402 390 472 316 472 223 C472 129 402 56 301 56 L301 56 Z M371 443 C344 451 317 456 289 456 C148 456 45 353 45 223 C45 91 147 -12 301 -12 C457 -12 557 88 557 234 C557 345 490 459 360 560 L415 583 C434 591 444 599 444 612 C444 624 435 635 424 635 C415 635 407 631 395 626 L315 590 C257 623 221 640 205 640 C183 640 164 629 164 619 C164 607 195 601 250 561 L180 530 C161 521 151 514 151 501 C151 489 159 478 170 478 C179 478 189 482 200 487 L290 528 C319 503 346 474 371 443 L371 443 Z " />
<glyph glyph-name="ntilde" unicode="&#xf1;" horiz-adv-x="602" d="M119 69 C115 69 112 69 109 69 C69 69 52 63 52 35 C52 12 65 0 93 0 C106 0 115 0 119 0 L208 0 C245 0 260 2 260 35 C260 62 247 70 213 70 C207 70 200 69 192 69 L192 272 C192 345 260 389 319 389 C383 389 419 350 419 272 L419 69 C413 69 408 69 403 69 C368 69 354 62 354 35 C354 3 368 0 403 0 L511 0 C546 0 563 7 563 35 C563 60 548 69 517 69 C510 69 502 69 495 69 L495 290 C495 403 429 464 336 464 C285 464 240 442 193 398 L193 431 C193 443 184 451 165 451 L119 451 C74 451 52 451 52 417 C52 392 66 382 97 382 C104 382 112 382 119 382 L119 69 Z M350 609 L294 623 C274 628 255 631 236 631 C167 631 124 580 124 556 C124 545 130 538 142 538 C164 538 171 571 210 571 C223 571 237 569 251 565 L307 550 C328 545 348 542 366 542 C435 542 477 594 477 617 C477 629 471 636 459 636 C437 636 430 602 391 602 C381 602 367 605 350 609 L350 609 Z " />
<glyph glyph-name="ograve" unicode="&#xf2;" horiz-adv-x="602" d="M556 225 C556 360 456 462 301 462 C146 462 45 361 45 225 C45 89 146 -12 301 -12 C456 -12 556 89 556 225 L556 225 Z M301 56 C200 56 130 128 130 225 C130 322 200 395 301 395 C402 395 472 322 472 225 C472 127 402 56 301 56 L301 56 Z M393 505 L406 531 L173 667 C171 668 168 669 166 669 C156 669 148 664 143 654 L127 625 C125 622 125 617 125 614 C125 606 130 598 138 595 L393 505 Z " />
<glyph glyph-name="oacute" unicode="&#xf3;" horiz-adv-x="602" d="M556 225 C556 360 456 462 301 462 C146 462 45 361 45 225 C45 89 146 -12 301 -12 C456 -12 556 89 556 225 L556 225 Z M301 56 C200 56 130 128 130 225 C130 322 200 395 301 395 C402 395 472 322 472 225 C472 127 402 56 301 56 L301 56 Z M196 531 L209 505 L464 595 C472 598 477 606 477 614 C477 617 477 622 475 625 L459 654 C454 664 446 669 436 669 C434 669 430 668 428 667 L196 531 Z " />
<glyph glyph-name="ocircumflex" unicode="&#xf4;" horiz-adv-x="602" d="M556 225 C556 360 456 462 301 462 C146 462 45 361 45 225 C45 89 146 -12 301 -12 C456 -12 556 89 556 225 L556 225 Z M301 56 C200 56 130 128 130 225 C130 322 200 395 301 395 C402 395 472 322 472 225 C472 127 402 56 301 56 L301 56 Z M301 587 L442 512 C445 510 448 510 451 510 C460 510 469 517 469 528 C469 533 467 538 463 541 L328 647 C320 654 311 657 301 657 C291 657 282 654 274 647 L139 541 C135 538 133 533 133 528 C133 517 142 510 151 510 C154 510 157 510 160 512 L301 587 Z " />
<glyph glyph-name="otilde" unicode="&#xf5;" horiz-adv-x="602" d="M556 225 C556 360 456 462 301 462 C146 462 45 361 45 225 C45 89 146 -12 301 -12 C456 -12 556 89 556 225 L556 225 Z M301 56 C200 56 130 128 130 225 C130 322 200 395 301 395 C402 395 472 322 472 225 C472 127 402 56 301 56 L301 56 Z M350 609 L294 623 C274 628 255 631 236 631 C167 631 124 580 124 556 C124 545 130 538 142 538 C164 538 171 571 210 571 C223 571 237 569 251 565 L307 550 C328 545 348 542 366 542 C435 542 477 594 477 617 C477 629 471 636 459 636 C437 636 430 602 391 602 C381 602 367 605 350 609 L350 609 Z " />
<glyph glyph-name="odieresis" unicode="&#xf6;" horiz-adv-x="602" d="M556 225 C556 360 456 462 301 462 C146 462 45 361 45 225 C45 89 146 -12 301 -12 C456 -12 556 89 556 225 L556 225 Z M301 56 C200 56 130 128 130 225 C130 322 200 395 301 395 C402 395 472 322 472 225 C472 127 402 56 301 56 L301 56 Z M117 582 C117 549 144 522 177 522 C211 522 235 547 235 582 C235 614 209 640 177 640 C145 640 117 613 117 582 L117 582 Z M366 582 C366 549 392 522 425 522 C459 522 484 547 484 582 C484 614 457 640 425 640 C393 640 366 613 366 582 L366 582 Z " />
<glyph glyph-name="divide" unicode="&#xf7;" horiz-adv-x="602" d="M301 516 C272 516 247 492 247 461 C247 431 271 406 301 406 C331 406 355 432 355 461 C355 491 330 516 301 516 L301 516 Z M82 344 C62 344 51 331 51 308 C51 284 62 272 82 272 L519 272 C539 272 550 285 550 308 C550 331 539 344 519 344 L82 344 Z M301 209 C272 209 247 185 247 154 C247 124 271 100 301 100 C332 100 355 125 355 154 C355 184 331 209 301 209 L301 209 Z " />
<glyph glyph-name="oslash" unicode="&#xf8;" horiz-adv-x="602" d="M497 384 L541 430 C544 433 547 441 547 447 C547 461 533 475 519 475 C513 475 507 472 502 467 L455 420 C408 448 359 462 303 462 C150 462 47 362 47 226 C47 170 67 120 106 70 L58 23 C54 19 52 13 52 7 C52 -7 67 -21 81 -21 C87 -21 92 -18 97 -13 L145 34 C195 3 244 -10 302 -10 C456 -10 557 90 557 226 C557 299 532 347 497 384 L497 384 Z M162 127 C139 161 128 193 128 232 C128 332 198 401 300 401 C342 401 376 387 404 368 L162 127 Z M443 331 C469 298 481 265 481 226 C481 131 412 54 311 54 C271 54 236 65 199 88 L443 331 Z " />
<glyph glyph-name="ugrave" unicode="&#xf9;" horiz-adv-x="602" d="M177 180 L177 414 C177 416 177 417 177 419 C177 441 176 451 149 451 L75 451 C49 451 36 440 36 417 C36 392 50 382 81 382 C88 382 96 382 103 382 L103 162 C103 48 157 -10 264 -10 C323 -10 365 13 416 53 L416 20 C416 8 425 0 444 0 L518 0 C544 0 557 12 557 35 C557 60 543 69 512 69 C505 69 497 69 490 69 L490 404 C490 433 490 451 456 451 L352 451 C325 451 313 441 313 417 C313 393 323 382 349 382 L416 382 L416 180 C416 108 353 62 287 62 C211 62 177 100 177 180 L177 180 Z M363 505 L376 531 L143 667 C141 668 138 669 136 669 C126 669 118 664 113 654 L97 625 C95 622 95 617 95 614 C95 606 100 598 108 595 L363 505 Z " />
<glyph glyph-name="uacute" unicode="&#xfa;" horiz-adv-x="602" d="M177 180 L177 414 C177 416 177 417 177 419 C177 441 176 451 149 451 L75 451 C49 451 36 440 36 417 C36 392 50 382 81 382 C88 382 96 382 103 382 L103 162 C103 48 157 -10 264 -10 C323 -10 365 13 416 53 L416 20 C416 8 425 0 444 0 L518 0 C544 0 557 12 557 35 C557 60 543 69 512 69 C505 69 497 69 490 69 L490 404 C490 433 490 451 456 451 L352 451 C325 451 313 441 313 417 C313 393 323 382 349 382 L416 382 L416 180 C416 108 353 62 287 62 C211 62 177 100 177 180 L177 180 Z M166 531 L179 505 L434 595 C442 598 447 606 447 614 C447 617 447 622 445 625 L429 654 C424 664 416 669 406 669 C404 669 400 668 398 667 L166 531 Z " />
<glyph glyph-name="ucircumflex" unicode="&#xfb;" horiz-adv-x="602" d="M177 180 L177 414 C177 416 177 417 177 419 C177 441 176 451 149 451 L75 451 C49 451 36 440 36 417 C36 392 50 382 81 382 C88 382 96 382 103 382 L103 162 C103 48 157 -10 264 -10 C323 -10 365 13 416 53 L416 20 C416 8 425 0 444 0 L518 0 C544 0 557 12 557 35 C557 60 543 69 512 69 C505 69 497 69 490 69 L490 404 C490 433 490 451 456 451 L352 451 C325 451 313 441 313 417 C313 393 323 382 349 382 L416 382 L416 180 C416 108 353 62 287 62 C211 62 177 100 177 180 L177 180 Z M271 587 L412 512 C415 510 418 510 421 510 C430 510 439 517 439 528 C439 533 437 538 433 541 L298 647 C290 654 281 657 271 657 C261 657 252 654 244 647 L109 541 C105 538 103 533 103 528 C103 517 112 510 121 510 C124 510 127 510 130 512 L271 587 Z " />
<glyph glyph-name="udieresis" unicode="&#xfc;" horiz-adv-x="602" d="M177 180 L177 414 C177 416 177 417 177 419 C177 441 176 451 149 451 L75 451 C49 451 36 440 36 417 C36 392 50 382 81 382 C88 382 96 382 103 382 L103 162 C103 48 157 -10 264 -10 C323 -10 365 13 416 53 L416 20 C416 8 425 0 444 0 L518 0 C544 0 557 12 557 35 C557 60 543 69 512 69 C505 69 497 69 490 69 L490 404 C490 433 490 451 456 451 L352 451 C325 451 313 441 313 417 C313 393 323 382 349 382 L416 382 L416 180 C416 108 353 62 287 62 C211 62 177 100 177 180 L177 180 Z M87 582 C87 549 114 522 147 522 C181 522 205 547 205 582 C205 614 179 640 147 640 C115 640 87 613 87 582 L87 582 Z M336 582 C336 549 362 522 395 522 C429 522 454 547 454 582 C454 614 427 640 395 640 C363 640 336 613 336 582 L336 582 Z " />
<glyph glyph-name="yacute" unicode="&#xfd;" horiz-adv-x="602" d="M264 -125 L521 382 C555 383 570 391 570 417 C570 440 557 451 531 451 L410 451 C378 451 364 446 364 417 C364 389 381 382 423 382 C429 382 435 382 442 382 L306 113 L175 382 C181 382 187 382 193 382 C233 382 250 389 250 417 C250 446 236 451 204 451 L68 451 C42 451 29 440 29 417 C29 389 45 382 85 382 L264 31 L184 -125 L78 -125 C53 -125 41 -137 41 -160 C41 -187 53 -195 82 -195 L306 -195 C332 -195 346 -183 346 -160 C346 -131 328 -125 285 -125 C279 -125 272 -125 264 -125 L264 -125 Z M196 531 L209 505 L464 595 C472 598 477 606 477 614 C477 617 477 622 475 625 L459 654 C454 664 446 669 436 669 C434 669 430 668 428 667 L196 531 Z " />
<glyph glyph-name="thorn" unicode="&#xfe;" horiz-adv-x="602" d="M326 71 C235 71 172 135 172 224 C172 312 235 377 326 377 C417 377 481 312 481 224 C481 133 417 71 326 71 L326 71 Z M174 -125 L174 70 C214 24 274 -1 343 -1 C471 -1 565 90 565 219 C565 355 464 452 335 452 C273 452 219 429 175 384 L175 619 C175 633 166 639 147 639 L72 639 C46 639 33 627 33 604 C33 576 50 569 92 569 C95 569 98 569 101 569 L101 -125 C98 -125 95 -125 92 -125 C50 -125 33 -132 33 -160 C33 -183 46 -195 72 -195 L288 -195 C317 -195 329 -187 329 -160 C329 -137 317 -125 292 -125 L174 -125 Z " />
<glyph glyph-name="ydieresis" unicode="&#xff;" horiz-adv-x="602" d="M264 -125 L521 382 C555 383 570 391 570 417 C570 440 557 451 531 451 L410 451 C378 451 364 446 364 417 C364 389 381 382 423 382 C429 382 435 382 442 382 L306 113 L175 382 C181 382 187 382 193 382 C233 382 250 389 250 417 C250 446 236 451 204 451 L68 451 C42 451 29 440 29 417 C29 389 45 382 85 382 L264 31 L184 -125 L78 -125 C53 -125 41 -137 41 -160 C41 -187 53 -195 82 -195 L306 -195 C332 -195 346 -183 346 -160 C346 -131 328 -125 285 -125 C279 -125 272 -125 264 -125 L264 -125 Z M117 582 C117 549 144 522 177 522 C211 522 235 547 235 582 C235 614 209 640 177 640 C145 640 117 613 117 582 L117 582 Z M366 582 C366 549 392 522 425 522 C459 522 484 547 484 582 C484 614 457 640 425 640 C393 640 366 613 366 582 L366 582 Z " />
<glyph glyph-name="dotlessi" unicode="&#x131;" horiz-adv-x="602" d="M346 69 L346 431 C346 443 337 451 318 451 L175 451 C149 451 136 440 136 417 C136 394 150 382 177 382 L272 382 L272 69 L123 69 C96 69 82 58 82 35 C82 12 95 0 121 0 L500 0 C529 0 540 7 540 35 C540 59 528 69 503 69 L346 69 Z " />
<glyph glyph-name="Lslash" unicode="&#x141;" horiz-adv-x="602" d="M485 197 L485 69 L225 69 L225 267 L356 357 C373 368 381 376 381 388 C381 404 367 419 353 419 C348 419 338 414 323 404 L225 337 L225 509 L307 509 C348 509 366 512 366 544 C366 567 354 579 330 579 C326 579 318 579 307 579 L87 579 C48 579 29 577 29 544 C29 513 45 509 87 509 L148 509 L148 299 L66 242 C48 229 39 221 39 208 C39 192 53 179 67 179 C73 179 84 184 100 195 L148 229 L148 69 L87 69 C45 69 29 66 29 35 C29 12 40 0 64 0 C74 0 82 0 87 0 L520 0 C542 0 555 13 555 36 L555 197 C555 237 553 255 520 255 C489 255 485 239 485 197 L485 197 Z " />
<glyph glyph-name="lslash" unicode="&#x142;" horiz-adv-x="602" d="M268 298 L268 69 L133 69 C106 69 92 58 92 35 C92 12 105 0 131 0 L491 0 C520 0 531 7 531 35 C531 59 519 69 494 69 L342 69 L342 329 L444 400 C461 412 470 419 470 432 C470 446 458 458 445 458 C439 458 428 452 414 442 L342 392 L342 619 C342 631 333 639 314 639 L153 639 C127 639 114 627 114 604 C114 579 128 570 160 570 C165 570 174 569 185 569 L268 569 L268 362 L171 295 C154 283 145 275 145 263 C145 249 157 237 170 237 C177 237 187 242 201 252 L268 298 Z " />
<glyph glyph-name="OE" unicode="&#x152;" horiz-adv-x="602" d="M315 0 L542 0 C564 0 576 13 576 36 L576 173 C576 195 565 207 542 207 C518 207 507 195 507 168 C507 165 507 158 507 148 L507 65 L352 65 L352 271 L420 271 C420 266 420 261 420 256 C420 213 425 195 451 195 C475 195 481 208 481 238 L481 362 C481 389 472 402 451 402 C427 402 420 388 420 358 C420 335 420 325 420 325 L352 325 L352 514 L508 514 L508 439 C508 430 508 425 508 423 C508 393 517 380 543 380 C566 380 577 392 577 414 L577 540 C577 566 565 579 543 579 L316 579 C239 579 184 571 148 548 C75 503 34 413 34 289 C34 168 74 82 149 34 C192 6 246 0 315 0 L315 0 Z M284 514 L284 65 C278 64 272 64 266 64 C166 64 114 142 114 289 C114 438 166 515 267 515 C272 515 278 514 284 514 L284 514 Z " />
<glyph glyph-name="oe" unicode="&#x153;" horiz-adv-x="602" d="M338 263 C338 264 338 266 338 267 C338 354 368 397 426 397 C471 397 500 354 500 271 C500 269 500 266 500 263 L338 263 Z M191 57 C141 57 109 115 109 225 C109 335 141 395 191 395 C246 395 273 335 273 215 C273 113 239 57 191 57 L191 57 Z M337 204 L528 204 C567 204 576 209 576 255 C576 389 516 466 426 466 C380 466 341 445 306 402 C274 443 239 463 194 463 C101 463 35 378 35 225 C35 77 97 -12 186 -12 C233 -12 271 9 303 54 C330 9 367 -12 419 -12 C506 -12 579 51 579 90 C579 108 566 121 550 121 C519 121 489 57 424 57 C369 57 336 101 336 183 C336 190 337 197 337 204 L337 204 Z " />
<glyph glyph-name="Scaron" unicode="&#x160;" horiz-adv-x="602" d="M158 17 C207 -5 252 -17 302 -17 C439 -17 527 56 527 164 C527 256 469 311 355 326 L277 336 C202 346 165 375 165 424 C165 486 218 530 298 530 C350 530 392 510 413 479 C434 448 428 412 467 412 C490 412 504 425 504 448 C504 450 504 451 504 453 L497 555 C495 581 492 592 457 592 C435 592 426 586 426 567 C381 585 342 596 302 596 C176 596 86 517 86 420 C86 322 150 275 280 257 L352 247 C414 238 447 206 447 155 C447 95 392 49 305 49 C235 49 184 77 163 120 C145 156 150 194 109 194 C79 194 71 180 71 152 C71 149 71 146 71 142 L77 29 C79 -6 91 -22 119 -22 C146 -22 155 -12 158 17 L158 17 Z M301 713 L160 788 C157 790 154 790 151 790 C142 790 133 783 133 772 C133 767 135 763 139 760 L274 653 C282 647 291 643 301 643 C311 643 320 646 328 653 L463 760 C467 763 469 767 469 772 C469 783 460 790 450 790 C447 790 444 790 441 788 L301 713 Z " />
<glyph glyph-name="scaron" unicode="&#x161;" horiz-adv-x="602" d="M87 35 C87 4 100 -12 123 -12 C134 -12 150 -4 173 11 C228 -3 277 -11 321 -11 C443 -11 512 50 512 134 C512 230 445 268 316 271 C220 273 164 278 164 330 C164 369 201 402 266 402 C317 402 353 390 390 357 C419 331 429 306 451 306 C475 306 484 323 484 355 L484 412 C484 445 473 461 451 461 C425 461 415 442 401 442 C387 442 348 464 277 464 C156 464 89 408 89 327 C89 240 160 192 293 192 C307 192 316 192 321 192 C395 192 431 178 431 128 C431 84 387 52 316 52 C250 52 194 76 168 110 C149 135 152 162 122 162 C96 162 87 148 87 122 L87 35 Z M301 581 L160 656 C157 658 154 658 151 658 C142 658 133 651 133 640 C133 635 135 631 139 628 L274 521 C282 515 291 511 301 511 C311 511 320 514 328 521 L463 628 C467 631 469 635 469 640 C469 651 460 658 450 658 C447 658 444 658 441 656 L301 581 Z " />
<glyph glyph-name="Ydieresis" unicode="&#x178;" horiz-adv-x="602" d="M408 69 L337 69 L337 224 L503 509 C506 509 508 509 511 509 C547 509 561 516 561 544 C561 576 544 579 503 579 L426 579 C421 579 417 579 413 579 C374 579 359 577 359 544 C359 517 372 508 407 508 C413 508 420 509 427 509 L304 297 L186 509 C192 509 197 509 202 509 C241 509 258 516 258 544 C258 574 243 579 209 579 L97 579 C58 579 38 577 38 544 C38 516 53 509 89 509 C92 509 94 509 97 509 L260 231 L260 69 L189 69 C145 69 130 65 130 35 C130 5 145 0 182 0 L414 0 C452 0 467 5 467 35 C467 66 450 69 408 69 L408 69 Z M117 714 C117 681 144 654 177 654 C211 654 235 679 235 714 C235 746 209 772 177 772 C145 772 117 745 117 714 L117 714 Z M366 714 C366 681 392 654 425 654 C459 654 484 679 484 714 C484 746 457 772 425 772 C393 772 366 745 366 714 L366 714 Z " />
<glyph glyph-name="Zcaron" unicode="&#x17d;" horiz-adv-x="602" d="M187 509 L394 509 L114 102 C98 79 90 60 90 44 C90 18 109 0 137 0 L444 0 C469 0 480 9 481 33 L488 181 C488 187 489 193 489 199 C489 228 479 241 454 241 C419 241 418 226 416 183 L411 69 L184 69 L473 488 C485 506 491 522 491 537 C491 565 472 579 433 579 L153 579 C128 579 117 569 116 545 L110 410 C110 406 110 402 110 399 C110 394 110 391 110 390 C110 363 120 350 144 350 C169 350 181 360 181 384 C181 386 181 394 182 407 L187 509 Z M301 713 L160 788 C157 790 154 790 151 790 C142 790 133 783 133 772 C133 767 135 763 139 760 L274 653 C282 647 291 643 301 643 C311 643 320 646 328 653 L463 760 C467 763 469 767 469 772 C469 783 460 790 450 790 C447 790 444 790 441 788 L301 713 Z " />
<glyph glyph-name="zcaron" unicode="&#x17e;" horiz-adv-x="602" d="M195 69 L463 331 C492 359 507 383 507 402 C507 434 484 451 438 451 L177 451 C132 451 109 440 109 412 L109 329 C109 303 121 290 144 290 C176 290 179 311 179 357 L179 382 L412 382 L133 103 C113 83 98 68 98 44 C98 15 117 0 154 0 L449 0 C487 0 507 8 507 41 L507 122 C507 148 496 161 473 161 C441 161 438 140 438 94 L438 69 L195 69 Z M301 581 L160 656 C157 658 154 658 151 658 C142 658 133 651 133 640 C133 635 135 631 139 628 L274 521 C282 515 291 511 301 511 C311 511 320 514 328 521 L463 628 C467 631 469 635 469 640 C469 651 460 658 450 658 C447 658 444 658 441 656 L301 581 Z " />
<glyph glyph-name="florin" unicode="&#x192;" horiz-adv-x="602" d="M288 25 L325 342 L399 342 C430 342 445 348 445 370 C445 394 429 397 402 397 L331 397 L339 461 C348 538 369 573 439 573 C477 573 500 559 512 559 C527 559 541 573 541 589 C541 616 508 632 446 632 C334 632 283 581 269 471 L259 397 L191 397 C163 397 149 388 149 367 C149 352 159 342 176 342 L254 342 L220 53 C210 -32 194 -75 129 -75 C98 -75 72 -63 47 -63 C31 -63 17 -78 17 -97 C17 -123 50 -139 109 -139 C221 -139 275 -90 288 25 L288 25 Z " />
<glyph glyph-name="circumflex" unicode="&#x2c6;" horiz-adv-x="602" d="M301 587 L442 512 C445 510 448 510 451 510 C460 510 469 517 469 528 C469 533 467 538 463 541 L328 647 C320 654 311 657 301 657 C291 657 282 654 274 647 L139 541 C135 538 133 533 133 528 C133 517 142 510 151 510 C154 510 157 510 160 512 L301 587 Z " />
<glyph glyph-name="caron" unicode="&#x2c7;" horiz-adv-x="602" d="M301 581 L160 656 C157 658 154 658 151 658 C142 658 133 651 133 640 C133 635 135 631 139 628 L274 521 C282 515 291 511 301 511 C311 511 320 514 328 521 L463 628 C467 631 469 635 469 640 C469 651 460 658 450 658 C447 658 444 658 441 656 L301 581 Z " />
<glyph glyph-name="breve" unicode="&#x2d8;" horiz-adv-x="602" d="M301 529 C423 529 488 591 488 641 C488 654 484 661 474 661 C450 661 445 633 421 616 C398 600 358 591 301 591 C244 591 203 600 180 616 C156 633 152 661 128 661 C118 661 114 654 114 641 C114 591 179 529 301 529 L301 529 Z " />
<glyph glyph-name="dotaccent" unicode="&#x2d9;" horiz-adv-x="602" d="M239 589 C239 554 267 527 301 527 C336 527 363 553 363 589 C363 623 335 651 301 651 C268 651 239 621 239 589 L239 589 Z " />
<glyph glyph-name="ring" unicode="&#x2da;" horiz-adv-x="602" d="M178 624 C178 555 232 500 301 500 C370 500 425 555 425 624 C425 693 370 747 301 747 C232 747 178 692 178 624 L178 624 Z M235 623 C235 659 264 689 301 689 C337 689 367 659 367 623 C367 586 337 557 301 557 C264 557 235 586 235 623 L235 623 Z " />
<glyph glyph-name="ogonek" unicode="&#x2db;" horiz-adv-x="602" d="M405 15 L379 15 C289 -41 248 -97 248 -150 C248 -193 278 -223 325 -223 C391 -223 434 -164 434 -146 C434 -142 430 -137 423 -137 C414 -137 400 -168 366 -168 C337 -168 320 -149 320 -114 C320 -68 349 -31 405 15 L405 15 Z " />
<glyph glyph-name="tilde" unicode="&#x2dc;" horiz-adv-x="602" d="M350 609 L294 623 C274 628 255 631 236 631 C167 631 124 580 124 556 C124 545 130 538 142 538 C164 538 171 571 210 571 C223 571 237 569 251 565 L307 550 C328 545 348 542 366 542 C435 542 477 594 477 617 C477 629 471 636 459 636 C437 636 430 602 391 602 C381 602 367 605 350 609 L350 609 Z " />
<glyph glyph-name="hungarumlaut" unicode="&#x2dd;" horiz-adv-x="602" d="M169 527 L188 505 L358 595 C366 599 370 605 370 612 C370 616 368 621 365 625 L344 652 C340 657 334 660 327 660 C323 660 316 656 308 649 L169 527 Z M333 527 L352 505 L522 595 C530 599 534 605 534 612 C534 616 533 621 530 625 L508 652 C504 657 498 660 491 660 C487 660 480 656 472 649 L333 527 Z " />
<glyph glyph-name="endash" unicode="&#x2013;" horiz-adv-x="602" d="M602 266 L0 266 C-13 266 -22 258 -22 246 L-22 208 C-22 194 -13 185 0 185 L602 185 C614 185 625 195 625 208 L625 246 C625 259 617 266 602 266 L602 266 Z " />
<glyph glyph-name="emdash" unicode="&#x2014;" horiz-adv-x="602" d="M602 266 L0 266 C-13 266 -22 257 -22 246 L-22 208 C-22 194 -13 185 0 185 L602 185 C614 185 625 196 625 208 L625 246 C625 258 617 266 602 266 L602 266 Z " />
<glyph glyph-name="quoteleft" unicode="&#x2018;" horiz-adv-x="602" d="M337 356 L389 558 C390 562 391 565 391 568 C391 574 386 580 378 583 L350 594 C347 595 345 596 342 596 C335 596 329 591 324 582 L214 354 C212 349 211 345 211 343 C211 338 216 334 224 334 L312 334 C330 334 333 339 337 356 L337 356 Z " />
<glyph glyph-name="quoteright" unicode="&#x2019;" horiz-adv-x="602" d="M269 557 L217 355 C216 351 215 347 215 344 C215 338 219 333 228 330 L256 319 C259 318 261 318 264 318 C271 318 278 322 282 331 L392 559 C395 564 395 568 395 570 C395 574 390 579 382 579 L294 579 C276 579 273 574 269 557 L269 557 Z " />
<glyph glyph-name="quotesinglbase" unicode="&#x201a;" horiz-adv-x="602" d="M253 93 L201 -109 C200 -113 200 -116 200 -119 C200 -125 205 -131 213 -134 L241 -145 C244 -146 246 -146 249 -146 C256 -146 263 -142 267 -133 L377 95 C379 100 380 104 380 106 C380 111 375 115 367 115 L279 115 C261 115 257 110 253 93 L253 93 Z " />
<glyph glyph-name="quotedblleft" unicode="&#x201c;" horiz-adv-x="602" d="M231 363 L281 559 C282 562 283 566 283 569 C283 575 278 581 270 584 L243 594 C240 595 238 596 235 596 C228 596 223 591 218 582 L111 361 C109 356 108 352 108 350 C108 345 113 342 121 342 L206 342 C224 342 227 346 231 363 L231 363 Z M423 363 L473 559 C474 562 474 566 474 569 C474 575 470 581 462 584 L434 594 C431 595 429 596 426 596 C420 596 415 591 410 582 L303 361 C301 356 300 352 300 350 C300 345 304 342 312 342 L397 342 C415 342 419 346 423 363 L423 363 Z " />
<glyph glyph-name="quotedblright" unicode="&#x201d;" horiz-adv-x="602" d="M366 558 L315 361 C314 358 314 354 314 351 C314 345 319 340 327 337 L354 327 C357 326 360 325 362 325 C369 325 374 329 378 338 L485 559 C487 564 489 568 489 570 C489 575 484 579 476 579 L391 579 C373 579 370 574 366 558 L366 558 Z M174 558 L124 361 C123 358 122 354 122 351 C122 345 127 340 135 337 L162 327 C165 326 168 325 170 325 C177 325 183 329 187 338 L294 559 C296 564 297 568 297 570 C297 575 292 579 284 579 L199 579 C181 579 178 574 174 558 L174 558 Z " />
<glyph glyph-name="quotedblbase" unicode="&#x201e;" horiz-adv-x="602" d="M358 94 L308 -102 C307 -105 306 -109 306 -112 C306 -118 311 -124 319 -127 L346 -137 C349 -138 352 -139 354 -139 C361 -139 367 -135 371 -126 L478 96 C480 101 481 105 481 107 C481 112 476 115 468 115 L383 115 C365 115 362 110 358 94 L358 94 Z M166 94 L116 -102 C115 -105 115 -109 115 -112 C115 -118 119 -124 127 -127 L155 -137 C158 -138 161 -139 163 -139 C170 -139 175 -135 179 -126 L286 96 C288 101 289 105 289 107 C289 112 285 115 277 115 L191 115 C173 115 170 110 166 94 L166 94 Z " />
<glyph glyph-name="dagger" unicode="&#x2020;" horiz-adv-x="602" d="M451 448 L335 448 L335 557 C335 579 321 595 301 595 C280 595 268 581 268 557 L268 448 L151 448 C136 448 121 434 121 417 C121 400 135 387 151 387 L268 387 L268 23 C268 -1 280 -14 301 -14 C322 -14 335 1 335 23 L335 387 L451 387 C467 387 481 400 481 417 C481 434 465 448 451 448 L451 448 Z " />
<glyph glyph-name="daggerdbl" unicode="&#x2021;" horiz-adv-x="602" d="M451 447 L335 447 L335 557 C335 579 321 595 301 595 C281 595 267 580 267 557 L267 447 L151 447 C136 447 121 434 121 417 C121 400 135 387 151 387 L267 387 L267 197 L151 197 C135 197 122 185 122 168 C122 151 137 137 151 137 L267 137 L267 23 C267 1 281 -15 301 -15 C322 -15 335 0 335 23 L335 137 L451 137 C466 137 481 151 481 168 C481 185 467 197 451 197 L335 197 L335 387 L451 387 C467 387 481 400 481 417 C481 434 466 447 451 447 L451 447 Z " />
<glyph glyph-name="bullet" unicode="&#x2022;" horiz-adv-x="602" d="M223 334 C223 290 258 256 301 256 C344 256 379 291 379 334 C379 377 344 413 301 413 C258 413 223 378 223 334 L223 334 Z " />
<glyph glyph-name="ellipsis" unicode="&#x2026;" horiz-adv-x="602" d="M232 53 C232 16 262 -15 300 -15 C339 -15 369 15 369 53 C369 91 338 122 300 122 C262 122 232 91 232 53 L232 53 Z M433 53 C433 16 463 -15 501 -15 C540 -15 570 15 570 53 C570 91 539 122 501 122 C463 122 433 91 433 53 L433 53 Z M31 53 C31 16 61 -15 99 -15 C138 -15 168 15 168 53 C168 91 137 122 99 122 C61 122 31 91 31 53 L31 53 Z " />
<glyph glyph-name="perthousand" unicode="&#x2030;" horiz-adv-x="602" d="M-44 485 C-44 410 15 353 99 353 C183 353 241 410 241 485 C241 560 183 617 99 617 C16 617 -44 560 -44 485 L-44 485 Z M16 485 C16 528 49 559 99 559 C149 559 181 528 181 485 C181 442 149 411 99 411 C49 411 16 442 16 485 L16 485 Z M309 399 L-18 269 C-30 264 -39 253 -39 242 C-39 227 -28 215 -12 215 C-8 215 -3 216 2 218 L330 348 C342 353 349 364 349 375 C349 391 339 402 323 402 C319 402 314 401 309 399 L309 399 Z M70 131 C70 56 128 -1 212 -1 C296 -1 355 56 355 131 C355 206 296 262 212 262 C129 262 70 206 70 131 L70 131 Z M130 131 C130 174 162 205 212 205 C262 205 295 174 295 131 C295 88 262 56 212 56 C162 56 130 88 130 131 L130 131 Z M378 131 C378 56 437 -1 521 -1 C605 -1 663 56 663 131 C663 206 605 262 521 262 C438 262 378 206 378 131 L378 131 Z M439 131 C439 174 471 205 521 205 C571 205 603 174 603 131 C603 88 571 56 521 56 C471 56 439 88 439 131 L439 131 Z " />
<glyph glyph-name="guilsinglleft" unicode="&#x2039;" horiz-adv-x="602" d="M302 225 L366 362 C368 367 370 372 370 377 C370 394 357 406 341 406 C330 406 320 399 314 389 L239 248 C234 239 232 231 232 225 C232 219 234 212 239 203 L314 62 C320 51 330 45 341 45 C357 45 370 57 370 74 C370 79 368 84 366 89 L302 225 Z " />
<glyph glyph-name="guilsinglright" unicode="&#x203a;" horiz-adv-x="602" d="M300 225 L235 89 C233 84 232 79 232 74 C232 57 244 45 260 45 C271 45 281 52 287 62 L362 203 C367 212 369 219 369 225 C369 231 367 239 362 248 L287 388 C281 399 271 406 260 406 C244 406 232 394 232 377 C232 372 233 367 235 362 L300 225 Z " />
<glyph glyph-name="fraction" unicode="&#x2044;" horiz-adv-x="602" d="M191 -13 L498 648 C501 654 503 660 503 666 C503 685 486 699 468 699 C448 699 438 685 424 656 L119 -1 C116 -8 114 -15 114 -21 C114 -40 130 -55 148 -55 C169 -55 179 -40 191 -13 L191 -13 Z " />
<glyph glyph-name="trademark" unicode="&#x2122;" horiz-adv-x="602" d="M420 485 L391 592 C387 607 375 615 358 615 L327 615 C313 615 303 605 303 589 C303 575 309 566 324 563 L319 391 C301 389 294 381 294 364 C294 347 304 337 319 337 L372 337 C393 337 403 346 403 364 C403 383 393 391 370 391 C369 391 367 391 366 391 L366 529 L391 437 C396 420 404 413 420 413 C436 413 443 420 448 437 L473 529 L473 391 C472 391 471 391 469 391 C448 391 437 382 437 364 C437 346 448 337 469 337 L522 337 C536 337 547 348 547 364 C547 380 539 389 521 391 L516 563 C530 566 538 575 538 589 C538 605 528 615 514 615 L482 615 C465 615 454 607 450 592 L420 485 Z M108 517 L109 562 L141 562 L141 391 L124 391 C99 391 89 385 89 364 C89 348 99 337 114 337 L221 337 C236 337 246 349 246 364 C246 385 236 391 212 391 L194 391 L194 562 L226 562 L228 517 C229 491 234 481 254 481 C268 481 279 491 279 506 C279 510 279 514 279 519 L276 590 C275 606 266 616 250 616 L85 616 C69 616 59 606 59 590 L57 519 C57 517 57 515 57 514 C57 491 63 481 81 481 C101 481 107 491 108 517 L108 517 Z " />
<glyph glyph-name="minus" unicode="&#x2212;" horiz-adv-x="602" d="M97 262 L502 262 C515 262 525 273 525 284 L525 334 C525 345 517 353 502 353 L97 353 C84 353 76 345 76 334 L76 284 C76 271 84 262 97 262 L97 262 Z " />
<glyph glyph-name="fi" unicode="&#xfb01;" horiz-adv-x="602" d="M260 68 L187 68 L187 380 L273 380 C302 380 317 393 317 417 C317 441 304 450 276 450 L186 450 C185 458 185 465 185 472 C185 535 213 567 267 567 C300 567 326 555 344 555 C361 555 376 571 376 592 C376 627 350 640 294 640 C178 640 109 585 109 480 C109 460 109 450 109 450 L38 450 C11 450 -1 440 -1 417 C-1 389 17 380 66 380 L113 380 L113 68 L42 68 C15 68 3 58 3 35 C3 12 17 0 44 0 L262 0 C288 0 301 12 301 35 C301 59 288 68 260 68 L260 68 Z M511 69 L511 431 C511 443 502 451 483 451 L383 451 C357 451 344 440 344 417 C344 392 358 382 390 382 C395 382 404 382 415 382 L437 382 L437 69 L375 69 C348 69 334 58 334 35 C334 12 348 0 374 0 L562 0 C591 0 602 7 602 35 C602 59 591 69 566 69 L511 69 Z M421 592 C421 552 430 544 471 544 C518 544 521 555 521 606 C521 657 517 672 472 672 C427 672 421 657 421 592 L421 592 Z " />
<glyph glyph-name="fl" unicode="&#xfb02;" horiz-adv-x="602" d="M260 69 L187 69 L187 381 L272 381 C302 381 317 393 317 417 C317 445 300 451 263 451 L186 451 C185 458 185 465 185 472 C185 536 220 574 274 574 C295 574 316 566 339 566 C350 566 362 569 375 569 L437 569 L437 69 L375 69 C347 69 334 58 334 35 C334 12 348 0 374 0 L562 0 C591 0 602 7 602 35 C602 60 590 69 562 69 L511 69 L511 619 C511 631 502 639 483 639 L411 639 C389 639 363 642 334 642 C179 642 109 599 109 480 C109 461 109 451 109 451 L44 451 C13 451 -1 442 -1 417 C-1 393 14 381 45 381 L113 381 L113 69 L42 69 C16 69 3 58 3 35 C3 12 17 0 44 0 L262 0 C288 0 301 12 301 35 C301 58 288 69 260 69 L260 69 Z " />
</font>
</svg>
