<?xml version="1.0" encoding="UTF-8"?>
<svg xmlns="http://www.w3.org/2000/svg" xmlns:xlink="http://www.w3.org/1999/xlink" version="1.2" >
<font id="Courier Bold Italic">
<font-face  font-family="Courier" units-per-em="1000" ascent="648" descent="-152" font-style="italic" font-weight="700" font-stretch="normal" slope="-16" cap-height="583" x-height="453" underline-position="-75" underline-thickness="50" />
<missing-glyph  horiz-adv-x="600" d="" />
<glyph glyph-name="NULL" d="" />
<glyph glyph-name="&amp;#x21b5;" unicode="&#x21b5;" horiz-adv-x="600" d="M574 257 L574 527 L514 527 L514 317 L165 317 C181 342 205 384 205 402 C205 408 201 421 184 421 C174 421 167 413 159 404 C130 369 93 340 43 313 C32 307 18 300 18 289 C18 276 26 272 37 266 C112 223 137 198 151 181 C169 160 175 154 185 154 C201 154 205 168 205 173 C205 173 203 202 165 257 L574 257 Z " />
<glyph glyph-name="&amp;#xd;" unicode="&#xd;" horiz-adv-x="600" d="M574 257 L574 527 L514 527 L514 317 L165 317 C181 342 205 384 205 402 C205 408 201 421 184 421 C174 421 167 413 159 404 C130 369 93 340 43 313 C32 307 18 300 18 289 C18 276 26 272 37 266 C112 223 137 198 151 181 C169 160 175 154 185 154 C201 154 205 168 205 173 C205 173 203 202 165 257 L574 257 Z " />
<glyph glyph-name="space" unicode="&#x20;" horiz-adv-x="600" d="" />
<glyph glyph-name="exclam" unicode="&#x21;" horiz-adv-x="600" d="M483 591 L360 591 L294 187 L377 187 L483 591 Z M320 141 C266 141 221 100 221 53 C221 13 255 -16 297 -16 C351 -16 396 26 396 73 C396 109 366 141 320 141 L320 141 Z " />
<glyph glyph-name="quotedbl" unicode="&#x22;" horiz-adv-x="600" d="M257 583 L203 272 L312 272 L390 583 L257 583 Z M459 583 L404 272 L514 272 L591 583 L459 583 Z " />
<glyph glyph-name="numbersign" unicode="&#x23;" horiz-adv-x="600" d="M310 658 L257 460 L150 460 L128 367 L233 367 L197 227 L101 227 L79 134 L169 134 L114 -73 L200 -73 L257 134 L408 134 L353 -73 L439 -73 L495 134 L602 134 L623 227 L522 227 L558 367 L651 367 L672 460 L585 460 L635 658 L549 658 L495 460 L343 460 L397 658 L310 658 Z M471 367 L433 227 L280 227 L319 367 L471 367 Z " />
<glyph glyph-name="dollar" unicode="&#x24;" horiz-adv-x="600" d="M400 672 L381 572 C267 570 182 478 182 390 C182 296 271 270 314 258 L283 100 C245 102 209 106 209 156 C209 161 210 195 211 203 L137 187 C128 119 121 90 91 23 L161 0 L182 55 C205 33 222 24 266 16 L233 -130 L304 -130 L337 16 C418 20 539 77 539 192 C539 277 467 302 400 322 L434 483 C487 474 488 461 486 400 L558 413 C573 480 581 506 612 577 L538 592 L512 528 C491 553 475 560 452 568 L471 672 L400 672 Z M329 340 C314 344 273 355 273 396 C273 444 315 475 364 486 L329 340 Z M384 238 C386 238 394 235 399 233 C430 223 448 213 448 183 C448 175 444 108 354 100 L384 238 Z " />
<glyph glyph-name="percent" unicode="&#x25;" horiz-adv-x="600" d="M482 274 C375 274 298 183 298 103 C298 51 333 -14 424 -14 C529 -14 607 76 607 156 C607 212 569 274 482 274 L482 274 Z M471 206 C506 206 531 185 531 148 C531 106 492 54 434 54 C395 54 374 78 374 112 C374 154 412 206 471 206 L471 206 Z M304 634 C200 634 120 545 120 463 C120 409 156 346 246 346 C356 346 430 439 430 516 C430 575 387 634 304 634 L304 634 Z M293 566 C329 566 354 544 354 507 C354 465 315 414 257 414 C228 414 196 430 196 472 C196 514 236 566 293 566 L293 566 Z M598 423 L135 254 L149 203 L613 371 L598 423 Z " />
<glyph glyph-name="ampersand" unicode="&#x26;" horiz-adv-x="600" d="M472 310 C457 272 444 244 408 199 L345 335 C324 380 318 403 318 420 C318 444 347 476 393 476 C442 476 466 446 494 411 L546 564 C544 563 538 561 534 559 C531 558 518 552 516 551 C510 549 492 545 486 545 C477 545 466 549 463 550 C433 559 422 562 397 562 C320 562 230 508 230 414 C230 385 237 367 247 340 C250 334 254 324 255 322 C110 252 110 143 110 125 C110 40 171 -7 243 -7 C312 -7 356 26 385 46 L408 0 L494 0 L512 82 L465 82 L450 115 C481 149 499 177 521 226 L546 226 L565 310 L472 310 Z M349 123 C328 104 300 79 255 79 C209 79 201 112 201 131 C201 186 248 227 290 248 L349 123 Z " />
<glyph glyph-name="quotesingle" unicode="&#x27;" horiz-adv-x="600" d="M357 583 L312 272 L421 272 L509 583 L357 583 Z " />
<glyph glyph-name="parenleft" unicode="&#x28;" horiz-adv-x="600" d="M530 666 C445 567 314 388 314 188 C314 92 332 4 375 -93 L463 -93 C462 -91 460 -82 459 -80 C458 -77 453 -60 452 -58 C452 -57 449 -48 448 -46 C423 34 410 101 410 177 C410 265 426 392 589 611 C590 613 597 622 598 624 L630 666 L530 666 Z " />
<glyph glyph-name="parenright" unicode="&#x29;" horiz-adv-x="600" d="M181 -93 L184 -89 C199 -72 232 -35 276 33 C395 218 398 329 398 386 C398 461 387 562 345 646 C343 650 343 651 341 656 C339 660 338 661 336 666 L248 666 C249 664 252 655 252 654 C283 552 302 492 302 397 C302 218 209 74 103 -64 C93 -77 91 -80 82 -93 L181 -93 Z " />
<glyph glyph-name="asterisk" unicode="&#x2a;" horiz-adv-x="600" d="M370 587 L347 453 L229 501 L175 397 L298 361 L192 256 L266 193 L365 305 L417 193 L514 256 L452 361 L590 397 L579 501 L443 453 L478 587 L370 587 Z " />
<glyph glyph-name="plus" unicode="&#x2b;" horiz-adv-x="600" d="M319 553 L319 356 L117 356 L117 268 L319 268 L319 71 L407 71 L407 268 L609 268 L609 356 L407 356 L407 553 L319 553 Z " />
<glyph glyph-name="comma" unicode="&#x2c;" horiz-adv-x="600" d="M274 168 L129 -106 L239 -106 L420 168 L274 168 Z " />
<glyph glyph-name="hyphen" unicode="&#x2d;" horiz-adv-x="600" d="M254 345 L254 253 L475 253 L475 345 L254 345 Z " />
<glyph glyph-name="period" unicode="&#x2e;" horiz-adv-x="600" d="M329 154 C275 154 217 111 217 54 C217 9 256 -16 297 -16 C352 -16 408 28 408 84 C408 129 367 154 329 154 L329 154 Z " />
<glyph glyph-name="slash" unicode="&#x2f;" horiz-adv-x="600" d="M594 728 L44 -91 L118 -128 L669 693 L594 728 Z " />
<glyph glyph-name="zero" unicode="0" horiz-adv-x="600" d="M425 639 C197 639 142 294 142 172 C142 124 151 -14 298 -14 C524 -14 579 330 579 453 C579 498 571 639 425 639 L425 639 Z M418 555 C485 555 488 481 488 452 C488 349 440 70 302 70 C241 70 233 136 233 171 C233 291 287 555 418 555 L418 555 Z " />
<glyph glyph-name="one" unicode="1" horiz-adv-x="600" d="M197 547 L216 465 L372 528 L277 82 L109 82 L91 0 L514 0 L531 82 L366 82 L483 639 L424 639 L197 547 Z " />
<glyph glyph-name="two" unicode="2" horiz-adv-x="600" d="M435 180 L414 82 L223 82 L223 84 C495 277 579 355 579 476 C579 575 498 639 411 639 C328 639 257 600 199 544 L179 453 L270 453 C273 470 275 484 285 500 C303 527 347 552 394 552 C450 552 489 517 489 475 C489 456 483 409 440 363 C405 326 330 267 147 130 C127 115 104 98 81 82 L64 0 L481 0 L519 180 L435 180 Z " />
<glyph glyph-name="three" unicode="3" horiz-adv-x="600" d="M68 46 C74 43 105 30 111 27 C157 6 201 -14 265 -14 C412 -14 519 103 519 218 C519 233 519 292 461 338 C542 394 548 473 548 503 C548 574 485 639 392 639 C321 639 263 607 191 566 L222 489 C305 535 337 551 385 551 C420 551 457 535 457 493 C457 451 431 412 394 390 C365 373 336 373 291 372 L273 288 L333 290 C361 291 428 284 428 214 C428 146 368 72 272 72 C212 72 153 102 117 122 L68 46 Z " />
<glyph glyph-name="four" unicode="4" horiz-adv-x="600" d="M537 639 L438 639 L110 244 L94 165 L353 165 L333 82 L205 82 L184 0 L489 0 L510 82 L420 82 L438 165 L526 165 L542 241 L455 241 L537 639 Z M204 241 L427 519 L429 517 L368 241 L204 241 Z " />
<glyph glyph-name="five" unicode="5" horiz-adv-x="600" d="M239 625 L171 304 L216 276 C246 296 293 326 355 326 C424 326 451 283 451 236 C451 170 403 74 280 74 C219 74 166 96 121 118 L74 41 C118 19 185 -14 279 -14 C452 -14 544 133 544 243 C544 350 469 410 367 410 C327 410 296 401 274 394 L305 539 L584 539 L602 625 L239 625 Z " />
<glyph glyph-name="six" unicode="6" horiz-adv-x="600" d="M632 637 C617 637 542 639 536 639 C211 639 130 304 130 178 C130 59 203 -14 300 -14 C422 -14 532 104 532 230 C532 340 458 396 374 396 C320 396 284 376 264 363 L262 365 C334 520 420 553 540 553 C557 553 576 553 608 552 L632 637 Z M223 215 C258 280 324 310 370 310 C435 310 441 244 441 226 C441 154 386 72 306 72 C296 72 220 74 220 184 C220 200 222 206 223 215 L223 215 Z " />
<glyph glyph-name="seven" unicode="7" horiz-adv-x="600" d="M240 625 L203 453 L291 453 L309 539 L543 539 L233 0 L336 0 L644 552 L659 625 L240 625 Z " />
<glyph glyph-name="eight" unicode="8" horiz-adv-x="600" d="M238 323 C237 322 234 321 234 321 C177 288 122 219 122 143 C122 63 179 -14 297 -14 C440 -14 540 100 540 204 C540 214 540 269 487 316 C591 389 591 474 591 490 C591 563 533 639 425 639 C304 639 194 542 194 431 C194 418 194 365 238 323 L238 323 Z M419 555 C466 555 500 529 500 483 C500 417 431 357 365 357 C307 357 285 401 285 432 C285 497 344 555 419 555 L419 555 Z M359 275 C374 275 449 272 449 197 C449 128 377 70 303 70 C257 70 213 95 213 147 C213 208 272 275 359 275 L359 275 Z " />
<glyph glyph-name="nine" unicode="9" horiz-adv-x="600" d="M80 -12 C95 -12 170 -14 176 -14 C501 -14 582 321 582 447 C582 566 509 639 412 639 C290 639 180 521 180 395 C180 285 254 229 338 229 C392 229 428 249 448 262 L450 260 C378 105 292 72 172 72 C155 72 136 72 104 73 L80 -12 Z M489 410 C454 345 388 315 342 315 C277 315 271 381 271 399 C271 471 326 553 406 553 C416 553 492 551 492 441 C492 425 490 419 489 410 L489 410 Z " />
<glyph glyph-name="colon" unicode="&#x3a;" horiz-adv-x="600" d="M384 416 C330 416 273 374 273 316 C273 271 313 246 353 246 C404 246 464 288 464 347 C464 386 430 416 384 416 L384 416 Z M329 154 C276 154 217 112 217 54 C217 9 257 -16 297 -16 C351 -16 408 27 408 84 C408 132 364 154 329 154 L329 154 Z " />
<glyph glyph-name="semicolon" unicode="&#x3b;" horiz-adv-x="600" d="M278 169 L134 -105 L243 -105 L424 169 L278 169 Z M386 419 C329 419 274 375 274 319 C274 277 310 249 354 249 C408 249 465 292 465 349 C465 390 430 419 386 419 L386 419 Z " />
<glyph glyph-name="less" unicode="&#x3c;" horiz-adv-x="600" d="M581 556 L69 319 L581 75 L616 155 L269 318 L617 477 L581 556 Z " />
<glyph glyph-name="equal" unicode="&#x3d;" horiz-adv-x="600" d="M117 444 L117 356 L612 356 L612 444 L117 444 Z M117 269 L117 181 L612 181 L612 269 L117 269 Z " />
<glyph glyph-name="greater" unicode="&#x3e;" horiz-adv-x="600" d="M133 556 L97 477 L445 318 L97 155 L133 75 L644 319 L133 556 Z " />
<glyph glyph-name="question" unicode="&#x3f;" horiz-adv-x="600" d="M189 420 L277 420 L292 486 C331 500 353 506 393 506 C408 506 483 505 483 440 C483 349 378 324 315 310 C314 309 308 308 304 307 L284 302 L258 179 L346 179 L357 233 C414 249 574 293 574 444 C574 508 533 592 397 592 C336 592 302 581 218 554 L189 420 Z M285 142 C233 142 187 101 187 53 C187 16 217 -16 264 -16 C315 -16 362 25 362 73 C362 111 331 142 285 142 L285 142 Z " />
<glyph glyph-name="at" unicode="&#x40;" horiz-adv-x="600" d="M540 126 C463 89 393 56 299 56 C201 56 143 105 143 214 C143 357 241 526 417 526 C460 526 583 516 583 386 C583 293 522 200 467 200 C449 200 439 212 439 225 C439 236 452 264 458 276 L540 445 L468 445 L458 424 C449 436 438 450 411 450 C309 450 205 303 205 206 C205 154 241 129 272 129 C293 129 330 135 376 175 C390 148 418 132 449 132 C568 132 653 270 653 398 C653 501 584 592 433 592 C186 592 70 370 70 194 C70 134 98 -12 282 -12 C334 -12 427 -4 559 66 L540 126 Z M293 199 C278 199 278 220 278 223 C278 274 348 380 390 380 C401 380 408 368 408 354 C408 305 340 199 293 199 L293 199 Z " />
<glyph glyph-name="A" unicode="A" horiz-adv-x="600" d="M218 583 L200 501 L327 501 L68 82 L12 82 L-6 0 L233 0 L251 82 L163 82 L223 179 L447 179 L464 82 L375 82 L357 0 L596 0 L614 82 L556 82 L458 583 L218 583 Z M432 263 L274 263 L394 453 L432 263 Z " />
<glyph glyph-name="B" unicode="B" horiz-adv-x="600" d="M151 583 L133 501 L214 501 L126 82 L45 82 L27 0 L308 0 C373 0 455 1 517 52 C551 80 589 132 589 197 C589 217 586 271 528 306 C549 320 608 361 608 450 C608 583 461 583 430 583 L151 583 Z M419 501 C444 501 517 501 517 446 C517 440 517 345 370 345 L269 345 L302 501 L419 501 Z M358 261 C469 261 498 232 498 190 C498 160 482 131 459 112 C423 83 362 82 312 82 L214 82 L252 261 L358 261 Z " />
<glyph glyph-name="C" unicode="C" horiz-adv-x="600" d="M608 588 L587 528 C547 593 478 599 445 599 C265 599 103 430 103 221 C103 90 172 -16 342 -16 C470 -16 543 36 597 75 L550 148 C486 104 438 70 346 70 C207 70 194 168 194 218 C194 380 308 513 439 513 C476 513 555 500 555 419 C555 399 552 379 550 358 L629 353 C638 471 668 534 684 569 L608 588 Z " />
<glyph glyph-name="D" unicode="D" horiz-adv-x="600" d="M141 583 L123 501 L200 501 L112 82 L35 82 L17 0 L281 0 C328 0 440 1 522 94 C621 207 629 349 629 378 C629 463 592 522 554 549 C520 573 483 583 397 583 L141 583 Z M391 501 C457 501 480 494 497 479 C510 468 536 436 536 369 C536 325 520 227 456 149 C401 82 326 82 289 82 L201 82 L289 501 L391 501 Z " />
<glyph glyph-name="E" unicode="E" horiz-adv-x="600" d="M164 583 L146 501 L229 501 L140 82 L58 82 L40 0 L548 0 L595 217 L510 217 L477 82 L229 82 L267 264 L383 264 L369 195 L453 195 L501 420 L416 420 L401 350 L285 350 L317 501 L557 501 L538 367 L622 367 L663 583 L164 583 Z " />
<glyph glyph-name="F" unicode="F" horiz-adv-x="600" d="M179 583 L161 501 L239 501 L152 82 L73 82 L55 0 L347 0 L365 82 L239 82 L277 264 L393 264 L378 196 L463 196 L511 421 L426 421 L411 350 L295 350 L327 501 L565 501 L549 367 L631 367 L670 583 L179 583 Z " />
<glyph glyph-name="G" unicode="G" horiz-adv-x="600" d="M363 278 L345 194 L489 194 L469 98 C448 90 397 70 332 70 C233 70 178 118 178 218 C178 370 286 515 421 515 C460 515 537 499 537 403 C537 392 537 382 535 348 L618 362 C623 444 647 517 670 570 L589 587 L569 524 C555 544 517 599 426 599 C234 599 85 406 85 216 C85 77 169 -16 318 -16 C407 -16 476 10 530 30 L544 35 L578 194 L624 194 L642 278 L363 278 Z " />
<glyph glyph-name="H" unicode="H" horiz-adv-x="600" d="M146 583 L128 501 L201 501 L113 82 L40 82 L22 0 L256 0 L274 82 L201 82 L239 259 L462 259 L425 82 L352 82 L334 0 L568 0 L586 82 L513 82 L601 501 L674 501 L692 583 L458 583 L440 501 L513 501 L479 343 L256 343 L289 501 L362 501 L380 583 L146 583 Z " />
<glyph glyph-name="I" unicode="I" horiz-adv-x="600" d="M204 583 L186 501 L356 501 L267 82 L98 82 L80 0 L507 0 L525 82 L356 82 L444 501 L613 501 L631 583 L204 583 Z " />
<glyph glyph-name="J" unicode="J" horiz-adv-x="600" d="M306 583 L288 501 L478 501 L419 221 C401 135 384 70 278 70 C233 70 165 90 165 131 C165 145 167 163 170 175 L190 292 L102 292 L61 52 C142 11 208 -16 282 -16 C353 -16 417 17 456 72 C478 103 491 140 506 213 L567 501 L690 501 L708 583 L306 583 Z " />
<glyph glyph-name="K" unicode="K" horiz-adv-x="600" d="M167 583 L149 501 L231 501 L143 82 L61 82 L43 0 L295 0 L313 82 L231 82 L262 227 L319 270 C382 163 404 114 445 0 L593 0 L611 82 L509 82 L502 99 C458 208 439 251 393 323 L620 501 L671 501 L689 583 L459 583 L442 501 L486 501 L486 499 L288 348 L319 501 L393 501 L413 583 L167 583 Z " />
<glyph glyph-name="L" unicode="L" horiz-adv-x="600" d="M165 583 L147 501 L243 501 L155 82 L59 82 L41 0 L547 0 L619 278 L530 278 L478 82 L243 82 L332 501 L451 501 L469 583 L165 583 Z " />
<glyph glyph-name="M" unicode="M" horiz-adv-x="600" d="M118 583 L100 501 L161 501 L58 82 L5 82 L-13 0 L230 0 L248 82 L145 82 L230 431 L248 431 L291 151 L370 151 L514 420 L532 420 L473 82 L370 82 L353 0 L603 0 L621 82 L562 82 L636 501 L697 501 L715 583 L523 583 L365 290 L353 290 L312 583 L118 583 Z " />
<glyph glyph-name="N" unicode="N" horiz-adv-x="600" d="M130 583 L112 501 L183 501 L95 82 L30 82 L12 0 L261 0 L279 82 L183 82 L257 432 L275 432 L421 -12 L527 -12 L636 501 L696 501 L714 583 L473 583 L455 501 L548 501 L473 146 L455 146 L313 583 L130 583 Z " />
<glyph glyph-name="O" unicode="O" horiz-adv-x="600" d="M80 224 C80 162 102 -16 297 -16 C493 -16 633 184 633 365 C633 446 596 599 415 599 C213 599 80 389 80 224 L80 224 Z M173 227 C173 355 273 515 410 515 C523 515 540 405 540 362 C540 220 435 68 302 68 C185 68 173 184 173 227 L173 227 Z " />
<glyph glyph-name="P" unicode="P" horiz-adv-x="600" d="M198 583 L180 501 L259 501 L171 82 L93 82 L75 0 L382 0 L400 82 L259 82 L285 213 L326 213 C432 213 509 213 572 269 C613 305 648 365 648 425 C648 469 631 514 597 543 C553 581 485 583 433 583 L198 583 Z M427 501 C484 501 557 501 557 424 C557 389 538 353 513 330 C480 300 426 297 333 297 L303 297 L346 501 L427 501 Z " />
<glyph glyph-name="Q" unicode="Q" horiz-adv-x="600" d="M502 -7 C500 -8 493 -12 488 -14 C455 -33 442 -37 423 -37 C406 -37 391 -31 382 -28 C351 -14 348 -12 334 -8 L334 -6 C532 11 633 214 633 366 C633 546 504 599 417 599 C229 599 80 415 80 210 C80 110 138 29 191 8 C159 -22 140 -37 104 -54 L132 -130 C141 -126 184 -103 194 -99 C216 -89 238 -82 268 -82 C287 -82 302 -87 328 -99 C358 -113 379 -123 414 -123 C467 -123 508 -97 544 -74 L502 -7 Z M173 227 C173 355 273 515 410 515 C523 515 540 405 540 362 C540 220 435 68 302 68 C185 68 173 184 173 227 L173 227 Z " />
<glyph glyph-name="R" unicode="R" horiz-adv-x="600" d="M152 583 L134 501 L213 501 L125 82 L46 82 L28 0 L281 0 L301 82 L213 82 L248 249 L332 249 C371 169 406 86 429 0 L582 0 L600 82 L503 82 C482 143 465 180 429 256 C460 265 483 273 510 291 C558 324 597 382 597 448 C597 583 479 583 414 583 L152 583 Z M408 501 C469 501 508 501 508 446 C508 408 484 377 460 359 C424 332 372 333 333 333 L265 333 L301 501 L408 501 Z " />
<glyph glyph-name="S" unicode="S" horiz-adv-x="600" d="M569 606 L540 542 C506 586 454 602 401 602 C255 602 168 503 168 412 C168 365 192 316 229 288 C255 269 291 256 347 251 C413 246 465 242 465 185 C465 132 414 75 311 75 C271 75 203 85 183 135 C177 150 178 155 178 204 L101 204 C90 112 83 84 49 -5 L131 -18 L151 48 C186 13 219 -14 310 -14 C497 -14 556 112 556 188 C556 255 520 291 484 312 C444 334 404 337 366 339 C325 342 259 346 259 413 C259 468 317 516 405 516 C448 516 510 504 510 432 C510 412 507 397 504 383 L580 371 C597 466 602 495 645 583 L569 606 Z " />
<glyph glyph-name="T" unicode="T" horiz-adv-x="600" d="M172 583 L103 341 L191 341 L236 501 L361 501 L273 82 L157 82 L139 0 L461 0 L479 82 L361 82 L448 501 L574 501 L552 341 L639 341 L673 583 L172 583 Z " />
<glyph glyph-name="U" unicode="U" horiz-adv-x="600" d="M138 583 L120 501 L191 501 L138 252 C125 188 123 160 123 140 C123 33 209 -16 302 -16 C356 -16 423 -1 477 43 C518 76 541 119 565 229 L622 501 L691 501 L708 583 L456 583 L438 501 L536 501 L482 242 C464 156 447 72 308 72 C295 72 211 72 211 145 C211 177 220 223 224 242 L279 501 L377 501 L395 583 L138 583 Z " />
<glyph glyph-name="V" unicode="V" horiz-adv-x="600" d="M116 583 L98 501 L172 501 L255 0 L344 0 L641 501 L705 501 L723 583 L477 583 L459 501 L547 501 L323 125 L260 501 L344 501 L363 583 L116 583 Z " />
<glyph glyph-name="W" unicode="W" horiz-adv-x="600" d="M112 583 L94 501 L143 501 L104 0 L185 0 L361 311 L363 311 L406 0 L485 0 L662 501 L709 501 L727 583 L498 583 L480 501 L575 501 L469 195 L467 195 L429 471 L368 471 L207 199 L205 201 L228 501 L324 501 L342 583 L112 583 Z " />
<glyph glyph-name="X" unicode="X" horiz-adv-x="600" d="M159 583 L141 501 L206 501 L307 309 L90 82 L34 82 L16 0 L263 0 L281 82 L201 82 L348 236 L427 82 L355 82 L337 0 L573 0 L591 82 L528 82 L411 302 L604 501 L660 501 L678 583 L461 583 L443 501 L493 501 L373 371 L307 501 L368 501 L387 583 L159 583 Z " />
<glyph glyph-name="Y" unicode="Y" horiz-adv-x="600" d="M138 583 L121 501 L194 501 L300 229 L270 82 L154 82 L138 0 L452 0 L471 82 L357 82 L386 220 L613 501 L680 501 L698 583 L471 583 L452 501 L509 501 L361 317 L290 501 L351 501 L369 583 L138 583 Z " />
<glyph glyph-name="Z" unicode="Z" horiz-adv-x="600" d="M196 583 L148 358 L234 358 L264 501 L482 501 L81 74 L66 0 L523 0 L574 241 L489 241 L456 82 L204 82 L610 513 L625 583 L196 583 Z " />
<glyph glyph-name="bracketleft" unicode="&#x5b;" horiz-adv-x="600" d="M426 672 L264 -91 L474 -91 L492 -4 L371 -4 L496 585 L617 585 L636 672 L426 672 Z " />
<glyph glyph-name="backslash" unicode="&#x5c;" horiz-adv-x="600" d="M298 735 L216 702 L419 -134 L501 -100 L298 735 Z " />
<glyph glyph-name="bracketright" unicode="&#x5d;" horiz-adv-x="600" d="M285 -91 L447 672 L237 672 L219 585 L340 585 L215 -4 L94 -4 L75 -91 L285 -91 Z " />
<glyph glyph-name="asciicircum" unicode="&#x5e;" horiz-adv-x="600" d="M602 153 L429 583 L295 583 L128 153 L235 153 L362 481 L495 153 L602 153 Z " />
<glyph glyph-name="underscore" unicode="&#x5f;" horiz-adv-x="600" d="M-48 -75 L-48 -125 L648 -125 L648 -75 L-48 -75 Z " />
<glyph glyph-name="grave" unicode="&#x60;" horiz-adv-x="600" d="M264 638 L414 544 L498 544 L412 642 L264 642 L264 638 Z " />
<glyph glyph-name="a" unicode="a" horiz-adv-x="600" d="M535 301 C536 307 542 334 542 354 C542 433 471 474 384 474 C303 474 235 449 188 432 C187 432 184 431 181 429 C174 427 173 426 166 424 L184 341 C194 345 196 345 213 352 C262 371 321 388 373 388 C399 388 451 382 451 345 C451 342 450 335 449 327 C447 314 447 313 447 298 C408 303 376 307 332 307 C148 307 70 199 70 119 C70 47 128 -14 218 -14 C290 -14 350 16 390 36 L382 0 L557 0 L575 82 L489 82 L535 301 Z M413 146 C377 119 285 72 223 72 C196 72 161 90 161 123 C161 150 188 223 331 223 C370 223 398 219 428 215 L413 146 Z " />
<glyph glyph-name="b" unicode="b" horiz-adv-x="600" d="M124 638 L111 552 L197 556 L97 82 L19 82 L1 0 L165 0 L176 48 C192 31 240 -9 320 -9 C466 -9 601 126 601 266 C601 389 506 458 404 458 C349 458 297 438 252 408 L303 648 L124 638 Z M403 372 C453 372 508 337 508 262 C508 170 423 77 326 77 C261 77 209 118 209 188 C209 275 294 372 403 372 L403 372 Z " />
<glyph glyph-name="c" unicode="c" horiz-adv-x="600" d="M548 473 L528 418 C514 433 479 469 394 469 C231 469 97 331 97 182 C97 43 205 -14 300 -14 C407 -14 494 40 557 79 L520 154 C443 106 377 72 309 72 C287 72 189 80 189 186 C189 279 266 383 397 383 C418 383 501 382 501 314 C501 304 501 298 499 261 L579 272 C582 350 590 393 618 459 L548 473 Z " />
<glyph glyph-name="d" unicode="d" horiz-adv-x="600" d="M398 626 L370 539 L534 551 L503 402 C462 439 418 457 362 457 C220 457 82 328 82 180 C82 85 150 -10 276 -10 C343 -10 395 17 425 38 L417 0 L586 0 L604 82 L523 82 L642 648 L398 626 Z M467 257 C467 178 389 76 278 76 C235 76 175 106 175 186 C175 283 259 371 360 371 C410 371 467 341 467 257 L467 257 Z " />
<glyph glyph-name="e" unicode="e" horiz-adv-x="600" d="M545 139 C463 103 393 74 319 74 C193 74 191 157 190 196 L582 196 L588 215 C597 243 602 264 602 290 C602 381 538 469 398 469 C225 469 99 324 99 178 C99 61 180 -14 314 -14 C411 -14 517 32 570 58 L545 139 Z M216 278 C232 304 282 383 392 383 C509 383 510 301 511 278 L216 278 Z " />
<glyph glyph-name="f" unicode="f" horiz-adv-x="600" d="M172 443 L154 359 L255 359 L198 82 L96 82 L78 0 L444 0 L462 82 L286 82 L344 359 L523 359 L541 443 L362 443 L368 471 C380 525 385 559 462 559 C503 559 562 548 604 540 L648 625 C563 643 486 643 481 643 C328 643 299 562 282 484 L273 443 L172 443 Z " />
<glyph glyph-name="g" unicode="g" horiz-adv-x="600" d="M488 453 L478 409 C458 426 419 459 352 459 C204 459 76 329 76 193 C76 91 151 11 263 11 C337 11 384 42 403 54 L395 23 C373 -62 281 -63 241 -63 C201 -63 177 -59 151 -54 L132 -141 C159 -145 194 -149 238 -149 C446 -149 475 -18 488 43 L558 371 L637 371 L655 453 L488 453 Z M269 97 C213 97 169 138 169 200 C169 287 253 373 347 373 C403 373 445 329 445 274 C445 185 369 97 269 97 L269 97 Z " />
<glyph glyph-name="h" unicode="h" horiz-adv-x="600" d="M140 634 L130 549 L220 555 L119 82 L37 82 L21 0 L269 0 L287 82 L207 82 L255 307 C280 325 357 380 422 380 C447 380 479 364 479 336 C479 319 473 293 471 287 L428 82 L344 82 L328 0 L579 0 L598 82 L517 82 L558 280 C559 285 565 312 565 335 C565 415 498 468 424 468 C360 468 301 433 279 420 L328 648 L140 634 Z " />
<glyph glyph-name="i" unicode="i" horiz-adv-x="600" d="M209 453 L191 371 L334 371 L273 82 L103 82 L85 0 L510 0 L528 82 L361 82 L440 453 L209 453 Z M352 540 L459 540 L486 672 L380 672 L352 540 Z " />
<glyph glyph-name="j" unicode="j" horiz-adv-x="600" d="M166 453 L148 371 L392 371 L331 65 C320 11 304 -60 192 -60 C143 -60 96 -49 61 -41 L22 -124 C63 -134 115 -146 175 -146 C373 -146 406 6 417 57 L501 453 L166 453 Z M392 540 L499 540 L527 672 L420 672 L392 540 Z " />
<glyph glyph-name="k" unicode="k" horiz-adv-x="600" d="M121 633 L111 547 L201 555 L101 82 L21 82 L3 0 L171 0 L210 183 L254 212 C296 163 314 139 355 82 L314 82 L296 0 L536 0 L554 82 L459 82 C422 143 394 179 329 260 L503 371 L579 371 L597 453 L348 453 L329 371 L362 371 L362 369 L233 295 L309 648 L121 633 Z " />
<glyph glyph-name="l" unicode="l" horiz-adv-x="600" d="M217 615 L208 530 L366 541 L269 82 L100 82 L82 0 L506 0 L524 82 L355 82 L471 631 L217 615 Z " />
<glyph glyph-name="m" unicode="m" horiz-adv-x="600" d="M91 453 L72 371 L131 371 L72 82 L13 82 L-5 0 L207 0 L226 82 L156 82 L207 326 C224 342 260 379 297 379 C321 379 327 354 327 344 C327 329 321 304 318 288 L257 0 L403 0 L421 82 L361 82 L412 326 C424 338 462 379 500 379 C525 379 531 360 531 350 C531 331 521 288 521 284 L460 0 L594 0 L612 82 L565 82 L607 281 C609 291 619 335 619 365 C619 420 576 465 513 465 C460 465 418 432 398 417 C389 433 372 465 319 465 C281 465 255 447 226 425 L232 453 L91 453 Z " />
<glyph glyph-name="n" unicode="n" horiz-adv-x="600" d="M113 453 L95 371 L175 371 L113 82 L34 82 L16 0 L266 0 L283 82 L203 82 L251 309 C341 372 385 380 416 380 C447 380 475 362 475 335 C475 320 469 292 468 287 L425 82 L340 82 L324 0 L576 0 L594 82 L513 82 L554 280 C556 285 561 313 561 335 C561 420 490 468 422 468 C379 468 332 453 274 420 L283 453 L113 453 Z " />
<glyph glyph-name="o" unicode="o" horiz-adv-x="600" d="M391 474 C194 474 79 319 79 183 C79 52 175 -14 296 -14 C491 -14 607 142 607 277 C607 402 517 474 391 474 L391 474 Z M384 388 C477 388 514 331 514 271 C514 181 434 72 303 72 C209 72 172 126 172 188 C172 278 248 388 384 388 L384 388 Z " />
<glyph glyph-name="p" unicode="p" horiz-adv-x="600" d="M100 453 L82 371 L161 371 L68 -70 L-11 -70 L-29 -152 L283 -152 L300 -70 L156 -70 L181 51 C202 31 241 -7 328 -7 C494 -7 607 152 607 276 C607 364 550 467 412 467 C342 467 295 441 260 419 L267 453 L100 453 Z M409 381 C479 381 516 334 516 272 C516 175 426 79 327 79 C273 79 211 120 211 191 C211 289 299 381 409 381 L409 381 Z " />
<glyph glyph-name="q" unicode="q" horiz-adv-x="600" d="M515 453 L505 408 C450 465 379 465 363 465 C214 465 78 328 78 185 C78 86 148 -8 274 -8 C354 -8 407 28 427 42 L405 -66 L261 -66 L243 -148 L554 -148 L572 -66 L492 -66 L584 371 L664 371 L682 453 L515 453 Z M275 78 C209 78 169 130 169 193 C169 276 253 379 355 379 C417 379 473 340 473 267 C473 161 376 78 275 78 L275 78 Z " />
<glyph glyph-name="r" unicode="r" horiz-adv-x="600" d="M162 453 L144 371 L257 371 L196 82 L75 82 L57 0 L449 0 L467 82 L283 82 L319 252 C351 289 429 378 502 378 C543 378 549 343 553 319 L645 331 C641 354 624 464 509 464 C471 464 412 454 352 397 L350 399 L362 453 L162 453 Z " />
<glyph glyph-name="s" unicode="s" horiz-adv-x="600" d="M520 476 L502 425 C458 469 376 469 368 469 C251 469 154 398 154 309 C154 197 285 189 353 186 C358 185 382 184 386 184 C459 180 459 167 459 154 C459 102 385 75 315 75 C307 75 214 75 200 126 C197 137 197 141 197 174 L117 169 C113 104 106 63 81 -4 L159 -15 L175 36 C216 2 268 -11 320 -11 C440 -11 550 60 550 157 C550 263 437 268 355 273 C272 278 245 288 245 316 C245 347 292 383 368 383 C396 383 436 377 454 367 C474 356 477 343 477 321 C477 311 477 306 475 298 L553 298 C555 338 560 378 590 466 L520 476 Z " />
<glyph glyph-name="t" unicode="t" horiz-adv-x="600" d="M276 583 L246 441 L180 441 L162 357 L229 357 L195 198 C182 137 179 120 179 101 C179 47 228 -14 326 -14 C385 -14 458 5 557 47 L557 138 C419 84 379 72 328 72 C318 72 267 73 267 115 C267 132 274 164 279 189 L316 357 L531 357 L548 441 L334 441 L363 583 L276 583 Z " />
<glyph glyph-name="u" unicode="u" horiz-adv-x="600" d="M113 453 L96 371 L174 371 L134 183 C133 178 127 149 127 127 C127 85 150 -14 267 -14 C338 -14 382 16 404 30 L396 0 L562 0 L580 82 L502 82 L580 453 L410 453 L392 371 L474 371 L427 149 C376 100 319 72 269 72 C225 72 215 111 215 126 C215 144 220 169 221 175 L281 453 L113 453 Z " />
<glyph glyph-name="v" unicode="v" horiz-adv-x="600" d="M102 453 L84 371 L166 371 L261 0 L334 0 L587 371 L663 371 L681 453 L445 453 L427 371 L489 371 L322 123 L261 371 L330 371 L348 453 L102 453 Z " />
<glyph glyph-name="w" unicode="w" horiz-adv-x="600" d="M84 453 L66 371 L113 371 L144 0 L220 0 L341 211 L343 211 L374 0 L454 0 L640 371 L681 371 L699 453 L495 453 L477 371 L549 371 L442 157 L440 157 L408 371 L346 371 L221 161 L219 161 L203 371 L278 371 L296 453 L84 453 Z " />
<glyph glyph-name="x" unicode="x" horiz-adv-x="600" d="M121 453 L103 371 L180 371 L283 240 L95 82 L28 82 L10 0 L247 0 L265 82 L222 82 L334 178 L406 82 L361 82 L343 0 L580 0 L598 82 L521 82 L402 233 L571 371 L634 371 L652 453 L428 453 L410 371 L446 371 L446 369 L352 296 L294 371 L330 371 L348 453 L121 453 Z " />
<glyph glyph-name="y" unicode="y" horiz-adv-x="600" d="M421 453 L403 371 L481 371 L442 188 C356 105 315 101 293 101 C256 101 220 120 220 177 C220 182 221 194 224 210 L258 371 L333 371 L351 453 L112 453 L95 371 L169 371 L137 222 C136 214 132 194 132 176 C132 74 196 15 283 15 C349 15 392 45 415 60 C399 -5 384 -71 257 -71 C210 -71 174 -61 147 -54 L127 -145 C157 -150 197 -157 245 -157 C457 -157 485 -24 502 55 L569 371 L649 371 L667 453 L421 453 Z " />
<glyph glyph-name="z" unicode="z" horiz-adv-x="600" d="M191 453 L155 284 L240 284 L260 371 L444 371 L100 75 L84 0 L504 0 L541 174 L454 174 L435 82 L240 82 L586 382 L601 453 L191 453 Z " />
<glyph glyph-name="braceleft" unicode="&#x7b;" horiz-adv-x="600" d="M613 669 L567 669 C476 669 424 623 400 577 C379 537 379 510 379 437 C379 362 371 341 282 331 L264 247 C308 242 339 239 339 216 C339 199 318 151 316 145 C290 87 279 60 279 22 C279 -96 395 -93 451 -92 L468 -6 C455 -6 453 -6 436 -5 C376 -5 368 8 368 27 C368 49 399 120 412 150 C424 179 430 196 430 225 C430 230 430 246 424 254 C421 257 402 283 404 285 C468 336 469 366 469 451 C469 567 484 580 595 582 L613 669 Z " />
<glyph glyph-name="bar" unicode="&#x7c;" horiz-adv-x="600" d="M414 673 L315 673 L315 -184 L414 -184 L414 673 Z " />
<glyph glyph-name="braceright" unicode="&#x7d;" horiz-adv-x="600" d="M447 330 C402 335 372 338 372 362 C372 379 393 428 396 432 C422 493 432 518 432 555 C432 672 319 670 261 669 L243 583 C257 583 286 582 287 582 C310 582 343 578 343 549 C343 530 334 507 314 461 L299 426 C287 398 282 381 282 351 C282 347 282 331 288 323 C291 319 309 294 307 292 C243 244 244 204 243 126 C242 18 234 -5 117 -5 L99 -92 L146 -92 C241 -92 289 -43 311 0 C332 40 332 68 332 140 C332 195 332 235 410 244 C412 244 426 246 429 246 L447 330 Z " />
<glyph glyph-name="asciitilde" unicode="&#x7e;" horiz-adv-x="600" d="M537 412 C510 368 493 340 464 340 C449 340 434 348 394 366 C323 397 301 397 288 397 C217 397 181 335 156 291 L152 285 L212 216 L218 229 C242 272 259 295 288 295 C302 295 342 279 369 268 C422 246 437 238 464 238 C531 238 567 297 592 339 L596 345 L537 412 Z " />
<glyph glyph-name="exclamdown" unicode="&#xa1;" horiz-adv-x="600" d="M353 -133 L419 271 L336 271 L231 -133 L353 -133 Z M393 317 C446 317 491 359 491 405 C491 445 459 474 415 474 C361 474 316 432 316 386 C316 347 347 317 393 317 L393 317 Z " />
<glyph glyph-name="cent" unicode="&#xa2;" horiz-adv-x="600" d="M401 631 L373 497 C256 481 155 374 155 253 C155 149 231 96 286 90 L255 -54 L326 -54 L355 82 C444 93 517 141 550 163 L521 240 C494 222 448 191 373 175 L425 414 C481 403 496 387 490 318 L565 337 C567 401 575 423 605 497 L526 517 L507 460 C482 484 467 491 443 497 L471 631 L401 631 Z M304 173 C284 179 240 191 240 258 C240 308 273 386 355 408 L304 173 Z " />
<glyph glyph-name="sterling" unicode="&#xa3;" horiz-adv-x="600" d="M155 381 L136 297 L244 297 C246 216 208 130 113 55 L155 -20 C220 15 242 26 278 26 C299 26 307 24 346 7 C354 4 384 -6 413 -6 C493 -6 529 42 555 76 L490 135 C470 105 453 80 415 80 C402 80 393 82 369 92 C321 111 299 112 272 110 C314 175 334 237 332 297 L521 297 L540 381 L322 381 C321 394 320 410 320 425 C320 464 326 550 431 550 C507 550 509 510 512 453 L593 453 C593 475 592 489 592 511 C592 553 595 566 606 626 L530 635 C528 629 526 626 521 613 C499 625 478 636 431 636 C315 636 232 556 232 425 C232 410 234 387 234 381 L155 381 Z " />
<glyph glyph-name="currency" unicode="&#xa4;" horiz-adv-x="600" d="M527 193 C546 217 555 247 557 287 C559 322 551 362 528 395 L610 475 L548 535 L467 456 L446 467 C419 481 388 485 358 485 C319 485 289 470 284 467 L262 456 L181 535 L119 475 L202 394 L189 371 C176 345 173 316 173 287 C173 251 186 223 189 217 L202 193 L119 112 L181 52 L262 132 C289 117 315 102 365 102 C414 102 441 117 467 132 L548 52 L610 112 L527 193 Z M472 294 C472 238 430 187 365 187 C299 187 258 238 258 294 C258 343 293 400 365 400 C433 400 472 347 472 294 L472 294 Z " />
<glyph glyph-name="yen" unicode="&#xa5;" horiz-adv-x="600" d="M374 138 L510 138 L528 202 L385 202 L398 250 L533 250 L550 314 L416 314 L622 530 L689 530 L707 612 L478 612 L460 530 L528 530 L385 366 L301 530 L360 530 L379 612 L150 612 L132 530 L202 530 L321 314 L183 314 L166 250 L311 250 L301 202 L160 202 L143 138 L288 138 L273 82 L160 82 L143 0 L460 0 L478 82 L360 82 L374 138 Z " />
<glyph glyph-name="brokenbar" unicode="&#xa6;" horiz-adv-x="600" d="M414 673 L315 673 L315 298 L414 298 L414 673 Z M414 191 L315 191 L315 -184 L414 -184 L414 191 Z " />
<glyph glyph-name="section" unicode="&#xa7;" horiz-adv-x="600" d="M607 583 L426 583 C290 583 260 485 260 445 C260 429 262 419 265 408 C199 379 171 332 171 290 C171 240 199 212 231 183 L339 82 C347 75 360 61 360 47 C360 15 325 0 287 0 L204 0 L224 91 L135 91 L97 -88 L275 -88 C414 -88 451 6 451 49 C451 60 448 75 447 82 C468 90 546 118 546 204 C546 251 518 280 481 313 L368 416 C365 419 351 433 351 449 C351 495 397 495 417 495 L499 495 L481 413 L571 413 L607 583 Z M416 250 C444 224 455 211 455 199 C455 194 452 164 394 154 L290 250 C269 269 262 280 262 293 C262 325 304 335 320 339 L416 250 Z " />
<glyph glyph-name="dieresis" unicode="&#xa8;" horiz-adv-x="600" d="M284 533 L381 533 L407 648 L310 648 L284 533 Z M432 533 L529 533 L555 648 L458 648 L432 533 Z " />
<glyph glyph-name="copyright" unicode="&#xa9;" horiz-adv-x="600" d="M520 439 C481 456 435 464 406 464 C284 464 205 362 205 263 C205 198 239 138 333 138 C398 138 456 169 486 223 L451 238 C431 209 401 186 364 186 C307 186 291 233 291 269 C291 347 338 419 407 419 C443 419 458 397 458 363 C458 357 457 347 456 344 L500 344 L520 439 Z M361 599 C202 599 68 470 68 306 C68 145 199 13 361 13 C524 13 655 146 655 306 C655 470 521 599 361 599 L361 599 Z M361 541 C490 541 597 437 597 306 C597 176 490 71 361 71 C233 71 126 176 126 306 C126 437 233 541 361 541 L361 541 Z " />
<glyph glyph-name="ordfeminine" unicode="&#xaa;" horiz-adv-x="600" d="M311 520 C357 539 383 546 409 546 C434 546 448 538 448 523 L447 510 C423 513 412 514 394 514 C314 514 256 471 252 409 C256 364 284 340 329 340 C358 340 386 348 416 366 L412 347 L511 347 L522 400 L478 400 L501 509 L504 537 C504 576 472 600 421 600 C402 600 377 596 354 589 C341 586 329 581 300 570 L311 520 Z M431 437 C395 407 369 395 342 395 C325 395 312 404 310 420 C312 445 342 460 387 460 C401 460 412 460 435 457 L431 437 Z M217 305 L206 251 L501 251 L513 305 L217 305 Z " />
<glyph glyph-name="guillemotleft" unicode="&#xab;" horiz-adv-x="600" d="M585 440 L290 240 L505 38 L568 107 L414 240 L625 371 L585 440 Z M401 463 L96 240 L306 18 L375 82 L219 240 L446 397 L401 463 Z " />
<glyph glyph-name="logicalnot" unicode="&#xac;" horiz-adv-x="600" d="M142 462 L142 374 L508 374 L508 163 L596 163 L596 462 L142 462 Z " />
<glyph glyph-name="registered" unicode="&#xae;" horiz-adv-x="600" d="M271 474 L263 438 C294 438 297 438 294 422 L249 211 C245 193 242 193 210 193 L203 159 L348 159 L353 193 C325 193 322 193 322 200 C322 201 322 206 323 211 L341 293 C363 293 366 293 370 290 C374 287 378 284 389 230 C402 167 408 159 458 159 L497 159 L504 193 C487 193 485 193 481 196 C477 199 475 201 464 246 C453 289 448 297 434 309 C496 327 513 382 513 405 C513 474 442 474 409 474 L271 474 Z M370 434 C377 436 384 436 398 436 C428 436 438 423 438 402 C438 332 379 331 348 331 L370 434 Z M361 599 C202 599 68 470 68 306 C68 145 199 13 361 13 C524 13 655 146 655 306 C655 470 521 599 361 599 L361 599 Z M361 541 C490 541 597 437 597 306 C597 176 490 71 361 71 C233 71 126 176 126 306 C126 437 233 541 361 541 L361 541 Z " />
<glyph glyph-name="macron" unicode="&#xaf;" horiz-adv-x="600" d="M255 635 L237 550 L579 550 L598 635 L255 635 Z " />
<glyph glyph-name="degree" unicode="&#xb0;" horiz-adv-x="600" d="M208 483 C208 395 278 326 364 326 C451 326 521 396 521 483 C521 569 451 639 364 639 C278 639 208 570 208 483 L208 483 Z M289 483 C289 524 321 558 364 558 C407 558 440 524 440 483 C440 441 407 407 364 407 C322 407 289 441 289 483 L289 483 Z " />
<glyph glyph-name="plusminus" unicode="&#xb1;" horiz-adv-x="600" d="M319 601 L319 413 L117 413 L117 325 L319 325 L319 137 L407 137 L407 325 L609 325 L609 413 L407 413 L407 601 L319 601 Z M117 111 L117 23 L609 23 L609 111 L117 111 Z " />
<glyph glyph-name="twosuperior" unicode="&#xb2;" horiz-adv-x="600" d="M384 367 L372 310 L260 310 L260 312 L325 358 C362 384 392 409 414 427 C428 439 441 454 453 471 C467 492 472 510 475 544 C473 600 432 639 374 639 C326 639 281 619 238 579 L226 522 L285 522 C289 542 292 550 299 558 C313 572 336 583 359 583 C389 583 413 560 413 533 C413 523 410 510 405 499 C396 480 385 469 333 428 C293 397 222 344 183 316 L169 306 L158 254 L415 254 L439 367 L384 367 Z " />
<glyph glyph-name="threesuperior" unicode="&#xb3;" horiz-adv-x="600" d="M252 544 L278 558 C312 576 329 583 350 583 C376 583 395 567 395 546 C395 529 387 512 373 500 C355 485 343 483 296 482 L284 425 L317 426 C356 427 378 410 378 382 C378 338 340 302 292 302 C264 302 239 310 194 334 L160 281 L185 270 C227 252 248 246 279 246 C364 246 439 313 439 390 C439 418 428 443 406 460 C441 490 453 513 456 558 C454 607 417 639 363 639 C325 639 299 629 232 591 L252 544 Z " />
<glyph glyph-name="acute" unicode="&#xb4;" horiz-adv-x="600" d="M582 638 L582 642 L442 642 L319 544 L408 544 L582 638 Z " />
<glyph glyph-name="mu" unicode="&#xb5;" horiz-adv-x="600" d="M115 453 L98 375 L178 375 L68 -142 L156 -142 L192 28 C217 -2 253 -14 298 -14 C359 -14 387 11 403 28 L405 26 L399 0 L566 0 L584 82 L504 82 L584 453 L416 453 L399 375 L479 375 L444 213 C438 183 414 72 299 72 C246 72 219 110 219 137 C219 156 227 193 229 202 L283 453 L115 453 Z " />
<glyph glyph-name="micro" unicode="&#xb5;" horiz-adv-x="600" d="M120 453 L103 371 L184 371 L72 -153 L155 -153 L198 48 L200 48 C209 25 225 -15 301 -15 C374 -15 408 30 419 48 L421 46 L409 0 L573 0 L590 82 L510 82 L590 453 L426 453 L409 371 L489 371 L454 207 C435 119 380 67 309 67 C262 67 222 102 222 143 C222 163 230 201 231 207 L284 453 L120 453 Z " />
<glyph glyph-name="paragraph" unicode="&#xb6;" horiz-adv-x="600" d="M567 533 L621 533 L631 583 L375 583 C308 583 238 583 185 535 C149 503 120 450 120 391 C120 299 183 262 290 268 L225 -29 L159 -29 L149 -79 L290 -79 L421 533 L490 533 L360 -79 L490 -79 L501 -29 L447 -29 L567 533 Z M298 313 C275 315 258 319 258 355 C258 365 260 376 262 383 L278 461 C282 481 293 531 345 533 L298 313 Z " />
<glyph glyph-name="periodcentered" unicode="&#xb7;" horiz-adv-x="600" d="M382 398 C328 398 270 355 270 298 C270 253 309 228 350 228 C405 228 461 272 461 328 C461 373 420 398 382 398 L382 398 Z " />
<glyph glyph-name="cedilla" unicode="&#xb8;" horiz-adv-x="600" d="M346 7 L272 7 L245 -77 C247 -78 260 -79 261 -79 C263 -79 277 -81 280 -81 C287 -82 312 -86 312 -93 C312 -94 312 -100 289 -100 C265 -100 226 -93 183 -82 L158 -150 C159 -151 167 -153 168 -153 C184 -157 234 -170 285 -170 C374 -170 397 -112 397 -83 C397 -46 370 -27 338 -18 L346 7 Z " />
<glyph glyph-name="onesuperior" unicode="&#xb9;" horiz-adv-x="600" d="M235 581 L248 530 L342 568 L288 310 L186 310 L174 254 L435 254 L447 310 L346 310 L416 639 L380 639 L235 581 Z " />
<glyph glyph-name="ordmasculine" unicode="&#xba;" horiz-adv-x="600" d="M428 600 C365 594 335 581 303 546 C274 515 262 487 260 443 C261 411 266 394 281 376 C300 353 333 340 372 340 C420 340 466 359 497 393 C526 424 538 453 541 498 C539 529 534 545 519 563 C500 587 477 596 428 600 L428 600 Z M417 546 C462 543 481 526 483 487 C479 431 439 394 383 394 C342 394 319 414 318 453 C320 479 326 496 342 514 C361 535 379 543 417 546 L417 546 Z M217 305 L206 251 L501 251 L512 305 L217 305 Z " />
<glyph glyph-name="guillemotright" unicode="&#xbb;" horiz-adv-x="600" d="M192 440 L127 371 L282 240 L72 110 L108 38 L406 240 L192 440 Z M387 463 L317 400 L477 240 L254 82 L298 18 L599 240 L387 463 Z " />
<glyph glyph-name="onequarter" unicode="&#xbc;" horiz-adv-x="600" d="M619 304 L554 304 L353 59 L341 4 L496 4 L490 -24 L412 -24 L400 -79 L589 -79 L601 -24 L548 -24 L554 4 L607 4 L619 61 L567 61 L619 304 Z M508 61 L426 61 L536 198 L538 196 L508 61 Z M124 592 L137 538 L214 569 L160 316 L79 316 L67 259 L286 259 L298 316 L219 316 L289 643 L249 643 L124 592 Z M703 657 L31 -58 L69 -94 L743 624 L703 657 Z " />
<glyph glyph-name="onehalf" unicode="&#xbd;" horiz-adv-x="600" d="M124 592 L137 538 L214 569 L160 316 L79 316 L67 259 L286 259 L298 316 L219 316 L289 643 L249 643 L124 592 Z M696 657 L24 -58 L63 -94 L737 624 L696 657 Z M552 33 L540 -21 L437 -21 L437 -19 C477 6 496 19 513 32 C550 60 583 90 600 107 C630 138 644 170 644 206 C644 261 598 304 540 304 C493 304 450 285 410 247 L397 186 L457 186 L458 192 L459 198 C464 225 495 246 530 246 C561 246 583 228 583 202 C583 175 567 150 535 123 C511 103 483 81 449 56 L380 4 L348 -19 L339 -25 L328 -79 L584 -79 L608 33 L552 33 Z " />
<glyph glyph-name="threequarters" unicode="&#xbe;" horiz-adv-x="600" d="M608 304 L543 304 L342 59 L330 4 L485 4 L479 -24 L401 -24 L389 -79 L578 -79 L590 -24 L538 -24 L544 4 L596 4 L608 61 L556 61 L608 304 Z M498 61 L415 61 L525 198 L527 196 L498 61 Z M123 549 L149 563 C183 581 200 588 221 588 C247 588 266 572 266 551 C266 534 258 517 244 505 C226 490 214 488 167 487 L155 430 L188 431 C227 432 249 415 249 387 C249 343 211 307 163 307 C135 307 110 315 65 339 L31 286 L56 275 C98 257 119 251 150 251 C235 251 310 318 310 395 C310 423 299 448 277 465 C312 495 324 518 327 563 C325 612 288 644 234 644 C196 644 170 634 103 596 L123 549 Z M692 657 L20 -58 L59 -94 L733 624 L692 657 Z " />
<glyph glyph-name="questiondown" unicode="&#xbf;" horiz-adv-x="600" d="M503 38 L415 38 L401 -28 C362 -41 341 -47 301 -47 C287 -47 211 -47 211 19 C211 110 317 135 378 149 L409 156 L434 279 L347 279 L336 225 C297 215 120 171 120 15 C120 -46 157 -133 296 -133 C358 -133 395 -121 475 -96 L503 38 Z M407 316 C461 316 506 359 506 405 C506 444 474 474 429 474 C377 474 331 433 331 386 C331 347 362 316 407 316 L407 316 Z " />
<glyph glyph-name="Agrave" unicode="&#xc0;" horiz-adv-x="600" d="M218 583 L200 501 L327 501 L68 82 L12 82 L-6 0 L233 0 L251 82 L163 82 L223 179 L447 179 L464 82 L375 82 L357 0 L596 0 L614 82 L556 82 L458 583 L218 583 Z M432 263 L274 263 L394 453 L432 263 Z M294 768 L444 674 L528 674 L442 772 L294 772 L294 768 Z " />
<glyph glyph-name="Aacute" unicode="&#xc1;" horiz-adv-x="600" d="M218 583 L200 501 L327 501 L68 82 L12 82 L-6 0 L233 0 L251 82 L163 82 L223 179 L447 179 L464 82 L375 82 L357 0 L596 0 L614 82 L556 82 L458 583 L218 583 Z M432 263 L274 263 L394 453 L432 263 Z M612 768 L612 772 L472 772 L349 674 L438 674 L612 768 Z " />
<glyph glyph-name="Acircumflex" unicode="&#xc2;" horiz-adv-x="600" d="M218 583 L200 501 L327 501 L68 82 L12 82 L-6 0 L233 0 L251 82 L163 82 L223 179 L447 179 L464 82 L375 82 L357 0 L596 0 L614 82 L556 82 L458 583 L218 583 Z M432 263 L274 263 L394 453 L432 263 Z M372 782 L261 698 L310 665 L402 713 L480 665 L536 696 L458 782 L372 782 Z " />
<glyph glyph-name="Atilde" unicode="&#xc3;" horiz-adv-x="600" d="M218 583 L200 501 L327 501 L68 82 L12 82 L-6 0 L233 0 L251 82 L163 82 L223 179 L447 179 L464 82 L375 82 L357 0 L596 0 L614 82 L556 82 L458 583 L218 583 Z M432 263 L274 263 L394 453 L432 263 Z M566 789 C566 788 563 784 563 783 C551 763 533 734 509 734 C497 734 486 741 470 755 C452 770 432 787 395 787 C322 787 284 722 262 684 L328 660 C328 661 331 664 332 666 C348 691 362 714 385 714 C391 714 396 713 421 692 C454 664 477 661 494 661 C577 661 614 733 633 768 L566 789 Z " />
<glyph glyph-name="Adieresis" unicode="&#xc4;" horiz-adv-x="600" d="M218 583 L200 501 L327 501 L68 82 L12 82 L-6 0 L233 0 L251 82 L163 82 L223 179 L447 179 L464 82 L375 82 L357 0 L596 0 L614 82 L556 82 L458 583 L218 583 Z M432 263 L274 263 L394 453 L432 263 Z M314 663 L411 663 L437 778 L340 778 L314 663 Z M462 663 L559 663 L585 778 L488 778 L462 663 Z " />
<glyph glyph-name="Aring" unicode="&#xc5;" horiz-adv-x="600" d="M218 583 L200 501 L327 501 L68 82 L12 82 L-6 0 L233 0 L251 82 L163 82 L223 179 L447 179 L464 82 L375 82 L357 0 L596 0 L614 82 L556 82 L458 583 L218 583 Z M432 263 L274 263 L394 453 L432 263 Z M513 734 C513 784 473 824 423 824 C374 824 334 784 334 734 C334 685 374 645 423 645 C473 645 513 685 513 734 L513 734 Z M455 734 C455 717 441 703 423 703 C406 703 392 717 392 734 C392 752 406 766 423 766 C441 766 455 752 455 734 L455 734 Z " />
<glyph glyph-name="AE" unicode="&#xc6;" horiz-adv-x="600" d="M256 583 L238 501 L323 501 L73 82 L16 82 L-2 0 L211 0 L229 82 L154 82 L207 174 L323 174 L282 0 L596 0 L642 218 L567 218 L534 82 L382 82 L421 256 L456 256 L440 186 L511 186 L561 402 L490 402 L474 333 L436 333 L470 501 L623 501 L602 367 L676 367 L717 583 L256 583 Z M337 250 L256 250 L388 484 L390 482 L337 250 Z " />
<glyph glyph-name="Ccedilla" unicode="&#xc7;" horiz-adv-x="600" d="M193 -162 C219 -169 266 -182 321 -182 C395 -182 433 -137 433 -90 C433 -31 390 -21 373 -18 L373 -16 C478 -13 556 45 597 75 L550 148 C487 104 437 70 345 70 C206 70 194 168 194 218 C194 380 308 513 440 513 C476 513 555 500 555 419 C555 399 553 379 551 358 L630 353 C638 471 668 534 684 569 L608 588 L587 528 C547 593 478 599 445 599 C265 599 103 429 103 219 C103 90 168 -3 300 -17 L280 -77 C305 -80 329 -83 334 -85 C340 -86 349 -90 349 -98 C349 -111 332 -112 325 -112 C290 -112 225 -96 218 -94 L193 -162 Z " />
<glyph glyph-name="Egrave" unicode="&#xc8;" horiz-adv-x="600" d="M164 583 L146 501 L229 501 L140 82 L58 82 L40 0 L548 0 L595 217 L510 217 L477 82 L229 82 L267 264 L383 264 L369 195 L453 195 L501 420 L416 420 L401 350 L285 350 L317 501 L557 501 L538 367 L622 367 L663 583 L164 583 Z M294 798 L444 704 L528 704 L442 802 L294 802 L294 798 Z " />
<glyph glyph-name="Eacute" unicode="&#xc9;" horiz-adv-x="600" d="M164 583 L146 501 L229 501 L140 82 L58 82 L40 0 L548 0 L595 217 L510 217 L477 82 L229 82 L267 264 L383 264 L369 195 L453 195 L501 420 L416 420 L401 350 L285 350 L317 501 L557 501 L538 367 L622 367 L663 583 L164 583 Z M612 768 L612 772 L472 772 L349 674 L438 674 L612 768 Z " />
<glyph glyph-name="Ecircumflex" unicode="&#xca;" horiz-adv-x="600" d="M164 583 L146 501 L229 501 L140 82 L58 82 L40 0 L548 0 L595 217 L510 217 L477 82 L229 82 L267 264 L383 264 L369 195 L453 195 L501 420 L416 420 L401 350 L285 350 L317 501 L557 501 L538 367 L622 367 L663 583 L164 583 Z M420 782 L309 698 L358 665 L450 713 L528 665 L584 696 L506 782 L420 782 Z " />
<glyph glyph-name="Edieresis" unicode="&#xcb;" horiz-adv-x="600" d="M164 583 L146 501 L229 501 L140 82 L58 82 L40 0 L548 0 L595 217 L510 217 L477 82 L229 82 L267 264 L383 264 L369 195 L453 195 L501 420 L416 420 L401 350 L285 350 L317 501 L557 501 L538 367 L622 367 L663 583 L164 583 Z M314 663 L411 663 L437 778 L340 778 L314 663 Z M462 663 L559 663 L585 778 L488 778 L462 663 Z " />
<glyph glyph-name="Igrave" unicode="&#xcc;" horiz-adv-x="600" d="M204 583 L186 501 L356 501 L267 82 L98 82 L80 0 L507 0 L525 82 L356 82 L444 501 L613 501 L631 583 L204 583 Z M294 768 L444 674 L528 674 L442 772 L294 772 L294 768 Z " />
<glyph glyph-name="Iacute" unicode="&#xcd;" horiz-adv-x="600" d="M204 583 L186 501 L356 501 L267 82 L98 82 L80 0 L507 0 L525 82 L356 82 L444 501 L613 501 L631 583 L204 583 Z M612 768 L612 772 L472 772 L349 674 L438 674 L612 768 Z " />
<glyph glyph-name="Icircumflex" unicode="&#xce;" horiz-adv-x="600" d="M204 583 L186 501 L356 501 L267 82 L98 82 L80 0 L507 0 L525 82 L356 82 L444 501 L613 501 L631 583 L204 583 Z M420 782 L309 698 L358 665 L450 713 L528 665 L584 696 L506 782 L420 782 Z " />
<glyph glyph-name="Idieresis" unicode="&#xcf;" horiz-adv-x="600" d="M204 583 L186 501 L356 501 L267 82 L98 82 L80 0 L507 0 L525 82 L356 82 L444 501 L613 501 L631 583 L204 583 Z M314 663 L411 663 L437 778 L340 778 L314 663 Z M462 663 L559 663 L585 778 L488 778 L462 663 Z " />
<glyph glyph-name="Eth" unicode="&#xd0;" horiz-adv-x="600" d="M149 261 L112 82 L35 82 L17 0 L281 0 C328 0 440 1 522 94 C621 207 629 349 629 378 C629 463 592 522 554 549 C520 573 483 583 397 583 L141 583 L123 501 L200 501 L167 345 L91 345 L73 261 L149 261 Z M391 501 C457 501 480 494 497 479 C510 468 536 435 536 368 C536 324 520 227 456 149 C401 82 326 82 289 82 L201 82 L239 261 L403 261 L421 345 L256 345 L289 501 L391 501 Z " />
<glyph glyph-name="Ntilde" unicode="&#xd1;" horiz-adv-x="600" d="M130 583 L112 501 L183 501 L95 82 L30 82 L12 0 L261 0 L279 82 L183 82 L257 432 L275 432 L421 -12 L527 -12 L636 501 L696 501 L714 583 L473 583 L455 501 L548 501 L473 146 L455 146 L313 583 L130 583 Z M566 789 C566 788 563 784 563 783 C551 763 533 734 509 734 C497 734 486 741 470 755 C452 770 432 787 395 787 C322 787 284 722 262 684 L328 660 C328 661 331 664 332 666 C348 691 362 714 385 714 C391 714 396 713 421 692 C454 664 477 661 494 661 C577 661 614 733 633 768 L566 789 Z " />
<glyph glyph-name="Ograve" unicode="&#xd2;" horiz-adv-x="600" d="M80 224 C80 162 102 -16 297 -16 C493 -16 633 184 633 365 C633 446 596 599 415 599 C213 599 80 389 80 224 L80 224 Z M173 227 C173 355 273 515 410 515 C523 515 540 405 540 362 C540 220 435 68 302 68 C185 68 173 184 173 227 L173 227 Z M324 768 L474 674 L558 674 L472 772 L324 772 L324 768 Z " />
<glyph glyph-name="Oacute" unicode="&#xd3;" horiz-adv-x="600" d="M80 224 C80 162 102 -16 297 -16 C493 -16 633 184 633 365 C633 446 596 599 415 599 C213 599 80 389 80 224 L80 224 Z M173 227 C173 355 273 515 410 515 C523 515 540 405 540 362 C540 220 435 68 302 68 C185 68 173 184 173 227 L173 227 Z M612 768 L612 772 L472 772 L349 674 L438 674 L612 768 Z " />
<glyph glyph-name="Ocircumflex" unicode="&#xd4;" horiz-adv-x="600" d="M80 224 C80 162 102 -16 297 -16 C493 -16 633 184 633 365 C633 446 596 599 415 599 C213 599 80 389 80 224 L80 224 Z M173 227 C173 355 273 515 410 515 C523 515 540 405 540 362 C540 220 435 68 302 68 C185 68 173 184 173 227 L173 227 Z M420 782 L309 698 L358 665 L450 713 L528 665 L584 696 L506 782 L420 782 Z " />
<glyph glyph-name="Otilde" unicode="&#xd5;" horiz-adv-x="600" d="M80 224 C80 162 102 -16 297 -16 C493 -16 633 184 633 365 C633 446 596 599 415 599 C213 599 80 389 80 224 L80 224 Z M173 227 C173 355 273 515 410 515 C523 515 540 405 540 362 C540 220 435 68 302 68 C185 68 173 184 173 227 L173 227 Z M566 789 C566 788 563 784 563 783 C551 763 533 734 509 734 C497 734 486 741 470 755 C452 770 432 787 395 787 C322 787 284 722 262 684 L328 660 C328 661 331 664 332 666 C348 691 362 714 385 714 C391 714 396 713 421 692 C454 664 477 661 494 661 C577 661 614 733 633 768 L566 789 Z " />
<glyph glyph-name="Odieresis" unicode="&#xd6;" horiz-adv-x="600" d="M80 224 C80 162 102 -16 297 -16 C493 -16 633 184 633 365 C633 446 596 599 415 599 C213 599 80 389 80 224 L80 224 Z M173 227 C173 355 273 515 410 515 C523 515 540 405 540 362 C540 220 435 68 302 68 C185 68 173 184 173 227 L173 227 Z M314 663 L411 663 L437 778 L340 778 L314 663 Z M462 663 L559 663 L585 778 L488 778 L462 663 Z " />
<glyph glyph-name="multiply" unicode="&#xd7;" horiz-adv-x="600" d="M426 316 L569 459 L508 521 L365 378 L222 521 L160 459 L303 316 L160 173 L222 112 L365 255 L508 112 L569 173 L426 316 Z " />
<glyph glyph-name="Oslash" unicode="&#xd8;" horiz-adv-x="600" d="M159 27 C194 -5 248 -16 296 -16 C490 -16 633 179 633 368 C633 412 624 450 608 484 L665 542 L608 598 L560 549 C506 599 428 599 415 599 C234 599 80 422 80 207 C80 164 97 121 109 91 L46 27 L102 -30 L159 27 Z M534 409 C536 398 540 387 540 362 C540 216 432 68 302 68 C259 68 241 81 224 93 L534 409 Z M181 175 C176 190 173 200 173 230 C173 369 285 515 410 515 C435 515 464 512 489 488 L181 175 Z " />
<glyph glyph-name="Ugrave" unicode="&#xd9;" horiz-adv-x="600" d="M138 583 L120 501 L191 501 L138 252 C125 188 123 160 123 140 C123 33 209 -16 302 -16 C356 -16 423 -1 477 43 C518 76 541 119 565 229 L622 501 L691 501 L708 583 L456 583 L438 501 L536 501 L482 242 C464 156 447 72 308 72 C295 72 211 72 211 145 C211 177 220 223 224 242 L279 501 L377 501 L395 583 L138 583 Z M294 768 L444 674 L528 674 L442 772 L294 772 L294 768 Z " />
<glyph glyph-name="Uacute" unicode="&#xda;" horiz-adv-x="600" d="M138 583 L120 501 L191 501 L138 252 C125 188 123 160 123 140 C123 33 209 -16 302 -16 C356 -16 423 -1 477 43 C518 76 541 119 565 229 L622 501 L691 501 L708 583 L456 583 L438 501 L536 501 L482 242 C464 156 447 72 308 72 C295 72 211 72 211 145 C211 177 220 223 224 242 L279 501 L377 501 L395 583 L138 583 Z M612 768 L612 772 L472 772 L349 674 L438 674 L612 768 Z " />
<glyph glyph-name="Ucircumflex" unicode="&#xdb;" horiz-adv-x="600" d="M138 583 L120 501 L191 501 L138 252 C125 188 123 160 123 140 C123 33 209 -16 302 -16 C356 -16 423 -1 477 43 C518 76 541 119 565 229 L622 501 L691 501 L708 583 L456 583 L438 501 L536 501 L482 242 C464 156 447 72 308 72 C295 72 211 72 211 145 C211 177 220 223 224 242 L279 501 L377 501 L395 583 L138 583 Z M420 782 L309 698 L358 665 L450 713 L528 665 L584 696 L506 782 L420 782 Z " />
<glyph glyph-name="Udieresis" unicode="&#xdc;" horiz-adv-x="600" d="M138 583 L120 501 L191 501 L138 252 C125 188 123 160 123 140 C123 33 209 -16 302 -16 C356 -16 423 -1 477 43 C518 76 541 119 565 229 L622 501 L691 501 L708 583 L456 583 L438 501 L536 501 L482 242 C464 156 447 72 308 72 C295 72 211 72 211 145 C211 177 220 223 224 242 L279 501 L377 501 L395 583 L138 583 Z M314 663 L411 663 L437 778 L340 778 L314 663 Z M462 663 L559 663 L585 778 L488 778 L462 663 Z " />
<glyph glyph-name="Yacute" unicode="&#xdd;" horiz-adv-x="600" d="M138 583 L121 501 L194 501 L300 229 L270 82 L154 82 L138 0 L452 0 L471 82 L357 82 L386 220 L613 501 L680 501 L698 583 L471 583 L452 501 L509 501 L361 317 L290 501 L351 501 L369 583 L138 583 Z M612 768 L612 772 L472 772 L349 674 L438 674 L612 768 Z " />
<glyph glyph-name="Thorn" unicode="&#xde;" horiz-adv-x="600" d="M335 460 L342 501 L465 501 L483 583 L199 583 L181 501 L261 501 L171 82 L93 82 L75 0 L378 0 L396 82 L254 82 L261 128 L296 128 C383 128 478 127 543 177 C573 200 618 249 618 331 C618 460 477 460 405 460 L335 460 Z M398 395 C453 395 532 395 532 321 C532 296 522 258 493 231 C455 196 396 196 311 196 L277 196 L320 395 L398 395 Z " />
<glyph glyph-name="germandbls" unicode="&#xdf;" horiz-adv-x="600" d="M62 82 L45 0 L192 0 L283 433 C299 508 336 570 414 570 C456 570 483 552 483 518 C483 485 457 406 327 399 L311 318 C372 307 470 289 470 202 C470 129 413 72 353 72 C326 72 301 81 266 92 L247 5 C273 -4 307 -14 354 -14 C484 -14 558 108 558 207 C558 255 539 317 462 358 C539 397 571 459 571 516 C571 604 504 656 417 656 C243 656 206 483 198 443 L122 82 L62 82 Z " />
<glyph glyph-name="agrave" unicode="&#xe0;" horiz-adv-x="600" d="M535 301 C536 307 542 334 542 354 C542 433 471 474 384 474 C303 474 235 449 188 432 C187 432 184 431 181 429 C174 427 173 426 166 424 L184 341 C194 345 196 345 213 352 C262 371 321 388 373 388 C399 388 451 382 451 345 C451 342 450 335 449 327 C447 314 447 313 447 298 C408 303 376 307 332 307 C148 307 70 199 70 119 C70 47 128 -14 218 -14 C290 -14 350 16 390 36 L382 0 L557 0 L575 82 L489 82 L535 301 Z M413 146 C377 119 285 72 223 72 C196 72 161 90 161 123 C161 150 188 223 331 223 C370 223 398 219 428 215 L413 146 Z M264 638 L414 544 L498 544 L412 642 L264 642 L264 638 Z " />
<glyph glyph-name="aacute" unicode="&#xe1;" horiz-adv-x="600" d="M535 301 C536 307 542 334 542 354 C542 433 471 474 384 474 C303 474 235 449 188 432 C187 432 184 431 181 429 C174 427 173 426 166 424 L184 341 C194 345 196 345 213 352 C262 371 321 388 373 388 C399 388 451 382 451 345 C451 342 450 335 449 327 C447 314 447 313 447 298 C408 303 376 307 332 307 C148 307 70 199 70 119 C70 47 128 -14 218 -14 C290 -14 350 16 390 36 L382 0 L557 0 L575 82 L489 82 L535 301 Z M413 146 C377 119 285 72 223 72 C196 72 161 90 161 123 C161 150 188 223 331 223 C370 223 398 219 428 215 L413 146 Z M582 638 L582 642 L442 642 L319 544 L408 544 L582 638 Z " />
<glyph glyph-name="acircumflex" unicode="&#xe2;" horiz-adv-x="600" d="M535 301 C536 307 542 334 542 354 C542 433 471 474 384 474 C303 474 235 449 188 432 C187 432 184 431 181 429 C174 427 173 426 166 424 L184 341 C194 345 196 345 213 352 C262 371 321 388 373 388 C399 388 451 382 451 345 C451 342 450 335 449 327 C447 314 447 313 447 298 C408 303 376 307 332 307 C148 307 70 199 70 119 C70 47 128 -14 218 -14 C290 -14 350 16 390 36 L382 0 L557 0 L575 82 L489 82 L535 301 Z M413 146 C377 119 285 72 223 72 C196 72 161 90 161 123 C161 150 188 223 331 223 C370 223 398 219 428 215 L413 146 Z M390 652 L279 568 L328 535 L420 583 L498 535 L554 566 L476 652 L390 652 Z " />
<glyph glyph-name="atilde" unicode="&#xe3;" horiz-adv-x="600" d="M535 301 C536 307 542 334 542 354 C542 433 471 474 384 474 C303 474 235 449 188 432 C187 432 184 431 181 429 C174 427 173 426 166 424 L184 341 C194 345 196 345 213 352 C262 371 321 388 373 388 C399 388 451 382 451 345 C451 342 450 335 449 327 C447 314 447 313 447 298 C408 303 376 307 332 307 C148 307 70 199 70 119 C70 47 128 -14 218 -14 C290 -14 350 16 390 36 L382 0 L557 0 L575 82 L489 82 L535 301 Z M413 146 C377 119 285 72 223 72 C196 72 161 90 161 123 C161 150 188 223 331 223 C370 223 398 219 428 215 L413 146 Z M536 659 C536 658 533 654 533 653 C521 633 503 604 479 604 C467 604 456 611 440 625 C422 640 402 657 365 657 C292 657 254 592 232 554 L298 530 C298 531 301 534 302 536 C318 561 332 584 355 584 C361 584 366 583 391 562 C424 534 447 531 464 531 C547 531 584 603 603 638 L536 659 Z " />
<glyph glyph-name="adieresis" unicode="&#xe4;" horiz-adv-x="600" d="M535 301 C536 307 542 334 542 354 C542 433 471 474 384 474 C303 474 235 449 188 432 C187 432 184 431 181 429 C174 427 173 426 166 424 L184 341 C194 345 196 345 213 352 C262 371 321 388 373 388 C399 388 451 382 451 345 C451 342 450 335 449 327 C447 314 447 313 447 298 C408 303 376 307 332 307 C148 307 70 199 70 119 C70 47 128 -14 218 -14 C290 -14 350 16 390 36 L382 0 L557 0 L575 82 L489 82 L535 301 Z M413 146 C377 119 285 72 223 72 C196 72 161 90 161 123 C161 150 188 223 331 223 C370 223 398 219 428 215 L413 146 Z M284 533 L381 533 L407 648 L310 648 L284 533 Z M432 533 L529 533 L555 648 L458 648 L432 533 Z " />
<glyph glyph-name="aring" unicode="&#xe5;" horiz-adv-x="600" d="M535 301 C536 307 542 334 542 354 C542 433 471 474 384 474 C303 474 235 449 188 432 C187 432 184 431 181 429 C174 427 173 426 166 424 L184 341 C194 345 196 345 213 352 C262 371 321 388 373 388 C399 388 451 382 451 345 C451 342 450 335 449 327 C447 314 447 313 447 298 C408 303 376 307 332 307 C148 307 70 199 70 119 C70 47 128 -14 218 -14 C290 -14 350 16 390 36 L382 0 L557 0 L575 82 L489 82 L535 301 Z M413 146 C377 119 285 72 223 72 C196 72 161 90 161 123 C161 150 188 223 331 223 C370 223 398 219 428 215 L413 146 Z M483 604 C483 654 443 694 393 694 C344 694 304 654 304 604 C304 555 344 515 393 515 C443 515 483 555 483 604 L483 604 Z M425 604 C425 587 411 573 393 573 C376 573 362 587 362 604 C362 622 376 636 393 636 C411 636 425 622 425 604 L425 604 Z " />
<glyph glyph-name="ae" unicode="&#xe6;" horiz-adv-x="600" d="M608 198 C617 224 631 264 631 322 C631 425 573 474 512 474 C465 474 422 452 387 421 C366 468 315 474 287 474 C249 474 212 466 134 438 L143 354 C147 356 170 363 174 365 C236 386 259 388 287 388 C303 388 317 386 317 356 C317 340 313 323 305 289 C291 292 279 296 256 296 C108 296 42 180 42 104 C42 28 94 -14 158 -14 C212 -14 249 14 305 61 C324 26 346 -14 427 -14 C492 -14 555 8 582 17 L566 97 C522 84 473 70 431 70 C378 70 367 113 367 154 C367 172 368 184 371 198 L608 198 Z M278 143 C249 112 193 72 160 72 C139 72 130 90 130 109 C130 137 153 212 248 212 C265 212 278 210 289 208 L278 143 Z M387 280 C410 361 464 391 497 391 C539 391 543 362 543 328 C543 304 541 291 540 280 L387 280 Z " />
<glyph glyph-name="ccedilla" unicode="&#xe7;" horiz-adv-x="600" d="M350 -11 C435 5 504 45 557 79 L520 154 C443 106 377 72 309 72 C288 72 189 80 189 186 C189 279 266 383 397 383 C418 383 501 382 501 314 C501 303 501 293 499 261 L579 272 C582 350 591 393 618 459 L548 473 L528 418 C514 433 479 469 394 469 C231 469 97 331 97 183 C97 50 196 -7 276 -14 L255 -77 C281 -80 305 -83 310 -85 C315 -86 324 -90 324 -98 C324 -111 308 -112 300 -112 C266 -112 201 -96 194 -94 L168 -162 C199 -171 246 -182 297 -182 C370 -182 409 -138 409 -91 C409 -32 366 -22 350 -18 L350 -11 Z " />
<glyph glyph-name="egrave" unicode="&#xe8;" horiz-adv-x="600" d="M545 139 C463 103 393 74 319 74 C193 74 191 157 190 196 L582 196 L588 215 C597 243 602 264 602 290 C602 381 538 469 398 469 C225 469 99 324 99 178 C99 61 180 -14 314 -14 C411 -14 517 32 570 58 L545 139 Z M216 278 C232 304 282 383 392 383 C509 383 510 301 511 278 L216 278 Z M303 638 L453 544 L537 544 L451 642 L303 642 L303 638 Z " />
<glyph glyph-name="eacute" unicode="&#xe9;" horiz-adv-x="600" d="M545 139 C463 103 393 74 319 74 C193 74 191 157 190 196 L582 196 L588 215 C597 243 602 264 602 290 C602 381 538 469 398 469 C225 469 99 324 99 178 C99 61 180 -14 314 -14 C411 -14 517 32 570 58 L545 139 Z M216 278 C232 304 282 383 392 383 C509 383 510 301 511 278 L216 278 Z M582 638 L582 642 L442 642 L319 544 L408 544 L582 638 Z " />
<glyph glyph-name="ecircumflex" unicode="&#xea;" horiz-adv-x="600" d="M545 139 C463 103 393 74 319 74 C193 74 191 157 190 196 L582 196 L588 215 C597 243 602 264 602 290 C602 381 538 469 398 469 C225 469 99 324 99 178 C99 61 180 -14 314 -14 C411 -14 517 32 570 58 L545 139 Z M216 278 C232 304 282 383 392 383 C509 383 510 301 511 278 L216 278 Z M390 652 L279 568 L328 535 L420 583 L498 535 L554 566 L476 652 L390 652 Z " />
<glyph glyph-name="edieresis" unicode="&#xeb;" horiz-adv-x="600" d="M545 139 C463 103 393 74 319 74 C193 74 191 157 190 196 L582 196 L588 215 C597 243 602 264 602 290 C602 381 538 469 398 469 C225 469 99 324 99 178 C99 61 180 -14 314 -14 C411 -14 517 32 570 58 L545 139 Z M216 278 C232 304 282 383 392 383 C509 383 510 301 511 278 L216 278 Z M284 533 L381 533 L407 648 L310 648 L284 533 Z M432 533 L529 533 L555 648 L458 648 L432 533 Z " />
<glyph glyph-name="igrave" unicode="&#xec;" horiz-adv-x="600" d="M209 453 L191 371 L334 371 L273 82 L103 82 L85 0 L510 0 L528 82 L361 82 L440 453 L209 453 Z M264 638 L414 544 L498 544 L412 642 L264 642 L264 638 Z " />
<glyph glyph-name="iacute" unicode="&#xed;" horiz-adv-x="600" d="M209 453 L191 371 L334 371 L273 82 L103 82 L85 0 L510 0 L528 82 L361 82 L440 453 L209 453 Z M582 638 L582 642 L442 642 L319 544 L408 544 L582 638 Z " />
<glyph glyph-name="icircumflex" unicode="&#xee;" horiz-adv-x="600" d="M209 453 L191 371 L334 371 L273 82 L103 82 L85 0 L510 0 L528 82 L361 82 L440 453 L209 453 Z M390 652 L279 568 L328 535 L420 583 L498 535 L554 566 L476 652 L390 652 Z " />
<glyph glyph-name="idieresis" unicode="&#xef;" horiz-adv-x="600" d="M209 453 L191 371 L334 371 L273 82 L103 82 L85 0 L510 0 L528 82 L361 82 L440 453 L209 453 Z M284 533 L381 533 L407 648 L310 648 L284 533 Z M432 533 L529 533 L555 648 L458 648 L432 533 Z " />
<glyph glyph-name="eth" unicode="&#xf0;" horiz-adv-x="600" d="M376 660 C344 677 320 689 263 708 L224 640 C256 630 272 624 324 598 L263 533 L324 491 L387 562 C438 531 482 492 516 436 L514 434 C479 459 425 470 383 470 C217 470 80 333 80 179 C80 53 172 -14 294 -14 C459 -14 611 103 611 317 C611 403 587 536 440 623 L488 683 L433 727 L376 660 Z M386 394 C492 394 523 323 523 268 C523 171 438 62 308 62 C185 62 168 149 168 188 C168 275 243 394 386 394 L386 394 Z " />
<glyph glyph-name="ntilde" unicode="&#xf1;" horiz-adv-x="600" d="M113 453 L95 371 L175 371 L113 82 L34 82 L16 0 L266 0 L283 82 L203 82 L251 309 C341 372 385 380 416 380 C447 380 475 362 475 335 C475 320 469 292 468 287 L425 82 L340 82 L324 0 L576 0 L594 82 L513 82 L554 280 C556 285 561 313 561 335 C561 420 490 468 422 468 C379 468 332 453 274 420 L283 453 L113 453 Z M536 659 C536 658 533 654 533 653 C521 633 503 604 479 604 C467 604 456 611 440 625 C422 640 402 657 365 657 C292 657 254 592 232 554 L298 530 C298 531 301 534 302 536 C318 561 332 584 355 584 C361 584 366 583 391 562 C424 534 447 531 464 531 C547 531 584 603 603 638 L536 659 Z " />
<glyph glyph-name="ograve" unicode="&#xf2;" horiz-adv-x="600" d="M391 474 C194 474 79 319 79 183 C79 52 175 -14 296 -14 C491 -14 607 142 607 277 C607 402 517 474 391 474 L391 474 Z M384 388 C477 388 514 331 514 271 C514 181 434 72 303 72 C209 72 172 126 172 188 C172 278 248 388 384 388 L384 388 Z M264 638 L414 544 L498 544 L412 642 L264 642 L264 638 Z " />
<glyph glyph-name="oacute" unicode="&#xf3;" horiz-adv-x="600" d="M391 474 C194 474 79 319 79 183 C79 52 175 -14 296 -14 C491 -14 607 142 607 277 C607 402 517 474 391 474 L391 474 Z M384 388 C477 388 514 331 514 271 C514 181 434 72 303 72 C209 72 172 126 172 188 C172 278 248 388 384 388 L384 388 Z M582 638 L582 642 L442 642 L319 544 L408 544 L582 638 Z " />
<glyph glyph-name="ocircumflex" unicode="&#xf4;" horiz-adv-x="600" d="M391 474 C194 474 79 319 79 183 C79 52 175 -14 296 -14 C491 -14 607 142 607 277 C607 402 517 474 391 474 L391 474 Z M384 388 C477 388 514 331 514 271 C514 181 434 72 303 72 C209 72 172 126 172 188 C172 278 248 388 384 388 L384 388 Z M390 652 L279 568 L328 535 L420 583 L498 535 L554 566 L476 652 L390 652 Z " />
<glyph glyph-name="otilde" unicode="&#xf5;" horiz-adv-x="600" d="M391 474 C194 474 79 319 79 183 C79 52 175 -14 296 -14 C491 -14 607 142 607 277 C607 402 517 474 391 474 L391 474 Z M384 388 C477 388 514 331 514 271 C514 181 434 72 303 72 C209 72 172 126 172 188 C172 278 248 388 384 388 L384 388 Z M536 659 C536 658 533 654 533 653 C521 633 503 604 479 604 C467 604 456 611 440 625 C422 640 402 657 365 657 C292 657 254 592 232 554 L298 530 C298 531 301 534 302 536 C318 561 332 584 355 584 C361 584 366 583 391 562 C424 534 447 531 464 531 C547 531 584 603 603 638 L536 659 Z " />
<glyph glyph-name="odieresis" unicode="&#xf6;" horiz-adv-x="600" d="M391 474 C194 474 79 319 79 183 C79 52 175 -14 296 -14 C491 -14 607 142 607 277 C607 402 517 474 391 474 L391 474 Z M384 388 C477 388 514 331 514 271 C514 181 434 72 303 72 C209 72 172 126 172 188 C172 278 248 388 384 388 L384 388 Z M284 533 L381 533 L407 648 L310 648 L284 533 Z M432 533 L529 533 L555 648 L458 648 L432 533 Z " />
<glyph glyph-name="divide" unicode="&#xf7;" horiz-adv-x="600" d="M363 550 C326 550 300 520 300 487 C300 455 325 424 363 424 C400 424 426 455 426 487 C426 521 399 550 363 550 L363 550 Z M117 357 L117 269 L609 269 L609 357 L117 357 Z M363 202 C327 202 300 174 300 140 C300 106 327 76 363 76 C399 76 426 106 426 140 C426 173 399 202 363 202 L363 202 Z " />
<glyph glyph-name="oslash" unicode="&#xf8;" horiz-adv-x="600" d="M158 24 C204 -7 265 -14 299 -14 C489 -14 608 139 608 277 C608 309 602 342 588 371 L643 417 L588 486 L529 437 C491 464 433 474 389 474 C201 474 80 323 80 184 C80 162 84 122 100 89 L45 44 L100 -23 L158 24 Z M510 309 C512 300 515 288 515 270 C515 189 444 72 302 72 C266 72 248 77 234 82 L510 309 Z M178 152 C176 160 173 169 173 188 C173 286 258 388 383 388 C420 388 440 381 454 376 L178 152 Z " />
<glyph glyph-name="ugrave" unicode="&#xf9;" horiz-adv-x="600" d="M113 453 L96 371 L174 371 L134 183 C133 178 127 149 127 127 C127 85 150 -14 267 -14 C338 -14 382 16 404 30 L396 0 L562 0 L580 82 L502 82 L580 453 L410 453 L392 371 L474 371 L427 149 C376 100 319 72 269 72 C225 72 215 111 215 126 C215 144 220 169 221 175 L281 453 L113 453 Z M264 638 L414 544 L498 544 L412 642 L264 642 L264 638 Z " />
<glyph glyph-name="uacute" unicode="&#xfa;" horiz-adv-x="600" d="M113 453 L96 371 L174 371 L134 183 C133 178 127 149 127 127 C127 85 150 -14 267 -14 C338 -14 382 16 404 30 L396 0 L562 0 L580 82 L502 82 L580 453 L410 453 L392 371 L474 371 L427 149 C376 100 319 72 269 72 C225 72 215 111 215 126 C215 144 220 169 221 175 L281 453 L113 453 Z M582 638 L582 642 L442 642 L319 544 L408 544 L582 638 Z " />
<glyph glyph-name="ucircumflex" unicode="&#xfb;" horiz-adv-x="600" d="M113 453 L96 371 L174 371 L134 183 C133 178 127 149 127 127 C127 85 150 -14 267 -14 C338 -14 382 16 404 30 L396 0 L562 0 L580 82 L502 82 L580 453 L410 453 L392 371 L474 371 L427 149 C376 100 319 72 269 72 C225 72 215 111 215 126 C215 144 220 169 221 175 L281 453 L113 453 Z M390 652 L279 568 L328 535 L420 583 L498 535 L554 566 L476 652 L390 652 Z " />
<glyph glyph-name="udieresis" unicode="&#xfc;" horiz-adv-x="600" d="M113 453 L96 371 L174 371 L134 183 C133 178 127 149 127 127 C127 85 150 -14 267 -14 C338 -14 382 16 404 30 L396 0 L562 0 L580 82 L502 82 L580 453 L410 453 L392 371 L474 371 L427 149 C376 100 319 72 269 72 C225 72 215 111 215 126 C215 144 220 169 221 175 L281 453 L113 453 Z M284 533 L381 533 L407 648 L310 648 L284 533 Z M432 533 L529 533 L555 648 L458 648 L432 533 Z " />
<glyph glyph-name="yacute" unicode="&#xfd;" horiz-adv-x="600" d="M421 453 L403 371 L481 371 L442 188 C356 105 315 101 293 101 C256 101 220 120 220 177 C220 182 221 194 224 210 L258 371 L333 371 L351 453 L112 453 L95 371 L169 371 L137 222 C136 214 132 194 132 176 C132 74 196 15 283 15 C349 15 392 45 415 60 C399 -5 384 -71 257 -71 C210 -71 174 -61 147 -54 L127 -145 C157 -150 197 -157 245 -157 C457 -157 485 -24 502 55 L569 371 L649 371 L667 453 L421 453 Z M582 638 L582 642 L442 642 L319 544 L408 544 L582 638 Z " />
<glyph glyph-name="thorn" unicode="&#xfe;" horiz-adv-x="600" d="M308 648 L129 638 L116 552 L200 556 L68 -70 L-11 -70 L-29 -152 L283 -152 L300 -70 L156 -70 L181 50 C240 -7 310 -7 325 -7 C459 -7 607 121 607 276 C607 367 546 467 413 467 C355 467 308 451 260 419 L308 648 Z M409 381 C476 381 516 339 516 272 C516 173 425 79 327 79 C272 79 211 120 211 191 C211 289 299 381 409 381 L409 381 Z " />
<glyph glyph-name="ydieresis" unicode="&#xff;" horiz-adv-x="600" d="M421 453 L403 371 L481 371 L442 188 C356 105 315 101 293 101 C256 101 220 120 220 177 C220 182 221 194 224 210 L258 371 L333 371 L351 453 L112 453 L95 371 L169 371 L137 222 C136 214 132 194 132 176 C132 74 196 15 283 15 C349 15 392 45 415 60 C399 -5 384 -71 257 -71 C210 -71 174 -61 147 -54 L127 -145 C157 -150 197 -157 245 -157 C457 -157 485 -24 502 55 L569 371 L649 371 L667 453 L421 453 Z M284 533 L381 533 L407 648 L310 648 L284 533 Z M432 533 L529 533 L555 648 L458 648 L432 533 Z " />
<glyph glyph-name="Amacron" unicode="&#x100;" horiz-adv-x="600" d="M218 583 L200 501 L327 501 L68 82 L12 82 L-6 0 L233 0 L251 82 L163 82 L223 179 L447 179 L464 82 L375 82 L357 0 L596 0 L614 82 L556 82 L458 583 L218 583 Z M432 263 L274 263 L394 453 L432 263 Z M240 765 L222 680 L564 680 L583 765 L240 765 Z " />
<glyph glyph-name="amacron" unicode="&#x101;" horiz-adv-x="600" d="M535 301 C536 307 542 334 542 354 C542 433 471 474 384 474 C303 474 235 449 188 432 C187 432 184 431 181 429 C174 427 173 426 166 424 L184 341 C194 345 196 345 213 352 C262 371 321 388 373 388 C399 388 451 382 451 345 C451 342 450 335 449 327 C447 314 447 313 447 298 C408 303 376 307 332 307 C148 307 70 199 70 119 C70 47 128 -14 218 -14 C290 -14 350 16 390 36 L382 0 L557 0 L575 82 L489 82 L535 301 Z M413 146 C377 119 285 72 223 72 C196 72 161 90 161 123 C161 150 188 223 331 223 C370 223 398 219 428 215 L413 146 Z M255 635 L237 550 L579 550 L598 635 L255 635 Z " />
<glyph glyph-name="Abreve" unicode="&#x102;" horiz-adv-x="600" d="M218 583 L200 501 L327 501 L68 82 L12 82 L-6 0 L233 0 L251 82 L163 82 L223 179 L447 179 L464 82 L375 82 L357 0 L596 0 L614 82 L556 82 L458 583 L218 583 Z M432 263 L274 263 L394 453 L432 263 Z M240 792 C242 764 242 750 251 731 C277 675 332 653 390 653 C434 653 484 665 531 702 C568 732 579 754 597 792 L518 792 C517 792 516 789 515 787 C490 741 444 721 401 721 C326 721 320 767 317 792 L240 792 Z " />
<glyph glyph-name="abreve" unicode="&#x103;" horiz-adv-x="600" d="M535 301 C536 307 542 334 542 354 C542 433 471 474 384 474 C303 474 235 449 188 432 C187 432 184 431 181 429 C174 427 173 426 166 424 L184 341 C194 345 196 345 213 352 C262 371 321 388 373 388 C399 388 451 382 451 345 C451 342 450 335 449 327 C447 314 447 313 447 298 C408 303 376 307 332 307 C148 307 70 199 70 119 C70 47 128 -14 218 -14 C290 -14 350 16 390 36 L382 0 L557 0 L575 82 L489 82 L535 301 Z M413 146 C377 119 285 72 223 72 C196 72 161 90 161 123 C161 150 188 223 331 223 C370 223 398 219 428 215 L413 146 Z M258 662 C260 634 260 620 269 601 C295 545 350 523 408 523 C452 523 502 535 549 572 C586 602 597 624 615 662 L536 662 C535 662 534 659 533 657 C508 611 462 591 419 591 C344 591 338 637 335 662 L258 662 Z " />
<glyph glyph-name="Aogonek" unicode="&#x104;" horiz-adv-x="600" d="M552 -47 C493 -75 487 -78 465 -78 C458 -78 441 -76 441 -63 C441 -32 525 -6 554 0 L596 0 L614 82 L556 82 L458 583 L218 583 L200 501 L327 501 L68 82 L12 82 L-6 0 L233 0 L251 82 L163 82 L223 179 L447 179 L464 82 L375 82 L357 0 L417 0 L417 -2 C398 -10 346 -37 346 -86 C346 -126 384 -144 420 -144 C463 -144 491 -130 517 -116 L552 -47 Z M432 263 L274 263 L394 453 L432 263 Z " />
<glyph glyph-name="aogonek" unicode="&#x105;" horiz-adv-x="600" d="M575 82 L489 82 L535 301 C536 307 542 334 542 354 C542 433 471 474 384 474 C303 474 237 450 166 424 L184 341 C240 363 306 388 373 388 C399 388 451 382 451 345 L447 310 L447 298 C408 303 376 307 332 307 C148 307 70 199 70 119 C70 47 128 -14 218 -14 C290 -14 350 16 390 36 L382 0 C361 -11 311 -39 311 -86 C311 -126 350 -144 386 -144 C429 -144 457 -130 483 -116 L518 -47 C459 -75 452 -78 430 -78 C423 -78 407 -76 407 -63 C407 -28 513 0 520 0 L557 0 L575 82 Z M413 146 C377 119 285 72 223 72 C196 72 161 90 161 123 C161 150 188 223 331 223 C370 223 398 219 428 215 L413 146 Z " />
<glyph glyph-name="Cacute" unicode="&#x106;" horiz-adv-x="600" d="M608 588 L587 528 C547 593 478 599 445 599 C265 599 103 430 103 221 C103 90 172 -16 342 -16 C470 -16 543 36 597 75 L550 148 C486 104 438 70 346 70 C207 70 194 168 194 218 C194 380 308 513 439 513 C476 513 555 500 555 419 C555 399 552 379 550 358 L629 353 C638 471 668 534 684 569 L608 588 Z M612 768 L612 772 L472 772 L349 674 L438 674 L612 768 Z " />
<glyph glyph-name="cacute" unicode="&#x107;" horiz-adv-x="600" d="M548 473 L528 418 C514 433 479 469 394 469 C231 469 97 331 97 182 C97 43 205 -14 300 -14 C407 -14 494 40 557 79 L520 154 C443 106 377 72 309 72 C287 72 189 80 189 186 C189 279 266 383 397 383 C418 383 501 382 501 314 C501 304 501 298 499 261 L579 272 C582 350 590 393 618 459 L548 473 Z M582 638 L582 642 L442 642 L319 544 L408 544 L582 638 Z " />
<glyph glyph-name="Ccircumflex" unicode="&#x108;" horiz-adv-x="600" d="M608 588 L587 528 C547 593 478 599 445 599 C265 599 103 430 103 221 C103 90 172 -16 342 -16 C470 -16 543 36 597 75 L550 148 C486 104 438 70 346 70 C207 70 194 168 194 218 C194 380 308 513 439 513 C476 513 555 500 555 419 C555 399 552 379 550 358 L629 353 C638 471 668 534 684 569 L608 588 Z M420 782 L309 698 L358 665 L450 713 L528 665 L584 696 L506 782 L420 782 Z " />
<glyph glyph-name="ccircumflex" unicode="&#x109;" horiz-adv-x="600" d="M548 473 L528 418 C514 433 479 469 394 469 C231 469 97 331 97 182 C97 43 205 -14 300 -14 C407 -14 494 40 557 79 L520 154 C443 106 377 72 309 72 C287 72 189 80 189 186 C189 279 266 383 397 383 C418 383 501 382 501 314 C501 304 501 298 499 261 L579 272 C582 350 590 393 618 459 L548 473 Z M390 652 L279 568 L328 535 L420 583 L498 535 L554 566 L476 652 L390 652 Z " />
<glyph glyph-name="Cdotaccent" unicode="&#x10a;" horiz-adv-x="600" d="M608 588 L587 528 C547 593 478 599 445 599 C265 599 103 430 103 221 C103 90 172 -16 342 -16 C470 -16 543 36 597 75 L550 148 C486 104 438 70 346 70 C207 70 194 168 194 218 C194 380 308 513 439 513 C476 513 555 500 555 419 C555 399 552 379 550 358 L629 353 C638 471 668 534 684 569 L608 588 Z M383 663 L479 663 L505 783 L408 783 L383 663 Z " />
<glyph glyph-name="cdotaccent" unicode="&#x10b;" horiz-adv-x="600" d="M548 473 L528 418 C514 433 479 469 394 469 C231 469 97 331 97 182 C97 43 205 -14 300 -14 C407 -14 494 40 557 79 L520 154 C443 106 377 72 309 72 C287 72 189 80 189 186 C189 279 266 383 397 383 C418 383 501 382 501 314 C501 304 501 298 499 261 L579 272 C582 350 590 393 618 459 L548 473 Z M353 533 L449 533 L475 653 L378 653 L353 533 Z " />
<glyph glyph-name="Ccaron" unicode="&#x10c;" horiz-adv-x="600" d="M608 588 L587 528 C547 593 478 599 445 599 C265 599 103 430 103 221 C103 90 172 -16 342 -16 C470 -16 543 36 597 75 L550 148 C486 104 438 70 346 70 C207 70 194 168 194 218 C194 380 308 513 439 513 C476 513 555 500 555 419 C555 399 552 379 550 358 L629 353 C638 471 668 534 684 569 L608 588 Z M481 665 L591 749 L543 782 L451 734 L372 782 L316 751 L395 665 L481 665 Z " />
<glyph glyph-name="ccaron" unicode="&#x10d;" horiz-adv-x="600" d="M548 473 L528 418 C514 433 479 469 394 469 C231 469 97 331 97 182 C97 43 205 -14 300 -14 C407 -14 494 40 557 79 L520 154 C443 106 377 72 309 72 C287 72 189 80 189 186 C189 279 266 383 397 383 C418 383 501 382 501 314 C501 304 501 298 499 261 L579 272 C582 350 590 393 618 459 L548 473 Z M451 535 L561 619 L513 652 L421 604 L342 652 L286 621 L365 535 L451 535 Z " />
<glyph glyph-name="Dcaron" unicode="&#x10e;" horiz-adv-x="600" d="M141 583 L123 501 L200 501 L112 82 L35 82 L17 0 L281 0 C328 0 440 1 522 94 C621 207 629 349 629 378 C629 463 592 522 554 549 C520 573 483 583 397 583 L141 583 Z M391 501 C457 501 480 494 497 479 C510 468 536 436 536 369 C536 325 520 227 456 149 C401 82 326 82 289 82 L201 82 L289 501 L391 501 Z M439 665 L549 749 L501 782 L409 734 L330 782 L274 751 L353 665 L439 665 Z " />
<glyph glyph-name="dcaron" unicode="&#x10f;" horiz-adv-x="600" d="M398 626 L370 539 L534 551 L503 402 C462 439 418 457 362 457 C220 457 82 328 82 180 C82 85 150 -10 276 -10 C343 -10 395 17 425 38 L417 0 L586 0 L604 82 L523 82 L642 648 L398 626 Z M467 257 C467 178 389 76 278 76 C235 76 175 106 175 186 C175 283 259 371 360 371 C410 371 467 341 467 257 L467 257 Z M486 713 L596 797 L548 830 L456 782 L377 830 L321 799 L400 713 L486 713 Z " />
<glyph glyph-name="Emacron" unicode="&#x112;" horiz-adv-x="600" d="M164 583 L146 501 L229 501 L140 82 L58 82 L40 0 L548 0 L595 217 L510 217 L477 82 L229 82 L267 264 L383 264 L369 195 L453 195 L501 420 L416 420 L401 350 L285 350 L317 501 L557 501 L538 367 L622 367 L663 583 L164 583 Z M285 765 L267 680 L609 680 L628 765 L285 765 Z " />
<glyph glyph-name="emacron" unicode="&#x113;" horiz-adv-x="600" d="M545 139 C463 103 393 74 319 74 C193 74 191 157 190 196 L582 196 L588 215 C597 243 602 264 602 290 C602 381 538 469 398 469 C225 469 99 324 99 178 C99 61 180 -14 314 -14 C411 -14 517 32 570 58 L545 139 Z M216 278 C232 304 282 383 392 383 C509 383 510 301 511 278 L216 278 Z M255 635 L237 550 L579 550 L598 635 L255 635 Z " />
<glyph glyph-name="Edotaccent" unicode="&#x116;" horiz-adv-x="600" d="M164 583 L146 501 L229 501 L140 82 L58 82 L40 0 L548 0 L595 217 L510 217 L477 82 L229 82 L267 264 L383 264 L369 195 L453 195 L501 420 L416 420 L401 350 L285 350 L317 501 L557 501 L538 367 L622 367 L663 583 L164 583 Z M383 663 L479 663 L505 783 L408 783 L383 663 Z " />
<glyph glyph-name="edotaccent" unicode="&#x117;" horiz-adv-x="600" d="M545 139 C463 103 393 74 319 74 C193 74 191 157 190 196 L582 196 L588 215 C597 243 602 264 602 290 C602 381 538 469 398 469 C225 469 99 324 99 178 C99 61 180 -14 314 -14 C411 -14 517 32 570 58 L545 139 Z M216 278 C232 304 282 383 392 383 C509 383 510 301 511 278 L216 278 Z M353 533 L449 533 L475 653 L378 653 L353 533 Z " />
<glyph glyph-name="Eogonek" unicode="&#x118;" horiz-adv-x="600" d="M530 -47 C471 -75 465 -78 443 -78 C436 -78 419 -76 419 -63 C419 -32 503 -6 532 0 L548 0 L595 217 L510 217 L477 82 L229 82 L267 264 L383 264 L369 195 L453 195 L501 420 L416 420 L401 350 L285 350 L317 501 L557 501 L538 367 L622 367 L663 583 L164 583 L146 501 L229 501 L140 82 L58 82 L40 0 L395 0 L395 -2 C379 -8 324 -37 324 -86 C324 -126 362 -144 398 -144 C441 -144 469 -130 495 -116 L530 -47 Z " />
<glyph glyph-name="eogonek" unicode="&#x119;" horiz-adv-x="600" d="M413 -47 C354 -75 347 -78 326 -78 C318 -78 302 -76 302 -63 C302 -32 386 -7 390 -6 C499 26 511 29 570 58 L545 139 C463 103 393 74 319 74 C193 74 191 157 190 196 L582 196 C596 241 602 259 602 290 C602 381 538 469 398 469 C225 469 99 324 99 178 C99 130 114 17 261 -9 C247 -18 206 -44 206 -86 C206 -126 245 -144 281 -144 C324 -144 352 -130 378 -116 L413 -47 Z M216 278 C232 304 282 383 392 383 C509 383 510 301 511 278 L216 278 Z " />
<glyph glyph-name="Ecaron" unicode="&#x11a;" horiz-adv-x="600" d="M164 583 L146 501 L229 501 L140 82 L58 82 L40 0 L548 0 L595 217 L510 217 L477 82 L229 82 L267 264 L383 264 L369 195 L453 195 L501 420 L416 420 L401 350 L285 350 L317 501 L557 501 L538 367 L622 367 L663 583 L164 583 Z M481 665 L591 749 L543 782 L451 734 L372 782 L316 751 L395 665 L481 665 Z " />
<glyph glyph-name="ecaron" unicode="&#x11b;" horiz-adv-x="600" d="M545 139 C463 103 393 74 319 74 C193 74 191 157 190 196 L582 196 L588 215 C597 243 602 264 602 290 C602 381 538 469 398 469 C225 469 99 324 99 178 C99 61 180 -14 314 -14 C411 -14 517 32 570 58 L545 139 Z M216 278 C232 304 282 383 392 383 C509 383 510 301 511 278 L216 278 Z M451 535 L561 619 L513 652 L421 604 L342 652 L286 621 L365 535 L451 535 Z " />
<glyph glyph-name="Gcircumflex" unicode="&#x11c;" horiz-adv-x="600" d="M363 278 L345 194 L489 194 L469 98 C448 90 397 70 332 70 C233 70 178 118 178 218 C178 370 286 515 421 515 C460 515 537 499 537 403 C537 392 537 382 535 348 L618 362 C623 444 647 517 670 570 L589 587 L569 524 C555 544 517 599 426 599 C234 599 85 406 85 216 C85 77 169 -16 318 -16 C407 -16 476 10 530 30 L544 35 L578 194 L624 194 L642 278 L363 278 Z M420 782 L309 698 L358 665 L450 713 L528 665 L584 696 L506 782 L420 782 Z " />
<glyph glyph-name="gcircumflex" unicode="&#x11d;" horiz-adv-x="600" d="M488 453 L478 409 C458 426 419 459 352 459 C204 459 76 329 76 193 C76 91 151 11 263 11 C337 11 384 42 403 54 L395 23 C373 -62 281 -63 241 -63 C201 -63 177 -59 151 -54 L132 -141 C159 -145 194 -149 238 -149 C446 -149 475 -18 488 43 L558 371 L637 371 L655 453 L488 453 Z M269 97 C213 97 169 138 169 200 C169 287 253 373 347 373 C403 373 445 329 445 274 C445 185 369 97 269 97 L269 97 Z M390 652 L279 568 L328 535 L420 583 L498 535 L554 566 L476 652 L390 652 Z " />
<glyph glyph-name="Gbreve" unicode="&#x11e;" horiz-adv-x="600" d="M363 278 L345 194 L489 194 L469 98 C448 90 397 70 332 70 C233 70 178 118 178 218 C178 370 286 515 421 515 C460 515 537 499 537 403 C537 392 537 382 535 348 L618 362 C623 444 647 517 670 570 L589 587 L569 524 C555 544 517 599 426 599 C234 599 85 406 85 216 C85 77 169 -16 318 -16 C407 -16 476 10 530 30 L544 35 L578 194 L624 194 L642 278 L363 278 Z M288 792 C290 764 290 750 299 731 C325 675 380 653 438 653 C482 653 532 665 579 702 C616 732 627 754 645 792 L566 792 C565 792 564 789 563 787 C538 741 492 721 449 721 C374 721 368 767 365 792 L288 792 Z " />
<glyph glyph-name="gbreve" unicode="&#x11f;" horiz-adv-x="600" d="M488 453 L478 409 C458 426 419 459 352 459 C204 459 76 329 76 193 C76 91 151 11 263 11 C337 11 384 42 403 54 L395 23 C373 -62 281 -63 241 -63 C201 -63 177 -59 151 -54 L132 -141 C159 -145 194 -149 238 -149 C446 -149 475 -18 488 43 L558 371 L637 371 L655 453 L488 453 Z M269 97 C213 97 169 138 169 200 C169 287 253 373 347 373 C403 373 445 329 445 274 C445 185 369 97 269 97 L269 97 Z M258 662 C260 634 260 620 269 601 C295 545 350 523 408 523 C452 523 502 535 549 572 C586 602 597 624 615 662 L536 662 C535 662 534 659 533 657 C508 611 462 591 419 591 C344 591 338 637 335 662 L258 662 Z " />
<glyph glyph-name="Gdotaccent" unicode="&#x120;" horiz-adv-x="600" d="M363 278 L345 194 L489 194 L469 98 C448 90 397 70 332 70 C233 70 178 118 178 218 C178 370 286 515 421 515 C460 515 537 499 537 403 C537 392 537 382 535 348 L618 362 C623 444 647 517 670 570 L589 587 L569 524 C555 544 517 599 426 599 C234 599 85 406 85 216 C85 77 169 -16 318 -16 C407 -16 476 10 530 30 L544 35 L578 194 L624 194 L642 278 L363 278 Z M383 663 L479 663 L505 783 L408 783 L383 663 Z " />
<glyph glyph-name="gdotaccent" unicode="&#x121;" horiz-adv-x="600" d="M488 453 L478 409 C458 426 419 459 352 459 C204 459 76 329 76 193 C76 91 151 11 263 11 C337 11 384 42 403 54 L395 23 C373 -62 281 -63 241 -63 C201 -63 177 -59 151 -54 L132 -141 C159 -145 194 -149 238 -149 C446 -149 475 -18 488 43 L558 371 L637 371 L655 453 L488 453 Z M269 97 C213 97 169 138 169 200 C169 287 253 373 347 373 C403 373 445 329 445 274 C445 185 369 97 269 97 L269 97 Z M353 533 L449 533 L475 653 L378 653 L353 533 Z " />
<glyph glyph-name="Gcedilla" unicode="&#x122;" horiz-adv-x="600" d="M363 -14 C432 -7 477 10 544 35 L578 194 L624 194 L642 278 L363 278 L345 194 L489 194 L469 98 C448 90 397 70 332 70 C233 70 178 118 178 218 C178 370 286 515 421 515 C460 515 537 499 537 403 C537 393 537 388 535 348 L618 362 C623 444 647 517 670 570 L589 587 L569 524 C555 544 517 599 426 599 C234 599 85 406 85 216 C85 130 120 2 289 -15 L269 -77 C284 -79 311 -82 313 -83 C315 -83 336 -87 336 -92 C336 -98 320 -100 314 -100 C289 -100 250 -92 208 -82 L182 -150 C205 -157 256 -170 309 -170 C398 -170 421 -112 421 -83 C421 -46 395 -27 362 -18 L363 -14 Z " />
<glyph glyph-name="Hcircumflex" unicode="&#x124;" horiz-adv-x="600" d="M146 583 L128 501 L201 501 L113 82 L40 82 L22 0 L256 0 L274 82 L201 82 L239 259 L462 259 L425 82 L352 82 L334 0 L568 0 L586 82 L513 82 L601 501 L674 501 L692 583 L458 583 L440 501 L513 501 L479 343 L256 343 L289 501 L362 501 L380 583 L146 583 Z M420 782 L309 698 L358 665 L450 713 L528 665 L584 696 L506 782 L420 782 Z " />
<glyph glyph-name="hcircumflex" unicode="&#x125;" horiz-adv-x="600" d="M140 634 L130 549 L220 555 L119 82 L37 82 L21 0 L269 0 L287 82 L207 82 L255 307 C280 325 357 380 422 380 C447 380 479 364 479 336 C479 319 473 293 471 287 L428 82 L344 82 L328 0 L579 0 L598 82 L517 82 L558 280 C559 285 565 312 565 335 C565 415 498 468 424 468 C360 468 301 433 279 420 L328 648 L140 634 Z M390 830 L279 746 L328 713 L420 761 L498 713 L554 744 L476 830 L390 830 Z " />
<glyph glyph-name="Hbar" unicode="&#x126;" horiz-adv-x="600" d="M282 466 L290 501 L362 501 L380 583 L146 583 L128 501 L201 501 L193 466 L120 466 L103 382 L176 382 L113 82 L40 82 L22 0 L256 0 L274 82 L201 82 L239 259 L462 259 L425 82 L352 82 L334 0 L568 0 L586 82 L513 82 L576 382 L648 382 L666 466 L593 466 L601 501 L674 501 L692 583 L458 583 L440 501 L513 501 L505 466 L282 466 Z M487 382 L480 343 L257 343 L264 382 L487 382 Z " />
<glyph glyph-name="hbar" unicode="&#x127;" horiz-adv-x="600" d="M288 460 L509 460 L521 522 L301 522 L327 648 L142 634 L130 561 L220 567 L213 522 L119 522 L106 460 L201 460 L119 82 L37 82 L21 0 L269 0 L288 82 L208 82 L254 288 C311 325 361 357 417 357 C442 357 472 340 472 312 C472 298 466 270 465 265 L428 82 L344 82 L327 0 L579 0 L598 82 L517 82 L552 257 C553 262 558 288 558 307 C558 391 485 435 421 435 C369 435 319 416 273 389 L288 460 Z " />
<glyph glyph-name="Itilde" unicode="&#x128;" horiz-adv-x="600" d="M204 583 L186 501 L356 501 L267 82 L98 82 L80 0 L507 0 L525 82 L356 82 L444 501 L613 501 L631 583 L204 583 Z M566 789 C566 788 563 784 563 783 C551 763 533 734 509 734 C497 734 486 741 470 755 C452 770 432 787 395 787 C322 787 284 722 262 684 L328 660 C328 661 331 664 332 666 C348 691 362 714 385 714 C391 714 396 713 421 692 C454 664 477 661 494 661 C577 661 614 733 633 768 L566 789 Z " />
<glyph glyph-name="itilde" unicode="&#x129;" horiz-adv-x="600" d="M209 453 L191 371 L334 371 L273 82 L103 82 L85 0 L510 0 L528 82 L361 82 L440 453 L209 453 Z M536 659 C536 658 533 654 533 653 C521 633 503 604 479 604 C467 604 456 611 440 625 C422 640 402 657 365 657 C292 657 254 592 232 554 L298 530 C298 531 301 534 302 536 C318 561 332 584 355 584 C361 584 366 583 391 562 C424 534 447 531 464 531 C547 531 584 603 603 638 L536 659 Z " />
<glyph glyph-name="Imacron" unicode="&#x12a;" horiz-adv-x="600" d="M204 583 L186 501 L356 501 L267 82 L98 82 L80 0 L507 0 L525 82 L356 82 L444 501 L613 501 L631 583 L204 583 Z M285 765 L267 680 L609 680 L628 765 L285 765 Z " />
<glyph glyph-name="imacron" unicode="&#x12b;" horiz-adv-x="600" d="M209 453 L191 371 L334 371 L273 82 L103 82 L85 0 L510 0 L528 82 L361 82 L440 453 L209 453 Z M255 635 L237 550 L579 550 L598 635 L255 635 Z " />
<glyph glyph-name="Iogonek" unicode="&#x12e;" horiz-adv-x="600" d="M415 -47 C356 -75 349 -78 328 -78 C320 -78 304 -76 304 -63 C304 -32 388 -6 417 0 L507 0 L525 82 L356 82 L444 501 L613 501 L631 583 L204 583 L186 501 L356 501 L267 82 L98 82 L80 0 L279 0 L279 -2 C264 -8 208 -37 208 -86 C208 -126 247 -144 283 -144 C326 -144 354 -130 380 -116 L415 -47 Z " />
<glyph glyph-name="iogonek" unicode="&#x12f;" horiz-adv-x="600" d="M417 -47 C358 -75 352 -78 330 -78 C323 -78 307 -76 307 -63 C307 -33 385 -7 420 0 L510 0 L528 82 L361 82 L440 453 L209 453 L191 371 L334 371 L273 82 L103 82 L85 0 L282 0 L282 -2 C267 -8 211 -37 211 -86 C211 -127 250 -144 285 -144 C331 -144 363 -127 383 -116 L417 -47 Z M352 540 L459 540 L486 672 L380 672 L352 540 Z " />
<glyph glyph-name="Idotaccent" unicode="&#x130;" horiz-adv-x="600" d="M204 583 L186 501 L356 501 L267 82 L98 82 L80 0 L507 0 L525 82 L356 82 L444 501 L613 501 L631 583 L204 583 Z M383 663 L479 663 L505 783 L408 783 L383 663 Z " />
<glyph glyph-name="dotlessi" unicode="&#x131;" horiz-adv-x="600" d="M209 453 L191 371 L334 371 L273 82 L103 82 L85 0 L510 0 L528 82 L361 82 L440 453 L209 453 Z " />
<glyph glyph-name="IJ" unicode="&#x132;" horiz-adv-x="600" d="M189 82 L276 501 L367 501 L385 583 L128 583 L110 501 L194 501 L106 82 L22 82 L4 0 L257 0 L276 82 L189 82 Z M303 60 C311 40 333 -16 413 -16 C518 -16 551 79 580 217 L640 501 L701 501 L719 583 L475 583 L457 501 L552 501 L492 217 C465 88 448 70 424 70 C406 70 397 82 397 100 C397 122 407 176 408 179 L420 245 L338 245 L303 60 Z " />
<glyph glyph-name="ij" unicode="&#x133;" horiz-adv-x="600" d="M210 453 L192 371 L297 371 L237 82 L104 82 L86 0 L307 0 L403 453 L210 453 Z M315 540 L422 540 L450 672 L343 672 L315 540 Z M445 453 L427 371 L507 371 L445 65 C434 12 419 -60 306 -60 C256 -60 209 -49 174 -41 L135 -124 C176 -134 227 -146 288 -146 C486 -146 518 6 529 57 L614 453 L445 453 Z M507 540 L613 540 L641 672 L534 672 L507 540 Z " />
<glyph glyph-name="Jcircumflex" unicode="&#x134;" horiz-adv-x="600" d="M306 583 L288 501 L478 501 L419 221 C401 135 384 70 278 70 C233 70 165 90 165 131 C165 145 167 163 170 175 L190 292 L102 292 L61 52 C142 11 208 -16 282 -16 C353 -16 417 17 456 72 C478 103 491 140 506 213 L567 501 L690 501 L708 583 L306 583 Z M485 782 L374 698 L423 665 L515 713 L593 665 L649 696 L571 782 L485 782 Z " />
<glyph glyph-name="jcircumflex" unicode="&#x135;" horiz-adv-x="600" d="M166 453 L148 371 L392 371 L331 65 C320 11 304 -60 192 -60 C143 -60 96 -49 61 -41 L22 -124 C63 -134 115 -146 175 -146 C373 -146 406 6 417 57 L501 453 L166 453 Z M328 652 L218 568 L266 535 L358 583 L436 535 L493 566 L414 652 L328 652 Z " />
<glyph glyph-name="Kcedilla" unicode="&#x136;" horiz-adv-x="600" d="M167 583 L149 501 L231 501 L143 82 L61 82 L43 0 L295 0 L313 82 L231 82 L262 227 L319 270 C384 159 405 112 445 0 L593 0 L611 82 L509 82 C464 195 444 242 393 323 L620 501 L671 501 L689 583 L459 583 L442 501 L486 501 L486 499 L288 348 L319 501 L393 501 L413 583 L167 583 Z M412 7 L338 7 L310 -77 C325 -79 352 -82 355 -83 C356 -83 378 -87 378 -92 C378 -98 362 -100 355 -100 C330 -100 292 -92 249 -82 L224 -150 C247 -157 298 -170 350 -170 C439 -170 463 -112 463 -83 C463 -46 436 -27 404 -18 L412 7 Z " />
<glyph glyph-name="kcedilla" unicode="&#x137;" horiz-adv-x="600" d="M121 633 L111 547 L201 555 L101 82 L21 82 L3 0 L171 0 L210 183 L254 212 C296 163 314 139 355 82 L314 82 L296 0 L536 0 L554 82 L459 82 C422 144 393 180 329 260 L503 371 L579 371 L597 453 L348 453 L329 371 L362 371 L362 369 L233 295 L309 648 L121 633 Z M279 7 L206 7 L178 -77 C228 -83 246 -85 246 -93 C246 -94 246 -100 223 -100 C198 -100 159 -92 117 -82 L91 -150 C114 -157 165 -170 218 -170 C307 -170 330 -112 330 -83 C330 -46 304 -27 271 -18 L279 7 Z " />
<glyph glyph-name="kgreenlandic" unicode="&#x138;" horiz-adv-x="600" d="M84 453 L66 371 L161 371 L101 82 L21 82 L3 0 L171 0 L210 183 L254 212 C296 163 314 139 355 82 L314 82 L296 0 L536 0 L554 82 L459 82 C422 143 394 179 329 260 L503 371 L579 371 L597 453 L348 453 L329 371 L362 371 L362 369 L233 295 L267 453 L84 453 Z " />
<glyph glyph-name="Lacute" unicode="&#x139;" horiz-adv-x="600" d="M165 583 L147 501 L243 501 L155 82 L59 82 L41 0 L547 0 L619 278 L530 278 L478 82 L243 82 L332 501 L451 501 L469 583 L165 583 Z M494 768 L494 772 L354 772 L231 674 L320 674 L494 768 Z " />
<glyph glyph-name="lacute" unicode="&#x13a;" horiz-adv-x="600" d="M217 615 L208 530 L366 541 L269 82 L100 82 L82 0 L506 0 L524 82 L355 82 L471 631 L217 615 Z M582 816 L582 820 L442 820 L319 722 L408 722 L582 816 Z " />
<glyph glyph-name="Lcedilla" unicode="&#x13b;" horiz-adv-x="600" d="M360 0 L547 0 L619 278 L530 278 L478 82 L243 82 L332 501 L451 501 L469 583 L165 583 L147 501 L243 501 L155 82 L59 82 L41 0 L286 0 L261 -77 C276 -79 303 -82 306 -83 C307 -83 329 -87 329 -92 C329 -98 313 -100 306 -100 C281 -100 242 -92 200 -82 L174 -150 C198 -157 248 -170 301 -170 C390 -170 413 -112 413 -83 C413 -46 387 -27 354 -18 L360 0 Z " />
<glyph glyph-name="lcedilla" unicode="&#x13c;" horiz-adv-x="600" d="M332 0 L506 0 L524 82 L355 82 L471 631 L217 615 L208 530 L366 541 L269 82 L100 82 L82 0 L258 0 L233 -77 C248 -79 275 -82 277 -83 C279 -83 300 -87 300 -92 C300 -98 284 -100 278 -100 C253 -100 214 -92 171 -82 L146 -150 C169 -157 220 -170 273 -170 C362 -170 385 -112 385 -83 C385 -46 359 -27 326 -18 L332 0 Z " />
<glyph glyph-name="Lcaron" unicode="&#x13d;" horiz-adv-x="600" d="M165 583 L147 501 L243 501 L155 82 L59 82 L41 0 L547 0 L619 278 L530 278 L478 82 L243 82 L332 501 L451 501 L469 583 L165 583 Z M363 665 L473 749 L425 782 L333 734 L254 782 L198 751 L277 665 L363 665 Z " />
<glyph glyph-name="lcaron" unicode="&#x13e;" horiz-adv-x="600" d="M217 615 L208 530 L366 541 L269 82 L100 82 L82 0 L506 0 L524 82 L355 82 L471 631 L217 615 Z M451 713 L561 797 L513 830 L421 782 L342 830 L286 799 L365 713 L451 713 Z " />
<glyph glyph-name="Ldot" unicode="&#x13f;" horiz-adv-x="600" d="M165 583 L147 501 L243 501 L155 82 L59 82 L41 0 L547 0 L619 278 L531 278 L478 82 L243 82 L332 501 L451 501 L469 583 L165 583 Z M440 397 C390 397 339 357 339 307 C339 267 373 243 411 243 C460 243 511 283 511 333 C511 374 475 397 440 397 L440 397 Z " />
<glyph glyph-name="ldot" unicode="&#x140;" horiz-adv-x="600" d="M217 615 L208 530 L366 541 L269 82 L100 82 L82 0 L506 0 L524 82 L355 82 L471 631 L217 615 Z M549 370 C501 370 449 331 449 280 C449 239 485 217 521 217 C569 217 621 256 621 307 C621 347 585 370 549 370 L549 370 Z " />
<glyph glyph-name="Lslash" unicode="&#x141;" horiz-adv-x="600" d="M304 367 L332 501 L451 501 L469 583 L165 583 L147 501 L243 501 L205 322 L88 262 L116 183 L183 218 L155 82 L59 82 L41 0 L547 0 L619 278 L532 278 L478 82 L243 82 L282 262 L521 386 L493 464 L304 367 Z " />
<glyph glyph-name="lslash" unicode="&#x142;" horiz-adv-x="600" d="M421 397 L471 631 L217 615 L208 530 L365 541 L326 354 L146 261 L174 183 L304 250 L269 82 L100 82 L82 0 L505 0 L523 82 L355 82 L399 293 L579 386 L551 464 L421 397 Z " />
<glyph glyph-name="Nacute" unicode="&#x143;" horiz-adv-x="600" d="M130 583 L112 501 L183 501 L95 82 L30 82 L12 0 L261 0 L279 82 L183 82 L257 432 L275 432 L421 -12 L527 -12 L636 501 L696 501 L714 583 L473 583 L455 501 L548 501 L473 146 L455 146 L313 583 L130 583 Z M612 768 L612 772 L472 772 L349 674 L438 674 L612 768 Z " />
<glyph glyph-name="nacute" unicode="&#x144;" horiz-adv-x="600" d="M113 453 L95 371 L175 371 L113 82 L34 82 L16 0 L266 0 L283 82 L203 82 L251 309 C341 372 385 380 416 380 C447 380 475 362 475 335 C475 320 469 292 468 287 L425 82 L340 82 L324 0 L576 0 L594 82 L513 82 L554 280 C556 285 561 313 561 335 C561 420 490 468 422 468 C379 468 332 453 274 420 L283 453 L113 453 Z M582 638 L582 642 L442 642 L319 544 L408 544 L582 638 Z " />
<glyph glyph-name="Ncedilla" unicode="&#x145;" horiz-adv-x="600" d="M130 583 L112 501 L183 501 L95 82 L30 82 L12 0 L261 0 L279 82 L183 82 L257 432 L275 432 L421 -12 L527 -12 L636 501 L696 501 L714 583 L473 583 L455 501 L548 501 L473 146 L455 146 L313 583 L130 583 Z M375 7 L302 7 L274 -77 C289 -79 316 -82 319 -83 C320 -83 342 -87 342 -92 C342 -98 326 -100 319 -100 C294 -100 255 -92 213 -82 L187 -150 C211 -157 261 -170 314 -170 C403 -170 427 -112 427 -83 C427 -46 400 -27 367 -18 L375 7 Z " />
<glyph glyph-name="ncedilla" unicode="&#x146;" horiz-adv-x="600" d="M330 0 L576 0 L594 82 L513 82 L554 280 C556 285 561 313 561 335 C561 420 490 468 422 468 C379 468 332 453 274 420 L283 453 L113 453 L95 371 L175 371 L113 82 L34 82 L16 0 L257 0 L231 -77 C246 -79 274 -82 276 -83 C278 -83 298 -87 298 -92 C298 -98 283 -100 276 -100 C251 -100 213 -92 170 -82 L145 -150 C168 -157 219 -170 272 -170 C360 -170 384 -112 384 -83 C384 -46 357 -27 325 -18 L330 0 Z M268 7 L283 82 L203 82 L251 309 C325 361 375 380 415 380 C452 380 475 359 475 335 C475 319 469 294 468 287 L425 82 L340 82 L325 7 L268 7 Z " />
<glyph glyph-name="Ncaron" unicode="&#x147;" horiz-adv-x="600" d="M130 583 L112 501 L183 501 L95 82 L30 82 L12 0 L261 0 L279 82 L183 82 L257 432 L275 432 L421 -12 L527 -12 L636 501 L696 501 L714 583 L473 583 L455 501 L548 501 L473 146 L455 146 L313 583 L130 583 Z M481 665 L591 749 L543 782 L451 734 L372 782 L316 751 L395 665 L481 665 Z " />
<glyph glyph-name="ncaron" unicode="&#x148;" horiz-adv-x="600" d="M113 453 L95 371 L175 371 L113 82 L34 82 L16 0 L266 0 L283 82 L203 82 L251 309 C341 372 385 380 416 380 C447 380 475 362 475 335 C475 320 469 292 468 287 L425 82 L340 82 L324 0 L576 0 L594 82 L513 82 L554 280 C556 285 561 313 561 335 C561 420 490 468 422 468 C379 468 332 453 274 420 L283 453 L113 453 Z M451 535 L561 619 L513 652 L421 604 L342 652 L286 621 L365 535 L451 535 Z " />
<glyph glyph-name="Eng" unicode="&#x14a;" horiz-adv-x="600" d="M151 583 L133 501 L215 501 L127 82 L45 82 L27 0 L279 0 L297 82 L215 82 L288 424 C329 457 412 506 481 506 C522 506 537 485 537 456 C537 451 537 440 533 424 L454 47 C448 22 421 -42 347 -42 L260 -42 L241 -131 L340 -131 C416 -131 516 -79 540 36 L619 410 C620 415 625 437 625 456 C625 498 608 595 495 595 C420 595 358 563 312 539 L321 583 L151 583 Z " />
<glyph glyph-name="eng" unicode="&#x14b;" horiz-adv-x="600" d="M252 311 C313 350 365 381 420 381 C452 381 473 361 473 324 C473 312 471 301 469 291 L416 47 C409 13 375 -46 308 -46 L229 -46 L210 -134 L302 -134 C377 -134 478 -81 503 36 L556 286 C557 291 561 312 561 331 C561 403 519 469 424 469 C360 469 302 437 275 422 L283 453 L114 453 L95 371 L175 371 L114 82 L34 82 L16 0 L266 0 L283 82 L203 82 L252 311 Z " />
<glyph glyph-name="Omacron" unicode="&#x14c;" horiz-adv-x="600" d="M80 224 C80 162 102 -16 297 -16 C493 -16 633 184 633 365 C633 446 596 599 415 599 C213 599 80 389 80 224 L80 224 Z M173 227 C173 355 273 515 410 515 C523 515 540 405 540 362 C540 220 435 68 302 68 C185 68 173 184 173 227 L173 227 Z M285 765 L267 680 L609 680 L628 765 L285 765 Z " />
<glyph glyph-name="omacron" unicode="&#x14d;" horiz-adv-x="600" d="M391 474 C194 474 79 319 79 183 C79 52 175 -14 296 -14 C491 -14 607 142 607 277 C607 402 517 474 391 474 L391 474 Z M384 388 C477 388 514 331 514 271 C514 181 434 72 303 72 C209 72 172 126 172 188 C172 278 248 388 384 388 L384 388 Z M255 635 L237 550 L579 550 L598 635 L255 635 Z " />
<glyph glyph-name="Ohungarumlaut" unicode="&#x150;" horiz-adv-x="600" d="M80 224 C80 162 102 -16 297 -16 C493 -16 633 184 633 365 C633 446 596 599 415 599 C213 599 80 389 80 224 L80 224 Z M173 227 C173 355 273 515 410 515 C523 515 540 405 540 362 C540 220 435 68 302 68 C185 68 173 184 173 227 L173 227 Z M518 787 L402 787 L264 658 L336 658 L518 787 Z M680 787 L564 787 L426 658 L498 658 L680 787 Z " />
<glyph glyph-name="ohungarumlaut" unicode="&#x151;" horiz-adv-x="600" d="M391 474 C194 474 79 319 79 183 C79 52 175 -14 296 -14 C491 -14 607 142 607 277 C607 402 517 474 391 474 L391 474 Z M384 388 C477 388 514 331 514 271 C514 181 434 72 303 72 C209 72 172 126 172 188 C172 278 248 388 384 388 L384 388 Z M488 657 L372 657 L234 528 L306 528 L488 657 Z M650 657 L534 657 L396 528 L468 528 L650 657 Z " />
<glyph glyph-name="OE" unicode="&#x152;" horiz-adv-x="600" d="M717 583 L367 583 C186 583 54 384 54 203 C54 143 76 53 143 16 C170 0 187 0 247 0 L596 0 L641 218 L564 218 L530 82 L386 82 L426 268 L461 268 L444 192 L521 192 L570 420 L494 420 L479 345 L444 345 L475 501 L616 501 L596 367 L675 367 L717 583 Z M314 126 C304 80 254 74 238 74 C178 74 135 116 135 209 C135 363 246 506 345 506 C352 506 388 503 388 483 C388 477 387 469 386 466 L314 126 Z " />
<glyph glyph-name="oe" unicode="&#x153;" horiz-adv-x="600" d="M608 198 C617 225 631 266 631 324 C631 412 585 474 511 474 C443 474 397 430 382 415 C363 440 336 474 270 474 C94 474 29 238 29 128 C29 94 42 -14 165 -14 C237 -14 276 18 308 51 C325 27 353 -14 439 -14 C498 -14 537 11 575 36 L537 110 C490 78 475 70 444 70 C394 70 373 98 373 154 C373 173 374 184 377 198 L608 198 Z M393 280 C418 363 474 393 506 393 C541 393 545 343 545 320 C545 301 543 291 541 280 L393 280 Z M283 174 C264 79 185 72 170 72 C129 72 124 111 124 137 C124 222 174 390 266 390 C297 390 317 370 317 347 C317 340 315 336 308 300 L283 174 Z " />
<glyph glyph-name="Racute" unicode="&#x154;" horiz-adv-x="600" d="M152 583 L134 501 L213 501 L125 82 L46 82 L28 0 L281 0 L301 82 L213 82 L248 249 L332 249 C371 169 406 86 429 0 L582 0 L600 82 L503 82 C482 143 465 180 429 256 C460 265 483 273 510 291 C558 324 597 382 597 448 C597 583 479 583 414 583 L152 583 Z M408 501 C469 501 508 501 508 446 C508 408 484 377 460 359 C424 332 372 333 333 333 L265 333 L301 501 L408 501 Z M612 768 L612 772 L472 772 L349 674 L438 674 L612 768 Z " />
<glyph glyph-name="racute" unicode="&#x155;" horiz-adv-x="600" d="M162 453 L144 371 L257 371 L196 82 L75 82 L57 0 L449 0 L467 82 L283 82 L319 252 C351 289 429 378 502 378 C543 378 549 343 553 319 L645 331 C641 354 624 464 509 464 C471 464 412 454 352 397 L350 399 L362 453 L162 453 Z M582 638 L582 642 L442 642 L319 544 L408 544 L582 638 Z " />
<glyph glyph-name="Rcedilla" unicode="&#x156;" horiz-adv-x="600" d="M152 583 L134 501 L213 501 L125 82 L46 82 L28 0 L281 0 L301 82 L213 82 L248 249 L332 249 C371 169 406 86 429 0 L582 0 L600 82 L503 82 C482 145 464 182 429 256 C460 265 483 273 510 291 C558 324 597 382 597 448 C597 583 479 583 414 583 L152 583 Z M408 501 C469 501 508 501 508 446 C508 408 484 377 460 359 C424 332 372 333 333 333 L265 333 L301 501 L408 501 Z M380 7 L306 7 L279 -77 C293 -79 321 -82 323 -83 C325 -83 346 -87 346 -92 C346 -98 330 -100 323 -100 C299 -100 260 -92 217 -82 L192 -150 C215 -157 266 -170 319 -170 C408 -170 431 -112 431 -83 C431 -46 404 -27 372 -18 L380 7 Z " />
<glyph glyph-name="rcedilla" unicode="&#x157;" horiz-adv-x="600" d="M380 0 L449 0 L467 82 L283 82 L319 252 C351 289 429 378 502 378 C543 378 549 343 553 319 L645 331 C641 354 624 464 509 464 C471 464 412 454 352 397 L350 399 L362 453 L162 453 L144 371 L257 371 L196 82 L75 82 L57 0 L306 0 L281 -77 C295 -79 323 -82 325 -83 C327 -83 348 -87 348 -92 C348 -98 332 -100 325 -100 C301 -100 262 -92 219 -82 L194 -150 C217 -157 268 -170 321 -170 C410 -170 433 -112 433 -83 C433 -46 406 -27 374 -18 L380 0 Z " />
<glyph glyph-name="Rcaron" unicode="&#x158;" horiz-adv-x="600" d="M152 583 L134 501 L213 501 L125 82 L46 82 L28 0 L281 0 L301 82 L213 82 L248 249 L332 249 C371 169 406 86 429 0 L582 0 L600 82 L503 82 C482 143 465 180 429 256 C460 265 483 273 510 291 C558 324 597 382 597 448 C597 583 479 583 414 583 L152 583 Z M408 501 C469 501 508 501 508 446 C508 408 484 377 460 359 C424 332 372 333 333 333 L265 333 L301 501 L408 501 Z M481 665 L591 749 L543 782 L451 734 L372 782 L316 751 L395 665 L481 665 Z " />
<glyph glyph-name="rcaron" unicode="&#x159;" horiz-adv-x="600" d="M162 453 L144 371 L257 371 L196 82 L75 82 L57 0 L449 0 L467 82 L283 82 L319 252 C351 289 429 378 502 378 C543 378 549 343 553 319 L645 331 C641 354 624 464 509 464 C471 464 412 454 352 397 L350 399 L362 453 L162 453 Z M451 535 L561 619 L513 652 L421 604 L342 652 L286 621 L365 535 L451 535 Z " />
<glyph glyph-name="Sacute" unicode="&#x15a;" horiz-adv-x="600" d="M569 606 L540 542 C506 586 454 602 401 602 C255 602 168 503 168 412 C168 365 192 316 229 288 C255 269 291 256 347 251 C413 246 465 242 465 185 C465 132 414 75 311 75 C271 75 203 85 183 135 C177 150 178 155 178 204 L101 204 C90 112 83 84 49 -5 L131 -18 L151 48 C186 13 219 -14 310 -14 C497 -14 556 112 556 188 C556 255 520 291 484 312 C444 334 404 337 366 339 C325 342 259 346 259 413 C259 468 317 516 405 516 C448 516 510 504 510 432 C510 412 507 397 504 383 L580 371 C597 466 602 495 645 583 L569 606 Z M612 768 L612 772 L472 772 L349 674 L438 674 L612 768 Z " />
<glyph glyph-name="sacute" unicode="&#x15b;" horiz-adv-x="600" d="M520 476 L502 425 C458 469 376 469 368 469 C251 469 154 398 154 309 C154 197 285 189 353 186 C358 185 382 184 386 184 C459 180 459 167 459 154 C459 102 385 75 315 75 C307 75 214 75 200 126 C197 137 197 141 197 174 L117 169 C113 104 106 63 81 -4 L159 -15 L175 36 C216 2 268 -11 320 -11 C440 -11 550 60 550 157 C550 263 437 268 355 273 C272 278 245 288 245 316 C245 347 292 383 368 383 C396 383 436 377 454 367 C474 356 477 343 477 321 C477 311 477 306 475 298 L553 298 C555 338 560 378 590 466 L520 476 Z M582 638 L582 642 L442 642 L319 544 L408 544 L582 638 Z " />
<glyph glyph-name="Scircumflex" unicode="&#x15c;" horiz-adv-x="600" d="M569 606 L540 542 C506 586 454 602 401 602 C255 602 168 503 168 412 C168 365 192 316 229 288 C255 269 291 256 347 251 C413 246 465 242 465 185 C465 132 414 75 311 75 C271 75 203 85 183 135 C177 150 178 155 178 204 L101 204 C90 112 83 84 49 -5 L131 -18 L151 48 C186 13 219 -14 310 -14 C497 -14 556 112 556 188 C556 255 520 291 484 312 C444 334 404 337 366 339 C325 342 259 346 259 413 C259 468 317 516 405 516 C448 516 510 504 510 432 C510 412 507 397 504 383 L580 371 C597 466 602 495 645 583 L569 606 Z M420 782 L309 698 L358 665 L450 713 L528 665 L584 696 L506 782 L420 782 Z " />
<glyph glyph-name="scircumflex" unicode="&#x15d;" horiz-adv-x="600" d="M520 476 L502 425 C458 469 376 469 368 469 C251 469 154 398 154 309 C154 197 285 189 353 186 C358 185 382 184 386 184 C459 180 459 167 459 154 C459 102 385 75 315 75 C307 75 214 75 200 126 C197 137 197 141 197 174 L117 169 C113 104 106 63 81 -4 L159 -15 L175 36 C216 2 268 -11 320 -11 C440 -11 550 60 550 157 C550 263 437 268 355 273 C272 278 245 288 245 316 C245 347 292 383 368 383 C396 383 436 377 454 367 C474 356 477 343 477 321 C477 311 477 306 475 298 L553 298 C555 338 560 378 590 466 L520 476 Z M390 652 L279 568 L328 535 L420 583 L498 535 L554 566 L476 652 L390 652 Z " />
<glyph glyph-name="Scedilla" unicode="&#x15e;" horiz-adv-x="600" d="M333 -13 C501 -3 556 114 556 188 C556 247 523 326 389 338 C311 344 259 349 259 413 C259 468 317 516 405 516 C448 516 510 504 510 432 C510 412 507 397 504 383 L580 371 C597 466 602 495 645 583 L569 606 L540 542 C506 586 454 602 401 602 C255 602 168 503 168 412 C168 365 192 316 229 288 C255 269 291 256 347 251 C413 246 465 242 465 185 C465 132 414 75 311 75 C271 75 203 85 183 135 C177 150 178 155 178 204 L101 204 C90 110 83 84 49 -5 L131 -18 L151 48 C178 21 206 -2 260 -10 L238 -77 C249 -79 285 -83 293 -85 C300 -87 306 -91 306 -93 C306 -95 299 -100 283 -100 C251 -100 193 -86 177 -82 L152 -150 C175 -157 225 -170 278 -170 C367 -170 391 -112 391 -83 C391 -49 369 -28 331 -18 L333 -13 Z " />
<glyph glyph-name="scedilla" unicode="&#x15f;" horiz-adv-x="600" d="M349 -10 C465 2 550 72 550 157 C550 263 437 268 355 273 C272 278 245 288 245 316 C245 347 292 383 368 383 C396 383 436 377 454 367 C474 356 477 343 477 321 C477 311 477 306 475 298 L553 298 C555 338 560 378 590 466 L520 476 L502 425 C458 469 376 469 368 469 C251 469 154 398 154 309 C154 272 175 227 232 204 C259 193 291 189 386 184 C459 180 459 167 459 154 C459 102 385 75 315 75 C307 75 214 75 200 126 C197 137 197 141 197 174 L117 169 C113 104 106 63 81 -4 L159 -15 L175 36 C190 23 217 2 276 -8 L253 -77 C268 -79 295 -82 298 -83 C299 -83 321 -87 321 -92 C321 -98 305 -100 298 -100 C273 -100 235 -92 192 -82 L167 -150 C190 -157 241 -170 294 -170 C382 -170 406 -112 406 -83 C406 -46 379 -27 347 -18 L349 -10 Z " />
<glyph glyph-name="Scaron" unicode="&#x160;" horiz-adv-x="600" d="M569 606 L540 542 C506 586 454 602 401 602 C255 602 168 503 168 412 C168 365 192 316 229 288 C255 269 291 256 347 251 C413 246 465 242 465 185 C465 132 414 75 311 75 C271 75 203 85 183 135 C177 150 178 155 178 204 L101 204 C90 112 83 84 49 -5 L131 -18 L151 48 C186 13 219 -14 310 -14 C497 -14 556 112 556 188 C556 255 520 291 484 312 C444 334 404 337 366 339 C325 342 259 346 259 413 C259 468 317 516 405 516 C448 516 510 504 510 432 C510 412 507 397 504 383 L580 371 C597 466 602 495 645 583 L569 606 Z M481 665 L591 749 L543 782 L451 734 L372 782 L316 751 L395 665 L481 665 Z " />
<glyph glyph-name="scaron" unicode="&#x161;" horiz-adv-x="600" d="M520 476 L502 425 C458 469 376 469 368 469 C251 469 154 398 154 309 C154 197 285 189 353 186 C358 185 382 184 386 184 C459 180 459 167 459 154 C459 102 385 75 315 75 C307 75 214 75 200 126 C197 137 197 141 197 174 L117 169 C113 104 106 63 81 -4 L159 -15 L175 36 C216 2 268 -11 320 -11 C440 -11 550 60 550 157 C550 263 437 268 355 273 C272 278 245 288 245 316 C245 347 292 383 368 383 C396 383 436 377 454 367 C474 356 477 343 477 321 C477 311 477 306 475 298 L553 298 C555 338 560 378 590 466 L520 476 Z M451 535 L561 619 L513 652 L421 604 L342 652 L286 621 L365 535 L451 535 Z " />
<glyph glyph-name="Tcedilla" unicode="&#x162;" horiz-adv-x="600" d="M348 0 L461 0 L479 82 L361 82 L448 501 L574 501 L552 341 L639 341 L673 583 L172 583 L103 341 L191 341 L236 501 L361 501 L273 82 L157 82 L139 0 L274 0 L249 -77 C264 -79 291 -82 294 -83 C295 -83 317 -87 317 -92 C317 -98 301 -100 294 -100 C269 -100 231 -92 188 -82 L162 -150 C186 -157 237 -170 289 -170 C378 -170 402 -112 402 -83 C402 -46 375 -27 342 -18 L348 0 Z " />
<glyph glyph-name="tcedilla" unicode="&#x163;" horiz-adv-x="600" d="M370 -11 C406 -6 467 9 557 47 L557 138 C419 84 379 73 328 73 C318 73 267 73 267 115 C267 132 274 164 279 189 L316 357 L531 357 L548 441 L334 441 L363 583 L276 583 L246 441 L180 441 L162 357 L229 357 L195 198 C182 137 179 120 179 101 C179 84 187 6 296 -12 L275 -77 C290 -79 318 -82 320 -83 C322 -83 343 -87 343 -92 C343 -98 327 -100 321 -100 C296 -100 256 -92 213 -82 L188 -150 C211 -157 262 -170 315 -170 C404 -170 427 -112 427 -83 C427 -46 401 -27 368 -18 L370 -11 Z " />
<glyph glyph-name="Tcaron" unicode="&#x164;" horiz-adv-x="600" d="M172 583 L103 341 L191 341 L236 501 L361 501 L273 82 L157 82 L139 0 L461 0 L479 82 L361 82 L448 501 L574 501 L552 341 L639 341 L673 583 L172 583 Z M481 665 L591 749 L543 782 L451 734 L372 782 L316 751 L395 665 L481 665 Z " />
<glyph glyph-name="tcaron" unicode="&#x165;" horiz-adv-x="600" d="M276 583 L246 441 L180 441 L162 357 L229 357 L195 198 C182 137 179 120 179 101 C179 47 228 -14 326 -14 C385 -14 458 5 557 47 L557 138 C419 84 379 72 328 72 C318 72 267 73 267 115 C267 132 274 164 279 189 L316 357 L531 357 L548 441 L334 441 L363 583 L276 583 Z M392 641 L502 725 L454 758 L362 710 L283 758 L227 727 L306 641 L392 641 Z " />
<glyph glyph-name="Tbar" unicode="&#x166;" horiz-adv-x="600" d="M419 381 L444 501 L573 501 L546 307 L632 319 L669 583 L164 583 L89 319 L175 307 L227 501 L357 501 L332 381 L244 381 L227 297 L314 297 L269 82 L153 82 L135 0 L457 0 L475 82 L357 82 L401 297 L490 297 L508 381 L419 381 Z " />
<glyph glyph-name="tbar" unicode="&#x167;" horiz-adv-x="600" d="M307 323 L317 363 L551 363 L567 441 L333 441 L363 583 L276 583 L247 441 L181 441 L165 363 L231 363 L221 323 L155 323 L139 245 L205 245 L195 198 C183 143 180 134 180 107 C180 29 246 -14 326 -14 C394 -14 469 11 559 49 L542 131 C400 77 367 72 329 72 C322 72 268 73 268 112 C268 125 270 137 280 189 L291 245 L525 245 L542 323 L307 323 Z " />
<glyph glyph-name="Utilde" unicode="&#x168;" horiz-adv-x="600" d="M138 583 L120 501 L191 501 L138 252 C125 188 123 160 123 140 C123 33 209 -16 302 -16 C356 -16 423 -1 477 43 C518 76 541 119 565 229 L622 501 L691 501 L708 583 L456 583 L438 501 L536 501 L482 242 C464 156 447 72 308 72 C295 72 211 72 211 145 C211 177 220 223 224 242 L279 501 L377 501 L395 583 L138 583 Z M566 789 C566 788 563 784 563 783 C551 763 533 734 509 734 C497 734 486 741 470 755 C452 770 432 787 395 787 C322 787 284 722 262 684 L328 660 C328 661 331 664 332 666 C348 691 362 714 385 714 C391 714 396 713 421 692 C454 664 477 661 494 661 C577 661 614 733 633 768 L566 789 Z " />
<glyph glyph-name="utilde" unicode="&#x169;" horiz-adv-x="600" d="M113 453 L96 371 L174 371 L134 183 C133 178 127 149 127 127 C127 85 150 -14 267 -14 C338 -14 382 16 404 30 L396 0 L562 0 L580 82 L502 82 L580 453 L410 453 L392 371 L474 371 L427 149 C376 100 319 72 269 72 C225 72 215 111 215 126 C215 144 220 169 221 175 L281 453 L113 453 Z M536 659 C536 658 533 654 533 653 C521 633 503 604 479 604 C467 604 456 611 440 625 C422 640 402 657 365 657 C292 657 254 592 232 554 L298 530 C298 531 301 534 302 536 C318 561 332 584 355 584 C361 584 366 583 391 562 C424 534 447 531 464 531 C547 531 584 603 603 638 L536 659 Z " />
<glyph glyph-name="Umacron" unicode="&#x16a;" horiz-adv-x="600" d="M138 583 L120 501 L191 501 L138 252 C125 188 123 160 123 140 C123 33 209 -16 302 -16 C356 -16 423 -1 477 43 C518 76 541 119 565 229 L622 501 L691 501 L708 583 L456 583 L438 501 L536 501 L482 242 C464 156 447 72 308 72 C295 72 211 72 211 145 C211 177 220 223 224 242 L279 501 L377 501 L395 583 L138 583 Z M285 765 L267 680 L609 680 L628 765 L285 765 Z " />
<glyph glyph-name="umacron" unicode="&#x16b;" horiz-adv-x="600" d="M113 453 L96 371 L174 371 L134 183 C133 178 127 149 127 127 C127 85 150 -14 267 -14 C338 -14 382 16 404 30 L396 0 L562 0 L580 82 L502 82 L580 453 L410 453 L392 371 L474 371 L427 149 C376 100 319 72 269 72 C225 72 215 111 215 126 C215 144 220 169 221 175 L281 453 L113 453 Z M255 635 L237 550 L579 550 L598 635 L255 635 Z " />
<glyph glyph-name="Ubreve" unicode="&#x16c;" horiz-adv-x="600" d="M138 583 L120 501 L191 501 L138 252 C125 188 123 160 123 140 C123 33 209 -16 302 -16 C356 -16 423 -1 477 43 C518 76 541 119 565 229 L622 501 L691 501 L708 583 L456 583 L438 501 L536 501 L482 242 C464 156 447 72 308 72 C295 72 211 72 211 145 C211 177 220 223 224 242 L279 501 L377 501 L395 583 L138 583 Z M288 792 C290 764 290 750 299 731 C325 675 380 653 438 653 C482 653 532 665 579 702 C616 732 627 754 645 792 L566 792 C565 792 564 789 563 787 C538 741 492 721 449 721 C374 721 368 767 365 792 L288 792 Z " />
<glyph glyph-name="ubreve" unicode="&#x16d;" horiz-adv-x="600" d="M113 453 L96 371 L174 371 L134 183 C133 178 127 149 127 127 C127 85 150 -14 267 -14 C338 -14 382 16 404 30 L396 0 L562 0 L580 82 L502 82 L580 453 L410 453 L392 371 L474 371 L427 149 C376 100 319 72 269 72 C225 72 215 111 215 126 C215 144 220 169 221 175 L281 453 L113 453 Z M258 662 C260 634 260 620 269 601 C295 545 350 523 408 523 C452 523 502 535 549 572 C586 602 597 624 615 662 L536 662 C535 662 534 659 533 657 C508 611 462 591 419 591 C344 591 338 637 335 662 L258 662 Z " />
<glyph glyph-name="Uring" unicode="&#x16e;" horiz-adv-x="600" d="M138 583 L120 501 L191 501 L138 252 C125 188 123 160 123 140 C123 33 209 -16 302 -16 C356 -16 423 -1 477 43 C518 76 541 119 565 229 L622 501 L691 501 L708 583 L456 583 L438 501 L536 501 L482 242 C464 156 447 72 308 72 C295 72 211 72 211 145 C211 177 220 223 224 242 L279 501 L377 501 L395 583 L138 583 Z M513 734 C513 784 473 824 423 824 C374 824 334 784 334 734 C334 685 374 645 423 645 C473 645 513 685 513 734 L513 734 Z M455 734 C455 717 441 703 423 703 C406 703 392 717 392 734 C392 752 406 766 423 766 C441 766 455 752 455 734 L455 734 Z " />
<glyph glyph-name="uring" unicode="&#x16f;" horiz-adv-x="600" d="M113 453 L96 371 L174 371 L134 183 C133 178 127 149 127 127 C127 85 150 -14 267 -14 C338 -14 382 16 404 30 L396 0 L562 0 L580 82 L502 82 L580 453 L410 453 L392 371 L474 371 L427 149 C376 100 319 72 269 72 C225 72 215 111 215 126 C215 144 220 169 221 175 L281 453 L113 453 Z M483 604 C483 654 443 694 393 694 C344 694 304 654 304 604 C304 555 344 515 393 515 C443 515 483 555 483 604 L483 604 Z M425 604 C425 587 411 573 393 573 C376 573 362 587 362 604 C362 622 376 636 393 636 C411 636 425 622 425 604 L425 604 Z " />
<glyph glyph-name="Uhungarumlaut" unicode="&#x170;" horiz-adv-x="600" d="M138 583 L120 501 L191 501 L138 252 C125 188 123 160 123 140 C123 33 209 -16 302 -16 C356 -16 423 -1 477 43 C518 76 541 119 565 229 L622 501 L691 501 L708 583 L456 583 L438 501 L536 501 L482 242 C464 156 447 72 308 72 C295 72 211 72 211 145 C211 177 220 223 224 242 L279 501 L377 501 L395 583 L138 583 Z M518 787 L402 787 L264 658 L336 658 L518 787 Z M680 787 L564 787 L426 658 L498 658 L680 787 Z " />
<glyph glyph-name="uhungarumlaut" unicode="&#x171;" horiz-adv-x="600" d="M113 453 L96 371 L174 371 L134 183 C133 178 127 149 127 127 C127 85 150 -14 267 -14 C338 -14 382 16 404 30 L396 0 L562 0 L580 82 L502 82 L580 453 L410 453 L392 371 L474 371 L427 149 C376 100 319 72 269 72 C225 72 215 111 215 126 C215 144 220 169 221 175 L281 453 L113 453 Z M488 657 L372 657 L234 528 L306 528 L488 657 Z M650 657 L534 657 L396 528 L468 528 L650 657 Z " />
<glyph glyph-name="Uogonek" unicode="&#x172;" horiz-adv-x="600" d="M403 -47 C344 -75 338 -78 316 -78 C309 -78 293 -76 293 -63 C293 -40 334 -22 350 -17 C487 28 529 60 565 229 L622 501 L691 501 L708 583 L456 583 L438 501 L536 501 L482 242 C464 156 447 72 308 72 C295 72 211 72 211 145 C211 177 220 223 224 242 L279 501 L377 501 L395 583 L138 583 L120 501 L191 501 L138 252 C125 188 123 160 123 140 C123 20 226 -5 249 -10 C239 -17 197 -44 197 -86 C197 -126 235 -144 271 -144 C314 -144 342 -130 368 -116 L403 -47 Z " />
<glyph glyph-name="uogonek" unicode="&#x173;" horiz-adv-x="600" d="M580 82 L502 82 L580 453 L410 453 L392 371 L474 371 L427 149 C376 100 319 72 269 72 C225 72 215 111 215 126 C215 144 220 169 221 175 L281 453 L113 453 L96 371 L174 371 L134 183 C133 178 127 149 127 127 C127 85 150 -14 267 -14 C338 -14 382 16 404 30 L396 0 C333 -34 327 -71 327 -86 C327 -126 365 -144 401 -144 C444 -144 473 -130 499 -116 L533 -47 C474 -75 468 -78 446 -78 C439 -78 423 -76 423 -63 C423 -28 529 0 536 0 L562 0 L580 82 Z " />
<glyph glyph-name="Ydieresis" unicode="&#x178;" horiz-adv-x="600" d="M138 583 L121 501 L194 501 L300 229 L270 82 L154 82 L138 0 L452 0 L471 82 L357 82 L386 220 L613 501 L680 501 L698 583 L471 583 L452 501 L509 501 L361 317 L290 501 L351 501 L369 583 L138 583 Z M314 663 L411 663 L437 778 L340 778 L314 663 Z M462 663 L559 663 L585 778 L488 778 L462 663 Z " />
<glyph glyph-name="Zacute" unicode="&#x179;" horiz-adv-x="600" d="M196 583 L148 358 L234 358 L264 501 L482 501 L81 74 L66 0 L523 0 L574 241 L489 241 L456 82 L204 82 L610 513 L625 583 L196 583 Z M612 768 L612 772 L472 772 L349 674 L438 674 L612 768 Z " />
<glyph glyph-name="zacute" unicode="&#x17a;" horiz-adv-x="600" d="M191 453 L155 284 L240 284 L260 371 L444 371 L100 75 L84 0 L504 0 L541 174 L454 174 L435 82 L240 82 L586 382 L601 453 L191 453 Z M582 638 L582 642 L442 642 L319 544 L408 544 L582 638 Z " />
<glyph glyph-name="Zdotaccent" unicode="&#x17b;" horiz-adv-x="600" d="M196 583 L148 358 L234 358 L264 501 L482 501 L81 74 L66 0 L523 0 L574 241 L489 241 L456 82 L204 82 L610 513 L625 583 L196 583 Z M383 663 L479 663 L505 783 L408 783 L383 663 Z " />
<glyph glyph-name="zdotaccent" unicode="&#x17c;" horiz-adv-x="600" d="M191 453 L155 284 L240 284 L260 371 L444 371 L100 75 L84 0 L504 0 L541 174 L454 174 L435 82 L240 82 L586 382 L601 453 L191 453 Z M353 533 L449 533 L475 653 L378 653 L353 533 Z " />
<glyph glyph-name="Zcaron" unicode="&#x17d;" horiz-adv-x="600" d="M196 583 L148 358 L234 358 L264 501 L482 501 L81 74 L66 0 L523 0 L574 241 L489 241 L456 82 L204 82 L610 513 L625 583 L196 583 Z M481 665 L591 749 L543 782 L451 734 L372 782 L316 751 L395 665 L481 665 Z " />
<glyph glyph-name="zcaron" unicode="&#x17e;" horiz-adv-x="600" d="M191 453 L155 284 L240 284 L260 371 L444 371 L100 75 L84 0 L504 0 L541 174 L454 174 L435 82 L240 82 L586 382 L601 453 L191 453 Z M451 535 L561 619 L513 652 L421 604 L342 652 L286 621 L365 535 L451 535 Z " />
<glyph glyph-name="florin" unicode="&#x192;" horiz-adv-x="600" d="M253 480 L218 396 L321 396 L198 82 C176 26 162 -9 87 -9 C65 -9 54 -5 41 0 L-12 -88 C7 -92 18 -95 60 -95 C213 -95 253 -14 281 59 L412 396 L513 396 L549 480 L445 480 L454 501 C480 561 496 594 559 594 C582 594 598 588 611 583 L664 672 C645 675 618 680 587 680 C432 680 396 588 372 526 L354 480 L253 480 Z " />
<glyph glyph-name="gacute" unicode="&#x1f5;" horiz-adv-x="600" d="M488 453 L478 409 C458 426 419 459 352 459 C204 459 76 329 76 193 C76 91 151 11 263 11 C337 11 384 42 403 54 L395 23 C373 -62 281 -63 241 -63 C201 -63 177 -59 151 -54 L132 -141 C159 -145 194 -149 238 -149 C446 -149 475 -18 488 43 L558 371 L637 371 L655 453 L488 453 Z M269 97 C213 97 169 138 169 200 C169 287 253 373 347 373 C403 373 445 329 445 274 C445 185 369 97 269 97 L269 97 Z M582 638 L582 642 L442 642 L319 544 L408 544 L582 638 Z " />
<glyph glyph-name="circumflex" unicode="&#x2c6;" horiz-adv-x="600" d="M390 652 L279 568 L328 535 L420 583 L498 535 L554 566 L476 652 L390 652 Z " />
<glyph glyph-name="caron" unicode="&#x2c7;" horiz-adv-x="600" d="M451 535 L561 619 L513 652 L421 604 L342 652 L286 621 L365 535 L451 535 Z " />
<glyph glyph-name="breve" unicode="&#x2d8;" horiz-adv-x="600" d="M258 662 C260 634 260 620 269 601 C295 545 350 523 408 523 C452 523 502 535 549 572 C586 602 597 624 615 662 L536 662 C535 662 534 659 533 657 C508 611 462 591 419 591 C344 591 338 637 335 662 L258 662 Z " />
<glyph glyph-name="dotaccent" unicode="&#x2d9;" horiz-adv-x="600" d="M353 533 L449 533 L475 653 L378 653 L353 533 Z " />
<glyph glyph-name="ring" unicode="&#x2da;" horiz-adv-x="600" d="M483 604 C483 654 443 694 393 694 C344 694 304 654 304 604 C304 555 344 515 393 515 C443 515 483 555 483 604 L483 604 Z M425 604 C425 587 411 573 393 573 C376 573 362 587 362 604 C362 622 376 636 393 636 C411 636 425 622 425 604 L425 604 Z " />
<glyph glyph-name="ogonek" unicode="&#x2db;" horiz-adv-x="600" d="M386 -47 C327 -75 320 -78 299 -78 C291 -78 275 -76 275 -63 C275 -45 299 -30 320 -19 C345 -6 353 -1 391 16 L391 19 L303 19 C230 0 179 -41 179 -86 C179 -126 218 -144 254 -144 C297 -144 325 -130 351 -116 L386 -47 Z " />
<glyph glyph-name="tilde" unicode="&#x2dc;" horiz-adv-x="600" d="M536 659 C536 658 533 654 533 653 C521 633 503 604 479 604 C467 604 456 611 440 625 C422 640 402 657 365 657 C292 657 254 592 232 554 L298 530 C298 531 301 534 302 536 C318 561 332 584 355 584 C361 584 366 583 391 562 C424 534 447 531 464 531 C547 531 584 603 603 638 L536 659 Z " />
<glyph glyph-name="hungarumlaut" unicode="&#x2dd;" horiz-adv-x="600" d="M488 657 L372 657 L234 528 L306 528 L488 657 Z M650 657 L534 657 L396 528 L468 528 L650 657 Z " />
<glyph glyph-name="Gamma" unicode="&#x393;" horiz-adv-x="600" d="M164 583 L147 501 L236 501 L147 82 L70 82 L53 0 L341 0 L358 82 L229 82 L319 501 L566 501 L547 371 L626 371 L666 583 L164 583 Z " />
<glyph glyph-name="Theta" unicode="&#x398;" horiz-adv-x="600" d="M221 193 L293 193 L305 252 L389 252 L377 193 L449 193 L489 382 L417 382 L404 323 L320 323 L333 382 L261 382 L221 193 Z M79 212 C79 99 152 -17 298 -17 C494 -17 633 184 633 374 C633 485 557 599 416 599 C218 599 79 398 79 212 L79 212 Z M167 224 C167 367 271 518 407 518 C508 518 545 433 545 356 C545 222 445 64 306 64 C199 64 167 158 167 224 L167 224 Z " />
<glyph glyph-name="Sigma" unicode="&#x3a3;" horiz-adv-x="600" d="M656 583 L162 583 L147 511 L257 302 L51 74 L35 0 L535 0 L577 214 L498 214 L464 82 L158 82 L352 296 L245 501 L545 501 L526 371 L605 371 L656 583 Z " />
<glyph glyph-name="Phi" unicode="&#x3a6;" horiz-adv-x="600" d="M368 519 L359 478 C97 467 97 267 97 257 C97 219 113 169 163 139 C204 114 257 110 282 109 L271 63 L195 63 L182 0 L429 0 L441 63 L354 63 L364 110 C396 111 460 113 522 150 C594 193 626 269 626 327 C626 368 607 420 554 451 C517 473 463 476 443 478 L452 519 L527 519 L540 583 L292 583 L279 519 L368 519 Z M297 187 C263 189 183 190 183 266 C183 276 183 395 343 400 L297 187 Z M426 400 C458 399 540 397 540 321 C540 307 541 194 380 188 L426 400 Z " />
<glyph glyph-name="alpha" unicode="&#x3b1;" horiz-adv-x="600" d="M504 82 C499 118 494 137 482 185 C478 205 477 207 475 217 L624 458 L544 476 L449 316 C432 366 397 468 286 468 C151 468 32 328 32 171 C32 67 101 -15 198 -15 C307 -15 379 78 409 117 C421 50 423 34 428 0 L557 0 L574 82 L504 82 Z M390 219 C322 116 267 66 213 66 C173 66 120 96 120 178 C120 279 192 387 281 387 C340 387 360 320 390 219 L390 219 Z " />
<glyph glyph-name="delta" unicode="&#x3b4;" horiz-adv-x="600" d="M587 633 L223 633 L206 551 C222 529 231 521 254 501 L330 435 C163 425 79 274 79 174 C79 68 159 -15 273 -15 C415 -15 551 111 551 262 C551 316 531 371 446 444 L320 551 L570 551 L587 633 Z M348 363 C367 363 465 357 465 252 C465 161 383 67 278 67 C203 67 165 124 165 180 C165 269 240 363 348 363 L348 363 Z " />
<glyph glyph-name="epsilon" unicode="&#x3b5;" horiz-adv-x="600" d="M508 476 L490 415 C464 436 417 473 342 473 C253 473 149 417 149 328 C149 293 174 263 209 242 C131 219 76 159 76 104 C76 37 150 -15 251 -15 C337 -15 405 14 447 31 C448 32 451 33 452 33 L445 112 C358 79 322 67 266 67 C183 67 164 101 164 119 C164 148 211 198 340 198 C365 198 387 196 399 195 L416 275 C397 275 386 274 379 274 C292 274 237 299 237 335 C237 366 279 395 345 395 C457 395 463 348 470 286 L540 296 C546 368 553 395 581 470 L508 476 Z " />
<glyph glyph-name="pi" unicode="&#x3c0;" horiz-adv-x="600" d="M611 453 L75 453 L58 371 L145 371 L83 82 L9 82 L-8 0 L215 0 L230 82 L166 82 L230 371 L436 371 L374 82 L315 82 L298 0 L527 0 L544 82 L457 82 L520 371 L593 371 L611 453 Z " />
<glyph glyph-name="sigma" unicode="&#x3c3;" horiz-adv-x="600" d="M649 473 L420 473 C363 473 261 474 182 420 C113 373 50 282 50 179 C50 85 125 -15 254 -15 C418 -15 543 134 543 271 C543 353 504 382 482 396 L484 398 L631 388 L649 473 Z M334 389 C411 389 455 330 455 268 C455 168 369 69 263 69 C177 69 138 134 138 192 C138 288 220 389 334 389 L334 389 Z " />
<glyph glyph-name="tau" unicode="&#x3c4;" horiz-adv-x="600" d="M360 371 L509 371 L526 453 L234 453 C226 453 209 453 194 450 C157 442 153 441 135 436 L119 360 C175 370 223 371 230 371 L277 371 L219 98 C218 94 214 78 214 63 C214 11 251 -9 297 -9 C336 -9 371 1 405 20 C406 20 408 22 409 22 L413 103 C411 102 405 97 401 94 C382 81 361 67 331 67 C310 67 302 75 302 88 C302 98 304 108 305 115 L360 371 Z " />
<glyph glyph-name="phi" unicode="&#x3c6;" horiz-adv-x="600" d="M316 -13 C375 -9 446 -2 544 101 C599 159 612 246 612 289 C612 412 520 474 447 474 C332 474 309 364 303 337 L249 81 C183 105 174 174 174 194 C174 217 179 306 283 368 L304 466 C246 442 196 422 142 348 C114 310 83 251 83 180 C83 127 102 74 142 37 C175 7 214 -2 230 -6 L199 -151 L287 -151 L316 -13 Z M391 338 C393 351 402 388 436 388 C472 388 521 344 521 273 C521 245 512 191 484 159 C414 79 374 75 334 71 L391 338 Z " />
<glyph glyph-name="endash" unicode="&#x2013;" horiz-adv-x="600" d="M140 345 L140 253 L589 253 L589 345 L140 345 Z " />
<glyph glyph-name="emdash" unicode="&#x2014;" horiz-adv-x="600" d="M16 345 L16 253 L713 253 L713 345 L16 345 Z " />
<glyph glyph-name="longdash" unicode="&#x2015;" horiz-adv-x="600" d="M113 345 L113 253 L616 253 L616 345 L113 345 Z " />
<glyph glyph-name="underscoredbl" unicode="&#x2017;" horiz-adv-x="600" d="M648 -175 L-48 -175 L-48 -225 L648 -225 L648 -175 Z M-48 -75 L-48 -125 L648 -125 L648 -75 L-48 -75 Z " />
<glyph glyph-name="quoteleft" unicode="&#x2018;" horiz-adv-x="600" d="M365 309 L509 583 L399 583 L219 309 L365 309 Z " />
<glyph glyph-name="quoteright" unicode="&#x2019;" horiz-adv-x="600" d="M365 583 L221 309 L331 309 L511 583 L365 583 Z " />
<glyph glyph-name="quotesinglbase" unicode="&#x201a;" horiz-adv-x="600" d="M274 168 L130 -106 L240 -106 L420 168 L274 168 Z " />
<glyph glyph-name="quotedblleft" unicode="&#x201c;" horiz-adv-x="600" d="M499 309 L643 583 L533 583 L353 309 L499 309 Z M294 309 L438 583 L328 583 L148 309 L294 309 Z " />
<glyph glyph-name="quotedblright" unicode="&#x201d;" horiz-adv-x="600" d="M263 583 L119 309 L229 309 L409 583 L263 583 Z M468 583 L324 309 L434 309 L614 583 L468 583 Z " />
<glyph glyph-name="quotedblbase" unicode="&#x201e;" horiz-adv-x="600" d="M171 168 L26 -106 L136 -106 L317 168 L171 168 Z M376 168 L232 -106 L341 -106 L522 168 L376 168 Z " />
<glyph glyph-name="dagger" unicode="&#x2020;" horiz-adv-x="600" d="M369 583 L340 453 L233 453 L213 363 L321 363 L233 -48 L327 -48 L414 363 L522 363 L540 453 L433 453 L461 583 L369 583 Z " />
<glyph glyph-name="daggerdbl" unicode="&#x2021;" horiz-adv-x="600" d="M370 583 L340 448 L234 448 L213 362 L322 362 L298 249 L193 249 L175 163 L280 163 L234 -48 L327 -48 L370 163 L476 163 L496 249 L391 249 L415 362 L522 362 L540 448 L434 448 L462 583 L370 583 Z " />
<glyph glyph-name="bullet" unicode="&#x2022;" horiz-adv-x="600" d="M357 395 C419 395 469 346 469 284 C469 222 419 172 357 172 C295 172 246 222 246 284 C246 346 295 395 357 395 L357 395 Z " />
<glyph glyph-name="ellipsis" unicode="&#x2026;" horiz-adv-x="600" d="M97 -16 C148 -16 201 28 201 86 C201 130 165 154 129 154 C80 154 26 111 26 52 C26 6 64 -16 97 -16 L97 -16 Z M296 -16 C347 -16 400 28 400 86 C400 130 364 154 329 154 C279 154 225 111 225 52 C225 5 264 -16 296 -16 L296 -16 Z M496 -16 C546 -16 599 27 599 86 C599 130 563 154 528 154 C479 154 424 111 424 52 C424 6 462 -16 496 -16 L496 -16 Z " />
<glyph glyph-name="perthousand" unicode="&#x2030;" horiz-adv-x="600" d="M186 639 C86 639 11 554 11 476 C11 425 45 365 131 365 C234 365 306 452 306 527 C306 584 264 639 186 639 L186 639 Z M176 574 C205 574 233 557 233 518 C233 477 194 430 140 430 C119 430 84 441 84 485 C84 524 121 574 176 574 L176 574 Z M210 261 C110 261 34 176 34 98 C34 49 67 -14 154 -14 C257 -14 329 73 329 149 C329 205 289 261 210 261 L210 261 Z M200 196 C231 196 256 177 256 140 C256 98 217 51 164 51 C140 51 107 64 107 106 C107 146 144 196 200 196 L200 196 Z M528 261 C428 261 352 175 352 98 C352 46 387 -14 472 -14 C576 -14 647 74 647 148 C647 204 607 261 528 261 L528 261 Z M518 196 C548 196 574 178 574 140 C574 98 535 51 482 51 C459 51 425 64 425 106 C425 146 463 196 518 196 L518 196 Z M452 423 L20 298 L34 247 L467 371 L452 423 Z " />
<glyph glyph-name="guilsinglleft" unicode="&#x2039;" horiz-adv-x="600" d="M493 440 L188 240 L412 38 L475 107 L321 240 L532 371 L493 440 Z " />
<glyph glyph-name="guilsinglright" unicode="&#x203a;" horiz-adv-x="600" d="M285 440 L220 371 L375 240 L165 111 L201 38 L508 240 L285 440 Z " />
<glyph glyph-name="exclamdbl" unicode="&#x203c;" horiz-adv-x="600" d="M369 591 L247 591 L181 187 L264 187 L369 591 Z M206 141 C153 141 108 100 108 53 C108 13 141 -16 184 -16 C236 -16 283 25 283 73 C283 111 251 141 206 141 L206 141 Z M595 591 L473 591 L407 187 L490 187 L595 591 Z M432 141 C379 141 333 100 333 53 C333 12 368 -16 410 -16 C463 -16 508 25 508 73 C508 110 478 141 432 141 L432 141 Z " />
<glyph glyph-name="overline" unicode="&#x203e;" horiz-adv-x="600" d="M555 805 L45 805 L45 718 L555 718 L555 805 Z " />
<glyph glyph-name="fraction" unicode="&#x2044;" horiz-adv-x="600" d="M565 648 L10 34 L52 -5 L611 611 L565 648 Z " />
<glyph glyph-name="zerosuperior" unicode="&#x2070;" horiz-adv-x="600" d="M383 639 C339 639 300 618 271 580 C233 531 204 435 204 357 C204 286 237 246 297 246 C341 246 380 266 409 304 C447 354 476 450 476 530 C476 598 441 639 383 639 L383 639 Z M370 584 C399 584 414 562 414 518 C414 456 397 382 368 340 C350 314 332 301 310 301 C282 301 266 324 266 365 C266 426 288 509 314 548 C330 572 349 584 370 584 L370 584 Z " />
<glyph glyph-name="foursuperior" unicode="&#x2074;" horiz-adv-x="600" d="M449 639 L386 639 L182 390 L172 344 L328 344 L321 307 L242 307 L231 254 L420 254 L431 307 L379 307 L386 344 L439 344 L450 394 L397 394 L449 639 Z M339 394 L249 394 L369 543 L371 541 L339 394 Z " />
<glyph glyph-name="fivesuperior" unicode="&#x2075;" horiz-adv-x="600" d="M263 631 L221 434 L249 417 C284 440 305 447 333 447 C368 447 393 427 393 394 C393 342 352 302 295 302 C265 302 238 311 196 332 L164 278 C198 264 210 259 223 255 C243 249 265 246 286 246 C378 246 454 318 454 405 C454 465 413 503 347 503 C328 503 312 501 290 494 L307 575 L476 575 L488 631 L263 631 Z " />
<glyph glyph-name="sixsuperior" unicode="&#x2076;" horiz-adv-x="600" d="M507 638 L490 638 L458 639 C385 641 331 621 289 579 C235 526 198 437 198 360 C198 292 239 246 299 246 C377 246 447 318 447 397 C447 456 410 495 353 495 C330 495 308 489 286 475 L284 477 C292 497 303 514 320 533 C351 569 385 580 445 580 L473 580 L491 579 L507 638 Z M262 388 C272 402 276 407 282 412 C298 427 323 437 344 437 C369 437 386 417 386 387 C386 342 352 304 313 304 C283 304 259 332 259 369 L262 388 Z " />
<glyph glyph-name="sevensuperior" unicode="&#x2077;" horiz-adv-x="600" d="M266 631 L243 522 L301 522 L312 575 L448 575 L262 254 L328 254 L516 587 L525 631 L266 631 Z " />
<glyph glyph-name="eightsuperior" unicode="&#x2078;" horiz-adv-x="600" d="M192 337 C192 284 236 246 298 246 C381 246 452 310 452 383 C452 408 442 430 421 447 C464 480 483 511 483 553 C483 602 440 639 382 639 C305 639 235 577 235 509 C235 486 242 470 261 447 C216 418 192 380 192 337 L192 337 Z M297 519 C297 554 330 583 370 583 C400 583 421 566 421 540 C421 506 384 473 346 473 C318 473 297 493 297 519 L297 519 Z M254 348 C254 384 291 417 335 417 C368 417 390 397 390 369 C390 333 352 302 310 302 C278 302 254 321 254 348 L254 348 Z " />
<glyph glyph-name="ninesuperior" unicode="&#x2079;" horiz-adv-x="600" d="M184 247 L201 247 L233 246 C306 244 360 264 402 306 C456 359 493 448 493 525 C493 593 452 639 392 639 C314 639 244 567 244 488 C244 429 281 390 338 390 C361 390 383 396 405 410 L407 408 C399 388 388 371 371 352 C340 316 306 305 246 305 L218 305 L200 306 L184 247 Z M429 497 C419 483 415 478 409 473 C393 458 368 448 347 448 C322 448 305 468 305 498 C305 543 339 581 378 581 C408 581 432 553 432 516 L429 497 Z " />
<glyph glyph-name="plussuperior" unicode="&#x207a;" horiz-adv-x="600" d="M292 592 L292 476 L163 476 L163 409 L292 409 L292 292 L368 292 L368 409 L497 409 L497 476 L368 476 L368 592 L292 592 Z " />
<glyph glyph-name="minussuperior" unicode="&#x207b;" horiz-adv-x="600" d="M497 476 L163 476 L163 409 L497 409 L497 476 Z " />
<glyph glyph-name="parenleftsuperior" unicode="&#x207d;" horiz-adv-x="600" d="M494 675 C411 586 350 489 350 385 C350 327 364 270 390 218 C391 217 393 214 393 213 L469 213 C468 214 466 220 465 223 C464 225 464 228 456 251 C439 299 432 337 432 379 C432 493 504 581 580 675 L494 675 Z " />
<glyph glyph-name="parenrightsuperior" unicode="&#x207e;" horiz-adv-x="600" d="M280 213 C366 305 424 402 424 504 C424 590 393 652 382 675 L306 675 C333 596 342 561 342 510 C342 398 275 312 207 229 C205 226 197 215 194 213 L280 213 Z " />
<glyph glyph-name="nsuperior" unicode="&#x207f;" horiz-adv-x="600" d="M223 590 L207 516 L263 516 L223 334 L168 334 L153 260 L333 260 L350 334 L300 334 L333 482 C373 510 409 525 440 525 C457 525 473 518 473 503 C473 495 471 480 469 473 L439 334 L385 334 L370 260 L552 260 L568 334 L515 334 L545 473 C547 483 550 502 550 520 C550 594 479 599 458 599 C418 599 384 588 350 567 L354 590 L223 590 Z " />
<glyph glyph-name="Pts" unicode="&#x20a7;" horiz-adv-x="600" d="M125 583 L111 509 L156 509 L61 74 L16 74 L1 0 L170 0 L184 74 L135 74 L184 300 L230 300 C346 300 515 300 515 461 C515 583 394 583 333 583 L125 583 Z M255 265 L241 207 L208 207 L195 142 L230 142 L219 102 C216 91 211 73 211 55 C211 -6 269 -14 285 -14 C301 -14 316 -11 351 0 L343 66 C310 55 307 53 298 53 C297 53 279 54 279 70 C279 76 280 83 284 102 L293 142 L356 142 L370 207 L307 207 L320 265 L255 265 Z M545 213 C533 218 518 225 496 225 C440 225 399 188 399 143 C399 104 427 87 476 83 C520 79 525 79 525 65 C525 49 502 41 481 41 C463 41 452 44 446 49 C440 54 438 60 436 66 L387 66 C387 60 386 59 383 44 C383 41 380 25 379 23 C377 10 374 1 372 -6 L426 -13 L430 0 C445 -9 453 -14 486 -14 C545 -14 590 21 590 69 C590 115 547 128 504 129 C478 130 464 131 464 148 C464 164 479 171 499 171 C503 171 538 171 539 149 L584 149 C587 176 596 208 598 216 L549 224 L545 213 Z M313 509 C357 509 436 509 436 452 C436 371 334 371 246 371 L199 371 L230 509 L313 509 Z " />
<glyph glyph-name="trademark" unicode="&#x2122;" horiz-adv-x="600" d="M356 535 C357 543 361 565 363 574 C364 576 365 582 365 583 L142 583 C135 551 132 541 119 500 C118 498 116 489 115 487 L156 487 C166 537 183 538 213 540 L166 316 C162 298 158 298 122 298 L115 259 L247 259 L256 298 C228 297 220 298 220 307 L269 540 L285 540 C307 540 312 535 312 523 C312 514 311 506 307 487 L348 487 C348 490 349 497 350 500 L356 535 Z M392 546 C396 545 399 545 403 545 C418 545 421 542 418 527 L377 321 C373 298 370 298 344 298 L336 259 L431 259 L438 298 C414 299 412 299 412 305 L413 316 L444 479 L446 479 L474 259 L490 259 L596 473 L598 471 L568 316 C564 299 563 299 534 298 L527 259 L640 259 L647 298 C622 300 619 300 622 316 L664 527 C668 546 671 546 696 546 L704 583 L616 583 L517 393 L515 393 L490 583 L400 583 L392 546 Z " />
<glyph glyph-name="Omega" unicode="&#x2126;" horiz-adv-x="600" d="M20 0 L271 0 L305 159 C195 177 165 223 165 282 C165 398 262 518 407 518 C500 518 571 462 571 371 C571 306 540 238 490 200 C441 162 390 160 361 159 L327 0 L576 0 L600 106 L529 106 L520 69 L422 69 L431 106 C588 144 655 274 655 381 C655 510 546 600 411 600 C232 600 81 450 81 277 C81 147 183 121 218 106 L209 69 L106 69 L114 106 L44 106 L20 0 Z " />
<glyph glyph-name="ohm" unicode="&#x2126;" horiz-adv-x="600" d="M22 0 L272 0 L272 146 C231 153 103 177 103 324 C103 458 219 518 300 518 C382 518 497 457 497 324 C497 179 372 154 329 146 L329 0 L578 0 L578 116 L507 116 L507 76 L405 76 L405 96 C580 143 581 303 581 329 C581 488 452 599 300 599 C151 599 19 491 19 328 C19 225 73 126 196 96 L196 76 L93 76 L93 116 L22 116 L22 0 Z " />
<glyph glyph-name="oneeighth" unicode="&#x215b;" horiz-adv-x="600" d="M362 3 C362 -50 406 -88 468 -88 C551 -88 622 -24 622 49 C622 74 612 96 591 113 C634 146 653 177 653 219 C653 268 610 305 552 305 C475 305 405 243 405 175 C405 152 412 136 431 113 C386 84 362 46 362 3 L362 3 Z M467 185 C467 220 500 249 540 249 C570 249 591 232 591 206 C591 172 554 139 516 139 C488 139 467 159 467 185 L467 185 Z M424 14 C424 50 461 83 505 83 C538 83 560 63 560 35 C560 -1 522 -32 480 -32 C448 -32 424 -13 424 14 L424 14 Z M124 592 L137 538 L214 569 L160 316 L79 316 L67 259 L286 259 L298 316 L219 316 L289 643 L249 643 L124 592 Z M703 657 L31 -58 L69 -94 L743 624 L703 657 Z " />
<glyph glyph-name="threeeighths" unicode="&#x215c;" horiz-adv-x="600" d="M349 3 C349 -50 393 -88 455 -88 C538 -88 609 -24 609 49 C609 74 599 96 578 113 C621 146 640 177 640 219 C640 268 597 305 539 305 C462 305 392 243 392 175 C392 152 399 136 418 113 C373 84 349 46 349 3 L349 3 Z M454 185 C454 220 487 249 527 249 C557 249 578 232 578 206 C578 172 541 139 503 139 C475 139 454 159 454 185 L454 185 Z M411 14 C411 50 448 83 492 83 C525 83 547 63 547 35 C547 -1 509 -32 467 -32 C435 -32 411 -13 411 14 L411 14 Z M123 549 L149 563 C183 581 200 588 221 588 C247 588 266 572 266 551 C266 534 258 517 244 505 C226 490 214 488 167 487 L155 430 L188 431 C227 432 249 415 249 387 C249 343 211 307 163 307 C135 307 110 315 65 339 L31 286 L56 275 C98 257 119 251 150 251 C235 251 310 318 310 395 C310 423 299 448 277 465 C312 495 324 518 327 563 C325 612 288 644 234 644 C196 644 170 634 103 596 L123 549 Z M672 657 L0 -58 L39 -94 L713 624 L672 657 Z " />
<glyph glyph-name="fiveeighths" unicode="&#x215d;" horiz-adv-x="600" d="M349 3 C349 -50 393 -88 455 -88 C538 -88 609 -24 609 49 C609 74 599 96 578 113 C621 146 640 177 640 219 C640 268 597 305 539 305 C462 305 392 243 392 175 C392 152 399 136 418 113 C373 84 349 46 349 3 L349 3 Z M454 185 C454 220 487 249 527 249 C557 249 578 232 578 206 C578 172 541 139 503 139 C475 139 454 159 454 185 L454 185 Z M411 14 C411 50 448 83 492 83 C525 83 547 63 547 35 C547 -1 509 -32 467 -32 C435 -32 411 -13 411 14 L411 14 Z M135 631 L93 434 L121 417 C156 440 177 447 205 447 C240 447 265 427 265 394 C265 342 224 302 167 302 C137 302 110 311 68 332 L36 278 C70 264 82 259 95 255 C115 249 137 246 158 246 C250 246 326 318 326 405 C326 465 285 503 219 503 C200 503 184 501 162 494 L179 575 L348 575 L360 631 L135 631 Z M678 657 L7 -58 L45 -94 L719 624 L678 657 Z " />
<glyph glyph-name="seveneighths" unicode="&#x215e;" horiz-adv-x="600" d="M349 3 C349 -50 393 -88 455 -88 C538 -88 609 -24 609 49 C609 74 599 96 578 113 C621 146 640 177 640 219 C640 268 597 305 539 305 C462 305 392 243 392 175 C392 152 399 136 418 113 C373 84 349 46 349 3 L349 3 Z M454 185 C454 220 487 249 527 249 C557 249 578 232 578 206 C578 172 541 139 503 139 C475 139 454 159 454 185 L454 185 Z M411 14 C411 50 448 83 492 83 C525 83 547 63 547 35 C547 -1 509 -32 467 -32 C435 -32 411 -13 411 14 L411 14 Z M109 634 L86 525 L144 525 L155 578 L288 578 L102 259 L170 259 L356 587 L367 634 L109 634 Z M645 657 L-27 -58 L12 -94 L686 624 L645 657 Z " />
<glyph glyph-name="arrowleft" unicode="&#x2190;" horiz-adv-x="600" d="M574 257 L574 317 L165 317 C181 341 205 384 205 402 C205 408 201 421 184 421 C178 421 171 418 163 408 C137 378 115 356 57 322 C23 301 18 299 18 289 C18 276 26 272 37 266 C112 223 136 197 151 181 C168 162 175 154 185 154 C201 154 205 168 205 173 C205 173 203 202 165 257 L574 257 Z " />
<glyph glyph-name="arrowup" unicode="&#x2191;" horiz-adv-x="600" d="M331 0 L331 441 C384 405 413 401 415 401 C422 401 434 407 434 422 C434 432 428 437 423 442 C378 480 364 500 337 544 C311 586 310 588 299 588 C290 588 283 578 279 571 C253 527 233 494 197 459 C170 433 167 430 167 422 C167 406 179 401 186 401 C202 401 242 423 271 441 L271 0 L331 0 Z " />
<glyph glyph-name="arrowright" unicode="&#x2192;" horiz-adv-x="600" d="M26 257 L435 257 C399 204 395 175 395 173 C395 166 401 154 416 154 C426 154 431 160 436 165 C474 210 494 223 538 251 C580 277 582 278 582 289 C582 298 572 305 565 309 C521 335 487 354 453 391 C427 418 424 421 416 421 C400 421 395 409 395 402 C395 386 417 346 435 317 L26 317 L26 257 Z " />
<glyph glyph-name="arrowdown" unicode="&#x2193;" horiz-adv-x="600" d="M270 563 L270 122 C217 158 188 162 186 162 C179 162 167 156 167 141 C167 131 173 126 178 121 C223 83 237 63 264 19 C290 -23 291 -25 302 -25 C311 -25 318 -15 322 -8 C348 36 368 69 404 104 C431 130 434 133 434 141 C434 157 422 162 415 162 C399 162 359 140 330 122 L330 563 L270 563 Z " />
<glyph glyph-name="arrowboth" unicode="&#x2194;" horiz-adv-x="600" d="M167 317 C174 328 207 380 207 403 C207 410 201 421 186 421 C176 421 170 414 161 404 C128 364 96 343 60 322 C26 301 22 299 22 289 C22 276 30 272 40 266 C112 225 140 195 154 180 C177 155 178 154 187 154 C201 154 207 166 207 173 C207 175 202 207 167 257 L432 257 C396 204 392 176 392 173 C392 168 396 154 413 154 C423 154 427 158 435 167 C469 206 481 217 543 256 C577 277 578 278 578 289 C578 299 570 304 554 313 C493 347 462 377 450 391 C426 418 423 421 413 421 C396 421 392 407 392 402 C392 385 415 344 432 317 L167 317 Z " />
<glyph glyph-name="minus" unicode="&#x2212;" horiz-adv-x="600" d="M611 356 L119 356 L119 269 L611 269 L611 356 Z " />
<glyph glyph-name="radical" unicode="&#x221a;" horiz-adv-x="600" d="M52 344 L52 258 L136 258 L203 0 L274 0 L478 719 L697 719 L697 805 L412 805 L247 216 L245 216 L213 344 L52 344 Z " />
<glyph glyph-name="infinity" unicode="&#x221e;" horiz-adv-x="600" d="M363 377 C331 417 284 441 233 441 C178 441 106 401 106 311 C106 226 171 183 234 183 C249 183 309 184 365 247 C389 224 432 183 497 183 C580 183 623 247 623 313 C623 394 564 442 494 442 C426 442 385 400 363 377 L363 377 Z M423 314 C436 328 461 354 496 354 C515 354 537 342 537 313 C537 301 531 273 499 273 C466 273 446 292 439 298 L423 314 Z M306 313 C274 280 251 273 230 273 C217 273 192 278 192 312 C192 352 227 353 232 353 C255 353 277 343 306 313 L306 313 Z " />
<glyph glyph-name="rightangle" unicode="&#x221f;" horiz-adv-x="600" d="M587 0 L587 88 L221 88 L221 454 L133 454 L133 0 L587 0 Z " />
<glyph glyph-name="intersection" unicode="&#x2229;" horiz-adv-x="600" d="M221 0 L221 264 C221 352 221 413 245 449 C273 491 320 513 364 513 C405 513 456 494 484 450 C508 413 507 360 507 264 L507 0 L595 0 L595 261 C595 374 594 439 560 493 C525 548 455 599 364 599 C291 599 215 564 169 494 C133 439 133 384 133 261 L134 0 L221 0 Z " />
<glyph glyph-name="similar" unicode="&#x223c;" horiz-adv-x="600" d="M529 412 C502 368 485 340 456 340 C441 340 423 348 383 366 C312 397 290 397 277 397 C206 397 170 335 145 291 L141 285 L201 216 L207 229 C231 272 248 295 277 295 C291 295 331 279 358 268 C411 246 429 238 456 238 C523 238 559 297 584 339 L588 345 L529 412 Z " />
<glyph glyph-name="approxequal" unicode="&#x2248;" horiz-adv-x="600" d="M539 510 C538 508 533 500 532 499 C516 471 496 438 466 438 C452 438 446 441 393 464 C335 489 309 495 285 495 C217 495 179 430 152 383 L211 314 C240 367 256 393 288 393 C299 393 306 392 331 381 C334 379 346 375 355 371 L368 366 C374 364 401 352 407 350 C421 344 444 336 467 336 C533 336 565 392 596 443 L539 510 Z M539 291 C538 289 533 281 532 280 C516 252 496 219 466 219 C452 219 446 222 393 245 C335 270 309 276 285 276 C217 276 179 211 152 164 L211 95 C240 148 256 174 288 174 C299 174 306 173 331 162 C334 160 346 156 355 152 L368 147 C374 145 401 133 407 131 C421 125 444 117 467 117 C533 117 565 173 596 224 L539 291 Z " />
<glyph glyph-name="notequal" unicode="&#x2260;" horiz-adv-x="600" d="M426 334 L585 334 L585 416 L468 416 L522 523 L436 567 L360 416 L143 416 L143 334 L318 334 L303 303 L143 303 L143 221 L262 221 L206 109 L291 64 L369 221 L585 221 L585 303 L411 303 L426 334 Z " />
<glyph glyph-name="equivalence" unicode="&#x2261;" horiz-adv-x="600" d="M117 531 L117 443 L612 443 L612 531 L117 531 Z M117 357 L117 269 L612 269 L612 357 L117 357 Z M117 182 L117 94 L612 94 L612 182 L117 182 Z " />
<glyph glyph-name="lessequal" unicode="&#x2264;" horiz-adv-x="600" d="M581 610 L69 373 L581 130 L616 209 L269 372 L617 532 L581 610 Z M594 106 L105 106 L105 18 L594 18 L594 106 Z " />
<glyph glyph-name="greaterequal" unicode="&#x2265;" horiz-adv-x="600" d="M133 610 L97 532 L445 372 L97 209 L133 130 L644 373 L133 610 Z M120 106 L120 18 L608 18 L608 106 L120 106 Z " />
<glyph glyph-name="SF100000" unicode="&#x2500;" horiz-adv-x="600" d="M0 216 L600 216 L600 288 L0 288 L0 216 Z " />
<glyph glyph-name="SF110000" unicode="&#x2502;" horiz-adv-x="600" d="M264 -288 L336 -288 L336 792 L264 792 L264 -288 Z " />
<glyph glyph-name="SF010000" unicode="&#x250c;" horiz-adv-x="600" d="M336 216 L600 216 L600 288 L264 288 L264 -288 L336 -288 L336 216 Z " />
<glyph glyph-name="SF030000" unicode="&#x2510;" horiz-adv-x="600" d="M0 216 L264 216 L264 -288 L336 -288 L336 288 L0 288 L0 216 Z " />
<glyph glyph-name="SF020000" unicode="&#x2514;" horiz-adv-x="600" d="M336 288 L336 792 L264 792 L264 216 L600 216 L600 288 L336 288 Z " />
<glyph glyph-name="SF040000" unicode="&#x2518;" horiz-adv-x="600" d="M264 288 L0 288 L0 216 L336 216 L336 792 L264 792 L264 288 Z " />
<glyph glyph-name="SF080000" unicode="&#x251c;" horiz-adv-x="600" d="M264 -288 L336 -288 L336 216 L600 216 L600 288 L336 288 L336 792 L264 792 L264 -288 Z " />
<glyph glyph-name="SF090000" unicode="&#x2524;" horiz-adv-x="600" d="M336 -288 L336 792 L264 792 L264 288 L0 288 L0 216 L264 216 L264 -288 L336 -288 Z " />
<glyph glyph-name="SF060000" unicode="&#x252c;" horiz-adv-x="600" d="M336 216 L600 216 L600 288 L0 288 L0 216 L264 216 L264 -288 L336 -288 L336 216 Z " />
<glyph glyph-name="SF070000" unicode="&#x2534;" horiz-adv-x="600" d="M336 288 L336 792 L264 792 L264 288 L0 288 L0 216 L600 216 L600 288 L336 288 Z " />
<glyph glyph-name="SF050000" unicode="&#x253c;" horiz-adv-x="600" d="M336 288 L336 792 L264 792 L264 288 L0 288 L0 216 L264 216 L264 -288 L336 -288 L336 216 L600 216 L600 288 L336 288 Z " />
<glyph glyph-name="SF430000" unicode="&#x2550;" horiz-adv-x="600" d="M600 360 L0 360 L0 288 L600 288 L600 360 Z M600 216 L0 216 L0 144 L600 144 L600 216 Z " />
<glyph glyph-name="SF240000" unicode="&#x2551;" horiz-adv-x="600" d="M408 -288 L408 792 L336 792 L336 -288 L408 -288 Z M192 -288 L264 -288 L264 792 L192 792 L192 -288 Z " />
<glyph glyph-name="SF510000" unicode="&#x2552;" horiz-adv-x="600" d="M336 216 L336 288 L600 288 L600 360 L264 360 L264 -288 L336 -288 L336 144 L600 144 L600 216 L336 216 Z " />
<glyph glyph-name="SF520000" unicode="&#x2553;" horiz-adv-x="600" d="M336 216 L336 -288 L408 -288 L408 216 L600 216 L600 288 L192 288 L192 -288 L264 -288 L264 216 L336 216 Z " />
<glyph glyph-name="SF390000" unicode="&#x2554;" horiz-adv-x="600" d="M336 216 L336 -288 L408 -288 L408 144 L600 144 L600 216 L336 216 Z M264 288 L600 288 L600 360 L192 360 L192 -288 L264 -288 L264 288 Z " />
<glyph glyph-name="SF220000" unicode="&#x2555;" horiz-adv-x="600" d="M0 216 L0 144 L264 144 L264 -288 L336 -288 L336 360 L0 360 L0 288 L264 288 L264 216 L0 216 Z " />
<glyph glyph-name="SF210000" unicode="&#x2556;" horiz-adv-x="600" d="M264 216 L336 216 L336 -288 L408 -288 L408 288 L0 288 L0 216 L192 216 L192 -288 L264 -288 L264 216 Z " />
<glyph glyph-name="SF250000" unicode="&#x2557;" horiz-adv-x="600" d="M192 144 L192 -288 L264 -288 L264 216 L0 216 L0 144 L192 144 Z M336 -288 L408 -288 L408 360 L0 360 L0 288 L336 288 L336 -288 Z " />
<glyph glyph-name="SF500000" unicode="&#x2558;" horiz-adv-x="600" d="M264 792 L264 144 L600 144 L600 216 L336 216 L336 288 L600 288 L600 360 L336 360 L336 792 L264 792 Z " />
<glyph glyph-name="SF490000" unicode="&#x2559;" horiz-adv-x="600" d="M336 288 L264 288 L264 792 L192 792 L192 216 L600 216 L600 288 L408 288 L408 792 L336 792 L336 288 Z " />
<glyph glyph-name="SF380000" unicode="&#x255a;" horiz-adv-x="600" d="M336 288 L600 288 L600 360 L408 360 L408 792 L336 792 L336 288 Z M264 216 L264 792 L192 792 L192 144 L600 144 L600 216 L264 216 Z " />
<glyph glyph-name="SF280000" unicode="&#x255b;" horiz-adv-x="600" d="M336 792 L264 792 L264 360 L0 360 L0 288 L264 288 L264 216 L0 216 L0 144 L336 144 L336 792 Z " />
<glyph glyph-name="SF270000" unicode="&#x255c;" horiz-adv-x="600" d="M264 288 L264 792 L192 792 L192 288 L0 288 L0 216 L408 216 L408 792 L336 792 L336 288 L264 288 Z " />
<glyph glyph-name="SF260000" unicode="&#x255d;" horiz-adv-x="600" d="M264 288 L264 792 L192 792 L192 360 L0 360 L0 288 L264 288 Z M336 216 L0 216 L0 144 L408 144 L408 792 L336 792 L336 216 Z " />
<glyph glyph-name="SF360000" unicode="&#x255e;" horiz-adv-x="600" d="M264 -288 L336 -288 L336 144 L600 144 L600 216 L336 216 L336 288 L600 288 L600 360 L336 360 L336 792 L264 792 L264 -288 Z " />
<glyph glyph-name="SF370000" unicode="&#x255f;" horiz-adv-x="600" d="M336 792 L336 -288 L408 -288 L408 216 L600 216 L600 288 L408 288 L408 792 L336 792 Z M192 -288 L264 -288 L264 792 L192 792 L192 -288 Z " />
<glyph glyph-name="SF420000" unicode="&#x2560;" horiz-adv-x="600" d="M192 -288 L264 -288 L264 792 L192 792 L192 -288 Z M336 216 L336 -288 L408 -288 L408 144 L600 144 L600 216 L336 216 Z M336 288 L600 288 L600 360 L408 360 L408 792 L336 792 L336 288 Z " />
<glyph glyph-name="SF190000" unicode="&#x2561;" horiz-adv-x="600" d="M336 -288 L336 792 L264 792 L264 360 L0 360 L0 288 L264 288 L264 216 L0 216 L0 144 L264 144 L264 -288 L336 -288 Z " />
<glyph glyph-name="SF200000" unicode="&#x2562;" horiz-adv-x="600" d="M264 792 L192 792 L192 288 L0 288 L0 216 L192 216 L192 -288 L264 -288 L264 792 Z M408 -288 L408 792 L336 792 L336 -288 L408 -288 Z " />
<glyph glyph-name="SF230000" unicode="&#x2563;" horiz-adv-x="600" d="M336 -288 L408 -288 L408 792 L336 792 L336 -288 Z M192 144 L192 -288 L264 -288 L264 216 L0 216 L0 144 L192 144 Z M264 288 L264 792 L192 792 L192 360 L0 360 L0 288 L264 288 Z " />
<glyph glyph-name="SF470000" unicode="&#x2564;" horiz-adv-x="600" d="M336 144 L600 144 L600 216 L0 216 L0 144 L264 144 L264 -288 L336 -288 L336 144 Z M600 288 L600 360 L0 360 L0 288 L600 288 Z " />
<glyph glyph-name="SF480000" unicode="&#x2565;" horiz-adv-x="600" d="M336 216 L336 -288 L408 -288 L408 216 L600 216 L600 288 L0 288 L0 216 L192 216 L192 -288 L264 -288 L264 216 L336 216 Z " />
<glyph glyph-name="SF410000" unicode="&#x2566;" horiz-adv-x="600" d="M408 -288 L408 144 L600 144 L600 216 L336 216 L336 -288 L408 -288 Z M0 216 L0 144 L192 144 L192 -288 L264 -288 L264 216 L0 216 Z M600 288 L600 360 L0 360 L0 288 L600 288 Z " />
<glyph glyph-name="SF450000" unicode="&#x2567;" horiz-adv-x="600" d="M336 360 L336 792 L264 792 L264 360 L0 360 L0 288 L600 288 L600 360 L336 360 Z M600 144 L600 216 L0 216 L0 144 L600 144 Z " />
<glyph glyph-name="SF460000" unicode="&#x2568;" horiz-adv-x="600" d="M336 288 L264 288 L264 792 L192 792 L192 288 L0 288 L0 216 L600 216 L600 288 L408 288 L408 792 L336 792 L336 288 Z " />
<glyph glyph-name="SF400000" unicode="&#x2569;" horiz-adv-x="600" d="M600 288 L600 360 L408 360 L408 792 L336 792 L336 288 L600 288 Z M0 288 L264 288 L264 792 L192 792 L192 360 L0 360 L0 288 Z M600 216 L0 216 L0 144 L600 144 L600 216 Z " />
<glyph glyph-name="SF540000" unicode="&#x256a;" horiz-adv-x="600" d="M336 360 L336 792 L264 792 L264 360 L0 360 L0 288 L264 288 L264 216 L0 216 L0 144 L264 144 L264 -288 L336 -288 L336 144 L600 144 L600 216 L336 216 L336 288 L600 288 L600 360 L336 360 Z " />
<glyph glyph-name="SF530000" unicode="&#x256b;" horiz-adv-x="600" d="M264 288 L264 792 L192 792 L192 288 L0 288 L0 216 L192 216 L192 -288 L264 -288 L264 216 L336 216 L336 -288 L408 -288 L408 216 L600 216 L600 288 L408 288 L408 792 L336 792 L336 288 L264 288 Z " />
<glyph glyph-name="SF440000" unicode="&#x256c;" horiz-adv-x="600" d="M264 216 L0 216 L0 144 L192 144 L192 -288 L264 -288 L264 216 Z M264 288 L264 792 L192 792 L192 360 L0 360 L0 288 L264 288 Z M336 216 L336 -288 L408 -288 L408 144 L600 144 L600 216 L336 216 Z M336 288 L600 288 L600 360 L408 360 L408 792 L336 792 L336 288 Z " />
<glyph glyph-name="filledbox" unicode="&#x25a0;" horiz-adv-x="600" d="M201 141 L399 141 L399 339 L201 339 L201 141 Z " />
<glyph glyph-name="female" unicode="&#x2640;" horiz-adv-x="600" d="M326 275 C352 275 444 322 444 418 C444 494 383 563 300 563 C220 563 156 498 156 417 C156 326 237 275 276 275 L276 210 L154 210 L154 163 L276 163 L276 38 L326 38 L326 163 L448 163 L448 210 L326 210 L326 275 Z M300 513 C352 513 394 471 394 419 C394 367 352 325 300 325 C248 325 206 367 206 419 C206 471 248 513 300 513 L300 513 Z " />
<glyph glyph-name="male" unicode="&#x2642;" horiz-adv-x="600" d="M305 387 C293 396 275 407 236 407 C147 407 90 336 90 262 C90 182 155 119 233 119 C319 119 378 191 378 267 C378 319 353 348 343 359 L442 458 C451 429 472 367 495 367 C497 367 511 369 511 385 C511 389 511 391 509 401 C506 415 502 434 502 462 C502 480 503 507 510 530 C512 540 513 544 513 549 C513 556 509 563 499 563 C496 563 490 563 480 559 C467 555 457 552 414 552 C386 552 369 555 355 558 C347 560 343 561 338 561 C325 561 321 550 321 544 C321 534 328 529 334 524 C354 510 360 508 409 491 L305 387 Z M234 357 C286 357 328 315 328 263 C328 211 286 169 234 169 C182 169 140 211 140 263 C140 304 170 357 234 357 L234 357 Z " />
<glyph glyph-name="spade" unicode="&#x2660;" horiz-adv-x="600" d="M298 194 C297 82 232 17 122 17 L119 0 L482 0 L478 17 C416 21 379 36 349 68 C318 101 306 139 306 213 L308 213 C337 154 374 126 422 126 C479 126 522 170 522 228 C522 278 502 309 423 381 C344 452 318 491 301 563 C289 506 269 471 222 420 C204 400 200 396 164 367 C103 317 78 275 78 227 C78 172 123 126 178 126 C209 126 239 138 263 161 C277 174 285 186 296 213 L298 213 L298 194 Z " />
<glyph glyph-name="club" unicode="&#x2663;" horiz-adv-x="600" d="M495 0 L491 16 L482 18 C404 33 368 54 336 103 C314 137 306 171 305 232 L307 234 C320 207 327 196 338 184 C368 149 415 125 457 125 C527 125 582 183 582 255 C582 324 532 380 469 380 C449 380 438 377 411 364 L397 356 L395 358 C417 387 426 411 426 441 C426 509 370 563 299 563 C227 563 172 509 172 439 C172 412 178 398 203 358 L201 356 C166 374 157 377 128 379 C66 377 18 321 18 253 C18 181 74 125 145 125 C208 125 260 163 293 234 L295 234 L295 212 C295 164 277 114 246 78 C217 44 197 35 117 17 L111 16 L107 0 L495 0 Z " />
<glyph glyph-name="heart" unicode="&#x2665;" horiz-adv-x="600" d="M185 203 C223 153 258 97 275 62 C286 38 292 21 301 -11 C315 43 335 83 378 148 C396 174 406 187 452 245 C524 336 549 389 549 448 C549 512 496 563 431 563 C395 563 361 547 336 518 C319 499 311 483 302 448 L300 448 C275 525 232 563 168 563 C102 563 51 511 51 444 C51 394 68 357 133 272 L185 203 Z " />
<glyph glyph-name="diamond" unicode="&#x2666;" horiz-adv-x="600" d="M100 265 L149 205 C169 180 201 137 248 71 C273 35 288 12 300 -11 C327 37 367 96 402 142 L458 215 C482 245 495 261 510 276 C501 286 498 290 492 297 C475 316 447 353 414 395 C361 466 328 513 299 563 C274 518 249 481 214 434 C199 412 189 400 145 344 C116 308 105 294 90 276 L100 265 Z " />
<glyph glyph-name="musicalnote" unicode="&#x266a;" horiz-adv-x="600" d="M271 162 C258 165 248 167 235 167 C176 167 131 118 131 68 C131 63 131 14 194 14 C242 14 321 47 321 151 L321 383 C370 362 392 302 392 255 C392 200 376 166 360 130 L397 130 C446 189 446 250 446 266 C446 360 390 427 372 448 C366 455 336 491 331 498 C329 499 324 506 321 510 L321 563 L271 563 L271 162 Z " />
<glyph glyph-name="musicalnotedbl" unicode="&#x266b;" horiz-adv-x="600" d="M479 171 C467 175 457 177 445 177 C385 177 341 127 341 78 C341 37 373 24 404 24 C453 24 529 59 529 161 L529 569 L182 479 L182 127 C169 130 159 132 147 132 C88 132 43 83 43 34 C43 19 44 -20 106 -20 C154 -20 232 13 232 116 L232 262 L479 330 L479 171 Z M232 413 L479 481 L479 405 L232 338 L232 413 Z " />
<glyph glyph-name="ff" unicode="&#xfb00;" horiz-adv-x="600" d="M726 632 C703 638 685 643 635 643 C620 643 601 643 582 640 C562 637 542 632 524 624 C475 641 431 643 405 643 C268 643 228 569 211 494 L208 481 L197 443 L96 443 L78 359 L179 359 L121 82 L20 82 L2 0 L556 0 L574 82 L432 82 L490 359 L632 359 L650 443 L508 443 L515 474 C524 516 533 560 601 560 C614 560 658 555 687 546 L726 632 Z M421 443 L284 443 L291 474 C304 530 309 559 384 559 C409 559 433 553 450 550 C438 519 433 498 429 481 L421 443 Z M266 359 L403 359 L345 82 L208 82 L266 359 Z " />
<glyph glyph-name="fi" unicode="&#xfb01;" horiz-adv-x="600" d="M556 443 L312 443 L319 474 C335 545 343 559 363 559 C368 559 384 558 414 540 L461 626 C436 634 410 643 373 643 C271 643 251 556 233 481 L224 443 L108 443 L90 359 L206 359 L148 82 L32 82 L14 0 L583 0 L601 82 L480 82 L556 443 Z M392 82 L236 82 L294 359 L450 359 L392 82 Z M471 540 L577 540 L605 672 L498 672 L471 540 Z " />
<glyph glyph-name="fl" unicode="&#xfb02;" horiz-adv-x="600" d="M600 626 C597 627 579 629 576 630 C531 636 482 643 434 643 C274 643 247 555 231 481 L223 443 L108 443 L90 359 L205 359 L147 82 L32 82 L14 0 L582 0 L600 82 L485 82 L600 626 Z M234 82 L292 359 L400 359 L420 443 L310 443 L317 474 C331 535 338 559 410 559 C446 559 477 553 498 549 L400 82 L234 82 Z " />
<glyph glyph-name="ffi" unicode="&#xfb03;" horiz-adv-x="600" d="M559 631 L549 634 C533 640 524 643 503 643 C486 643 474 641 464 639 C455 637 448 634 441 631 C422 636 401 643 362 643 C239 643 193 576 173 497 L169 481 L158 443 L92 443 L74 359 L140 359 L82 82 L21 82 L3 0 L597 0 L615 82 L553 82 L629 443 L437 443 L447 499 C450 516 464 557 492 557 C503 557 513 553 528 547 L559 631 Z M227 359 L332 359 L274 82 L169 82 L227 359 Z M252 474 C264 529 270 559 344 559 C360 559 370 556 378 554 C369 533 361 496 358 481 L350 443 L245 443 L252 474 Z M466 82 L361 82 L419 359 L524 359 L466 82 Z M566 540 L660 540 L688 672 L594 672 L566 540 Z " />
<glyph glyph-name="ffl" unicode="&#xfb04;" horiz-adv-x="600" d="M-2 0 L600 0 L618 82 L552 82 L667 625 C661 627 658 626 634 633 C612 639 581 643 555 643 C529 643 508 639 492 636 C477 633 466 628 459 625 C434 635 412 643 364 643 C244 643 189 584 172 497 C171 493 170 484 169 481 L157 443 L92 443 L74 359 L139 359 L81 82 L16 82 L-2 0 Z M227 359 L331 359 L273 82 L169 82 L227 359 Z M251 474 C262 531 270 559 344 559 C360 559 372 556 381 555 C376 546 373 540 369 525 C360 491 359 487 357 481 L349 443 L245 443 L251 474 Z M361 82 L418 359 L478 359 L496 443 L437 443 L443 474 C457 544 470 559 536 559 C552 559 559 557 565 556 L465 82 L361 82 Z " />
</font>
</svg>
