<?xml version="1.0" encoding="UTF-8"?>
<svg xmlns="http://www.w3.org/2000/svg" xmlns:xlink="http://www.w3.org/1999/xlink" version="1.2" >
<font id="Courier 10 Pitch Bold Italic">
<font-face  font-family="Courier 10 Pitch" units-per-em="1000" ascent="639" descent="-195" font-style="italic" font-weight="700" font-stretch="normal" slope="12" cap-height="579" x-height="452" underline-position="-50.5" underline-thickness="93" />
<missing-glyph  horiz-adv-x="602" d="" />
<glyph glyph-name="NULL" d="" />
<glyph glyph-name="CR" unicode="&#xd;" horiz-adv-x="250" d="" />
<glyph glyph-name="space" unicode="&#x20;" horiz-adv-x="602" d="" />
<glyph glyph-name="exclam" unicode="&#x21;" horiz-adv-x="602" d="M234 215 C233 210 233 205 233 200 C233 176 245 164 275 164 C307 164 316 180 325 214 L401 514 C406 532 408 545 408 549 C408 577 389 595 356 595 C311 595 287 571 279 519 L234 215 Z M171 56 C171 15 202 -13 248 -13 C295 -13 326 15 326 56 C326 97 296 126 248 126 C201 126 171 96 171 56 L171 56 Z " />
<glyph glyph-name="quotedbl" unicode="&#x22;" horiz-adv-x="602" d="M212 324 L244 324 C264 324 268 334 270 356 L287 547 C287 549 287 551 287 553 C287 570 278 579 262 579 L194 579 C178 579 170 570 170 553 C170 551 170 549 170 547 L186 356 C188 334 192 324 212 324 L212 324 Z M406 324 L437 324 C457 324 462 334 464 356 L480 547 C480 549 480 551 480 553 C480 570 472 579 456 579 L387 579 C371 579 363 570 363 553 C363 551 363 549 363 547 L379 356 C381 334 386 324 406 324 L406 324 Z " />
<glyph glyph-name="numbersign" unicode="&#x23;" horiz-adv-x="602" d="M207 641 L196 437 L131 437 C110 437 99 424 99 400 C99 376 110 363 131 363 L191 363 L185 251 L131 251 C110 251 99 239 99 215 C99 191 110 178 131 178 L181 178 L172 -11 C172 -12 172 -13 172 -14 C172 -40 187 -58 213 -58 C238 -58 253 -43 254 -16 L264 177 L325 177 L314 -11 C314 -12 314 -14 314 -15 C314 -41 330 -58 356 -58 C380 -58 396 -43 397 -16 L407 177 L470 177 C491 177 502 190 502 214 C502 238 491 251 470 251 L411 251 L418 363 L470 363 C491 363 502 376 502 400 C502 424 491 437 470 437 L422 437 L433 637 C433 639 433 640 433 642 C433 668 417 683 391 683 C366 683 351 668 350 641 L339 437 L279 437 L290 637 C290 639 290 640 290 642 C290 668 274 683 248 683 C223 683 208 668 207 641 L207 641 Z M269 251 L274 363 L335 363 L329 251 L269 251 Z " />
<glyph glyph-name="dollar" unicode="&#x24;" horiz-adv-x="602" d="M203 34 L171 -83 C170 -87 169 -91 169 -95 C169 -113 183 -123 207 -123 C233 -123 250 -108 257 -80 L285 29 C420 34 497 113 497 218 C497 274 461 323 403 348 L306 390 C282 400 269 418 269 441 C269 481 302 515 356 515 C397 515 427 503 445 480 C467 452 460 429 503 429 C532 429 537 442 543 473 L558 556 C559 558 559 561 559 563 C559 578 547 587 522 587 C507 587 498 584 485 571 C467 580 448 587 427 593 L440 631 C443 639 443 646 443 651 C443 663 429 672 404 672 C380 672 365 661 357 636 L344 595 C342 595 341 595 339 595 C218 595 142 521 142 420 C142 368 171 324 222 301 L325 255 C357 240 373 222 373 200 C373 158 339 123 278 123 C222 123 193 136 177 172 C165 200 165 221 130 221 C104 221 89 207 83 179 L64 92 C63 87 62 82 62 78 C62 55 77 41 98 41 C113 41 125 49 137 64 C156 47 177 38 203 34 L203 34 Z " />
<glyph glyph-name="percent" unicode="&#x25;" horiz-adv-x="602" d="M124 272 C111 267 104 257 104 246 C104 227 115 211 133 211 C137 211 142 212 147 214 L475 345 C487 350 495 361 495 372 C495 391 483 405 465 405 C461 405 456 404 451 402 L124 272 Z M213 117 C213 42 272 -16 357 -16 C441 -16 500 41 500 117 C500 192 441 250 357 250 C273 250 213 192 213 117 L213 117 Z M423 117 C423 82 397 58 357 58 C317 58 291 82 291 117 C291 152 317 176 357 176 C397 176 423 151 423 117 L423 117 Z M310 499 C310 464 285 440 245 440 C205 440 179 464 179 499 C179 534 205 559 245 559 C285 559 310 533 310 499 L310 499 Z M101 499 C101 424 160 366 244 366 C328 366 387 423 387 499 C387 574 328 632 244 632 C160 632 101 574 101 499 L101 499 Z " />
<glyph glyph-name="ampersand" unicode="&#x26;" horiz-adv-x="602" d="M326 39 L336 16 C343 0 350 0 369 0 L424 0 C463 0 483 19 483 52 C483 75 469 88 449 88 L439 88 L418 125 C441 153 458 185 470 223 C517 224 537 236 537 274 C537 298 523 311 503 311 L448 311 C410 311 410 269 375 209 L289 375 C281 390 277 405 277 417 C277 444 298 463 324 463 C355 463 377 426 408 426 C436 426 476 466 476 502 C476 522 465 534 445 534 C439 534 432 532 425 531 C397 554 369 562 331 562 C227 562 158 494 158 408 C158 386 163 362 173 335 L181 313 C85 255 39 193 39 114 C39 39 93 -14 175 -14 C225 -14 273 4 326 39 L326 39 Z M294 118 C263 99 239 87 219 87 C185 87 159 113 159 148 C159 181 182 213 228 238 L294 118 Z " />
<glyph glyph-name="quotesingle" unicode="&#x27;" horiz-adv-x="602" d="M285 324 L317 324 C337 324 341 334 343 356 L359 547 C359 549 359 551 359 553 C359 570 351 579 335 579 L266 579 C250 579 243 570 243 554 C243 551 243 549 243 547 L258 356 C260 334 265 324 285 324 L285 324 Z " />
<glyph glyph-name="parenleft" unicode="&#x28;" horiz-adv-x="602" d="M182 92 C182 -86 285 -194 331 -194 C350 -194 360 -185 360 -167 C360 -118 304 -40 304 78 C304 178 334 284 394 387 C454 491 524 549 524 577 C524 586 513 595 499 595 C473 595 411 555 332 465 C232 351 182 228 182 92 L182 92 Z " />
<glyph glyph-name="parenright" unicode="&#x29;" horiz-adv-x="602" d="M417 309 C417 487 314 595 268 595 C249 595 239 586 239 568 C239 519 295 441 295 323 C295 223 266 117 206 14 C146 -90 75 -148 75 -176 C75 -185 86 -195 100 -195 C126 -195 188 -154 267 -64 C367 50 417 173 417 309 L417 309 Z " />
<glyph glyph-name="asterisk" unicode="&#x2a;" horiz-adv-x="602" d="M456 516 L333 462 L346 596 C346 598 346 600 346 602 C346 614 340 616 322 616 L279 616 C261 616 254 614 254 601 C254 600 254 598 254 596 L268 460 L146 516 C141 518 137 519 134 519 C127 519 125 513 120 499 L106 459 C103 449 102 442 102 440 C102 435 108 431 118 429 L250 400 L159 300 C154 295 152 291 152 286 C152 283 157 277 167 270 L201 245 C210 238 217 235 219 235 C223 235 228 239 233 247 L301 362 L369 246 C373 239 378 235 382 235 C384 235 391 237 400 244 L434 269 C444 276 450 281 450 285 C450 290 448 295 443 300 L353 401 L484 429 C494 431 500 436 500 441 C500 443 499 449 496 458 L483 499 C479 513 475 519 468 519 C465 519 461 518 456 516 L456 516 Z " />
<glyph glyph-name="plus" unicode="&#x2b;" horiz-adv-x="602" d="M351 97 L351 257 L512 257 C544 257 566 277 566 308 C566 338 544 359 512 359 L351 359 L351 519 C351 551 331 572 300 572 C270 572 250 551 250 519 L250 359 L90 359 C58 359 36 339 36 308 C36 278 58 257 90 257 L250 257 L250 97 C250 65 270 43 301 43 C331 43 351 65 351 97 L351 97 Z " />
<glyph glyph-name="comma" unicode="&#x2c;" horiz-adv-x="602" d="M125 -107 C119 -120 116 -128 116 -130 C116 -135 120 -141 125 -144 L157 -161 C161 -163 165 -164 169 -164 C180 -164 188 -159 195 -148 L393 146 C395 149 395 151 395 154 C395 162 389 167 381 167 L276 167 C256 167 249 162 241 145 L125 -107 Z " />
<glyph glyph-name="hyphen" unicode="&#x2d;" horiz-adv-x="602" d="M84 170 L491 170 C503 170 509 178 512 194 L525 255 C525 257 526 258 526 260 C526 272 516 281 504 281 L97 281 C85 281 79 274 76 258 L63 197 C63 195 62 194 62 192 C62 180 72 170 84 170 L84 170 Z " />
<glyph glyph-name="period" unicode="&#x2e;" horiz-adv-x="602" d="M183 75 C183 24 221 -12 279 -12 C338 -12 376 24 376 75 C376 126 338 162 279 162 C221 162 183 126 183 75 L183 75 Z " />
<glyph glyph-name="slash" unicode="&#x2f;" horiz-adv-x="602" d="M121 -76 L557 599 C570 619 580 635 580 658 C580 681 547 704 525 704 C502 704 487 686 468 656 L32 -19 C19 -39 9 -54 9 -77 C9 -99 41 -124 64 -124 C87 -124 102 -106 121 -76 L121 -76 Z " />
<glyph glyph-name="zero" unicode="0" horiz-adv-x="602" d="M43 202 C43 64 114 -14 241 -14 C333 -14 408 30 466 118 C524 207 559 323 559 419 C559 556 488 633 361 633 C270 633 195 589 136 501 C79 416 43 299 43 202 L43 202 Z M343 533 C393 533 430 487 430 405 C430 338 414 267 382 203 C344 126 304 88 258 88 C208 88 172 134 172 217 C172 270 189 350 220 417 C257 495 297 533 343 533 L343 533 Z " />
<glyph glyph-name="one" unicode="1" horiz-adv-x="602" d="M211 102 L114 102 C70 102 49 86 49 45 C49 10 65 0 102 0 L390 0 C434 0 455 17 455 57 C455 92 439 102 402 102 L328 102 L432 600 C433 603 433 606 433 608 C433 623 424 633 406 633 C402 633 398 632 393 631 L209 588 C189 583 175 566 175 541 C175 515 188 498 212 498 C216 498 221 499 226 500 L299 516 L211 102 Z " />
<glyph glyph-name="two" unicode="2" horiz-adv-x="602" d="M214 102 L335 203 C458 306 527 378 527 474 C527 569 461 631 351 631 C229 631 133 566 133 481 C133 454 148 439 174 439 C208 439 223 485 250 504 C269 518 299 527 330 527 C374 527 399 501 399 461 C399 409 359 369 296 313 L106 147 C49 97 14 71 14 38 C14 8 33 0 72 0 L414 0 C445 0 457 8 463 37 L477 105 C479 113 479 120 479 126 C479 151 466 162 434 162 C399 162 383 145 373 102 L214 102 Z " />
<glyph glyph-name="three" unicode="3" horiz-adv-x="602" d="M378 336 C464 364 507 417 507 498 C507 579 449 634 354 634 C239 634 141 575 141 525 C141 505 154 490 172 490 C212 490 262 536 321 536 C358 536 385 509 385 477 C385 419 351 388 283 372 C244 363 216 373 216 303 C216 283 244 283 280 278 C325 272 344 253 344 204 C344 135 295 86 208 86 C181 86 158 91 138 102 C121 111 104 126 73 126 C45 126 20 96 20 67 C20 23 90 -17 206 -17 C370 -17 468 79 468 214 C468 281 436 325 378 336 L378 336 Z " />
<glyph glyph-name="four" unicode="4" horiz-adv-x="602" d="M172 239 L388 518 L325 239 L172 239 Z M292 89 L215 89 C171 89 150 75 150 39 C150 8 167 0 203 0 L416 0 C459 0 480 15 480 50 C480 81 463 89 427 89 L387 89 L402 156 L481 156 C494 156 504 161 506 167 L528 219 C531 225 531 231 531 237 C531 253 520 263 497 263 C464 263 460 239 447 239 L421 239 L497 588 C499 598 500 605 500 606 C500 611 495 615 484 617 L397 633 C393 634 390 634 387 634 C377 634 374 630 367 621 L72 235 C65 226 61 218 59 205 L55 184 C55 182 54 180 54 178 C54 164 65 156 87 156 L306 156 L292 89 Z " />
<glyph glyph-name="five" unicode="5" horiz-adv-x="602" d="M238 387 L269 514 L510 514 C543 514 560 534 560 581 C560 605 551 616 529 616 L226 616 C189 616 183 612 175 580 L119 356 C113 334 110 319 110 310 C110 286 120 275 146 275 C185 275 228 314 290 314 C350 314 383 281 383 220 C383 146 324 88 234 88 C175 88 128 110 90 110 C61 110 37 87 37 58 C37 6 98 -16 221 -16 C399 -16 509 90 509 239 C509 345 445 411 337 411 C305 411 273 403 238 387 L238 387 Z " />
<glyph glyph-name="six" unicode="6" horiz-adv-x="602" d="M204 161 C204 233 254 291 311 291 C355 291 383 261 383 215 C383 146 332 82 272 82 C228 82 204 111 204 161 L204 161 Z M231 337 C269 451 359 522 480 535 C537 541 584 535 584 587 C584 616 563 633 521 633 C409 633 310 599 236 536 C135 450 72 304 72 179 C72 57 138 -16 257 -16 C400 -16 506 101 506 227 C506 322 442 389 351 389 C303 389 270 374 231 337 L231 337 Z " />
<glyph glyph-name="seven" unicode="7" horiz-adv-x="602" d="M260 11 L519 528 C528 546 534 556 534 558 C534 564 544 581 544 598 C544 613 536 616 519 616 L184 616 C160 616 150 607 144 589 L119 512 C116 503 115 497 115 491 C115 471 128 460 154 460 C182 460 191 475 207 514 L410 514 L131 25 C126 16 123 7 123 4 C123 -6 128 -7 139 -7 L241 -7 C249 -7 254 -1 260 11 L260 11 Z " />
<glyph glyph-name="eight" unicode="8" horiz-adv-x="602" d="M176 152 C176 208 230 260 292 260 C340 260 369 233 369 188 C369 128 318 76 253 76 C207 76 176 106 176 152 L176 152 Z M244 440 C244 492 294 541 353 541 C399 541 426 516 426 474 C426 417 377 368 317 368 C274 368 244 396 244 440 L244 440 Z M408 317 C499 343 548 401 548 478 C548 568 477 632 356 632 C222 632 123 542 123 433 C123 380 143 348 193 317 C103 286 53 220 53 139 C53 41 120 -16 245 -16 C398 -16 496 77 496 195 C496 255 468 293 408 317 L408 317 Z " />
<glyph glyph-name="nine" unicode="9" horiz-adv-x="602" d="M381 280 C343 166 252 95 131 82 C74 76 27 83 27 31 C27 2 48 -16 90 -16 C202 -16 301 18 375 81 C476 167 539 313 539 438 C539 560 473 633 354 633 C211 633 106 516 106 390 C106 295 169 228 260 228 C308 228 342 243 381 280 L381 280 Z M407 456 C407 384 357 327 300 327 C256 327 228 356 228 402 C228 471 279 535 339 535 C383 535 407 506 407 456 L407 456 Z " />
<glyph glyph-name="colon" unicode="&#x3a;" horiz-adv-x="602" d="M211 350 C211 299 249 263 307 263 C366 263 404 299 404 350 C404 401 366 437 307 437 C249 437 211 401 211 350 L211 350 Z M155 75 C155 24 194 -12 252 -12 C311 -12 349 24 349 75 C349 126 311 162 252 162 C194 162 155 126 155 75 L155 75 Z " />
<glyph glyph-name="semicolon" unicode="&#x3b;" horiz-adv-x="602" d="M233 350 C233 299 271 263 329 263 C388 263 426 299 426 350 C426 401 388 437 329 437 C271 437 233 401 233 350 L233 350 Z M93 -107 C87 -120 84 -128 84 -130 C84 -135 88 -141 93 -144 L126 -161 C130 -163 133 -164 137 -164 C148 -164 157 -159 164 -148 L361 146 C363 149 364 151 364 154 C364 162 358 167 350 167 L245 167 C225 167 217 162 209 145 L93 -107 Z " />
<glyph glyph-name="less" unicode="&#x3c;" horiz-adv-x="602" d="M520 163 L210 307 L520 452 C544 463 556 476 556 499 C556 529 538 552 511 552 C501 552 490 548 476 542 L87 360 C57 346 42 332 42 307 C42 282 57 268 87 254 L476 72 C490 66 501 62 511 62 C538 62 556 86 556 116 C556 139 544 152 520 163 L520 163 Z " />
<glyph glyph-name="equal" unicode="&#x3d;" horiz-adv-x="602" d="M90 160 L512 160 C544 160 566 180 566 211 C566 241 544 262 512 262 L90 262 C58 262 36 242 36 211 C36 181 58 160 90 160 L90 160 Z M90 354 L512 354 C544 354 566 374 566 405 C566 435 544 456 512 456 L90 456 C58 456 36 436 36 405 C36 375 58 354 90 354 L90 354 Z " />
<glyph glyph-name="greater" unicode="&#x3e;" horiz-adv-x="602" d="M68 452 L378 307 L68 163 C44 152 33 139 33 116 C33 86 51 62 78 62 C88 62 98 66 112 72 L502 254 C532 268 547 282 547 307 C547 332 532 346 502 360 L112 542 C98 548 88 552 78 552 C51 552 33 529 33 499 C33 476 44 463 68 452 L68 452 Z " />
<glyph glyph-name="question" unicode="&#x3f;" horiz-adv-x="602" d="M298 245 C439 280 509 345 509 441 C509 539 445 595 334 595 C233 595 170 570 160 522 L147 461 C146 457 146 453 146 450 C146 430 160 421 188 421 C229 421 232 448 242 467 C253 488 282 502 316 502 C353 502 377 477 377 446 C377 407 350 369 309 351 L251 325 C211 307 187 280 179 243 L174 216 C173 212 173 207 173 204 C173 179 191 165 223 165 C265 165 283 181 291 213 L298 245 Z M124 56 C124 15 155 -13 201 -13 C248 -13 278 15 278 56 C278 97 249 126 201 126 C154 126 124 96 124 56 L124 56 Z " />
<glyph glyph-name="at" unicode="&#x40;" horiz-adv-x="602" d="M397 253 C384 248 374 245 364 245 C336 245 319 265 319 293 C319 335 357 377 402 377 C403 377 403 377 404 377 L423 376 L397 253 Z M410 186 C432 169 449 161 464 161 C491 161 513 183 513 209 C513 220 508 232 498 249 L545 480 C548 496 550 512 550 525 C550 606 487 667 395 667 C317 667 243 628 189 554 C157 510 129 450 107 374 C86 304 76 245 76 196 C76 42 160 -53 281 -53 C361 -53 413 -16 413 19 C413 41 402 52 382 52 C360 52 333 35 300 35 C226 35 181 90 181 192 C181 279 212 400 254 475 C290 540 329 572 375 572 C421 572 446 546 446 496 C446 486 444 470 440 450 C434 451 428 451 421 451 C311 451 232 367 232 276 C232 213 274 170 334 170 C354 170 379 176 410 186 L410 186 Z " />
<glyph glyph-name="A" unicode="A" horiz-adv-x="602" d="M231 264 L342 478 L372 264 L231 264 Z M235 471 L34 108 L16 108 C-17 108 -44 82 -44 44 C-44 14 -28 0 4 0 L133 0 C180 0 205 23 205 63 C205 93 188 108 155 108 L150 108 L179 162 L385 162 L392 108 L368 108 C325 108 299 84 299 44 C299 14 315 0 347 0 L489 0 C536 0 561 23 561 64 C561 92 544 108 520 108 L509 108 L444 547 C441 570 429 579 405 579 L218 579 C171 579 146 556 146 515 C146 487 164 471 188 471 L235 471 Z " />
<glyph glyph-name="B" unicode="B" horiz-adv-x="602" d="M37 0 L302 0 C460 0 539 63 539 188 C539 255 507 293 436 310 C515 333 550 373 550 447 C550 541 490 579 365 579 L155 579 C108 579 83 556 83 515 C83 487 101 471 125 471 L138 471 L63 108 L49 108 C16 108 -10 82 -10 44 C-10 14 5 0 37 0 L37 0 Z M233 348 L259 471 L331 471 C391 471 419 464 419 420 C419 368 378 348 300 348 L233 348 Z M182 108 L212 251 L309 251 C379 251 406 241 406 187 C406 133 371 108 299 108 L182 108 Z " />
<glyph glyph-name="C" unicode="C" horiz-adv-x="602" d="M512 563 C471 584 429 595 382 595 C277 595 195 557 129 477 C70 406 32 301 32 204 C32 72 115 -15 253 -15 C409 -15 529 62 529 117 C529 141 512 159 489 159 C444 159 382 91 292 91 C212 91 169 139 169 223 C169 362 263 487 371 487 C433 487 470 456 470 407 C470 404 470 400 470 397 C470 361 481 354 516 354 C544 354 559 369 566 400 L595 537 C598 550 599 559 599 563 C599 585 587 594 563 594 C540 594 527 586 512 563 L512 563 Z " />
<glyph glyph-name="D" unicode="D" horiz-adv-x="602" d="M294 471 C388 471 434 436 434 355 C434 253 400 173 349 138 C317 116 272 109 212 109 L188 109 L263 471 L294 471 Z M37 0 L186 0 C304 0 395 4 476 89 C536 152 572 251 572 368 C572 513 485 579 306 579 L156 579 C109 579 84 556 84 515 C84 487 102 470 125 470 L138 470 L64 108 L50 108 C17 108 -10 82 -10 44 C-10 14 5 0 37 0 L37 0 Z " />
<glyph glyph-name="E" unicode="E" horiz-adv-x="602" d="M557 579 L158 579 C111 579 86 556 86 515 C86 487 104 471 128 471 L141 471 L66 108 L52 108 C19 108 -8 82 -8 44 C-8 14 8 0 40 0 L445 0 C473 0 485 10 491 39 L516 158 C518 166 518 173 518 178 C518 207 503 221 474 221 C437 221 421 202 412 150 L404 108 L191 108 L221 253 L297 253 C295 242 294 233 294 224 C294 199 308 189 338 189 C376 189 384 207 392 244 L414 350 C416 358 417 367 417 372 C417 397 402 410 375 410 C340 410 326 393 318 348 L241 348 L265 471 L480 471 L471 428 C469 417 468 408 468 399 C468 374 482 364 512 364 C550 364 558 382 566 419 L592 547 C593 549 593 551 593 554 C593 568 581 579 557 579 L557 579 Z " />
<glyph glyph-name="F" unicode="F" horiz-adv-x="602" d="M571 579 L172 579 C125 579 100 556 100 515 C100 487 117 471 141 471 L154 471 L80 108 L66 108 C33 108 6 82 6 44 C6 14 22 0 54 0 L209 0 C256 0 281 23 281 63 C281 93 264 108 231 108 L205 108 L235 253 L311 253 C309 242 308 233 308 224 C308 199 322 189 352 189 C390 189 398 207 406 244 L428 350 C430 358 431 367 431 372 C431 397 416 410 389 410 C354 410 339 393 331 348 L254 348 L279 471 L494 471 L485 428 C483 417 481 408 481 399 C481 374 495 364 525 364 C563 364 572 382 580 419 L606 547 C607 549 607 551 607 554 C607 568 595 579 571 579 L571 579 Z " />
<glyph glyph-name="G" unicode="G" horiz-adv-x="602" d="M500 563 C460 584 417 595 371 595 C267 595 186 557 120 477 C62 406 24 301 24 204 C24 68 105 -15 254 -15 C340 -15 420 6 457 24 C478 35 480 42 485 66 L507 180 C552 182 575 204 575 244 C575 274 559 288 528 288 L367 288 C320 288 295 266 295 225 C295 197 312 180 336 180 L393 180 L379 106 C351 96 323 91 292 91 C203 91 159 133 159 219 C159 290 188 369 233 423 C269 466 312 487 360 487 C422 487 458 456 458 407 C458 404 458 400 458 397 C458 361 470 354 504 354 C531 354 548 369 554 400 L582 537 C585 551 586 559 586 563 C586 585 574 594 550 594 C527 594 515 586 500 563 L500 563 Z " />
<glyph glyph-name="H" unicode="H" horiz-adv-x="602" d="M412 471 L389 356 L241 356 L265 471 C310 473 334 494 334 534 C334 564 318 579 286 579 L158 579 C111 579 86 556 86 515 C86 487 104 471 128 471 L141 471 L66 108 L52 108 C19 108 -8 82 -8 44 C-8 14 8 0 40 0 L169 0 C216 0 241 23 241 63 C241 93 225 108 191 108 L219 253 L367 253 L338 108 C293 107 270 84 270 44 C270 14 285 0 317 0 L443 0 C490 0 515 23 515 64 C515 92 498 108 474 108 L463 108 L537 471 C582 473 606 494 606 534 C606 564 590 579 558 579 L435 579 C388 579 363 555 363 515 C363 485 378 472 412 471 L412 471 Z " />
<glyph glyph-name="I" unicode="I" horiz-adv-x="602" d="M104 0 L381 0 C428 0 453 23 453 64 C453 92 435 108 411 108 L325 108 L399 471 L449 471 C511 471 543 481 543 534 C543 564 528 579 496 579 L222 579 C175 579 150 556 150 515 C150 487 168 471 192 471 L277 471 L203 108 L116 108 C83 108 56 82 56 44 C56 14 72 0 104 0 L104 0 Z " />
<glyph glyph-name="J" unicode="J" horiz-adv-x="602" d="M41 199 L22 90 C21 82 20 75 20 68 C20 48 28 36 55 20 C88 0 144 -15 208 -15 C299 -15 371 15 405 61 C437 104 445 159 459 224 L510 471 L529 471 C591 471 623 481 623 534 C623 564 608 579 576 579 L333 579 C286 579 261 556 261 515 C261 487 279 471 303 471 L388 471 L345 262 C321 146 302 86 215 86 C164 86 141 112 141 165 C141 191 148 213 148 230 C148 256 133 270 104 270 C66 270 50 251 41 199 L41 199 Z " />
<glyph glyph-name="K" unicode="K" horiz-adv-x="602" d="M425 476 L242 322 L274 471 C319 473 343 494 343 534 C343 564 327 579 295 579 L167 579 C120 579 95 556 95 515 C95 487 113 471 137 471 L150 471 L75 108 L61 108 C28 108 1 82 1 44 C1 14 17 0 49 0 L178 0 C225 0 250 23 250 63 C250 93 234 108 200 108 L218 199 L275 245 C312 214 333 161 353 88 C372 20 363 0 408 0 L476 0 C523 0 548 23 548 64 C548 92 531 108 507 108 L477 108 C457 205 426 276 376 324 L552 471 C597 473 621 494 621 534 C621 564 605 579 573 579 L459 579 C413 579 389 556 389 514 C389 492 401 481 425 476 L425 476 Z " />
<glyph glyph-name="L" unicode="L" horiz-adv-x="602" d="M44 0 L470 0 C498 0 509 10 515 39 L540 158 C542 166 543 173 543 178 C543 207 528 221 499 221 C462 221 445 202 436 150 L429 108 L215 108 L290 471 L322 471 C365 471 391 494 391 534 C391 564 375 579 343 579 L162 579 C115 579 90 556 90 515 C90 487 108 471 132 471 L165 471 L91 108 L56 108 C23 108 -3 82 -3 44 C-3 14 12 0 44 0 L44 0 Z " />
<glyph glyph-name="M" unicode="M" horiz-adv-x="602" d="M191 415 L217 191 C222 151 237 136 268 136 C302 136 321 149 341 186 L459 410 L402 108 L388 108 C355 108 328 82 328 44 C328 14 344 0 376 0 L484 0 C531 0 556 23 556 63 C556 93 541 108 507 108 L569 471 C614 473 637 494 637 534 C637 564 622 579 590 579 L515 579 C485 579 467 568 453 542 L293 240 L255 535 C251 568 236 579 201 579 L125 579 C78 579 53 556 53 515 C53 487 70 471 94 471 L107 471 L21 108 L6 108 C-27 108 -53 82 -53 44 C-53 14 -38 0 -6 0 L103 0 C150 0 175 23 175 63 C175 93 159 108 125 108 L191 415 Z " />
<glyph glyph-name="N" unicode="N" horiz-adv-x="602" d="M447 471 L393 180 L271 550 C264 571 253 579 230 579 L141 579 C94 579 69 556 69 515 C69 487 87 471 111 471 L124 471 L50 108 L35 108 C2 108 -24 82 -24 44 C-24 14 -9 0 23 0 L152 0 C199 0 224 23 224 63 C224 93 207 108 174 108 L158 108 L212 403 L340 20 C349 -6 359 -8 384 -8 L428 -8 C451 -8 458 0 463 25 L556 471 C601 473 624 494 624 534 C624 564 609 579 577 579 L453 579 C406 579 381 555 381 515 C381 484 398 471 435 471 L447 471 Z " />
<glyph glyph-name="O" unicode="O" horiz-adv-x="602" d="M348 595 C254 595 172 558 113 489 C52 418 17 322 17 228 C17 77 104 -15 256 -15 C361 -15 447 30 508 114 C557 182 585 266 585 351 C585 505 495 595 348 595 L348 595 Z M446 347 C446 218 362 97 270 97 C202 97 159 145 159 235 C159 367 243 485 335 485 C402 485 446 437 446 347 L446 347 Z " />
<glyph glyph-name="P" unicode="P" horiz-adv-x="602" d="M371 579 L169 579 C122 579 97 556 97 515 C97 487 114 471 138 471 L151 471 L77 108 L62 108 C29 108 3 82 3 44 C3 14 18 0 50 0 L206 0 C253 0 278 23 278 63 C278 93 261 108 228 108 L201 108 L222 210 L302 210 C486 210 578 281 578 419 C578 527 510 579 371 579 L371 579 Z M242 319 L277 471 L351 471 C411 471 442 447 442 403 C442 341 397 319 299 319 L242 319 Z " />
<glyph glyph-name="Q" unicode="Q" horiz-adv-x="602" d="M446 347 C446 218 362 97 270 97 C202 97 159 145 159 235 C159 367 243 485 335 485 C402 485 446 437 446 347 L446 347 Z M144 6 L79 -48 C49 -73 30 -91 30 -119 C30 -141 46 -158 69 -158 C98 -158 147 -119 210 -119 C250 -119 300 -150 357 -150 C428 -150 491 -108 491 -69 C491 -50 479 -41 456 -41 C435 -41 406 -63 377 -63 C348 -63 308 -41 253 -41 C204 -41 160 -55 109 -79 L193 -8 C216 -13 239 -15 262 -15 C445 -15 585 151 585 351 C585 506 496 595 347 595 C254 595 171 557 113 489 C52 418 17 322 17 228 C17 120 60 45 144 6 L144 6 Z " />
<glyph glyph-name="R" unicode="R" horiz-adv-x="602" d="M362 579 L160 579 C113 579 88 556 88 515 C88 487 105 471 129 471 L142 471 L68 108 L54 108 C21 108 -6 82 -6 44 C-6 14 10 0 42 0 L179 0 C226 0 251 23 251 63 C251 93 235 108 202 108 L193 108 L219 235 L265 235 C288 235 297 229 306 207 L380 34 C392 5 396 0 431 0 L478 0 C525 0 550 23 550 63 C550 93 533 108 500 108 L488 108 L435 239 C431 250 427 259 414 266 C510 291 561 350 561 436 C561 533 495 579 362 579 L362 579 Z M240 334 L268 472 L338 472 C394 472 423 451 423 411 C423 355 381 334 289 334 L240 334 Z " />
<glyph glyph-name="S" unicode="S" horiz-adv-x="602" d="M117 11 C170 -6 219 -14 265 -14 C417 -14 518 69 518 182 C518 270 460 304 359 351 C303 377 271 393 271 434 C271 474 307 501 357 501 C402 501 428 483 444 443 C457 410 459 390 497 390 C525 390 543 404 548 430 L569 545 C570 552 571 558 571 564 C571 590 558 604 533 604 C510 604 496 593 484 568 C442 588 404 595 359 595 C214 595 125 515 125 407 C125 343 162 295 238 257 C317 217 372 209 372 147 C372 108 334 76 274 76 C216 76 169 103 153 140 C136 180 148 217 100 217 C71 217 54 201 49 171 L29 42 C28 35 27 29 27 24 C27 -5 42 -20 70 -20 C89 -20 103 -10 117 11 L117 11 Z " />
<glyph glyph-name="T" unicode="T" horiz-adv-x="602" d="M100 0 L377 0 C424 0 449 23 449 64 C449 92 432 108 408 108 L322 108 L396 471 L498 471 L479 378 C477 368 475 358 475 349 C475 324 489 314 519 314 C557 314 566 333 574 369 L611 547 C611 549 612 551 612 553 C612 568 599 579 576 579 L131 579 C110 579 95 567 92 551 L55 378 C53 368 52 359 52 349 C52 324 66 314 96 314 C134 314 142 333 150 369 L172 471 L274 471 L199 108 L112 108 C79 108 53 82 53 44 C53 14 68 0 100 0 L100 0 Z " />
<glyph glyph-name="U" unicode="U" horiz-adv-x="602" d="M559 471 C604 473 627 494 627 534 C627 564 612 579 580 579 L461 579 C414 579 389 555 389 515 C389 485 405 472 439 471 L388 225 C369 134 338 91 260 91 C210 91 184 115 184 161 C184 177 186 195 189 212 L241 471 C285 474 307 495 307 534 C307 564 292 579 260 579 L132 579 C85 579 60 556 60 515 C60 487 77 471 101 471 L114 471 L66 232 C60 202 56 175 56 151 C56 40 121 -17 249 -17 C393 -17 473 50 502 194 L559 471 Z " />
<glyph glyph-name="V" unicode="V" horiz-adv-x="602" d="M325 26 L572 471 L580 471 C613 471 640 496 640 534 C640 564 624 579 592 579 L473 579 C426 579 401 555 401 515 C401 485 418 471 451 471 L456 471 L269 134 L227 471 L232 471 C275 471 301 494 301 534 C301 564 285 579 253 579 L117 579 C70 579 45 556 45 515 C45 487 62 471 86 471 L97 471 L162 32 C165 9 177 0 201 0 L280 0 C305 0 314 7 325 26 L325 26 Z " />
<glyph glyph-name="W" unicode="W" horiz-adv-x="602" d="M300 309 L335 27 C338 5 343 0 367 0 L403 0 C425 0 431 7 438 28 L577 471 L585 471 C618 471 645 496 645 534 C645 564 629 579 597 579 L490 579 C443 579 418 555 418 515 C418 485 434 471 467 471 L472 471 L397 203 L378 393 C374 432 360 442 330 442 C290 442 276 430 257 393 L158 204 L198 471 L203 471 C246 471 272 494 272 534 C272 564 256 579 224 579 L112 579 C65 579 40 556 40 515 C40 487 57 471 81 471 L92 471 L47 28 C47 24 46 20 46 17 C46 1 53 0 76 0 L107 0 C128 0 138 5 148 23 L300 309 Z " />
<glyph glyph-name="X" unicode="X" horiz-adv-x="602" d="M197 108 L287 212 L341 108 C339 108 337 108 335 108 C293 108 271 86 271 44 C271 15 285 0 313 0 L448 0 C495 0 520 23 520 64 C520 92 502 108 478 108 L468 108 L367 296 L521 471 C560 476 580 497 580 534 C580 564 565 579 533 579 L417 579 C378 579 358 555 358 514 C358 485 371 472 399 471 L321 380 L273 471 C314 473 334 494 334 535 C334 564 320 579 292 579 L170 579 C123 579 98 556 98 515 C98 487 115 471 139 471 L152 471 L243 297 L74 108 L60 108 C27 108 0 82 0 44 C0 14 16 0 48 0 L169 0 C216 0 241 23 241 64 C241 90 227 103 197 108 L197 108 Z " />
<glyph glyph-name="Y" unicode="Y" horiz-adv-x="602" d="M139 471 L220 212 L199 108 L123 108 C90 108 63 82 63 44 C63 14 79 0 111 0 L367 0 C414 0 439 23 439 64 C439 92 421 108 397 108 L322 108 L345 223 L527 471 C566 476 587 497 587 534 C587 564 571 579 539 579 L424 579 C385 579 364 555 364 514 C364 485 378 472 406 471 L307 326 L271 471 C307 477 324 497 324 535 C324 564 310 579 282 579 L157 579 C110 579 85 556 85 515 C85 487 102 471 126 471 L139 471 Z " />
<glyph glyph-name="Z" unicode="Z" horiz-adv-x="602" d="M221 404 L236 470 L369 470 L60 91 C52 82 45 62 45 42 C45 13 67 0 112 0 L400 0 C427 0 439 10 445 39 L476 183 C478 191 479 198 479 203 C479 232 463 246 434 246 C396 246 382 227 372 175 L359 108 L212 108 L521 487 C529 497 536 516 536 536 C536 565 514 579 469 579 L204 579 C175 579 158 565 152 538 L126 413 C124 402 123 392 123 384 C123 359 137 348 167 348 C206 348 213 369 221 404 L221 404 Z " />
<glyph glyph-name="bracketleft" unicode="&#x5b;" horiz-adv-x="602" d="M277 -102 L406 500 L469 500 C504 500 518 510 518 550 C518 570 511 579 491 579 L332 578 C307 578 297 565 291 538 L146 -141 C145 -145 144 -149 144 -153 C144 -171 157 -181 180 -181 L319 -180 C354 -180 368 -171 368 -131 C368 -111 361 -102 341 -102 L277 -102 Z " />
<glyph glyph-name="backslash" unicode="&#x5c;" horiz-adv-x="602" d="M96 603 L411 -70 C427 -105 442 -125 466 -125 C491 -125 522 -106 522 -75 C522 -60 515 -45 506 -26 L191 648 C175 683 161 703 136 703 C111 703 81 685 81 654 C81 638 87 622 96 603 L96 603 Z " />
<glyph glyph-name="bracketright" unicode="&#x5d;" horiz-adv-x="602" d="M308 500 L179 -102 L116 -102 C81 -102 67 -111 67 -151 C67 -171 74 -181 94 -181 L253 -180 C278 -180 288 -167 294 -140 L439 539 C440 543 441 547 441 551 C441 569 428 579 405 579 L266 578 C231 578 217 569 217 529 C217 509 224 500 244 500 L308 500 Z " />
<glyph glyph-name="asciicircum" unicode="&#x5e;" horiz-adv-x="602" d="M301 555 L456 428 C460 425 466 423 471 423 C478 423 484 425 489 430 C495 436 498 443 498 450 C498 459 494 469 486 479 L335 655 C327 665 314 670 301 670 C288 670 275 665 267 655 L116 479 C108 469 104 460 104 451 C104 443 107 436 113 430 C117 426 123 423 130 423 C137 423 144 426 150 431 L301 555 Z " />
<glyph glyph-name="underscore" unicode="&#x5f;" horiz-adv-x="602" d="M602 -207 L0 -207 C-12 -207 -22 -217 -22 -233 L-22 -280 C-22 -299 -12 -309 0 -309 L602 -309 C613 -309 625 -297 625 -280 L625 -233 C625 -216 617 -207 602 -207 L602 -207 Z " />
<glyph glyph-name="grave" unicode="&#x60;" horiz-adv-x="602" d="M362 499 L386 535 L196 666 C190 670 183 672 178 672 C170 672 161 667 155 658 L130 620 C127 616 127 612 127 608 C127 598 132 589 143 585 L362 499 Z " />
<glyph glyph-name="a" unicode="a" horiz-adv-x="602" d="M463 108 L502 291 C506 310 508 326 508 340 C508 421 452 465 344 465 C201 465 118 426 118 367 C118 342 132 329 160 329 C208 329 261 377 325 377 C365 377 389 355 389 320 C389 308 387 294 383 277 C347 284 311 288 275 288 C128 288 36 223 36 116 C36 36 88 -11 178 -11 C222 -11 285 5 350 42 C353 8 365 0 397 0 L440 0 C489 0 514 22 514 63 C514 93 497 108 463 108 L463 108 Z M351 125 C303 97 258 84 224 84 C181 84 160 101 160 137 C160 178 206 211 282 211 C301 211 330 207 367 201 L351 125 Z " />
<glyph glyph-name="b" unicode="b" horiz-adv-x="602" d="M319 357 C374 357 412 315 412 256 C412 160 354 93 283 93 C225 93 189 133 189 198 C189 288 248 357 319 357 L319 357 Z M27 0 L117 0 C138 0 143 12 150 34 L156 52 C192 10 234 -8 293 -8 C433 -8 541 106 541 260 C541 391 469 463 361 463 C313 463 269 447 232 415 L274 613 C274 615 275 617 275 619 C275 632 267 639 254 639 L162 639 C115 639 90 616 90 575 C90 547 108 530 131 530 L144 530 L54 108 C52 108 51 108 49 108 C5 108 -20 83 -20 44 C-20 14 -5 0 27 0 L27 0 Z " />
<glyph glyph-name="c" unicode="c" horiz-adv-x="602" d="M468 423 C433 450 387 463 330 463 C150 463 27 339 27 178 C27 62 109 -11 254 -11 C391 -11 503 50 503 105 C503 134 484 153 459 153 C425 153 368 89 267 89 C198 89 156 132 156 192 C156 287 223 360 327 360 C387 360 411 339 428 300 C441 270 447 251 478 251 C510 251 529 267 535 301 L555 410 C556 416 557 422 557 426 C557 454 544 464 514 464 C489 464 476 452 468 423 L468 423 Z " />
<glyph glyph-name="d" unicode="d" horiz-adv-x="602" d="M257 95 C202 95 165 137 165 197 C165 295 223 364 293 364 C351 364 387 323 387 257 C387 165 328 95 257 95 L257 95 Z M443 531 L414 405 C378 444 334 463 281 463 C142 463 35 344 35 192 C35 63 104 -11 211 -11 C274 -11 328 14 373 66 L364 26 C364 24 363 22 363 20 C363 7 371 0 384 0 L454 0 C501 0 526 23 526 64 C526 92 507 109 484 109 L471 109 L581 617 C581 619 582 621 582 623 C582 633 575 639 561 639 L412 639 C365 639 340 615 340 575 C340 545 357 531 390 531 L443 531 Z " />
<glyph glyph-name="e" unicode="e" horiz-adv-x="602" d="M169 272 C188 332 241 366 312 366 C375 366 413 334 413 286 C413 285 412 280 412 272 L169 272 Z M162 197 L446 197 C505 197 537 202 537 258 C537 376 455 463 319 463 C154 463 34 340 34 183 C34 65 120 -12 260 -12 C397 -12 510 50 510 105 C510 134 491 153 466 153 C432 153 370 88 273 88 C201 88 162 124 162 188 C162 191 162 194 162 197 L162 197 Z " />
<glyph glyph-name="f" unicode="f" horiz-adv-x="602" d="M374 436 C389 515 412 543 472 543 C503 543 533 534 561 534 C594 534 615 553 615 580 C615 622 572 639 484 639 C344 639 278 580 258 437 L209 437 C162 437 137 414 137 373 C137 345 155 328 178 328 L234 328 L188 109 L139 109 C92 109 67 86 67 45 C67 17 85 0 108 0 L383 0 C432 0 457 22 457 63 C457 93 441 108 406 108 L305 108 L351 328 L452 328 C501 328 526 350 526 391 C526 426 507 436 466 436 L374 436 Z " />
<glyph glyph-name="g" unicode="g" horiz-adv-x="602" d="M260 108 C205 108 169 149 169 206 C169 299 226 364 297 364 C355 364 391 326 391 263 C391 176 332 108 260 108 L260 108 Z M549 451 L472 451 C447 451 442 444 437 421 L430 391 C392 440 345 463 285 463 C144 463 39 347 39 203 C39 80 108 8 215 8 C268 8 308 23 353 57 C331 -46 290 -89 202 -89 C158 -89 124 -77 100 -77 C58 -77 35 -98 35 -131 C35 -175 81 -195 175 -195 C275 -195 344 -177 396 -121 C439 -76 452 -14 467 59 L525 344 C574 344 600 366 600 407 C600 437 584 451 549 451 L549 451 Z " />
<glyph glyph-name="h" unicode="h" horiz-adv-x="602" d="M190 108 L222 255 C236 319 292 360 337 360 C373 360 387 342 387 304 C387 295 387 286 385 277 L349 108 C307 104 286 82 286 44 C286 15 302 0 330 0 L446 0 C495 0 520 22 520 63 C520 93 503 108 469 108 L506 282 C510 302 512 321 512 340 C512 419 463 463 388 463 C341 463 292 444 253 406 L298 613 C298 615 299 617 299 619 C299 632 291 639 278 639 L180 639 C133 639 108 616 108 575 C108 547 127 530 150 530 L163 530 L73 108 C71 108 70 108 68 108 C24 108 -1 83 -1 44 C-1 14 15 0 47 0 L168 0 C215 0 240 23 240 63 C240 93 224 108 190 108 L190 108 Z " />
<glyph glyph-name="i" unicode="i" horiz-adv-x="602" d="M353 519 C391 519 401 522 413 549 C426 578 433 610 433 633 C433 668 424 672 383 672 C345 672 334 666 323 641 C308 609 300 569 300 545 C300 522 312 519 353 519 L353 519 Z M431 108 L334 108 L402 425 C402 427 403 429 403 431 C403 443 394 451 381 451 L233 451 C186 451 161 429 161 388 C161 360 180 343 203 343 L263 343 L214 108 L122 108 C73 108 48 86 48 44 C48 14 63 0 95 0 L408 0 C457 0 482 22 482 63 C482 93 466 108 431 108 L431 108 Z " />
<glyph glyph-name="j" unicode="j" horiz-adv-x="602" d="M322 343 L258 37 C240 -47 203 -87 136 -87 C105 -87 73 -77 44 -77 C4 -77 -19 -99 -19 -132 C-19 -172 24 -195 106 -195 C288 -195 345 -117 381 51 L461 425 C461 427 462 429 462 431 C462 444 454 451 441 451 L185 451 C138 451 113 429 113 388 C113 360 132 343 155 343 L322 343 Z M391 519 C429 519 439 522 451 549 C464 578 470 610 470 633 C470 668 461 672 420 672 C382 672 372 666 361 641 C346 609 338 569 338 545 C338 522 350 519 391 519 L391 519 Z " />
<glyph glyph-name="k" unicode="k" horiz-adv-x="602" d="M54 0 L145 0 C170 0 173 9 178 33 L200 132 L277 194 L332 90 C301 89 282 68 282 37 C282 13 295 0 319 0 L453 0 C502 0 527 22 527 63 C527 93 511 108 476 108 L460 108 L371 270 L416 305 C433 318 448 339 512 356 C540 364 557 374 557 410 C557 436 540 451 519 451 C513 451 508 451 506 451 L385 451 C348 451 327 429 327 394 C327 379 332 370 346 360 L227 265 L303 613 C303 615 304 617 304 619 C304 631 295 639 282 639 L187 639 C140 639 115 616 115 575 C115 547 134 530 157 530 L170 530 L81 108 C79 108 78 108 76 108 C32 108 7 83 7 44 C7 14 22 0 54 0 L54 0 Z " />
<glyph glyph-name="l" unicode="l" horiz-adv-x="602" d="M421 108 L324 108 L431 613 C431 615 432 617 432 619 C432 632 424 639 411 639 L263 639 C216 639 191 616 191 575 C191 547 209 530 232 530 L293 530 L203 108 L112 108 C63 108 38 86 38 44 C38 14 53 0 85 0 L398 0 C447 0 472 22 472 63 C472 93 456 108 421 108 L421 108 Z " />
<glyph glyph-name="m" unicode="m" horiz-adv-x="602" d="M70 343 L20 108 C18 108 17 108 15 108 C-29 108 -54 83 -54 44 C-54 14 -38 0 -6 0 L99 0 C146 0 171 23 171 63 C171 91 156 106 126 108 L165 279 C176 327 205 361 230 361 C248 361 260 348 260 327 C260 317 258 305 255 291 L201 36 C200 31 199 26 199 21 C199 7 206 0 224 0 L295 0 C342 0 367 23 367 63 C367 91 353 106 323 108 L361 279 C372 327 401 361 426 361 C444 361 456 348 456 327 C456 317 454 305 451 291 L397 36 C396 31 395 26 395 22 C395 7 403 0 421 0 L492 0 C539 0 564 23 564 63 C564 91 550 106 520 108 L558 279 C566 316 572 345 572 369 C572 429 535 463 479 463 C440 463 401 444 359 407 C347 444 322 463 287 463 C250 463 216 445 179 410 L183 429 C183 431 184 433 184 435 C184 445 176 451 164 451 L86 451 C39 451 14 429 14 388 C14 360 32 343 55 343 L70 343 Z " />
<glyph glyph-name="n" unicode="n" horiz-adv-x="602" d="M190 108 L222 255 C236 319 292 360 337 360 C373 360 387 342 387 304 C387 295 387 286 385 277 L349 108 C307 104 286 82 286 44 C286 15 302 0 330 0 L446 0 C495 0 520 22 520 63 C520 93 503 108 469 108 L506 282 C510 302 512 321 512 340 C512 419 463 463 388 463 C338 463 288 441 241 396 L246 425 C246 427 247 429 247 431 C247 444 239 451 226 451 L139 451 C92 451 67 429 67 388 C67 360 85 343 108 343 L121 343 L73 108 C71 108 70 108 68 108 C24 108 -1 83 -1 44 C-1 14 15 0 47 0 L168 0 C215 0 240 23 240 63 C240 93 224 108 190 108 L190 108 Z " />
<glyph glyph-name="o" unicode="o" horiz-adv-x="602" d="M39 189 C39 67 125 -12 259 -12 C423 -12 545 112 545 263 C545 384 459 464 324 464 C162 464 39 340 39 189 L39 189 Z M313 364 C372 364 413 320 413 259 C413 159 352 87 274 87 C211 87 171 130 171 197 C171 292 236 364 313 364 L313 364 Z " />
<glyph glyph-name="p" unicode="p" horiz-adv-x="602" d="M328 357 C383 357 420 316 420 260 C420 168 362 102 291 102 C233 102 197 141 197 203 C197 290 257 357 328 357 L328 357 Z M140 -87 L171 53 C207 18 249 3 302 3 C441 3 549 115 549 268 C549 390 475 463 373 463 C318 463 270 439 226 392 L231 425 C231 427 231 429 231 430 C231 444 224 451 211 451 L131 451 C84 451 59 429 59 388 C59 360 77 343 100 343 L113 343 L21 -87 L-4 -87 C-53 -87 -78 -108 -78 -150 C-78 -180 -63 -194 -31 -194 L171 -194 C218 -194 243 -171 243 -131 C243 -101 226 -87 193 -87 L140 -87 Z " />
<glyph glyph-name="q" unicode="q" horiz-adv-x="602" d="M258 104 C203 104 166 145 166 203 C166 298 223 365 294 365 C353 365 388 325 388 261 C388 172 329 104 258 104 L258 104 Z M553 451 L469 451 C444 451 439 444 434 421 L427 391 C389 440 343 463 283 463 C140 463 34 345 34 194 C34 71 103 -1 211 -1 C269 -1 314 17 352 54 L323 -87 L278 -87 C229 -87 205 -108 205 -150 C205 -180 220 -194 252 -194 L451 -194 C498 -194 523 -171 523 -131 C523 -101 506 -87 473 -87 L439 -87 L530 344 C579 344 604 366 604 407 C604 437 588 451 553 451 L553 451 Z " />
<glyph glyph-name="r" unicode="r" horiz-adv-x="602" d="M337 108 L227 108 L260 256 C329 322 385 350 405 350 C429 350 452 318 499 318 C542 318 571 346 571 392 C571 436 541 464 487 464 C427 464 350 428 268 354 L283 425 C283 427 284 429 284 431 C284 444 276 451 263 451 L175 451 C128 451 103 429 103 388 C103 360 122 343 145 343 L158 343 L110 108 C108 108 107 108 105 108 C61 108 36 83 36 44 C36 14 51 0 83 0 L314 0 C363 0 388 22 388 63 C388 93 372 108 337 108 L337 108 Z " />
<glyph glyph-name="s" unicode="s" horiz-adv-x="602" d="M132 18 C182 -2 230 -12 282 -12 C413 -12 493 54 493 144 C493 227 442 258 338 287 C282 302 241 306 241 341 C241 366 269 386 316 386 C357 386 391 372 413 349 C426 336 435 311 469 311 C491 311 505 324 509 345 L525 419 C526 425 527 430 527 435 C527 459 512 472 487 472 C471 472 456 463 448 444 C397 458 350 465 305 465 C182 465 110 405 110 320 C110 248 156 216 258 188 C317 172 357 163 357 124 C357 94 325 70 277 70 C214 70 175 88 158 126 C146 153 149 169 115 169 C87 169 71 155 65 126 L47 35 C46 30 45 25 45 21 C45 -4 62 -17 87 -17 C107 -17 123 -5 132 18 L132 18 Z " />
<glyph glyph-name="t" unicode="t" horiz-adv-x="602" d="M159 314 L136 201 C128 159 123 127 123 102 C123 29 170 -7 263 -7 C404 -7 508 49 508 100 C508 125 490 144 464 144 C425 144 371 96 303 96 C264 96 248 111 248 143 C248 156 250 171 254 191 L277 314 L421 314 C470 314 495 337 495 378 C495 408 479 422 444 422 L301 422 L324 533 C326 544 327 551 327 556 C327 584 311 600 280 600 C227 600 216 580 207 538 L183 423 L139 423 C92 423 67 400 67 359 C67 331 85 314 108 314 L159 314 Z " />
<glyph glyph-name="u" unicode="u" horiz-adv-x="602" d="M387 344 L356 197 C342 133 285 91 240 91 C204 91 190 109 190 147 C190 155 190 164 192 174 L246 425 C246 427 247 429 247 431 C247 444 239 451 226 451 L132 451 C83 451 58 429 58 388 C58 358 75 344 109 344 L72 169 C68 149 65 130 65 111 C65 32 114 -12 189 -12 C239 -12 290 11 337 56 L331 26 C331 24 330 22 330 20 C330 7 338 0 351 0 L439 0 C486 0 511 22 511 63 C511 91 492 109 469 109 L456 109 L522 425 C522 427 523 429 523 431 C523 443 515 451 502 451 L410 451 C363 451 338 428 338 388 C338 358 353 344 387 344 L387 344 Z " />
<glyph glyph-name="v" unicode="v" horiz-adv-x="602" d="M99 344 L169 37 C177 0 181 -12 223 -12 C261 -12 274 -9 304 36 L510 344 C552 347 574 369 574 407 C574 437 558 451 523 451 L413 451 C377 451 350 427 350 388 C350 359 362 349 394 344 L263 137 L221 344 C266 346 289 368 289 407 C289 437 273 451 238 451 L119 451 C83 451 55 427 55 388 C55 359 67 349 99 344 L99 344 Z " />
<glyph glyph-name="w" unicode="w" horiz-adv-x="602" d="M50 344 L48 52 C48 7 57 -12 112 -12 C152 -12 179 3 192 33 L287 243 L299 46 C302 3 319 -12 365 -12 C415 -12 435 7 452 50 L570 344 C612 347 634 369 634 407 C634 437 618 451 583 451 L475 451 C439 451 412 427 412 388 C412 359 424 349 456 344 L371 97 L357 287 C354 326 346 338 307 338 C271 338 257 324 241 289 L153 94 L163 344 C208 346 231 368 231 407 C231 437 215 451 180 451 L69 451 C33 451 6 427 6 388 C6 359 17 349 50 344 L50 344 Z " />
<glyph glyph-name="x" unicode="x" horiz-adv-x="602" d="M451 108 L358 231 L486 344 C528 347 550 369 550 407 C550 437 535 451 500 451 L427 451 C377 451 352 428 352 382 C352 368 356 360 369 352 L308 296 L266 352 C298 355 312 372 312 406 C312 438 297 451 262 451 L170 451 C124 451 98 429 98 388 C98 359 110 349 142 344 L228 230 L91 108 C49 105 27 82 27 44 C27 14 43 0 78 0 L151 0 C201 0 225 23 225 69 C225 83 221 92 208 100 L279 163 L326 100 C293 97 281 79 281 46 C281 14 296 0 331 0 L423 0 C469 0 495 23 495 64 C495 93 483 103 451 108 L451 108 Z " />
<glyph glyph-name="y" unicode="y" horiz-adv-x="602" d="M99 344 L176 10 L110 -87 L78 -87 C23 -87 -6 -101 -6 -150 C-6 -180 9 -194 41 -194 L224 -194 C273 -194 298 -172 298 -131 C298 -101 282 -87 247 -87 L224 -87 L510 344 C552 347 574 369 574 407 C574 437 558 451 523 451 L413 451 C377 451 350 427 350 388 C350 359 362 349 394 344 L263 137 L221 344 C266 346 289 368 289 407 C289 437 273 451 238 451 L119 451 C83 451 55 427 55 388 C55 359 67 349 99 344 L99 344 Z " />
<glyph glyph-name="z" unicode="z" horiz-adv-x="602" d="M100 0 L407 0 C434 0 446 11 452 38 L472 139 C473 144 474 149 474 154 C474 178 458 193 428 193 C404 193 387 178 379 147 L365 90 L219 90 L497 354 C513 369 522 388 522 403 C522 436 505 451 470 451 L182 451 C152 451 139 443 133 415 L112 321 C111 316 110 311 110 306 C110 283 125 267 156 267 C180 267 199 284 205 313 L215 361 L355 361 L73 97 C57 82 49 64 49 49 C49 16 65 0 100 0 L100 0 Z " />
<glyph glyph-name="braceleft" unicode="&#x7b;" horiz-adv-x="602" d="M261 44 L261 -23 C261 -130 299 -184 421 -184 C455 -184 473 -168 473 -141 C473 -102 436 -104 406 -96 C370 -86 367 -67 367 -12 L367 36 C367 137 349 184 266 198 C349 212 367 260 367 361 L367 409 C367 463 371 487 408 494 C446 501 473 504 473 538 C473 565 455 581 421 581 C299 581 261 526 261 419 L261 353 C261 288 253 259 197 251 C159 246 143 230 143 198 C143 166 159 150 197 145 C253 137 261 109 261 44 L261 44 Z " />
<glyph glyph-name="bar" unicode="&#x7c;" horiz-adv-x="602" d="M358 -208 L358 735 C358 762 336 788 301 788 C265 788 243 760 243 735 L243 -208 C243 -235 266 -261 301 -261 C337 -261 358 -233 358 -208 L358 -208 Z " />
<glyph glyph-name="braceright" unicode="&#x7d;" horiz-adv-x="602" d="M337 353 L337 419 C337 526 298 581 176 581 C142 581 124 565 124 538 C124 499 161 501 191 493 C227 483 230 464 230 409 L230 361 C230 260 248 212 331 198 C248 184 230 137 230 36 L230 -12 C230 -66 226 -90 189 -97 C151 -104 124 -107 124 -141 C124 -168 142 -184 176 -184 C298 -184 337 -130 337 -23 L337 44 C337 109 344 137 400 145 C438 150 454 166 454 198 C454 230 438 246 400 251 C344 259 337 288 337 353 L337 353 Z " />
<glyph glyph-name="asciitilde" unicode="&#x7e;" horiz-adv-x="602" d="M50 286 C50 260 65 243 89 243 C116 243 147 279 199 279 C260 279 329 237 404 237 C484 237 551 288 551 331 C551 357 536 373 513 373 C484 373 455 338 403 338 C342 338 272 380 199 380 C117 380 50 328 50 286 L50 286 Z " />
<glyph glyph-name="exclamdown" unicode="&#xa1;" horiz-adv-x="602" d="M358 366 C359 371 359 376 359 381 C359 406 347 418 317 418 C285 418 277 402 268 368 L191 67 C186 49 185 37 185 33 C185 5 203 -14 236 -14 C281 -14 305 11 313 63 L358 366 Z M421 525 C421 566 390 595 344 595 C297 595 266 566 266 525 C266 484 296 456 344 456 C391 456 421 485 421 525 L421 525 Z " />
<glyph glyph-name="cent" unicode="&#xa2;" horiz-adv-x="602" d="M465 478 C447 492 426 501 399 508 L426 610 C429 621 430 627 430 628 C430 643 418 646 395 646 C363 646 353 644 344 611 L319 513 C176 499 82 396 82 265 C82 184 127 129 211 106 L184 4 C181 -7 180 -14 180 -15 C180 -30 192 -32 215 -32 C247 -32 256 -31 265 2 L291 100 C423 106 497 155 497 203 C497 226 480 243 459 243 C425 243 380 192 292 192 C231 192 197 226 197 278 C197 362 254 423 340 423 C391 423 415 406 431 371 C442 346 448 329 475 329 C503 329 519 343 524 372 L541 467 C542 474 543 479 543 481 C543 505 531 514 505 514 C484 514 473 503 465 478 L465 478 Z " />
<glyph glyph-name="sterling" unicode="&#xa3;" horiz-adv-x="602" d="M194 255 C190 189 177 143 144 109 C115 80 78 79 78 44 C78 13 95 -15 118 -15 C138 -15 165 19 207 19 C262 19 316 -15 381 -15 C457 -15 512 23 512 65 C512 95 497 114 480 114 C458 114 430 95 392 95 C362 95 332 109 298 109 C282 109 263 105 241 100 C285 135 298 182 305 255 L449 255 C461 255 470 263 472 273 L481 318 C481 320 482 322 482 324 C482 335 475 341 463 341 L313 341 C323 479 334 540 403 540 C447 540 452 516 464 478 C469 461 475 451 500 451 C530 451 547 467 551 499 L557 545 C558 551 558 555 558 557 C558 602 498 632 405 632 C271 632 196 548 196 393 C196 377 197 359 199 341 L150 341 C137 341 130 334 127 320 L119 280 C118 277 118 273 118 271 C118 260 125 255 140 255 L194 255 Z " />
<glyph glyph-name="currency" unicode="&#xa4;" horiz-adv-x="602" d="M109 189 L197 280 C228 258 261 247 301 247 C343 247 376 260 404 280 L493 189 L543 240 L453 329 C474 360 484 394 484 432 C484 470 474 505 453 536 L543 625 L493 675 L404 585 C374 607 340 617 301 617 C262 617 228 607 197 585 L109 675 L59 625 L148 536 C127 505 117 469 117 432 C117 394 127 360 148 329 L59 240 L109 189 Z M190 432 C190 493 240 544 301 544 C362 544 412 493 412 432 C412 371 363 320 301 320 C239 320 190 370 190 432 L190 432 Z " />
<glyph glyph-name="yen" unicode="&#xa5;" horiz-adv-x="602" d="M198 98 L122 98 C91 98 63 73 63 43 C63 15 80 0 111 0 L367 0 C412 0 438 22 438 56 C438 82 420 98 396 98 L321 98 L348 254 L514 254 C538 254 550 266 550 288 C550 310 538 323 514 323 L397 323 L444 387 L535 387 C559 387 572 400 572 422 C572 444 559 457 535 457 L495 457 L532 515 C571 520 591 541 591 574 C591 602 575 616 544 616 L438 616 C401 616 378 593 378 557 C378 530 393 516 420 515 L309 337 L263 515 C301 518 321 538 321 574 C321 601 307 616 280 616 L162 616 C116 616 89 593 89 558 C89 532 108 515 131 515 L144 515 L161 457 L100 457 C76 457 63 444 63 422 C63 400 76 387 100 387 L182 387 L201 323 L79 323 C55 323 42 310 42 288 C42 266 55 254 79 254 L225 254 L198 98 Z " />
<glyph glyph-name="brokenbar" unicode="&#xa6;" horiz-adv-x="602" d="M253 329 L348 329 L348 699 L253 699 L253 329 Z M253 -172 L348 -172 L348 199 L253 199 L253 -172 Z " />
<glyph glyph-name="section" unicode="&#xa7;" horiz-adv-x="602" d="M400 101 C379 145 357 158 343 169 L231 261 C195 290 175 311 175 335 C175 350 184 364 201 375 C222 331 244 318 258 307 L369 215 C405 186 426 165 426 141 C426 126 417 112 400 101 L400 101 Z M137 -19 L144 9 C148 24 148 34 148 36 C148 54 134 65 106 65 C71 65 60 46 51 1 L37 -66 C36 -72 35 -77 35 -81 C35 -98 46 -103 72 -103 L258 -103 C343 -103 410 -46 415 42 C487 64 522 105 522 166 C522 225 493 257 444 298 L321 400 C301 417 290 426 290 446 C290 484 318 495 369 495 L464 495 L457 467 C453 452 453 442 453 440 C453 422 466 411 494 411 C529 411 541 430 550 475 L564 542 C565 548 566 553 566 557 C566 574 555 579 529 579 L343 579 C258 579 191 522 186 434 C114 412 79 370 79 309 C79 250 108 219 157 178 L280 76 C300 59 311 50 311 30 C311 -8 283 -19 232 -19 L137 -19 Z " />
<glyph glyph-name="dieresis" unicode="&#xa8;" horiz-adv-x="602" d="M149 582 C149 547 177 520 212 520 C247 520 272 545 272 582 C272 615 245 644 212 644 C178 644 149 614 149 582 L149 582 Z M391 582 C391 547 419 520 454 520 C489 520 515 545 515 582 C515 615 487 644 454 644 C420 644 391 614 391 582 L391 582 Z " />
<glyph glyph-name="copyright" unicode="&#xa9;" horiz-adv-x="602" d="M1 332 C1 251 33 176 90 120 C148 63 220 33 300 33 C381 33 455 64 511 120 C568 178 600 254 600 332 C600 410 567 489 512 544 C456 599 378 631 301 631 C221 631 145 599 89 542 C32 484 1 411 1 332 L1 332 Z M52 332 C52 397 78 461 125 509 C171 556 236 583 301 583 C365 583 429 556 475 510 C521 464 549 397 549 332 C549 267 523 204 475 155 C428 107 367 81 300 81 C234 81 175 107 126 155 C78 203 52 263 52 332 L52 332 Z M378 487 C351 499 325 505 300 505 C208 505 141 432 141 332 C141 230 207 159 302 159 C379 159 439 198 439 227 C439 245 428 259 414 259 C389 259 357 220 307 220 C252 220 220 259 220 332 C220 405 251 444 306 444 C345 444 362 429 372 395 C377 377 383 369 401 369 C423 369 429 377 429 401 L429 469 C429 490 420 501 404 501 C393 501 385 497 378 487 L378 487 Z " />
<glyph glyph-name="ordfeminine" unicode="&#xaa;" horiz-adv-x="602" d="M435 356 L466 502 C469 517 471 530 471 541 C471 606 426 641 340 641 C226 641 159 610 159 563 C159 543 171 532 193 532 C231 532 274 570 325 570 C357 570 375 551 375 528 C375 516 374 503 371 490 C341 496 313 499 288 499 C166 499 93 445 93 366 C93 297 134 261 207 261 C242 261 293 273 345 303 C347 277 357 269 382 269 L416 269 C455 269 476 287 476 320 C476 342 462 355 444 355 C441 355 438 356 435 356 L435 356 Z M345 369 C306 346 270 336 243 336 C211 336 193 351 193 376 C193 412 229 438 290 438 C307 438 329 435 358 430 L345 369 Z " />
<glyph glyph-name="guillemotleft" unicode="&#xab;" horiz-adv-x="602" d="M388 225 L462 350 C466 356 468 364 468 371 C468 391 448 408 428 408 C416 408 405 401 400 394 L308 258 C302 248 298 241 298 234 C298 229 300 222 303 213 L364 56 C368 45 383 36 398 36 C420 36 437 52 437 74 C437 78 437 82 435 87 L388 225 Z M216 225 L290 350 C294 356 296 364 296 371 C296 391 276 408 256 408 C244 408 232 401 227 394 L136 258 C130 248 126 241 126 234 C126 229 128 222 131 213 L192 56 C196 45 210 36 225 36 C248 36 265 53 265 74 C265 78 264 83 263 87 L216 225 Z " />
<glyph glyph-name="logicalnot" unicode="&#xac;" horiz-adv-x="602" d="M465 359 L465 210 C465 174 481 157 514 157 C547 157 566 178 566 210 L566 424 C566 444 550 458 524 458 L87 458 C57 458 34 437 34 408 C34 378 55 359 87 359 L465 359 Z " />
<glyph glyph-name="registered" unicode="&#xae;" horiz-adv-x="602" d="M1 332 C1 251 33 176 90 120 C148 63 220 33 300 33 C381 33 455 64 511 120 C568 178 600 254 600 332 C600 410 567 489 512 544 C456 599 378 631 301 631 C221 631 145 599 89 542 C32 484 1 411 1 332 L1 332 Z M52 332 C52 397 78 461 125 509 C171 556 236 583 301 583 C365 583 429 556 475 510 C521 464 549 397 549 332 C549 267 523 204 475 155 C428 107 367 81 300 81 C234 81 175 107 126 155 C78 203 52 263 52 332 L52 332 Z M367 326 C409 342 429 369 429 409 C429 467 390 496 314 496 L192 496 C169 496 158 489 158 467 C158 448 168 437 187 437 C189 437 190 437 192 437 L192 239 C190 239 188 239 187 239 C168 239 158 229 158 210 C158 188 169 180 192 180 L260 180 C284 180 295 188 295 210 C295 229 284 239 264 239 C263 239 262 239 261 239 L261 309 L286 309 C293 309 300 306 305 298 L369 196 C377 184 381 180 399 180 L432 180 C456 180 465 188 465 210 C465 230 455 239 433 239 C431 239 428 239 426 239 L382 308 C377 315 374 322 367 326 L367 326 Z M258 439 L303 439 C337 439 353 428 353 401 C353 372 334 363 294 363 L258 363 L258 439 Z " />
<glyph glyph-name="macron" unicode="&#xaf;" horiz-adv-x="602" d="M494 613 L187 613 C180 613 176 609 174 599 L166 563 C166 562 166 561 166 560 C166 552 172 547 179 547 L486 547 C493 547 496 552 498 561 L506 597 C506 598 506 599 506 600 C506 608 501 613 494 613 L494 613 Z " />
<glyph glyph-name="degree" unicode="&#xb0;" horiz-adv-x="602" d="M172 507 C172 419 241 350 329 350 C417 350 486 419 486 507 C486 594 417 664 329 664 C241 664 172 594 172 507 L172 507 Z M245 507 C245 555 282 592 329 592 C376 592 412 554 412 507 C412 460 376 422 329 422 C282 422 245 459 245 507 L245 507 Z " />
<glyph glyph-name="plusminus" unicode="&#xb1;" horiz-adv-x="602" d="M351 218 L351 340 L487 340 C519 340 541 360 541 391 C541 421 519 442 487 442 L351 442 L351 565 C351 597 331 619 300 619 C270 619 250 597 250 565 L250 442 L115 442 C83 442 61 422 61 391 C61 361 83 340 115 340 L250 340 L250 218 C250 186 270 164 300 164 C331 164 351 186 351 218 L351 218 Z M115 30 L487 30 C519 30 541 50 541 81 C541 111 519 131 487 131 L115 131 C83 131 61 111 61 80 C61 50 83 30 115 30 L115 30 Z " />
<glyph glyph-name="twosuperior" unicode="&#xb2;" horiz-adv-x="602" d="M243 313 C365 388 433 435 433 509 C433 579 380 632 301 632 C229 632 157 595 157 555 C157 535 175 519 194 519 C215 519 244 552 285 552 C318 552 339 531 339 502 C339 464 307 435 250 397 C187 355 146 335 146 287 C146 258 159 241 184 241 L406 241 C435 241 453 248 456 269 L463 316 C464 320 464 323 464 326 C464 351 448 369 424 369 C404 369 388 354 384 331 L381 313 L243 313 Z " />
<glyph glyph-name="threesuperior" unicode="&#xb3;" horiz-adv-x="602" d="M375 445 C413 472 430 495 430 531 C430 585 375 632 293 632 C214 632 153 589 153 551 C153 537 165 524 184 524 C213 524 242 559 284 559 C318 559 339 542 339 517 C339 490 308 473 262 473 C250 473 232 460 232 437 C232 403 255 404 295 400 C336 396 358 379 358 350 C358 322 326 298 280 298 C222 298 191 329 164 329 C143 329 127 315 127 296 C127 257 186 223 278 223 C386 223 452 277 452 345 C452 387 426 421 375 445 L375 445 Z " />
<glyph glyph-name="acute" unicode="&#xb4;" horiz-adv-x="602" d="M300 499 L519 585 C530 589 536 598 536 608 C536 612 535 616 532 620 L507 658 C501 667 492 672 484 672 C479 672 472 670 466 666 L276 535 L300 499 Z " />
<glyph glyph-name="mu" unicode="&#xb5;" horiz-adv-x="602" d="M477 99 L538 380 C540 389 541 397 541 403 C541 436 525 453 490 453 C448 453 437 431 429 394 L394 240 C370 137 325 85 250 85 C216 85 198 100 198 128 C198 136 199 149 203 165 L253 384 C254 393 255 400 255 406 C255 438 238 453 202 453 L137 453 C97 453 73 432 73 398 C73 371 93 353 116 353 L133 353 L28 -124 C26 -132 25 -139 25 -146 C25 -178 43 -195 78 -195 C112 -195 129 -177 137 -138 L169 20 C187 -1 209 -10 237 -10 C283 -10 325 16 359 67 C358 55 358 48 358 45 C358 13 374 0 410 0 L476 0 C516 0 539 20 539 54 C539 81 521 99 497 99 L477 99 Z " />
<glyph glyph-name="paragraph" unicode="&#xb6;" horiz-adv-x="602" d="M504 616 L342 616 C145 616 46 549 46 433 C46 340 107 273 215 257 L215 31 C212 31 210 31 207 31 C172 31 154 12 154 -23 C154 -64 174 -76 215 -76 L316 -76 C346 -76 354 -67 354 -36 C354 -15 348 -4 333 5 L333 508 L389 508 L389 5 C377 -8 371 -22 371 -36 C371 -63 383 -76 408 -76 L504 -76 C545 -76 565 -64 565 -23 C565 12 547 31 512 31 C509 31 507 31 504 31 L504 508 C507 508 509 508 512 508 C547 508 565 527 565 562 C565 603 545 616 504 616 L504 616 Z " />
<glyph glyph-name="periodcentered" unicode="&#xb7;" horiz-adv-x="602" d="M202 310 C202 255 245 210 301 210 C356 210 400 254 400 310 C400 365 356 409 301 409 C246 409 202 365 202 310 L202 310 Z " />
<glyph glyph-name="cedilla" unicode="&#xb8;" horiz-adv-x="602" d="M264 0 L222 0 L200 -108 C208 -107 215 -107 221 -107 C252 -107 266 -117 266 -141 C266 -167 243 -184 213 -184 C174 -184 141 -161 119 -161 C107 -161 96 -171 96 -184 C96 -210 148 -231 227 -231 C302 -231 353 -188 353 -135 C353 -93 320 -63 265 -63 C260 -63 255 -64 250 -64 L264 0 Z " />
<glyph glyph-name="onesuperior" unicode="&#xb9;" horiz-adv-x="602" d="M347 316 L347 585 C347 612 342 624 315 624 C313 624 310 624 308 624 L229 619 C202 617 188 604 188 579 C188 559 203 544 227 544 C229 544 231 544 233 544 L257 546 L257 316 L237 316 C192 316 176 311 176 279 C176 254 188 241 212 241 L392 241 C416 241 428 254 428 279 C428 311 411 316 366 316 L347 316 Z " />
<glyph glyph-name="ordmasculine" unicode="&#xba;" horiz-adv-x="602" d="M90 420 C90 323 159 259 265 259 C395 259 494 356 494 478 C494 575 426 639 318 639 C190 639 90 542 90 420 L90 420 Z M309 560 C357 560 389 524 389 475 C389 395 339 338 278 338 C227 338 196 372 196 427 C196 501 248 560 309 560 L309 560 Z " />
<glyph glyph-name="guillemotright" unicode="&#xbb;" horiz-adv-x="602" d="M206 222 L131 96 C127 90 126 82 126 75 C126 55 146 38 166 38 C178 38 189 45 194 52 L286 188 C292 198 296 206 296 213 C296 218 294 225 291 234 L230 390 C226 401 211 410 196 410 C174 410 157 394 157 373 C157 369 157 365 159 360 L206 222 Z M378 222 L304 96 C300 90 298 82 298 75 C298 55 318 38 338 38 C350 38 362 45 367 52 L458 188 C464 198 468 206 468 213 C468 218 466 225 463 234 L402 390 C398 401 384 410 369 410 C346 410 329 394 329 373 C329 369 330 364 331 360 L378 222 Z " />
<glyph glyph-name="onequarter" unicode="&#xbc;" horiz-adv-x="602" d="M437 40 L321 40 L437 189 L437 40 Z M186 397 L186 644 C186 670 177 680 153 680 C151 680 150 680 149 680 L73 675 C47 674 34 662 34 639 C34 621 49 606 73 606 C74 606 76 606 77 606 L105 608 L105 397 L81 397 C38 397 23 393 23 363 C23 340 35 328 57 328 L230 328 C252 328 264 340 264 363 C264 393 248 397 205 397 L186 397 Z M492 419 L74 207 C63 201 56 191 56 181 C56 167 67 154 82 154 C87 154 93 155 98 158 L517 370 C528 376 535 387 535 397 C535 411 524 423 509 423 C504 423 498 422 492 419 L492 419 Z M509 40 L509 222 C509 241 504 251 493 253 L444 261 C438 262 432 262 426 262 C418 262 413 256 405 246 L267 76 C251 57 249 37 249 14 C249 -13 257 -26 280 -26 L430 -26 L430 -65 C430 -88 443 -93 470 -93 C495 -93 509 -87 509 -65 L509 -26 L546 -26 C568 -26 570 -13 570 9 C570 32 568 40 546 40 L509 40 Z " />
<glyph glyph-name="onehalf" unicode="&#xbd;" horiz-adv-x="602" d="M415 -17 L481 32 C538 74 567 118 567 162 C567 223 520 267 452 267 C386 267 325 231 325 199 C325 178 335 166 353 166 C378 166 407 195 438 195 C464 195 480 177 480 151 C480 117 449 92 398 48 C356 12 326 -9 326 -44 C326 -70 338 -86 361 -86 L534 -86 C555 -86 571 -71 571 -51 C571 -31 556 -17 532 -17 L415 -17 Z M186 397 L186 644 C186 670 177 680 153 680 C151 680 150 680 149 680 L73 675 C47 674 34 662 34 639 C34 621 49 606 73 606 C74 606 76 606 77 606 L105 608 L105 397 L81 397 C38 397 23 393 23 363 C23 340 35 328 57 328 L230 328 C252 328 264 340 264 363 C264 393 248 397 205 397 L186 397 Z M492 419 L74 207 C63 201 56 191 56 181 C56 167 67 154 82 154 C87 154 93 155 98 158 L517 370 C528 376 535 387 535 397 C535 411 524 423 509 423 C504 423 498 422 492 419 L492 419 Z " />
<glyph glyph-name="threequarters" unicode="&#xbe;" horiz-adv-x="602" d="M239 519 C275 536 293 561 293 596 C293 644 248 688 177 688 C106 688 54 656 54 626 C54 608 67 595 85 595 C105 595 135 622 169 622 C193 622 206 609 206 586 C206 558 195 550 168 544 C146 539 133 535 133 515 C133 490 148 488 171 486 C200 484 220 463 220 438 C220 409 195 387 158 387 C124 387 99 408 73 408 C51 408 38 395 38 372 C38 342 85 321 162 321 C252 321 307 369 307 430 C307 469 284 499 239 519 L239 519 Z M509 40 L509 222 C509 241 504 251 493 253 L444 261 C438 262 432 262 426 262 C418 262 413 256 405 246 L267 76 C251 57 249 37 249 14 C249 -13 257 -26 280 -26 L430 -26 L430 -65 C430 -88 443 -93 470 -93 C495 -93 509 -87 509 -65 L509 -26 L546 -26 C568 -26 570 -13 570 9 C570 32 568 40 546 40 L509 40 Z M437 40 L321 40 L437 189 L437 40 Z M492 419 L74 207 C63 201 56 191 56 181 C56 167 67 154 82 154 C87 154 93 155 98 158 L517 370 C528 376 535 387 535 397 C535 411 524 423 509 423 C504 423 498 422 492 419 L492 419 Z " />
<glyph glyph-name="questiondown" unicode="&#xbf;" horiz-adv-x="602" d="M484 525 C484 566 453 595 407 595 C360 595 329 566 329 525 C329 484 359 456 407 456 C454 456 484 485 484 525 L484 525 Z M309 337 C168 302 98 237 98 141 C98 43 162 -13 273 -13 C374 -13 437 11 447 59 L460 121 C461 125 461 129 461 132 C461 152 447 161 419 161 C378 161 376 134 366 115 C355 94 326 80 292 80 C255 80 231 105 231 136 C231 175 258 213 299 231 L356 256 C396 274 420 302 428 339 L434 366 C435 370 435 375 435 378 C435 403 417 417 385 417 C343 417 325 401 317 369 L309 337 Z " />
<glyph glyph-name="Agrave" unicode="&#xc0;" horiz-adv-x="602" d="M231 264 L342 478 L372 264 L231 264 Z M235 471 L34 108 L16 108 C-17 108 -44 82 -44 44 C-44 14 -28 0 4 0 L133 0 C180 0 205 23 205 63 C205 93 188 108 155 108 L150 108 L179 162 L385 162 L392 108 L368 108 C325 108 299 84 299 44 C299 14 315 0 347 0 L489 0 C536 0 561 23 561 64 C561 92 544 108 520 108 L509 108 L444 547 C441 570 429 579 405 579 L218 579 C171 579 146 556 146 515 C146 487 164 471 188 471 L235 471 Z M386 631 L410 667 L220 798 C214 802 207 804 202 804 C194 804 185 799 179 790 L154 752 C151 748 151 744 151 740 C151 730 156 721 167 717 L386 631 Z " />
<glyph glyph-name="Aacute" unicode="&#xc1;" horiz-adv-x="602" d="M231 264 L342 478 L372 264 L231 264 Z M235 471 L34 108 L16 108 C-17 108 -44 82 -44 44 C-44 14 -28 0 4 0 L133 0 C180 0 205 23 205 63 C205 93 188 108 155 108 L150 108 L179 162 L385 162 L392 108 L368 108 C325 108 299 84 299 44 C299 14 315 0 347 0 L489 0 C536 0 561 23 561 64 C561 92 544 108 520 108 L509 108 L444 547 C441 570 429 579 405 579 L218 579 C171 579 146 556 146 515 C146 487 164 471 188 471 L235 471 Z M324 631 L543 717 C554 721 560 730 560 740 C560 744 559 748 556 752 L531 790 C525 799 516 804 508 804 C503 804 496 802 490 798 L300 667 L324 631 Z " />
<glyph glyph-name="Acircumflex" unicode="&#xc2;" horiz-adv-x="602" d="M231 264 L342 478 L372 264 L231 264 Z M235 471 L34 108 L16 108 C-17 108 -44 82 -44 44 C-44 14 -28 0 4 0 L133 0 C180 0 205 23 205 63 C205 93 188 108 155 108 L150 108 L179 162 L385 162 L392 108 L368 108 C325 108 299 84 299 44 C299 14 315 0 347 0 L489 0 C536 0 561 23 561 64 C561 92 544 108 520 108 L509 108 L444 547 C441 570 429 579 405 579 L218 579 C171 579 146 556 146 515 C146 487 164 471 188 471 L235 471 Z M380 716 L480 650 C486 646 494 644 500 644 C514 644 523 653 523 665 C523 674 517 678 508 687 L414 780 C405 789 394 794 381 794 C372 794 362 791 354 785 L213 688 C199 678 188 674 188 660 C188 650 197 642 208 642 C211 642 219 644 231 649 L380 716 Z " />
<glyph glyph-name="Atilde" unicode="&#xc3;" horiz-adv-x="602" d="M231 264 L342 478 L372 264 L231 264 Z M235 471 L34 108 L16 108 C-17 108 -44 82 -44 44 C-44 14 -28 0 4 0 L133 0 C180 0 205 23 205 63 C205 93 188 108 155 108 L150 108 L179 162 L385 162 L392 108 L368 108 C325 108 299 84 299 44 C299 14 315 0 347 0 L489 0 C536 0 561 23 561 64 C561 92 544 108 520 108 L509 108 L444 547 C441 570 429 579 405 579 L218 579 C171 579 146 556 146 515 C146 487 164 471 188 471 L235 471 Z M307 766 C245 766 185 712 185 679 C185 671 192 665 201 665 C217 665 240 699 275 699 C307 699 360 668 419 668 C482 668 542 722 542 756 C542 763 534 770 526 770 C510 770 487 735 452 735 C421 735 367 766 307 766 L307 766 Z " />
<glyph glyph-name="Adieresis" unicode="&#xc4;" horiz-adv-x="602" d="M231 264 L342 478 L372 264 L231 264 Z M235 471 L34 108 L16 108 C-17 108 -44 82 -44 44 C-44 14 -28 0 4 0 L133 0 C180 0 205 23 205 63 C205 93 188 108 155 108 L150 108 L179 162 L385 162 L392 108 L368 108 C325 108 299 84 299 44 C299 14 315 0 347 0 L489 0 C536 0 561 23 561 64 C561 92 544 108 520 108 L509 108 L444 547 C441 570 429 579 405 579 L218 579 C171 579 146 556 146 515 C146 487 164 471 188 471 L235 471 Z M173 714 C173 679 201 652 236 652 C271 652 296 677 296 714 C296 747 269 776 236 776 C202 776 173 746 173 714 L173 714 Z M415 714 C415 679 443 652 478 652 C513 652 539 677 539 714 C539 747 511 776 478 776 C444 776 415 746 415 714 L415 714 Z " />
<glyph glyph-name="Aring" unicode="&#xc5;" horiz-adv-x="602" d="M200 743 C200 669 259 611 332 611 C405 611 464 669 464 743 C464 816 405 875 332 875 C258 875 200 816 200 743 L200 743 Z M270 744 C270 778 297 806 332 806 C366 806 394 778 394 744 C394 709 366 681 332 681 C297 681 270 709 270 744 L270 744 Z M235 471 L34 108 L16 108 C-17 108 -44 82 -44 44 C-44 14 -28 0 4 0 L133 0 C180 0 205 23 205 63 C205 93 188 108 155 108 L150 108 L179 162 L385 162 L392 108 L368 108 C325 108 299 84 299 44 C299 14 315 0 347 0 L489 0 C536 0 561 23 561 64 C561 92 544 108 520 108 L509 108 L444 547 C441 570 429 579 405 579 L218 579 C171 579 146 556 146 515 C146 487 164 471 188 471 L235 471 Z M231 264 L342 478 L372 264 L231 264 Z " />
<glyph glyph-name="AE" unicode="&#xc6;" horiz-adv-x="602" d="M201 0 L500 0 C527 0 539 11 545 39 L569 159 C571 168 572 177 572 184 C572 212 562 221 537 221 C506 221 489 198 480 150 L472 108 L334 108 L369 276 L403 276 C401 266 400 258 400 253 C400 230 412 220 438 220 C470 220 478 238 484 272 L494 324 C495 332 496 338 496 342 C496 367 484 380 460 380 C430 380 417 364 413 325 L379 325 L412 482 L552 482 L540 428 C538 418 537 409 537 399 C537 376 551 363 575 363 C607 363 618 384 625 419 L651 547 C652 549 652 551 652 554 C652 568 640 579 616 579 L203 579 C158 579 134 559 134 524 C134 499 152 482 175 482 L190 482 L3 108 L-19 108 C-52 108 -78 82 -78 44 C-78 14 -63 0 -31 0 L21 0 C40 0 51 8 60 26 L134 179 L254 179 L240 108 L213 108 C180 108 154 82 154 44 C154 14 169 0 201 0 L201 0 Z M171 253 L283 482 L318 482 L269 253 L171 253 Z " />
<glyph glyph-name="Ccedilla" unicode="&#xc7;" horiz-adv-x="602" d="M512 563 C471 584 429 595 382 595 C277 595 195 557 129 477 C70 406 32 301 32 204 C32 72 115 -15 253 -15 C409 -15 529 62 529 117 C529 141 512 159 489 159 C444 159 382 91 292 91 C212 91 169 139 169 223 C169 362 263 487 371 487 C433 487 470 456 470 407 C470 404 470 400 470 397 C470 361 481 354 516 354 C544 354 559 369 566 400 L595 537 C598 550 599 559 599 563 C599 585 587 594 563 594 C540 594 527 586 512 563 L512 563 Z M271 0 L229 0 L207 -108 C215 -107 222 -107 228 -107 C259 -107 273 -117 273 -141 C273 -167 250 -184 220 -184 C181 -184 148 -161 126 -161 C114 -161 103 -171 103 -184 C103 -210 155 -231 234 -231 C309 -231 360 -188 360 -135 C360 -93 327 -63 272 -63 C267 -63 262 -64 257 -64 L271 0 Z " />
<glyph glyph-name="Egrave" unicode="&#xc8;" horiz-adv-x="602" d="M557 579 L158 579 C111 579 86 556 86 515 C86 487 104 471 128 471 L141 471 L66 108 L52 108 C19 108 -8 82 -8 44 C-8 14 8 0 40 0 L445 0 C473 0 485 10 491 39 L516 158 C518 166 518 173 518 178 C518 207 503 221 474 221 C437 221 421 202 412 150 L404 108 L191 108 L221 253 L297 253 C295 242 294 233 294 224 C294 199 308 189 338 189 C376 189 384 207 392 244 L414 350 C416 358 417 367 417 372 C417 397 402 410 375 410 C340 410 326 393 318 348 L241 348 L265 471 L480 471 L471 428 C469 417 468 408 468 399 C468 374 482 364 512 364 C550 364 558 382 566 419 L592 547 C593 549 593 551 593 554 C593 568 581 579 557 579 L557 579 Z M398 631 L422 667 L232 798 C226 802 219 804 214 804 C206 804 197 799 191 790 L166 752 C163 748 163 744 163 740 C163 730 168 721 179 717 L398 631 Z " />
<glyph glyph-name="Eacute" unicode="&#xc9;" horiz-adv-x="602" d="M557 579 L158 579 C111 579 86 556 86 515 C86 487 104 471 128 471 L141 471 L66 108 L52 108 C19 108 -8 82 -8 44 C-8 14 8 0 40 0 L445 0 C473 0 485 10 491 39 L516 158 C518 166 518 173 518 178 C518 207 503 221 474 221 C437 221 421 202 412 150 L404 108 L191 108 L221 253 L297 253 C295 242 294 233 294 224 C294 199 308 189 338 189 C376 189 384 207 392 244 L414 350 C416 358 417 367 417 372 C417 397 402 410 375 410 C340 410 326 393 318 348 L241 348 L265 471 L480 471 L471 428 C469 417 468 408 468 399 C468 374 482 364 512 364 C550 364 558 382 566 419 L592 547 C593 549 593 551 593 554 C593 568 581 579 557 579 L557 579 Z M336 631 L555 717 C566 721 572 730 572 740 C572 744 571 748 568 752 L543 790 C537 799 528 804 520 804 C515 804 508 802 502 798 L312 667 L336 631 Z " />
<glyph glyph-name="Ecircumflex" unicode="&#xca;" horiz-adv-x="602" d="M557 579 L158 579 C111 579 86 556 86 515 C86 487 104 471 128 471 L141 471 L66 108 L52 108 C19 108 -8 82 -8 44 C-8 14 8 0 40 0 L445 0 C473 0 485 10 491 39 L516 158 C518 166 518 173 518 178 C518 207 503 221 474 221 C437 221 421 202 412 150 L404 108 L191 108 L221 253 L297 253 C295 242 294 233 294 224 C294 199 308 189 338 189 C376 189 384 207 392 244 L414 350 C416 358 417 367 417 372 C417 397 402 410 375 410 C340 410 326 393 318 348 L241 348 L265 471 L480 471 L471 428 C469 417 468 408 468 399 C468 374 482 364 512 364 C550 364 558 382 566 419 L592 547 C593 549 593 551 593 554 C593 568 581 579 557 579 L557 579 Z M392 716 L492 650 C498 646 506 644 512 644 C526 644 535 653 535 665 C535 674 529 678 520 687 L426 780 C417 789 406 794 393 794 C384 794 374 791 366 785 L225 688 C211 678 200 674 200 660 C200 650 209 642 220 642 C223 642 231 644 243 649 L392 716 Z " />
<glyph glyph-name="Edieresis" unicode="&#xcb;" horiz-adv-x="602" d="M557 579 L158 579 C111 579 86 556 86 515 C86 487 104 471 128 471 L141 471 L66 108 L52 108 C19 108 -8 82 -8 44 C-8 14 8 0 40 0 L445 0 C473 0 485 10 491 39 L516 158 C518 166 518 173 518 178 C518 207 503 221 474 221 C437 221 421 202 412 150 L404 108 L191 108 L221 253 L297 253 C295 242 294 233 294 224 C294 199 308 189 338 189 C376 189 384 207 392 244 L414 350 C416 358 417 367 417 372 C417 397 402 410 375 410 C340 410 326 393 318 348 L241 348 L265 471 L480 471 L471 428 C469 417 468 408 468 399 C468 374 482 364 512 364 C550 364 558 382 566 419 L592 547 C593 549 593 551 593 554 C593 568 581 579 557 579 L557 579 Z M185 714 C185 679 213 652 248 652 C283 652 308 677 308 714 C308 747 281 776 248 776 C214 776 185 746 185 714 L185 714 Z M427 714 C427 679 455 652 490 652 C525 652 551 677 551 714 C551 747 523 776 490 776 C456 776 427 746 427 714 L427 714 Z " />
<glyph glyph-name="Igrave" unicode="&#xcc;" horiz-adv-x="602" d="M104 0 L381 0 C428 0 453 23 453 64 C453 92 435 108 411 108 L325 108 L399 471 L449 471 C511 471 543 481 543 534 C543 564 528 579 496 579 L222 579 C175 579 150 556 150 515 C150 487 168 471 192 471 L277 471 L203 108 L116 108 C83 108 56 82 56 44 C56 14 72 0 104 0 L104 0 Z M386 631 L410 667 L220 798 C214 802 207 804 202 804 C194 804 185 799 179 790 L154 752 C151 748 151 744 151 740 C151 730 156 721 167 717 L386 631 Z " />
<glyph glyph-name="Iacute" unicode="&#xcd;" horiz-adv-x="602" d="M104 0 L381 0 C428 0 453 23 453 64 C453 92 435 108 411 108 L325 108 L399 471 L449 471 C511 471 543 481 543 534 C543 564 528 579 496 579 L222 579 C175 579 150 556 150 515 C150 487 168 471 192 471 L277 471 L203 108 L116 108 C83 108 56 82 56 44 C56 14 72 0 104 0 L104 0 Z M324 631 L543 717 C554 721 560 730 560 740 C560 744 559 748 556 752 L531 790 C525 799 516 804 508 804 C503 804 496 802 490 798 L300 667 L324 631 Z " />
<glyph glyph-name="Icircumflex" unicode="&#xce;" horiz-adv-x="602" d="M104 0 L381 0 C428 0 453 23 453 64 C453 92 435 108 411 108 L325 108 L399 471 L449 471 C511 471 543 481 543 534 C543 564 528 579 496 579 L222 579 C175 579 150 556 150 515 C150 487 168 471 192 471 L277 471 L203 108 L116 108 C83 108 56 82 56 44 C56 14 72 0 104 0 L104 0 Z M380 716 L480 650 C486 646 494 644 500 644 C514 644 523 653 523 665 C523 674 517 678 508 687 L414 780 C405 789 394 794 381 794 C372 794 362 791 354 785 L213 688 C199 678 188 674 188 660 C188 650 197 642 208 642 C211 642 219 644 231 649 L380 716 Z " />
<glyph glyph-name="Idieresis" unicode="&#xcf;" horiz-adv-x="602" d="M104 0 L381 0 C428 0 453 23 453 64 C453 92 435 108 411 108 L325 108 L399 471 L449 471 C511 471 543 481 543 534 C543 564 528 579 496 579 L222 579 C175 579 150 556 150 515 C150 487 168 471 192 471 L277 471 L203 108 L116 108 C83 108 56 82 56 44 C56 14 72 0 104 0 L104 0 Z M173 714 C173 679 201 652 236 652 C271 652 296 677 296 714 C296 747 269 776 236 776 C202 776 173 746 173 714 L173 714 Z M415 714 C415 679 443 652 478 652 C513 652 539 677 539 714 C539 747 511 776 478 776 C444 776 415 746 415 714 L415 714 Z " />
<glyph glyph-name="Eth" unicode="&#xd0;" horiz-adv-x="602" d="M42 0 L190 0 C308 0 400 4 481 89 C541 152 577 251 577 368 C577 513 489 579 310 579 L160 579 C113 579 88 556 88 515 C88 487 107 470 130 470 L143 470 L113 326 L80 326 C48 326 32 311 32 283 C32 264 44 253 60 253 L97 253 L69 108 L54 108 C21 108 -5 82 -5 44 C-5 14 10 0 42 0 L42 0 Z M299 471 C393 471 439 436 439 355 C439 253 404 173 353 138 C321 116 277 109 217 109 L193 109 L222 253 L304 253 C336 253 353 268 353 296 C353 315 341 326 325 326 L237 326 L268 471 L299 471 Z " />
<glyph glyph-name="Ntilde" unicode="&#xd1;" horiz-adv-x="602" d="M447 471 L393 180 L271 550 C264 571 253 579 230 579 L141 579 C94 579 69 556 69 515 C69 487 87 471 111 471 L124 471 L50 108 L35 108 C2 108 -24 82 -24 44 C-24 14 -9 0 23 0 L152 0 C199 0 224 23 224 63 C224 93 207 108 174 108 L158 108 L212 403 L340 20 C349 -6 359 -8 384 -8 L428 -8 C451 -8 458 0 463 25 L556 471 C601 473 624 494 624 534 C624 564 609 579 577 579 L453 579 C406 579 381 555 381 515 C381 484 398 471 435 471 L447 471 Z M311 766 C249 766 189 712 189 679 C189 671 196 665 205 665 C221 665 244 699 279 699 C311 699 364 668 423 668 C486 668 546 722 546 756 C546 763 538 770 530 770 C514 770 491 735 456 735 C425 735 371 766 311 766 L311 766 Z " />
<glyph glyph-name="Ograve" unicode="&#xd2;" horiz-adv-x="602" d="M348 595 C254 595 172 558 113 489 C52 418 17 322 17 228 C17 77 104 -15 256 -15 C361 -15 447 30 508 114 C557 182 585 266 585 351 C585 505 495 595 348 595 L348 595 Z M446 347 C446 218 362 97 270 97 C202 97 159 145 159 235 C159 367 243 485 335 485 C402 485 446 437 446 347 L446 347 Z M397 631 L421 667 L231 798 C225 802 218 804 213 804 C205 804 196 799 190 790 L165 752 C162 748 162 744 162 740 C162 730 167 721 178 717 L397 631 Z " />
<glyph glyph-name="Oacute" unicode="&#xd3;" horiz-adv-x="602" d="M348 595 C254 595 172 558 113 489 C52 418 17 322 17 228 C17 77 104 -15 256 -15 C361 -15 447 30 508 114 C557 182 585 266 585 351 C585 505 495 595 348 595 L348 595 Z M446 347 C446 218 362 97 270 97 C202 97 159 145 159 235 C159 367 243 485 335 485 C402 485 446 437 446 347 L446 347 Z M335 631 L554 717 C565 721 571 730 571 740 C571 744 570 748 567 752 L542 790 C536 799 527 804 519 804 C514 804 507 802 501 798 L311 667 L335 631 Z " />
<glyph glyph-name="Ocircumflex" unicode="&#xd4;" horiz-adv-x="602" d="M348 595 C254 595 172 558 113 489 C52 418 17 322 17 228 C17 77 104 -15 256 -15 C361 -15 447 30 508 114 C557 182 585 266 585 351 C585 505 495 595 348 595 L348 595 Z M446 347 C446 218 362 97 270 97 C202 97 159 145 159 235 C159 367 243 485 335 485 C402 485 446 437 446 347 L446 347 Z M391 716 L491 650 C497 646 505 644 511 644 C525 644 534 653 534 665 C534 674 528 678 519 687 L425 780 C416 789 405 794 392 794 C383 794 373 791 365 785 L224 688 C210 678 199 674 199 660 C199 650 208 642 219 642 C222 642 230 644 242 649 L391 716 Z " />
<glyph glyph-name="Otilde" unicode="&#xd5;" horiz-adv-x="602" d="M348 595 C254 595 172 558 113 489 C52 418 17 322 17 228 C17 77 104 -15 256 -15 C361 -15 447 30 508 114 C557 182 585 266 585 351 C585 505 495 595 348 595 L348 595 Z M446 347 C446 218 362 97 270 97 C202 97 159 145 159 235 C159 367 243 485 335 485 C402 485 446 437 446 347 L446 347 Z M318 766 C256 766 196 712 196 679 C196 671 203 665 212 665 C228 665 251 699 286 699 C318 699 371 668 430 668 C493 668 553 722 553 756 C553 763 545 770 537 770 C521 770 498 735 463 735 C432 735 378 766 318 766 L318 766 Z " />
<glyph glyph-name="Odieresis" unicode="&#xd6;" horiz-adv-x="602" d="M348 595 C254 595 172 558 113 489 C52 418 17 322 17 228 C17 77 104 -15 256 -15 C361 -15 447 30 508 114 C557 182 585 266 585 351 C585 505 495 595 348 595 L348 595 Z M446 347 C446 218 362 97 270 97 C202 97 159 145 159 235 C159 367 243 485 335 485 C402 485 446 437 446 347 L446 347 Z M184 714 C184 679 212 652 247 652 C282 652 307 677 307 714 C307 747 280 776 247 776 C213 776 184 746 184 714 L184 714 Z M426 714 C426 679 454 652 489 652 C524 652 550 677 550 714 C550 747 522 776 489 776 C455 776 426 746 426 714 L426 714 Z " />
<glyph glyph-name="multiply" unicode="&#xd7;" horiz-adv-x="602" d="M302 387 L182 507 C170 519 156 525 143 525 C118 525 93 500 93 475 C93 460 99 447 110 436 L230 316 L116 201 C104 189 98 176 98 163 C98 137 121 114 146 114 C160 114 175 120 186 131 L300 246 L420 126 C430 116 444 110 459 110 C486 110 508 132 508 160 C508 172 502 187 491 198 L372 317 L487 432 C498 443 504 458 504 472 C504 498 482 519 453 519 C441 519 428 513 417 502 L302 387 Z " />
<glyph glyph-name="Oslash" unicode="&#xd8;" horiz-adv-x="602" d="M46 95 L-19 31 C-28 22 -33 13 -33 5 C-33 -12 -10 -34 7 -34 C15 -34 24 -30 33 -21 L94 37 C138 0 188 -15 255 -15 C361 -15 446 28 508 113 C558 181 584 262 584 347 C584 406 573 454 550 493 L605 549 C614 558 618 567 618 575 C618 592 596 614 579 614 C571 614 562 609 553 600 L499 549 C457 581 409 595 348 595 C253 595 171 557 113 489 C52 417 16 319 16 227 C16 181 26 138 46 95 L46 95 Z M161 208 C160 222 159 231 159 235 C159 367 243 485 335 485 C361 485 385 476 408 458 L161 208 Z M444 386 C445 373 446 360 446 347 C446 218 362 97 270 97 C238 97 213 109 190 133 L444 386 Z " />
<glyph glyph-name="Ugrave" unicode="&#xd9;" horiz-adv-x="602" d="M559 471 C604 473 627 494 627 534 C627 564 612 579 580 579 L461 579 C414 579 389 555 389 515 C389 485 405 472 439 471 L388 225 C369 134 338 91 260 91 C210 91 184 115 184 161 C184 177 186 195 189 212 L241 471 C285 474 307 495 307 534 C307 564 292 579 260 579 L132 579 C85 579 60 556 60 515 C60 487 77 471 101 471 L114 471 L66 232 C60 202 56 175 56 151 C56 40 121 -17 249 -17 C393 -17 473 50 502 194 L559 471 Z M386 631 L410 667 L220 798 C214 802 207 804 202 804 C194 804 185 799 179 790 L154 752 C151 748 151 744 151 740 C151 730 156 721 167 717 L386 631 Z " />
<glyph glyph-name="Uacute" unicode="&#xda;" horiz-adv-x="602" d="M559 471 C604 473 627 494 627 534 C627 564 612 579 580 579 L461 579 C414 579 389 555 389 515 C389 485 405 472 439 471 L388 225 C369 134 338 91 260 91 C210 91 184 115 184 161 C184 177 186 195 189 212 L241 471 C285 474 307 495 307 534 C307 564 292 579 260 579 L132 579 C85 579 60 556 60 515 C60 487 77 471 101 471 L114 471 L66 232 C60 202 56 175 56 151 C56 40 121 -17 249 -17 C393 -17 473 50 502 194 L559 471 Z M324 631 L543 717 C554 721 560 730 560 740 C560 744 559 748 556 752 L531 790 C525 799 516 804 508 804 C503 804 496 802 490 798 L300 667 L324 631 Z " />
<glyph glyph-name="Ucircumflex" unicode="&#xdb;" horiz-adv-x="602" d="M559 471 C604 473 627 494 627 534 C627 564 612 579 580 579 L461 579 C414 579 389 555 389 515 C389 485 405 472 439 471 L388 225 C369 134 338 91 260 91 C210 91 184 115 184 161 C184 177 186 195 189 212 L241 471 C285 474 307 495 307 534 C307 564 292 579 260 579 L132 579 C85 579 60 556 60 515 C60 487 77 471 101 471 L114 471 L66 232 C60 202 56 175 56 151 C56 40 121 -17 249 -17 C393 -17 473 50 502 194 L559 471 Z M380 716 L480 650 C486 646 494 644 500 644 C514 644 523 653 523 665 C523 674 517 678 508 687 L414 780 C405 789 394 794 381 794 C372 794 362 791 354 785 L213 688 C199 678 188 674 188 660 C188 650 197 642 208 642 C211 642 219 644 231 649 L380 716 Z " />
<glyph glyph-name="Udieresis" unicode="&#xdc;" horiz-adv-x="602" d="M559 471 C604 473 627 494 627 534 C627 564 612 579 580 579 L461 579 C414 579 389 555 389 515 C389 485 405 472 439 471 L388 225 C369 134 338 91 260 91 C210 91 184 115 184 161 C184 177 186 195 189 212 L241 471 C285 474 307 495 307 534 C307 564 292 579 260 579 L132 579 C85 579 60 556 60 515 C60 487 77 471 101 471 L114 471 L66 232 C60 202 56 175 56 151 C56 40 121 -17 249 -17 C393 -17 473 50 502 194 L559 471 Z M173 714 C173 679 201 652 236 652 C271 652 296 677 296 714 C296 747 269 776 236 776 C202 776 173 746 173 714 L173 714 Z M415 714 C415 679 443 652 478 652 C513 652 539 677 539 714 C539 747 511 776 478 776 C444 776 415 746 415 714 L415 714 Z " />
<glyph glyph-name="Yacute" unicode="&#xdd;" horiz-adv-x="602" d="M139 471 L220 212 L199 108 L123 108 C90 108 63 82 63 44 C63 14 79 0 111 0 L367 0 C414 0 439 23 439 64 C439 92 421 108 397 108 L322 108 L345 223 L527 471 C566 476 587 497 587 534 C587 564 571 579 539 579 L424 579 C385 579 364 555 364 514 C364 485 378 472 406 471 L307 326 L271 471 C307 477 324 497 324 535 C324 564 310 579 282 579 L157 579 C110 579 85 556 85 515 C85 487 102 471 126 471 L139 471 Z M324 631 L543 717 C554 721 560 730 560 740 C560 744 559 748 556 752 L531 790 C525 799 516 804 508 804 C503 804 496 802 490 798 L300 667 L324 631 Z " />
<glyph glyph-name="Thorn" unicode="&#xde;" horiz-adv-x="602" d="M277 442 L286 487 L319 487 C353 487 378 510 378 541 C378 568 363 579 331 579 L175 579 C128 579 103 560 103 526 C103 500 120 487 153 487 L161 487 L79 92 L65 92 C31 92 5 69 5 38 C5 12 21 0 53 0 L208 0 C255 0 280 19 280 53 C280 79 264 92 231 92 L204 92 L214 137 L286 137 C457 137 543 198 543 309 C543 398 478 442 350 442 L277 442 Z M231 227 L258 352 L332 352 C388 352 416 333 416 297 C416 245 373 227 283 227 L231 227 Z " />
<glyph glyph-name="germandbls" unicode="&#xdf;" horiz-adv-x="602" d="M32 0 L127 0 C150 0 157 4 162 27 L246 422 C263 502 293 541 345 541 C376 541 399 517 399 484 C399 448 379 419 341 409 C308 400 277 398 277 362 C277 341 293 335 326 328 C384 316 403 293 403 235 C403 159 368 97 314 91 C261 85 213 91 213 34 C213 2 239 -14 292 -14 C441 -14 526 84 526 231 C526 309 483 361 404 373 C481 395 523 444 523 509 C523 586 463 639 359 639 C231 639 159 578 131 447 L59 108 C57 108 56 108 54 108 C10 108 -15 83 -15 44 C-15 14 0 0 32 0 L32 0 Z " />
<glyph glyph-name="agrave" unicode="&#xe0;" horiz-adv-x="602" d="M463 108 L502 291 C506 310 508 326 508 340 C508 421 452 465 344 465 C201 465 118 426 118 367 C118 342 132 329 160 329 C208 329 261 377 325 377 C365 377 389 355 389 320 C389 308 387 294 383 277 C347 284 311 288 275 288 C128 288 36 223 36 116 C36 36 88 -11 178 -11 C222 -11 285 5 350 42 C353 8 365 0 397 0 L440 0 C489 0 514 22 514 63 C514 93 497 108 463 108 L463 108 Z M351 125 C303 97 258 84 224 84 C181 84 160 101 160 137 C160 178 206 211 282 211 C301 211 330 207 367 201 L351 125 Z M373 499 L397 535 L207 666 C201 670 194 672 189 672 C181 672 172 667 166 658 L141 620 C138 616 138 612 138 608 C138 598 143 589 154 585 L373 499 Z " />
<glyph glyph-name="aacute" unicode="&#xe1;" horiz-adv-x="602" d="M463 108 L502 291 C506 310 508 326 508 340 C508 421 452 465 344 465 C201 465 118 426 118 367 C118 342 132 329 160 329 C208 329 261 377 325 377 C365 377 389 355 389 320 C389 308 387 294 383 277 C347 284 311 288 275 288 C128 288 36 223 36 116 C36 36 88 -11 178 -11 C222 -11 285 5 350 42 C353 8 365 0 397 0 L440 0 C489 0 514 22 514 63 C514 93 497 108 463 108 L463 108 Z M351 125 C303 97 258 84 224 84 C181 84 160 101 160 137 C160 178 206 211 282 211 C301 211 330 207 367 201 L351 125 Z M311 499 L530 585 C541 589 547 598 547 608 C547 612 546 616 543 620 L518 658 C512 667 503 672 495 672 C490 672 483 670 477 666 L287 535 L311 499 Z " />
<glyph glyph-name="acircumflex" unicode="&#xe2;" horiz-adv-x="602" d="M463 108 L502 291 C506 310 508 326 508 340 C508 421 452 465 344 465 C201 465 118 426 118 367 C118 342 132 329 160 329 C208 329 261 377 325 377 C365 377 389 355 389 320 C389 308 387 294 383 277 C347 284 311 288 275 288 C128 288 36 223 36 116 C36 36 88 -11 178 -11 C222 -11 285 5 350 42 C353 8 365 0 397 0 L440 0 C489 0 514 22 514 63 C514 93 497 108 463 108 L463 108 Z M351 125 C303 97 258 84 224 84 C181 84 160 101 160 137 C160 178 206 211 282 211 C301 211 330 207 367 201 L351 125 Z M367 584 L467 518 C473 514 481 512 487 512 C501 512 510 521 510 533 C510 542 504 546 495 555 L401 648 C392 657 381 662 368 662 C359 662 349 659 341 653 L200 556 C186 546 175 542 175 528 C175 518 184 510 195 510 C198 510 206 512 218 517 L367 584 Z " />
<glyph glyph-name="atilde" unicode="&#xe3;" horiz-adv-x="602" d="M463 108 L502 291 C506 310 508 326 508 340 C508 421 452 465 344 465 C201 465 118 426 118 367 C118 342 132 329 160 329 C208 329 261 377 325 377 C365 377 389 355 389 320 C389 308 387 294 383 277 C347 284 311 288 275 288 C128 288 36 223 36 116 C36 36 88 -11 178 -11 C222 -11 285 5 350 42 C353 8 365 0 397 0 L440 0 C489 0 514 22 514 63 C514 93 497 108 463 108 L463 108 Z M351 125 C303 97 258 84 224 84 C181 84 160 101 160 137 C160 178 206 211 282 211 C301 211 330 207 367 201 L351 125 Z M294 634 C232 634 172 580 172 547 C172 539 179 533 188 533 C204 533 227 567 262 567 C294 567 347 536 406 536 C469 536 529 590 529 624 C529 631 521 638 513 638 C497 638 474 603 439 603 C408 603 354 634 294 634 L294 634 Z " />
<glyph glyph-name="adieresis" unicode="&#xe4;" horiz-adv-x="602" d="M463 108 L502 291 C506 310 508 326 508 340 C508 421 452 465 344 465 C201 465 118 426 118 367 C118 342 132 329 160 329 C208 329 261 377 325 377 C365 377 389 355 389 320 C389 308 387 294 383 277 C347 284 311 288 275 288 C128 288 36 223 36 116 C36 36 88 -11 178 -11 C222 -11 285 5 350 42 C353 8 365 0 397 0 L440 0 C489 0 514 22 514 63 C514 93 497 108 463 108 L463 108 Z M351 125 C303 97 258 84 224 84 C181 84 160 101 160 137 C160 178 206 211 282 211 C301 211 330 207 367 201 L351 125 Z M160 582 C160 547 188 520 223 520 C258 520 283 545 283 582 C283 615 256 644 223 644 C189 644 160 614 160 582 L160 582 Z M402 582 C402 547 430 520 465 520 C500 520 526 545 526 582 C526 615 498 644 465 644 C431 644 402 614 402 582 L402 582 Z " />
<glyph glyph-name="aring" unicode="&#xe5;" horiz-adv-x="602" d="M463 108 L502 291 C506 310 508 326 508 340 C508 421 452 465 344 465 C201 465 118 426 118 367 C118 342 132 329 160 329 C208 329 261 377 325 377 C365 377 389 355 389 320 C389 308 387 294 383 277 C347 284 311 288 275 288 C128 288 36 223 36 116 C36 36 88 -11 178 -11 C222 -11 285 5 350 42 C353 8 365 0 397 0 L440 0 C489 0 514 22 514 63 C514 93 497 108 463 108 L463 108 Z M351 125 C303 97 258 84 224 84 C181 84 160 101 160 137 C160 178 206 211 282 211 C301 211 330 207 367 201 L351 125 Z M227 627 C227 553 286 495 359 495 C432 495 491 553 491 627 C491 700 432 759 359 759 C285 759 227 700 227 627 L227 627 Z M297 628 C297 662 324 690 359 690 C393 690 421 662 421 628 C421 593 393 565 359 565 C324 565 297 593 297 628 L297 628 Z " />
<glyph glyph-name="ae" unicode="&#xe6;" horiz-adv-x="602" d="M248 141 C205 103 167 84 134 84 C104 84 85 101 85 130 C85 167 117 197 163 197 L254 197 L248 141 Z M366 271 C386 335 412 368 441 368 C464 368 479 346 479 306 C479 297 478 286 476 271 L366 271 Z M258 64 C282 14 326 -12 387 -12 C482 -12 556 62 556 111 C556 131 543 144 524 144 C493 144 463 92 405 92 C367 92 345 113 345 143 C345 157 348 175 351 197 L519 197 C570 197 587 216 587 308 C587 411 547 462 466 462 C416 462 377 444 336 404 C313 445 278 464 224 464 C132 464 52 420 52 368 C52 344 63 333 88 333 C125 333 166 370 213 370 C250 370 267 353 267 319 C267 305 265 290 262 271 L162 271 C40 271 -27 206 -27 108 C-27 36 20 -11 97 -11 C147 -11 209 14 258 64 L258 64 Z " />
<glyph glyph-name="ccedilla" unicode="&#xe7;" horiz-adv-x="602" d="M468 423 C433 450 387 463 330 463 C150 463 27 339 27 178 C27 62 109 -11 254 -11 C391 -11 503 50 503 105 C503 134 484 153 459 153 C425 153 368 89 267 89 C198 89 156 132 156 192 C156 287 223 360 327 360 C387 360 411 339 428 300 C441 270 447 251 478 251 C510 251 529 267 535 301 L555 410 C556 416 557 422 557 426 C557 454 544 464 514 464 C489 464 476 452 468 423 L468 423 Z M264 0 L222 0 L200 -108 C208 -107 215 -107 221 -107 C252 -107 266 -117 266 -141 C266 -167 243 -184 213 -184 C174 -184 141 -161 119 -161 C107 -161 96 -171 96 -184 C96 -210 148 -231 227 -231 C302 -231 353 -188 353 -135 C353 -93 320 -63 265 -63 C260 -63 255 -64 250 -64 L264 0 Z " />
<glyph glyph-name="egrave" unicode="&#xe8;" horiz-adv-x="602" d="M169 272 C188 332 241 366 312 366 C375 366 413 334 413 286 C413 285 412 280 412 272 L169 272 Z M162 197 L446 197 C505 197 537 202 537 258 C537 376 455 463 319 463 C154 463 34 340 34 183 C34 65 120 -12 260 -12 C397 -12 510 50 510 105 C510 134 491 153 466 153 C432 153 370 88 273 88 C201 88 162 124 162 188 C162 191 162 194 162 197 L162 197 Z M362 499 L386 535 L196 666 C190 670 183 672 178 672 C170 672 161 667 155 658 L130 620 C127 616 127 612 127 608 C127 598 132 589 143 585 L362 499 Z " />
<glyph glyph-name="eacute" unicode="&#xe9;" horiz-adv-x="602" d="M169 272 C188 332 241 366 312 366 C375 366 413 334 413 286 C413 285 412 280 412 272 L169 272 Z M162 197 L446 197 C505 197 537 202 537 258 C537 376 455 463 319 463 C154 463 34 340 34 183 C34 65 120 -12 260 -12 C397 -12 510 50 510 105 C510 134 491 153 466 153 C432 153 370 88 273 88 C201 88 162 124 162 188 C162 191 162 194 162 197 L162 197 Z M300 499 L519 585 C530 589 536 598 536 608 C536 612 535 616 532 620 L507 658 C501 667 492 672 484 672 C479 672 472 670 466 666 L276 535 L300 499 Z " />
<glyph glyph-name="ecircumflex" unicode="&#xea;" horiz-adv-x="602" d="M169 272 C188 332 241 366 312 366 C375 366 413 334 413 286 C413 285 412 280 412 272 L169 272 Z M162 197 L446 197 C505 197 537 202 537 258 C537 376 455 463 319 463 C154 463 34 340 34 183 C34 65 120 -12 260 -12 C397 -12 510 50 510 105 C510 134 491 153 466 153 C432 153 370 88 273 88 C201 88 162 124 162 188 C162 191 162 194 162 197 L162 197 Z M356 584 L456 518 C462 514 470 512 476 512 C490 512 499 521 499 533 C499 542 493 546 484 555 L390 648 C381 657 370 662 357 662 C348 662 338 659 330 653 L189 556 C175 546 164 542 164 528 C164 518 173 510 184 510 C187 510 195 512 207 517 L356 584 Z " />
<glyph glyph-name="edieresis" unicode="&#xeb;" horiz-adv-x="602" d="M169 272 C188 332 241 366 312 366 C375 366 413 334 413 286 C413 285 412 280 412 272 L169 272 Z M162 197 L446 197 C505 197 537 202 537 258 C537 376 455 463 319 463 C154 463 34 340 34 183 C34 65 120 -12 260 -12 C397 -12 510 50 510 105 C510 134 491 153 466 153 C432 153 370 88 273 88 C201 88 162 124 162 188 C162 191 162 194 162 197 L162 197 Z M149 582 C149 547 177 520 212 520 C247 520 272 545 272 582 C272 615 245 644 212 644 C178 644 149 614 149 582 L149 582 Z M391 582 C391 547 419 520 454 520 C489 520 515 545 515 582 C515 615 487 644 454 644 C420 644 391 614 391 582 L391 582 Z " />
<glyph glyph-name="igrave" unicode="&#xec;" horiz-adv-x="602" d="M431 108 L334 108 L402 425 C402 427 403 429 403 431 C403 443 394 451 381 451 L233 451 C186 451 161 429 161 388 C161 360 180 343 203 343 L263 343 L214 108 L122 108 C73 108 48 86 48 44 C48 14 63 0 95 0 L408 0 C457 0 482 22 482 63 C482 93 466 108 431 108 L431 108 Z M362 499 L386 535 L196 666 C190 670 183 672 178 672 C170 672 161 667 155 658 L130 620 C127 616 127 612 127 608 C127 598 132 589 143 585 L362 499 Z " />
<glyph glyph-name="iacute" unicode="&#xed;" horiz-adv-x="602" d="M431 108 L334 108 L402 425 C402 427 403 429 403 431 C403 443 394 451 381 451 L233 451 C186 451 161 429 161 388 C161 360 180 343 203 343 L263 343 L214 108 L122 108 C73 108 48 86 48 44 C48 14 63 0 95 0 L408 0 C457 0 482 22 482 63 C482 93 466 108 431 108 L431 108 Z M300 499 L519 585 C530 589 536 598 536 608 C536 612 535 616 532 620 L507 658 C501 667 492 672 484 672 C479 672 472 670 466 666 L276 535 L300 499 Z " />
<glyph glyph-name="icircumflex" unicode="&#xee;" horiz-adv-x="602" d="M431 108 L334 108 L402 425 C402 427 403 429 403 431 C403 443 394 451 381 451 L233 451 C186 451 161 429 161 388 C161 360 180 343 203 343 L263 343 L214 108 L122 108 C73 108 48 86 48 44 C48 14 63 0 95 0 L408 0 C457 0 482 22 482 63 C482 93 466 108 431 108 L431 108 Z M356 584 L456 518 C462 514 470 512 476 512 C490 512 499 521 499 533 C499 542 493 546 484 555 L390 648 C381 657 370 662 357 662 C348 662 338 659 330 653 L189 556 C175 546 164 542 164 528 C164 518 173 510 184 510 C187 510 195 512 207 517 L356 584 Z " />
<glyph glyph-name="idieresis" unicode="&#xef;" horiz-adv-x="602" d="M431 108 L334 108 L402 425 C402 427 403 429 403 431 C403 443 394 451 381 451 L233 451 C186 451 161 429 161 388 C161 360 180 343 203 343 L263 343 L214 108 L122 108 C73 108 48 86 48 44 C48 14 63 0 95 0 L408 0 C457 0 482 22 482 63 C482 93 466 108 431 108 L431 108 Z M149 582 C149 547 177 520 212 520 C247 520 272 545 272 582 C272 615 245 644 212 644 C178 644 149 614 149 582 L149 582 Z M391 582 C391 547 419 520 454 520 C489 520 515 545 515 582 C515 615 487 644 454 644 C420 644 391 614 391 582 L391 582 Z " />
<glyph glyph-name="eth" unicode="&#xf0;" horiz-adv-x="602" d="M311 356 C371 356 411 313 411 248 C411 157 349 87 274 87 C209 87 170 131 170 205 C170 286 238 356 311 356 L311 356 Z M348 449 C331 451 315 453 300 453 C163 453 39 333 39 188 C39 68 125 -12 259 -12 C423 -12 545 112 545 261 C545 352 491 447 384 549 L441 573 C462 582 474 587 474 605 C474 618 463 630 450 630 C443 630 432 627 419 622 L335 588 C293 619 263 637 220 637 C193 637 179 630 179 622 C179 612 208 596 252 556 L175 528 C153 520 142 511 142 495 C142 482 153 470 168 470 C175 470 184 473 197 478 L293 515 C305 504 325 482 348 449 L348 449 Z " />
<glyph glyph-name="ntilde" unicode="&#xf1;" horiz-adv-x="602" d="M190 108 L222 255 C236 319 292 360 337 360 C373 360 387 342 387 304 C387 295 387 286 385 277 L349 108 C307 104 286 82 286 44 C286 15 302 0 330 0 L446 0 C495 0 520 22 520 63 C520 93 503 108 469 108 L506 282 C510 302 512 321 512 340 C512 419 463 463 388 463 C338 463 288 441 241 396 L246 425 C246 427 247 429 247 431 C247 444 239 451 226 451 L139 451 C92 451 67 429 67 388 C67 360 85 343 108 343 L121 343 L73 108 C71 108 70 108 68 108 C24 108 -1 83 -1 44 C-1 14 15 0 47 0 L168 0 C215 0 240 23 240 63 C240 93 224 108 190 108 L190 108 Z M274 634 C212 634 152 580 152 547 C152 539 159 533 168 533 C184 533 207 567 242 567 C274 567 327 536 386 536 C449 536 509 590 509 624 C509 631 501 638 493 638 C477 638 454 603 419 603 C388 603 334 634 274 634 L274 634 Z " />
<glyph glyph-name="ograve" unicode="&#xf2;" horiz-adv-x="602" d="M39 189 C39 67 125 -12 259 -12 C423 -12 545 112 545 263 C545 384 459 464 324 464 C162 464 39 340 39 189 L39 189 Z M313 364 C372 364 413 320 413 259 C413 159 352 87 274 87 C211 87 171 130 171 197 C171 292 236 364 313 364 L313 364 Z M362 499 L386 535 L196 666 C190 670 183 672 178 672 C170 672 161 667 155 658 L130 620 C127 616 127 612 127 608 C127 598 132 589 143 585 L362 499 Z " />
<glyph glyph-name="oacute" unicode="&#xf3;" horiz-adv-x="602" d="M39 189 C39 67 125 -12 259 -12 C423 -12 545 112 545 263 C545 384 459 464 324 464 C162 464 39 340 39 189 L39 189 Z M313 364 C372 364 413 320 413 259 C413 159 352 87 274 87 C211 87 171 130 171 197 C171 292 236 364 313 364 L313 364 Z M300 499 L519 585 C530 589 536 598 536 608 C536 612 535 616 532 620 L507 658 C501 667 492 672 484 672 C479 672 472 670 466 666 L276 535 L300 499 Z " />
<glyph glyph-name="ocircumflex" unicode="&#xf4;" horiz-adv-x="602" d="M39 189 C39 67 125 -12 259 -12 C423 -12 545 112 545 263 C545 384 459 464 324 464 C162 464 39 340 39 189 L39 189 Z M313 364 C372 364 413 320 413 259 C413 159 352 87 274 87 C211 87 171 130 171 197 C171 292 236 364 313 364 L313 364 Z M356 584 L456 518 C462 514 470 512 476 512 C490 512 499 521 499 533 C499 542 493 546 484 555 L390 648 C381 657 370 662 357 662 C348 662 338 659 330 653 L189 556 C175 546 164 542 164 528 C164 518 173 510 184 510 C187 510 195 512 207 517 L356 584 Z " />
<glyph glyph-name="otilde" unicode="&#xf5;" horiz-adv-x="602" d="M39 189 C39 67 125 -12 259 -12 C423 -12 545 112 545 263 C545 384 459 464 324 464 C162 464 39 340 39 189 L39 189 Z M313 364 C372 364 413 320 413 259 C413 159 352 87 274 87 C211 87 171 130 171 197 C171 292 236 364 313 364 L313 364 Z M283 634 C221 634 161 580 161 547 C161 539 168 533 177 533 C193 533 216 567 251 567 C283 567 336 536 395 536 C458 536 518 590 518 624 C518 631 510 638 502 638 C486 638 463 603 428 603 C397 603 343 634 283 634 L283 634 Z " />
<glyph glyph-name="odieresis" unicode="&#xf6;" horiz-adv-x="602" d="M39 189 C39 67 125 -12 259 -12 C423 -12 545 112 545 263 C545 384 459 464 324 464 C162 464 39 340 39 189 L39 189 Z M313 364 C372 364 413 320 413 259 C413 159 352 87 274 87 C211 87 171 130 171 197 C171 292 236 364 313 364 L313 364 Z M149 582 C149 547 177 520 212 520 C247 520 272 545 272 582 C272 615 245 644 212 644 C178 644 149 614 149 582 L149 582 Z M391 582 C391 547 419 520 454 520 C489 520 515 545 515 582 C515 615 487 644 454 644 C420 644 391 614 391 582 L391 582 Z " />
<glyph glyph-name="divide" unicode="&#xf7;" horiz-adv-x="602" d="M301 86 C340 86 369 116 369 154 C369 193 339 223 301 223 C264 223 233 193 233 154 C233 116 263 86 301 86 L301 86 Z M82 358 C54 358 37 340 37 308 C37 277 54 258 82 258 L519 258 C547 258 564 277 564 308 C564 340 548 358 519 358 L82 358 Z M301 393 C340 393 369 423 369 461 C369 500 339 530 301 530 C264 530 233 500 233 461 C233 423 263 393 301 393 L301 393 Z " />
<glyph glyph-name="oslash" unicode="&#xf8;" horiz-adv-x="602" d="M69 77 L-15 2 C-24 -6 -29 -14 -29 -21 C-29 -36 -8 -59 8 -59 C15 -59 23 -56 30 -50 L119 26 C161 0 203 -12 253 -12 C428 -12 545 112 545 263 C545 303 536 338 516 372 L578 428 C587 436 592 443 592 451 C592 466 571 489 555 489 C548 489 541 486 533 480 L466 424 C423 451 378 464 325 464 C162 464 39 340 39 188 C39 147 48 112 69 77 L69 77 Z M175 163 C173 177 171 190 171 200 C171 289 234 364 314 364 C340 364 360 357 379 341 L175 163 Z M410 287 C412 273 414 262 414 251 C414 162 352 87 274 87 C248 87 226 95 206 110 L410 287 Z " />
<glyph glyph-name="ugrave" unicode="&#xf9;" horiz-adv-x="602" d="M387 344 L356 197 C342 133 285 91 240 91 C204 91 190 109 190 147 C190 155 190 164 192 174 L246 425 C246 427 247 429 247 431 C247 444 239 451 226 451 L132 451 C83 451 58 429 58 388 C58 358 75 344 109 344 L72 169 C68 149 65 130 65 111 C65 32 114 -12 189 -12 C239 -12 290 11 337 56 L331 26 C331 24 330 22 330 20 C330 7 338 0 351 0 L439 0 C486 0 511 22 511 63 C511 91 492 109 469 109 L456 109 L522 425 C522 427 523 429 523 431 C523 443 515 451 502 451 L410 451 C363 451 338 428 338 388 C338 358 353 344 387 344 L387 344 Z M350 499 L374 535 L184 666 C178 670 171 672 166 672 C158 672 149 667 143 658 L118 620 C115 616 115 612 115 608 C115 598 120 589 131 585 L350 499 Z " />
<glyph glyph-name="uacute" unicode="&#xfa;" horiz-adv-x="602" d="M387 344 L356 197 C342 133 285 91 240 91 C204 91 190 109 190 147 C190 155 190 164 192 174 L246 425 C246 427 247 429 247 431 C247 444 239 451 226 451 L132 451 C83 451 58 429 58 388 C58 358 75 344 109 344 L72 169 C68 149 65 130 65 111 C65 32 114 -12 189 -12 C239 -12 290 11 337 56 L331 26 C331 24 330 22 330 20 C330 7 338 0 351 0 L439 0 C486 0 511 22 511 63 C511 91 492 109 469 109 L456 109 L522 425 C522 427 523 429 523 431 C523 443 515 451 502 451 L410 451 C363 451 338 428 338 388 C338 358 353 344 387 344 L387 344 Z M288 499 L507 585 C518 589 524 598 524 608 C524 612 523 616 520 620 L495 658 C489 667 480 672 472 672 C467 672 460 670 454 666 L264 535 L288 499 Z " />
<glyph glyph-name="ucircumflex" unicode="&#xfb;" horiz-adv-x="602" d="M387 344 L356 197 C342 133 285 91 240 91 C204 91 190 109 190 147 C190 155 190 164 192 174 L246 425 C246 427 247 429 247 431 C247 444 239 451 226 451 L132 451 C83 451 58 429 58 388 C58 358 75 344 109 344 L72 169 C68 149 65 130 65 111 C65 32 114 -12 189 -12 C239 -12 290 11 337 56 L331 26 C331 24 330 22 330 20 C330 7 338 0 351 0 L439 0 C486 0 511 22 511 63 C511 91 492 109 469 109 L456 109 L522 425 C522 427 523 429 523 431 C523 443 515 451 502 451 L410 451 C363 451 338 428 338 388 C338 358 353 344 387 344 L387 344 Z M344 584 L444 518 C450 514 458 512 464 512 C478 512 487 521 487 533 C487 542 481 546 472 555 L378 648 C369 657 358 662 345 662 C336 662 326 659 318 653 L177 556 C163 546 152 542 152 528 C152 518 161 510 172 510 C175 510 183 512 195 517 L344 584 Z " />
<glyph glyph-name="udieresis" unicode="&#xfc;" horiz-adv-x="602" d="M387 344 L356 197 C342 133 285 91 240 91 C204 91 190 109 190 147 C190 155 190 164 192 174 L246 425 C246 427 247 429 247 431 C247 444 239 451 226 451 L132 451 C83 451 58 429 58 388 C58 358 75 344 109 344 L72 169 C68 149 65 130 65 111 C65 32 114 -12 189 -12 C239 -12 290 11 337 56 L331 26 C331 24 330 22 330 20 C330 7 338 0 351 0 L439 0 C486 0 511 22 511 63 C511 91 492 109 469 109 L456 109 L522 425 C522 427 523 429 523 431 C523 443 515 451 502 451 L410 451 C363 451 338 428 338 388 C338 358 353 344 387 344 L387 344 Z M137 582 C137 547 165 520 200 520 C235 520 260 545 260 582 C260 615 233 644 200 644 C166 644 137 614 137 582 L137 582 Z M379 582 C379 547 407 520 442 520 C477 520 503 545 503 582 C503 615 475 644 442 644 C408 644 379 614 379 582 L379 582 Z " />
<glyph glyph-name="yacute" unicode="&#xfd;" horiz-adv-x="602" d="M99 344 L176 10 L110 -87 L78 -87 C23 -87 -6 -101 -6 -150 C-6 -180 9 -194 41 -194 L224 -194 C273 -194 298 -172 298 -131 C298 -101 282 -87 247 -87 L224 -87 L510 344 C552 347 574 369 574 407 C574 437 558 451 523 451 L413 451 C377 451 350 427 350 388 C350 359 362 349 394 344 L263 137 L221 344 C266 346 289 368 289 407 C289 437 273 451 238 451 L119 451 C83 451 55 427 55 388 C55 359 67 349 99 344 L99 344 Z M300 499 L519 585 C530 589 536 598 536 608 C536 612 535 616 532 620 L507 658 C501 667 492 672 484 672 C479 672 472 670 466 666 L276 535 L300 499 Z " />
<glyph glyph-name="thorn" unicode="&#xfe;" horiz-adv-x="602" d="M328 357 C383 357 420 316 420 260 C420 168 362 102 291 102 C233 102 197 141 197 203 C197 290 257 357 328 357 L328 357 Z M140 -87 L171 53 C208 17 250 3 307 3 C437 3 549 114 549 268 C549 390 475 463 373 463 C313 463 259 435 233 391 L281 613 C281 615 282 617 282 619 C282 632 274 639 261 639 L170 639 C123 639 98 616 98 575 C98 547 117 530 140 530 L153 530 L21 -87 L-4 -87 C-53 -87 -78 -108 -78 -150 C-78 -180 -63 -194 -31 -194 L171 -194 C218 -194 243 -172 243 -131 C243 -101 226 -87 193 -87 L140 -87 Z " />
<glyph glyph-name="ydieresis" unicode="&#xff;" horiz-adv-x="602" d="M99 344 L176 10 L110 -87 L78 -87 C23 -87 -6 -101 -6 -150 C-6 -180 9 -194 41 -194 L224 -194 C273 -194 298 -172 298 -131 C298 -101 282 -87 247 -87 L224 -87 L510 344 C552 347 574 369 574 407 C574 437 558 451 523 451 L413 451 C377 451 350 427 350 388 C350 359 362 349 394 344 L263 137 L221 344 C266 346 289 368 289 407 C289 437 273 451 238 451 L119 451 C83 451 55 427 55 388 C55 359 67 349 99 344 L99 344 Z M149 582 C149 547 177 520 212 520 C247 520 272 545 272 582 C272 615 245 644 212 644 C178 644 149 614 149 582 L149 582 Z M391 582 C391 547 419 520 454 520 C489 520 515 545 515 582 C515 615 487 644 454 644 C420 644 391 614 391 582 L391 582 Z " />
<glyph glyph-name="dotlessi" unicode="&#x131;" horiz-adv-x="602" d="M431 108 L334 108 L402 425 C402 427 403 429 403 431 C403 443 394 451 381 451 L233 451 C186 451 161 429 161 388 C161 360 180 343 203 343 L263 343 L214 108 L122 108 C73 108 48 86 48 44 C48 14 63 0 95 0 L408 0 C457 0 482 22 482 63 C482 93 466 108 431 108 L431 108 Z " />
<glyph glyph-name="Lslash" unicode="&#x141;" horiz-adv-x="602" d="M44 0 L470 0 C498 0 509 10 515 39 L540 158 C542 166 543 173 543 178 C543 207 528 221 499 221 C462 221 445 202 436 150 L429 108 L215 108 L247 262 L401 355 C417 365 426 378 426 391 C426 412 414 428 398 428 C392 428 387 426 381 422 L267 356 L290 471 L322 471 C365 471 391 494 391 534 C391 564 375 579 343 579 L162 579 C115 579 90 556 90 515 C90 487 108 471 132 471 L165 471 L127 289 L40 236 C24 226 15 214 15 201 C15 180 27 164 43 164 C49 164 54 165 60 169 L108 197 L91 108 L56 108 C23 108 -3 82 -3 44 C-3 14 12 0 44 0 L44 0 Z " />
<glyph glyph-name="lslash" unicode="&#x142;" horiz-adv-x="602" d="M390 417 L431 613 C431 615 432 617 432 619 C432 632 424 639 411 639 L263 639 C216 639 191 616 191 575 C191 547 209 530 232 530 L293 530 L255 355 L132 272 C115 261 107 249 107 236 C107 215 120 198 135 198 C145 198 153 204 163 210 L234 255 L203 108 L112 108 C63 108 38 86 38 44 C38 14 53 0 85 0 L398 0 C447 0 472 22 472 63 C472 99 452 108 410 108 L324 108 L369 317 L492 400 C509 411 517 422 517 435 C517 456 503 474 488 474 C478 474 471 468 461 462 L390 417 Z " />
<glyph glyph-name="OE" unicode="&#x152;" horiz-adv-x="602" d="M219 0 L500 0 C527 0 539 11 545 39 L569 159 C571 168 572 177 572 184 C572 212 562 221 537 221 C506 221 489 198 480 150 L472 108 L334 108 L365 253 L399 253 C397 243 395 236 395 231 C395 208 408 197 434 197 C467 197 474 216 480 249 L499 347 C501 355 501 361 501 365 C501 391 489 403 465 403 C435 403 422 387 418 348 L384 348 L410 471 L549 471 L540 428 C538 418 537 409 537 399 C537 376 551 363 575 363 C607 363 618 384 625 419 L651 547 C652 549 652 551 652 554 C652 568 640 579 616 579 L349 579 C255 579 185 562 125 507 C55 443 5 330 5 217 C5 73 76 0 219 0 L219 0 Z M233 106 C227 105 221 105 215 105 C155 105 121 146 121 222 C121 360 201 477 296 477 C301 477 306 477 311 476 L233 106 Z " />
<glyph glyph-name="oe" unicode="&#x153;" horiz-adv-x="602" d="M366 271 C386 335 412 368 441 368 C464 368 479 346 479 306 C479 297 478 286 476 271 L366 271 Z M260 62 C284 14 327 -12 387 -12 C482 -12 556 62 556 111 C556 131 543 144 524 144 C493 144 463 92 405 92 C368 92 345 112 345 143 C345 157 347 175 351 197 L519 197 C570 197 587 216 587 308 C587 411 547 462 466 462 C412 462 366 438 328 391 C310 420 268 463 207 463 C99 463 -6 332 -6 162 C-6 56 50 -8 134 -8 C177 -8 219 16 260 62 L260 62 Z M96 173 C96 271 149 363 202 363 C239 363 262 334 262 281 C262 183 209 91 156 91 C119 91 96 120 96 173 L96 173 Z " />
<glyph glyph-name="Scaron" unicode="&#x160;" horiz-adv-x="602" d="M117 11 C170 -6 219 -14 265 -14 C417 -14 518 69 518 182 C518 270 460 304 359 351 C303 377 271 393 271 434 C271 474 307 501 357 501 C402 501 428 483 444 443 C457 410 459 390 497 390 C525 390 543 404 548 430 L569 545 C570 552 571 558 571 564 C571 590 558 604 533 604 C510 604 496 593 484 568 C442 588 404 595 359 595 C214 595 125 515 125 407 C125 343 162 295 238 257 C317 217 372 209 372 147 C372 108 334 76 274 76 C216 76 169 103 153 140 C136 180 148 217 100 217 C71 217 54 201 49 171 L29 42 C28 35 27 29 27 24 C27 -5 42 -20 70 -20 C89 -20 103 -10 117 11 L117 11 Z M332 719 L231 785 C225 789 217 791 211 791 C197 791 189 783 189 771 C189 762 194 757 203 748 L297 655 C306 646 318 642 331 642 C340 642 350 644 358 650 L499 747 C513 757 523 761 523 775 C523 785 514 793 503 793 C500 793 493 791 481 786 L332 719 Z " />
<glyph glyph-name="scaron" unicode="&#x161;" horiz-adv-x="602" d="M132 18 C182 -2 230 -12 282 -12 C413 -12 493 54 493 144 C493 227 442 258 338 287 C282 302 241 306 241 341 C241 366 269 386 316 386 C357 386 391 372 413 349 C426 336 435 311 469 311 C491 311 505 324 509 345 L525 419 C526 425 527 430 527 435 C527 459 512 472 487 472 C471 472 456 463 448 444 C397 458 350 465 305 465 C182 465 110 405 110 320 C110 248 156 216 258 188 C317 172 357 163 357 124 C357 94 325 70 277 70 C214 70 175 88 158 126 C146 153 149 169 115 169 C87 169 71 155 65 126 L47 35 C46 30 45 25 45 21 C45 -4 62 -17 87 -17 C107 -17 123 -5 132 18 L132 18 Z M308 587 L207 653 C201 657 193 659 187 659 C173 659 165 651 165 639 C165 630 170 625 179 616 L273 523 C282 514 294 510 307 510 C316 510 326 512 334 518 L475 615 C489 625 499 629 499 643 C499 653 490 661 479 661 C476 661 469 659 457 654 L308 587 Z " />
<glyph glyph-name="Ydieresis" unicode="&#x178;" horiz-adv-x="602" d="M139 471 L220 212 L199 108 L123 108 C90 108 63 82 63 44 C63 14 79 0 111 0 L367 0 C414 0 439 23 439 64 C439 92 421 108 397 108 L322 108 L345 223 L527 471 C566 476 587 497 587 534 C587 564 571 579 539 579 L424 579 C385 579 364 555 364 514 C364 485 378 472 406 471 L307 326 L271 471 C307 477 324 497 324 535 C324 564 310 579 282 579 L157 579 C110 579 85 556 85 515 C85 487 102 471 126 471 L139 471 Z M173 714 C173 679 201 652 236 652 C271 652 296 677 296 714 C296 747 269 776 236 776 C202 776 173 746 173 714 L173 714 Z M415 714 C415 679 443 652 478 652 C513 652 539 677 539 714 C539 747 511 776 478 776 C444 776 415 746 415 714 L415 714 Z " />
<glyph glyph-name="Zcaron" unicode="&#x17d;" horiz-adv-x="602" d="M221 404 L236 470 L369 470 L60 91 C52 82 45 62 45 42 C45 13 67 0 112 0 L400 0 C427 0 439 10 445 39 L476 183 C478 191 479 198 479 203 C479 232 463 246 434 246 C396 246 382 227 372 175 L359 108 L212 108 L521 487 C529 497 536 516 536 536 C536 565 514 579 469 579 L204 579 C175 579 158 565 152 538 L126 413 C124 402 123 392 123 384 C123 359 137 348 167 348 C206 348 213 369 221 404 L221 404 Z M332 719 L231 785 C225 789 217 791 211 791 C197 791 189 783 189 771 C189 762 194 757 203 748 L297 655 C306 646 318 642 331 642 C340 642 350 644 358 650 L499 747 C513 757 523 761 523 775 C523 785 514 793 503 793 C500 793 493 791 481 786 L332 719 Z " />
<glyph glyph-name="zcaron" unicode="&#x17e;" horiz-adv-x="602" d="M100 0 L407 0 C434 0 446 11 452 38 L472 139 C473 144 474 149 474 154 C474 178 458 193 428 193 C404 193 387 178 379 147 L365 90 L219 90 L497 354 C513 369 522 388 522 403 C522 436 505 451 470 451 L182 451 C152 451 139 443 133 415 L112 321 C111 316 110 311 110 306 C110 283 125 267 156 267 C180 267 199 284 205 313 L215 361 L355 361 L73 97 C57 82 49 64 49 49 C49 16 65 0 100 0 L100 0 Z M308 587 L207 653 C201 657 193 659 187 659 C173 659 165 651 165 639 C165 630 170 625 179 616 L273 523 C282 514 294 510 307 510 C316 510 326 512 334 518 L475 615 C489 625 499 629 499 643 C499 653 490 661 479 661 C476 661 469 659 457 654 L308 587 Z " />
<glyph glyph-name="florin" unicode="&#x192;" horiz-adv-x="602" d="M252 316 L156 21 C142 -22 114 -32 62 -32 C47 -32 39 -32 36 -32 C-10 -32 -33 -48 -33 -84 C-33 -125 -10 -139 43 -139 C170 -139 240 -95 278 22 L374 316 L460 315 C476 315 487 323 491 336 L502 373 C502 375 503 377 503 378 C503 388 495 396 481 396 L400 397 L425 471 C439 513 467 524 519 524 C534 524 541 524 544 524 C590 524 613 540 613 576 C613 617 590 631 537 631 C410 631 340 587 302 470 L278 396 L201 396 C185 396 174 388 170 375 L159 338 C159 336 158 335 158 333 C158 323 166 315 181 315 L252 316 Z " />
<glyph glyph-name="circumflex" unicode="&#x2c6;" horiz-adv-x="602" d="M356 584 L456 518 C462 514 470 512 476 512 C490 512 499 521 499 533 C499 542 493 546 484 555 L390 648 C381 657 370 662 357 662 C348 662 338 659 330 653 L189 556 C175 546 164 542 164 528 C164 518 173 510 184 510 C187 510 195 512 207 517 L356 584 Z " />
<glyph glyph-name="caron" unicode="&#x2c7;" horiz-adv-x="602" d="M308 587 L207 653 C201 657 193 659 187 659 C173 659 165 651 165 639 C165 630 170 625 179 616 L273 523 C282 514 294 510 307 510 C316 510 326 512 334 518 L475 615 C489 625 499 629 499 643 C499 653 490 661 479 661 C476 661 469 659 457 654 L308 587 Z " />
<glyph glyph-name="breve" unicode="&#x2d8;" horiz-adv-x="602" d="M320 528 C450 528 527 600 527 641 C527 653 522 658 512 658 C494 658 485 637 458 622 C433 608 389 600 327 600 C270 600 230 613 213 630 C201 642 193 660 178 660 C166 660 159 651 159 633 C159 572 219 528 320 528 L320 528 Z " />
<glyph glyph-name="dotaccent" unicode="&#x2d9;" horiz-adv-x="602" d="M266 590 C266 553 295 523 332 523 C369 523 398 552 398 590 C398 626 368 655 332 655 C297 655 266 625 266 590 L266 590 Z " />
<glyph glyph-name="ring" unicode="&#x2da;" horiz-adv-x="602" d="M231 632 C231 558 290 500 363 500 C436 500 495 558 495 632 C495 705 436 764 363 764 C289 764 231 705 231 632 L231 632 Z M301 633 C301 667 328 695 363 695 C397 695 425 667 425 633 C425 598 397 570 363 570 C328 570 301 598 301 633 L301 633 Z " />
<glyph glyph-name="ogonek" unicode="&#x2db;" horiz-adv-x="602" d="M378 14 L352 14 C243 -44 188 -101 188 -154 C188 -199 217 -225 264 -225 C313 -225 362 -196 387 -148 L364 -130 C347 -154 325 -167 306 -167 C284 -167 272 -153 272 -127 C272 -87 306 -38 378 14 L378 14 Z " />
<glyph glyph-name="tilde" unicode="&#x2dc;" horiz-adv-x="602" d="M283 634 C221 634 161 580 161 547 C161 539 168 533 177 533 C193 533 216 567 251 567 C283 567 336 536 395 536 C458 536 518 590 518 624 C518 631 510 638 502 638 C486 638 463 603 428 603 C397 603 343 634 283 634 L283 634 Z " />
<glyph glyph-name="hungarumlaut" unicode="&#x2dd;" horiz-adv-x="602" d="M218 503 L395 592 C408 599 413 603 413 614 C413 617 412 621 410 624 L393 655 C390 661 383 664 377 664 C371 664 366 661 359 656 L199 531 L218 503 Z M380 503 L557 592 C570 599 575 603 575 614 C575 617 575 621 573 624 L555 655 C552 661 545 664 539 664 C533 664 528 661 521 656 L361 531 L380 503 Z " />
<glyph glyph-name="endash" unicode="&#x2013;" horiz-adv-x="602" d="M-9 179 L602 179 C614 179 620 187 623 203 L632 245 C632 247 633 248 633 250 C633 262 623 272 611 272 L1 272 C-11 272 -17 264 -20 248 L-30 206 C-30 204 -31 203 -31 201 C-31 189 -21 179 -9 179 L-9 179 Z " />
<glyph glyph-name="emdash" unicode="&#x2014;" horiz-adv-x="602" d="M-9 179 L602 179 C614 179 620 187 623 203 L632 245 C632 247 633 248 633 250 C633 262 623 272 611 272 L1 272 C-10 272 -17 264 -20 248 L-30 206 C-30 204 -31 203 -31 201 C-31 189 -21 179 -9 179 L-9 179 Z " />
<glyph glyph-name="quoteleft" unicode="&#x2018;" horiz-adv-x="602" d="M437 550 C442 561 445 568 445 569 C445 573 441 579 437 581 L410 595 C407 597 404 597 400 597 C393 597 385 593 379 584 L215 340 C213 338 213 336 213 334 C213 328 217 323 224 323 L312 323 C329 323 334 327 341 341 L437 550 Z " />
<glyph glyph-name="quoteright" unicode="&#x2019;" horiz-adv-x="602" d="M193 351 C188 340 186 334 186 333 C186 329 189 323 193 321 L220 307 C223 305 226 305 230 305 C238 305 246 309 252 318 L415 562 C417 564 417 566 417 568 C417 574 413 579 406 579 L319 579 C302 579 296 575 290 561 L193 351 Z " />
<glyph glyph-name="quotesinglbase" unicode="&#x201a;" horiz-adv-x="602" d="M168 -62 C163 -73 161 -79 161 -80 C161 -84 164 -90 168 -92 L195 -106 C198 -108 201 -108 205 -108 C213 -108 221 -104 227 -95 L390 149 C392 151 392 153 392 155 C392 161 388 166 381 166 L294 166 C277 166 271 162 265 148 L168 -62 Z " />
<glyph glyph-name="quotedblleft" unicode="&#x201c;" horiz-adv-x="602" d="M330 550 C335 561 338 568 338 569 C338 573 334 579 330 581 L303 595 C300 597 297 597 293 597 C286 597 278 593 272 584 L108 340 C106 338 106 336 106 334 C106 328 110 323 117 323 L205 323 C222 323 227 327 234 341 L330 550 Z M542 550 C547 561 550 568 550 569 C550 573 546 579 542 581 L515 595 C512 597 509 597 505 597 C498 597 490 593 484 584 L320 340 C318 338 318 336 318 334 C318 328 322 323 329 323 L417 323 C434 323 439 327 446 341 L542 550 Z " />
<glyph glyph-name="quotedblright" unicode="&#x201d;" horiz-adv-x="602" d="M122 351 C117 340 115 334 115 333 C115 329 118 323 122 321 L149 307 C152 305 155 305 159 305 C167 305 175 309 181 318 L344 562 C346 564 346 566 346 568 C346 574 342 579 335 579 L248 579 C231 579 225 575 219 561 L122 351 Z M334 351 C329 340 327 334 327 333 C327 329 330 323 334 321 L361 307 C364 305 367 305 371 305 C379 305 387 309 393 318 L556 562 C558 564 558 566 558 568 C558 574 554 579 547 579 L460 579 C443 579 437 575 431 561 L334 351 Z " />
<glyph glyph-name="quotedblbase" unicode="&#x201e;" horiz-adv-x="602" d="M261 -62 C256 -73 254 -79 254 -80 C254 -84 257 -90 261 -92 L288 -106 C291 -108 294 -108 298 -108 C305 -108 313 -104 319 -95 L483 149 C485 151 485 153 485 155 C485 161 481 166 474 166 L387 166 C370 166 363 162 357 148 L261 -62 Z M49 -62 C44 -73 42 -79 42 -80 C42 -84 45 -90 49 -92 L76 -106 C79 -108 82 -108 86 -108 C93 -108 101 -104 107 -95 L271 149 C273 151 273 153 273 155 C273 161 269 166 262 166 L175 166 C158 166 151 162 145 148 L49 -62 Z " />
<glyph glyph-name="dagger" unicode="&#x2020;" horiz-adv-x="602" d="M310 68 L369 345 L433 345 C478 345 503 368 503 408 C503 435 488 449 463 449 L391 449 L406 521 C409 534 411 545 411 551 C411 578 392 595 359 595 C316 595 299 572 286 512 L273 449 L213 449 C166 449 143 430 143 389 C143 361 161 345 183 345 L250 345 L190 59 C187 46 186 35 186 29 C186 2 204 -15 237 -15 C280 -15 297 8 310 68 L310 68 Z " />
<glyph glyph-name="daggerdbl" unicode="&#x2021;" horiz-adv-x="602" d="M321 68 L337 144 L397 144 C444 144 467 163 467 204 C467 232 449 248 427 248 L360 248 L380 345 L444 345 C489 345 514 368 514 408 C514 435 499 449 474 449 L402 449 L418 521 C421 534 422 545 422 551 C422 578 403 595 370 595 C327 595 310 572 297 512 L284 449 L224 449 C177 449 154 430 154 389 C154 361 172 345 194 345 L262 345 L241 248 L177 248 C132 248 107 225 107 185 C107 158 122 144 147 144 L219 144 L201 59 C198 46 197 35 197 29 C197 2 215 -15 248 -15 C291 -15 308 8 321 68 L321 68 Z " />
<glyph glyph-name="bullet" unicode="&#x2022;" horiz-adv-x="602" d="M223 334 C223 290 258 256 301 256 C344 256 379 291 379 334 C379 377 344 413 301 413 C258 413 223 378 223 334 L223 334 Z " />
<glyph glyph-name="ellipsis" unicode="&#x2026;" horiz-adv-x="602" d="M-11 60 C-11 20 22 -12 62 -12 C102 -12 134 20 134 60 C134 100 102 133 62 133 C22 133 -11 100 -11 60 L-11 60 Z M191 60 C191 20 223 -12 263 -12 C303 -12 335 20 335 60 C335 100 303 133 263 133 C223 133 191 100 191 60 L191 60 Z M391 60 C391 20 424 -12 464 -12 C504 -12 536 20 536 60 C536 100 504 133 464 133 C424 133 391 100 391 60 L391 60 Z " />
<glyph glyph-name="perthousand" unicode="&#x2030;" horiz-adv-x="602" d="M-44 499 C-44 424 16 366 100 366 C184 366 243 423 243 499 C243 574 184 632 100 632 C16 632 -44 574 -44 499 L-44 499 Z M166 499 C166 464 140 440 100 440 C60 440 34 464 34 499 C34 534 60 559 100 559 C140 559 166 533 166 499 L166 499 Z M-21 272 C-34 267 -41 257 -41 246 C-41 227 -29 211 -11 211 C-7 211 -3 212 2 214 L330 345 C342 350 350 361 350 372 C350 391 338 405 320 405 C316 405 312 404 307 402 L-21 272 Z M69 117 C69 42 127 -16 212 -16 C296 -16 356 41 356 117 C356 192 296 250 212 250 C128 250 69 192 69 117 L69 117 Z M278 117 C278 82 252 58 212 58 C172 58 147 82 147 117 C147 152 172 176 212 176 C252 176 278 151 278 117 L278 117 Z M377 117 C377 42 436 -16 521 -16 C605 -16 664 41 664 117 C664 192 605 250 521 250 C437 250 377 192 377 117 L377 117 Z M586 117 C586 82 561 58 521 58 C481 58 455 82 455 117 C455 152 481 176 521 176 C561 176 586 151 586 117 L586 117 Z " />
<glyph glyph-name="guilsinglleft" unicode="&#x2039;" horiz-adv-x="602" d="M310 225 L385 350 C389 356 390 364 390 371 C390 391 371 408 351 408 C339 408 327 401 322 394 L230 258 C224 248 220 241 220 234 C220 229 223 222 226 213 L287 56 C291 45 305 36 320 36 C342 36 359 52 359 74 C359 78 359 82 357 87 L310 225 Z " />
<glyph glyph-name="guilsinglright" unicode="&#x203a;" horiz-adv-x="602" d="M300 222 L226 96 C222 90 220 82 220 75 C220 55 240 38 260 38 C272 38 284 45 289 52 L381 188 C387 198 390 206 390 213 C390 218 388 225 385 234 L324 390 C320 401 306 410 291 410 C268 410 251 394 251 373 C251 369 252 364 253 360 L300 222 Z " />
<glyph glyph-name="fraction" unicode="&#x2044;" horiz-adv-x="602" d="M121 -76 L557 599 C570 619 580 635 580 658 C580 681 547 704 525 704 C502 704 487 686 468 656 L32 -19 C19 -39 9 -54 9 -77 C9 -99 41 -124 64 -124 C87 -124 102 -106 121 -76 L121 -76 Z " />
<glyph glyph-name="trademark" unicode="&#x2122;" horiz-adv-x="602" d="M275 489 L273 562 C272 584 272 589 249 589 L60 589 C37 589 36 584 35 562 L33 489 C33 488 33 487 33 486 C33 468 41 460 59 460 C78 460 85 468 86 489 L87 534 L121 534 L121 385 L89 385 C69 385 60 377 60 357 C60 337 69 329 89 329 L219 329 C239 329 248 337 248 357 C248 377 239 385 219 385 L187 385 L187 534 L221 534 L223 489 C224 467 230 460 250 460 C267 460 275 468 275 486 C275 487 275 488 275 489 L275 489 Z M311 329 L361 329 C380 329 390 338 390 357 C390 374 380 385 365 385 C363 385 362 385 361 385 L364 511 L396 412 C401 397 410 391 424 391 C438 391 447 397 452 412 L484 511 L487 385 C486 385 485 385 484 385 C465 385 454 375 454 357 C454 337 465 329 487 329 L536 329 C555 329 565 338 565 357 C565 374 557 385 543 385 C542 385 542 385 541 385 L534 534 C548 534 559 545 559 562 C559 581 549 589 530 589 L489 589 C474 589 465 583 459 566 L424 461 L388 566 C382 582 374 589 359 589 L308 589 C299 589 289 579 289 562 C289 545 298 534 313 534 L307 385 C292 385 282 374 282 357 C282 338 291 329 311 329 L311 329 Z " />
<glyph glyph-name="minus" unicode="&#x2212;" horiz-adv-x="602" d="M90 257 L512 257 C544 257 566 277 566 308 C566 338 544 359 512 359 L90 359 C58 359 36 339 36 308 C36 278 58 257 90 257 L90 257 Z " />
<glyph glyph-name="fi" unicode="&#xfb01;" horiz-adv-x="602" d="M536 451 L435 451 C388 451 363 429 363 388 C363 360 381 343 404 343 L417 343 L369 108 C367 108 366 108 364 108 C320 108 295 83 295 44 C295 14 311 0 343 0 L464 0 C511 0 536 23 536 63 C536 93 520 108 486 108 L556 425 C556 427 557 429 557 431 C557 444 549 451 536 451 L536 451 Z M125 451 L108 451 C73 451 47 426 47 388 C47 360 65 343 88 343 L101 343 L53 108 C51 108 50 108 48 108 C4 108 -21 83 -21 44 C-21 14 -5 0 27 0 L163 0 C210 0 235 23 235 63 C235 94 218 108 182 108 C179 108 175 108 171 108 L219 344 L233 344 C282 344 307 366 307 407 C307 439 291 451 253 451 L242 451 C259 513 275 536 323 536 C334 536 348 534 364 534 C395 534 416 554 416 580 C416 617 382 638 317 638 C213 638 147 574 125 451 L125 451 Z M514 519 C552 519 563 522 575 549 C588 578 594 610 594 633 C594 668 585 672 544 672 C506 672 495 666 484 641 C469 609 461 569 461 545 C461 522 473 519 514 519 L514 519 Z " />
<glyph glyph-name="fl" unicode="&#xfb02;" horiz-adv-x="602" d="M125 451 L108 451 C73 451 47 426 47 388 C47 360 65 343 88 343 L101 343 L53 108 C51 108 50 108 48 108 C4 108 -21 83 -21 44 C-21 14 -5 0 27 0 L148 0 C195 0 220 23 220 63 C220 93 204 108 170 108 L219 344 L233 344 C282 344 307 366 307 407 C307 439 291 451 253 451 L242 451 C261 530 285 530 349 530 L459 530 L369 108 C367 108 364 108 362 108 C318 108 295 82 295 44 C295 14 311 0 343 0 L464 0 C511 0 536 23 536 63 C536 93 520 108 486 108 L597 613 C597 615 598 617 598 619 C598 632 590 639 577 639 L329 639 C213 639 149 579 125 451 L125 451 Z " />
</font>
</svg>
