<?xml version="1.0" encoding="UTF-8"?>
<svg xmlns="http://www.w3.org/2000/svg" xmlns:xlink="http://www.w3.org/1999/xlink" version="1.2" >
<font id="Luxi Mono Bold Oblique">
<font-face  font-family="Luxi Mono" units-per-em="1000" ascent="723" descent="-205" font-style="italic" font-weight="700" font-stretch="normal" slope="-11.3" cap-height="723" x-height="530" underline-position="0" underline-thickness="96" />
<missing-glyph  horiz-adv-x="600" d="" />
<glyph glyph-name="NULL" d="" />
<glyph glyph-name="CR" unicode="&#xd;" horiz-adv-x="250" d="" />
<glyph glyph-name="space" unicode="&#x20;" horiz-adv-x="600" d="" />
<glyph glyph-name="exclam" unicode="&#x21;" horiz-adv-x="600" d="M228 0 L373 0 L396 121 L252 121 L228 0 Z M299 205 L382 205 L488 578 L517 723 L373 723 L344 578 L299 205 Z " />
<glyph glyph-name="quotedbl" unicode="&#x22;" horiz-adv-x="600" d="M221 506 L317 506 L394 771 L250 771 L221 506 Z M486 506 L582 506 L659 771 L515 771 L486 506 Z " />
<glyph glyph-name="numbersign" unicode="&#x23;" horiz-adv-x="600" d="M69 0 L156 0 L252 211 L353 211 L257 0 L345 0 L441 211 L558 211 L592 295 L479 295 L539 428 L645 428 L678 512 L576 512 L671 723 L584 723 L490 512 L389 512 L483 723 L397 723 L300 512 L187 512 L152 428 L262 428 L203 295 L99 295 L66 211 L165 211 L69 0 Z M291 295 L350 428 L451 428 L391 295 L291 295 Z " />
<glyph glyph-name="dollar" unicode="&#x24;" horiz-adv-x="600" d="M336 88 L374 278 C412 246 425 224 425 193 C425 142 392 97 348 90 L336 88 Z M59 27 C111 15 166 6 234 0 L215 -96 L300 -96 L319 0 C473 25 563 110 563 232 C563 287 529 335 438 407 L483 636 C494 635 505 632 514 628 L512 554 L596 554 L624 698 C585 709 547 717 501 722 L520 819 L435 819 L416 722 C279 711 178 624 178 516 C178 456 208 413 302 335 L252 86 C224 92 199 101 173 113 L175 186 L91 186 L59 27 Z M365 466 C327 496 312 517 312 541 C312 590 346 627 399 635 L365 466 Z " />
<glyph glyph-name="percent" unicode="&#x25;" horiz-adv-x="600" d="M19 -18 L95 -18 L727 741 L650 741 L19 -18 Z M515 361 C408 361 318 257 318 134 C318 51 366 0 443 0 C550 0 642 104 642 226 C642 309 594 361 515 361 L515 361 Z M499 277 C518 277 528 260 528 227 C528 152 496 84 460 84 C441 84 431 100 431 132 C431 207 464 277 499 277 L499 277 Z M300 723 C193 723 103 619 103 496 C103 413 151 362 228 362 C336 362 427 466 427 588 C427 672 379 723 300 723 L300 723 Z M284 639 C304 639 314 622 314 588 C314 515 281 446 246 446 C226 446 216 462 216 495 C216 569 249 639 284 639 L284 639 Z " />
<glyph glyph-name="ampersand" unicode="&#x26;" horiz-adv-x="600" d="M429 0 L563 0 L581 85 L519 85 L499 119 C552 180 588 250 607 332 L660 332 L677 416 L492 416 L475 332 L525 332 C515 275 496 227 467 186 C435 258 409 333 391 405 C507 473 557 539 557 622 C557 695 511 741 436 741 C329 741 247 660 247 554 C247 525 254 491 270 439 C138 379 60 272 60 149 C60 44 125 -18 235 -18 C302 -18 354 0 408 43 L429 0 Z M373 107 C349 92 327 86 297 86 C222 86 184 125 184 201 C184 275 215 324 287 364 C305 288 334 202 373 107 L373 107 Z M374 479 C373 484 373 487 372 489 C365 523 360 556 360 578 C360 630 379 657 415 657 C437 657 448 644 448 618 C448 573 426 531 374 479 L374 479 Z " />
<glyph glyph-name="quotesingle" unicode="&#x27;" horiz-adv-x="600" d="M346 470 L443 470 L539 771 L370 771 L346 470 Z " />
<glyph glyph-name="parenleft" unicode="&#x28;" horiz-adv-x="600" d="M495 -60 C441 -52 404 -33 368 3 C317 56 292 120 292 203 C292 333 335 455 414 551 C479 629 546 668 644 687 L661 771 C595 769 551 760 496 736 C426 706 354 655 299 594 C204 488 149 347 149 207 C149 94 187 3 261 -65 C321 -119 385 -142 478 -145 L495 -60 Z " />
<glyph glyph-name="parenright" unicode="&#x29;" horiz-adv-x="600" d="M233 687 C287 678 324 659 360 623 C411 571 436 506 436 423 C436 294 393 171 314 76 C250 -2 182 -42 84 -60 L67 -145 C204 -141 326 -81 429 33 C524 139 579 280 579 420 C579 532 541 623 467 691 C407 745 343 769 250 771 L233 687 Z " />
<glyph glyph-name="asterisk" unicode="&#x2a;" horiz-adv-x="600" d="M293 291 L376 445 C360 449 348 458 342 472 L197 360 L293 291 Z M176 507 L338 499 C340 516 348 532 363 546 L237 631 L176 507 Z M387 562 C399 566 406 567 412 567 C419 567 427 565 436 561 L510 723 L380 723 L387 562 Z M455 544 C461 535 463 526 463 515 C463 511 462 506 461 501 L626 507 L617 632 L455 544 Z M426 289 L548 363 L446 472 C432 457 417 448 400 445 L426 289 Z " />
<glyph glyph-name="plus" unicode="&#x2b;" horiz-adv-x="600" d="M262 49 L358 49 L399 253 L602 253 L622 350 L418 350 L459 553 L363 553 L322 350 L118 350 L99 253 L303 253 L262 49 Z " />
<glyph glyph-name="comma" unicode="&#x2c;" horiz-adv-x="600" d="M216 0 L282 0 C263 -89 248 -109 201 -109 L194 -109 L182 -169 L192 -169 C311 -169 360 -119 390 30 L418 168 L249 168 L216 0 Z " />
<glyph glyph-name="hyphen" unicode="&#x2d;" horiz-adv-x="600" d="M123 253 L578 253 L598 350 L142 350 L123 253 Z " />
<glyph glyph-name="period" unicode="&#x2e;" horiz-adv-x="600" d="M216 0 L384 0 L419 168 L250 168 L216 0 Z " />
<glyph glyph-name="slash" unicode="&#x2f;" horiz-adv-x="600" d="M-29 -145 L78 -145 L754 771 L647 771 L-29 -145 Z " />
<glyph glyph-name="zero" unicode="0" horiz-adv-x="600" d="M448 742 C333 742 231 665 169 532 C127 442 101 321 101 220 C101 69 171 -18 293 -18 C413 -18 515 57 577 191 C619 282 646 403 646 502 C646 657 576 742 448 742 L448 742 Z M432 658 C475 658 497 618 497 541 C497 468 472 324 442 229 C408 121 366 66 317 66 C273 66 250 106 250 183 C250 247 271 373 297 467 C333 596 377 658 432 658 L432 658 Z " />
<glyph glyph-name="one" unicode="1" horiz-adv-x="600" d="M72 0 L551 0 L568 84 L400 84 L530 735 L196 622 L179 538 L355 587 L255 84 L89 84 L72 0 Z " />
<glyph glyph-name="two" unicode="2" horiz-adv-x="600" d="M92 0 L507 0 L531 121 L254 121 C280 173 327 227 393 281 L458 334 L521 384 C585 436 622 511 622 587 C622 690 559 742 432 742 C369 742 310 731 236 705 L202 538 L278 538 L308 636 C342 650 372 657 402 657 C460 657 490 629 490 574 C490 514 448 444 366 366 L237 243 C185 193 142 145 113 103 L92 0 Z " />
<glyph glyph-name="three" unicode="3" horiz-adv-x="600" d="M86 7 C165 -11 211 -18 258 -18 C437 -18 576 88 576 226 C576 308 517 369 419 388 C551 426 627 503 627 599 C627 688 553 741 430 741 C371 741 310 732 232 711 L204 566 L294 566 L321 643 C352 653 371 657 391 657 C443 657 469 631 469 580 C469 484 395 422 283 422 L235 422 L218 338 L267 338 C368 338 419 298 419 218 C419 132 359 67 280 67 C259 67 235 72 203 83 L207 160 L116 160 L86 7 Z " />
<glyph glyph-name="four" unicode="4" horiz-adv-x="600" d="M75 199 L382 199 L359 84 L227 84 L210 0 L547 0 L564 84 L492 84 L514 199 L599 199 L619 302 L535 302 L621 732 L489 732 L94 293 L75 199 Z M403 302 L210 302 L458 579 L403 302 Z " />
<glyph glyph-name="five" unicode="5" horiz-adv-x="600" d="M116 9 C182 -11 223 -18 268 -18 C440 -18 580 106 580 257 C580 380 487 444 304 447 L335 603 L643 603 L668 723 L274 723 L201 358 C219 360 241 361 254 361 C364 361 419 319 419 234 C419 139 363 67 288 67 C270 67 253 72 233 84 L236 160 L146 160 L116 9 Z " />
<glyph glyph-name="six" unicode="6" horiz-adv-x="600" d="M667 720 C605 734 554 741 509 741 C402 741 316 695 238 599 C154 493 109 364 109 226 C109 68 183 -18 317 -18 C481 -18 615 124 615 296 C615 406 555 473 455 473 C391 473 341 449 285 390 C317 561 392 657 492 657 C511 657 529 653 550 643 L547 566 L637 566 L667 720 Z M392 371 C436 371 457 342 457 284 C457 166 399 66 331 66 C285 66 262 96 262 158 C262 275 321 371 392 371 L392 371 Z " />
<glyph glyph-name="seven" unicode="7" horiz-adv-x="600" d="M249 0 C291 165 393 334 559 515 L661 627 L681 723 L207 723 L183 603 L525 603 L364 417 C176 199 119 110 94 0 L249 0 Z " />
<glyph glyph-name="eight" unicode="8" horiz-adv-x="600" d="M274 390 C140 311 82 235 82 141 C82 44 166 -18 298 -18 C461 -18 604 101 604 236 C604 298 571 345 488 402 C594 477 638 536 638 607 C638 694 576 741 462 741 C314 741 198 641 198 513 C198 469 219 435 274 390 L274 390 Z M382 478 C353 506 338 531 338 555 C338 613 381 657 437 657 C481 657 504 635 504 592 C504 543 479 498 421 441 L382 478 Z M389 285 C438 242 458 214 458 186 C458 122 399 66 331 66 C269 66 230 104 230 164 C230 227 260 282 326 340 L389 285 Z " />
<glyph glyph-name="nine" unicode="9" horiz-adv-x="600" d="M79 4 C141 -11 192 -18 238 -18 C344 -18 431 28 508 124 C593 230 638 359 638 497 C638 655 565 741 430 741 C266 741 132 600 132 427 C132 317 192 250 292 250 C355 250 406 274 461 333 C430 162 356 67 255 67 C235 67 218 71 197 80 L200 157 L110 157 L79 4 Z M416 657 C462 657 485 627 485 564 C485 448 426 352 355 352 C311 352 290 381 290 439 C290 557 348 657 416 657 L416 657 Z " />
<glyph glyph-name="colon" unicode="&#x3a;" horiz-adv-x="600" d="M216 0 L384 0 L419 168 L250 168 L216 0 Z M288 361 L457 361 L491 530 L322 530 L288 361 Z " />
<glyph glyph-name="semicolon" unicode="&#x3b;" horiz-adv-x="600" d="M288 361 L456 361 L491 530 L322 530 L288 361 Z M216 0 L282 0 C263 -89 248 -109 201 -109 L194 -109 L182 -169 L192 -169 C311 -169 360 -119 390 30 L418 168 L249 168 L216 0 Z " />
<glyph glyph-name="less" unicode="&#x3c;" horiz-adv-x="600" d="M672 603 L109 304 L552 0 L574 110 L293 304 L651 494 L672 603 Z " />
<glyph glyph-name="equal" unicode="&#x3d;" horiz-adv-x="600" d="M80 150 L580 150 L599 247 L99 247 L80 150 Z M121 356 L621 356 L640 452 L140 452 L121 356 Z " />
<glyph glyph-name="greater" unicode="&#x3e;" horiz-adv-x="600" d="M48 0 L611 298 L168 603 L146 492 L427 298 L69 108 L48 0 Z " />
<glyph glyph-name="question" unicode="&#x3f;" horiz-adv-x="600" d="M183 0 L327 0 L352 121 L207 121 L183 0 Z M224 205 L368 205 L376 244 C393 323 414 353 496 413 L529 436 L569 463 C628 503 660 553 660 608 C660 695 580 741 427 741 C366 741 306 732 204 709 L172 548 L256 548 L286 635 C327 651 358 657 393 657 C463 657 500 631 500 583 C500 544 471 502 412 457 L378 431 C272 348 247 312 228 224 L224 205 Z " />
<glyph glyph-name="at" unicode="&#x40;" horiz-adv-x="600" d="M487 91 C433 69 393 60 354 60 C240 60 171 140 171 271 C171 372 201 466 260 544 C319 624 387 663 467 663 C541 663 579 632 579 572 L579 564 C548 571 528 574 511 574 C374 574 248 424 248 262 C248 179 280 137 345 137 C405 137 448 173 510 275 L522 296 L528 296 L498 145 L625 145 L642 229 L600 229 L658 522 C666 562 669 586 669 612 C669 697 609 742 494 742 C380 742 285 695 204 598 C125 503 84 386 84 257 C84 83 179 -18 342 -18 C382 -18 420 -12 470 3 L487 91 Z M556 434 C472 285 421 223 380 223 C358 223 347 242 347 278 C347 406 416 506 504 506 C523 506 545 502 568 494 L556 434 Z " />
<glyph glyph-name="A" unicode="A" horiz-adv-x="600" d="M12 0 L196 0 L213 85 L146 85 L202 199 L421 199 L431 85 L365 85 L348 0 L588 0 L605 85 L575 85 L519 723 L370 723 L59 85 L29 85 L12 0 Z M243 283 L387 581 L388 581 L414 283 L243 283 Z " />
<glyph glyph-name="B" unicode="B" horiz-adv-x="600" d="M18 0 L309 0 C492 0 606 85 606 221 C606 305 562 351 456 379 C594 433 654 498 654 597 C654 690 597 723 434 723 L163 723 L145 639 L194 639 L83 85 L35 85 L18 0 Z M227 85 L277 332 L301 332 C400 332 448 295 448 219 C448 127 391 85 267 85 L227 85 Z M294 416 L338 639 L364 639 C467 639 494 624 494 569 C494 484 414 416 315 416 L294 416 Z " />
<glyph glyph-name="C" unicode="C" horiz-adv-x="600" d="M607 127 C528 92 474 77 422 77 C315 77 248 149 248 265 C248 478 367 657 508 657 C543 657 569 648 595 626 L582 500 L667 500 L708 709 C638 732 583 741 522 741 C398 741 298 696 217 602 C134 506 90 389 90 264 C90 84 194 -18 377 -18 C447 -18 512 -6 586 22 L607 127 Z " />
<glyph glyph-name="D" unicode="D" horiz-adv-x="600" d="M18 0 L216 0 C365 0 478 54 560 166 C626 254 661 359 661 469 C661 639 568 723 377 723 L163 723 L146 639 L194 639 L83 85 L35 85 L18 0 Z M228 85 L339 639 L360 638 C461 636 506 589 506 487 C506 412 486 315 455 243 C411 141 339 85 250 85 L228 85 Z " />
<glyph glyph-name="E" unicode="E" horiz-adv-x="600" d="M18 0 L572 0 L612 199 L522 199 L500 90 L253 90 L299 320 L413 320 L401 259 L485 259 L526 464 L442 464 L430 404 L316 404 L363 639 L580 639 L560 542 L650 542 L686 723 L163 723 L146 639 L218 639 L107 84 L35 84 L18 0 Z " />
<glyph glyph-name="F" unicode="F" horiz-adv-x="600" d="M18 0 L331 0 L350 90 L253 90 L294 295 L433 295 L420 235 L505 235 L546 440 L461 440 L449 379 L311 379 L363 639 L603 639 L584 542 L675 542 L711 723 L163 723 L146 639 L218 639 L107 84 L35 84 L18 0 Z " />
<glyph glyph-name="G" unicode="G" horiz-adv-x="600" d="M642 334 L407 334 L390 250 L481 250 L447 83 C430 80 410 78 399 78 C310 78 247 157 247 268 C247 475 367 657 505 657 C538 657 563 648 589 626 L576 500 L660 500 L702 709 C632 731 578 741 519 741 C401 741 300 694 216 600 C133 507 90 392 90 265 C90 87 193 -18 366 -18 C440 -18 507 -5 580 24 L642 334 Z " />
<glyph glyph-name="H" unicode="H" horiz-adv-x="600" d="M18 0 L259 0 L276 85 L227 85 L276 326 L454 326 L406 85 L358 85 L341 0 L582 0 L599 85 L551 85 L662 639 L709 639 L726 723 L486 723 L469 639 L517 639 L472 416 L294 416 L338 639 L387 639 L404 723 L163 723 L146 639 L194 639 L83 85 L35 85 L18 0 Z " />
<glyph glyph-name="I" unicode="I" horiz-adv-x="600" d="M60 0 L539 0 L557 84 L389 84 L500 639 L667 639 L684 723 L205 723 L188 639 L355 639 L245 84 L77 84 L60 0 Z " />
<glyph glyph-name="J" unicode="J" horiz-adv-x="600" d="M57 15 L93 5 C151 -11 198 -18 240 -18 C381 -18 468 52 495 187 L585 639 L706 639 L723 723 L301 723 L284 639 L441 639 L352 197 C333 99 307 67 247 67 C221 67 200 75 170 97 L189 253 L104 253 L57 15 Z " />
<glyph glyph-name="K" unicode="K" horiz-adv-x="600" d="M18 0 L259 0 L276 85 L227 85 L281 350 L292 350 L438 85 L377 85 L361 0 L600 0 L617 85 L597 85 L424 400 L669 639 L726 639 L743 723 L526 723 L509 639 L563 639 L299 380 L287 380 L338 639 L387 639 L403 723 L163 723 L145 639 L194 639 L83 85 L35 85 L18 0 Z " />
<glyph glyph-name="L" unicode="L" horiz-adv-x="600" d="M24 0 L576 0 L624 241 L546 241 L516 90 L283 90 L393 639 L489 639 L506 723 L169 723 L152 639 L248 639 L137 84 L41 84 L24 0 Z " />
<glyph glyph-name="M" unicode="M" horiz-adv-x="600" d="M6 0 L187 0 L204 84 L150 84 L233 500 L235 500 L252 90 L350 90 L550 536 L553 536 L464 84 L397 84 L380 0 L594 0 L611 84 L578 84 L689 639 L722 639 L738 723 L562 723 L349 253 L331 723 L151 723 L134 639 L170 639 L59 84 L23 84 L6 0 Z " />
<glyph glyph-name="N" unicode="N" horiz-adv-x="600" d="M18 0 L235 0 L252 84 L180 84 L260 485 L450 0 L546 0 L674 639 L722 639 L739 723 L522 723 L505 639 L577 639 L497 235 L308 723 L163 723 L146 639 L194 639 L83 84 L35 84 L18 0 Z " />
<glyph glyph-name="O" unicode="O" horiz-adv-x="600" d="M449 741 C318 741 213 667 149 528 C108 438 82 321 82 222 C82 62 152 -18 291 -18 C427 -18 532 55 596 194 C638 285 664 402 664 501 C664 661 592 741 449 741 L449 741 Z M431 657 C489 657 519 610 519 521 C519 463 495 328 470 247 C434 127 383 66 319 66 C258 66 226 113 226 202 C226 250 242 348 264 437 C300 583 356 657 431 657 L431 657 Z " />
<glyph glyph-name="P" unicode="P" horiz-adv-x="600" d="M18 0 L404 0 L420 84 L276 84 L314 277 L344 277 C547 277 695 404 695 577 C695 682 632 723 472 723 L163 723 L146 639 L242 639 L131 84 L35 84 L18 0 Z M331 361 L387 639 L417 639 C507 639 538 617 538 553 C538 433 468 361 350 361 L331 361 Z " />
<glyph glyph-name="Q" unicode="Q" horiz-adv-x="600" d="M322 -18 C361 -97 410 -150 473 -178 C518 -137 557 -91 590 -39 C535 -36 477 -21 419 5 C479 39 518 73 553 120 C623 216 664 354 664 496 C664 661 594 741 449 741 C318 741 213 667 149 528 C108 439 82 322 82 223 C82 62 159 -18 314 -18 L322 -18 Z M431 657 C489 657 519 610 519 521 C519 463 495 328 470 247 C434 128 383 67 319 67 C258 67 226 114 226 203 C226 252 244 360 266 446 C303 587 357 657 431 657 L431 657 Z " />
<glyph glyph-name="R" unicode="R" horiz-adv-x="600" d="M18 0 L295 0 L312 84 L227 84 L271 301 L291 301 L442 0 L594 0 L611 84 L574 84 L449 340 C580 410 637 487 637 593 C637 690 583 723 427 723 L163 723 L146 639 L194 639 L83 84 L35 84 L18 0 Z M288 386 L338 639 L367 639 C454 639 475 626 475 570 C475 467 403 386 312 386 L288 386 Z " />
<glyph glyph-name="S" unicode="S" horiz-adv-x="600" d="M60 27 C152 -5 210 -18 270 -18 C376 -18 462 15 520 78 C567 128 592 189 592 251 C592 311 571 339 474 406 L412 449 C353 489 326 521 326 548 C326 607 377 657 438 657 C472 657 502 648 536 628 L526 522 L611 522 L647 706 C571 731 512 742 454 742 C290 742 170 637 170 494 C170 428 200 387 296 319 L354 278 C363 271 364 271 383 258 C422 232 437 212 437 186 C437 117 379 67 301 67 C262 67 224 80 173 112 L182 215 L98 215 L60 27 Z " />
<glyph glyph-name="T" unicode="T" horiz-adv-x="600" d="M119 0 L481 0 L497 84 L389 84 L500 639 L615 639 L593 530 L683 530 L722 723 L167 723 L129 530 L219 530 L241 639 L355 639 L244 84 L136 84 L119 0 Z " />
<glyph glyph-name="U" unicode="U" horiz-adv-x="600" d="M138 639 L187 639 L107 242 C100 204 95 166 95 140 C95 43 175 -18 304 -18 C396 -18 470 12 521 71 C555 111 574 160 595 265 L670 639 L718 639 L735 723 L542 723 L525 639 L574 639 L495 248 C468 111 432 67 348 67 C285 67 242 104 242 159 C242 181 248 226 259 277 L331 639 L379 639 L396 723 L155 723 L138 639 Z " />
<glyph glyph-name="V" unicode="V" horiz-adv-x="600" d="M218 0 L361 0 L685 639 L722 639 L739 723 L558 723 L541 639 L603 639 L352 147 L309 639 L371 639 L388 723 L151 723 L134 639 L162 639 L218 0 Z " />
<glyph glyph-name="W" unicode="W" horiz-adv-x="600" d="M104 0 L225 0 L380 424 L374 0 L493 0 L692 639 L722 639 L739 723 L595 723 L578 639 L605 639 L485 250 L482 250 L489 621 L378 621 L247 255 L244 255 L279 639 L323 639 L340 723 L151 723 L134 639 L164 639 L104 0 Z " />
<glyph glyph-name="X" unicode="X" horiz-adv-x="600" d="M6 0 L199 0 L215 85 L169 85 L331 278 L402 85 L346 85 L329 0 L594 0 L610 85 L563 85 L448 400 L652 639 L703 639 L720 723 L516 723 L499 639 L545 639 L418 481 L360 639 L417 639 L434 723 L163 723 L146 639 L200 639 L301 360 L63 85 L23 85 L6 0 Z " />
<glyph glyph-name="Y" unicode="Y" horiz-adv-x="600" d="M116 0 L501 0 L518 84 L398 84 L445 317 L679 639 L720 639 L738 723 L545 723 L528 639 L578 639 L429 432 L352 639 L399 639 L416 723 L151 723 L134 639 L179 639 L300 317 L253 84 L133 84 L116 0 Z " />
<glyph glyph-name="Z" unicode="Z" horiz-adv-x="600" d="M54 0 L546 0 L588 211 L497 211 L473 90 L234 90 L666 633 L684 723 L217 723 L178 531 L268 531 L290 639 L508 639 L72 90 L54 0 Z " />
<glyph glyph-name="bracketleft" unicode="&#x5b;" horiz-adv-x="600" d="M140 -145 L477 -145 L494 -61 L289 -61 L439 687 L643 687 L661 771 L323 771 L140 -145 Z " />
<glyph glyph-name="backslash" unicode="&#x5c;" horiz-adv-x="600" d="M571 -145 L261 771 L154 771 L464 -145 L571 -145 Z " />
<glyph glyph-name="bracketright" unicode="&#x5d;" horiz-adv-x="600" d="M586 771 L248 771 L231 687 L436 687 L287 -61 L82 -61 L65 -145 L402 -145 L586 771 Z " />
<glyph glyph-name="asciicircum" unicode="&#x5e;" horiz-adv-x="600" d="M124 265 L231 265 L403 518 L475 265 L582 265 L444 723 L124 265 Z " />
<glyph glyph-name="underscore" unicode="&#x5f;" horiz-adv-x="600" d="M-19 -96 L581 -96 L600 0 L0 0 L-19 -96 Z " />
<glyph glyph-name="grave" unicode="&#x60;" horiz-adv-x="600" d="M461 626 L545 626 L475 783 L336 783 L461 626 Z " />
<glyph glyph-name="a" unicode="a" horiz-adv-x="600" d="M156 377 L240 377 L262 433 C300 451 336 459 379 459 C432 459 460 443 460 413 C460 406 458 392 456 380 L444 325 L401 325 C281 325 197 301 140 252 C94 212 69 162 69 108 C69 29 117 -12 208 -12 C274 -12 328 7 390 51 L399 0 L578 0 L595 84 L541 84 L604 397 C605 405 607 423 607 433 C607 512 555 542 418 542 C344 542 275 530 181 501 L156 377 Z M408 142 C361 101 321 83 277 83 C239 83 220 100 220 133 C220 202 299 253 408 253 L430 253 L408 142 Z " />
<glyph glyph-name="b" unicode="b" horiz-adv-x="600" d="M66 0 L211 0 C249 -8 278 -12 309 -12 C420 -12 503 32 562 122 C610 194 635 278 635 363 C635 481 585 542 486 542 C420 542 365 515 301 451 L365 771 L172 771 L155 686 L204 686 L66 0 Z M231 99 L280 347 C332 406 372 431 416 431 C465 431 488 404 488 346 C488 191 418 86 316 86 C295 86 267 90 244 96 L231 99 Z " />
<glyph glyph-name="c" unicode="c" horiz-adv-x="600" d="M607 130 C514 97 457 84 405 84 C294 84 238 130 238 222 C238 364 326 459 457 459 C498 459 531 452 566 436 L558 337 L642 337 L678 515 C611 534 549 542 481 542 C247 542 82 403 82 206 C82 61 175 -12 359 -12 C433 -12 499 -1 586 25 L607 130 Z " />
<glyph glyph-name="d" unicode="d" horiz-adv-x="600" d="M391 0 L584 0 L600 84 L552 84 L690 771 L485 771 L468 686 L528 686 L497 530 C459 538 430 542 399 542 C288 542 205 498 146 408 C98 336 73 252 73 167 C73 49 123 -12 222 -12 C288 -12 343 15 406 78 L391 0 Z M477 431 L427 183 C376 124 335 99 292 99 C243 99 220 126 220 184 C220 339 290 444 392 444 C413 444 443 440 464 434 L477 431 Z " />
<glyph glyph-name="e" unicode="e" horiz-adv-x="600" d="M601 124 C509 95 448 83 390 83 C287 83 233 127 233 210 C233 216 234 225 235 235 L619 235 L624 263 C632 301 634 322 634 349 C634 472 559 542 428 542 C235 542 82 390 82 198 C82 63 176 -12 345 -12 C421 -12 497 0 582 25 L601 124 Z M254 319 C280 414 327 456 404 456 C464 456 494 423 494 357 C494 345 493 336 489 319 L254 319 Z " />
<glyph glyph-name="f" unicode="f" horiz-adv-x="600" d="M59 0 L490 0 L507 84 L353 84 L422 428 L623 428 L642 518 L440 518 L450 568 C466 655 508 699 571 699 C595 699 616 693 640 680 L640 621 L724 621 L749 746 C691 773 647 784 590 784 C430 784 334 710 304 563 L295 518 L163 518 L144 428 L277 428 L208 84 L76 84 L59 0 Z " />
<glyph glyph-name="g" unicode="g" horiz-adv-x="600" d="M316 90 C264 90 239 97 239 111 C239 126 253 142 284 161 C301 157 312 156 326 156 C463 156 574 256 574 380 C574 406 569 427 557 454 L649 439 L700 542 L468 530 C434 539 413 542 388 542 C252 542 141 437 141 309 C141 257 162 222 215 189 C144 144 111 107 111 69 C111 50 122 34 149 12 C64 -23 25 -61 25 -109 C25 -168 107 -205 235 -205 C413 -205 544 -121 544 -7 C544 59 494 90 389 90 L316 90 Z M311 0 C378 0 399 -10 399 -41 C399 -86 343 -121 272 -121 C213 -121 182 -105 182 -75 C182 -51 199 -28 237 0 L311 0 Z M381 458 C419 458 439 433 439 385 C439 304 395 240 338 240 C299 240 280 264 280 311 C280 392 325 458 381 458 L381 458 Z " />
<glyph glyph-name="h" unicode="h" horiz-adv-x="600" d="M18 0 L271 0 L288 84 L225 84 L277 347 C336 406 376 431 415 431 C449 431 467 414 467 381 C467 369 463 342 458 315 L412 84 L349 84 L332 0 L585 0 L602 84 L551 84 L606 364 C613 395 616 422 616 442 C616 508 576 542 499 542 C426 542 368 515 301 451 L365 771 L172 771 L155 686 L206 686 L86 84 L35 84 L18 0 Z " />
<glyph glyph-name="i" unicode="i" horiz-adv-x="600" d="M68 0 L574 0 L591 84 L410 84 L499 530 L174 530 L157 446 L338 446 L265 84 L85 84 L68 0 Z M374 626 L519 626 L547 771 L403 771 L374 626 Z " />
<glyph glyph-name="j" unicode="j" horiz-adv-x="600" d="M4 -174 C79 -196 131 -205 182 -205 C349 -205 442 -124 477 51 L572 530 L217 530 L200 446 L411 446 L331 43 C306 -83 277 -122 207 -122 C176 -122 150 -113 117 -89 L128 24 L44 24 L4 -174 Z M447 626 L592 626 L621 771 L476 771 L447 626 Z " />
<glyph glyph-name="k" unicode="k" horiz-adv-x="600" d="M18 0 L259 0 L276 85 L227 85 L259 241 L283 241 L369 85 L352 0 L582 0 L599 85 L550 85 L426 311 L582 446 L654 446 L671 530 L419 530 L402 446 L462 446 L295 301 L271 301 L365 771 L172 771 L155 686 L204 686 L83 85 L35 85 L18 0 Z " />
<glyph glyph-name="l" unicode="l" horiz-adv-x="600" d="M68 0 L574 0 L591 84 L410 84 L547 771 L222 771 L205 687 L386 687 L265 84 L85 84 L68 0 Z " />
<glyph glyph-name="m" unicode="m" horiz-adv-x="600" d="M12 0 L159 0 L226 330 C269 405 294 435 312 435 C320 435 325 428 325 416 C325 406 323 393 318 366 L308 310 L246 0 L354 0 L420 330 C463 405 488 436 506 436 C514 436 519 429 519 416 C519 407 516 381 513 366 L502 310 L440 0 L591 0 L608 84 L566 84 L627 390 C635 433 639 460 639 478 C639 520 618 542 579 542 C534 542 494 512 442 440 C443 449 444 467 444 472 C444 518 425 542 388 542 C345 542 304 512 247 440 L265 530 L118 530 L101 446 L140 446 L68 84 L29 84 L12 0 Z " />
<glyph glyph-name="n" unicode="n" horiz-adv-x="600" d="M18 0 L271 0 L288 84 L225 84 L277 347 C336 406 376 431 415 431 C449 431 467 414 467 381 C467 369 463 342 458 315 L412 84 L349 84 L332 0 L585 0 L602 84 L551 84 L606 364 C613 395 616 422 616 442 C616 509 578 542 499 542 C419 542 377 523 298 451 L314 530 L124 530 L107 446 L158 446 L86 84 L35 84 L18 0 Z " />
<glyph glyph-name="o" unicode="o" horiz-adv-x="600" d="M412 542 C228 542 80 390 80 203 C80 71 164 -12 298 -12 C484 -12 633 139 633 328 C633 461 550 542 412 542 L412 542 Z M396 458 C454 458 483 417 483 334 C483 192 407 72 317 72 C259 72 230 113 230 196 C230 338 306 458 396 458 L396 458 Z " />
<glyph glyph-name="p" unicode="p" horiz-adv-x="600" d="M107 446 L156 446 L45 -108 L-3 -108 L-20 -193 L233 -193 L250 -108 L189 -108 L211 0 C249 -9 278 -12 309 -12 C420 -12 503 32 562 122 C610 194 635 278 635 363 C635 481 585 542 486 542 C420 542 366 515 302 451 L317 530 L125 530 L107 446 Z M231 99 L281 347 C332 406 373 431 416 431 C465 431 488 404 488 345 C488 191 418 86 316 86 C295 86 267 90 244 96 L231 99 Z " />
<glyph glyph-name="q" unicode="q" horiz-adv-x="600" d="M641 530 L497 530 C459 538 430 542 399 542 C288 542 205 498 146 408 C98 336 73 252 73 167 C73 49 123 -12 222 -12 C288 -12 343 15 406 78 L369 -108 L321 -108 L304 -193 L557 -193 L574 -108 L514 -108 L641 530 Z M477 431 L427 183 C376 124 335 99 292 99 C243 99 220 126 220 184 C220 339 290 444 392 444 C413 444 443 440 464 434 L477 431 Z " />
<glyph glyph-name="r" unicode="r" horiz-adv-x="600" d="M27 0 L449 0 L466 84 L309 84 L360 342 C423 405 469 433 510 433 C527 433 544 428 560 418 L557 343 L642 343 L676 515 C637 534 602 542 563 542 C499 542 447 516 382 452 L398 530 L133 530 L116 446 L237 446 L165 84 L44 84 L27 0 Z " />
<glyph glyph-name="s" unicode="s" horiz-adv-x="600" d="M97 25 C177 0 243 -12 309 -12 C462 -12 568 71 568 189 C568 244 531 281 450 308 L372 333 C320 350 298 367 298 387 C298 433 333 458 396 458 C433 458 463 452 494 437 L492 361 L576 361 L606 513 C546 533 489 542 423 542 C261 542 154 464 154 348 C154 289 196 249 284 223 L350 203 C400 188 422 169 422 142 C422 98 389 73 330 73 C290 73 254 84 210 108 L212 181 L128 181 L97 25 Z " />
<glyph glyph-name="t" unicode="t" horiz-adv-x="600" d="M123 434 L255 434 L208 198 C202 168 197 127 197 106 C197 33 254 -12 345 -12 C400 -12 457 2 537 33 L557 132 C488 103 441 90 404 90 C366 90 346 107 346 139 C346 153 349 182 353 202 L400 434 L611 434 L628 518 L417 518 L443 650 L299 650 L272 518 L140 518 L123 434 Z " />
<glyph glyph-name="u" unicode="u" horiz-adv-x="600" d="M104 446 L155 446 L99 166 C93 138 90 108 90 88 C90 21 128 -12 206 -12 C286 -12 328 7 408 78 L392 0 L582 0 L599 84 L548 84 L636 530 L435 530 L418 446 L481 446 L428 183 C370 123 329 98 290 98 C256 98 238 116 238 148 C238 162 240 177 248 215 L311 530 L121 530 L104 446 Z " />
<glyph glyph-name="v" unicode="v" horiz-adv-x="600" d="M219 0 L363 0 L632 446 L683 446 L700 530 L495 530 L478 446 L542 446 L349 127 L297 446 L366 446 L383 530 L112 530 L95 446 L144 446 L219 0 Z " />
<glyph glyph-name="w" unicode="w" horiz-adv-x="600" d="M107 0 L228 0 L361 294 L363 294 L371 0 L491 0 L647 446 L683 446 L700 530 L539 530 L523 446 L561 446 L469 182 L467 182 L460 428 L340 428 L236 197 L234 197 L248 446 L288 446 L304 530 L112 530 L95 446 L131 446 L107 0 Z " />
<glyph glyph-name="x" unicode="x" horiz-adv-x="600" d="M12 0 L240 0 L257 84 L208 84 L314 187 L371 84 L318 84 L301 0 L588 0 L605 84 L538 84 L431 275 L614 445 L660 445 L677 530 L477 530 L460 445 L496 445 L392 346 L337 445 L376 445 L392 530 L141 530 L124 445 L172 445 L274 260 L90 84 L29 84 L12 0 Z " />
<glyph glyph-name="y" unicode="y" horiz-adv-x="600" d="M249 16 L126 -109 L30 -109 L13 -193 L346 -193 L364 -109 L265 -109 L634 446 L683 446 L701 530 L482 530 L465 446 L537 446 L370 193 L308 446 L381 446 L398 530 L112 530 L96 446 L144 446 L249 16 Z " />
<glyph glyph-name="z" unicode="z" horiz-adv-x="600" d="M72 0 L528 0 L565 187 L481 187 L461 90 L258 90 L604 446 L621 530 L178 530 L142 349 L226 349 L245 446 L433 446 L91 96 L72 0 Z " />
<glyph glyph-name="braceleft" unicode="&#x7b;" horiz-adv-x="600" d="M142 355 L125 271 L166 271 C237 271 273 252 273 215 C273 200 267 179 253 146 L220 70 C202 27 193 -6 193 -33 C193 -112 259 -145 421 -145 L482 -145 L499 -60 L456 -60 C379 -60 340 -45 340 -15 C340 -5 346 16 356 39 L378 91 C396 134 406 174 406 202 C406 254 378 288 315 312 C430 359 463 407 466 535 L466 587 C466 589 466 594 467 602 C469 622 469 622 469 624 C471 638 478 654 486 662 C501 679 539 687 605 687 L648 687 L665 771 L604 771 C397 771 317 715 317 569 L317 556 L320 480 L320 470 C320 386 284 355 183 355 L142 355 Z " />
<glyph glyph-name="bar" unicode="&#x7c;" horiz-adv-x="600" d="M223 -145 L319 -145 L502 771 L406 771 L223 -145 Z " />
<glyph glyph-name="braceright" unicode="&#x7d;" horiz-adv-x="600" d="M583 271 L600 355 L560 355 C488 355 452 374 452 412 C452 427 458 446 472 480 L505 556 C523 600 532 632 532 660 C532 739 466 771 304 771 L243 771 L227 687 L269 687 C347 687 386 671 386 642 C386 631 382 617 369 587 L347 535 C329 492 319 453 319 425 C319 372 346 339 410 314 C295 268 261 218 259 92 L259 39 C259 38 259 33 258 25 C256 4 256 4 256 3 C254 -11 247 -27 239 -36 C224 -52 185 -60 120 -60 L77 -60 L60 -145 L121 -145 C328 -145 408 -89 408 57 L408 70 L405 146 L405 157 C405 241 442 271 542 271 L583 271 Z " />
<glyph glyph-name="asciitilde" unicode="&#x7e;" horiz-adv-x="600" d="M177 211 C194 279 217 310 251 310 C267 310 287 299 314 276 L344 250 C381 217 415 203 453 203 C508 203 553 229 585 278 C605 309 615 338 628 397 L544 397 C527 329 504 298 470 298 C453 298 434 309 406 332 L377 358 C339 391 306 405 268 405 C213 405 167 379 136 330 C116 299 105 270 93 211 L177 211 Z " />
<glyph glyph-name="nbspace" unicode="&#xa0;" horiz-adv-x="600" d="" />
<glyph glyph-name="exclamdown" unicode="&#xa1;" horiz-adv-x="600" d="M478 530 L334 530 L310 409 L454 409 L478 530 Z M407 325 L324 325 L218 -48 L189 -193 L334 -193 L362 -48 L407 325 Z " />
<glyph glyph-name="cent" unicode="&#xa2;" horiz-adv-x="600" d="M351 192 C307 215 289 252 289 318 C289 433 344 530 423 556 L351 192 Z M309 -18 L393 -18 L413 84 C470 87 519 93 562 102 L583 207 C535 191 487 182 432 179 L507 554 C523 551 537 546 552 537 L549 464 L634 464 L667 629 C617 638 570 645 526 648 L545 741 L461 741 L441 645 C352 633 293 609 239 560 C168 496 129 403 129 294 C129 234 142 191 170 156 C205 115 246 96 329 85 L309 -18 Z " />
<glyph glyph-name="sterling" unicode="&#xa3;" horiz-adv-x="600" d="M58 0 L540 0 L564 121 L213 121 C298 162 352 232 370 325 L373 344 L494 344 L511 428 L391 428 L418 563 C431 626 463 657 514 657 C530 657 544 654 567 646 L563 566 L647 566 L676 713 C619 732 571 741 522 741 C380 741 293 657 258 485 L246 428 L162 428 L145 344 L229 344 L221 304 C195 176 154 121 82 121 L58 0 Z " />
<glyph glyph-name="currency" unicode="&#xa4;" horiz-adv-x="600" d="M208 491 C160 433 138 379 138 318 C138 291 144 265 157 232 L41 136 L89 76 L204 172 C246 144 282 132 325 132 C371 132 414 144 463 172 L541 76 L612 136 L535 232 C584 290 606 343 606 405 C606 433 600 459 587 491 L702 587 L655 647 L540 551 C502 579 466 591 418 591 C370 591 329 579 280 551 L203 647 L132 587 L208 491 Z M399 495 C462 495 507 450 507 387 C507 305 430 229 346 229 C282 229 237 273 237 336 C237 420 314 495 399 495 L399 495 Z " />
<glyph glyph-name="yen" unicode="&#xa5;" horiz-adv-x="600" d="M127 0 L489 0 L505 84 L397 84 L413 166 L558 166 L571 232 L427 232 L446 331 L591 331 L604 397 L502 397 L707 639 L719 639 L736 723 L563 723 L546 639 L606 639 L427 417 L323 639 L383 639 L400 723 L154 723 L138 639 L149 639 L269 397 L170 397 L157 331 L302 331 L282 232 L137 232 L124 166 L269 166 L252 84 L144 84 L127 0 Z " />
<glyph glyph-name="brokenbar" unicode="&#xa6;" horiz-adv-x="600" d="M223 -145 L319 -145 L391 217 L295 217 L223 -145 Z M334 410 L430 410 L502 771 L406 771 L334 410 Z " />
<glyph glyph-name="section" unicode="&#xa7;" horiz-adv-x="600" d="M50 -125 C137 -147 199 -157 256 -157 C422 -157 542 -73 542 42 C542 86 525 118 484 152 C553 219 583 273 583 335 C583 401 551 441 460 486 L400 515 C346 541 322 563 322 584 C322 626 370 657 436 657 C465 657 495 652 529 642 L527 572 L611 572 L640 719 C567 734 511 741 458 741 C295 741 175 656 175 540 C175 496 193 467 238 439 C159 368 125 314 125 257 C125 201 163 153 240 115 L311 79 C367 51 394 26 394 1 C394 -41 343 -73 278 -73 C242 -73 209 -65 163 -45 L165 30 L81 30 L50 -125 Z M409 192 L324 234 C266 262 247 282 247 313 C247 338 263 366 300 406 L310 401 L392 360 C443 334 469 306 469 278 C469 255 454 227 420 187 L409 192 Z " />
<glyph glyph-name="dieresis" unicode="&#xa8;" horiz-adv-x="600" d="M263 627 L371 627 L393 735 L284 735 L263 627 Z M480 627 L588 627 L610 735 L501 735 L480 627 Z " />
<glyph glyph-name="copyright" unicode="&#xa9;" horiz-adv-x="600" d="M446 742 C350 742 267 692 196 591 C127 493 90 372 90 242 C90 80 166 -18 293 -18 C392 -18 477 32 548 131 C618 228 655 349 655 481 C655 647 579 742 446 742 L446 742 Z M436 681 C537 681 587 610 587 468 C587 344 552 232 485 144 C433 77 373 42 307 42 C207 42 158 113 158 255 C158 366 187 467 242 553 C297 638 363 681 436 681 L436 681 Z M460 168 L471 226 C434 208 405 201 372 201 C316 201 289 233 289 300 C289 421 351 521 426 521 C445 521 464 517 485 509 L475 464 L517 464 L536 560 L528 562 C502 569 457 575 432 575 C308 575 205 451 205 301 C205 202 258 141 345 141 C373 141 408 149 449 164 L460 168 Z " />
<glyph glyph-name="ordfeminine" unicode="&#xaa;" horiz-adv-x="600" d="M453 350 L617 350 L631 422 L565 422 L602 604 C605 622 608 645 608 657 C608 713 547 742 428 742 C363 742 308 733 240 711 L222 619 L306 619 L314 658 C354 666 375 669 399 669 C457 669 489 653 489 624 L488 607 L484 592 L422 592 C255 592 167 540 167 440 C167 380 206 350 284 350 C331 350 376 364 447 402 L453 350 Z M461 475 C407 447 370 435 334 435 C304 435 290 445 290 465 C290 501 332 520 413 520 L470 520 L461 475 Z " />
<glyph glyph-name="guillemotleft" unicode="&#xab;" horiz-adv-x="600" d="M587 118 L500 265 L646 412 L590 482 L330 265 L503 48 L587 118 Z M346 118 L259 265 L405 412 L349 482 L89 265 L262 48 L346 118 Z " />
<glyph glyph-name="logicalnot" unicode="&#xac;" horiz-adv-x="600" d="M93 253 L500 253 L468 96 L565 96 L616 350 L112 350 L93 253 Z " />
<glyph glyph-name="sfthyphen" unicode="&#xad;" horiz-adv-x="600" d="M123 253 L578 253 L598 350 L142 350 L123 253 Z " />
<glyph glyph-name="registered" unicode="&#xae;" horiz-adv-x="600" d="M446 742 C350 742 267 692 196 591 C127 493 90 372 90 242 C90 80 166 -18 293 -18 C392 -18 477 32 548 131 C618 228 655 349 655 481 C655 647 579 742 446 742 L446 742 Z M436 681 C537 681 587 610 587 468 C587 344 552 232 485 144 C433 77 373 42 307 42 C207 42 158 113 158 255 C158 366 187 467 242 553 C297 638 363 681 436 681 L436 681 Z M209 155 L311 155 L321 203 L303 203 L329 334 L354 334 L408 155 L478 155 L487 203 L474 203 L427 360 C486 394 512 433 512 488 C512 542 483 568 424 568 L292 568 L282 520 L294 520 L231 203 L218 203 L209 155 Z M337 370 L366 520 L384 520 C419 520 435 506 435 476 C435 416 394 370 340 370 L337 370 Z " />
<glyph glyph-name="macron" unicode="&#xaf;" horiz-adv-x="600" d="M245 627 L606 627 L623 711 L262 711 L245 627 Z " />
<glyph glyph-name="degree" unicode="&#xb0;" horiz-adv-x="600" d="M460 784 C367 784 283 701 283 611 C283 543 332 494 401 494 C493 494 578 577 578 667 C578 735 529 784 460 784 L460 784 Z M446 712 C484 712 504 692 504 654 C504 607 462 566 415 566 C377 566 357 586 357 624 C357 671 399 712 446 712 L446 712 Z " />
<glyph glyph-name="plusminus" unicode="&#xb1;" horiz-adv-x="600" d="M59 0 L541 0 L560 96 L78 96 L59 0 Z M281 145 L377 145 L412 320 L605 320 L624 416 L431 416 L466 590 L370 590 L335 416 L142 416 L123 320 L316 320 L281 145 Z " />
<glyph glyph-name="twosuperior" unicode="&#xb2;" horiz-adv-x="600" d="M186 356 L556 356 L573 440 L332 440 C353 462 390 483 436 500 L454 506 L506 526 C569 550 603 590 603 639 C603 708 545 742 429 742 C370 742 318 733 259 713 L239 614 L311 614 L326 656 C352 665 377 669 406 669 C460 669 487 655 487 627 C487 597 475 588 401 558 L385 552 C296 517 237 481 203 440 L186 356 Z " />
<glyph glyph-name="threesuperior" unicode="&#xb3;" horiz-adv-x="600" d="M193 367 C248 356 302 350 358 350 C490 350 574 396 574 469 C574 508 550 532 491 549 C575 573 611 605 611 655 C611 713 558 742 452 742 C383 742 325 733 261 713 L243 625 L316 625 L328 656 C368 666 394 670 420 670 C468 670 494 658 494 637 C494 603 440 586 335 586 L287 586 L272 514 L319 514 C427 514 460 504 460 469 C460 438 427 422 360 422 C334 422 311 424 284 429 L282 452 L210 452 L193 367 Z " />
<glyph glyph-name="acute" unicode="&#xb4;" horiz-adv-x="600" d="M305 626 L389 626 L577 783 L438 783 L305 626 Z " />
<glyph glyph-name="mu" unicode="&#xb5;" horiz-adv-x="600" d="M108 446 L158 446 L31 -193 L170 -193 L210 12 C227 0 245 -6 265 -6 C307 -6 349 18 411 78 L395 0 L585 0 L602 84 L551 84 L640 530 L450 530 L433 446 L485 446 L432 183 C374 123 333 98 294 98 C260 98 242 116 242 148 C242 161 245 185 251 215 L314 530 L124 530 L108 446 Z " />
<glyph glyph-name="paragraph" unicode="&#xb6;" horiz-adv-x="600" d="M213 -145 L297 -145 L456 651 L540 651 L381 -145 L466 -145 L639 723 L473 723 C462 723 453 723 446 724 L412 727 C399 728 378 729 366 729 C237 729 154 648 154 524 C154 436 201 388 314 361 L213 -145 Z " />
<glyph glyph-name="periodcentered" unicode="&#xb7;" horiz-adv-x="600" d="M268 229 L425 229 L456 385 L299 385 L268 229 Z " />
<glyph glyph-name="cedilla" unicode="&#xb8;" horiz-adv-x="600" d="M264 0 L187 -89 L197 -89 C255 -89 284 -101 284 -125 C284 -147 261 -159 219 -159 C204 -159 186 -157 163 -152 L154 -196 C188 -206 216 -211 243 -211 C317 -211 381 -170 381 -121 C381 -84 351 -64 282 -55 L330 0 L264 0 Z " />
<glyph glyph-name="onesuperior" unicode="&#xb9;" horiz-adv-x="600" d="M228 356 L568 356 L583 428 L470 428 L533 741 L295 693 L281 621 L399 644 L355 428 L243 428 L228 356 Z " />
<glyph glyph-name="ordmasculine" unicode="&#xba;" horiz-adv-x="600" d="M455 741 C300 741 186 641 186 505 C186 403 248 350 369 350 C527 350 640 447 640 583 C640 688 577 741 455 741 L455 741 Z M438 669 C487 669 520 633 520 581 C520 495 460 422 389 422 C340 422 307 458 307 510 C307 597 366 669 438 669 L438 669 Z " />
<glyph glyph-name="guillemotright" unicode="&#xbb;" horiz-adv-x="600" d="M60 118 L116 48 L376 265 L203 482 L119 412 L206 265 L60 118 Z M301 118 L357 48 L618 265 L444 482 L360 412 L447 265 L301 118 Z " />
<glyph glyph-name="onequarter" unicode="&#xbc;" horiz-adv-x="600" d="M34 -18 L103 -18 L694 741 L624 741 L34 -18 Z M441 0 L532 0 L549 87 L597 87 L611 153 L562 153 L609 386 L518 386 L306 153 L293 87 L459 87 L441 0 Z M374 153 L499 291 L472 153 L374 153 Z M157 355 L253 355 L330 741 L153 699 L139 627 L215 645 L157 355 Z " />
<glyph glyph-name="onehalf" unicode="&#xbd;" horiz-adv-x="600" d="M344 0 L585 0 L600 78 L444 78 C457 100 478 121 507 139 L522 148 C524 150 529 152 533 154 C553 165 566 172 572 176 C618 206 641 246 641 294 C641 354 603 386 533 386 C501 386 470 378 417 357 L398 265 L456 265 L469 307 C485 317 495 320 506 320 C530 320 543 307 543 283 C543 253 522 224 480 197 L466 187 C421 158 387 124 361 84 L344 0 Z M153 355 L249 355 L327 741 L149 699 L135 627 L211 645 L153 355 Z M15 -18 L84 -18 L675 741 L605 741 L15 -18 Z " />
<glyph glyph-name="threequarters" unicode="&#xbe;" horiz-adv-x="600" d="M89 367 C133 356 168 350 197 350 C284 350 350 403 350 473 C350 511 331 533 287 550 C357 575 388 610 388 662 C388 715 352 742 281 742 C245 742 208 734 158 715 L143 640 L200 640 L204 662 C227 672 243 676 258 676 C283 676 295 666 295 645 C295 605 262 583 202 583 L179 583 L166 517 L187 517 C238 517 261 504 261 476 C261 438 239 416 200 416 C187 416 175 419 157 425 L161 446 L105 446 L89 367 Z M41 -18 L110 -18 L701 741 L631 741 L41 -18 Z M442 0 L533 0 L550 87 L598 87 L612 153 L563 153 L610 386 L520 386 L308 153 L294 87 L460 87 L442 0 Z M375 153 L500 291 L473 153 L375 153 Z " />
<glyph glyph-name="questiondown" unicode="&#xbf;" horiz-adv-x="600" d="M522 530 L377 530 L353 409 L498 409 L522 530 Z M481 325 L336 325 L328 286 C311 206 290 176 209 118 L175 93 L135 66 C75 27 44 -23 44 -78 C44 -165 124 -211 277 -211 C339 -211 398 -202 501 -179 L533 -18 L448 -18 L419 -104 C377 -121 346 -127 312 -127 C242 -127 204 -101 204 -53 C204 -14 233 27 293 73 L327 100 C432 182 458 218 477 306 L481 325 Z " />
<glyph glyph-name="Agrave" unicode="&#xc0;" horiz-adv-x="600" d="M12 0 L196 0 L213 85 L146 85 L202 199 L421 199 L431 85 L365 85 L348 0 L588 0 L605 85 L575 85 L519 723 L370 723 L59 85 L29 85 L12 0 Z M243 283 L387 581 L388 581 L414 283 L243 283 Z M456 783 L541 783 L470 940 L331 940 L456 783 Z " />
<glyph glyph-name="Aacute" unicode="&#xc1;" horiz-adv-x="600" d="M12 0 L196 0 L213 85 L146 85 L202 199 L421 199 L431 85 L365 85 L348 0 L588 0 L605 85 L575 85 L519 723 L370 723 L59 85 L29 85 L12 0 Z M243 283 L387 581 L388 581 L414 283 L243 283 Z M372 783 L456 783 L644 940 L505 940 L372 783 Z " />
<glyph glyph-name="Acircumflex" unicode="&#xc2;" horiz-adv-x="600" d="M12 0 L196 0 L213 85 L146 85 L202 199 L421 199 L431 85 L365 85 L348 0 L588 0 L605 85 L575 85 L519 723 L370 723 L59 85 L29 85 L12 0 Z M243 283 L387 581 L388 581 L414 283 L243 283 Z M285 783 L364 783 L474 875 L475 875 L550 783 L628 783 L557 940 L418 940 L285 783 Z " />
<glyph glyph-name="Atilde" unicode="&#xc3;" horiz-adv-x="600" d="M12 0 L196 0 L213 85 L146 85 L202 199 L421 199 L431 85 L365 85 L348 0 L588 0 L605 85 L575 85 L519 723 L370 723 L59 85 L29 85 L12 0 Z M243 283 L387 581 L388 581 L414 283 L243 283 Z M357 783 C367 829 381 850 402 850 C412 850 424 844 437 833 C443 828 446 825 448 824 C450 822 450 822 456 817 L472 804 C489 790 509 783 530 783 C595 783 634 830 659 940 L587 940 C578 894 564 873 542 873 C532 873 517 882 501 896 C499 897 499 898 498 899 L495 901 C494 902 491 904 488 906 L472 919 C454 933 435 940 414 940 C350 940 310 892 285 783 L357 783 Z " />
<glyph glyph-name="Adieresis" unicode="&#xc4;" horiz-adv-x="600" d="M12 0 L196 0 L213 85 L146 85 L202 199 L421 199 L431 85 L365 85 L348 0 L588 0 L605 85 L575 85 L519 723 L370 723 L59 85 L29 85 L12 0 Z M243 283 L387 581 L388 581 L414 283 L243 283 Z M294 784 L403 784 L424 892 L316 892 L294 784 Z M511 784 L619 784 L641 892 L533 892 L511 784 Z " />
<glyph glyph-name="Aring" unicode="&#xc5;" horiz-adv-x="600" d="M12 0 L196 0 L213 85 L146 85 L202 199 L421 199 L431 85 L365 85 L348 0 L588 0 L605 85 L575 85 L519 723 L370 723 L59 85 L29 85 L12 0 Z M243 283 L387 581 L388 581 L414 283 L243 283 Z M491 953 C417 953 351 888 351 816 C351 761 389 723 444 723 C518 723 584 788 584 861 C584 915 545 953 491 953 L491 953 Z M480 899 C512 899 529 882 529 851 C529 812 494 778 454 778 C423 778 406 795 406 826 C406 865 441 899 480 899 L480 899 Z " />
<glyph glyph-name="AE" unicode="&#xc6;" horiz-adv-x="600" d="M6 0 L174 0 L192 84 L149 84 L205 199 L314 199 L275 0 L582 0 L615 168 L525 168 L509 90 L425 90 L471 320 L579 320 L596 404 L487 404 L535 639 L607 639 L592 566 L683 566 L714 723 L372 723 L53 84 L23 84 L6 0 Z M331 283 L245 283 L389 580 L390 580 L331 283 Z " />
<glyph glyph-name="Ccedilla" unicode="&#xc7;" horiz-adv-x="600" d="M607 127 C528 92 474 77 422 77 C315 77 248 149 248 265 C248 478 367 657 508 657 C543 657 569 648 595 626 L582 500 L667 500 L708 709 C638 731 583 741 522 741 C398 741 298 696 217 602 C134 506 90 389 90 264 C90 84 194 -18 377 -18 C447 -18 512 -6 586 22 L607 127 Z M326 0 L249 -89 L259 -89 C317 -89 346 -101 346 -125 C346 -147 323 -159 281 -159 C266 -159 248 -157 225 -152 L216 -196 C250 -206 278 -211 305 -211 C379 -211 443 -170 443 -121 C443 -84 413 -64 344 -55 L392 0 L326 0 Z " />
<glyph glyph-name="Egrave" unicode="&#xc8;" horiz-adv-x="600" d="M18 0 L572 0 L612 199 L522 199 L500 90 L253 90 L299 320 L413 320 L401 259 L485 259 L526 464 L442 464 L430 404 L316 404 L363 639 L580 639 L560 542 L650 542 L686 723 L163 723 L146 639 L218 639 L107 84 L35 84 L18 0 Z M440 783 L524 783 L454 940 L314 940 L440 783 Z " />
<glyph glyph-name="Eacute" unicode="&#xc9;" horiz-adv-x="600" d="M18 0 L572 0 L612 199 L522 199 L500 90 L253 90 L299 320 L413 320 L401 259 L485 259 L526 464 L442 464 L430 404 L316 404 L363 639 L580 639 L560 542 L650 542 L686 723 L163 723 L146 639 L218 639 L107 84 L35 84 L18 0 Z M404 783 L488 783 L676 940 L537 940 L404 783 Z " />
<glyph glyph-name="Ecircumflex" unicode="&#xca;" horiz-adv-x="600" d="M18 0 L572 0 L612 199 L522 199 L500 90 L253 90 L299 320 L413 320 L401 259 L485 259 L526 464 L442 464 L430 404 L316 404 L363 639 L580 639 L560 542 L650 542 L686 723 L163 723 L146 639 L218 639 L107 84 L35 84 L18 0 Z M301 783 L379 783 L491 875 L492 875 L566 783 L644 783 L574 940 L434 940 L301 783 Z " />
<glyph glyph-name="Edieresis" unicode="&#xcb;" horiz-adv-x="600" d="M18 0 L572 0 L612 199 L522 199 L500 90 L253 90 L299 320 L413 320 L401 259 L485 259 L526 464 L442 464 L430 404 L316 404 L363 639 L580 639 L560 542 L650 542 L686 723 L163 723 L146 639 L218 639 L107 84 L35 84 L18 0 Z M283 784 L392 784 L413 892 L305 892 L283 784 Z M500 784 L608 784 L630 892 L521 892 L500 784 Z " />
<glyph glyph-name="Igrave" unicode="&#xcc;" horiz-adv-x="600" d="M60 0 L539 0 L557 84 L389 84 L500 639 L667 639 L684 723 L205 723 L188 639 L355 639 L245 84 L77 84 L60 0 Z M456 783 L541 783 L470 940 L331 940 L456 783 Z " />
<glyph glyph-name="Iacute" unicode="&#xcd;" horiz-adv-x="600" d="M60 0 L539 0 L557 84 L389 84 L500 639 L667 639 L684 723 L205 723 L188 639 L355 639 L245 84 L77 84 L60 0 Z M372 783 L456 783 L644 940 L505 940 L372 783 Z " />
<glyph glyph-name="Icircumflex" unicode="&#xce;" horiz-adv-x="600" d="M60 0 L539 0 L557 84 L389 84 L500 639 L667 639 L684 723 L205 723 L188 639 L355 639 L245 84 L77 84 L60 0 Z M285 783 L363 783 L475 875 L476 875 L549 783 L628 783 L557 940 L418 940 L285 783 Z " />
<glyph glyph-name="Idieresis" unicode="&#xcf;" horiz-adv-x="600" d="M60 0 L539 0 L557 84 L389 84 L500 639 L667 639 L684 723 L205 723 L188 639 L355 639 L245 84 L77 84 L60 0 Z M294 784 L402 784 L424 892 L315 892 L294 784 Z M511 784 L619 784 L641 892 L532 892 L511 784 Z " />
<glyph glyph-name="Eth" unicode="&#xd0;" horiz-adv-x="600" d="M18 0 L216 0 C365 0 478 54 560 166 C626 254 661 360 661 469 C661 639 568 723 377 723 L163 723 L146 639 L194 639 L148 411 L82 411 L65 327 L132 327 L83 85 L35 85 L18 0 Z M228 85 L276 327 L372 327 L390 411 L293 411 L339 639 L360 638 C461 636 506 589 506 487 C506 412 486 315 455 244 C411 141 339 85 250 85 L228 85 Z " />
<glyph glyph-name="Ntilde" unicode="&#xd1;" horiz-adv-x="600" d="M18 0 L235 0 L252 84 L180 84 L260 485 L450 0 L546 0 L674 639 L722 639 L739 723 L522 723 L505 639 L577 639 L497 235 L308 723 L163 723 L146 639 L194 639 L83 84 L35 84 L18 0 Z M355 783 C365 829 379 850 401 850 C412 850 422 844 444 826 C445 825 448 822 455 817 L471 804 C487 790 508 783 529 783 C594 783 633 831 658 940 L585 940 C576 894 562 873 540 873 C530 873 514 882 497 897 C496 898 493 901 487 906 L470 919 C451 934 434 940 412 940 C348 940 308 892 283 783 L355 783 Z " />
<glyph glyph-name="Ograve" unicode="&#xd2;" horiz-adv-x="600" d="M449 741 C318 741 213 667 149 528 C108 438 82 321 82 222 C82 62 152 -18 291 -18 C427 -18 532 55 596 194 C638 285 664 402 664 501 C664 661 592 741 449 741 L449 741 Z M431 657 C489 657 519 610 519 521 C519 463 495 328 470 247 C434 127 383 66 319 66 C258 66 226 113 226 202 C226 250 242 348 264 437 C300 583 356 657 431 657 L431 657 Z M457 783 L541 783 L471 940 L332 940 L457 783 Z " />
<glyph glyph-name="Oacute" unicode="&#xd3;" horiz-adv-x="600" d="M449 741 C318 741 213 667 149 528 C108 438 82 321 82 222 C82 62 152 -18 291 -18 C427 -18 532 55 596 194 C638 285 664 402 664 501 C664 661 592 741 449 741 L449 741 Z M431 657 C489 657 519 610 519 521 C519 463 495 328 470 247 C434 127 383 66 319 66 C258 66 226 113 226 202 C226 250 242 348 264 437 C300 583 356 657 431 657 L431 657 Z M373 783 L457 783 L645 940 L506 940 L373 783 Z " />
<glyph glyph-name="Ocircumflex" unicode="&#xd4;" horiz-adv-x="600" d="M449 741 C318 741 213 667 149 528 C108 438 82 321 82 222 C82 62 152 -18 291 -18 C427 -18 532 55 596 194 C638 285 664 402 664 501 C664 661 592 741 449 741 L449 741 Z M431 657 C489 657 519 610 519 521 C519 463 495 328 470 247 C434 127 383 66 319 66 C258 66 226 113 226 202 C226 250 242 348 264 437 C300 583 356 657 431 657 L431 657 Z M286 783 L364 783 L475 875 L476 875 L550 783 L628 783 L558 940 L419 940 L286 783 Z " />
<glyph glyph-name="Otilde" unicode="&#xd5;" horiz-adv-x="600" d="M449 741 C318 741 213 667 149 528 C108 438 82 321 82 222 C82 62 152 -18 291 -18 C427 -18 532 55 596 194 C638 285 664 402 664 501 C664 661 592 741 449 741 L449 741 Z M431 657 C489 657 519 610 519 521 C519 463 495 328 470 247 C434 127 383 66 319 66 C258 66 226 113 226 202 C226 250 242 348 264 437 C300 583 356 657 431 657 L431 657 Z M358 783 C368 829 382 850 403 850 C413 850 430 840 445 827 C447 824 448 824 457 817 L473 804 C490 790 510 783 531 783 C596 783 635 831 660 940 L588 940 C578 894 564 873 542 873 C532 873 518 881 501 896 L498 899 L495 901 C494 902 492 904 489 906 L473 919 C454 933 436 940 414 940 C350 940 311 892 285 783 L358 783 Z " />
<glyph glyph-name="Odieresis" unicode="&#xd6;" horiz-adv-x="600" d="M449 741 C318 741 213 667 149 528 C108 438 82 321 82 222 C82 62 152 -18 291 -18 C427 -18 532 55 596 194 C638 285 664 402 664 501 C664 661 592 741 449 741 L449 741 Z M431 657 C489 657 519 610 519 521 C519 463 495 328 470 247 C434 127 383 66 319 66 C258 66 226 113 226 202 C226 250 242 348 264 437 C300 583 356 657 431 657 L431 657 Z M294 784 L403 784 L424 892 L316 892 L294 784 Z M511 784 L620 784 L642 892 L533 892 L511 784 Z " />
<glyph glyph-name="multiply" unicode="&#xd7;" horiz-adv-x="600" d="M237 536 L155 467 L291 297 L87 127 L141 59 L346 229 L482 59 L564 127 L428 297 L632 467 L578 536 L373 365 L237 536 Z " />
<glyph glyph-name="Oslash" unicode="&#xd8;" horiz-adv-x="600" d="M227 235 L227 239 C227 268 240 350 253 407 C264 455 280 501 300 541 C337 618 381 657 430 657 C471 657 496 635 511 584 L227 235 Z M517 487 L516 484 C500 358 500 358 489 314 C477 262 462 219 443 181 C406 104 362 66 313 66 C272 66 247 88 232 139 L517 487 Z M20 -18 L104 -18 L146 33 C188 -2 234 -18 297 -18 C427 -18 532 57 595 195 C637 285 663 402 663 500 C663 554 655 591 636 635 L724 741 L639 741 L598 690 C556 726 511 741 448 741 C317 741 212 666 148 528 C107 438 81 322 81 223 C81 170 89 130 107 89 L20 -18 Z " />
<glyph glyph-name="Ugrave" unicode="&#xd9;" horiz-adv-x="600" d="M138 639 L187 639 L107 242 C100 204 95 166 95 140 C95 43 175 -18 304 -18 C396 -18 470 12 521 71 C555 111 574 160 595 265 L670 639 L718 639 L735 723 L542 723 L525 639 L574 639 L495 248 C468 111 432 67 348 67 C285 67 242 104 242 159 C242 181 248 226 259 277 L331 639 L379 639 L396 723 L155 723 L138 639 Z M482 783 L566 783 L496 940 L357 940 L482 783 Z " />
<glyph glyph-name="Uacute" unicode="&#xda;" horiz-adv-x="600" d="M138 639 L187 639 L107 242 C100 204 95 166 95 140 C95 43 175 -18 304 -18 C396 -18 470 12 521 71 C555 111 574 160 595 265 L670 639 L718 639 L735 723 L542 723 L525 639 L574 639 L495 248 C468 111 432 67 348 67 C285 67 242 104 242 159 C242 181 248 226 259 277 L331 639 L379 639 L396 723 L155 723 L138 639 Z M398 783 L482 783 L670 940 L531 940 L398 783 Z " />
<glyph glyph-name="Ucircumflex" unicode="&#xdb;" horiz-adv-x="600" d="M138 639 L187 639 L107 242 C100 204 95 166 95 140 C95 43 175 -18 304 -18 C396 -18 470 12 521 71 C555 111 574 160 595 265 L670 639 L718 639 L735 723 L542 723 L525 639 L574 639 L495 248 C468 111 432 67 348 67 C285 67 242 104 242 159 C242 181 248 226 259 277 L331 639 L379 639 L396 723 L155 723 L138 639 Z M310 783 L388 783 L499 875 L500 875 L574 783 L653 783 L582 940 L443 940 L310 783 Z " />
<glyph glyph-name="Udieresis" unicode="&#xdc;" horiz-adv-x="600" d="M138 639 L187 639 L107 242 C100 204 95 166 95 140 C95 43 175 -18 304 -18 C396 -18 470 12 521 71 C555 111 574 160 595 265 L670 639 L718 639 L735 723 L542 723 L525 639 L574 639 L495 248 C468 111 432 67 348 67 C285 67 242 104 242 159 C242 181 248 226 259 277 L331 639 L379 639 L396 723 L155 723 L138 639 Z M319 784 L427 784 L449 892 L340 892 L319 784 Z M535 784 L644 784 L666 892 L557 892 L535 784 Z " />
<glyph glyph-name="Yacute" unicode="&#xdd;" horiz-adv-x="600" d="M116 0 L501 0 L518 84 L398 84 L445 317 L679 639 L720 639 L738 723 L545 723 L528 639 L578 639 L429 432 L352 639 L399 639 L416 723 L151 723 L134 639 L179 639 L300 317 L253 84 L133 84 L116 0 Z M404 783 L488 783 L676 940 L536 940 L404 783 Z " />
<glyph glyph-name="Thorn" unicode="&#xde;" horiz-adv-x="600" d="M18 0 L355 0 L372 84 L276 84 L288 144 L318 144 C521 144 669 271 669 445 C669 548 605 590 446 590 L377 590 L387 639 L483 639 L500 723 L163 723 L146 639 L242 639 L131 84 L35 84 L18 0 Z M305 229 L360 506 L391 506 C481 506 511 484 511 419 C511 299 441 229 323 229 L305 229 Z " />
<glyph glyph-name="germandbls" unicode="&#xdf;" horiz-adv-x="600" d="M21 0 L256 0 L273 85 L219 85 L311 543 C333 656 364 699 424 699 C458 699 476 682 476 648 C476 620 459 582 426 540 L400 506 C361 455 342 416 342 387 C342 359 359 326 395 285 L454 219 L469 202 C484 186 492 167 492 149 C492 110 461 72 431 72 C426 72 420 73 413 75 L415 139 L337 139 L310 0 C342 -8 370 -12 401 -12 C528 -12 626 75 626 189 C626 238 603 285 552 340 L504 392 L487 413 C477 424 471 437 471 443 C471 458 487 483 514 509 L538 533 C583 577 607 627 607 676 C607 748 557 784 456 784 C294 784 204 702 167 521 L80 85 L38 85 L21 0 Z " />
<glyph glyph-name="agrave" unicode="&#xe0;" horiz-adv-x="600" d="M156 377 L240 377 L262 433 C300 451 336 459 379 459 C432 459 460 443 460 413 C460 406 458 392 456 380 L444 325 L401 325 C281 325 197 301 140 252 C94 212 69 162 69 108 C69 29 117 -12 208 -12 C274 -12 328 7 390 51 L399 0 L578 0 L595 84 L541 84 L604 397 C605 405 607 423 607 433 C607 512 555 542 418 542 C344 542 275 530 181 501 L156 377 Z M408 142 C361 101 321 83 277 83 C239 83 220 100 220 133 C220 202 299 253 408 253 L430 253 L408 142 Z M436 626 L520 626 L450 783 L311 783 L436 626 Z " />
<glyph glyph-name="aacute" unicode="&#xe1;" horiz-adv-x="600" d="M156 377 L240 377 L262 433 C300 451 336 459 379 459 C432 459 460 443 460 413 C460 406 458 392 456 380 L444 325 L401 325 C281 325 197 301 140 252 C94 212 69 162 69 108 C69 29 117 -12 208 -12 C274 -12 328 7 390 51 L399 0 L578 0 L595 84 L541 84 L604 397 C605 405 607 423 607 433 C607 512 555 542 418 542 C344 542 275 530 181 501 L156 377 Z M408 142 C361 101 321 83 277 83 C239 83 220 100 220 133 C220 202 299 253 408 253 L430 253 L408 142 Z M352 626 L436 626 L624 783 L485 783 L352 626 Z " />
<glyph glyph-name="acircumflex" unicode="&#xe2;" horiz-adv-x="600" d="M156 377 L240 377 L262 433 C300 451 336 459 379 459 C432 459 460 443 460 413 C460 406 458 392 456 380 L444 325 L401 325 C281 325 197 301 140 252 C94 212 69 162 69 108 C69 29 117 -12 208 -12 C274 -12 328 7 390 51 L399 0 L578 0 L595 84 L541 84 L604 397 C605 405 607 423 607 433 C607 512 555 542 418 542 C344 542 275 530 181 501 L156 377 Z M408 142 C361 101 321 83 277 83 C239 83 220 100 220 133 C220 202 299 253 408 253 L430 253 L408 142 Z M265 626 L343 626 L454 719 L455 719 L529 626 L608 626 L537 783 L398 783 L265 626 Z " />
<glyph glyph-name="atilde" unicode="&#xe3;" horiz-adv-x="600" d="M156 377 L240 377 L262 433 C300 451 336 459 379 459 C432 459 460 443 460 413 C460 406 458 392 456 380 L444 325 L401 325 C281 325 197 301 140 252 C94 212 69 162 69 108 C69 29 117 -12 208 -12 C274 -12 328 7 390 51 L399 0 L578 0 L595 84 L541 84 L604 397 C605 405 607 423 607 433 C607 512 555 542 418 542 C344 542 275 530 181 501 L156 377 Z M408 142 C361 101 321 83 277 83 C239 83 220 100 220 133 C220 202 299 253 408 253 L430 253 L408 142 Z M324 626 C334 672 348 693 369 693 C378 693 391 687 404 676 L412 669 C413 668 413 668 415 667 L423 660 L440 647 C458 633 476 626 498 626 C562 626 601 673 627 783 L554 783 C544 738 530 717 509 717 C499 717 483 726 468 740 C467 741 462 744 455 750 L439 762 C421 776 402 783 381 783 C316 783 277 736 252 626 L324 626 Z " />
<glyph glyph-name="adieresis" unicode="&#xe4;" horiz-adv-x="600" d="M156 377 L240 377 L262 433 C300 451 336 459 379 459 C432 459 460 443 460 413 C460 406 458 392 456 380 L444 325 L401 325 C281 325 197 301 140 252 C94 212 69 162 69 108 C69 29 117 -12 208 -12 C274 -12 328 7 390 51 L399 0 L578 0 L595 84 L541 84 L604 397 C605 405 607 423 607 433 C607 512 555 542 418 542 C344 542 275 530 181 501 L156 377 Z M408 142 C361 101 321 83 277 83 C239 83 220 100 220 133 C220 202 299 253 408 253 L430 253 L408 142 Z M270 627 L378 627 L400 735 L291 735 L270 627 Z M487 627 L595 627 L617 735 L508 735 L487 627 Z " />
<glyph glyph-name="aring" unicode="&#xe5;" horiz-adv-x="600" d="M156 377 L240 377 L262 433 C300 451 336 459 379 459 C432 459 460 443 460 413 C460 406 458 392 456 380 L444 325 L401 325 C281 325 197 301 140 252 C94 212 69 162 69 108 C69 29 117 -12 208 -12 C274 -12 328 7 390 51 L399 0 L578 0 L595 84 L541 84 L604 397 C605 405 607 423 607 433 C607 512 555 542 418 542 C344 542 275 530 181 501 L156 377 Z M408 142 C361 101 321 83 277 83 C239 83 220 100 220 133 C220 202 299 253 408 253 L430 253 L408 142 Z M483 856 C409 856 343 791 343 718 C343 664 381 626 436 626 C510 626 576 691 576 764 C576 818 537 856 483 856 L483 856 Z M472 802 C504 802 521 785 521 754 C521 715 486 680 446 680 C415 680 398 697 398 728 C398 768 432 802 472 802 L472 802 Z " />
<glyph glyph-name="ae" unicode="&#xe6;" horiz-adv-x="600" d="M600 116 C553 98 514 90 477 90 C421 90 394 119 394 177 C394 191 396 208 400 229 L623 229 L631 271 C643 332 647 365 647 401 C647 493 607 542 531 542 C489 542 455 526 415 486 C392 526 364 542 319 542 C275 542 226 530 164 506 L141 392 L212 392 L231 439 C252 451 268 456 282 456 C305 456 317 443 317 421 C317 412 316 405 310 378 L297 313 L255 313 C135 313 51 230 51 111 C51 38 95 -12 159 -12 C208 -12 247 14 288 74 C318 14 359 -12 424 -12 C466 -12 516 -2 580 18 L600 116 Z M263 142 C242 117 224 105 206 105 C186 105 175 118 175 143 C175 194 213 229 266 229 L280 229 L263 142 Z M418 313 L423 332 C445 416 473 459 506 459 C524 459 534 445 534 417 C534 397 530 364 522 325 L519 313 L418 313 Z " />
<glyph glyph-name="ccedilla" unicode="&#xe7;" horiz-adv-x="600" d="M607 130 C514 97 457 84 405 84 C294 84 238 130 238 222 C238 364 326 459 457 459 C498 459 531 452 566 436 L558 337 L642 337 L678 515 C611 534 549 542 481 542 C247 542 82 403 82 206 C82 61 175 -12 359 -12 C433 -12 499 -1 586 25 L607 130 Z M304 0 L227 -89 L237 -89 C295 -89 324 -101 324 -125 C324 -147 301 -159 259 -159 C244 -159 226 -157 203 -152 L194 -196 C228 -206 256 -211 283 -211 C357 -211 421 -170 421 -121 C421 -84 391 -64 322 -55 L370 0 L304 0 Z " />
<glyph glyph-name="egrave" unicode="&#xe8;" horiz-adv-x="600" d="M601 124 C509 95 448 83 390 83 C287 83 233 127 233 210 C233 216 234 225 235 235 L619 235 L624 263 C632 301 634 322 634 349 C634 472 559 542 428 542 C235 542 82 390 82 198 C82 63 176 -12 345 -12 C421 -12 497 0 582 25 L601 124 Z M254 319 C280 414 327 456 404 456 C464 456 494 423 494 357 C494 345 493 336 489 319 L254 319 Z M456 626 L540 626 L470 783 L331 783 L456 626 Z " />
<glyph glyph-name="eacute" unicode="&#xe9;" horiz-adv-x="600" d="M601 124 C509 95 448 83 390 83 C287 83 233 127 233 210 C233 216 234 225 235 235 L619 235 L624 263 C632 301 634 322 634 349 C634 472 559 542 428 542 C235 542 82 390 82 198 C82 63 176 -12 345 -12 C421 -12 497 0 582 25 L601 124 Z M254 319 C280 414 327 456 404 456 C464 456 494 423 494 357 C494 345 493 336 489 319 L254 319 Z M372 626 L456 626 L644 783 L505 783 L372 626 Z " />
<glyph glyph-name="ecircumflex" unicode="&#xea;" horiz-adv-x="600" d="M601 124 C509 95 448 83 390 83 C287 83 233 127 233 210 C233 216 234 225 235 235 L619 235 L624 263 C632 301 634 322 634 349 C634 472 559 542 428 542 C235 542 82 390 82 198 C82 63 176 -12 345 -12 C421 -12 497 0 582 25 L601 124 Z M254 319 C280 414 327 456 404 456 C464 456 494 423 494 357 C494 345 493 336 489 319 L254 319 Z M284 626 L362 626 L473 719 L474 719 L548 626 L627 626 L556 783 L417 783 L284 626 Z " />
<glyph glyph-name="edieresis" unicode="&#xeb;" horiz-adv-x="600" d="M601 124 C509 95 448 83 390 83 C287 83 233 127 233 210 C233 216 234 225 235 235 L619 235 L624 263 C632 301 634 322 634 349 C634 472 559 542 428 542 C235 542 82 390 82 198 C82 63 176 -12 345 -12 C421 -12 497 0 582 25 L601 124 Z M254 319 C280 414 327 456 404 456 C464 456 494 423 494 357 C494 345 493 336 489 319 L254 319 Z M293 627 L401 627 L423 735 L314 735 L293 627 Z M510 627 L618 627 L640 735 L531 735 L510 627 Z " />
<glyph glyph-name="igrave" unicode="&#xec;" horiz-adv-x="600" d="M68 0 L574 0 L591 84 L410 84 L499 530 L174 530 L157 446 L338 446 L265 84 L85 84 L68 0 Z M434 626 L518 626 L448 783 L309 783 L434 626 Z " />
<glyph glyph-name="iacute" unicode="&#xed;" horiz-adv-x="600" d="M68 0 L574 0 L591 84 L410 84 L499 530 L174 530 L157 446 L338 446 L265 84 L85 84 L68 0 Z M374 626 L458 626 L646 783 L507 783 L374 626 Z " />
<glyph glyph-name="icircumflex" unicode="&#xee;" horiz-adv-x="600" d="M68 0 L574 0 L591 84 L410 84 L499 530 L174 530 L157 446 L338 446 L265 84 L85 84 L68 0 Z M275 626 L353 626 L464 719 L465 719 L539 626 L618 626 L547 783 L408 783 L275 626 Z " />
<glyph glyph-name="idieresis" unicode="&#xef;" horiz-adv-x="600" d="M68 0 L574 0 L591 84 L410 84 L499 530 L174 530 L157 446 L338 446 L265 84 L85 84 L68 0 Z M283 627 L392 627 L414 735 L305 735 L283 627 Z M501 627 L609 627 L631 735 L522 735 L501 627 Z " />
<glyph glyph-name="eth" unicode="&#xf0;" horiz-adv-x="600" d="M238 520 L377 619 C418 592 444 557 457 515 C432 521 411 524 390 524 C224 524 82 374 82 198 C82 66 162 -12 300 -12 C395 -12 476 26 541 101 C606 177 639 269 639 379 C639 460 621 531 586 587 C559 631 532 657 478 694 L569 761 L529 826 L406 734 C341 759 271 771 191 771 L173 680 L188 680 C230 679 263 674 305 661 L199 584 L238 520 Z M396 434 C456 434 485 399 485 329 C485 194 410 78 322 78 C260 78 229 118 229 197 C229 327 304 434 396 434 L396 434 Z " />
<glyph glyph-name="ntilde" unicode="&#xf1;" horiz-adv-x="600" d="M18 0 L271 0 L288 84 L225 84 L277 347 C336 406 376 431 415 431 C449 431 467 414 467 381 C467 369 463 342 458 315 L412 84 L349 84 L332 0 L585 0 L602 84 L551 84 L606 364 C613 395 616 422 616 442 C616 509 578 542 499 542 C419 542 377 523 298 451 L314 530 L124 530 L107 446 L158 446 L86 84 L35 84 L18 0 Z M309 626 C319 672 333 693 354 693 C363 693 376 687 389 676 L397 669 C398 668 398 668 400 667 L408 660 L425 647 C443 633 461 626 483 626 C547 626 586 673 612 783 L539 783 C529 738 515 717 494 717 C484 717 468 726 453 740 C452 741 447 744 440 750 L424 762 C406 776 387 783 366 783 C301 783 262 736 237 626 L309 626 Z " />
<glyph glyph-name="ograve" unicode="&#xf2;" horiz-adv-x="600" d="M412 542 C228 542 80 390 80 203 C80 71 164 -12 298 -12 C484 -12 633 139 633 328 C633 461 550 542 412 542 L412 542 Z M396 458 C454 458 483 417 483 334 C483 192 407 72 317 72 C259 72 230 113 230 196 C230 338 306 458 396 458 L396 458 Z M429 626 L513 626 L443 783 L304 783 L429 626 Z " />
<glyph glyph-name="oacute" unicode="&#xf3;" horiz-adv-x="600" d="M412 542 C228 542 80 390 80 203 C80 71 164 -12 298 -12 C484 -12 633 139 633 328 C633 461 550 542 412 542 L412 542 Z M396 458 C454 458 483 417 483 334 C483 192 407 72 317 72 C259 72 230 113 230 196 C230 338 306 458 396 458 L396 458 Z M345 626 L429 626 L617 783 L478 783 L345 626 Z " />
<glyph glyph-name="ocircumflex" unicode="&#xf4;" horiz-adv-x="600" d="M412 542 C228 542 80 390 80 203 C80 71 164 -12 298 -12 C484 -12 633 139 633 328 C633 461 550 542 412 542 L412 542 Z M396 458 C454 458 483 417 483 334 C483 192 407 72 317 72 C259 72 230 113 230 196 C230 338 306 458 396 458 L396 458 Z M257 626 L335 626 L446 719 L447 719 L521 626 L600 626 L529 783 L390 783 L257 626 Z " />
<glyph glyph-name="otilde" unicode="&#xf5;" horiz-adv-x="600" d="M412 542 C228 542 80 390 80 203 C80 71 164 -12 298 -12 C484 -12 633 139 633 328 C633 461 550 542 412 542 L412 542 Z M396 458 C454 458 483 417 483 334 C483 192 407 72 317 72 C259 72 230 113 230 196 C230 338 306 458 396 458 L396 458 Z M329 626 C339 672 353 693 374 693 C383 693 396 687 409 676 L417 669 C418 668 418 668 420 667 L428 660 L445 647 C463 633 481 626 503 626 C567 626 606 673 632 783 L559 783 C549 738 535 717 514 717 C504 717 488 726 473 740 C472 741 467 744 460 750 L444 762 C426 776 407 783 386 783 C321 783 282 736 257 626 L329 626 Z " />
<glyph glyph-name="odieresis" unicode="&#xf6;" horiz-adv-x="600" d="M412 542 C228 542 80 390 80 203 C80 71 164 -12 298 -12 C484 -12 633 139 633 328 C633 461 550 542 412 542 L412 542 Z M396 458 C454 458 483 417 483 334 C483 192 407 72 317 72 C259 72 230 113 230 196 C230 338 306 458 396 458 L396 458 Z M266 627 L374 627 L396 735 L287 735 L266 627 Z M483 627 L591 627 L613 735 L504 735 L483 627 Z " />
<glyph glyph-name="divide" unicode="&#xf7;" horiz-adv-x="600" d="M228 0 L372 0 L401 145 L257 145 L228 0 Z M101 253 L601 253 L620 350 L120 350 L101 253 Z M320 458 L464 458 L493 603 L349 603 L320 458 Z " />
<glyph glyph-name="oslash" unicode="&#xf8;" horiz-adv-x="600" d="M28 -12 L113 -12 L155 30 C201 0 243 -12 298 -12 C482 -12 630 140 630 327 C630 381 619 420 591 461 L680 548 L595 548 L549 502 C505 530 463 542 408 542 C226 542 77 389 77 203 C77 151 87 113 113 72 L28 -12 Z M479 350 L480 334 L480 326 C480 192 402 72 314 72 C282 72 260 85 242 115 L479 350 Z M227 185 L227 197 C227 338 303 458 392 458 C421 458 441 446 462 417 L227 185 Z " />
<glyph glyph-name="ugrave" unicode="&#xf9;" horiz-adv-x="600" d="M104 446 L155 446 L99 166 C93 138 90 108 90 88 C90 21 128 -12 206 -12 C286 -12 328 7 408 78 L392 0 L582 0 L599 84 L548 84 L636 530 L435 530 L418 446 L481 446 L428 183 C370 123 329 98 290 98 C256 98 238 116 238 148 C238 162 240 177 248 215 L311 530 L121 530 L104 446 Z M423 626 L507 626 L437 783 L298 783 L423 626 Z " />
<glyph glyph-name="uacute" unicode="&#xfa;" horiz-adv-x="600" d="M104 446 L155 446 L99 166 C93 138 90 108 90 88 C90 21 128 -12 206 -12 C286 -12 328 7 408 78 L392 0 L582 0 L599 84 L548 84 L636 530 L435 530 L418 446 L481 446 L428 183 C370 123 329 98 290 98 C256 98 238 116 238 148 C238 162 240 177 248 215 L311 530 L121 530 L104 446 Z M339 626 L423 626 L611 783 L472 783 L339 626 Z " />
<glyph glyph-name="ucircumflex" unicode="&#xfb;" horiz-adv-x="600" d="M104 446 L155 446 L99 166 C93 138 90 108 90 88 C90 21 128 -12 206 -12 C286 -12 328 7 408 78 L392 0 L582 0 L599 84 L548 84 L636 530 L435 530 L418 446 L481 446 L428 183 C370 123 329 98 290 98 C256 98 238 116 238 148 C238 162 240 177 248 215 L311 530 L121 530 L104 446 Z M252 626 L330 626 L441 719 L442 719 L516 626 L595 626 L524 783 L385 783 L252 626 Z " />
<glyph glyph-name="udieresis" unicode="&#xfc;" horiz-adv-x="600" d="M104 446 L155 446 L99 166 C93 138 90 108 90 88 C90 21 128 -12 206 -12 C286 -12 328 7 408 78 L392 0 L582 0 L599 84 L548 84 L636 530 L435 530 L418 446 L481 446 L428 183 C370 123 329 98 290 98 C256 98 238 116 238 148 C238 162 240 177 248 215 L311 530 L121 530 L104 446 Z M261 627 L369 627 L391 735 L282 735 L261 627 Z M478 627 L586 627 L608 735 L499 735 L478 627 Z " />
<glyph glyph-name="yacute" unicode="&#xfd;" horiz-adv-x="600" d="M249 16 L126 -109 L30 -109 L13 -193 L346 -193 L364 -109 L265 -109 L634 446 L683 446 L701 530 L482 530 L465 446 L537 446 L370 193 L308 446 L381 446 L398 530 L112 530 L96 446 L144 446 L249 16 Z M372 626 L456 626 L644 783 L505 783 L372 626 Z " />
<glyph glyph-name="thorn" unicode="&#xfe;" horiz-adv-x="600" d="M156 686 L204 686 L45 -108 L-3 -108 L-20 -193 L233 -193 L250 -108 L189 -108 L211 0 C249 -9 278 -12 309 -12 C420 -12 503 32 562 122 C610 194 635 278 635 363 C635 481 585 542 486 542 C420 542 366 515 302 451 L365 771 L173 771 L156 686 Z M231 99 L281 347 C332 406 373 431 416 431 C465 431 488 404 488 345 C488 191 418 86 316 86 C295 86 267 90 244 96 L231 99 Z " />
<glyph glyph-name="ydieresis" unicode="&#xff;" horiz-adv-x="600" d="M249 16 L126 -109 L30 -109 L13 -193 L346 -193 L364 -109 L265 -109 L634 446 L683 446 L701 530 L482 530 L465 446 L537 446 L370 193 L308 446 L381 446 L398 530 L112 530 L96 446 L144 446 L249 16 Z M294 627 L402 627 L424 735 L315 735 L294 627 Z M511 627 L619 627 L641 735 L532 735 L511 627 Z " />
<glyph glyph-name="Amacron" unicode="&#x100;" horiz-adv-x="600" d="M12 0 L196 0 L213 85 L146 85 L202 199 L421 199 L431 85 L365 85 L348 0 L588 0 L605 85 L575 85 L519 723 L370 723 L59 85 L29 85 L12 0 Z M243 283 L387 581 L388 581 L414 283 L243 283 Z M276 784 L637 784 L654 868 L293 868 L276 784 Z " />
<glyph glyph-name="amacron" unicode="&#x101;" horiz-adv-x="600" d="M156 377 L240 377 L262 433 C300 451 336 459 379 459 C432 459 460 443 460 413 C460 406 458 392 456 380 L444 325 L401 325 C281 325 197 301 140 252 C94 212 69 162 69 108 C69 29 117 -12 208 -12 C274 -12 328 7 390 51 L399 0 L578 0 L595 84 L541 84 L604 397 C605 405 607 423 607 433 C607 512 555 542 418 542 C344 542 275 530 181 501 L156 377 Z M408 142 C361 101 321 83 277 83 C239 83 220 100 220 133 C220 202 299 253 408 253 L430 253 L408 142 Z M246 627 L607 627 L624 711 L263 711 L246 627 Z " />
<glyph glyph-name="Abreve" unicode="&#x102;" horiz-adv-x="600" d="M12 0 L196 0 L213 85 L146 85 L202 199 L421 199 L431 85 L365 85 L348 0 L588 0 L605 85 L575 85 L519 723 L370 723 L59 85 L29 85 L12 0 Z M243 283 L387 581 L388 581 L414 283 L243 283 Z M315 940 L314 913 C314 838 375 783 457 783 C552 783 627 841 660 940 L595 940 C570 889 533 867 473 867 C414 867 386 889 382 940 L315 940 Z " />
<glyph glyph-name="abreve" unicode="&#x103;" horiz-adv-x="600" d="M156 377 L240 377 L262 433 C300 451 336 459 379 459 C432 459 460 443 460 413 C460 406 458 392 456 380 L444 325 L401 325 C281 325 197 301 140 252 C94 212 69 162 69 108 C69 29 117 -12 208 -12 C274 -12 328 7 390 51 L399 0 L578 0 L595 84 L541 84 L604 397 C605 405 607 423 607 433 C607 512 555 542 418 542 C344 542 275 530 181 501 L156 377 Z M408 142 C361 101 321 83 277 83 C239 83 220 100 220 133 C220 202 299 253 408 253 L430 253 L408 142 Z M295 784 L294 757 C294 682 354 627 437 627 C532 627 607 685 641 784 L574 784 C550 733 513 711 454 711 C395 711 366 733 361 784 L295 784 Z " />
<glyph glyph-name="Aogonek" unicode="&#x104;" horiz-adv-x="600" d="M12 0 L196 0 L213 85 L146 85 L202 199 L421 199 L431 85 L365 85 L348 0 L588 0 L605 85 L575 85 L519 723 L370 723 L59 85 L29 85 L12 0 Z M243 283 L387 581 L388 581 L414 283 L243 283 Z M437 0 C347 -35 307 -71 307 -116 C307 -158 350 -181 433 -181 C463 -181 488 -177 518 -167 L526 -127 C502 -133 485 -135 470 -135 C425 -135 401 -122 401 -96 C401 -61 435 -32 514 0 L437 0 Z " />
<glyph glyph-name="aogonek" unicode="&#x105;" horiz-adv-x="600" d="M156 377 L240 377 L262 433 C300 451 336 459 379 459 C432 459 460 443 460 413 C460 406 458 392 456 380 L444 325 L401 325 C281 325 197 301 140 252 C94 212 69 162 69 108 C69 29 117 -12 208 -12 C274 -12 328 7 390 51 L399 0 L578 0 L595 84 L541 84 L604 397 C605 405 607 423 607 433 C607 512 555 542 418 542 C344 542 275 530 181 501 L156 377 Z M408 142 C361 101 321 83 277 83 C239 83 220 100 220 133 C220 202 299 253 408 253 L430 253 L408 142 Z M427 0 C337 -35 297 -71 297 -116 C297 -158 340 -181 423 -181 C453 -181 478 -177 508 -167 L517 -127 C491 -133 476 -135 460 -135 C415 -135 391 -122 391 -96 C391 -61 425 -32 505 0 L427 0 Z " />
<glyph glyph-name="Cacute" unicode="&#x106;" horiz-adv-x="600" d="M607 127 C528 92 474 77 422 77 C315 77 248 149 248 265 C248 478 367 657 508 657 C543 657 569 648 595 626 L582 500 L667 500 L708 709 C638 732 583 741 522 741 C398 741 298 696 217 602 C134 506 90 389 90 264 C90 84 194 -18 377 -18 C447 -18 512 -6 586 22 L607 127 Z M442 783 L527 783 L715 940 L575 940 L442 783 Z " />
<glyph glyph-name="cacute" unicode="&#x107;" horiz-adv-x="600" d="M607 130 C514 97 457 84 405 84 C294 84 238 130 238 222 C238 364 326 459 457 459 C498 459 531 452 566 436 L558 337 L642 337 L678 515 C611 534 549 542 481 542 C247 542 82 403 82 206 C82 61 175 -12 359 -12 C433 -12 499 -1 586 25 L607 130 Z M406 626 L490 626 L678 783 L539 783 L406 626 Z " />
<glyph glyph-name="Ccaron" unicode="&#x10c;" horiz-adv-x="600" d="M607 127 C528 92 474 77 422 77 C315 77 248 149 248 265 C248 478 367 657 508 657 C543 657 569 648 595 626 L582 500 L667 500 L708 709 C638 732 583 741 522 741 C398 741 298 696 217 602 C134 506 90 389 90 264 C90 84 194 -18 377 -18 C447 -18 512 -6 586 22 L607 127 Z M729 940 L651 940 L540 847 L539 847 L465 940 L386 940 L457 783 L596 783 L729 940 Z " />
<glyph glyph-name="ccaron" unicode="&#x10d;" horiz-adv-x="600" d="M607 130 C514 97 457 84 405 84 C294 84 238 130 238 222 C238 364 326 459 457 459 C498 459 531 452 566 436 L558 337 L642 337 L678 515 C611 534 549 542 481 542 C247 542 82 403 82 206 C82 61 175 -12 359 -12 C433 -12 499 -1 586 25 L607 130 Z M694 783 L615 783 L504 690 L503 690 L429 783 L351 783 L421 626 L560 626 L694 783 Z " />
<glyph glyph-name="Dcaron" unicode="&#x10e;" horiz-adv-x="600" d="M18 0 L216 0 C365 0 478 54 560 166 C626 254 661 359 661 469 C661 639 568 723 377 723 L163 723 L146 639 L194 639 L83 85 L35 85 L18 0 Z M228 85 L339 639 L360 638 C461 636 506 589 506 487 C506 412 486 315 455 243 C411 141 339 85 250 85 L228 85 Z M628 940 L550 940 L438 847 L437 847 L363 940 L285 940 L355 783 L495 783 L628 940 Z " />
<glyph glyph-name="dcaron" unicode="&#x10f;" horiz-adv-x="600" d="M312 0 L472 0 L489 84 L449 84 L586 771 L416 771 L399 686 L449 686 L418 530 C386 539 363 542 337 542 C250 542 184 504 132 426 C80 347 52 251 52 153 C52 43 92 -12 171 -12 C226 -12 273 15 327 78 L312 0 Z M398 431 L348 183 C303 124 269 99 233 99 C194 99 175 125 175 179 C175 328 242 444 328 444 C345 444 372 440 387 434 L398 431 Z M655 626 L652 612 C641 562 621 536 586 532 L576 482 L580 482 C610 482 651 504 677 534 C703 565 722 606 732 659 L755 771 L634 771 L605 626 L655 626 Z " />
<glyph glyph-name="Dcroat" unicode="&#x110;" horiz-adv-x="600" d="M18 0 L216 0 C365 0 478 54 560 166 C626 254 661 360 661 469 C661 639 568 723 377 723 L163 723 L146 639 L194 639 L148 411 L82 411 L65 327 L132 327 L83 85 L35 85 L18 0 Z M228 85 L276 327 L372 327 L390 411 L293 411 L339 639 L360 638 C461 636 506 589 506 487 C506 412 486 315 455 244 C411 141 339 85 250 85 L228 85 Z " />
<glyph glyph-name="dcroat" unicode="&#x111;" horiz-adv-x="600" d="M391 0 L584 0 L600 84 L552 84 L652 585 L713 585 L724 645 L664 645 L690 771 L485 771 L468 687 L528 687 L520 645 L399 645 L387 585 L508 585 L497 530 C459 538 430 542 399 542 C288 542 205 498 146 408 C98 336 73 252 73 167 C73 49 123 -12 222 -12 C288 -12 343 15 406 78 L391 0 Z M477 431 L427 183 C376 124 335 99 292 99 C243 99 220 126 220 184 C220 339 290 444 392 444 C413 444 443 440 464 434 L477 431 Z " />
<glyph glyph-name="Emacron" unicode="&#x112;" horiz-adv-x="600" d="M18 0 L572 0 L612 199 L522 199 L500 90 L253 90 L299 320 L413 320 L401 259 L485 259 L526 464 L442 464 L430 404 L316 404 L363 639 L580 639 L560 542 L650 542 L686 723 L163 723 L146 639 L218 639 L107 84 L35 84 L18 0 Z M247 784 L608 784 L625 868 L264 868 L247 784 Z " />
<glyph glyph-name="emacron" unicode="&#x113;" horiz-adv-x="600" d="M601 124 C509 95 448 83 390 83 C287 83 233 127 233 210 C233 216 234 225 235 235 L619 235 L624 263 C632 301 634 322 634 349 C634 472 559 542 428 542 C235 542 82 390 82 198 C82 63 176 -12 345 -12 C421 -12 497 0 582 25 L601 124 Z M254 319 C280 414 327 456 404 456 C464 456 494 423 494 357 C494 345 493 336 489 319 L254 319 Z M275 627 L636 627 L653 711 L292 711 L275 627 Z " />
<glyph glyph-name="Edotaccent" unicode="&#x116;" horiz-adv-x="600" d="M18 0 L572 0 L612 199 L522 199 L500 90 L253 90 L299 320 L413 320 L401 259 L485 259 L526 464 L442 464 L430 404 L316 404 L363 639 L580 639 L560 542 L650 542 L686 723 L163 723 L146 639 L218 639 L107 84 L35 84 L18 0 Z M392 783 L536 783 L565 928 L420 928 L392 783 Z " />
<glyph glyph-name="edotaccent" unicode="&#x117;" horiz-adv-x="600" d="M601 124 C509 95 448 83 390 83 C287 83 233 127 233 210 C233 216 234 225 235 235 L619 235 L624 263 C632 301 634 322 634 349 C634 472 559 542 428 542 C235 542 82 390 82 198 C82 63 176 -12 345 -12 C421 -12 497 0 582 25 L601 124 Z M254 319 C280 414 327 456 404 456 C464 456 494 423 494 357 C494 345 493 336 489 319 L254 319 Z M377 626 L522 626 L550 771 L406 771 L377 626 Z " />
<glyph glyph-name="Eogonek" unicode="&#x118;" horiz-adv-x="600" d="M18 0 L572 0 L612 199 L522 199 L500 90 L253 90 L299 320 L413 320 L401 259 L485 259 L526 464 L442 464 L430 404 L316 404 L363 639 L580 639 L560 542 L650 542 L686 723 L163 723 L146 639 L218 639 L107 84 L35 84 L18 0 Z M434 0 C343 -35 303 -71 303 -116 C303 -158 346 -181 429 -181 C460 -181 485 -177 515 -167 L523 -127 C498 -133 482 -135 466 -135 C421 -135 397 -122 397 -96 C397 -61 431 -32 511 0 L434 0 Z " />
<glyph glyph-name="eogonek" unicode="&#x119;" horiz-adv-x="600" d="M601 124 C509 95 448 83 390 83 C287 83 233 127 233 210 C233 216 234 225 235 235 L619 235 L624 263 C632 301 634 322 634 349 C634 472 559 542 428 542 C235 542 82 390 82 198 C82 63 176 -12 345 -12 C421 -12 497 0 582 25 L601 124 Z M254 319 C280 414 327 456 404 456 C464 456 494 423 494 357 C494 345 493 336 489 319 L254 319 Z M350 0 C260 -35 220 -71 220 -116 C220 -158 263 -181 346 -181 C376 -181 401 -177 431 -167 L440 -127 C414 -133 399 -135 383 -135 C338 -135 314 -122 314 -96 C314 -61 348 -32 428 0 L350 0 Z " />
<glyph glyph-name="Ecaron" unicode="&#x11a;" horiz-adv-x="600" d="M18 0 L572 0 L612 199 L522 199 L500 90 L253 90 L299 320 L413 320 L401 259 L485 259 L526 464 L442 464 L430 404 L316 404 L363 639 L580 639 L560 542 L650 542 L686 723 L163 723 L146 639 L218 639 L107 84 L35 84 L18 0 Z M688 940 L610 940 L498 847 L497 847 L423 940 L345 940 L415 783 L555 783 L688 940 Z " />
<glyph glyph-name="ecaron" unicode="&#x11b;" horiz-adv-x="600" d="M601 124 C509 95 448 83 390 83 C287 83 233 127 233 210 C233 216 234 225 235 235 L619 235 L624 263 C632 301 634 322 634 349 C634 472 559 542 428 542 C235 542 82 390 82 198 C82 63 176 -12 345 -12 C421 -12 497 0 582 25 L601 124 Z M254 319 C280 414 327 456 404 456 C464 456 494 423 494 357 C494 345 493 336 489 319 L254 319 Z M658 783 L579 783 L468 690 L467 690 L393 783 L315 783 L385 626 L524 626 L658 783 Z " />
<glyph glyph-name="Gbreve" unicode="&#x11e;" horiz-adv-x="600" d="M642 334 L407 334 L390 250 L481 250 L447 83 C430 80 410 78 399 78 C310 78 247 157 247 268 C247 475 367 657 505 657 C538 657 563 648 589 626 L576 500 L660 500 L702 709 C632 731 578 741 519 741 C401 741 300 694 216 600 C133 507 90 392 90 265 C90 87 193 -18 366 -18 C440 -18 507 -5 580 24 L642 334 Z M385 940 L385 936 C384 928 383 918 383 913 C383 838 444 783 526 783 C622 783 697 841 730 940 L664 940 C639 889 603 867 544 867 C484 867 456 889 451 940 L385 940 Z " />
<glyph glyph-name="gbreve" unicode="&#x11f;" horiz-adv-x="600" d="M316 90 C264 90 239 97 239 111 C239 126 253 142 284 161 C301 157 312 156 326 156 C463 156 574 256 574 380 C574 406 569 427 557 454 L649 439 L700 542 L468 530 C434 539 413 542 388 542 C252 542 141 437 141 309 C141 257 162 222 215 189 C144 144 111 107 111 69 C111 50 122 34 149 12 C64 -23 25 -61 25 -109 C25 -168 107 -205 235 -205 C413 -205 544 -121 544 -7 C544 59 494 90 389 90 L316 90 Z M311 0 C378 0 399 -10 399 -41 C399 -86 343 -121 272 -121 C213 -121 182 -105 182 -75 C182 -51 199 -28 237 0 L311 0 Z M381 458 C419 458 439 433 439 385 C439 304 395 240 338 240 C299 240 280 264 280 311 C280 392 325 458 381 458 L381 458 Z M273 784 L272 757 C272 682 332 627 415 627 C510 627 585 685 619 784 L552 784 C528 733 491 711 432 711 C373 711 344 733 339 784 L273 784 Z " />
<glyph glyph-name="Gcommaaccent" unicode="&#x122;" horiz-adv-x="600" d="M642 334 L407 334 L390 250 L481 250 L447 83 C430 80 410 78 399 78 C310 78 247 157 247 268 C247 475 367 657 505 657 C538 657 563 648 589 626 L576 500 L660 500 L702 709 C633 731 577 741 519 741 C401 741 300 694 216 600 C133 507 90 392 90 265 C90 87 193 -18 366 -18 C440 -18 507 -5 580 24 L642 334 Z M265 -92 C313 -95 333 -105 333 -126 C333 -150 308 -163 263 -163 C249 -163 235 -162 215 -160 L207 -205 C232 -209 261 -211 291 -211 C367 -211 430 -170 430 -120 C430 -72 383 -50 274 -48 L265 -92 Z " />
<glyph glyph-name="gcommaaccent" unicode="&#x123;" horiz-adv-x="600" d="M316 90 C264 90 239 97 239 111 C239 126 253 142 284 161 C301 157 312 156 326 156 C463 156 574 256 574 380 C574 406 569 427 557 454 L649 439 L700 542 L468 530 C434 539 413 542 388 542 C252 542 141 437 141 309 C141 257 162 222 215 189 C144 144 111 107 111 69 C111 50 122 34 149 12 C64 -23 25 -61 25 -109 C25 -168 107 -205 235 -205 C413 -205 544 -121 544 -7 C544 59 494 90 389 90 L316 90 Z M311 0 C378 0 399 -10 399 -41 C399 -86 343 -121 272 -121 C213 -121 182 -105 182 -75 C182 -51 199 -28 237 0 L311 0 Z M381 458 C419 458 439 433 439 385 C439 304 395 240 338 240 C299 240 280 264 280 311 C280 392 325 458 381 458 L381 458 Z M546 915 C446 906 388 848 365 735 L343 626 L487 626 L517 771 L461 771 C472 837 497 870 536 870 L546 915 Z " />
<glyph glyph-name="Imacron" unicode="&#x12a;" horiz-adv-x="600" d="M60 0 L539 0 L557 84 L389 84 L500 639 L667 639 L684 723 L205 723 L188 639 L355 639 L245 84 L77 84 L60 0 Z M276 784 L637 784 L654 868 L292 868 L276 784 Z " />
<glyph glyph-name="imacron" unicode="&#x12b;" horiz-adv-x="600" d="M68 0 L574 0 L591 84 L410 84 L499 530 L174 530 L157 446 L338 446 L265 84 L85 84 L68 0 Z M241 627 L602 627 L619 711 L258 711 L241 627 Z " />
<glyph glyph-name="Iogonek" unicode="&#x12e;" horiz-adv-x="600" d="M60 0 L539 0 L557 84 L389 84 L500 639 L667 639 L684 723 L205 723 L188 639 L355 639 L245 84 L77 84 L60 0 Z M377 0 C286 -35 246 -71 246 -116 C246 -158 289 -181 372 -181 C403 -181 428 -177 458 -167 L466 -127 C441 -133 425 -135 409 -135 C364 -135 340 -122 340 -97 C340 -61 374 -32 454 0 L377 0 Z " />
<glyph glyph-name="iogonek" unicode="&#x12f;" horiz-adv-x="600" d="M68 0 L574 0 L591 84 L410 84 L499 530 L174 530 L157 446 L338 446 L265 84 L85 84 L68 0 Z M374 626 L519 626 L547 771 L403 771 L374 626 Z M411 0 C321 -35 281 -71 281 -116 C281 -158 324 -181 407 -181 C437 -181 462 -177 492 -167 L501 -127 C475 -133 460 -135 444 -135 C399 -135 375 -122 375 -96 C375 -61 409 -32 489 0 L411 0 Z " />
<glyph glyph-name="Idotaccent" unicode="&#x130;" horiz-adv-x="600" d="M60 0 L539 0 L557 84 L389 84 L500 639 L667 639 L684 723 L205 723 L188 639 L355 639 L245 84 L77 84 L60 0 Z M384 783 L529 783 L558 928 L413 928 L384 783 Z " />
<glyph glyph-name="dotlessi" unicode="&#x131;" horiz-adv-x="600" d="M68 0 L574 0 L591 84 L410 84 L499 530 L174 530 L157 446 L338 446 L265 84 L85 84 L68 0 Z " />
<glyph glyph-name="Kcommaaccent" unicode="&#x136;" horiz-adv-x="600" d="M18 0 L259 0 L276 85 L227 85 L281 350 L292 350 L438 85 L377 85 L361 0 L600 0 L617 85 L597 85 L424 400 L669 639 L726 639 L743 723 L526 723 L509 639 L563 639 L299 380 L287 380 L338 639 L387 639 L403 723 L163 723 L145 639 L194 639 L83 85 L35 85 L18 0 Z M228 -92 C276 -95 296 -105 296 -126 C296 -150 271 -163 226 -163 C212 -163 199 -162 179 -160 L170 -205 C196 -209 224 -211 254 -211 C330 -211 393 -170 393 -120 C393 -72 346 -50 237 -48 L228 -92 Z " />
<glyph glyph-name="kcommaaccent" unicode="&#x137;" horiz-adv-x="600" d="M18 0 L259 0 L276 85 L227 85 L259 241 L283 241 L369 85 L352 0 L582 0 L599 85 L550 85 L426 311 L582 446 L654 446 L671 530 L419 530 L402 446 L462 446 L295 301 L271 301 L365 771 L172 771 L155 686 L204 686 L83 85 L35 85 L18 0 Z M229 -92 C276 -95 296 -105 296 -126 C296 -150 271 -163 226 -163 C212 -163 198 -162 179 -160 L170 -205 C196 -209 225 -211 255 -211 C330 -211 393 -170 393 -120 C393 -72 346 -50 238 -48 L229 -92 Z " />
<glyph glyph-name="Lacute" unicode="&#x139;" horiz-adv-x="600" d="M24 0 L576 0 L624 241 L546 241 L516 90 L283 90 L393 639 L489 639 L506 723 L169 723 L152 639 L248 639 L137 84 L41 84 L24 0 Z M337 783 L421 783 L609 940 L470 940 L337 783 Z " />
<glyph glyph-name="lacute" unicode="&#x13a;" horiz-adv-x="600" d="M68 0 L574 0 L591 84 L410 84 L547 771 L222 771 L205 687 L386 687 L265 84 L85 84 L68 0 Z M448 819 L532 819 L720 976 L581 976 L448 819 Z " />
<glyph glyph-name="Lcommaaccent" unicode="&#x13b;" horiz-adv-x="600" d="M24 0 L576 0 L624 241 L546 241 L516 90 L283 90 L393 639 L489 639 L506 723 L169 723 L152 639 L248 639 L137 84 L41 84 L24 0 Z M247 -92 C294 -95 314 -105 314 -126 C314 -150 289 -163 244 -163 C230 -163 216 -162 197 -160 L188 -205 C214 -209 242 -211 272 -211 C348 -211 411 -170 411 -120 C411 -72 364 -50 255 -48 L247 -92 Z " />
<glyph glyph-name="lcommaaccent" unicode="&#x13c;" horiz-adv-x="600" d="M68 0 L574 0 L591 84 L410 84 L547 771 L222 771 L205 687 L386 687 L265 84 L85 84 L68 0 Z M254 -92 C301 -95 321 -105 321 -126 C321 -150 296 -163 251 -163 C237 -163 223 -162 204 -160 L195 -205 C221 -209 250 -211 280 -211 C355 -211 418 -170 418 -120 C418 -72 371 -50 263 -48 L254 -92 Z " />
<glyph glyph-name="Lcaron" unicode="&#x13d;" horiz-adv-x="600" d="M24 0 L576 0 L624 241 L546 241 L516 90 L283 90 L393 639 L489 639 L506 723 L169 723 L152 639 L248 639 L137 84 L41 84 L24 0 Z M605 578 L602 564 C592 514 571 488 537 484 L526 434 L530 434 C560 434 601 456 627 486 C653 517 672 558 682 611 L705 723 L584 723 L555 578 L605 578 Z " />
<glyph glyph-name="lcaron" unicode="&#x13e;" horiz-adv-x="600" d="M68 0 L574 0 L591 84 L410 84 L547 771 L222 771 L205 687 L386 687 L265 84 L85 84 L68 0 Z M654 626 L651 612 C641 562 620 537 586 532 L575 482 L579 482 C609 482 650 504 676 534 C702 565 720 606 731 659 L754 771 L633 771 L604 626 L654 626 Z " />
<glyph glyph-name="Lslash" unicode="&#x141;" horiz-adv-x="600" d="M24 0 L576 0 L624 241 L546 241 L516 90 L283 90 L337 364 L497 436 L516 531 L357 458 L393 639 L489 639 L506 723 L169 723 L152 639 L248 639 L197 386 L91 338 L73 243 L179 292 L137 84 L41 84 L24 0 Z " />
<glyph glyph-name="lslash" unicode="&#x142;" horiz-adv-x="600" d="M68 0 L574 0 L591 84 L410 84 L468 375 L627 447 L646 542 L487 470 L547 771 L222 771 L205 687 L386 687 L328 398 L170 327 L150 231 L309 303 L265 84 L85 84 L68 0 Z " />
<glyph glyph-name="Nacute" unicode="&#x143;" horiz-adv-x="600" d="M18 0 L235 0 L252 84 L180 84 L260 485 L450 0 L546 0 L674 639 L722 639 L739 723 L522 723 L505 639 L577 639 L497 235 L308 723 L163 723 L146 639 L194 639 L83 84 L35 84 L18 0 Z M378 783 L463 783 L651 940 L512 940 L378 783 Z " />
<glyph glyph-name="nacute" unicode="&#x144;" horiz-adv-x="600" d="M18 0 L271 0 L288 84 L225 84 L277 347 C336 406 376 431 415 431 C449 431 467 414 467 381 C467 369 463 342 458 315 L412 84 L349 84 L332 0 L585 0 L602 84 L551 84 L606 364 C613 395 616 422 616 442 C616 509 578 542 499 542 C419 542 377 523 298 451 L314 530 L124 530 L107 446 L158 446 L86 84 L35 84 L18 0 Z M333 626 L417 626 L605 783 L466 783 L333 626 Z " />
<glyph glyph-name="Ncommaaccent" unicode="&#x145;" horiz-adv-x="600" d="M18 0 L235 0 L252 84 L180 84 L260 485 L450 0 L546 0 L674 639 L722 639 L739 723 L522 723 L505 639 L577 639 L497 235 L308 723 L163 723 L146 639 L194 639 L83 84 L35 84 L18 0 Z M241 -92 C288 -94 308 -105 308 -125 C308 -150 283 -163 238 -163 C224 -163 210 -162 191 -160 L182 -205 C208 -209 236 -211 267 -211 C342 -211 405 -170 405 -120 C405 -72 358 -50 249 -48 L241 -92 Z " />
<glyph glyph-name="ncommaaccent" unicode="&#x146;" horiz-adv-x="600" d="M18 0 L271 0 L288 84 L225 84 L277 347 C336 406 376 431 415 431 C449 431 467 414 467 381 C467 369 463 342 458 315 L412 84 L349 84 L332 0 L585 0 L602 84 L551 84 L606 364 C613 395 616 422 616 442 C616 509 578 542 499 542 C419 542 377 523 298 451 L314 530 L124 530 L107 446 L158 446 L86 84 L35 84 L18 0 Z M235 -92 C282 -95 302 -105 302 -126 C302 -150 277 -163 232 -163 C218 -163 204 -162 185 -160 L176 -205 C202 -209 231 -211 261 -211 C336 -211 399 -170 399 -120 C399 -72 352 -50 244 -48 L235 -92 Z " />
<glyph glyph-name="Ncaron" unicode="&#x147;" horiz-adv-x="600" d="M18 0 L235 0 L252 84 L180 84 L260 485 L450 0 L546 0 L674 639 L722 639 L739 723 L522 723 L505 639 L577 639 L497 235 L308 723 L163 723 L146 639 L194 639 L83 84 L35 84 L18 0 Z M649 940 L571 940 L459 847 L458 847 L384 940 L306 940 L376 783 L516 783 L649 940 Z " />
<glyph glyph-name="ncaron" unicode="&#x148;" horiz-adv-x="600" d="M18 0 L271 0 L288 84 L225 84 L277 347 C336 406 376 431 415 431 C449 431 467 414 467 381 C467 369 463 342 458 315 L412 84 L349 84 L332 0 L585 0 L602 84 L551 84 L606 364 C613 395 616 422 616 442 C616 509 578 542 499 542 C419 542 377 523 298 451 L314 530 L124 530 L107 446 L158 446 L86 84 L35 84 L18 0 Z M630 783 L551 783 L440 690 L439 690 L365 783 L287 783 L357 626 L496 626 L630 783 Z " />
<glyph glyph-name="Omacron" unicode="&#x14c;" horiz-adv-x="600" d="M449 741 C318 741 213 667 149 528 C108 438 82 321 82 222 C82 62 152 -18 291 -18 C427 -18 532 55 596 194 C638 285 664 402 664 501 C664 661 592 741 449 741 L449 741 Z M431 657 C489 657 519 610 519 521 C519 463 495 328 470 247 C434 127 383 66 319 66 C258 66 226 113 226 202 C226 250 242 348 264 437 C300 583 356 657 431 657 L431 657 Z M276 784 L638 784 L655 868 L293 868 L276 784 Z " />
<glyph glyph-name="omacron" unicode="&#x14d;" horiz-adv-x="600" d="M412 542 C228 542 80 390 80 203 C80 71 164 -12 298 -12 C484 -12 633 139 633 328 C633 461 550 542 412 542 L412 542 Z M396 458 C454 458 483 417 483 334 C483 192 407 72 317 72 C259 72 230 113 230 196 C230 338 306 458 396 458 L396 458 Z M248 627 L609 627 L626 711 L265 711 L248 627 Z " />
<glyph glyph-name="Ohungarumlaut" unicode="&#x150;" horiz-adv-x="600" d="M449 741 C318 741 213 667 149 528 C108 438 82 321 82 222 C82 62 152 -18 291 -18 C427 -18 532 55 596 194 C638 285 664 402 664 501 C664 661 592 741 449 741 L449 741 Z M431 657 C489 657 519 610 519 521 C519 463 495 328 470 247 C434 127 383 66 319 66 C258 66 226 113 226 202 C226 250 242 348 264 437 C300 583 356 657 431 657 L431 657 Z M298 783 L359 783 L548 940 L436 940 L298 783 Z M475 783 L536 783 L724 940 L611 940 L475 783 Z " />
<glyph glyph-name="ohungarumlaut" unicode="&#x151;" horiz-adv-x="600" d="M412 542 C228 542 80 390 80 203 C80 71 164 -12 298 -12 C484 -12 633 139 633 328 C633 461 550 542 412 542 L412 542 Z M396 458 C454 458 483 417 483 334 C483 192 407 72 317 72 C259 72 230 113 230 196 C230 338 306 458 396 458 L396 458 Z M270 626 L331 626 L520 783 L407 783 L270 626 Z M446 626 L507 626 L696 783 L583 783 L446 626 Z " />
<glyph glyph-name="OE" unicode="&#x152;" horiz-adv-x="600" d="M280 0 L585 0 L620 175 L550 175 L533 90 L413 90 L459 320 L514 320 L502 259 L572 259 L613 464 L543 464 L531 404 L476 404 L523 639 L625 639 L608 554 L679 554 L712 723 L425 723 L421 707 C401 731 378 741 344 741 C249 741 172 659 122 505 C87 399 62 259 62 171 C62 47 106 -18 192 -18 C223 -18 249 -8 284 17 L280 0 Z M328 239 C301 106 278 66 229 66 C197 66 181 88 181 132 C181 202 228 456 259 552 C281 622 311 657 348 657 C378 657 394 636 394 598 C394 578 389 543 379 495 L328 239 Z " />
<glyph glyph-name="oe" unicode="&#x153;" horiz-adv-x="600" d="M601 123 C562 103 532 94 501 94 C445 94 416 127 416 189 C416 200 417 210 419 229 L622 229 L629 261 C639 311 645 364 645 403 C645 495 609 542 539 542 C494 542 459 524 420 481 C387 524 354 542 306 542 C169 542 59 374 59 165 C59 46 104 -12 198 -12 C247 -12 284 4 324 42 C358 4 397 -12 451 -12 C496 -12 536 -2 581 21 L601 123 Z M293 209 C275 118 250 72 217 72 C194 72 183 96 183 143 C183 286 244 458 295 458 C315 458 326 439 326 403 C326 383 322 351 316 320 L293 209 Z M436 313 C457 415 480 459 512 459 C528 459 536 445 536 417 C536 399 534 385 526 336 L522 313 L436 313 Z " />
<glyph glyph-name="Racute" unicode="&#x154;" horiz-adv-x="600" d="M18 0 L295 0 L312 84 L227 84 L271 301 L291 301 L442 0 L594 0 L611 84 L574 84 L449 340 C580 410 637 487 637 593 C637 690 583 723 427 723 L163 723 L146 639 L194 639 L83 84 L35 84 L18 0 Z M288 386 L338 639 L367 639 C454 639 475 626 475 570 C475 467 403 386 312 386 L288 386 Z M355 783 L440 783 L628 940 L488 940 L355 783 Z " />
<glyph glyph-name="racute" unicode="&#x155;" horiz-adv-x="600" d="M27 0 L449 0 L466 84 L309 84 L360 342 C423 405 469 433 510 433 C527 433 544 428 560 418 L557 343 L642 343 L676 515 C637 534 602 542 563 542 C499 542 447 516 382 452 L398 530 L133 530 L116 446 L237 446 L165 84 L44 84 L27 0 Z M333 626 L417 626 L605 783 L466 783 L333 626 Z " />
<glyph glyph-name="Rcommaaccent" unicode="&#x156;" horiz-adv-x="600" d="M18 0 L295 0 L312 84 L227 84 L271 301 L291 301 L442 0 L594 0 L611 84 L574 84 L449 340 C580 410 637 487 637 593 C637 690 583 723 427 723 L163 723 L146 639 L194 639 L83 84 L35 84 L18 0 Z M288 386 L338 639 L367 639 C454 639 475 626 475 570 C475 467 403 386 312 386 L288 386 Z M235 -92 C282 -95 302 -105 302 -126 C302 -150 277 -163 232 -163 C218 -163 204 -162 185 -160 L176 -205 C202 -209 230 -211 260 -211 C337 -211 399 -170 399 -120 C399 -72 352 -50 243 -48 L235 -92 Z " />
<glyph glyph-name="rcommaaccent" unicode="&#x157;" horiz-adv-x="600" d="M27 0 L449 0 L466 84 L309 84 L360 342 C423 405 469 433 510 433 C527 433 544 428 560 418 L557 343 L642 343 L676 515 C637 534 602 542 563 542 C499 542 447 516 382 452 L398 530 L133 530 L116 446 L237 446 L165 84 L44 84 L27 0 Z M166 -92 C213 -95 233 -105 233 -126 C233 -150 208 -163 163 -163 C149 -163 135 -162 116 -160 L107 -205 C133 -209 162 -211 192 -211 C267 -211 330 -170 330 -120 C330 -72 283 -50 175 -48 L166 -92 Z " />
<glyph glyph-name="Rcaron" unicode="&#x158;" horiz-adv-x="600" d="M18 0 L295 0 L312 84 L227 84 L271 301 L291 301 L442 0 L594 0 L611 84 L574 84 L449 340 C580 410 637 487 637 593 C637 690 583 723 427 723 L163 723 L146 639 L194 639 L83 84 L35 84 L18 0 Z M288 386 L338 639 L367 639 C454 639 475 626 475 570 C475 467 403 386 312 386 L288 386 Z M628 940 L549 940 L438 847 L437 847 L363 940 L285 940 L355 783 L495 783 L628 940 Z " />
<glyph glyph-name="rcaron" unicode="&#x159;" horiz-adv-x="600" d="M27 0 L449 0 L466 84 L309 84 L360 342 C423 405 469 433 510 433 C527 433 544 428 560 418 L557 343 L642 343 L676 515 C637 534 602 542 563 542 C499 542 447 516 382 452 L398 530 L133 530 L116 446 L237 446 L165 84 L44 84 L27 0 Z M620 783 L541 783 L430 690 L429 690 L355 783 L277 783 L347 626 L486 626 L620 783 Z " />
<glyph glyph-name="Sacute" unicode="&#x15a;" horiz-adv-x="600" d="M60 27 C152 -5 210 -18 270 -18 C376 -18 462 15 520 78 C567 128 592 189 592 251 C592 311 571 339 474 406 L412 449 C353 489 326 521 326 548 C326 607 377 657 438 657 C472 657 502 648 536 628 L526 522 L611 522 L647 706 C571 731 512 742 454 742 C290 742 170 637 170 494 C170 428 200 387 296 319 L354 278 C363 271 364 271 383 258 C422 232 437 212 437 186 C437 117 379 67 301 67 C262 67 224 80 173 112 L182 215 L98 215 L60 27 Z M386 783 L471 783 L659 940 L519 940 L386 783 Z " />
<glyph glyph-name="sacute" unicode="&#x15b;" horiz-adv-x="600" d="M97 25 C177 0 243 -12 309 -12 C462 -12 568 71 568 189 C568 244 531 281 450 308 L372 333 C320 350 298 367 298 387 C298 433 333 458 396 458 C433 458 463 452 494 437 L492 361 L576 361 L606 513 C546 533 489 542 423 542 C261 542 154 464 154 348 C154 289 196 249 284 223 L350 203 C400 188 422 169 422 142 C422 98 389 73 330 73 C290 73 254 84 210 108 L212 181 L128 181 L97 25 Z M358 626 L442 626 L630 783 L491 783 L358 626 Z " />
<glyph glyph-name="Scedilla" unicode="&#x15e;" horiz-adv-x="600" d="M60 27 C152 -5 210 -18 270 -18 C376 -18 462 15 520 78 C567 128 592 189 592 251 C592 311 571 339 474 406 L412 449 C353 489 326 521 326 548 C326 607 377 657 438 657 C472 657 502 648 536 628 L526 522 L611 522 L647 706 C569 731 513 742 454 742 C290 742 170 637 170 494 C170 428 200 387 296 319 L354 278 L357 276 L383 258 C422 233 437 212 437 186 C437 118 379 67 301 67 C262 67 224 80 173 112 L182 215 L98 215 L60 27 Z M266 0 L189 -89 L199 -89 C257 -89 286 -101 286 -125 C286 -147 263 -159 221 -159 C206 -159 187 -157 165 -152 L156 -196 C191 -206 218 -211 245 -211 C319 -211 383 -170 383 -121 C383 -84 353 -64 285 -55 L332 0 L266 0 Z " />
<glyph glyph-name="scedilla" unicode="&#x15f;" horiz-adv-x="600" d="M97 25 C177 0 243 -12 309 -12 C462 -12 568 71 568 189 C568 244 531 281 450 308 L372 333 C320 350 298 367 298 387 C298 433 333 458 396 458 C433 458 463 452 494 437 L492 361 L576 361 L606 513 C546 533 489 542 423 542 C261 542 154 464 154 348 C154 289 196 249 284 223 L350 203 C400 188 422 169 422 142 C422 98 389 73 330 73 C290 73 254 84 210 108 L212 181 L128 181 L97 25 Z M279 0 L202 -89 L212 -89 C270 -89 299 -101 299 -125 C299 -147 276 -159 234 -159 C219 -159 201 -157 178 -152 L169 -196 C203 -206 231 -211 258 -211 C332 -211 396 -170 396 -121 C396 -84 366 -64 297 -55 L345 0 L279 0 Z " />
<glyph glyph-name="Scaron" unicode="&#x160;" horiz-adv-x="600" d="M60 27 C152 -5 210 -18 270 -18 C376 -18 462 15 520 78 C567 128 592 189 592 251 C592 311 571 339 474 406 L412 449 C353 489 326 521 326 548 C326 607 377 657 438 657 C472 657 502 648 536 628 L526 522 L611 522 L647 706 C571 731 512 742 454 742 C290 742 170 637 170 494 C170 428 200 387 296 319 L354 278 C363 271 364 271 383 258 C422 232 437 212 437 186 C437 117 379 67 301 67 C262 67 224 80 173 112 L182 215 L98 215 L60 27 Z M670 940 L592 940 L481 847 L480 847 L406 940 L328 940 L398 783 L537 783 L670 940 Z " />
<glyph glyph-name="scaron" unicode="&#x161;" horiz-adv-x="600" d="M97 25 C177 0 243 -12 309 -12 C462 -12 568 71 568 189 C568 244 531 281 450 308 L372 333 C320 350 298 367 298 387 C298 433 333 458 396 458 C433 458 463 452 494 437 L492 361 L576 361 L606 513 C546 533 489 542 423 542 C261 542 154 464 154 348 C154 289 196 249 284 223 L350 203 C400 188 422 169 422 142 C422 98 389 73 330 73 C290 73 254 84 210 108 L212 181 L128 181 L97 25 Z M643 783 L564 783 L453 690 L452 690 L378 783 L300 783 L370 626 L509 626 L643 783 Z " />
<glyph glyph-name="Tcommaaccent" unicode="&#x162;" horiz-adv-x="600" d="M119 0 L481 0 L497 84 L389 84 L500 639 L615 639 L593 530 L683 530 L722 723 L167 723 L129 530 L219 530 L241 639 L355 639 L244 84 L136 84 L119 0 Z M276 0 L199 -89 L209 -89 C267 -89 296 -101 296 -125 C296 -147 273 -159 231 -159 C216 -159 198 -157 175 -152 L166 -196 C200 -206 228 -211 255 -211 C329 -211 393 -170 393 -121 C393 -84 363 -64 294 -55 L342 0 L276 0 Z " />
<glyph glyph-name="tcommaaccent" unicode="&#x163;" horiz-adv-x="600" d="M123 434 L255 434 L208 198 C202 168 197 127 197 106 C197 33 254 -12 345 -12 C400 -12 457 2 537 33 L557 132 C488 103 441 90 404 90 C366 90 346 106 346 139 C346 152 349 182 353 202 L400 434 L611 434 L628 518 L417 518 L443 650 L299 650 L272 518 L140 518 L123 434 Z M291 0 L214 -89 L224 -89 C283 -89 312 -101 312 -125 C312 -147 289 -159 247 -159 C232 -159 213 -157 190 -152 L181 -196 C215 -206 244 -211 271 -211 C345 -211 409 -170 409 -121 C409 -84 379 -64 310 -55 L357 0 L291 0 Z " />
<glyph glyph-name="Tcaron" unicode="&#x164;" horiz-adv-x="600" d="M119 0 L481 0 L497 84 L389 84 L500 639 L615 639 L593 530 L683 530 L722 723 L167 723 L129 530 L219 530 L241 639 L355 639 L244 84 L136 84 L119 0 Z M659 940 L581 940 L470 847 L469 847 L395 940 L316 940 L387 783 L526 783 L659 940 Z " />
<glyph glyph-name="tcaron" unicode="&#x165;" horiz-adv-x="600" d="M123 434 L255 434 L208 198 C202 168 197 127 197 106 C197 33 254 -12 345 -12 C400 -12 457 2 537 33 L557 132 C488 103 441 90 404 90 C366 90 346 107 346 139 C346 153 349 182 353 202 L400 434 L611 434 L628 518 L417 518 L443 650 L299 650 L272 518 L140 518 L123 434 Z M599 698 L596 684 C586 634 564 608 530 604 L520 554 L524 554 C554 554 595 576 621 606 C647 637 666 678 676 731 L699 843 L578 843 L549 698 L599 698 Z " />
<glyph glyph-name="Umacron" unicode="&#x16a;" horiz-adv-x="600" d="M138 639 L187 639 L107 242 C100 204 95 166 95 140 C95 43 175 -18 304 -18 C396 -18 470 12 521 71 C555 111 574 160 595 265 L670 639 L718 639 L735 723 L542 723 L525 639 L574 639 L495 248 C468 111 432 67 348 67 C285 67 242 104 242 159 C242 181 248 226 259 277 L331 639 L379 639 L396 723 L155 723 L138 639 Z M288 784 L649 784 L666 868 L304 868 L288 784 Z " />
<glyph glyph-name="umacron" unicode="&#x16b;" horiz-adv-x="600" d="M104 446 L155 446 L99 166 C93 138 90 108 90 88 C90 21 128 -12 206 -12 C286 -12 328 7 408 78 L392 0 L582 0 L599 84 L548 84 L636 530 L435 530 L418 446 L481 446 L428 183 C370 123 329 98 290 98 C256 98 238 116 238 148 C238 162 240 177 248 215 L311 530 L121 530 L104 446 Z M239 627 L600 627 L617 711 L256 711 L239 627 Z " />
<glyph glyph-name="Uring" unicode="&#x16e;" horiz-adv-x="600" d="M138 639 L187 639 L107 242 C100 204 95 166 95 140 C95 43 175 -18 304 -18 C396 -18 470 12 521 71 C555 111 574 160 595 265 L670 639 L718 639 L735 723 L542 723 L525 639 L574 639 L495 248 C468 111 432 67 348 67 C285 67 242 104 242 159 C242 181 248 226 259 277 L331 639 L379 639 L396 723 L155 723 L138 639 Z M527 1012 C453 1012 387 947 387 875 C387 821 426 783 480 783 C554 783 621 848 621 920 C621 974 582 1012 527 1012 L527 1012 Z M517 958 C549 958 566 941 566 910 C566 871 531 837 491 837 C459 837 442 854 442 885 C442 924 477 958 517 958 L517 958 Z " />
<glyph glyph-name="uring" unicode="&#x16f;" horiz-adv-x="600" d="M104 446 L155 446 L99 166 C93 138 90 108 90 88 C90 21 128 -12 206 -12 C286 -12 328 7 408 78 L392 0 L582 0 L599 84 L548 84 L636 530 L435 530 L418 446 L481 446 L428 183 C370 123 329 98 290 98 C256 98 238 116 238 148 C238 162 240 177 248 215 L311 530 L121 530 L104 446 Z M460 856 C386 856 320 791 320 718 C320 664 358 626 413 626 C487 626 553 691 553 764 C553 818 514 856 460 856 L460 856 Z M449 802 C481 802 498 785 498 754 C498 715 463 680 423 680 C392 680 375 697 375 728 C375 768 409 802 449 802 L449 802 Z " />
<glyph glyph-name="Uhungarumlaut" unicode="&#x170;" horiz-adv-x="600" d="M138 639 L187 639 L107 242 C100 204 95 166 95 140 C95 43 175 -18 304 -18 C396 -18 470 12 521 71 C555 111 574 160 595 265 L670 639 L718 639 L735 723 L542 723 L525 639 L574 639 L495 248 C468 111 432 67 348 67 C285 67 242 104 242 159 C242 181 248 226 259 277 L331 639 L379 639 L396 723 L155 723 L138 639 Z M323 783 L384 783 L573 940 L460 940 L323 783 Z M499 783 L560 783 L749 940 L636 940 L499 783 Z " />
<glyph glyph-name="uhungarumlaut" unicode="&#x171;" horiz-adv-x="600" d="M104 446 L155 446 L99 166 C93 138 90 108 90 88 C90 21 128 -12 206 -12 C286 -12 328 7 408 78 L392 0 L582 0 L599 84 L548 84 L636 530 L435 530 L418 446 L481 446 L428 183 C370 123 329 98 290 98 C256 98 238 116 238 148 C238 162 240 177 248 215 L311 530 L121 530 L104 446 Z M269 626 L330 626 L519 783 L406 783 L269 626 Z M445 626 L506 626 L695 783 L582 783 L445 626 Z " />
<glyph glyph-name="Uogonek" unicode="&#x172;" horiz-adv-x="600" d="M138 639 L187 639 L107 242 C100 204 95 166 95 140 C95 43 175 -18 304 -18 C396 -18 470 12 521 71 C555 111 574 160 595 265 L670 639 L718 639 L735 723 L542 723 L525 639 L574 639 L495 248 C468 111 432 67 348 67 C285 67 242 104 242 159 C242 181 248 225 259 276 L331 639 L379 639 L396 723 L155 723 L138 639 Z M324 0 C234 -35 194 -71 194 -116 C194 -158 237 -181 319 -181 C350 -181 375 -177 405 -167 L413 -127 C388 -133 372 -135 357 -135 C311 -135 288 -122 288 -96 C288 -61 322 -32 401 0 L324 0 Z " />
<glyph glyph-name="uogonek" unicode="&#x173;" horiz-adv-x="600" d="M104 446 L155 446 L99 166 C93 138 90 108 90 88 C90 21 128 -12 206 -12 C286 -12 328 7 408 78 L392 0 L582 0 L599 84 L548 84 L636 530 L435 530 L418 446 L481 446 L428 183 C370 123 329 98 290 98 C256 98 238 116 238 148 C238 162 240 177 248 215 L311 530 L121 530 L104 446 Z M419 0 C329 -35 289 -71 289 -116 C289 -158 332 -181 415 -181 C445 -181 470 -177 500 -167 L509 -127 C483 -133 468 -135 452 -135 C407 -135 383 -122 383 -96 C383 -61 417 -32 497 0 L419 0 Z " />
<glyph glyph-name="Ydieresis" unicode="&#x178;" horiz-adv-x="600" d="M116 0 L501 0 L518 84 L398 84 L445 317 L679 639 L720 639 L738 723 L545 723 L528 639 L578 639 L429 432 L352 639 L399 639 L416 723 L151 723 L134 639 L179 639 L300 317 L253 84 L133 84 L116 0 Z M325 784 L433 784 L455 892 L347 892 L325 784 Z M542 784 L651 784 L672 892 L564 892 L542 784 Z " />
<glyph glyph-name="Zacute" unicode="&#x179;" horiz-adv-x="600" d="M54 0 L546 0 L588 211 L497 211 L473 90 L234 90 L666 633 L684 723 L217 723 L178 531 L268 531 L290 639 L508 639 L72 90 L54 0 Z M390 783 L474 783 L662 940 L523 940 L390 783 Z " />
<glyph glyph-name="zacute" unicode="&#x17a;" horiz-adv-x="600" d="M72 0 L528 0 L565 187 L481 187 L461 90 L258 90 L604 446 L621 530 L178 530 L142 349 L226 349 L245 446 L433 446 L91 96 L72 0 Z M353 626 L437 626 L625 783 L486 783 L353 626 Z " />
<glyph glyph-name="Zdotaccent" unicode="&#x17b;" horiz-adv-x="600" d="M54 0 L546 0 L588 211 L497 211 L473 90 L234 90 L666 633 L684 723 L217 723 L178 531 L268 531 L290 639 L508 639 L72 90 L54 0 Z M387 783 L532 783 L561 928 L416 928 L387 783 Z " />
<glyph glyph-name="zdotaccent" unicode="&#x17c;" horiz-adv-x="600" d="M72 0 L528 0 L565 187 L481 187 L461 90 L258 90 L604 446 L621 530 L178 530 L142 349 L226 349 L245 446 L433 446 L91 96 L72 0 Z M346 626 L491 626 L519 771 L375 771 L346 626 Z " />
<glyph glyph-name="Zcaron" unicode="&#x17d;" horiz-adv-x="600" d="M54 0 L546 0 L588 211 L497 211 L473 90 L234 90 L666 633 L684 723 L217 723 L178 531 L268 531 L290 639 L508 639 L72 90 L54 0 Z M665 940 L587 940 L476 847 L475 847 L401 940 L323 940 L393 783 L532 783 L665 940 Z " />
<glyph glyph-name="zcaron" unicode="&#x17e;" horiz-adv-x="600" d="M72 0 L528 0 L565 187 L481 187 L461 90 L258 90 L604 446 L621 530 L178 530 L142 349 L226 349 L245 446 L433 446 L91 96 L72 0 Z M628 783 L549 783 L438 690 L437 690 L363 783 L285 783 L355 626 L494 626 L628 783 Z " />
<glyph glyph-name="florin" unicode="&#x192;" horiz-adv-x="600" d="M13 -145 L158 -145 L352 344 L464 344 L481 428 L386 428 L421 515 C458 608 503 657 553 657 C565 657 575 655 591 649 L588 575 L673 575 L703 727 C659 737 625 741 593 741 C444 741 329 650 261 476 L242 428 L149 428 L132 344 L208 344 L13 -145 Z " />
<glyph glyph-name="Scommaaccent" unicode="&#x218;" horiz-adv-x="600" d="M60 27 C152 -5 210 -18 270 -18 C376 -18 462 15 520 78 C567 128 592 189 592 251 C592 311 571 339 474 406 L412 449 C353 489 326 521 326 548 C326 607 377 657 438 657 C472 657 502 648 536 628 L526 522 L611 522 L647 706 C569 731 513 742 454 742 C290 742 170 637 170 494 C170 428 200 387 296 319 L354 278 L357 276 L383 258 C422 233 437 212 437 186 C437 118 379 67 301 67 C262 67 224 80 173 112 L182 215 L98 215 L60 27 Z M207 -92 C255 -95 275 -105 275 -126 C275 -150 250 -163 204 -163 C190 -163 177 -162 157 -160 L148 -205 C174 -209 203 -211 233 -211 C309 -211 372 -170 372 -120 C372 -72 325 -50 216 -48 L207 -92 Z " />
<glyph glyph-name="scommaaccent" unicode="&#x219;" horiz-adv-x="600" d="M97 25 C177 0 243 -12 309 -12 C462 -12 568 71 568 189 C568 244 531 281 450 308 L372 333 C320 350 298 367 298 387 C298 433 333 458 396 458 C433 458 463 452 494 437 L492 361 L576 361 L606 513 C546 533 489 542 423 542 C261 542 154 464 154 348 C154 289 196 249 284 223 L350 203 C400 188 422 169 422 142 C422 98 389 73 330 73 C290 73 254 84 210 108 L212 181 L128 181 L97 25 Z M234 -92 C281 -95 301 -105 301 -126 C301 -150 276 -163 231 -163 C217 -163 203 -162 184 -160 L175 -205 C201 -209 230 -211 260 -211 C335 -211 398 -170 398 -120 C398 -72 351 -50 243 -48 L234 -92 Z " />
<glyph glyph-name="circumflex" unicode="&#x2c6;" horiz-adv-x="600" d="M254 626 L332 626 L443 719 L444 719 L518 626 L597 626 L526 783 L387 783 L254 626 Z " />
<glyph glyph-name="caron" unicode="&#x2c7;" horiz-adv-x="600" d="M628 783 L549 783 L438 690 L437 690 L363 783 L285 783 L355 626 L494 626 L628 783 Z " />
<glyph glyph-name="breve" unicode="&#x2d8;" horiz-adv-x="600" d="M284 784 L283 757 C283 682 343 627 426 627 C521 627 596 685 630 784 L563 784 C539 733 502 711 443 711 C384 711 355 733 350 784 L284 784 Z " />
<glyph glyph-name="dotaccent" unicode="&#x2d9;" horiz-adv-x="600" d="M353 626 L498 626 L526 771 L382 771 L353 626 Z " />
<glyph glyph-name="ring" unicode="&#x2da;" horiz-adv-x="600" d="M473 856 C399 856 333 791 333 718 C333 664 371 626 426 626 C500 626 566 691 566 764 C566 818 527 856 473 856 L473 856 Z M462 802 C494 802 511 785 511 754 C511 715 476 680 436 680 C405 680 388 697 388 728 C388 768 422 802 462 802 L462 802 Z " />
<glyph glyph-name="ogonek" unicode="&#x2db;" horiz-adv-x="600" d="M289 0 C199 -35 159 -71 159 -116 C159 -158 202 -181 285 -181 C315 -181 340 -177 370 -167 L379 -127 C353 -133 338 -135 322 -135 C277 -135 253 -122 253 -96 C253 -61 287 -32 367 0 L289 0 Z " />
<glyph glyph-name="tilde" unicode="&#x2dc;" horiz-adv-x="600" d="M325 626 C335 672 349 693 370 693 C379 693 392 687 405 676 L413 669 C414 668 414 668 416 667 L424 660 L441 647 C459 633 477 626 499 626 C563 626 602 673 628 783 L555 783 C545 738 531 717 510 717 C500 717 484 726 469 740 C468 741 463 744 456 750 L440 762 C422 776 403 783 382 783 C317 783 278 736 253 626 L325 626 Z " />
<glyph glyph-name="hungarumlaut" unicode="&#x2dd;" horiz-adv-x="600" d="M228 626 L289 626 L478 783 L365 783 L228 626 Z M404 626 L465 626 L654 783 L541 783 L404 626 Z " />
<glyph glyph-name="endash" unicode="&#x2013;" horiz-adv-x="600" d="M111 260 L593 260 L608 332 L126 332 L111 260 Z " />
<glyph glyph-name="emdash" unicode="&#x2014;" horiz-adv-x="600" d="M52 260 L652 260 L667 332 L67 332 L52 260 Z " />
<glyph glyph-name="quoteleft" unicode="&#x2018;" horiz-adv-x="600" d="M509 626 L443 626 C459 685 482 711 519 711 L526 711 L538 771 L528 771 C413 771 359 720 333 588 L307 458 L475 458 L509 626 Z " />
<glyph glyph-name="quoteright" unicode="&#x2019;" horiz-adv-x="600" d="M336 603 L402 603 C386 543 363 518 326 518 L319 518 L307 458 L316 458 L324 457 C365 454 420 473 448 499 C477 527 499 575 512 641 L538 771 L370 771 L336 603 Z " />
<glyph glyph-name="quotesinglbase" unicode="&#x201a;" horiz-adv-x="653" d="M251 0 L317 0 C301 -60 278 -85 241 -85 L234 -85 L222 -145 L232 -145 C346 -145 400 -95 427 38 L453 168 L285 168 L251 0 Z " />
<glyph glyph-name="quotedblleft" unicode="&#x201c;" horiz-adv-x="600" d="M365 627 L304 627 L308 646 C315 692 338 718 371 718 L374 718 L383 717 L394 771 L383 771 C294 771 239 719 217 613 L191 482 L336 482 L365 627 Z M630 627 L569 627 L573 646 C580 692 603 718 636 718 L638 718 L648 717 L659 771 L649 771 C559 771 504 719 483 613 L456 482 L601 482 L630 627 Z " />
<glyph glyph-name="quotedblright" unicode="&#x201d;" horiz-adv-x="600" d="M220 626 L280 626 L277 607 C268 559 247 536 212 536 L202 536 L191 482 L201 482 C291 482 346 535 367 640 L394 771 L249 771 L220 626 Z M485 626 L545 626 L542 607 C534 559 512 536 477 536 L467 536 L456 482 L466 482 C556 482 611 535 632 640 L659 771 L514 771 L485 626 Z " />
<glyph glyph-name="quotedblbase" unicode="&#x201e;" horiz-adv-x="653" d="M153 0 L213 0 L210 -19 C200 -69 185 -85 144 -90 L135 -90 L124 -144 L134 -144 C224 -144 280 -91 300 14 L326 145 L182 145 L153 0 Z M418 0 L478 0 L475 -19 C465 -69 450 -85 409 -90 L400 -90 L389 -144 L399 -144 C489 -144 544 -92 565 14 L591 145 L447 145 L418 0 Z " />
<glyph glyph-name="dagger" unicode="&#x2020;" horiz-adv-x="600" d="M199 -145 L344 -145 L437 386 L592 374 L616 494 L457 482 L517 723 L372 723 L336 482 L182 494 L158 374 L317 386 L199 -145 Z " />
<glyph glyph-name="daggerdbl" unicode="&#x2021;" horiz-adv-x="653" d="M246 -145 L390 -145 L426 96 L581 84 L605 204 L445 193 L484 386 L638 374 L663 494 L503 482 L564 723 L419 723 L383 482 L229 494 L205 374 L364 386 L325 193 L171 204 L147 84 L306 96 L246 -145 Z " />
<glyph glyph-name="bullet" unicode="&#x2022;" horiz-adv-x="600" d="M413 548 C326 548 247 471 247 386 C247 323 293 277 357 277 C444 277 523 353 523 438 C523 503 478 548 413 548 L413 548 Z " />
<glyph glyph-name="ellipsis" unicode="&#x2026;" horiz-adv-x="600" d="M40 0 L161 0 L185 121 L64 121 L40 0 Z M240 0 L360 0 L385 121 L264 121 L240 0 Z M440 0 L561 0 L584 121 L464 121 L440 0 Z " />
<glyph glyph-name="perthousand" unicode="&#x2030;" horiz-adv-x="653" d="M280 723 C184 723 113 625 113 492 C113 417 145 380 211 380 C308 380 379 478 379 611 C379 686 347 723 280 723 L280 723 Z M268 657 C290 657 301 640 301 605 C301 520 266 446 226 446 C201 446 190 463 190 498 C190 581 227 657 268 657 L268 657 Z M28 -18 L110 -18 L665 741 L583 741 L28 -18 Z M558 290 C540 327 516 343 477 343 C386 343 314 242 314 112 C314 37 346 0 409 0 C447 0 477 16 510 53 C528 16 552 0 589 0 C683 0 755 100 755 231 C755 306 723 343 660 343 C621 343 591 327 558 290 L558 290 Z M469 277 C491 277 502 260 502 225 C502 140 467 66 427 66 C402 66 391 83 391 118 C391 201 428 277 469 277 L469 277 Z M644 277 C666 277 677 260 677 225 C677 140 642 66 601 66 C577 66 566 83 566 118 C566 201 603 277 644 277 L644 277 Z " />
<glyph glyph-name="guilsinglleft" unicode="&#x2039;" horiz-adv-x="600" d="M541 411 L500 476 L186 265 L415 55 L482 122 L368 266 L541 411 Z " />
<glyph glyph-name="guilsinglright" unicode="&#x203a;" horiz-adv-x="600" d="M165 121 L206 55 L520 266 L292 476 L224 409 L339 266 L165 121 Z " />
<glyph glyph-name="fraction" unicode="&#x2044;" horiz-adv-x="600" d="M42 -18 L111 -18 L701 741 L632 741 L42 -18 Z " />
<glyph glyph-name="Euro" unicode="&#x20ac;" horiz-adv-x="600" d="M60 240 L137 240 C151 69 239 -18 398 -18 C454 -18 511 -8 579 14 L600 119 C530 90 485 78 443 78 C348 78 285 140 279 240 L471 240 L515 313 L281 313 C287 347 296 383 307 422 L581 422 L626 494 L332 494 C383 606 453 657 555 657 C595 657 634 647 700 622 L720 722 C664 736 619 742 571 742 C473 742 388 715 320 661 C267 619 234 577 190 494 L141 494 L96 422 L162 422 C151 384 144 348 139 313 L104 313 L60 240 Z " />
<glyph glyph-name="trademark" unicode="&#x2122;" horiz-adv-x="600" d="M139 361 L278 361 L287 409 L251 409 L304 675 L340 675 L331 627 L373 627 L392 723 L169 723 L150 627 L192 627 L202 675 L238 675 L185 409 L149 409 L139 361 Z M338 361 L412 361 L472 659 L472 385 L518 385 L625 662 L565 361 L656 361 L665 409 L638 409 L691 675 L718 675 L728 723 L609 723 L529 518 L528 723 L410 723 L401 675 L427 675 L373 409 L347 409 L338 361 Z " />
<glyph glyph-name="minus" unicode="&#x2212;" horiz-adv-x="600" d="M99 253 L602 253 L622 350 L118 350 L99 253 Z " />
<glyph glyph-name="fi" unicode="&#xfb01;" horiz-adv-x="600" d="M18 0 L259 0 L276 85 L225 85 L294 434 L482 434 L412 85 L361 85 L344 0 L585 0 L602 85 L551 85 L638 518 L311 518 L328 599 C341 664 363 698 394 698 C399 698 402 697 407 692 L406 626 L491 626 L518 765 C488 777 460 783 427 783 C301 783 210 707 185 582 L173 518 L122 518 L105 434 L156 434 L86 85 L35 85 L18 0 Z M539 626 L659 626 L688 771 L567 771 L539 626 Z " />
<glyph glyph-name="fl" unicode="&#xfb02;" horiz-adv-x="600" d="M18 0 L259 0 L276 85 L225 85 L294 434 L427 434 L444 518 L311 518 L327 593 C340 662 373 697 422 697 C449 697 479 686 527 658 L412 85 L361 85 L344 0 L585 0 L602 85 L551 85 L688 771 L555 771 C551 771 535 773 513 776 C492 779 442 783 421 783 C291 783 212 714 185 576 L173 518 L122 518 L105 434 L156 434 L86 85 L35 85 L18 0 Z " />
</font>
</svg>
