<?xml version="1.0" encoding="UTF-8"?>
<svg xmlns="http://www.w3.org/2000/svg" xmlns:xlink="http://www.w3.org/1999/xlink" version="1.2" >
<font id="Luxi Mono Regular">
<font-face  font-family="Luxi Mono" units-per-em="1000" ascent="723" descent="-205" font-style="normal" font-weight="400" font-stretch="normal" cap-height="723" x-height="530" underline-position="-46.5" underline-thickness="83" />
<missing-glyph  horiz-adv-x="600" d="" />
<glyph glyph-name="NULL" d="" />
<glyph glyph-name="CR" unicode="&#xd;" horiz-adv-x="250" d="" />
<glyph glyph-name="space" unicode="&#x20;" horiz-adv-x="600" d="" />
<glyph glyph-name="exclam" unicode="&#x21;" horiz-adv-x="600" d="M240 0 L361 0 L361 108 L240 108 L240 0 Z M270 205 L330 205 L348 531 L348 723 L252 723 L252 531 L270 205 Z " />
<glyph glyph-name="quotedbl" unicode="&#x22;" horiz-adv-x="600" d="M143 506 L215 506 L240 771 L119 771 L143 506 Z M384 506 L456 506 L480 771 L360 771 L384 506 Z " />
<glyph glyph-name="numbersign" unicode="&#x23;" horiz-adv-x="600" d="M81 0 L147 0 L201 217 L328 217 L273 0 L340 0 L394 217 L532 217 L547 278 L409 278 L451 446 L565 446 L581 506 L466 506 L520 723 L454 723 L400 506 L273 506 L328 723 L261 723 L207 506 L68 506 L53 446 L192 446 L150 278 L35 278 L20 217 L135 217 L81 0 Z M216 278 L258 446 L385 446 L343 278 L216 278 Z " />
<glyph glyph-name="dollar" unicode="&#x24;" horiz-adv-x="600" d="M257 -60 L318 -60 L318 0 C433 12 503 88 503 200 C503 279 468 326 372 379 L330 402 L330 663 L340 663 C364 663 387 657 417 645 L429 549 L489 549 L489 687 C434 711 383 722 330 723 L330 783 L269 783 L269 723 C154 711 88 648 88 548 C88 476 129 416 213 367 L257 341 L257 60 C221 63 183 73 142 91 L130 188 L70 188 L70 42 C130 19 190 5 257 0 L257 -60 Z M318 310 L350 291 C394 266 416 233 416 189 C416 120 376 67 318 60 L318 310 Z M269 435 L243 450 C196 478 175 510 175 553 C175 612 205 647 269 663 L269 435 Z " />
<glyph glyph-name="percent" unicode="&#x25;" horiz-adv-x="600" d="M30 -18 L93 -18 L569 741 L505 741 L30 -18 Z M139 723 C61 723 10 652 10 543 C10 435 61 362 137 362 C217 362 268 432 268 543 C268 652 217 723 139 723 L139 723 Z M139 663 C181 663 202 622 202 543 C202 464 180 422 139 422 C97 422 76 462 76 542 C76 622 97 663 139 663 L139 663 Z M460 361 C382 361 331 290 331 181 C331 72 382 0 459 0 C538 0 589 71 589 181 C589 290 538 361 460 361 L460 361 Z M460 301 C502 301 523 261 523 180 C523 102 501 60 460 60 C418 60 397 100 397 182 C397 260 418 301 460 301 L460 301 Z " />
<glyph glyph-name="ampersand" unicode="&#x26;" horiz-adv-x="600" d="M453 0 L582 0 L582 60 L522 60 L468 117 C527 191 541 229 547 337 L582 337 L582 397 L424 397 L424 337 L472 337 L473 308 L474 302 C473 247 457 198 429 162 C386 218 335 300 279 408 C385 468 429 526 429 606 C429 694 379 742 287 742 C191 742 133 681 133 580 C133 535 144 491 169 434 C70 366 28 297 28 202 C28 71 111 -18 233 -18 C294 -18 344 3 407 54 L453 0 Z M370 101 C329 68 294 54 252 54 C167 54 115 115 115 215 C115 288 140 338 198 383 C255 268 312 175 370 101 L370 101 Z M253 458 C230 497 220 538 220 585 C220 649 242 681 285 681 C322 681 342 654 342 602 C342 542 316 499 253 458 L253 458 Z " />
<glyph glyph-name="quotesingle" unicode="&#x27;" horiz-adv-x="600" d="M264 470 L336 470 L373 771 L228 771 L264 470 Z " />
<glyph glyph-name="parenleft" unicode="&#x28;" horiz-adv-x="600" d="M480 -84 C417 -65 376 -35 338 18 C287 93 260 193 260 313 C260 428 284 524 332 598 C370 657 414 691 480 711 L480 771 C394 754 334 720 278 656 C199 566 157 448 157 313 C157 185 194 72 268 -18 C326 -89 389 -127 480 -145 L480 -84 Z " />
<glyph glyph-name="parenright" unicode="&#x29;" horiz-adv-x="600" d="M121 -145 C208 -127 267 -94 323 -30 C403 61 444 178 444 313 C444 442 407 554 334 644 C276 716 213 753 121 771 L121 711 C184 692 226 662 263 608 C315 533 342 433 342 313 C342 199 318 102 270 29 C231 -31 188 -64 121 -84 L121 -145 Z " />
<glyph glyph-name="asterisk" unicode="&#x2a;" horiz-adv-x="600" d="M225 300 L293 458 C275 462 263 471 256 484 L141 352 L225 300 Z M79 524 L251 499 L251 500 C250 502 250 506 250 510 C249 520 255 532 265 543 L107 617 L79 524 Z M275 552 C286 556 295 558 300 558 C305 558 313 556 325 552 L350 723 L253 723 L275 552 Z M336 542 C346 531 350 521 350 506 L350 505 L350 500 L522 523 L494 617 L336 542 Z M383 300 L462 355 L343 481 C333 467 321 459 304 457 L383 300 Z " />
<glyph glyph-name="plus" unicode="&#x2b;" horiz-adv-x="600" d="M264 49 L336 49 L336 265 L551 265 L551 337 L336 337 L336 553 L264 553 L264 337 L48 337 L48 265 L264 265 L264 49 Z " />
<glyph glyph-name="comma" unicode="&#x2c;" horiz-adv-x="600" d="M228 0 L288 0 C283 -79 272 -100 228 -108 L228 -156 C274 -151 296 -142 320 -118 C355 -83 373 -25 373 57 L373 145 L228 145 L228 0 Z " />
<glyph glyph-name="hyphen" unicode="&#x2d;" horiz-adv-x="600" d="M72 265 L528 265 L528 337 L72 337 L72 265 Z " />
<glyph glyph-name="period" unicode="&#x2e;" horiz-adv-x="600" d="M228 0 L373 0 L373 145 L228 145 L228 0 Z " />
<glyph glyph-name="slash" unicode="&#x2f;" horiz-adv-x="600" d="M48 -145 L128 -145 L552 771 L472 771 L48 -145 Z " />
<glyph glyph-name="zero" unicode="0" horiz-adv-x="600" d="M300 741 C143 741 47 598 47 362 C47 128 143 -18 296 -18 C458 -18 553 123 553 363 C553 597 457 741 300 741 L300 741 Z M300 681 C396 681 449 567 449 362 C449 152 397 42 299 42 C204 42 151 157 151 362 C151 566 204 681 300 681 L300 681 Z " />
<glyph glyph-name="one" unicode="1" horiz-adv-x="600" d="M55 0 L585 0 L585 60 L369 60 L368 741 L55 647 L55 587 L272 641 L272 60 L55 60 L55 0 Z " />
<glyph glyph-name="two" unicode="2" horiz-adv-x="600" d="M65 0 L541 0 L541 84 L174 84 C198 150 228 184 353 291 L395 326 C487 404 520 461 520 546 C520 667 437 741 301 741 C233 741 165 727 83 695 L83 524 L144 524 L155 639 C203 668 241 681 282 681 C364 681 417 628 417 546 C417 479 379 413 301 341 L241 286 L191 240 C142 196 100 144 65 84 L65 0 Z " />
<glyph glyph-name="three" unicode="3" horiz-adv-x="600" d="M90 5 L132 -3 C179 -13 233 -18 281 -18 C430 -18 528 66 528 195 C528 239 517 277 495 308 C467 348 432 369 362 390 C460 426 503 480 503 569 C503 683 428 741 282 741 C225 741 173 733 107 715 L107 560 L168 560 L173 662 C202 675 233 681 272 681 C355 681 405 635 405 560 C405 464 340 416 212 416 L156 416 L156 356 L222 356 C357 356 425 303 425 200 C425 103 363 42 263 42 C223 42 192 50 163 67 L150 188 L90 188 L90 5 Z " />
<glyph glyph-name="four" unicode="4" horiz-adv-x="600" d="M360 205 L360 60 L227 60 L227 0 L541 0 L541 60 L444 60 L444 205 L553 205 L553 278 L444 278 L444 723 L348 723 L41 278 L41 205 L360 205 Z M116 278 L360 631 L360 278 L116 278 Z " />
<glyph glyph-name="five" unicode="5" horiz-adv-x="600" d="M122 0 C185 -12 235 -18 273 -18 C421 -18 526 79 526 215 C526 357 416 449 244 449 C240 449 228 449 222 448 L214 448 L208 448 L208 639 L511 639 L511 723 L137 723 L137 383 C163 387 187 389 209 389 C340 389 423 320 423 211 C423 113 359 42 272 42 C249 42 227 47 194 60 L182 157 L122 157 L122 0 Z " />
<glyph glyph-name="six" unicode="6" horiz-adv-x="600" d="M459 552 L520 552 L520 706 C448 732 406 741 361 741 C171 741 60 596 60 347 C60 118 155 -18 314 -18 C455 -18 553 86 553 237 C553 379 470 473 345 473 C268 473 213 444 164 378 C166 570 238 681 361 681 C393 681 418 673 448 654 L459 552 Z M326 410 C412 410 455 348 455 226 C455 110 407 42 326 42 C240 42 171 128 171 235 C171 335 238 410 326 410 L326 410 Z " />
<glyph glyph-name="seven" unicode="7" horiz-adv-x="600" d="M250 0 C249 166 332 379 475 575 L517 633 L517 723 L71 723 L71 633 L442 633 L389 554 L328 464 C217 298 149 139 129 0 L250 0 Z " />
<glyph glyph-name="eight" unicode="8" horiz-adv-x="600" d="M202 392 L175 373 C97 318 59 256 59 182 C59 61 153 -18 299 -18 C445 -18 544 64 544 186 C544 260 515 303 423 365 L390 387 L413 408 C496 482 514 513 514 579 C514 677 433 741 310 741 C182 741 92 666 92 559 C92 502 119 455 176 412 L202 392 Z M292 447 L244 484 C201 516 182 546 182 579 C182 640 230 681 300 681 C380 681 424 643 424 574 C424 524 398 480 333 421 L292 447 Z M349 297 C421 249 441 221 441 169 C441 92 387 42 306 42 C217 42 155 101 155 184 C155 245 172 277 250 363 L349 297 Z " />
<glyph glyph-name="nine" unicode="9" horiz-adv-x="600" d="M140 171 L80 171 L80 17 C152 -9 194 -18 239 -18 C429 -18 540 127 540 376 C540 605 446 741 286 741 C144 741 47 637 47 486 C47 345 130 250 254 250 C332 250 387 279 436 345 C434 153 361 42 238 42 C207 42 182 50 152 69 L140 171 Z M274 681 C359 681 429 594 429 489 C429 388 362 313 273 313 C188 313 145 375 145 497 C145 613 193 681 274 681 L274 681 Z " />
<glyph glyph-name="colon" unicode="&#x3a;" horiz-adv-x="600" d="M228 0 L373 0 L373 145 L228 145 L228 0 Z M228 385 L373 385 L373 530 L228 530 L228 385 Z " />
<glyph glyph-name="semicolon" unicode="&#x3b;" horiz-adv-x="600" d="M228 0 L288 0 C283 -79 272 -100 228 -108 L228 -156 C274 -151 296 -142 320 -118 C355 -83 373 -25 373 57 L373 145 L228 145 L228 0 Z M228 385 L373 385 L373 530 L228 530 L228 385 Z " />
<glyph glyph-name="less" unicode="&#x3c;" horiz-adv-x="600" d="M552 0 L552 84 L189 301 L552 518 L552 603 L48 301 L552 0 Z " />
<glyph glyph-name="equal" unicode="&#x3d;" horiz-adv-x="600" d="M48 169 L551 169 L551 241 L48 241 L48 169 Z M48 362 L551 362 L551 434 L48 434 L48 362 Z " />
<glyph glyph-name="greater" unicode="&#x3e;" horiz-adv-x="600" d="M48 0 L552 301 L48 603 L48 518 L411 301 L48 84 L48 0 Z " />
<glyph glyph-name="question" unicode="&#x3f;" horiz-adv-x="600" d="M203 0 L324 0 L324 108 L203 108 L203 0 Z M215 205 L311 205 L311 235 C311 325 323 347 392 396 L414 411 L422 417 C425 419 427 421 428 421 L455 442 C504 478 527 522 527 576 C527 685 450 741 300 741 C234 741 173 731 99 708 L99 524 L160 524 L171 651 C215 672 253 681 295 681 C375 681 424 638 424 568 C424 523 400 483 355 451 L322 428 C252 379 215 312 215 234 L215 205 Z " />
<glyph glyph-name="at" unicode="&#x40;" horiz-adv-x="600" d="M461 73 C414 51 379 42 339 42 C194 42 102 165 102 358 C102 552 190 681 323 681 C398 681 439 645 457 562 C423 571 399 575 378 575 C271 575 187 463 187 319 C187 213 235 139 303 139 C368 139 421 205 449 321 L461 321 L461 142 L579 142 L579 202 L521 202 L521 509 C521 663 457 741 329 741 C157 741 42 585 42 351 C42 124 156 -18 337 -18 C373 -18 409 -11 461 6 L461 73 Z M461 452 C401 281 356 208 311 208 C281 208 259 258 259 329 C259 452 309 530 387 530 C411 530 433 523 461 507 L461 452 Z " />
<glyph glyph-name="A" unicode="A" horiz-adv-x="600" d="M159 217 L402 217 L450 60 L374 60 L374 0 L587 0 L587 60 L551 60 L346 723 L254 723 L48 60 L12 60 L12 0 L181 0 L181 60 L111 60 L159 217 Z M179 278 L281 607 L282 607 L383 278 L179 278 Z " />
<glyph glyph-name="B" unicode="B" horiz-adv-x="600" d="M120 60 L36 60 L36 0 L325 0 C470 0 542 62 542 184 C542 232 531 272 508 303 C481 341 449 359 385 377 C479 417 520 474 520 564 C520 670 459 723 337 723 L36 723 L36 663 L120 663 L120 60 Z M216 60 L216 343 L263 343 C373 343 439 285 439 187 C439 103 391 60 296 60 L216 60 Z M216 404 L216 663 L314 663 C383 663 417 628 417 556 C417 456 365 404 264 404 L216 404 Z " />
<glyph glyph-name="C" unicode="C" horiz-adv-x="600" d="M550 114 C488 68 433 48 373 48 C242 48 164 163 164 359 C164 562 235 681 357 681 C393 681 428 673 466 655 L480 542 L540 542 L540 710 C467 731 409 741 354 741 C165 741 60 606 60 366 C60 124 171 -18 361 -18 C424 -18 479 -2 550 36 L550 114 Z " />
<glyph glyph-name="D" unicode="D" horiz-adv-x="600" d="M24 0 L282 0 C459 0 570 146 570 379 C570 608 470 723 273 723 L24 723 L24 663 L96 663 L96 60 L24 60 L24 0 Z M193 60 L193 663 L244 663 C395 663 466 569 466 368 C466 164 393 60 251 60 L193 60 Z " />
<glyph glyph-name="E" unicode="E" horiz-adv-x="600" d="M36 0 L540 0 L540 187 L479 187 L479 66 L223 66 L223 337 L365 337 L365 276 L425 276 L425 458 L365 458 L365 397 L223 397 L223 663 L455 663 L455 548 L515 548 L515 723 L36 723 L36 663 L126 663 L126 60 L36 60 L36 0 Z " />
<glyph glyph-name="F" unicode="F" horiz-adv-x="600" d="M258 60 L258 319 L404 319 L404 259 L464 259 L464 440 L404 440 L404 379 L258 379 L258 663 L494 663 L494 542 L554 542 L554 723 L54 723 L54 663 L162 663 L162 60 L54 60 L54 0 L391 0 L391 60 L258 60 Z " />
<glyph glyph-name="G" unicode="G" horiz-adv-x="600" d="M528 322 L347 322 L347 262 L431 262 L431 64 C401 53 378 48 352 48 C217 48 140 161 140 360 C140 572 208 682 338 682 C372 682 403 674 442 655 L456 542 L516 542 L516 711 C449 732 393 742 336 742 C141 742 36 610 36 365 C36 122 147 -18 341 -18 C410 -18 464 -2 528 36 L528 322 Z " />
<glyph glyph-name="H" unicode="H" horiz-adv-x="600" d="M180 343 L419 343 L419 60 L371 60 L371 0 L570 0 L570 60 L516 60 L516 663 L570 663 L570 723 L371 723 L371 663 L419 663 L419 404 L180 404 L180 663 L228 663 L228 723 L30 723 L30 663 L84 663 L84 60 L30 60 L30 0 L228 0 L228 60 L180 60 L180 343 Z " />
<glyph glyph-name="I" unicode="I" horiz-adv-x="600" d="M78 0 L521 0 L521 60 L348 60 L348 663 L521 663 L521 723 L78 723 L78 663 L251 663 L251 60 L78 60 L78 0 Z " />
<glyph glyph-name="J" unicode="J" horiz-adv-x="600" d="M54 15 C131 -9 183 -18 238 -18 C375 -18 431 38 431 177 L431 663 L558 663 L558 723 L142 723 L142 663 L335 663 L335 157 C335 76 304 42 228 42 C200 42 172 49 133 66 L114 217 L54 217 L54 15 Z " />
<glyph glyph-name="K" unicode="K" horiz-adv-x="600" d="M36 0 L255 0 L255 60 L195 60 L195 362 L198 362 L430 60 L376 60 L376 0 L584 0 L584 60 L548 60 L289 396 L483 663 L528 663 L528 723 L354 723 L354 663 L408 663 L198 369 L195 369 L195 663 L246 663 L246 723 L36 723 L36 663 L99 663 L99 60 L36 60 L36 0 Z " />
<glyph glyph-name="L" unicode="L" horiz-adv-x="600" d="M562 0 L562 235 L502 235 L502 66 L259 66 L259 663 L374 663 L374 723 L42 723 L42 663 L163 663 L163 60 L42 60 L42 0 L562 0 Z " />
<glyph glyph-name="M" unicode="M" horiz-adv-x="600" d="M12 0 L157 0 L157 60 L115 60 L115 570 L116 570 L258 95 L324 95 L466 551 L467 551 L467 60 L432 60 L432 0 L588 0 L588 60 L546 60 L546 663 L588 663 L588 723 L457 723 L302 226 L301 226 L152 723 L12 723 L12 663 L54 663 L54 60 L12 60 L12 0 Z " />
<glyph glyph-name="N" unicode="N" horiz-adv-x="600" d="M36 0 L204 0 L204 60 L150 60 L150 526 L151 526 L449 0 L510 0 L510 663 L564 663 L564 723 L395 723 L395 663 L449 663 L449 198 L448 198 L150 723 L36 723 L36 663 L90 663 L90 60 L36 60 L36 0 Z " />
<glyph glyph-name="O" unicode="O" horiz-adv-x="600" d="M300 741 C140 741 30 587 30 362 C30 139 140 -18 297 -18 C460 -18 570 135 570 363 C570 586 460 741 300 741 L300 741 Z M300 681 C405 681 466 564 466 361 C466 152 409 42 300 42 C195 42 134 159 134 362 C134 564 195 681 300 681 L300 681 Z " />
<glyph glyph-name="P" unicode="P" horiz-adv-x="600" d="M235 292 L293 292 C452 292 549 389 549 547 C549 665 488 723 365 723 L42 723 L42 663 L138 663 L138 60 L42 60 L42 0 L374 0 L374 60 L235 60 L235 292 Z M235 353 L235 663 L333 663 C409 663 446 620 446 532 C446 414 393 353 289 353 L235 353 Z " />
<glyph glyph-name="Q" unicode="Q" horiz-adv-x="600" d="M300 -18 C376 -85 446 -130 515 -156 C547 -133 575 -106 597 -79 C508 -60 438 -34 385 -1 C504 52 570 181 570 362 C570 586 460 741 300 741 C140 741 30 587 30 362 C30 232 71 113 138 47 C173 12 215 -4 300 -18 L300 -18 Z M300 681 C405 681 466 564 466 361 C466 152 408 42 300 42 C195 42 134 159 134 362 C134 564 195 681 300 681 L300 681 Z " />
<glyph glyph-name="R" unicode="R" horiz-adv-x="600" d="M42 0 L264 0 L264 60 L201 60 L201 316 L298 316 L464 0 L587 0 L587 60 L544 60 L391 346 C477 404 513 463 513 546 C513 656 443 723 328 723 L42 723 L42 663 L105 663 L105 60 L42 60 L42 0 Z M201 376 L201 663 L288 663 C370 663 410 621 410 535 C410 430 356 376 249 376 L201 376 Z " />
<glyph glyph-name="S" unicode="S" horiz-adv-x="600" d="M74 30 C157 -4 223 -18 292 -18 C439 -18 533 68 533 202 C533 287 504 322 378 390 L296 434 C200 486 184 504 184 561 C184 640 224 681 301 681 C341 681 376 670 419 645 L431 531 L491 531 L491 705 C425 730 370 741 308 741 C164 741 90 676 90 549 C90 461 125 417 247 354 L339 306 C405 271 437 230 437 178 C437 98 380 42 298 42 C255 42 210 56 146 90 L134 205 L74 205 L74 30 Z " />
<glyph glyph-name="T" unicode="T" horiz-adv-x="600" d="M125 0 L475 0 L475 60 L349 60 L349 663 L509 663 L509 531 L570 531 L570 723 L30 723 L30 531 L90 531 L90 663 L252 663 L252 60 L125 60 L125 0 Z " />
<glyph glyph-name="U" unicode="U" horiz-adv-x="600" d="M90 663 L90 269 C90 79 162 -18 303 -18 C434 -18 509 77 509 242 L509 663 L570 663 L570 723 L383 723 L383 663 L449 663 L449 260 C449 114 406 42 320 42 C235 42 187 119 187 256 L187 663 L253 663 L253 723 L30 723 L30 663 L90 663 Z " />
<glyph glyph-name="V" unicode="V" horiz-adv-x="600" d="M254 0 L346 0 L552 663 L588 663 L588 723 L419 723 L419 663 L489 663 L320 116 L319 116 L150 663 L226 663 L226 723 L13 723 L13 663 L49 663 L254 0 Z " />
<glyph glyph-name="W" unicode="W" horiz-adv-x="600" d="M118 0 L210 0 L300 475 L301 475 L390 0 L482 0 L565 663 L589 663 L589 723 L456 723 L456 663 L504 663 L439 139 L437 139 L347 614 L271 614 L180 137 L179 137 L114 663 L162 663 L162 723 L11 723 L11 663 L35 663 L118 0 Z " />
<glyph glyph-name="X" unicode="X" horiz-adv-x="600" d="M24 0 L216 0 L216 60 L141 60 L280 302 L420 60 L359 60 L359 0 L576 0 L576 60 L528 60 L352 364 L524 663 L576 663 L576 723 L399 723 L399 663 L462 663 L321 419 L180 663 L229 663 L229 723 L24 723 L24 663 L72 663 L249 357 L78 60 L24 60 L24 0 Z " />
<glyph glyph-name="Y" unicode="Y" horiz-adv-x="600" d="M144 0 L456 0 L456 60 L348 60 L348 323 L544 663 L586 663 L586 723 L403 723 L403 663 L475 663 L321 397 L320 397 L167 663 L239 663 L239 723 L13 723 L13 663 L55 663 L252 322 L252 60 L144 60 L144 0 Z " />
<glyph glyph-name="Z" unicode="Z" horiz-adv-x="600" d="M72 0 L528 0 L528 211 L467 211 L467 66 L179 66 L522 663 L522 723 L81 723 L81 530 L141 530 L141 663 L414 663 L72 66 L72 0 Z " />
<glyph glyph-name="bracketleft" unicode="&#x5b;" horiz-adv-x="600" d="M193 -145 L458 -145 L458 -85 L277 -85 L277 711 L458 711 L458 771 L193 771 L193 -145 Z " />
<glyph glyph-name="backslash" unicode="&#x5c;" horiz-adv-x="600" d="M552 -145 L128 771 L48 771 L472 -145 L552 -145 Z " />
<glyph glyph-name="bracketright" unicode="&#x5d;" horiz-adv-x="600" d="M407 -145 L407 771 L142 771 L142 711 L323 711 L323 -85 L142 -85 L142 -145 L407 -145 Z " />
<glyph glyph-name="asciicircum" unicode="&#x5e;" horiz-adv-x="600" d="M71 265 L152 265 L300 561 L448 265 L529 265 L300 723 L71 265 Z " />
<glyph glyph-name="underscore" unicode="&#x5f;" horiz-adv-x="600" d="M0 0 L0 -72 L600 -72 L600 0 L0 0 Z " />
<glyph glyph-name="grave" unicode="&#x60;" horiz-adv-x="600" d="M408 626 L302 783 L191 783 L348 626 L408 626 Z " />
<glyph glyph-name="a" unicode="a" horiz-adv-x="600" d="M417 0 L569 0 L569 60 L503 60 L503 400 C503 504 459 542 338 542 C258 542 188 528 110 497 L110 391 L170 391 L182 453 C236 473 272 481 307 481 C373 481 407 454 407 401 L407 319 L366 319 C160 319 72 266 72 143 C72 48 135 -12 236 -12 C297 -12 347 9 407 58 L417 0 Z M407 136 C358 83 316 60 265 60 C205 60 174 90 174 147 C174 228 232 259 381 259 L407 259 L407 136 Z " />
<glyph glyph-name="b" unicode="b" horiz-adv-x="600" d="M187 0 C237 -8 270 -12 300 -12 C453 -12 546 101 546 287 C546 441 474 542 366 542 C297 542 244 506 187 422 L187 771 L30 771 L30 711 L90 711 L90 0 L187 0 Z M187 349 C237 429 283 464 339 464 C409 464 444 403 444 282 C444 126 399 60 291 60 C266 60 236 63 187 71 L187 349 Z " />
<glyph glyph-name="c" unicode="c" horiz-adv-x="600" d="M503 98 C446 71 402 60 356 60 C243 60 176 138 176 269 C176 399 236 482 331 482 C356 482 382 476 421 460 L436 347 L497 347 L497 515 C444 534 394 542 337 542 C170 542 72 442 72 271 C72 97 174 -12 338 -12 C402 -12 453 -1 503 22 L503 98 Z " />
<glyph glyph-name="d" unicode="d" horiz-adv-x="600" d="M413 711 L413 530 C367 538 330 542 302 542 C147 542 54 430 54 243 C54 90 126 -12 234 -12 C303 -12 356 24 413 108 L413 0 L570 0 L570 60 L510 60 L510 771 L293 771 L293 711 L413 711 Z M413 181 C363 101 317 67 261 67 C191 67 156 127 156 249 C156 404 202 470 309 470 C333 470 368 466 413 458 L413 181 Z " />
<glyph glyph-name="e" unicode="e" horiz-adv-x="600" d="M539 247 L539 277 C539 453 466 542 322 542 C164 542 60 433 60 269 C60 100 172 -12 342 -12 C410 -12 466 1 525 30 L525 103 C460 73 409 60 355 60 C301 60 259 73 227 100 C189 132 172 170 163 247 L539 247 Z M164 307 C174 421 227 482 315 482 C396 482 437 431 437 329 L437 307 L164 307 Z " />
<glyph glyph-name="f" unicode="f" horiz-adv-x="600" d="M72 0 L482 0 L482 60 L301 60 L301 452 L518 452 L518 518 L301 518 L301 586 C301 688 327 723 405 723 C433 723 460 716 495 700 L510 624 L570 624 L570 744 C503 773 451 784 392 784 C260 784 204 722 204 576 L204 518 L72 518 L72 452 L204 452 L204 60 L72 60 L72 0 Z " />
<glyph glyph-name="g" unicode="g" horiz-adv-x="600" d="M103 -12 C63 -38 42 -68 42 -99 C42 -169 117 -205 263 -205 C445 -205 539 -150 539 -42 C539 34 488 72 388 72 L235 72 C189 72 167 81 167 99 C167 113 176 127 196 145 L215 161 C238 157 256 155 274 155 C397 155 488 235 488 343 C488 388 473 425 438 471 L538 455 L566 542 L367 526 C337 537 310 542 276 542 C145 542 59 465 59 348 C59 275 89 227 158 184 L141 168 C102 133 84 103 84 74 C84 47 98 26 130 6 L103 -12 Z M197 0 L355 0 C413 0 442 -19 442 -58 C442 -110 377 -144 275 -144 C185 -144 138 -122 138 -80 C138 -56 151 -35 178 -15 L197 0 Z M277 482 C348 482 398 426 398 346 C398 269 348 215 275 215 C204 215 155 267 155 343 C155 423 206 482 277 482 L277 482 Z " />
<glyph glyph-name="h" unicode="h" horiz-adv-x="600" d="M34 0 L245 0 L245 60 L191 60 L191 344 C239 429 283 467 334 467 C387 467 414 425 414 342 L414 60 L366 60 L366 0 L571 0 L571 60 L510 60 L510 352 C510 477 460 542 363 542 C295 542 244 508 191 428 L191 771 L34 771 L34 711 L94 711 L94 60 L34 60 L34 0 Z " />
<glyph glyph-name="i" unicode="i" horiz-adv-x="600" d="M72 0 L539 0 L539 60 L358 60 L358 530 L72 530 L72 469 L262 469 L262 60 L72 60 L72 0 Z M258 650 L366 650 L366 771 L258 771 L258 650 Z " />
<glyph glyph-name="j" unicode="j" horiz-adv-x="600" d="M78 -169 C140 -195 185 -206 233 -206 C364 -206 441 -118 441 32 L441 530 L128 530 L128 469 L344 469 L344 61 C344 -87 310 -145 225 -145 C197 -145 177 -138 153 -119 L138 -13 L78 -13 L78 -169 Z M339 650 L447 650 L447 771 L339 771 L339 650 Z " />
<glyph glyph-name="k" unicode="k" horiz-adv-x="600" d="M401 0 L574 0 L574 60 L526 60 L288 293 L465 469 L534 469 L534 530 L323 530 L323 469 L380 469 L205 289 L193 289 L193 771 L36 771 L36 711 L96 711 L96 60 L36 60 L36 0 L241 0 L241 60 L193 60 L193 255 L205 255 L401 60 L401 0 Z " />
<glyph glyph-name="l" unicode="l" horiz-adv-x="600" d="M72 0 L539 0 L539 60 L358 60 L358 771 L72 771 L72 711 L262 711 L262 60 L72 60 L72 0 Z " />
<glyph glyph-name="m" unicode="m" horiz-adv-x="600" d="M13 0 L172 0 L172 60 L136 60 L136 337 C169 428 195 467 225 467 C246 467 257 440 257 389 L257 0 L380 0 L380 60 L344 60 L344 337 C344 356 361 398 380 425 C399 453 418 467 433 467 C454 467 465 433 465 367 L465 0 L588 0 L588 60 L552 60 L552 408 C552 496 521 542 461 542 C409 542 373 509 341 429 C331 508 304 542 252 542 C206 542 182 519 136 429 L136 530 L13 530 L13 469 L49 469 L49 60 L13 60 L13 0 Z " />
<glyph glyph-name="n" unicode="n" horiz-adv-x="600" d="M34 0 L245 0 L245 60 L191 60 L191 344 C239 429 283 467 334 467 C387 467 414 425 414 342 L414 60 L366 60 L366 0 L571 0 L571 60 L510 60 L510 352 C510 477 460 542 363 542 C295 542 244 508 191 428 L191 530 L34 530 L34 469 L94 469 L94 60 L34 60 L34 0 Z " />
<glyph glyph-name="o" unicode="o" horiz-adv-x="600" d="M300 542 C147 542 54 438 54 265 C54 94 147 -12 296 -12 C453 -12 546 91 546 266 C546 438 453 542 300 542 L300 542 Z M300 482 C394 482 442 410 442 266 C442 123 393 49 300 49 C205 49 158 121 158 266 C158 409 206 482 300 482 L300 482 Z " />
<glyph glyph-name="p" unicode="p" horiz-adv-x="600" d="M187 -133 L187 0 C237 -8 270 -12 300 -12 C453 -12 546 101 546 287 C546 441 474 542 366 542 C297 542 244 506 187 422 L187 530 L30 530 L30 469 L90 469 L90 -133 L30 -133 L30 -193 L308 -193 L308 -133 L187 -133 Z M187 349 C237 429 283 464 339 464 C409 464 444 403 444 282 C444 126 398 60 291 60 C266 60 236 63 187 71 L187 349 Z " />
<glyph glyph-name="q" unicode="q" horiz-adv-x="600" d="M413 -132 L293 -132 L293 -193 L570 -193 L570 -132 L510 -132 L510 530 L413 530 C410 530 398 532 381 535 C364 538 322 542 302 542 C147 542 54 430 54 243 C54 90 126 -12 234 -12 C303 -12 356 24 413 108 L413 -132 Z M413 181 C363 101 317 67 261 67 C191 67 156 127 156 249 C156 404 202 470 309 470 C333 470 368 466 413 458 L413 181 Z " />
<glyph glyph-name="r" unicode="r" horiz-adv-x="600" d="M258 342 C302 423 349 458 412 458 C433 458 450 453 469 440 L479 348 L540 348 L540 508 C503 531 468 542 428 542 C364 542 316 509 258 427 L258 530 L36 530 L36 469 L162 469 L162 60 L36 60 L36 0 L439 0 L439 60 L258 60 L258 342 Z " />
<glyph glyph-name="s" unicode="s" horiz-adv-x="600" d="M84 30 C160 1 227 -12 303 -12 C446 -12 531 49 531 153 C531 226 487 268 378 296 L279 322 C211 340 179 366 179 403 C179 454 221 482 298 482 C346 482 385 474 422 456 L434 367 L494 367 L494 507 C432 531 373 542 298 542 C158 542 87 490 87 387 C87 312 134 267 246 238 L346 211 C412 194 435 173 435 131 C435 77 395 49 319 49 C272 49 225 59 156 85 L144 175 L84 175 L84 30 Z " />
<glyph glyph-name="t" unicode="t" horiz-adv-x="600" d="M504 98 C445 71 404 60 368 60 C306 60 290 87 290 190 L290 452 L498 452 L498 518 L290 518 L290 650 L194 650 L194 518 L58 518 L58 452 L194 452 L194 146 C194 33 236 -12 340 -12 C398 -12 447 1 504 30 L504 98 Z " />
<glyph glyph-name="u" unicode="u" horiz-adv-x="600" d="M358 530 L358 469 L412 469 L412 186 C363 101 320 64 269 64 C217 64 190 106 190 188 L190 530 L33 530 L33 469 L93 469 L93 177 C93 53 144 -12 241 -12 C309 -12 359 22 412 102 L412 0 L569 0 L569 60 L509 60 L509 530 L358 530 Z " />
<glyph glyph-name="v" unicode="v" horiz-adv-x="600" d="M251 0 L349 0 L537 469 L573 469 L573 530 L394 530 L394 469 L472 469 L320 90 L319 90 L167 469 L245 469 L245 530 L27 530 L27 469 L63 469 L251 0 Z " />
<glyph glyph-name="w" unicode="w" horiz-adv-x="600" d="M118 0 L211 0 L300 344 L301 344 L388 0 L482 0 L565 470 L589 470 L589 530 L456 530 L456 470 L504 470 L441 115 L440 115 L353 451 L271 451 L185 116 L184 116 L121 470 L163 470 L163 530 L11 530 L11 470 L35 470 L118 0 Z " />
<glyph glyph-name="x" unicode="x" horiz-adv-x="600" d="M29 0 L214 0 L214 60 L165 60 L288 217 L412 60 L363 60 L363 0 L581 0 L581 60 L523 60 L362 265 L524 469 L581 469 L581 530 L404 530 L404 469 L455 469 L328 308 L200 469 L243 469 L243 530 L29 530 L29 469 L89 469 L251 265 L89 60 L29 60 L29 0 Z " />
<glyph glyph-name="y" unicode="y" horiz-adv-x="600" d="M251 0 L284 0 L231 -132 L134 -132 L134 -193 L368 -193 L368 -132 L296 -132 L349 0 L537 469 L573 469 L573 530 L394 530 L394 469 L472 469 L320 90 L319 90 L167 469 L245 469 L245 530 L27 530 L27 469 L63 469 L251 0 Z " />
<glyph glyph-name="z" unicode="z" horiz-adv-x="600" d="M60 0 L534 0 L534 168 L473 168 L473 69 L176 69 L516 469 L516 530 L78 530 L78 373 L138 373 L138 469 L399 469 L60 69 L60 0 Z " />
<glyph glyph-name="braceleft" unicode="&#x7b;" horiz-adv-x="600" d="M489 -145 L489 -84 L460 -84 C370 -84 324 -51 324 14 C324 27 326 43 328 59 L339 120 C341 128 342 148 342 159 C342 231 312 277 240 313 C312 350 343 396 343 466 C343 479 342 490 339 507 L328 568 C325 585 324 598 324 610 C324 677 369 711 460 711 L489 711 L489 771 L425 771 C313 771 234 703 234 606 C234 587 236 565 240 541 L251 481 C254 463 255 452 255 440 C255 375 218 343 144 343 L89 343 L89 283 L144 283 C217 283 254 251 254 189 C254 176 252 155 251 145 L240 86 C236 60 234 41 234 23 C234 -77 311 -145 425 -145 L489 -145 Z " />
<glyph glyph-name="bar" unicode="&#x7c;" horiz-adv-x="600" d="M264 -145 L336 -145 L336 771 L264 771 L264 -145 Z " />
<glyph glyph-name="braceright" unicode="&#x7d;" horiz-adv-x="600" d="M111 771 L111 711 L140 711 C230 711 276 678 276 613 C276 598 275 585 272 568 L261 507 C258 491 257 480 257 467 C257 396 288 350 360 313 C288 277 257 231 257 161 C257 148 258 135 261 120 L272 59 C275 41 276 29 276 16 C276 -51 230 -84 140 -84 L111 -84 L111 -145 L175 -145 C287 -145 366 -76 366 20 C366 40 364 62 360 86 L349 145 C346 163 345 174 345 187 C345 251 382 283 456 283 L511 283 L511 343 L456 343 C383 343 345 375 345 437 C345 451 346 464 349 481 L360 541 C364 568 366 585 366 604 C366 703 288 771 175 771 L111 771 Z " />
<glyph glyph-name="asciitilde" unicode="&#x7e;" horiz-adv-x="600" d="M131 217 C133 278 150 305 190 305 C203 305 218 301 227 295 L260 272 L314 235 C349 211 379 201 412 201 C447 201 476 211 498 230 C527 257 539 292 541 361 L469 361 C467 299 450 273 410 273 C397 273 382 277 373 283 L340 306 L286 343 C251 367 221 377 188 377 C153 377 124 367 102 348 C73 321 61 286 59 217 L131 217 Z " />
<glyph glyph-name="nbspace" unicode="&#xa0;" horiz-adv-x="600" d="" />
<glyph glyph-name="exclamdown" unicode="&#xa1;" horiz-adv-x="600" d="M361 530 L240 530 L240 422 L361 422 L361 530 Z M330 325 L270 325 L252 0 L252 -193 L348 -193 L348 0 L330 325 Z " />
<glyph glyph-name="cent" unicode="&#xa2;" horiz-adv-x="600" d="M306 0 L367 0 L367 85 C421 88 469 97 518 114 L518 184 C454 160 405 149 367 149 L367 578 C392 578 416 573 440 560 L452 458 L512 458 L512 615 C467 626 417 635 367 639 L367 723 L306 723 L306 637 C160 616 83 521 83 360 C83 200 160 106 306 87 L306 0 Z M306 155 C268 165 250 175 231 198 C201 233 186 286 186 359 C186 428 200 483 226 520 C246 549 266 562 306 576 L306 155 Z " />
<glyph glyph-name="sterling" unicode="&#xa3;" horiz-adv-x="600" d="M73 0 L510 0 L510 84 L180 84 C242 132 269 189 269 273 L269 356 L398 356 L398 416 L269 416 L269 582 C269 648 300 681 361 681 C382 681 402 677 430 669 L442 567 L502 567 L502 717 C451 733 407 741 365 741 C245 741 173 666 173 542 L173 416 L88 416 L88 356 L173 356 L173 250 C173 163 143 114 73 87 L73 0 Z " />
<glyph glyph-name="currency" unicode="&#xa4;" horiz-adv-x="600" d="M169 154 C213 123 252 110 299 110 C346 110 385 123 430 154 L515 69 L558 112 L472 197 C503 239 516 278 516 327 C516 376 503 415 472 458 L558 543 L515 586 L430 500 C386 530 346 544 299 544 C253 544 212 530 169 500 L83 586 L41 543 L126 458 C95 416 82 376 82 327 C82 279 95 239 126 197 L41 111 L83 69 L169 154 Z M299 472 C381 472 444 409 444 327 C444 245 381 182 299 182 C216 182 154 245 154 328 C154 409 218 472 299 472 L299 472 Z " />
<glyph glyph-name="yen" unicode="&#xa5;" horiz-adv-x="600" d="M144 0 L456 0 L456 60 L348 60 L348 199 L517 199 L517 260 L348 260 L348 323 L370 361 L517 361 L517 422 L405 422 L544 663 L576 663 L576 723 L403 723 L403 663 L475 663 L321 397 L320 397 L167 663 L239 663 L239 723 L24 723 L24 663 L56 663 L195 422 L84 422 L84 361 L230 361 L252 322 L252 260 L84 260 L84 199 L252 199 L252 60 L144 60 L144 0 Z " />
<glyph glyph-name="brokenbar" unicode="&#xa6;" horiz-adv-x="600" d="M264 -145 L336 -145 L336 217 L264 217 L264 -145 Z M264 410 L336 410 L336 771 L264 771 L264 410 Z " />
<glyph glyph-name="section" unicode="&#xa7;" horiz-adv-x="600" d="M75 -126 C144 -151 211 -162 288 -162 C434 -162 524 -98 524 7 C524 61 502 99 449 138 C493 187 512 229 512 279 C512 354 467 407 376 442 L276 481 C198 510 165 543 165 587 C165 648 215 681 307 681 C345 681 380 676 425 663 L436 564 L497 564 L497 720 C431 736 382 742 329 742 C171 742 81 678 81 566 C81 516 100 481 148 446 C99 399 78 356 78 304 C78 234 121 181 206 148 L326 101 C415 66 440 43 440 -2 C440 -64 387 -102 301 -102 C251 -102 201 -92 147 -72 L135 31 L75 31 L75 -126 Z M371 179 L240 232 C187 253 160 286 160 329 C160 357 172 383 200 413 L224 404 L349 358 C410 335 440 303 440 261 C440 230 427 202 396 168 L371 179 Z " />
<glyph glyph-name="dieresis" unicode="&#xa8;" horiz-adv-x="600" d="M137 627 L233 627 L233 723 L137 723 L137 627 Z M366 627 L462 627 L462 723 L366 723 L366 627 Z " />
<glyph glyph-name="copyright" unicode="&#xa9;" horiz-adv-x="600" d="M300 741 C137 741 30 591 30 362 C30 134 136 -18 296 -18 C464 -18 570 129 570 363 C570 591 463 741 300 741 L300 741 Z M300 687 C425 687 509 556 509 363 C509 166 425 36 298 36 C174 36 90 167 90 362 C90 557 174 687 300 687 L300 687 Z M426 168 L426 220 C394 203 364 195 332 195 C251 195 200 260 200 361 C200 460 248 527 319 527 C338 527 357 523 383 515 L383 469 L424 469 L424 560 L416 562 C388 569 342 575 317 575 C210 575 140 489 140 357 C140 229 213 141 318 141 C345 141 379 149 416 164 L426 168 Z " />
<glyph glyph-name="ordfeminine" unicode="&#xaa;" horiz-adv-x="600" d="M386 358 L545 358 L545 418 L458 418 L458 629 C458 707 407 741 292 741 C241 741 187 733 99 712 L99 620 L172 620 L172 661 C215 675 245 681 276 681 C345 681 374 660 374 611 L374 584 L336 584 C156 584 66 541 66 455 C66 391 128 349 222 349 C275 349 319 364 374 399 L386 358 Z M374 456 C326 422 287 409 240 409 C186 409 157 426 157 457 C157 503 223 527 354 527 L374 527 L374 456 Z " />
<glyph glyph-name="guillemotleft" unicode="&#xab;" horiz-adv-x="600" d="M540 90 L401 265 L540 440 L498 482 L281 265 L498 48 L540 90 Z M299 90 L161 265 L299 440 L257 482 L40 265 L257 48 L299 90 Z " />
<glyph glyph-name="logicalnot" unicode="&#xac;" horiz-adv-x="600" d="M479 96 L551 96 L551 265 L551 337 L48 337 L48 265 L479 265 L479 96 Z " />
<glyph glyph-name="sfthyphen" unicode="&#xad;" horiz-adv-x="600" d="M72 265 L528 265 L528 337 L72 337 L72 265 Z " />
<glyph glyph-name="registered" unicode="&#xae;" horiz-adv-x="600" d="M300 741 C137 741 30 591 30 362 C30 134 136 -18 296 -18 C464 -18 570 129 570 363 C570 591 463 741 300 741 L300 741 Z M300 687 C425 687 509 556 509 363 C509 166 425 36 298 36 C174 36 90 167 90 362 C90 557 174 687 300 687 L300 687 Z M178 155 L298 155 L298 190 L262 190 L262 336 L293 336 L388 155 L446 155 L446 190 L434 190 L344 353 C394 381 416 415 416 468 C416 534 380 568 310 568 L178 568 L178 534 L208 534 L208 190 L178 190 L178 155 Z M262 370 L262 534 L280 534 C336 534 355 515 355 462 C355 401 325 370 265 370 L262 370 Z " />
<glyph glyph-name="macron" unicode="&#xaf;" horiz-adv-x="600" d="M131 626 L468 626 L468 687 L131 687 L131 626 Z " />
<glyph glyph-name="degree" unicode="&#xb0;" horiz-adv-x="600" d="M300 741 C219 741 155 677 155 596 C155 516 219 451 298 451 C380 451 444 515 444 596 C444 677 380 741 300 741 L300 741 Z M299 681 C346 681 384 643 384 597 C384 549 346 512 299 512 C253 512 215 550 215 597 C215 643 253 681 299 681 L299 681 Z " />
<glyph glyph-name="plusminus" unicode="&#xb1;" horiz-adv-x="600" d="M264 145 L336 145 L336 338 L551 338 L551 410 L336 410 L336 603 L264 603 L264 410 L48 410 L48 338 L264 338 L264 145 Z M551 0 L551 72 L48 72 L48 0 L551 0 Z " />
<glyph glyph-name="twosuperior" unicode="&#xb2;" horiz-adv-x="600" d="M125 356 L474 356 L474 428 L224 428 C234 458 266 482 327 504 L367 519 C435 544 468 581 468 633 C468 705 407 742 288 742 C245 742 202 736 143 722 L125 717 L125 618 L185 618 L191 663 C219 675 249 681 287 681 C349 681 381 662 381 624 C381 597 360 576 315 558 L268 540 C173 502 150 484 125 428 L125 356 Z " />
<glyph glyph-name="threesuperior" unicode="&#xb3;" horiz-adv-x="600" d="M128 368 C187 354 231 349 281 349 C407 349 471 385 471 456 C471 506 440 535 368 550 C440 574 471 604 471 648 C471 710 411 742 295 742 C236 742 187 735 128 717 L128 627 L188 627 L194 666 C220 676 251 681 290 681 C354 681 384 666 384 633 C384 593 350 582 229 582 L182 582 L182 521 L227 521 C347 521 384 507 384 461 C384 426 349 410 274 410 C243 410 217 413 194 419 L188 452 L128 452 L128 368 Z " />
<glyph glyph-name="acute" unicode="&#xb4;" horiz-adv-x="600" d="M191 626 L251 626 L408 783 L296 783 L191 626 Z " />
<glyph glyph-name="mu" unicode="&#xb5;" horiz-adv-x="600" d="M93 469 L93 177 L93 -193 L190 -193 L190 -5 C210 -10 227 -12 244 -12 C315 -12 356 16 412 102 L412 0 L569 0 L569 60 L509 60 L509 530 L358 530 L358 469 L412 469 L412 186 C363 101 320 64 269 64 C217 64 190 106 190 188 L190 530 L33 530 L33 469 L93 469 Z " />
<glyph glyph-name="paragraph" unicode="&#xb6;" horiz-adv-x="600" d="M268 -144 L329 -144 L329 663 L413 663 L413 -144 L474 -144 L474 723 L331 723 C321 723 312 723 304 724 L270 727 C256 728 235 729 223 729 C106 729 48 674 48 564 C48 511 61 469 89 437 C126 393 174 373 268 362 L268 -144 Z " />
<glyph glyph-name="periodcentered" unicode="&#xb7;" horiz-adv-x="600" d="M240 205 L361 205 L361 326 L240 326 L240 205 Z " />
<glyph glyph-name="cedilla" unicode="&#xb8;" horiz-adv-x="600" d="M272 0 L225 -85 C289 -87 317 -101 317 -133 C317 -157 300 -169 266 -169 C248 -169 231 -166 215 -161 L215 -201 C240 -208 264 -211 285 -211 C342 -211 385 -176 385 -131 C385 -88 343 -54 290 -53 L319 0 L272 0 Z " />
<glyph glyph-name="onesuperior" unicode="&#xb9;" horiz-adv-x="600" d="M130 356 L470 356 L470 416 L342 416 L342 741 L130 693 L130 633 L258 657 L258 416 L130 416 L130 356 Z " />
<glyph glyph-name="ordmasculine" unicode="&#xba;" horiz-adv-x="600" d="M300 741 C160 741 72 666 72 546 C72 426 160 350 297 350 C441 350 528 424 528 546 C528 666 440 741 300 741 L300 741 Z M300 681 C381 681 438 625 438 546 C438 466 381 410 299 410 C219 410 162 467 162 546 C162 625 219 681 300 681 L300 681 Z " />
<glyph glyph-name="guillemotright" unicode="&#xbb;" horiz-adv-x="600" d="M60 90 L102 48 L319 265 L102 482 L60 440 L199 265 L60 90 Z M301 90 L343 48 L560 265 L343 482 L301 440 L439 265 L301 90 Z " />
<glyph glyph-name="onequarter" unicode="&#xbc;" horiz-adv-x="600" d="M99 355 L171 355 L171 741 L21 691 L21 631 L99 657 L99 355 Z M42 -18 L109 -18 L490 741 L421 741 L42 -18 Z M516 0 L516 87 L570 87 L570 147 L516 147 L516 386 L441 386 L260 147 L260 87 L443 87 L443 0 L516 0 Z M328 147 L443 298 L443 147 L328 147 Z " />
<glyph glyph-name="onehalf" unicode="&#xbd;" horiz-adv-x="600" d="M36 -18 L103 -18 L484 741 L416 741 L36 -18 Z M323 0 L570 0 L570 72 L403 72 C410 95 428 115 456 134 C470 144 478 149 482 153 C484 154 485 154 485 154 L486 155 L487 155 L503 168 C549 203 570 238 570 281 C570 349 523 386 435 386 C393 386 360 379 323 361 L323 284 L377 284 L377 317 C399 328 413 332 429 332 C469 332 491 311 491 271 C491 248 482 227 467 215 L440 192 L424 176 C420 173 415 169 409 165 C363 132 339 107 323 75 L323 0 Z M99 355 L171 355 L171 741 L21 691 L21 631 L99 657 L99 355 Z " />
<glyph glyph-name="threequarters" unicode="&#xbe;" horiz-adv-x="600" d="M84 -18 L152 -18 L533 741 L464 741 L84 -18 Z M18 368 L30 364 C65 354 94 349 119 349 C205 349 258 391 258 460 C258 508 232 536 173 552 C233 577 259 607 259 652 C259 710 217 742 138 742 C101 742 68 735 18 718 L18 641 L72 641 L72 672 C90 683 106 687 127 687 C165 687 185 670 185 637 C185 599 157 580 98 580 L79 580 L79 526 L96 526 C156 526 185 505 185 462 C185 424 164 404 125 404 C105 404 88 408 72 417 L72 448 L18 448 L18 368 Z M534 0 L534 87 L588 87 L588 147 L534 147 L534 386 L459 386 L278 147 L278 87 L461 87 L461 0 L534 0 Z M346 147 L461 298 L461 147 L346 147 Z " />
<glyph glyph-name="questiondown" unicode="&#xbf;" horiz-adv-x="600" d="M398 530 L278 530 L278 421 L398 421 L398 530 Z M386 325 L290 325 L290 295 C290 206 277 182 210 135 C203 130 197 126 192 122 C182 115 178 113 173 109 L146 88 C97 52 74 8 74 -46 C74 -155 151 -211 302 -211 C367 -211 426 -201 502 -178 L502 6 L442 6 L430 -121 C387 -141 348 -151 306 -151 C226 -151 177 -108 177 -37 C177 8 200 46 246 79 L279 102 C351 154 386 218 386 296 L386 325 Z " />
<glyph glyph-name="Agrave" unicode="&#xc0;" horiz-adv-x="600" d="M159 217 L402 217 L450 60 L374 60 L374 0 L587 0 L587 60 L551 60 L346 723 L254 723 L48 60 L12 60 L12 0 L181 0 L181 60 L111 60 L159 217 Z M179 278 L281 607 L282 607 L383 278 L179 278 Z M360 783 L255 940 L143 940 L300 783 L360 783 Z " />
<glyph glyph-name="Aacute" unicode="&#xc1;" horiz-adv-x="600" d="M159 217 L402 217 L450 60 L374 60 L374 0 L587 0 L587 60 L551 60 L346 723 L254 723 L48 60 L12 60 L12 0 L181 0 L181 60 L111 60 L159 217 Z M179 278 L281 607 L282 607 L383 278 L179 278 Z M240 783 L300 783 L456 940 L345 940 L240 783 Z " />
<glyph glyph-name="Acircumflex" unicode="&#xc2;" horiz-adv-x="600" d="M159 217 L402 217 L450 60 L374 60 L374 0 L587 0 L587 60 L551 60 L346 723 L254 723 L48 60 L12 60 L12 0 L181 0 L181 60 L111 60 L159 217 Z M179 278 L281 607 L282 607 L383 278 L179 278 Z M121 783 L181 783 L299 882 L301 882 L418 783 L478 783 L353 940 L246 940 L121 783 Z " />
<glyph glyph-name="Atilde" unicode="&#xc3;" horiz-adv-x="600" d="M159 217 L402 217 L450 60 L374 60 L374 0 L587 0 L587 60 L551 60 L346 723 L254 723 L48 60 L12 60 L12 0 L181 0 L181 60 L111 60 L159 217 Z M179 278 L281 607 L282 607 L383 278 L179 278 Z M191 783 C194 821 207 838 229 838 C241 838 258 831 276 820 L305 802 C326 789 348 783 372 783 C429 783 456 818 462 898 L408 898 C404 859 393 842 370 842 C358 842 345 847 323 861 L293 879 C273 891 250 898 227 898 C169 898 142 864 137 783 L191 783 Z " />
<glyph glyph-name="Adieresis" unicode="&#xc4;" horiz-adv-x="600" d="M159 217 L402 217 L450 60 L374 60 L374 0 L587 0 L587 60 L551 60 L346 723 L254 723 L48 60 L12 60 L12 0 L181 0 L181 60 L111 60 L159 217 Z M179 278 L281 607 L282 607 L383 278 L179 278 Z M137 783 L233 783 L233 879 L137 879 L137 783 Z M366 783 L462 783 L462 879 L366 879 L366 783 Z " />
<glyph glyph-name="Aring" unicode="&#xc5;" horiz-adv-x="600" d="M159 217 L402 217 L450 60 L374 60 L374 0 L587 0 L587 60 L551 60 L346 723 L254 723 L48 60 L12 60 L12 0 L181 0 L181 60 L111 60 L159 217 Z M179 278 L281 607 L282 607 L383 278 L179 278 Z M300 945 C238 945 189 896 189 834 C189 772 238 723 299 723 C362 723 411 771 411 834 C411 896 362 945 300 945 L300 945 Z M300 902 C338 902 369 872 369 834 C369 795 338 765 299 765 C262 765 231 796 231 834 C231 872 262 902 300 902 L300 902 Z " />
<glyph glyph-name="AE" unicode="&#xc6;" horiz-adv-x="600" d="M402 343 L489 343 L489 284 L549 284 L549 464 L489 464 L489 404 L402 404 L402 663 L525 663 L525 570 L585 570 L585 723 L312 723 L27 60 L6 60 L6 0 L148 0 L148 60 L89 60 L151 205 L312 205 L312 60 L258 60 L258 0 L594 0 L594 163 L533 163 L533 60 L402 60 L402 343 Z M177 266 L312 577 L312 266 L177 266 Z " />
<glyph glyph-name="Ccedilla" unicode="&#xc7;" horiz-adv-x="600" d="M550 114 C488 68 433 48 373 48 C242 48 164 163 164 359 C164 562 235 681 357 681 C393 681 428 673 466 655 L480 542 L540 542 L540 710 C467 731 409 741 354 741 C165 741 60 606 60 366 C60 124 171 -18 361 -18 C424 -18 479 -2 550 36 L550 114 Z M327 0 L280 -85 C343 -87 371 -101 371 -133 C371 -157 354 -169 321 -169 C303 -169 285 -166 270 -161 L270 -201 C296 -208 318 -211 340 -211 C396 -211 439 -176 439 -131 C439 -88 398 -54 345 -53 L374 0 L327 0 Z " />
<glyph glyph-name="Egrave" unicode="&#xc8;" horiz-adv-x="600" d="M36 0 L540 0 L540 187 L479 187 L479 66 L223 66 L223 337 L365 337 L365 276 L425 276 L425 458 L365 458 L365 397 L223 397 L223 663 L455 663 L455 548 L515 548 L515 723 L36 723 L36 663 L126 663 L126 60 L36 60 L36 0 Z M361 783 L256 940 L144 940 L301 783 L361 783 Z " />
<glyph glyph-name="Eacute" unicode="&#xc9;" horiz-adv-x="600" d="M36 0 L540 0 L540 187 L479 187 L479 66 L223 66 L223 337 L365 337 L365 276 L425 276 L425 458 L365 458 L365 397 L223 397 L223 663 L455 663 L455 548 L515 548 L515 723 L36 723 L36 663 L126 663 L126 60 L36 60 L36 0 Z M235 783 L295 783 L452 940 L340 940 L235 783 Z " />
<glyph glyph-name="Ecircumflex" unicode="&#xca;" horiz-adv-x="600" d="M36 0 L540 0 L540 187 L479 187 L479 66 L223 66 L223 337 L365 337 L365 276 L425 276 L425 458 L365 458 L365 397 L223 397 L223 663 L455 663 L455 548 L515 548 L515 723 L36 723 L36 663 L126 663 L126 60 L36 60 L36 0 Z M126 783 L186 783 L304 882 L306 882 L423 783 L483 783 L358 940 L251 940 L126 783 Z " />
<glyph glyph-name="Edieresis" unicode="&#xcb;" horiz-adv-x="600" d="M36 0 L540 0 L540 187 L479 187 L479 66 L223 66 L223 337 L365 337 L365 276 L425 276 L425 458 L365 458 L365 397 L223 397 L223 663 L455 663 L455 548 L515 548 L515 723 L36 723 L36 663 L126 663 L126 60 L36 60 L36 0 Z M126 783 L222 783 L222 879 L126 879 L126 783 Z M356 783 L452 783 L452 879 L356 879 L356 783 Z " />
<glyph glyph-name="Igrave" unicode="&#xcc;" horiz-adv-x="600" d="M78 0 L521 0 L521 60 L348 60 L348 663 L521 663 L521 723 L78 723 L78 663 L251 663 L251 60 L78 60 L78 0 Z M348 783 L242 940 L131 940 L287 783 L348 783 Z " />
<glyph glyph-name="Iacute" unicode="&#xcd;" horiz-adv-x="600" d="M78 0 L521 0 L521 60 L348 60 L348 663 L521 663 L521 723 L78 723 L78 663 L251 663 L251 60 L78 60 L78 0 Z M251 783 L311 783 L468 940 L357 940 L251 783 Z " />
<glyph glyph-name="Icircumflex" unicode="&#xce;" horiz-adv-x="600" d="M78 0 L521 0 L521 60 L348 60 L348 663 L521 663 L521 723 L78 723 L78 663 L251 663 L251 60 L78 60 L78 0 Z M121 783 L181 783 L299 882 L300 882 L418 783 L478 783 L353 940 L246 940 L121 783 Z " />
<glyph glyph-name="Idieresis" unicode="&#xcf;" horiz-adv-x="600" d="M78 0 L521 0 L521 60 L348 60 L348 663 L521 663 L521 723 L78 723 L78 663 L251 663 L251 60 L78 60 L78 0 Z M137 783 L233 783 L233 879 L137 879 L137 783 Z M366 783 L462 783 L462 879 L366 879 L366 783 Z " />
<glyph glyph-name="Eth" unicode="&#xd0;" horiz-adv-x="600" d="M24 0 L281 0 C458 0 569 146 569 379 C569 608 469 723 272 723 L24 723 L24 663 L96 663 L96 410 L24 410 L24 350 L96 350 L96 60 L24 60 L24 0 Z M192 663 L243 663 C394 663 465 568 465 369 C465 164 393 60 250 60 L192 60 L192 350 L325 350 L325 410 L192 410 L192 663 Z " />
<glyph glyph-name="Ntilde" unicode="&#xd1;" horiz-adv-x="600" d="M36 0 L204 0 L204 60 L150 60 L150 526 L151 526 L449 0 L510 0 L510 663 L564 663 L564 723 L395 723 L395 663 L449 663 L449 198 L448 198 L150 723 L36 723 L36 663 L90 663 L90 60 L36 60 L36 0 Z M186 783 C190 821 202 838 224 838 C236 838 254 831 271 820 L301 802 C322 789 344 783 367 783 C424 783 451 818 457 898 L403 898 C400 859 388 842 365 842 C353 842 340 847 318 861 L288 879 C268 891 246 898 222 898 C165 898 138 864 132 783 L186 783 Z " />
<glyph glyph-name="Ograve" unicode="&#xd2;" horiz-adv-x="600" d="M300 741 C140 741 30 587 30 362 C30 139 140 -18 297 -18 C460 -18 570 135 570 363 C570 586 460 741 300 741 L300 741 Z M300 681 C405 681 466 564 466 361 C466 152 409 42 300 42 C195 42 134 159 134 362 C134 564 195 681 300 681 L300 681 Z M360 783 L255 940 L143 940 L300 783 L360 783 Z " />
<glyph glyph-name="Oacute" unicode="&#xd3;" horiz-adv-x="600" d="M300 741 C140 741 30 587 30 362 C30 139 140 -18 297 -18 C460 -18 570 135 570 363 C570 586 460 741 300 741 L300 741 Z M300 681 C405 681 466 564 466 361 C466 152 409 42 300 42 C195 42 134 159 134 362 C134 564 195 681 300 681 L300 681 Z M239 783 L300 783 L456 940 L345 940 L239 783 Z " />
<glyph glyph-name="Ocircumflex" unicode="&#xd4;" horiz-adv-x="600" d="M300 741 C140 741 30 587 30 362 C30 139 140 -18 297 -18 C460 -18 570 135 570 363 C570 586 460 741 300 741 L300 741 Z M300 681 C405 681 466 564 466 361 C466 152 409 42 300 42 C195 42 134 159 134 362 C134 564 195 681 300 681 L300 681 Z M121 783 L181 783 L299 882 L301 882 L418 783 L478 783 L353 940 L246 940 L121 783 Z " />
<glyph glyph-name="Otilde" unicode="&#xd5;" horiz-adv-x="600" d="M300 741 C140 741 30 587 30 362 C30 139 140 -18 297 -18 C460 -18 570 135 570 363 C570 586 460 741 300 741 L300 741 Z M300 681 C405 681 466 564 466 361 C466 152 409 42 300 42 C195 42 134 159 134 362 C134 564 195 681 300 681 L300 681 Z M191 783 C195 821 207 838 230 838 C241 838 259 831 277 820 L306 802 C327 789 349 783 372 783 C429 783 457 818 463 898 L408 898 C405 859 393 842 370 842 C358 842 345 847 323 861 L294 879 C273 892 251 898 228 898 C170 898 143 864 137 783 L191 783 Z " />
<glyph glyph-name="Odieresis" unicode="&#xd6;" horiz-adv-x="600" d="M300 741 C140 741 30 587 30 362 C30 139 140 -18 297 -18 C460 -18 570 135 570 363 C570 586 460 741 300 741 L300 741 Z M300 681 C405 681 466 564 466 361 C466 152 409 42 300 42 C195 42 134 159 134 362 C134 564 195 681 300 681 L300 681 Z M137 783 L233 783 L233 879 L137 879 L137 783 Z M367 783 L463 783 L463 879 L367 879 L367 783 Z " />
<glyph glyph-name="multiply" unicode="&#xd7;" horiz-adv-x="600" d="M48 51 L99 0 L300 201 L501 0 L552 51 L351 252 L552 453 L501 504 L300 303 L99 504 L48 453 L249 252 L48 51 Z " />
<glyph glyph-name="Oslash" unicode="&#xd8;" horiz-adv-x="600" d="M156 181 C141 241 134 295 134 362 C134 564 195 681 300 681 C354 681 391 656 422 598 L156 181 Z M443 542 C459 483 466 429 466 360 C466 159 405 42 299 42 C246 42 209 67 177 124 L443 542 Z M30 -18 L87 -18 L133 54 C187 3 237 -18 301 -18 C460 -18 570 137 570 362 C570 467 549 548 499 630 L570 741 L513 741 L468 670 C413 720 363 741 299 741 C140 741 30 586 30 361 C30 256 51 176 100 93 L30 -18 Z " />
<glyph glyph-name="Ugrave" unicode="&#xd9;" horiz-adv-x="600" d="M90 663 L90 269 C90 79 162 -18 303 -18 C434 -18 509 77 509 242 L509 663 L570 663 L570 723 L383 723 L383 663 L449 663 L449 260 C449 114 406 42 320 42 C235 42 187 119 187 256 L187 663 L253 663 L253 723 L30 723 L30 663 L90 663 Z M378 783 L273 940 L161 940 L318 783 L378 783 Z " />
<glyph glyph-name="Uacute" unicode="&#xda;" horiz-adv-x="600" d="M90 663 L90 269 C90 79 162 -18 303 -18 C434 -18 509 77 509 242 L509 663 L570 663 L570 723 L383 723 L383 663 L449 663 L449 260 C449 114 406 42 320 42 C235 42 187 119 187 256 L187 663 L253 663 L253 723 L30 723 L30 663 L90 663 Z M258 783 L318 783 L474 940 L363 940 L258 783 Z " />
<glyph glyph-name="Ucircumflex" unicode="&#xdb;" horiz-adv-x="600" d="M90 663 L90 269 C90 79 162 -18 303 -18 C434 -18 509 77 509 242 L509 663 L570 663 L570 723 L383 723 L383 663 L449 663 L449 260 C449 114 406 42 320 42 C235 42 187 119 187 256 L187 663 L253 663 L253 723 L30 723 L30 663 L90 663 Z M139 783 L199 783 L317 882 L319 882 L436 783 L496 783 L371 940 L264 940 L139 783 Z " />
<glyph glyph-name="Udieresis" unicode="&#xdc;" horiz-adv-x="600" d="M90 663 L90 269 C90 79 162 -18 303 -18 C434 -18 509 77 509 242 L509 663 L570 663 L570 723 L383 723 L383 663 L449 663 L449 260 C449 114 406 42 320 42 C235 42 187 119 187 256 L187 663 L253 663 L253 723 L30 723 L30 663 L90 663 Z M155 783 L251 783 L251 879 L155 879 L155 783 Z M385 783 L481 783 L481 879 L385 879 L385 783 Z " />
<glyph glyph-name="Yacute" unicode="&#xdd;" horiz-adv-x="600" d="M144 0 L456 0 L456 60 L348 60 L348 323 L544 663 L586 663 L586 723 L403 723 L403 663 L475 663 L321 397 L320 397 L167 663 L239 663 L239 723 L13 723 L13 663 L55 663 L252 322 L252 60 L144 60 L144 0 Z M261 783 L321 783 L477 940 L366 940 L261 783 Z " />
<glyph glyph-name="Thorn" unicode="&#xde;" horiz-adv-x="600" d="M235 582 L235 663 L331 663 L331 723 L42 723 L42 663 L138 663 L138 60 L42 60 L42 0 L331 0 L331 60 L235 60 L235 151 L240 151 C432 151 549 247 549 405 C549 524 476 582 327 582 L235 582 Z M235 211 L235 521 L289 521 C394 521 446 477 446 389 C446 276 371 211 241 211 L235 211 Z " />
<glyph glyph-name="germandbls" unicode="&#xdf;" horiz-adv-x="600" d="M30 0 L253 0 L253 60 L193 60 L193 614 C193 694 223 724 302 724 C364 724 395 704 395 664 C395 635 378 603 344 569 L296 520 C263 487 246 452 246 417 C246 375 263 353 338 296 L399 251 L447 214 C483 188 501 157 501 122 C501 75 475 49 427 49 C406 49 387 55 361 69 L349 142 L295 142 L295 6 C338 -6 376 -12 414 -12 C516 -12 583 51 583 147 C583 214 565 239 460 318 L394 367 C352 398 333 423 333 446 C333 467 345 488 366 506 L430 558 C470 591 491 628 491 666 C491 738 416 784 297 784 C215 784 156 758 123 707 C103 676 96 634 96 539 L96 60 L30 60 L30 0 Z " />
<glyph glyph-name="agrave" unicode="&#xe0;" horiz-adv-x="600" d="M417 0 L569 0 L569 60 L503 60 L503 400 C503 504 459 542 338 542 C258 542 188 528 110 497 L110 391 L170 391 L182 453 C236 473 272 481 307 481 C373 481 407 454 407 401 L407 319 L366 319 C160 319 72 266 72 143 C72 48 135 -12 236 -12 C297 -12 347 9 407 58 L417 0 Z M407 136 C358 83 316 60 265 60 C205 60 174 90 174 147 C174 228 232 259 381 259 L407 259 L407 136 Z M390 626 L284 783 L173 783 L330 626 L390 626 Z " />
<glyph glyph-name="aacute" unicode="&#xe1;" horiz-adv-x="600" d="M417 0 L569 0 L569 60 L503 60 L503 400 C503 504 459 542 338 542 C258 542 188 528 110 497 L110 391 L170 391 L182 453 C236 473 272 481 307 481 C373 481 407 454 407 401 L407 319 L366 319 C160 319 72 266 72 143 C72 48 135 -12 236 -12 C297 -12 347 9 407 58 L417 0 Z M407 136 C358 83 316 60 265 60 C205 60 174 90 174 147 C174 228 232 259 381 259 L407 259 L407 136 Z M269 626 L329 626 L486 783 L374 783 L269 626 Z " />
<glyph glyph-name="acircumflex" unicode="&#xe2;" horiz-adv-x="600" d="M417 0 L569 0 L569 60 L503 60 L503 400 C503 504 459 542 338 542 C258 542 188 528 110 497 L110 391 L170 391 L182 453 C236 473 272 481 307 481 C373 481 407 454 407 401 L407 319 L366 319 C160 319 72 266 72 143 C72 48 135 -12 236 -12 C297 -12 347 9 407 58 L417 0 Z M407 136 C358 83 316 60 265 60 C205 60 174 90 174 147 C174 228 232 259 381 259 L407 259 L407 136 Z M134 626 L194 626 L312 725 L313 725 L431 626 L491 626 L366 783 L259 783 L134 626 Z " />
<glyph glyph-name="atilde" unicode="&#xe3;" horiz-adv-x="600" d="M417 0 L569 0 L569 60 L503 60 L503 400 C503 504 459 542 338 542 C258 542 188 528 110 497 L110 391 L170 391 L182 453 C236 473 272 481 307 481 C373 481 407 454 407 401 L407 319 L366 319 C160 319 72 266 72 143 C72 48 135 -12 236 -12 C297 -12 347 9 407 58 L417 0 Z M407 136 C358 83 316 60 265 60 C205 60 174 90 174 147 C174 228 232 259 381 259 L407 259 L407 136 Z M202 627 C205 665 218 682 240 682 C252 682 268 676 287 664 L316 646 C336 634 359 627 383 627 C440 627 467 662 473 742 L419 742 C415 703 404 686 381 686 C369 686 354 692 334 704 L304 723 C283 736 261 742 238 742 C181 742 153 707 148 627 L202 627 Z " />
<glyph glyph-name="adieresis" unicode="&#xe4;" horiz-adv-x="600" d="M417 0 L569 0 L569 60 L503 60 L503 400 C503 504 459 542 338 542 C258 542 188 528 110 497 L110 391 L170 391 L182 453 C236 473 272 481 307 481 C373 481 407 454 407 401 L407 319 L366 319 C160 319 72 266 72 143 C72 48 135 -12 236 -12 C297 -12 347 9 407 58 L417 0 Z M407 136 C358 83 316 60 265 60 C205 60 174 90 174 147 C174 228 232 259 381 259 L407 259 L407 136 Z M154 627 L250 627 L250 723 L154 723 L154 627 Z M383 627 L479 627 L479 723 L383 723 L383 627 Z " />
<glyph glyph-name="aring" unicode="&#xe5;" horiz-adv-x="600" d="M417 0 L569 0 L569 60 L503 60 L503 400 C503 504 459 542 338 542 C258 542 188 528 110 497 L110 391 L170 391 L182 453 C236 473 272 481 307 481 C373 481 407 454 407 401 L407 319 L366 319 C160 319 72 266 72 143 C72 48 135 -12 236 -12 C297 -12 347 9 407 58 L417 0 Z M407 136 C358 83 316 60 265 60 C205 60 174 90 174 147 C174 228 232 259 381 259 L407 259 L407 136 Z M330 848 C268 848 219 799 219 737 C219 675 268 626 329 626 C392 626 441 674 441 737 C441 799 392 848 330 848 L330 848 Z M330 805 C368 805 399 775 399 737 C399 698 368 668 329 668 C292 668 261 699 261 737 C261 775 292 805 330 805 L330 805 Z " />
<glyph glyph-name="ae" unicode="&#xe6;" horiz-adv-x="600" d="M582 93 C527 70 492 60 463 60 C392 60 352 121 345 240 L343 265 L579 265 L579 289 C579 450 524 542 429 542 C381 542 347 522 321 478 C296 523 264 542 211 542 C164 542 116 531 66 509 L66 396 L126 396 L138 462 C159 476 177 482 199 482 C242 482 253 465 253 394 L253 325 L232 325 C98 325 18 260 18 150 C18 57 83 -12 169 -12 C224 -12 259 14 287 75 C332 14 375 -12 432 -12 C476 -12 524 -2 582 21 L582 93 Z M253 111 C235 80 215 67 187 67 C142 67 118 97 118 154 C118 228 158 265 238 265 L253 265 L253 111 Z M343 325 C350 433 374 482 419 482 C461 482 479 436 480 325 L343 325 Z " />
<glyph glyph-name="ccedilla" unicode="&#xe7;" horiz-adv-x="600" d="M503 98 C446 71 402 60 356 60 C243 60 176 138 176 269 C176 399 236 482 331 482 C356 482 382 476 421 460 L436 347 L497 347 L497 515 C444 534 394 542 337 542 C170 542 72 442 72 271 C72 97 174 -12 338 -12 C402 -12 453 -1 503 22 L503 98 Z M298 0 L251 -85 C315 -87 343 -101 343 -133 C343 -157 326 -169 292 -169 C274 -169 257 -166 241 -161 L241 -201 C266 -208 290 -211 311 -211 C368 -211 411 -176 411 -131 C411 -88 369 -54 316 -53 L345 0 L298 0 Z " />
<glyph glyph-name="egrave" unicode="&#xe8;" horiz-adv-x="600" d="M539 247 L539 277 C539 453 466 542 322 542 C164 542 60 433 60 269 C60 100 172 -12 342 -12 C410 -12 466 1 525 30 L525 103 C460 73 409 60 355 60 C301 60 259 73 227 100 C189 132 172 170 163 247 L539 247 Z M164 307 C174 421 227 482 315 482 C396 482 437 431 437 329 L437 307 L164 307 Z M377 626 L271 783 L160 783 L317 626 L377 626 Z " />
<glyph glyph-name="eacute" unicode="&#xe9;" horiz-adv-x="600" d="M539 247 L539 277 C539 453 466 542 322 542 C164 542 60 433 60 269 C60 100 172 -12 342 -12 C410 -12 466 1 525 30 L525 103 C460 73 409 60 355 60 C301 60 259 73 227 100 C189 132 172 170 163 247 L539 247 Z M164 307 C174 421 227 482 315 482 C396 482 437 431 437 329 L437 307 L164 307 Z M256 626 L316 626 L473 783 L361 783 L256 626 Z " />
<glyph glyph-name="ecircumflex" unicode="&#xea;" horiz-adv-x="600" d="M539 247 L539 277 C539 453 466 542 322 542 C164 542 60 433 60 269 C60 100 172 -12 342 -12 C410 -12 466 1 525 30 L525 103 C460 73 409 60 355 60 C301 60 259 73 227 100 C189 132 172 170 163 247 L539 247 Z M164 307 C174 421 227 482 315 482 C396 482 437 431 437 329 L437 307 L164 307 Z M138 626 L198 626 L316 725 L317 725 L435 626 L495 626 L370 783 L263 783 L138 626 Z " />
<glyph glyph-name="edieresis" unicode="&#xeb;" horiz-adv-x="600" d="M539 247 L539 277 C539 453 466 542 322 542 C164 542 60 433 60 269 C60 100 172 -12 342 -12 C410 -12 466 1 525 30 L525 103 C460 73 409 60 355 60 C301 60 259 73 227 100 C189 132 172 170 163 247 L539 247 Z M164 307 C174 421 227 482 315 482 C396 482 437 431 437 329 L437 307 L164 307 Z M154 627 L250 627 L250 723 L154 723 L154 627 Z M383 627 L479 627 L479 723 L383 723 L383 627 Z " />
<glyph glyph-name="igrave" unicode="&#xec;" horiz-adv-x="600" d="M72 0 L539 0 L539 60 L358 60 L358 530 L72 530 L72 469 L262 469 L262 60 L72 60 L72 0 Z M359 626 L253 783 L142 783 L299 626 L359 626 Z " />
<glyph glyph-name="iacute" unicode="&#xed;" horiz-adv-x="600" d="M72 0 L539 0 L539 60 L358 60 L358 530 L72 530 L72 469 L262 469 L262 60 L72 60 L72 0 Z M262 626 L322 626 L479 783 L367 783 L262 626 Z " />
<glyph glyph-name="icircumflex" unicode="&#xee;" horiz-adv-x="600" d="M72 0 L539 0 L539 60 L358 60 L358 530 L72 530 L72 469 L262 469 L262 60 L72 60 L72 0 Z M132 626 L192 626 L310 725 L311 725 L429 626 L489 626 L364 783 L257 783 L132 626 Z " />
<glyph glyph-name="idieresis" unicode="&#xef;" horiz-adv-x="600" d="M72 0 L539 0 L539 60 L358 60 L358 530 L72 530 L72 469 L262 469 L262 60 L72 60 L72 0 Z M148 627 L244 627 L244 723 L148 723 L148 627 Z M377 627 L473 627 L473 723 L377 723 L377 627 Z " />
<glyph glyph-name="eth" unicode="&#xf0;" horiz-adv-x="600" d="M430 739 L396 788 L287 716 C217 754 152 771 69 771 L55 771 L55 711 C119 711 171 696 215 667 L96 587 L132 536 L269 630 C304 606 341 565 380 507 C349 523 322 530 289 530 C154 530 54 415 54 260 C54 102 158 -12 302 -12 C447 -12 546 105 546 277 C546 427 470 581 345 681 L430 739 Z M300 470 C384 470 444 380 444 257 C444 137 382 48 300 48 C218 48 157 137 157 259 C157 381 218 470 300 470 L300 470 Z " />
<glyph glyph-name="ntilde" unicode="&#xf1;" horiz-adv-x="600" d="M34 0 L245 0 L245 60 L191 60 L191 344 C239 429 283 467 334 467 C387 467 414 425 414 342 L414 60 L366 60 L366 0 L571 0 L571 60 L510 60 L510 352 C510 477 460 542 363 542 C295 542 244 508 191 428 L191 530 L34 530 L34 469 L94 469 L94 60 L34 60 L34 0 Z M191 627 C194 665 207 682 229 682 C241 682 257 676 276 664 L305 646 C325 634 348 627 372 627 C429 627 456 662 462 742 L408 742 C404 703 393 686 370 686 C358 686 343 692 323 704 L293 723 C272 736 250 742 227 742 C170 742 142 707 137 627 L191 627 Z " />
<glyph glyph-name="ograve" unicode="&#xf2;" horiz-adv-x="600" d="M300 542 C147 542 54 438 54 265 C54 94 147 -12 296 -12 C453 -12 546 91 546 266 C546 438 453 542 300 542 L300 542 Z M300 482 C394 482 442 410 442 266 C442 123 393 49 300 49 C205 49 158 121 158 266 C158 409 206 482 300 482 L300 482 Z M360 626 L254 783 L143 783 L300 626 L360 626 Z " />
<glyph glyph-name="oacute" unicode="&#xf3;" horiz-adv-x="600" d="M300 542 C147 542 54 438 54 265 C54 94 147 -12 296 -12 C453 -12 546 91 546 266 C546 438 453 542 300 542 L300 542 Z M300 482 C394 482 442 410 442 266 C442 123 393 49 300 49 C205 49 158 121 158 266 C158 409 206 482 300 482 L300 482 Z M240 626 L300 626 L457 783 L345 783 L240 626 Z " />
<glyph glyph-name="ocircumflex" unicode="&#xf4;" horiz-adv-x="600" d="M300 542 C147 542 54 438 54 265 C54 94 147 -12 296 -12 C453 -12 546 91 546 266 C546 438 453 542 300 542 L300 542 Z M300 482 C394 482 442 410 442 266 C442 123 393 49 300 49 C205 49 158 121 158 266 C158 409 206 482 300 482 L300 482 Z M121 626 L181 626 L299 725 L300 725 L418 626 L478 626 L353 783 L246 783 L121 626 Z " />
<glyph glyph-name="otilde" unicode="&#xf5;" horiz-adv-x="600" d="M300 542 C147 542 54 438 54 265 C54 94 147 -12 296 -12 C453 -12 546 91 546 266 C546 438 453 542 300 542 L300 542 Z M300 482 C394 482 442 410 442 266 C442 123 393 49 300 49 C205 49 158 121 158 266 C158 409 206 482 300 482 L300 482 Z M191 627 C194 665 207 682 229 682 C241 682 257 676 276 664 L305 646 C325 634 348 627 372 627 C429 627 456 662 462 742 L408 742 C404 703 393 686 370 686 C358 686 343 692 323 704 L293 723 C272 736 250 742 227 742 C170 742 142 707 137 627 L191 627 Z " />
<glyph glyph-name="odieresis" unicode="&#xf6;" horiz-adv-x="600" d="M300 542 C147 542 54 438 54 265 C54 94 147 -12 296 -12 C453 -12 546 91 546 266 C546 438 453 542 300 542 L300 542 Z M300 482 C394 482 442 410 442 266 C442 123 393 49 300 49 C205 49 158 121 158 266 C158 409 206 482 300 482 L300 482 Z M137 627 L233 627 L233 723 L137 723 L137 627 Z M366 627 L462 627 L462 723 L366 723 L366 627 Z " />
<glyph glyph-name="divide" unicode="&#xf7;" horiz-adv-x="600" d="M48 265 L551 265 L551 337 L48 337 L48 265 Z M239 0 L360 0 L360 121 L239 121 L239 0 Z M239 482 L360 482 L360 603 L239 603 L239 482 Z " />
<glyph glyph-name="oslash" unicode="&#xf8;" horiz-adv-x="600" d="M54 -12 L115 -12 L150 33 C191 2 236 -12 297 -12 C453 -12 546 91 546 263 C546 344 528 403 484 462 L546 542 L485 542 L450 497 C408 528 364 542 302 542 C147 542 54 439 54 266 C54 186 73 127 116 68 L54 -12 Z M174 143 C163 176 158 215 158 264 C158 410 205 482 299 482 C338 482 368 468 401 435 L174 143 Z M426 388 C437 352 442 315 442 265 C442 120 395 48 300 48 C259 48 228 62 199 96 L426 388 Z " />
<glyph glyph-name="ugrave" unicode="&#xf9;" horiz-adv-x="600" d="M358 530 L358 469 L412 469 L412 186 C363 101 320 64 269 64 C217 64 190 106 190 188 L190 530 L33 530 L33 469 L93 469 L93 177 C93 53 144 -12 241 -12 C309 -12 359 22 412 102 L412 0 L569 0 L569 60 L509 60 L509 530 L358 530 Z M361 626 L255 783 L144 783 L301 626 L361 626 Z " />
<glyph glyph-name="uacute" unicode="&#xfa;" horiz-adv-x="600" d="M358 530 L358 469 L412 469 L412 186 C363 101 320 64 269 64 C217 64 190 106 190 188 L190 530 L33 530 L33 469 L93 469 L93 177 C93 53 144 -12 241 -12 C309 -12 359 22 412 102 L412 0 L569 0 L569 60 L509 60 L509 530 L358 530 Z M241 626 L301 626 L458 783 L346 783 L241 626 Z " />
<glyph glyph-name="ucircumflex" unicode="&#xfb;" horiz-adv-x="600" d="M358 530 L358 469 L412 469 L412 186 C363 101 320 64 269 64 C217 64 190 106 190 188 L190 530 L33 530 L33 469 L93 469 L93 177 C93 53 144 -12 241 -12 C309 -12 359 22 412 102 L412 0 L569 0 L569 60 L509 60 L509 530 L358 530 Z M122 626 L182 626 L300 725 L301 725 L419 626 L479 626 L354 783 L247 783 L122 626 Z " />
<glyph glyph-name="udieresis" unicode="&#xfc;" horiz-adv-x="600" d="M358 530 L358 469 L412 469 L412 186 C363 101 320 64 269 64 C217 64 190 106 190 188 L190 530 L33 530 L33 469 L93 469 L93 177 C93 53 144 -12 241 -12 C309 -12 359 22 412 102 L412 0 L569 0 L569 60 L509 60 L509 530 L358 530 Z M138 627 L234 627 L234 723 L138 723 L138 627 Z M367 627 L463 627 L463 723 L367 723 L367 627 Z " />
<glyph glyph-name="yacute" unicode="&#xfd;" horiz-adv-x="600" d="M251 0 L284 0 L231 -132 L134 -132 L134 -193 L368 -193 L368 -132 L296 -132 L349 0 L537 469 L573 469 L573 530 L394 530 L394 469 L472 469 L320 90 L319 90 L167 469 L245 469 L245 530 L27 530 L27 469 L63 469 L251 0 Z M259 626 L319 626 L476 783 L364 783 L259 626 Z " />
<glyph glyph-name="thorn" unicode="&#xfe;" horiz-adv-x="600" d="M90 -133 L30 -133 L30 -193 L308 -193 L308 -133 L187 -133 L187 0 C237 -8 270 -12 300 -12 C453 -12 546 101 546 287 C546 441 474 542 366 542 C297 542 244 506 187 422 L187 771 L30 771 L30 711 L90 711 L90 -133 Z M187 349 C237 429 283 464 339 464 C408 464 443 406 443 289 C443 137 391 60 288 60 C265 60 236 63 187 71 L187 349 Z " />
<glyph glyph-name="ydieresis" unicode="&#xff;" horiz-adv-x="600" d="M251 0 L284 0 L231 -132 L134 -132 L134 -193 L368 -193 L368 -132 L296 -132 L349 0 L537 469 L573 469 L573 530 L394 530 L394 469 L472 469 L320 90 L319 90 L167 469 L245 469 L245 530 L27 530 L27 469 L63 469 L251 0 Z M157 627 L253 627 L253 723 L157 723 L157 627 Z M386 627 L482 627 L482 723 L386 723 L386 627 Z " />
<glyph glyph-name="Amacron" unicode="&#x100;" horiz-adv-x="600" d="M159 217 L402 217 L450 60 L374 60 L374 0 L587 0 L587 60 L551 60 L346 723 L254 723 L48 60 L12 60 L12 0 L181 0 L181 60 L111 60 L159 217 Z M179 278 L281 607 L282 607 L383 278 L179 278 Z M126 783 L464 783 L464 844 L126 844 L126 783 Z " />
<glyph glyph-name="amacron" unicode="&#x101;" horiz-adv-x="600" d="M417 0 L569 0 L569 60 L503 60 L503 400 C503 504 459 542 338 542 C258 542 188 528 110 497 L110 391 L170 391 L182 453 C236 473 272 481 307 481 C373 481 407 454 407 401 L407 319 L366 319 C160 319 72 266 72 143 C72 48 135 -12 236 -12 C297 -12 347 9 407 58 L417 0 Z M407 136 C358 83 316 60 265 60 C205 60 174 90 174 147 C174 228 232 259 381 259 L407 259 L407 136 Z M142 626 L479 626 L479 687 L142 687 L142 626 Z " />
<glyph glyph-name="Abreve" unicode="&#x102;" horiz-adv-x="600" d="M159 217 L402 217 L450 60 L374 60 L374 0 L587 0 L587 60 L551 60 L346 723 L254 723 L48 60 L12 60 L12 0 L181 0 L181 60 L111 60 L159 217 Z M179 278 L281 607 L282 607 L383 278 L179 278 Z M131 940 C143 887 156 862 184 838 C213 811 252 798 302 798 C393 798 443 841 469 940 L408 940 C392 889 359 867 300 867 C240 867 207 889 191 940 L131 940 Z " />
<glyph glyph-name="abreve" unicode="&#x103;" horiz-adv-x="600" d="M417 0 L569 0 L569 60 L503 60 L503 400 C503 504 459 542 338 542 C258 542 188 528 110 497 L110 391 L170 391 L182 453 C236 473 272 481 307 481 C373 481 407 454 407 401 L407 319 L366 319 C160 319 72 266 72 143 C72 48 135 -12 236 -12 C297 -12 347 9 407 58 L417 0 Z M407 136 C358 83 316 60 265 60 C205 60 174 90 174 147 C174 228 232 259 381 259 L407 259 L407 136 Z M137 771 C149 718 162 693 190 669 C219 642 258 629 308 629 C399 629 449 672 474 771 L414 771 C398 720 365 698 306 698 C246 698 213 720 197 771 L137 771 Z " />
<glyph glyph-name="Aogonek" unicode="&#x104;" horiz-adv-x="600" d="M159 217 L402 217 L450 60 L374 60 L374 0 L587 0 L587 60 L551 60 L346 723 L254 723 L48 60 L12 60 L12 0 L181 0 L181 60 L111 60 L159 217 Z M179 278 L281 607 L282 607 L383 278 L179 278 Z M449 0 C395 -31 372 -62 372 -104 C372 -154 406 -181 471 -181 C497 -181 518 -177 539 -167 L539 -127 C526 -132 512 -135 494 -135 C457 -135 438 -119 438 -88 C438 -54 457 -28 501 0 L449 0 Z " />
<glyph glyph-name="aogonek" unicode="&#x105;" horiz-adv-x="600" d="M417 0 L569 0 L569 60 L503 60 L503 400 C503 504 459 542 338 542 C258 542 188 528 110 497 L110 391 L170 391 L182 453 C236 473 272 481 307 481 C373 481 407 454 407 401 L407 319 L366 319 C160 319 72 266 72 143 C72 48 135 -12 236 -12 C297 -12 347 9 407 58 L417 0 Z M407 136 C358 83 316 60 265 60 C205 60 174 90 174 147 C174 228 232 259 381 259 L407 259 L407 136 Z M431 0 C377 -31 354 -62 354 -104 C354 -154 388 -181 453 -181 C479 -181 500 -177 521 -167 L521 -127 C508 -132 494 -135 476 -135 C439 -135 420 -119 420 -88 C420 -54 439 -28 483 0 L431 0 Z " />
<glyph glyph-name="Cacute" unicode="&#x106;" horiz-adv-x="600" d="M550 114 C488 68 433 48 373 48 C242 48 164 163 164 359 C164 562 235 681 357 681 C393 681 428 673 466 655 L480 542 L540 542 L540 710 C467 731 409 741 354 741 C165 741 60 606 60 366 C60 124 171 -18 361 -18 C424 -18 479 -2 550 36 L550 114 Z M289 783 L349 783 L505 940 L394 940 L289 783 Z " />
<glyph glyph-name="cacute" unicode="&#x107;" horiz-adv-x="600" d="M503 98 C446 71 402 60 356 60 C243 60 176 138 176 269 C176 399 236 482 331 482 C356 482 382 476 421 460 L436 347 L497 347 L497 515 C444 534 394 542 337 542 C170 542 72 442 72 271 C72 97 174 -12 338 -12 C402 -12 453 -1 503 22 L503 98 Z M271 626 L331 626 L488 783 L376 783 L271 626 Z " />
<glyph glyph-name="Ccaron" unicode="&#x10c;" horiz-adv-x="600" d="M550 114 C488 68 433 48 373 48 C242 48 164 163 164 359 C164 562 235 681 357 681 C393 681 428 673 466 655 L480 542 L540 542 L540 710 C467 731 409 741 354 741 C165 741 60 606 60 366 C60 124 171 -18 361 -18 C424 -18 479 -2 550 36 L550 114 Z M527 940 L467 940 L349 841 L348 841 L230 940 L170 940 L295 783 L402 783 L527 940 Z " />
<glyph glyph-name="ccaron" unicode="&#x10d;" horiz-adv-x="600" d="M503 98 C446 71 402 60 356 60 C243 60 176 138 176 269 C176 399 236 482 331 482 C356 482 382 476 421 460 L436 347 L497 347 L497 515 C444 534 394 542 337 542 C170 542 72 442 72 271 C72 97 174 -12 338 -12 C402 -12 453 -1 503 22 L503 98 Z M510 783 L450 783 L332 684 L331 684 L214 783 L153 783 L278 626 L385 626 L510 783 Z " />
<glyph glyph-name="Dcaron" unicode="&#x10e;" horiz-adv-x="600" d="M24 0 L282 0 C459 0 570 146 570 379 C570 608 470 723 273 723 L24 723 L24 663 L96 663 L96 60 L24 60 L24 0 Z M193 60 L193 663 L244 663 C395 663 466 569 466 368 C466 164 393 60 251 60 L193 60 Z M449 940 L389 940 L271 841 L270 841 L152 940 L91 940 L217 783 L323 783 L449 940 Z " />
<glyph glyph-name="dcaron" unicode="&#x10f;" horiz-adv-x="600" d="M368 0 L517 0 L517 60 L464 60 L464 771 L263 771 L263 711 L368 711 L368 530 C330 538 297 542 271 542 C135 542 54 430 54 243 C54 90 117 -12 213 -12 C274 -12 321 24 368 108 L368 0 Z M368 181 C331 103 291 67 239 67 C182 67 155 125 155 245 C155 408 190 470 280 470 C302 470 331 466 368 458 L368 181 Z M503 549 C571 559 600 601 600 687 L600 771 L503 771 L503 675 L541 675 L541 666 C541 614 529 587 503 578 L503 549 Z " />
<glyph glyph-name="Dcroat" unicode="&#x110;" horiz-adv-x="600" d="M24 0 L281 0 C458 0 569 146 569 379 C569 608 469 723 272 723 L24 723 L24 663 L96 663 L96 410 L24 410 L24 350 L96 350 L96 60 L24 60 L24 0 Z M192 663 L243 663 C394 663 465 568 465 369 C465 164 393 60 250 60 L192 60 L192 350 L325 350 L325 410 L192 410 L192 663 Z " />
<glyph glyph-name="dcroat" unicode="&#x111;" horiz-adv-x="600" d="M413 0 L570 0 L570 60 L510 60 L510 596 L570 596 L570 657 L510 657 L510 771 L293 771 L293 711 L413 711 L413 657 L257 657 L257 596 L413 596 L413 530 C367 538 330 542 302 542 C147 542 54 430 54 243 C54 90 126 -12 234 -12 C303 -12 356 24 413 108 L413 0 Z M413 181 C363 101 317 67 261 67 C191 67 156 127 156 249 C156 404 202 470 309 470 C333 470 368 466 413 458 L413 181 Z " />
<glyph glyph-name="Emacron" unicode="&#x112;" horiz-adv-x="600" d="M36 0 L540 0 L540 187 L479 187 L479 66 L223 66 L223 337 L365 337 L365 276 L425 276 L425 458 L365 458 L365 397 L223 397 L223 663 L455 663 L455 548 L515 548 L515 723 L36 723 L36 663 L126 663 L126 60 L36 60 L36 0 Z M139 783 L476 783 L476 844 L139 844 L139 783 Z " />
<glyph glyph-name="emacron" unicode="&#x113;" horiz-adv-x="600" d="M539 247 L539 277 C539 453 466 542 322 542 C164 542 60 433 60 269 C60 100 172 -12 342 -12 C410 -12 466 1 525 30 L525 103 C460 73 409 60 355 60 C301 60 259 73 227 100 C189 132 172 170 163 247 L539 247 Z M164 307 C174 421 227 482 315 482 C396 482 437 431 437 329 L437 307 L164 307 Z M148 626 L485 626 L485 687 L148 687 L148 626 Z " />
<glyph glyph-name="Edotaccent" unicode="&#x116;" horiz-adv-x="600" d="M36 0 L540 0 L540 187 L479 187 L479 66 L223 66 L223 337 L365 337 L365 276 L425 276 L425 458 L365 458 L365 397 L223 397 L223 663 L455 663 L455 548 L515 548 L515 723 L36 723 L36 663 L126 663 L126 60 L36 60 L36 0 Z M265 783 L361 783 L361 879 L265 879 L265 783 Z " />
<glyph glyph-name="edotaccent" unicode="&#x117;" horiz-adv-x="600" d="M539 247 L539 277 C539 453 466 542 322 542 C164 542 60 433 60 269 C60 100 172 -12 342 -12 C410 -12 466 1 525 30 L525 103 C460 73 409 60 355 60 C301 60 259 73 227 100 C189 132 172 170 163 247 L539 247 Z M164 307 C174 421 227 482 315 482 C396 482 437 431 437 329 L437 307 L164 307 Z M268 627 L364 627 L364 723 L268 723 L268 627 Z " />
<glyph glyph-name="Eogonek" unicode="&#x118;" horiz-adv-x="600" d="M36 0 L540 0 L540 187 L479 187 L479 66 L223 66 L223 337 L365 337 L365 276 L425 276 L425 458 L365 458 L365 397 L223 397 L223 663 L455 663 L455 548 L515 548 L515 723 L36 723 L36 663 L126 663 L126 60 L36 60 L36 0 Z M420 0 C366 -31 343 -62 343 -104 C343 -154 377 -181 441 -181 C468 -181 488 -177 510 -167 L510 -127 C497 -132 483 -135 465 -135 C428 -135 409 -119 409 -88 C409 -54 428 -28 472 0 L420 0 Z " />
<glyph glyph-name="eogonek" unicode="&#x119;" horiz-adv-x="600" d="M539 247 L539 277 C539 453 466 542 322 542 C164 542 60 433 60 269 C60 100 172 -12 342 -12 C410 -12 466 1 525 30 L525 103 C460 73 409 60 355 60 C301 60 259 73 227 100 C189 132 172 170 163 247 L539 247 Z M164 307 C174 421 227 482 315 482 C396 482 437 431 437 329 L437 307 L164 307 Z M366 0 C312 -31 289 -62 289 -104 C289 -154 323 -181 388 -181 C414 -181 435 -177 456 -167 L456 -127 C443 -132 429 -135 411 -135 C374 -135 355 -119 355 -88 C355 -54 374 -28 418 0 L366 0 Z " />
<glyph glyph-name="Ecaron" unicode="&#x11a;" horiz-adv-x="600" d="M36 0 L540 0 L540 187 L479 187 L479 66 L223 66 L223 337 L365 337 L365 276 L425 276 L425 458 L365 458 L365 397 L223 397 L223 663 L455 663 L455 548 L515 548 L515 723 L36 723 L36 663 L126 663 L126 60 L36 60 L36 0 Z M467 940 L407 940 L289 841 L288 841 L170 940 L110 940 L235 783 L342 783 L467 940 Z " />
<glyph glyph-name="ecaron" unicode="&#x11b;" horiz-adv-x="600" d="M539 247 L539 277 C539 453 466 542 322 542 C164 542 60 433 60 269 C60 100 172 -12 342 -12 C410 -12 466 1 525 30 L525 103 C460 73 409 60 355 60 C301 60 259 73 227 100 C189 132 172 170 163 247 L539 247 Z M164 307 C174 421 227 482 315 482 C396 482 437 431 437 329 L437 307 L164 307 Z M495 783 L435 783 L317 684 L316 684 L199 783 L138 783 L263 626 L370 626 L495 783 Z " />
<glyph glyph-name="Gbreve" unicode="&#x11e;" horiz-adv-x="600" d="M528 322 L347 322 L347 262 L431 262 L431 64 C401 53 378 48 352 48 C217 48 140 161 140 360 C140 572 208 682 338 682 C372 682 403 674 442 655 L456 542 L516 542 L516 711 C449 732 393 742 336 742 C141 742 36 610 36 365 C36 122 147 -18 341 -18 C410 -18 464 -2 528 36 L528 322 Z M156 940 C168 887 181 862 209 838 C238 811 277 798 327 798 C418 798 468 841 494 940 L433 940 C417 889 384 867 325 867 C265 867 232 889 216 940 L156 940 Z " />
<glyph glyph-name="gbreve" unicode="&#x11f;" horiz-adv-x="600" d="M103 -12 C63 -38 42 -68 42 -99 C42 -169 117 -205 263 -205 C445 -205 539 -150 539 -42 C539 34 488 72 388 72 L235 72 C189 72 167 81 167 99 C167 113 176 127 196 145 L215 161 C238 157 256 155 274 155 C397 155 488 235 488 343 C488 388 473 425 438 471 L538 455 L566 542 L367 526 C337 537 310 542 276 542 C145 542 59 465 59 348 C59 275 89 227 158 184 L141 168 C102 133 84 103 84 74 C84 47 98 26 130 6 L103 -12 Z M197 0 L355 0 C413 0 442 -19 442 -58 C442 -110 377 -144 275 -144 C185 -144 138 -122 138 -80 C138 -56 151 -35 178 -15 L197 0 Z M277 482 C348 482 398 426 398 346 C398 269 348 215 275 215 C204 215 155 267 155 343 C155 423 206 482 277 482 L277 482 Z M105 771 C117 718 130 693 158 669 C187 642 226 629 276 629 C367 629 417 672 442 771 L382 771 C366 720 333 698 274 698 C214 698 181 720 165 771 L105 771 Z " />
<glyph glyph-name="Gcommaaccent" unicode="&#x122;" horiz-adv-x="600" d="M528 322 L347 322 L347 262 L431 262 L431 64 C401 53 378 48 352 48 C217 48 140 161 140 360 C140 571 208 682 337 682 C372 682 402 674 442 655 L456 542 L516 542 L516 711 C449 732 393 742 336 742 C141 742 36 610 36 365 C36 122 147 -18 341 -18 C410 -18 464 -2 528 36 L528 322 Z M258 -206 C280 -209 299 -211 318 -211 C389 -211 425 -186 425 -137 C425 -81 382 -56 282 -54 L282 -92 C335 -97 359 -111 359 -136 C359 -158 341 -169 305 -169 C292 -169 276 -167 258 -164 L258 -206 Z " />
<glyph glyph-name="gcommaaccent" unicode="&#x123;" horiz-adv-x="600" d="M103 -12 C63 -38 42 -68 42 -99 C42 -169 117 -205 263 -205 C445 -205 539 -150 539 -42 C539 34 488 72 388 72 L235 72 C189 72 167 81 167 99 C167 113 176 127 196 145 L215 161 C238 157 256 155 274 155 C397 155 488 235 488 343 C488 388 473 425 438 471 L538 455 L566 542 L367 526 C337 537 310 542 276 542 C145 542 59 465 59 348 C59 275 89 227 158 184 L141 168 C102 133 84 103 84 74 C84 47 98 26 130 6 L103 -12 Z M197 0 L355 0 C413 0 442 -19 442 -58 C442 -110 377 -144 275 -144 C185 -144 138 -122 138 -80 C138 -56 151 -35 178 -15 L197 0 Z M277 482 C348 482 398 426 398 346 C398 269 348 215 275 215 C204 215 155 267 155 343 C155 423 206 482 277 482 L277 482 Z M322 848 C254 838 225 796 225 710 L225 626 L322 626 L322 722 L284 722 L284 731 C284 783 296 810 322 819 L322 848 Z " />
<glyph glyph-name="Imacron" unicode="&#x12a;" horiz-adv-x="600" d="M78 0 L521 0 L521 60 L348 60 L348 663 L521 663 L521 723 L78 723 L78 663 L251 663 L251 60 L78 60 L78 0 Z M131 783 L469 783 L469 844 L131 844 L131 783 Z " />
<glyph glyph-name="imacron" unicode="&#x12b;" horiz-adv-x="600" d="M72 0 L539 0 L539 60 L358 60 L358 530 L72 530 L72 469 L262 469 L262 60 L72 60 L72 0 Z M120 626 L457 626 L457 687 L120 687 L120 626 Z " />
<glyph glyph-name="Iogonek" unicode="&#x12e;" horiz-adv-x="600" d="M78 0 L521 0 L521 60 L348 60 L348 663 L521 663 L521 723 L78 723 L78 663 L251 663 L251 60 L78 60 L78 0 Z M383 0 C329 -31 306 -62 306 -104 C306 -154 340 -181 405 -181 C431 -181 452 -177 473 -167 L473 -127 C460 -133 447 -135 429 -135 C392 -135 373 -119 373 -88 C373 -54 392 -28 435 0 L383 0 Z " />
<glyph glyph-name="iogonek" unicode="&#x12f;" horiz-adv-x="600" d="M72 0 L539 0 L539 60 L358 60 L358 530 L72 530 L72 469 L262 469 L262 60 L72 60 L72 0 Z M258 650 L366 650 L366 771 L258 771 L258 650 Z M401 0 C347 -31 324 -62 324 -104 C324 -154 358 -181 423 -181 C449 -181 470 -177 491 -167 L491 -127 C478 -132 464 -135 446 -135 C409 -135 390 -119 390 -88 C390 -54 409 -28 453 0 L401 0 Z " />
<glyph glyph-name="Idotaccent" unicode="&#x130;" horiz-adv-x="600" d="M78 0 L521 0 L521 60 L348 60 L348 663 L521 663 L521 723 L78 723 L78 663 L251 663 L251 60 L78 60 L78 0 Z M251 783 L347 783 L347 879 L251 879 L251 783 Z " />
<glyph glyph-name="dotlessi" unicode="&#x131;" horiz-adv-x="600" d="M72 0 L539 0 L539 60 L358 60 L358 530 L72 530 L72 469 L262 469 L262 60 L72 60 L72 0 Z " />
<glyph glyph-name="Kcommaaccent" unicode="&#x136;" horiz-adv-x="600" d="M36 0 L255 0 L255 60 L195 60 L195 362 L198 362 L430 60 L376 60 L376 0 L584 0 L584 60 L548 60 L289 396 L483 663 L528 663 L528 723 L354 723 L354 663 L408 663 L198 369 L195 369 L195 663 L246 663 L246 723 L36 723 L36 663 L99 663 L99 60 L36 60 L36 0 Z M250 -206 C273 -209 291 -211 310 -211 C381 -211 417 -186 417 -137 C417 -81 374 -56 274 -54 L274 -92 C327 -97 351 -111 351 -136 C351 -158 333 -169 297 -169 C284 -169 267 -167 250 -164 L250 -206 Z " />
<glyph glyph-name="kcommaaccent" unicode="&#x137;" horiz-adv-x="600" d="M401 0 L574 0 L574 60 L526 60 L288 293 L465 469 L534 469 L534 530 L323 530 L323 469 L380 469 L205 289 L193 289 L193 771 L36 771 L36 711 L96 711 L96 60 L36 60 L36 0 L241 0 L241 60 L193 60 L193 255 L205 255 L401 60 L401 0 Z M241 -206 C264 -209 282 -211 302 -211 C372 -211 408 -186 408 -137 C408 -81 365 -56 265 -54 L265 -92 C318 -97 342 -111 342 -136 C342 -158 324 -169 288 -169 C275 -169 259 -167 241 -164 L241 -206 Z " />
<glyph glyph-name="Lacute" unicode="&#x139;" horiz-adv-x="600" d="M562 0 L562 235 L502 235 L502 66 L259 66 L259 663 L374 663 L374 723 L42 723 L42 663 L163 663 L163 60 L42 60 L42 0 L562 0 Z M199 783 L259 783 L416 940 L304 940 L199 783 Z " />
<glyph glyph-name="lacute" unicode="&#x13a;" horiz-adv-x="600" d="M72 0 L539 0 L539 60 L358 60 L358 771 L72 771 L72 711 L262 711 L262 60 L72 60 L72 0 Z M262 819 L322 819 L479 976 L367 976 L262 819 Z " />
<glyph glyph-name="Lcommaaccent" unicode="&#x13b;" horiz-adv-x="600" d="M562 0 L562 235 L502 235 L502 66 L259 66 L259 663 L374 663 L374 723 L42 723 L42 663 L163 663 L163 60 L42 60 L42 0 L562 0 Z M253 -206 C276 -209 294 -211 314 -211 C384 -211 420 -186 420 -137 C420 -81 377 -56 277 -54 L277 -92 C330 -97 354 -111 354 -136 C354 -158 336 -169 300 -169 C287 -169 270 -167 253 -164 L253 -206 Z " />
<glyph glyph-name="lcommaaccent" unicode="&#x13c;" horiz-adv-x="600" d="M72 0 L539 0 L539 60 L358 60 L358 771 L72 771 L72 711 L262 711 L262 60 L72 60 L72 0 Z M244 -206 C267 -209 285 -211 305 -211 C375 -211 411 -186 411 -137 C411 -81 368 -56 268 -54 L268 -92 C321 -97 345 -111 345 -136 C345 -158 327 -169 291 -169 C278 -169 262 -167 244 -164 L244 -206 Z " />
<glyph glyph-name="Lcaron" unicode="&#x13d;" horiz-adv-x="600" d="M562 0 L562 235 L502 235 L502 66 L259 66 L259 663 L374 663 L374 723 L42 723 L42 663 L163 663 L163 60 L42 60 L42 0 L562 0 Z M458 501 C525 511 554 553 554 639 L554 723 L458 723 L458 627 L495 627 L495 618 C495 566 484 539 458 530 L458 501 Z " />
<glyph glyph-name="lcaron" unicode="&#x13e;" horiz-adv-x="600" d="M60 0 L527 0 L527 60 L346 60 L346 771 L60 771 L60 711 L250 711 L250 60 L60 60 L60 0 Z M443 549 C510 559 539 601 539 687 L539 771 L443 771 L443 675 L480 675 L480 666 C480 614 469 587 443 578 L443 549 Z " />
<glyph glyph-name="Lslash" unicode="&#x141;" horiz-adv-x="600" d="M42 0 L562 0 L562 235 L502 235 L502 66 L259 66 L259 366 L403 439 L403 506 L259 434 L259 663 L373 663 L373 723 L42 723 L42 663 L163 663 L163 386 L42 325 L42 258 L163 318 L163 60 L42 60 L42 0 Z " />
<glyph glyph-name="lslash" unicode="&#x142;" horiz-adv-x="600" d="M72 0 L540 0 L540 60 L358 60 L358 404 L501 475 L501 542 L358 471 L358 771 L72 771 L72 711 L262 711 L262 423 L120 352 L120 285 L262 355 L262 60 L72 60 L72 0 Z " />
<glyph glyph-name="Nacute" unicode="&#x143;" horiz-adv-x="600" d="M36 0 L204 0 L204 60 L150 60 L150 526 L151 526 L449 0 L510 0 L510 663 L564 663 L564 723 L395 723 L395 663 L449 663 L449 198 L448 198 L150 723 L36 723 L36 663 L90 663 L90 60 L36 60 L36 0 Z M241 783 L301 783 L457 940 L346 940 L241 783 Z " />
<glyph glyph-name="nacute" unicode="&#x144;" horiz-adv-x="600" d="M34 0 L245 0 L245 60 L191 60 L191 344 C239 429 283 467 334 467 C387 467 414 425 414 342 L414 60 L366 60 L366 0 L571 0 L571 60 L510 60 L510 352 C510 477 460 542 363 542 C295 542 244 508 191 428 L191 530 L34 530 L34 469 L94 469 L94 60 L34 60 L34 0 Z M239 626 L299 626 L456 783 L344 783 L239 626 Z " />
<glyph glyph-name="Ncommaaccent" unicode="&#x145;" horiz-adv-x="600" d="M36 0 L204 0 L204 60 L150 60 L150 526 L151 526 L449 0 L510 0 L510 663 L564 663 L564 723 L395 723 L395 663 L449 663 L449 198 L448 198 L150 723 L36 723 L36 663 L90 663 L90 60 L36 60 L36 0 Z M235 -206 C257 -209 276 -211 295 -211 C366 -211 402 -186 402 -137 C402 -81 359 -56 259 -54 L259 -92 C312 -97 336 -111 336 -136 C336 -158 318 -169 282 -169 C269 -169 252 -167 235 -164 L235 -206 Z " />
<glyph glyph-name="ncommaaccent" unicode="&#x146;" horiz-adv-x="600" d="M34 0 L245 0 L245 60 L191 60 L191 344 C239 429 283 467 334 467 C387 467 414 425 414 342 L414 60 L366 60 L366 0 L571 0 L571 60 L510 60 L510 352 C510 477 460 542 363 542 C295 542 244 508 191 428 L191 530 L34 530 L34 469 L94 469 L94 60 L34 60 L34 0 Z M239 -206 C262 -209 280 -211 300 -211 C370 -211 406 -186 406 -137 C406 -81 363 -56 263 -54 L263 -92 C316 -97 340 -111 340 -136 C340 -158 322 -169 286 -169 C273 -169 257 -167 239 -164 L239 -206 Z " />
<glyph glyph-name="Ncaron" unicode="&#x147;" horiz-adv-x="600" d="M36 0 L204 0 L204 60 L150 60 L150 526 L151 526 L449 0 L510 0 L510 663 L564 663 L564 723 L395 723 L395 663 L449 663 L449 198 L448 198 L150 723 L36 723 L36 663 L90 663 L90 60 L36 60 L36 0 Z M479 940 L419 940 L301 841 L300 841 L182 940 L121 940 L247 783 L353 783 L479 940 Z " />
<glyph glyph-name="ncaron" unicode="&#x148;" horiz-adv-x="600" d="M34 0 L245 0 L245 60 L191 60 L191 344 C239 429 283 467 334 467 C387 467 414 425 414 342 L414 60 L366 60 L366 0 L571 0 L571 60 L510 60 L510 352 C510 477 460 542 363 542 C295 542 244 508 191 428 L191 530 L34 530 L34 469 L94 469 L94 60 L34 60 L34 0 Z M471 783 L411 783 L293 684 L292 684 L175 783 L114 783 L239 626 L346 626 L471 783 Z " />
<glyph glyph-name="Omacron" unicode="&#x14c;" horiz-adv-x="600" d="M300 741 C140 741 30 587 30 362 C30 139 140 -18 297 -18 C460 -18 570 135 570 363 C570 586 460 741 300 741 L300 741 Z M300 681 C405 681 466 564 466 361 C466 152 409 42 300 42 C195 42 134 159 134 362 C134 564 195 681 300 681 L300 681 Z M131 783 L468 783 L468 844 L131 844 L131 783 Z " />
<glyph glyph-name="omacron" unicode="&#x14d;" horiz-adv-x="600" d="M300 542 C147 542 54 438 54 265 C54 94 147 -12 296 -12 C453 -12 546 91 546 266 C546 438 453 542 300 542 L300 542 Z M300 482 C394 482 442 410 442 266 C442 123 393 49 300 49 C205 49 158 121 158 266 C158 409 206 482 300 482 L300 482 Z M131 626 L468 626 L468 687 L131 687 L131 626 Z " />
<glyph glyph-name="Ohungarumlaut" unicode="&#x150;" horiz-adv-x="600" d="M300 741 C140 741 30 587 30 362 C30 139 140 -18 297 -18 C460 -18 570 135 570 363 C570 586 460 741 300 741 L300 741 Z M300 681 C405 681 466 564 466 361 C466 152 409 42 300 42 C195 42 134 159 134 362 C134 564 195 681 300 681 L300 681 Z M153 783 L207 783 L363 940 L270 940 L153 783 Z M324 783 L378 783 L535 940 L442 940 L324 783 Z " />
<glyph glyph-name="ohungarumlaut" unicode="&#x151;" horiz-adv-x="600" d="M300 542 C147 542 54 438 54 265 C54 94 147 -12 296 -12 C453 -12 546 91 546 266 C546 438 453 542 300 542 L300 542 Z M300 482 C394 482 442 410 442 266 C442 123 393 49 300 49 C205 49 158 121 158 266 C158 409 206 482 300 482 L300 482 Z M158 626 L212 626 L369 783 L275 783 L158 626 Z M329 626 L384 626 L540 783 L447 783 L329 626 Z " />
<glyph glyph-name="OE" unicode="&#x152;" horiz-adv-x="600" d="M298 0 L570 0 L570 180 L510 180 L510 66 L391 66 L391 343 L462 343 L462 283 L516 283 L516 464 L462 464 L462 404 L391 404 L391 663 L498 663 L498 570 L558 570 L558 723 L298 723 L298 687 C278 726 253 742 213 742 C93 742 19 597 19 361 C19 126 93 -18 214 -18 C253 -18 277 -2 298 36 L298 0 Z M298 177 C298 86 274 42 224 42 C149 42 117 138 117 365 C117 576 153 682 225 682 C273 682 298 636 298 546 L298 177 Z " />
<glyph glyph-name="oe" unicode="&#x153;" horiz-adv-x="600" d="M576 102 C532 73 498 60 464 60 C395 60 359 124 359 251 L359 259 L576 259 L576 296 C576 460 529 542 437 542 C387 542 354 519 324 464 C293 518 257 542 203 542 C95 542 24 432 24 264 C24 98 95 -12 202 -12 C253 -12 288 9 316 58 C350 9 388 -12 441 -12 C483 -12 525 0 576 27 L576 102 Z M206 482 C260 482 275 433 275 262 C275 96 259 48 206 48 C147 48 117 120 117 264 C117 410 147 482 206 482 L206 482 Z M360 319 C362 430 384 481 431 481 C468 481 486 438 486 349 L486 319 L360 319 Z " />
<glyph glyph-name="Racute" unicode="&#x154;" horiz-adv-x="600" d="M42 0 L264 0 L264 60 L201 60 L201 316 L298 316 L464 0 L587 0 L587 60 L544 60 L391 346 C477 404 513 463 513 546 C513 656 443 723 328 723 L42 723 L42 663 L105 663 L105 60 L42 60 L42 0 Z M201 376 L201 663 L288 663 C370 663 410 621 410 535 C410 430 356 376 249 376 L201 376 Z M220 783 L280 783 L437 940 L325 940 L220 783 Z " />
<glyph glyph-name="racute" unicode="&#x155;" horiz-adv-x="600" d="M258 342 C302 423 349 458 412 458 C433 458 450 453 469 440 L479 348 L540 348 L540 508 C503 531 468 542 428 542 C364 542 316 509 258 427 L258 530 L36 530 L36 469 L162 469 L162 60 L36 60 L36 0 L439 0 L439 60 L258 60 L258 342 Z M211 626 L271 626 L428 783 L316 783 L211 626 Z " />
<glyph glyph-name="Rcommaaccent" unicode="&#x156;" horiz-adv-x="600" d="M42 0 L264 0 L264 60 L201 60 L201 316 L298 316 L464 0 L587 0 L587 60 L544 60 L391 346 C477 404 513 463 513 546 C513 656 443 723 328 723 L42 723 L42 663 L105 663 L105 60 L42 60 L42 0 Z M201 376 L201 663 L288 663 C370 663 410 621 410 535 C410 430 356 376 249 376 L201 376 Z M265 -206 C287 -209 306 -211 325 -211 C396 -211 432 -186 432 -137 C432 -81 389 -56 289 -54 L289 -92 C342 -97 366 -111 366 -136 C366 -158 348 -169 312 -169 C299 -169 283 -167 265 -164 L265 -206 Z " />
<glyph glyph-name="rcommaaccent" unicode="&#x157;" horiz-adv-x="600" d="M258 342 C302 423 349 458 412 458 C433 458 450 453 469 440 L479 348 L540 348 L540 508 C503 531 468 542 428 542 C364 542 316 509 258 427 L258 530 L36 530 L36 469 L162 469 L162 60 L36 60 L36 0 L439 0 L439 60 L258 60 L258 342 Z M211 -206 C234 -209 252 -211 272 -211 C342 -211 378 -186 378 -137 C378 -81 335 -56 235 -54 L235 -92 C288 -97 312 -111 312 -136 C312 -158 294 -169 258 -169 C245 -169 229 -167 211 -164 L211 -206 Z " />
<glyph glyph-name="Rcaron" unicode="&#x158;" horiz-adv-x="600" d="M42 0 L264 0 L264 60 L201 60 L201 316 L298 316 L464 0 L587 0 L587 60 L544 60 L391 346 C477 404 513 463 513 546 C513 656 443 723 328 723 L42 723 L42 663 L105 663 L105 60 L42 60 L42 0 Z M201 376 L201 663 L288 663 C370 663 410 621 410 535 C410 430 356 376 249 376 L201 376 Z M452 940 L392 940 L273 841 L272 841 L155 940 L94 940 L220 783 L326 783 L452 940 Z " />
<glyph glyph-name="rcaron" unicode="&#x159;" horiz-adv-x="600" d="M258 342 C302 423 349 458 412 458 C433 458 450 453 469 440 L479 348 L540 348 L540 508 C503 531 468 542 428 542 C364 542 316 509 258 427 L258 530 L36 530 L36 469 L162 469 L162 60 L36 60 L36 0 L439 0 L439 60 L258 60 L258 342 Z M466 783 L406 783 L288 684 L287 684 L170 783 L109 783 L234 626 L341 626 L466 783 Z " />
<glyph glyph-name="Sacute" unicode="&#x15a;" horiz-adv-x="600" d="M74 30 C157 -4 223 -18 292 -18 C439 -18 533 68 533 202 C533 287 504 322 378 390 L296 434 C200 486 184 504 184 561 C184 640 224 681 301 681 C341 681 376 670 419 645 L431 531 L491 531 L491 705 C425 730 370 741 308 741 C164 741 90 676 90 549 C90 461 125 417 247 354 L339 306 C405 271 437 230 437 178 C437 98 380 42 298 42 C255 42 210 56 146 90 L134 205 L74 205 L74 30 Z M249 783 L309 783 L466 940 L354 940 L249 783 Z " />
<glyph glyph-name="sacute" unicode="&#x15b;" horiz-adv-x="600" d="M84 30 C160 1 227 -12 303 -12 C446 -12 531 49 531 153 C531 226 487 268 378 296 L279 322 C211 340 179 366 179 403 C179 454 221 482 298 482 C346 482 385 474 422 456 L434 367 L494 367 L494 507 C432 531 373 542 298 542 C158 542 87 490 87 387 C87 312 134 267 246 238 L346 211 C412 194 435 173 435 131 C435 77 395 49 319 49 C272 49 225 59 156 85 L144 175 L84 175 L84 30 Z M246 626 L306 626 L463 783 L351 783 L246 626 Z " />
<glyph glyph-name="Scedilla" unicode="&#x15e;" horiz-adv-x="600" d="M74 30 C157 -4 223 -18 292 -18 C439 -18 533 68 533 202 C533 287 504 322 378 390 L296 434 C200 486 184 504 184 561 C184 640 224 681 301 681 C341 681 376 670 419 645 L431 531 L491 531 L491 705 C425 730 370 741 309 741 C164 741 90 676 90 549 C90 461 125 417 247 354 L339 306 C405 271 437 230 437 178 C437 98 380 42 298 42 C255 42 210 56 146 90 L134 205 L74 205 L74 30 Z M271 0 L224 -85 C288 -87 316 -101 316 -133 C316 -157 299 -169 265 -169 C247 -169 230 -166 214 -161 L214 -201 C239 -208 263 -211 284 -211 C341 -211 384 -176 384 -131 C384 -88 343 -54 289 -53 L318 0 L271 0 Z " />
<glyph glyph-name="scedilla" unicode="&#x15f;" horiz-adv-x="600" d="M84 30 C160 1 227 -12 303 -12 C446 -12 531 49 531 153 C531 226 487 268 378 296 L279 322 C211 340 179 366 179 403 C179 454 221 482 298 482 C346 482 385 474 422 456 L434 367 L494 367 L494 507 C432 531 373 542 298 542 C158 542 87 490 87 387 C87 312 134 267 246 238 L346 211 C412 194 435 173 435 131 C435 77 395 49 319 49 C272 49 225 59 156 85 L144 175 L84 175 L84 30 Z M285 0 L238 -85 C302 -87 330 -101 330 -133 C330 -157 313 -169 279 -169 C261 -169 244 -166 228 -161 L228 -201 C253 -208 277 -211 298 -211 C355 -211 398 -176 398 -131 C398 -88 356 -54 303 -53 L332 0 L285 0 Z " />
<glyph glyph-name="Scaron" unicode="&#x160;" horiz-adv-x="600" d="M74 30 C157 -4 223 -18 292 -18 C439 -18 533 68 533 202 C533 287 504 322 378 390 L296 434 C200 486 184 504 184 561 C184 640 224 681 301 681 C341 681 376 670 419 645 L431 531 L491 531 L491 705 C425 730 370 741 308 741 C164 741 90 676 90 549 C90 461 125 417 247 354 L339 306 C405 271 437 230 437 178 C437 98 380 42 298 42 C255 42 210 56 146 90 L134 205 L74 205 L74 30 Z M488 940 L428 940 L310 841 L309 841 L191 940 L131 940 L256 783 L363 783 L488 940 Z " />
<glyph glyph-name="scaron" unicode="&#x161;" horiz-adv-x="600" d="M84 30 C160 1 227 -12 303 -12 C446 -12 531 49 531 153 C531 226 487 268 378 296 L279 322 C211 340 179 366 179 403 C179 454 221 482 298 482 C346 482 385 474 422 456 L434 367 L494 367 L494 507 C432 531 373 542 298 542 C158 542 87 490 87 387 C87 312 134 267 246 238 L346 211 C412 194 435 173 435 131 C435 77 395 49 319 49 C272 49 225 59 156 85 L144 175 L84 175 L84 30 Z M485 783 L425 783 L307 684 L306 684 L189 783 L128 783 L253 626 L360 626 L485 783 Z " />
<glyph glyph-name="Tcommaaccent" unicode="&#x162;" horiz-adv-x="600" d="M125 0 L475 0 L475 60 L349 60 L349 663 L509 663 L509 531 L570 531 L570 723 L30 723 L30 531 L90 531 L90 663 L252 663 L252 60 L125 60 L125 0 Z M289 0 L242 -85 C306 -87 334 -101 334 -133 C334 -157 317 -169 283 -169 C265 -169 248 -166 232 -161 L232 -201 C257 -208 281 -211 302 -211 C359 -211 402 -176 402 -131 C402 -88 361 -54 307 -53 L336 0 L289 0 Z " />
<glyph glyph-name="tcommaaccent" unicode="&#x163;" horiz-adv-x="600" d="M504 98 C445 71 404 60 367 60 C306 60 290 87 290 190 L290 452 L498 452 L498 518 L290 518 L290 650 L194 650 L194 518 L58 518 L58 452 L194 452 L194 146 C194 33 236 -12 340 -12 C398 -12 447 1 504 30 L504 98 Z M306 0 L260 -85 C323 -87 351 -101 351 -133 C351 -157 334 -169 300 -169 C283 -169 265 -166 249 -161 L249 -201 C275 -208 298 -211 320 -211 C376 -211 419 -176 419 -131 C419 -88 378 -54 324 -53 L353 0 L306 0 Z " />
<glyph glyph-name="Tcaron" unicode="&#x164;" horiz-adv-x="600" d="M125 0 L475 0 L475 60 L349 60 L349 663 L509 663 L509 531 L570 531 L570 723 L30 723 L30 531 L90 531 L90 663 L252 663 L252 60 L125 60 L125 0 Z M479 940 L419 940 L301 841 L300 841 L182 940 L121 940 L247 783 L353 783 L479 940 Z " />
<glyph glyph-name="tcaron" unicode="&#x165;" horiz-adv-x="600" d="M504 98 C445 71 404 60 368 60 C306 60 290 87 290 190 L290 452 L498 452 L498 518 L290 518 L290 650 L194 650 L194 518 L58 518 L58 452 L194 452 L194 146 C194 33 236 -12 340 -12 C398 -12 447 1 504 30 L504 98 Z M375 602 C442 612 471 654 471 741 L471 824 L375 824 L375 728 L412 728 L412 720 C412 667 401 640 375 631 L375 602 Z " />
<glyph glyph-name="Umacron" unicode="&#x16a;" horiz-adv-x="600" d="M90 663 L90 269 C90 79 162 -18 303 -18 C434 -18 509 77 509 242 L509 663 L570 663 L570 723 L383 723 L383 663 L449 663 L449 260 C449 114 406 42 320 42 C235 42 187 119 187 256 L187 663 L253 663 L253 723 L30 723 L30 663 L90 663 Z M148 783 L485 783 L485 844 L148 844 L148 783 Z " />
<glyph glyph-name="umacron" unicode="&#x16b;" horiz-adv-x="600" d="M358 530 L358 469 L412 469 L412 186 C363 101 320 64 269 64 C217 64 190 106 190 188 L190 530 L33 530 L33 469 L93 469 L93 177 C93 53 144 -12 241 -12 C309 -12 359 22 412 102 L412 0 L569 0 L569 60 L509 60 L509 530 L358 530 Z M129 626 L466 626 L466 687 L129 687 L129 626 Z " />
<glyph glyph-name="Uring" unicode="&#x16e;" horiz-adv-x="600" d="M90 663 L90 269 C90 79 162 -18 303 -18 C434 -18 509 77 509 242 L509 663 L570 663 L570 723 L383 723 L383 663 L449 663 L449 260 C449 114 406 42 320 42 C235 42 187 119 187 256 L187 663 L253 663 L253 723 L30 723 L30 663 L90 663 Z M296 993 C234 993 185 944 185 882 C185 821 234 771 295 771 C358 771 407 819 407 882 C407 944 358 993 296 993 L296 993 Z M296 951 C334 951 365 921 365 883 C365 844 334 813 295 813 C258 813 227 844 227 882 C227 921 258 951 296 951 L296 951 Z " />
<glyph glyph-name="uring" unicode="&#x16f;" horiz-adv-x="600" d="M358 530 L358 469 L412 469 L412 186 C363 101 320 64 269 64 C217 64 190 106 190 188 L190 530 L33 530 L33 469 L93 469 L93 177 C93 53 144 -12 241 -12 C309 -12 359 22 412 102 L412 0 L569 0 L569 60 L509 60 L509 530 L358 530 Z M298 848 C236 848 187 799 187 737 C187 675 236 626 297 626 C360 626 409 674 409 737 C409 799 360 848 298 848 L298 848 Z M298 805 C336 805 367 775 367 737 C367 698 336 668 297 668 C260 668 229 699 229 737 C229 775 260 805 298 805 L298 805 Z " />
<glyph glyph-name="Uhungarumlaut" unicode="&#x170;" horiz-adv-x="600" d="M90 663 L90 269 C90 79 162 -18 303 -18 C434 -18 509 77 509 242 L509 663 L570 663 L570 723 L383 723 L383 663 L449 663 L449 260 C449 114 406 42 320 42 C235 42 187 119 187 256 L187 663 L253 663 L253 723 L30 723 L30 663 L90 663 Z M187 783 L241 783 L398 940 L304 940 L187 783 Z M359 783 L413 783 L570 940 L476 940 L359 783 Z " />
<glyph glyph-name="uhungarumlaut" unicode="&#x171;" horiz-adv-x="600" d="M358 530 L358 469 L412 469 L412 186 C363 101 320 64 269 64 C217 64 190 106 190 188 L190 530 L33 530 L33 469 L93 469 L93 177 C93 53 144 -12 241 -12 C309 -12 359 22 412 102 L412 0 L569 0 L569 60 L509 60 L509 530 L358 530 Z M154 626 L208 626 L365 783 L271 783 L154 626 Z M325 626 L380 626 L536 783 L443 783 L325 626 Z " />
<glyph glyph-name="Uogonek" unicode="&#x172;" horiz-adv-x="600" d="M90 663 L90 269 C90 79 162 -18 303 -18 C434 -18 509 77 509 242 L509 663 L570 663 L570 723 L383 723 L383 663 L449 663 L449 260 C449 114 406 42 320 42 C235 42 187 119 187 256 L187 663 L253 663 L253 723 L30 723 L30 663 L90 663 Z M335 0 C280 -31 257 -62 257 -104 C257 -154 291 -181 356 -181 C382 -181 403 -177 425 -167 L425 -127 C412 -133 398 -135 380 -135 C342 -135 323 -119 323 -88 C323 -54 342 -28 387 0 L335 0 Z " />
<glyph glyph-name="uogonek" unicode="&#x173;" horiz-adv-x="600" d="M358 530 L358 469 L412 469 L412 186 C363 101 320 64 269 64 C217 64 190 106 190 188 L190 530 L33 530 L33 469 L93 469 L93 177 C93 53 144 -12 241 -12 C309 -12 359 22 412 102 L412 0 L569 0 L569 60 L509 60 L509 530 L358 530 Z M455 0 C401 -31 378 -62 378 -104 C378 -154 412 -181 477 -181 C503 -181 524 -177 545 -167 L545 -127 C532 -132 518 -135 500 -135 C463 -135 444 -119 444 -88 C444 -54 463 -28 507 0 L455 0 Z " />
<glyph glyph-name="Ydieresis" unicode="&#x178;" horiz-adv-x="600" d="M144 0 L456 0 L456 60 L348 60 L348 323 L544 663 L586 663 L586 723 L403 723 L403 663 L475 663 L321 397 L320 397 L167 663 L239 663 L239 723 L13 723 L13 663 L55 663 L252 322 L252 60 L144 60 L144 0 Z M158 783 L254 783 L254 879 L158 879 L158 783 Z M387 783 L483 783 L483 879 L387 879 L387 783 Z " />
<glyph glyph-name="Zacute" unicode="&#x179;" horiz-adv-x="600" d="M72 0 L528 0 L528 211 L467 211 L467 66 L179 66 L522 663 L522 723 L81 723 L81 530 L141 530 L141 663 L414 663 L72 66 L72 0 Z M239 783 L300 783 L456 940 L345 940 L239 783 Z " />
<glyph glyph-name="zacute" unicode="&#x17a;" horiz-adv-x="600" d="M60 0 L534 0 L534 168 L473 168 L473 69 L176 69 L516 469 L516 530 L78 530 L78 373 L138 373 L138 469 L399 469 L60 69 L60 0 Z M237 626 L297 626 L454 783 L342 783 L237 626 Z " />
<glyph glyph-name="Zdotaccent" unicode="&#x17b;" horiz-adv-x="600" d="M72 0 L528 0 L528 211 L467 211 L467 66 L179 66 L522 663 L522 723 L81 723 L81 530 L141 530 L141 663 L414 663 L72 66 L72 0 Z M252 783 L348 783 L348 879 L252 879 L252 783 Z " />
<glyph glyph-name="zdotaccent" unicode="&#x17c;" horiz-adv-x="600" d="M60 0 L534 0 L534 168 L473 168 L473 69 L176 69 L516 469 L516 530 L78 530 L78 373 L138 373 L138 469 L399 469 L60 69 L60 0 Z M248 627 L344 627 L344 723 L248 723 L248 627 Z " />
<glyph glyph-name="Zcaron" unicode="&#x17d;" horiz-adv-x="600" d="M72 0 L528 0 L528 211 L467 211 L467 66 L179 66 L522 663 L522 723 L81 723 L81 530 L141 530 L141 663 L414 663 L72 66 L72 0 Z M478 940 L418 940 L300 841 L299 841 L181 940 L121 940 L246 783 L353 783 L478 940 Z " />
<glyph glyph-name="zcaron" unicode="&#x17e;" horiz-adv-x="600" d="M60 0 L534 0 L534 168 L473 168 L473 69 L176 69 L516 469 L516 530 L78 530 L78 373 L138 373 L138 469 L399 469 L60 69 L60 0 Z M475 783 L415 783 L297 684 L296 684 L179 783 L118 783 L243 626 L350 626 L475 783 Z " />
<glyph glyph-name="florin" unicode="&#x192;" horiz-adv-x="600" d="M41 -145 L138 -145 L237 356 L368 356 L368 416 L249 416 L271 526 C291 627 332 678 393 678 C410 678 430 674 456 666 L468 570 L528 570 L528 732 C493 738 461 741 436 741 C291 741 199 654 166 484 L153 416 L57 416 L57 356 L141 356 L41 -145 Z " />
<glyph glyph-name="Scommaaccent" unicode="&#x218;" horiz-adv-x="600" d="M74 30 C157 -4 223 -18 292 -18 C439 -18 533 68 533 202 C533 287 504 322 378 390 L296 434 C200 486 184 504 184 561 C184 640 224 681 301 681 C341 681 376 670 419 645 L431 531 L491 531 L491 705 C425 730 370 741 309 741 C164 741 90 676 90 549 C90 461 125 417 247 354 L339 306 C405 271 437 230 437 178 C437 98 380 42 298 42 C255 42 210 56 146 90 L134 205 L74 205 L74 30 Z M237 -206 C259 -209 278 -211 297 -211 C368 -211 404 -186 404 -137 C404 -81 361 -56 261 -54 L261 -92 C314 -97 338 -111 338 -136 C338 -158 320 -169 284 -169 C270 -169 255 -167 237 -164 L237 -206 Z " />
<glyph glyph-name="scommaaccent" unicode="&#x219;" horiz-adv-x="600" d="M84 30 C160 1 227 -12 303 -12 C446 -12 531 49 531 153 C531 226 487 268 378 296 L279 322 C211 340 179 366 179 403 C179 454 221 482 298 482 C346 482 385 474 422 456 L434 367 L494 367 L494 507 C432 531 373 542 298 542 C158 542 87 490 87 387 C87 312 134 267 246 238 L346 211 C412 194 435 173 435 131 C435 77 395 49 319 49 C272 49 225 59 156 85 L144 175 L84 175 L84 30 Z M247 -206 C270 -209 288 -211 308 -211 C378 -211 414 -186 414 -137 C414 -81 371 -56 271 -54 L271 -92 C324 -97 348 -111 348 -136 C348 -158 330 -169 294 -169 C281 -169 265 -167 247 -164 L247 -206 Z " />
<glyph glyph-name="circumflex" unicode="&#x2c6;" horiz-adv-x="600" d="M121 626 L181 626 L299 725 L300 725 L418 626 L478 626 L353 783 L246 783 L121 626 Z " />
<glyph glyph-name="caron" unicode="&#x2c7;" horiz-adv-x="600" d="M478 783 L418 783 L300 684 L299 684 L182 783 L121 783 L246 626 L353 626 L478 783 Z " />
<glyph glyph-name="breve" unicode="&#x2d8;" horiz-adv-x="600" d="M131 771 C143 718 156 693 184 669 C213 642 252 629 302 629 C393 629 443 672 468 771 L408 771 C392 720 359 698 300 698 C240 698 207 720 191 771 L131 771 Z " />
<glyph glyph-name="dotaccent" unicode="&#x2d9;" horiz-adv-x="600" d="M252 627 L348 627 L348 723 L252 723 L252 627 Z " />
<glyph glyph-name="ring" unicode="&#x2da;" horiz-adv-x="600" d="M300 848 C238 848 189 799 189 737 C189 675 238 626 299 626 C362 626 411 674 411 737 C411 799 362 848 300 848 L300 848 Z M300 805 C338 805 369 775 369 737 C369 698 338 668 299 668 C262 668 231 699 231 737 C231 775 262 805 300 805 L300 805 Z " />
<glyph glyph-name="ogonek" unicode="&#x2db;" horiz-adv-x="600" d="M294 0 C240 -31 217 -62 217 -104 C217 -154 251 -181 316 -181 C342 -181 363 -177 384 -167 L384 -127 C371 -132 357 -135 339 -135 C302 -135 283 -119 283 -88 C283 -54 302 -28 346 0 L294 0 Z " />
<glyph glyph-name="tilde" unicode="&#x2dc;" horiz-adv-x="600" d="M191 627 C194 665 207 682 229 682 C241 682 257 676 276 664 L305 646 C325 634 348 627 372 627 C429 627 456 662 462 742 L408 742 C404 703 393 686 370 686 C358 686 343 692 323 704 L293 723 C272 736 250 742 227 742 C170 742 142 707 137 627 L191 627 Z " />
<glyph glyph-name="hungarumlaut" unicode="&#x2dd;" horiz-adv-x="600" d="M109 626 L163 626 L320 783 L226 783 L109 626 Z M280 626 L335 626 L491 783 L398 783 L280 626 Z " />
<glyph glyph-name="endash" unicode="&#x2013;" horiz-adv-x="600" d="M59 265 L541 265 L541 337 L59 337 L59 265 Z " />
<glyph glyph-name="emdash" unicode="&#x2014;" horiz-adv-x="600" d="M0 265 L600 265 L600 325 L0 325 L0 265 Z " />
<glyph glyph-name="quoteleft" unicode="&#x2018;" horiz-adv-x="600" d="M367 615 L307 615 C312 694 323 715 367 723 L367 771 C321 766 299 757 275 733 C240 698 222 640 222 558 L222 470 L367 470 L367 615 Z " />
<glyph glyph-name="quoteright" unicode="&#x2019;" horiz-adv-x="600" d="M234 626 L294 626 C289 547 278 526 234 518 L234 470 C280 474 302 483 326 508 C361 542 379 601 379 683 L379 771 L234 771 L234 626 Z " />
<glyph glyph-name="quotesinglbase" unicode="&#x201a;" horiz-adv-x="600" d="M234 0 L294 0 C289 -79 278 -100 234 -108 L234 -156 C280 -151 302 -142 326 -118 C361 -83 379 -25 379 57 L379 145 L234 145 L234 0 Z " />
<glyph glyph-name="quotedblleft" unicode="&#x201c;" horiz-adv-x="600" d="M113 506 L234 506 L234 627 L183 627 L183 654 C183 693 198 714 234 723 L234 771 C150 764 113 720 113 628 L113 506 Z M354 506 L474 506 L474 627 L423 627 L423 654 C423 693 438 714 474 723 L474 771 C390 764 354 720 354 628 L354 506 Z " />
<glyph glyph-name="quotedblright" unicode="&#x201d;" horiz-adv-x="600" d="M486 771 L365 771 L365 650 L416 650 L416 623 C416 584 401 563 365 554 L365 506 C449 513 486 557 486 649 L486 771 Z M246 771 L125 771 L125 650 L176 650 L176 623 C176 584 161 563 125 554 L125 506 C209 513 246 557 246 649 L246 771 Z " />
<glyph glyph-name="quotedblbase" unicode="&#x201e;" horiz-adv-x="600" d="M486 121 L365 121 L365 0 L416 0 L416 -27 C416 -66 401 -87 365 -96 L365 -144 C449 -137 486 -93 486 -1 L486 121 Z M246 121 L125 121 L125 0 L176 0 L176 -27 C176 -66 161 -87 125 -96 L125 -144 C209 -137 246 -93 246 -1 L246 121 Z " />
<glyph glyph-name="dagger" unicode="&#x2020;" horiz-adv-x="600" d="M252 -145 L348 -145 L336 404 L517 397 L517 470 L336 464 L348 723 L252 723 L264 464 L83 470 L83 397 L264 404 L252 -145 Z " />
<glyph glyph-name="daggerdbl" unicode="&#x2021;" horiz-adv-x="600" d="M252 -145 L348 -145 L336 114 L517 108 L517 181 L336 175 L336 404 L517 397 L517 470 L336 464 L348 723 L252 723 L264 464 L83 470 L83 397 L264 404 L264 175 L83 181 L83 108 L264 114 L252 -145 Z " />
<glyph glyph-name="bullet" unicode="&#x2022;" horiz-adv-x="600" d="M300 542 C219 542 155 478 155 397 C155 317 219 253 298 253 C380 253 444 316 444 398 C444 478 380 542 300 542 L300 542 Z " />
<glyph glyph-name="ellipsis" unicode="&#x2026;" horiz-adv-x="600" d="M40 0 L161 0 L161 121 L40 121 L40 0 Z M240 0 L360 0 L360 121 L240 121 L240 0 Z M440 0 L561 0 L561 121 L440 121 L440 0 Z " />
<glyph glyph-name="perthousand" unicode="&#x2030;" horiz-adv-x="600" d="M96 721 C42 721 6 661 6 571 C6 480 42 420 95 420 C151 420 186 479 186 571 C186 661 150 721 96 721 L96 721 Z M96 675 C125 675 140 639 140 570 C140 501 125 465 98 465 C68 465 53 500 53 570 C53 640 68 675 96 675 L96 675 Z M14 0 L63 0 L365 723 L315 723 L14 0 Z M282 301 C228 301 192 241 192 151 C192 60 228 0 281 0 C336 0 372 59 372 151 C372 241 336 301 282 301 L282 301 Z M282 256 C310 256 325 220 325 151 C325 81 311 45 283 45 C253 45 238 80 238 151 C238 220 253 256 282 256 L282 256 Z M505 301 C451 301 415 241 415 151 C415 60 450 0 503 0 C559 0 594 59 594 151 C594 241 558 301 505 301 L505 301 Z M504 256 C533 256 547 220 547 151 C547 82 533 45 505 45 C476 45 461 80 461 151 C461 220 476 256 504 256 L504 256 Z " />
<glyph glyph-name="guilsinglleft" unicode="&#x2039;" horiz-adv-x="600" d="M462 440 L420 482 L114 265 L420 48 L462 90 L248 265 L462 440 Z " />
<glyph glyph-name="guilsinglright" unicode="&#x203a;" horiz-adv-x="600" d="M138 90 L180 48 L486 265 L180 482 L138 440 L352 265 L138 90 Z " />
<glyph glyph-name="fraction" unicode="&#x2044;" horiz-adv-x="600" d="M76 -18 L143 -18 L524 741 L455 741 L76 -18 Z " />
<glyph glyph-name="Euro" unicode="&#x20ac;" horiz-adv-x="600" d="M62 418 L61 410 L61 397 C60 391 60 387 60 386 L60 375 C59 372 59 370 59 370 L60 365 L61 322 L28 322 L3 262 L68 262 C92 153 118 99 170 51 C219 5 284 -18 361 -18 C424 -18 480 -2 550 36 L550 114 C488 68 433 48 372 48 C308 48 258 72 224 120 C198 156 184 192 171 262 L412 262 L436 322 L165 322 L164 358 C164 372 165 391 166 418 L476 418 L501 479 L175 479 C187 537 196 565 214 597 C246 653 293 681 356 681 C393 681 428 673 466 655 L480 572 L540 572 L540 710 C465 732 410 741 354 741 C286 741 230 724 185 690 C126 646 96 590 70 479 L28 479 L3 418 L62 418 Z " />
<glyph glyph-name="trademark" unicode="&#x2122;" horiz-adv-x="600" d="M69 361 L199 361 L199 406 L161 406 L161 678 L203 678 L203 630 L247 630 L247 723 L21 723 L21 630 L65 630 L65 678 L107 678 L107 406 L69 406 L69 361 Z M271 361 L347 361 L347 630 L348 630 L405 428 L447 428 L505 644 L505 361 L584 361 L584 406 L556 406 L556 678 L584 678 L584 723 L486 723 L434 506 L374 723 L271 723 L271 678 L299 678 L299 406 L271 406 L271 361 Z " />
<glyph glyph-name="minus" unicode="&#x2212;" horiz-adv-x="600" d="M48 265 L551 265 L551 337 L48 337 L48 265 Z " />
<glyph glyph-name="fi" unicode="&#xfb01;" horiz-adv-x="600" d="M34 0 L245 0 L245 60 L191 60 L191 458 L413 458 L413 60 L365 60 L365 0 L570 0 L570 60 L510 60 L510 524 L191 524 L191 635 C191 696 211 727 249 727 C259 727 268 724 281 717 L293 657 L353 657 L353 760 C311 777 280 784 249 784 C155 784 94 715 94 609 L94 524 L37 524 L37 458 L94 458 L94 60 L34 60 L34 0 Z M413 657 L510 657 L510 753 L413 753 L413 657 Z " />
<glyph glyph-name="fl" unicode="&#xfb02;" horiz-adv-x="600" d="M191 518 L191 635 C191 704 216 726 292 726 C331 726 369 721 414 708 L414 60 L366 60 L366 0 L571 0 L571 60 L510 60 L510 771 L414 771 L384 775 C354 780 312 783 288 783 C159 783 94 725 94 609 L94 518 L37 518 L37 452 L94 452 L94 60 L34 60 L34 0 L245 0 L245 60 L191 60 L191 452 L336 452 L336 518 L191 518 Z " />
</font>
</svg>
