<?xml version="1.0" encoding="UTF-8"?>
<svg xmlns="http://www.w3.org/2000/svg" xmlns:xlink="http://www.w3.org/1999/xlink" version="1.2" >
<font id="Utopia Bold Italic">
<font-face  font-family="Utopia" units-per-em="1000" ascent="742" descent="-242" font-style="italic" font-weight="700" font-stretch="normal" slope="-13" cap-height="692" x-height="502" underline-position="-75" underline-thickness="50" />
<missing-glyph  horiz-adv-x="210" d="" />
<glyph glyph-name="NULL" d="" />
<glyph glyph-name="CR" unicode="&#xd;" horiz-adv-x="250" d="" />
<glyph glyph-name="space" unicode="&#x20;" horiz-adv-x="210" d="" />
<glyph glyph-name="exclam" unicode="&#x21;" horiz-adv-x="285" d="M299 707 C217 707 203 673 196 603 L160 217 L215 217 L356 603 C382 673 382 707 299 707 L299 707 Z M166 166 C113 166 70 128 70 67 C70 24 97 -12 157 -12 C208 -12 250 27 250 88 C250 129 224 166 166 166 L166 166 Z " />
<glyph glyph-name="quotedbl" unicode="&#x22;" horiz-adv-x="455" d="M223 407 L318 630 C340 683 330 707 268 707 C206 707 186 682 185 630 L177 407 L223 407 Z M426 407 L521 630 C543 683 533 707 471 707 C409 707 389 682 388 630 L380 407 L426 407 Z " />
<glyph glyph-name="numbersign" unicode="&#x23;" horiz-adv-x="560" d="M431 398 L393 291 L281 291 L319 398 L431 398 Z M615 398 L641 470 L532 470 L601 668 L526 668 L456 470 L344 470 L413 668 L337 668 L267 470 L161 470 L135 398 L242 398 L204 291 L98 291 L72 219 L179 219 L102 0 L179 0 L256 219 L368 219 L291 0 L367 0 L444 219 L552 219 L578 291 L469 291 L507 398 L615 398 Z " />
<glyph glyph-name="dollar" unicode="&#x24;" horiz-adv-x="560" d="M347 431 C301 453 281 481 281 522 C282 586 339 622 391 622 L347 431 Z M445 619 C473 615 497 585 513 534 C517 521 529 499 552 499 C588 499 622 522 623 551 C624 621 528 661 456 666 L475 748 L421 748 L402 668 C259 668 160 590 158 473 C157 412 191 347 315 291 L260 49 C236 50 207 77 184 157 C179 174 168 190 140 190 C103 190 68 164 67 120 C66 59 143 8 250 2 L227 -104 L282 -104 L305 0 C504 -1 568 108 569 198 C571 311 495 362 396 405 L445 619 Z M364 267 C418 242 441 207 440 155 C438 70 369 41 314 46 L364 267 Z " />
<glyph glyph-name="percent" unicode="&#x25;" horiz-adv-x="896" d="M686 28 C648 28 640 61 640 97 C640 132 663 320 743 320 C780 320 787 283 787 248 C787 208 767 28 686 28 L686 28 Z M747 360 C693 360 643 345 603 306 C544 249 531 165 531 127 C531 55 565 -12 677 -12 C774 -12 826 26 859 82 C890 136 896 186 896 219 C896 290 869 360 747 360 L747 360 Z M785 702 L764 677 C735 643 705 633 667 633 L545 633 C498 633 480 639 467 647 C435 667 395 680 357 680 C303 680 253 665 213 626 C154 569 141 485 141 447 C141 375 175 308 287 308 C383 308 434 346 467 402 C499 456 505 506 505 539 C505 549 503 567 499 588 L692 588 L214 7 L255 -31 L828 666 L785 702 Z M295 348 C260 348 250 381 250 417 C250 452 273 640 353 640 C390 640 396 603 396 568 C396 528 377 348 295 348 L295 348 Z " />
<glyph glyph-name="ampersand" unicode="&#x26;" horiz-adv-x="752" d="M497 568 C497 491 450 435 401 414 C384 441 367 480 367 520 C367 593 405 634 445 634 C476 634 497 604 497 568 L497 568 Z M439 680 C332 680 244 602 244 480 C244 445 256 404 271 374 C205 344 97 298 97 171 C97 75 169 -12 309 -12 C381 -12 465 12 518 57 C566 19 621 -3 719 -6 L746 -7 L751 26 C698 49 655 88 608 138 C684 206 721 266 755 330 C772 361 779 412 761 444 C732 448 681 441 648 417 C642 340 626 233 575 173 C518 234 459 314 423 373 C508 401 603 440 603 543 C603 628 532 680 439 680 L439 680 Z M236 199 C236 275 277 318 293 328 C326 266 395 160 481 89 C462 71 418 57 382 57 C299 57 236 114 236 199 L236 199 Z " />
<glyph glyph-name="quotesingle" unicode="&#x27;" horiz-adv-x="246" d="M215 376 L311 630 C331 683 323 707 261 707 C199 707 182 682 180 630 L169 376 L215 376 Z " />
<glyph glyph-name="parenleft" unicode="&#x28;" horiz-adv-x="350" d="M473 699 C371 704 293 645 236 554 C186 471 161 371 145 301 C128 225 114 123 128 37 C144 -59 192 -125 280 -135 L292 -101 C191 -65 220 179 244 282 C266 385 339 642 472 665 L473 699 Z " />
<glyph glyph-name="parenright" unicode="&#x29;" horiz-adv-x="350" d="M3 -135 C105 -140 183 -81 240 10 C290 93 315 193 331 263 C348 339 362 441 348 527 C332 623 284 689 196 699 L184 665 C285 629 256 385 232 282 C210 179 137 -78 4 -101 L3 -135 Z " />
<glyph glyph-name="asterisk" unicode="&#x2a;" horiz-adv-x="500" d="M417 500 C395 506 400 523 425 528 L537 550 C563 556 571 584 555 614 C541 640 515 648 494 631 L419 566 C400 549 384 559 395 580 L440 662 C455 689 438 707 398 707 C359 707 342 693 344 665 L352 585 C355 562 341 551 325 569 L270 633 C255 650 225 644 206 618 C190 596 189 561 219 553 L298 532 C324 525 323 509 299 503 L183 475 C154 468 150 441 164 413 C179 383 206 372 234 398 L303 465 C322 483 338 472 327 452 L282 366 C266 336 285 315 327 315 C356 315 379 324 376 357 L369 447 C367 472 380 482 393 466 L445 404 C468 377 491 381 509 405 C530 433 532 465 498 475 L417 500 Z " />
<glyph glyph-name="plus" unicode="&#x2b;" horiz-adv-x="600" d="M118 210 L312 210 L312 0 L408 0 L408 210 L602 210 L602 290 L408 290 L408 490 L312 490 L312 290 L118 290 L118 210 Z " />
<glyph glyph-name="comma" unicode="&#x2c;" horiz-adv-x="280" d="M52 -167 C132 -109 242 -19 242 91 C242 139 216 181 162 180 C116 180 80 145 80 99 C80 79 85 67 93 50 C98 39 105 20 105 1 C105 -51 65 -100 26 -138 L52 -167 Z " />
<glyph glyph-name="hyphen" unicode="&#x2d;" horiz-adv-x="392" d="M126 298 L106 203 L369 203 L389 298 L126 298 Z " />
<glyph glyph-name="period" unicode="&#x2e;" horiz-adv-x="280" d="M163 166 C110 166 67 128 67 67 C67 24 94 -12 154 -12 C205 -12 247 27 247 88 C247 129 221 166 163 166 L163 166 Z " />
<glyph glyph-name="slash" unicode="&#x2f;" horiz-adv-x="260" d="M119 -15 L405 707 L305 707 L19 -15 L119 -15 Z " />
<glyph glyph-name="zero" unicode="0" horiz-adv-x="560" d="M417 634 C463 634 478 591 478 538 C478 491 463 368 430 251 C398 135 360 34 297 34 C258 34 232 67 232 133 C232 248 263 379 296 474 C329 568 369 634 417 634 L417 634 Z M407 680 C283 680 201 599 149 488 C109 401 92 302 92 218 C92 104 142 -12 306 -12 C447 -12 516 78 565 193 C607 294 618 388 618 456 C618 543 590 680 407 680 L407 680 Z " />
<glyph glyph-name="one" unicode="1" horiz-adv-x="560" d="M107 0 L467 0 L475 38 L402 43 C378 44 368 52 374 81 L505 673 L497 680 L250 642 L242 609 L318 596 C335 593 340 586 334 556 L228 81 C222 52 210 45 187 43 L115 38 L107 0 Z " />
<glyph glyph-name="two" unicode="2" horiz-adv-x="560" d="M52 0 L506 0 L566 169 L526 173 C496 126 484 116 439 116 L205 116 C220 175 353 250 411 274 C535 326 613 391 613 504 C613 613 535 680 391 680 C245 680 156 602 156 530 C156 485 194 459 229 459 C261 459 273 481 284 509 C318 591 350 634 396 634 C440 634 457 600 457 555 C457 440 378 354 268 277 C145 191 58 116 39 16 L52 0 Z " />
<glyph glyph-name="three" unicode="3" horiz-adv-x="560" d="M427 367 C531 377 602 426 602 517 C602 614 526 680 383 680 C233 680 159 601 161 550 C163 512 198 488 233 488 C261 488 271 505 280 525 C312 597 344 634 388 634 C427 634 451 602 451 558 C451 477 402 388 327 388 C284 388 251 403 230 403 C210 403 199 377 199 352 C199 334 205 321 224 321 C243 321 278 335 323 335 C367 335 402 305 402 216 C402 100 347 34 286 34 C239 34 207 60 182 149 C176 170 165 195 133 195 C100 195 54 165 56 118 C58 56 135 -12 288 -12 C357 -12 426 2 477 37 C528 72 562 128 562 200 C562 276 519 340 427 363 L427 367 Z " />
<glyph glyph-name="four" unicode="4" horiz-adv-x="560" d="M77 174 L341 174 L319 72 C314 51 303 44 286 43 L221 38 L212 0 L518 0 L527 38 L479 42 C463 43 455 51 460 72 L483 174 L575 174 L590 239 L497 239 L592 668 L474 668 C322 520 189 367 63 205 L77 174 Z M175 239 C252 342 336 445 424 543 L426 543 L355 239 L175 239 Z " />
<glyph glyph-name="five" unicode="5" horiz-adv-x="560" d="M567 552 L628 656 L621 668 L228 668 L213 657 L146 329 L182 304 C219 348 256 368 303 368 C369 368 406 316 406 242 C406 110 347 34 285 34 C240 34 210 58 185 146 C177 174 168 195 139 195 C98 195 56 162 58 118 C60 57 128 -12 282 -12 C433 -12 565 70 565 238 C565 350 502 431 364 431 C301 431 250 407 211 380 L209 382 L254 521 C263 548 270 552 292 552 L567 552 Z " />
<glyph glyph-name="six" unicode="6" horiz-adv-x="560" d="M429 680 C347 680 286 652 240 612 C143 529 91 361 91 222 C91 100 145 -12 323 -12 C492 -12 587 104 587 239 C587 353 523 431 401 430 C354 431 295 398 261 360 L259 360 C295 516 360 634 426 634 C466 634 493 599 506 534 C510 512 522 493 548 493 C578 493 621 511 621 558 C621 596 571 680 429 680 L429 680 Z M351 353 C400 353 434 316 434 246 C434 129 387 34 320 34 C260 34 236 92 236 162 C236 222 244 269 264 300 C285 332 315 353 351 353 L351 353 Z " />
<glyph glyph-name="seven" unicode="7" horiz-adv-x="560" d="M657 668 L205 668 L147 507 L182 496 L194 515 C208 538 226 552 275 552 L527 552 C519 529 468 444 390 364 C280 251 176 147 176 47 C176 9 205 -12 257 -12 C307 -12 329 7 334 47 C351 177 386 272 462 358 C560 469 643 569 667 656 L657 668 Z " />
<glyph glyph-name="eight" unicode="8" horiz-adv-x="560" d="M348 333 C402 333 424 295 424 236 C424 126 375 34 305 34 C255 34 227 73 227 133 C227 250 287 333 348 333 L348 333 Z M403 680 C319 680 261 661 220 623 C183 589 164 544 164 493 C164 421 213 381 254 369 L254 366 C147 358 72 274 72 171 C72 75 139 -12 309 -12 C403 -12 469 12 514 52 C558 92 579 147 579 211 C579 290 529 343 470 359 L470 363 C540 375 619 418 619 520 C619 596 572 680 403 680 L403 680 Z M371 379 C335 379 310 402 310 459 C310 533 346 634 415 634 C458 634 473 597 473 567 C473 458 426 379 371 379 L371 379 Z " />
<glyph glyph-name="nine" unicode="9" horiz-adv-x="560" d="M310 256 C369 256 412 285 446 322 L448 321 C438 285 423 210 399 154 C369 83 329 36 286 36 C249 36 223 60 205 133 C198 159 187 181 159 181 C119 181 82 151 83 112 C85 52 163 -12 290 -12 C419 -12 487 44 535 139 C585 237 604 355 605 434 C606 580 545 680 381 680 C298 680 239 649 196 606 C152 560 130 495 130 430 C130 324 211 256 310 256 L310 256 Z M363 328 C306 328 276 376 276 438 C276 544 324 638 391 638 C445 638 467 587 467 521 C467 464 458 404 442 377 C425 348 399 328 363 328 L363 328 Z " />
<glyph glyph-name="colon" unicode="&#x3a;" horiz-adv-x="280" d="M231 490 C178 490 135 452 135 391 C135 348 162 312 222 312 C273 312 315 351 315 412 C315 453 289 490 231 490 L231 490 Z M163 166 C110 166 67 128 67 67 C67 24 94 -12 154 -12 C205 -12 247 27 247 88 C247 129 221 166 163 166 L163 166 Z " />
<glyph glyph-name="semicolon" unicode="&#x3b;" horiz-adv-x="280" d="M52 -167 C132 -109 242 -19 242 91 C242 139 216 181 162 180 C116 180 80 145 80 99 C80 79 85 67 93 50 C98 39 105 20 105 1 C105 -51 65 -100 26 -138 L52 -167 Z M231 490 C178 490 135 452 135 391 C135 348 162 312 222 312 C273 312 315 351 315 412 C315 453 289 490 231 490 L231 490 Z " />
<glyph glyph-name="less" unicode="&#x3c;" horiz-adv-x="600" d="M101 291 L101 209 L579 5 L579 96 L198 250 L579 404 L579 495 L101 291 Z " />
<glyph glyph-name="equal" unicode="&#x3d;" horiz-adv-x="600" d="M118 317 L602 317 L602 397 L118 397 L118 317 Z M118 103 L602 103 L602 183 L118 183 L118 103 Z " />
<glyph glyph-name="greater" unicode="&#x3e;" horiz-adv-x="600" d="M599 209 L599 291 L121 495 L121 404 L502 250 L121 96 L121 5 L599 209 Z " />
<glyph glyph-name="question" unicode="&#x3f;" horiz-adv-x="454" d="M398 282 C386 280 373 280 355 282 C334 284 306 299 306 329 C306 373 351 402 412 425 C489 455 550 496 550 573 C550 655 487 707 355 707 C215 707 153 634 153 585 C153 539 200 522 229 522 C255 522 269 535 278 556 C309 627 338 661 367 661 C391 661 401 639 401 615 C401 541 353 482 269 437 C202 401 162 364 162 313 C162 256 210 218 278 218 C318 218 371 230 405 253 L398 282 Z M237 -12 C288 -12 330 27 330 88 C330 129 304 166 246 166 C193 166 150 128 150 67 C150 24 177 -12 237 -12 L237 -12 Z " />
<glyph glyph-name="at" unicode="&#x40;" horiz-adv-x="828" d="M426 253 C426 318 493 507 579 507 C589 507 600 504 608 498 L572 400 C551 336 487 213 449 213 C435 213 426 224 426 253 L426 253 Z M621 540 L618 534 C606 540 589 544 571 544 C370 544 304 327 304 251 C304 199 332 161 384 161 C464 161 522 214 568 311 L571 309 L559 255 C548 211 558 161 644 161 C803 161 877 302 877 414 C877 574 753 707 552 707 C328 707 125 557 125 307 C125 87 295 -15 495 -15 C554 -15 650 1 703 39 L692 74 C645 54 579 39 510 39 C297 39 234 198 234 307 C234 487 369 647 544 647 C685 647 802 566 802 409 C802 342 761 213 690 213 C655 213 654 237 659 259 C680 353 705 446 731 540 L621 540 Z " />
<glyph glyph-name="A" unicode="A" horiz-adv-x="634" d="M260 294 C273 319 386 528 403 555 L405 555 L429 294 L260 294 Z M210 0 L217 38 L161 42 C139 43 138 59 148 79 C176 132 202 188 234 246 L434 246 L449 79 C451 55 446 43 426 42 L374 38 L366 0 L666 0 L674 38 L633 41 C610 43 606 58 602 86 C594 159 580 302 572 375 L538 692 L420 692 L226 349 C166 243 103 133 75 87 C55 54 40 44 10 41 L-17 38 L-24 0 L210 0 Z " />
<glyph glyph-name="B" unicode="B" horiz-adv-x="680" d="M388 343 C473 343 520 299 520 220 C520 126 469 46 351 46 C291 46 286 71 295 111 L347 343 L388 343 Z M357 389 L406 609 C413 639 417 646 461 646 C525 646 569 617 569 544 C569 446 499 389 401 389 L357 389 Z M189 692 L179 654 L230 649 C258 647 257 630 249 594 L138 98 C130 62 123 44 94 42 L49 38 L40 0 L373 0 C470 0 551 11 605 46 C655 79 685 134 685 196 C685 304 603 351 534 363 L534 365 C665 379 724 450 724 533 C724 579 707 619 670 647 C632 677 566 693 456 692 L189 692 Z " />
<glyph glyph-name="C" unicode="C" horiz-adv-x="672" d="M665 220 C601 116 546 31 434 31 C344 31 280 96 280 235 C280 412 354 661 557 661 C674 661 699 571 700 480 L738 480 L777 659 C717 696 611 707 555 707 C362 707 250 631 180 524 C128 444 111 345 111 275 C111 183 142 -15 434 -15 C503 -15 584 -7 648 26 L703 220 L665 220 Z " />
<glyph glyph-name="D" unicode="D" horiz-adv-x="774" d="M360 46 C312 46 282 54 292 97 L405 606 C412 639 426 646 490 646 C633 646 656 549 656 454 C656 336 592 46 360 46 L360 46 Z M361 0 C579 0 684 73 753 182 C807 266 819 362 819 403 C819 510 786 582 727 627 C668 672 583 691 464 692 L189 692 L179 654 L230 649 C258 647 257 630 249 594 L138 98 C130 62 123 44 94 42 L49 38 L40 0 L361 0 Z " />
<glyph glyph-name="E" unicode="E" horiz-adv-x="622" d="M190 692 L179 654 L230 649 C258 647 257 630 249 594 L138 98 C130 62 123 44 94 42 L49 38 L40 0 L590 0 L649 208 L611 208 L579 154 C528 67 480 46 401 46 C310 46 280 48 293 103 L346 339 L440 339 C504 339 515 311 512 249 L550 249 L600 477 L562 477 C530 404 514 387 451 387 L357 387 L407 613 C414 642 421 646 456 646 L525 646 C613 646 635 609 639 562 L644 507 L682 507 L722 692 L190 692 Z " />
<glyph glyph-name="F" unicode="F" horiz-adv-x="585" d="M189 692 L179 654 L230 649 C258 647 257 630 249 594 L138 98 C130 62 123 44 94 42 L49 38 L40 0 L366 0 L374 38 L319 42 C287 45 282 59 290 95 L341 320 L456 320 C520 320 531 292 528 229 L566 229 L616 459 L578 459 C546 386 529 368 466 368 L353 368 L408 617 C413 639 422 646 447 646 L521 646 C609 646 631 612 635 562 L640 509 L678 509 L718 692 L189 692 Z " />
<glyph glyph-name="G" unicode="G" horiz-adv-x="726" d="M740 480 L775 655 C714 697 617 707 551 707 C382 707 267 642 203 558 C138 473 111 374 111 284 C111 73 237 -15 427 -15 C502 -15 591 -3 663 38 L705 216 C713 249 717 267 741 270 L782 276 L791 314 L479 314 L471 276 L535 271 C555 269 560 251 551 216 L518 82 C509 43 497 31 437 31 C326 31 280 105 280 241 C280 416 355 661 549 661 C653 661 693 582 702 480 L740 480 Z " />
<glyph glyph-name="H" unicode="H" horiz-adv-x="800" d="M357 387 L403 594 C411 630 418 648 447 650 L491 654 L501 692 L189 692 L179 654 L230 649 C258 647 257 630 249 594 L138 98 C130 62 123 44 94 42 L49 38 L40 0 L352 0 L361 38 L311 42 C283 45 284 62 292 98 L346 339 L606 339 L552 98 C544 62 537 44 508 42 L463 38 L454 0 L766 0 L775 38 L725 42 C697 45 698 62 706 98 L817 594 C825 630 832 648 861 650 L905 654 L915 692 L603 692 L593 654 L644 649 C672 647 671 630 663 594 L617 387 L357 387 Z " />
<glyph glyph-name="I" unicode="I" horiz-adv-x="386" d="M189 692 L179 654 L230 649 C258 647 257 630 249 594 L138 98 C130 62 123 44 94 42 L49 38 L40 0 L352 0 L361 38 L311 42 C283 45 284 62 292 98 L403 594 C411 630 418 648 447 650 L491 654 L501 692 L189 692 Z " />
<glyph glyph-name="J" unicode="J" horiz-adv-x="388" d="M200 692 L190 654 L241 649 C269 647 268 630 260 594 L161 158 C138 57 114 3 84 -31 C61 -58 23 -73 -15 -79 L-13 -112 C1 -115 14 -114 28 -114 C88 -114 169 -104 224 -54 C263 -19 287 36 303 106 L414 594 C422 630 429 648 458 650 L502 654 L512 692 L200 692 Z " />
<glyph glyph-name="K" unicode="K" horiz-adv-x="688" d="M352 0 L361 38 L311 42 C283 45 284 62 292 98 L345 336 L347 336 C377 253 405 187 445 115 C491 31 532 -2 671 -5 L713 -6 L719 30 L707 34 C685 42 662 60 636 96 C579 173 516 300 485 377 L474 403 L514 439 C587 507 663 572 725 614 C772 646 790 648 851 654 L858 692 L589 692 L582 654 L607 651 C638 647 635 636 612 614 C582 586 534 534 478 481 L353 360 L351 362 L403 594 C411 630 418 648 447 650 L491 654 L501 692 L189 692 L179 654 L230 649 C258 647 257 630 249 594 L138 98 C130 62 123 44 94 42 L49 38 L40 0 L352 0 Z " />
<glyph glyph-name="L" unicode="L" horiz-adv-x="586" d="M568 0 L626 201 L588 201 L558 153 C506 70 458 46 384 46 C310 46 282 52 293 101 L403 594 C411 630 418 647 447 650 L491 654 L501 692 L189 692 L179 654 L230 650 C258 648 257 630 249 594 L138 98 C130 62 123 45 94 42 L49 38 L40 0 L568 0 Z " />
<glyph glyph-name="M" unicode="M" horiz-adv-x="921" d="M35 0 L278 0 L286 38 L233 41 C204 43 195 58 198 91 C201 126 208 165 224 239 L296 585 L299 585 L393 12 L458 12 L786 585 L789 585 L680 98 C672 62 665 44 636 42 L592 38 L583 0 L885 0 L894 38 L844 42 C816 45 817 62 825 98 L935 594 C943 630 950 648 979 650 L1023 654 L1033 692 L782 692 C744 615 699 538 655 461 L510 206 L507 206 L462 461 C448 538 434 615 422 692 L179 692 L169 654 L220 649 C248 647 247 630 239 594 L163 239 C148 164 138 125 128 91 C118 57 102 43 79 41 L42 38 L35 0 Z " />
<glyph glyph-name="N" unicode="N" horiz-adv-x="741" d="M182 692 L172 654 L222 649 C250 647 249 630 241 594 L163 239 C146 164 136 125 125 91 C114 57 99 43 75 41 L38 38 L30 0 L276 0 L284 38 L230 41 C202 43 193 58 196 91 C200 126 208 165 223 239 L295 561 L299 561 C379 374 458 187 536 0 L640 0 L740 453 C757 528 767 567 778 601 C789 635 804 649 828 651 L865 654 L873 692 L627 692 L619 654 L673 651 C702 649 710 634 707 601 C704 566 695 527 679 453 L620 183 L617 183 C545 353 474 522 404 692 L182 692 Z " />
<glyph glyph-name="O" unicode="O" horiz-adv-x="761" d="M420 -15 C600 -15 691 74 744 176 C795 274 803 366 803 419 C803 621 675 707 507 707 C326 707 224 611 170 508 C117 406 113 316 113 264 C113 95 219 -15 420 -15 L420 -15 Z M403 31 C319 31 278 88 278 190 C278 349 357 661 522 661 C611 661 638 594 638 506 C638 312 551 31 403 31 L403 31 Z " />
<glyph glyph-name="P" unicode="P" horiz-adv-x="660" d="M190 692 L180 654 L231 649 C259 647 258 630 250 594 L138 98 C130 62 123 44 94 42 L49 38 L40 0 L370 0 L378 38 L313 43 C283 45 284 64 292 98 L330 264 L393 264 C480 264 580 279 642 325 C695 364 729 427 729 500 C729 576 695 626 647 654 C596 684 527 692 442 692 L190 692 Z M407 608 C414 637 420 646 464 646 C533 646 570 607 570 531 C570 429 511 310 391 310 C344 310 343 323 348 343 L407 608 Z " />
<glyph glyph-name="Q" unicode="Q" horiz-adv-x="761" d="M507 707 C326 707 224 611 170 508 C117 406 113 316 113 264 C113 118 192 16 342 -8 C370 -87 460 -193 610 -193 C645 -193 681 -186 703 -174 L698 -150 L686 -150 C665 -150 622 -136 569 -79 C547 -55 529 -31 515 -4 C632 19 701 93 744 176 C795 274 803 366 803 419 C803 621 675 707 507 707 L507 707 Z M403 31 C319 31 278 88 278 190 C278 349 357 661 522 661 C611 661 638 594 638 506 C638 312 551 31 403 31 L403 31 Z " />
<glyph glyph-name="R" unicode="R" horiz-adv-x="681" d="M189 692 L179 654 L230 649 C258 647 257 630 249 594 L138 98 C130 62 123 44 94 42 L49 38 L40 0 L352 0 L361 38 L311 42 C283 45 284 62 292 98 L341 317 L399 317 C448 317 463 302 471 264 C478 229 463 151 475 83 C486 27 529 0 596 0 L692 0 L701 38 C675 41 651 48 640 66 C626 90 618 122 621 174 C624 254 621 317 519 341 L519 343 C644 351 731 423 731 527 C731 587 706 630 661 657 C620 681 550 692 471 692 L189 692 Z M351 363 L407 610 C413 635 420 646 468 646 C535 646 572 613 572 543 C572 428 493 363 414 363 L351 363 Z " />
<glyph glyph-name="S" unicode="S" horiz-adv-x="551" d="M571 492 L605 653 C552 695 467 707 412 707 C212 707 157 583 157 497 C157 406 225 351 315 299 C374 265 418 218 418 151 C418 85 378 31 298 31 C221 31 140 105 126 247 L89 247 L66 70 C118 8 221 -15 300 -15 C481 -13 563 85 563 210 C563 302 512 364 412 420 C351 455 297 494 297 553 C297 606 335 661 408 661 C479 661 530 608 533 492 L571 492 Z " />
<glyph glyph-name="T" unicode="T" horiz-adv-x="616" d="M169 692 L126 501 L164 501 L195 562 C222 615 260 646 326 646 L378 646 L254 98 C246 62 239 44 210 42 L151 38 L142 0 L482 0 L491 38 L427 43 C399 45 400 62 408 98 L532 646 L580 646 C646 646 670 614 673 562 L676 501 L714 501 L757 692 L169 692 Z " />
<glyph glyph-name="U" unicode="U" horiz-adv-x="776" d="M178 692 L168 654 L219 649 C247 647 246 630 238 594 L159 241 C141 161 148 97 185 55 C227 9 306 -15 402 -15 C481 -15 557 -1 612 38 C662 74 701 142 726 253 L804 594 C812 630 819 648 848 650 L892 654 L902 692 L590 692 L580 654 L631 649 C659 647 658 630 650 594 L575 258 C541 104 495 31 407 31 C328 31 279 82 312 233 L392 594 C400 630 407 648 436 650 L480 654 L490 692 L178 692 Z " />
<glyph glyph-name="V" unicode="V" horiz-adv-x="630" d="M379 0 L563 333 C622 439 677 538 717 598 C737 628 751 647 774 650 L811 654 L818 692 L584 692 L576 654 L632 650 C651 648 654 636 645 616 C618 557 571 467 515 361 C487 309 424 190 392 136 L390 136 L364 377 C362 399 342 597 340 617 C338 633 340 646 359 648 L419 654 L426 692 L134 692 L127 654 L161 650 C180 647 187 634 191 604 C199 539 213 438 226 310 L259 0 L379 0 Z " />
<glyph glyph-name="W" unicode="W" horiz-adv-x="920" d="M212 0 L335 0 L557 497 L562 497 L590 0 L713 0 L862 316 C910 419 960 517 994 588 C1017 634 1031 648 1062 651 L1090 654 L1097 692 L866 692 L859 654 L912 649 C934 647 934 632 924 605 C899 539 867 463 827 374 C805 325 751 204 724 146 L719 146 L688 676 L576 676 L345 146 L340 146 L328 615 C327 634 329 647 348 649 L403 654 L410 692 L122 692 L115 654 L155 650 C171 648 175 638 177 610 C181 561 187 456 190 398 L212 0 Z " />
<glyph glyph-name="X" unicode="X" horiz-adv-x="630" d="M-21 0 L247 0 L255 38 L193 43 C178 44 177 56 189 74 C232 134 291 209 346 277 L348 277 L428 76 C435 58 426 46 406 44 L352 38 L344 0 L672 0 L679 38 L641 42 C613 45 598 60 584 91 C543 184 502 297 457 399 C520 473 607 564 664 615 C686 636 708 650 740 652 L770 654 L779 692 L533 692 L524 654 L571 650 C587 648 588 636 576 620 C539 571 485 508 437 450 L434 450 L370 614 C362 634 364 645 383 647 L434 654 L441 692 L134 692 L124 654 L167 650 C184 648 198 638 209 614 C248 527 286 426 324 334 C253 249 159 141 104 86 C78 59 50 45 21 42 L-14 38 L-21 0 Z " />
<glyph glyph-name="Y" unicode="Y" horiz-adv-x="622" d="M482 0 L491 38 L427 43 C399 45 400 62 408 98 L443 251 C449 278 459 297 477 323 C543 420 638 547 688 603 C715 633 727 647 764 651 L793 654 L800 692 L548 692 L540 654 L593 649 C615 647 618 635 606 615 C576 565 492 438 428 347 L426 347 L356 619 C352 636 353 646 373 648 L428 654 L436 692 L135 692 L127 656 L161 653 C183 651 192 642 202 609 C231 516 260 414 285 311 C290 292 293 273 287 246 L255 98 C247 62 240 44 211 42 L152 38 L143 0 L482 0 Z " />
<glyph glyph-name="Z" unicode="Z" horiz-adv-x="618" d="M596 0 L655 208 L617 208 L585 154 C534 69 486 46 409 46 L211 46 C389 256 568 465 749 673 L741 692 L207 692 L168 505 L206 505 L227 552 C260 625 311 646 399 646 L540 646 C363 436 185 228 5 20 L12 0 L596 0 Z " />
<glyph glyph-name="bracketleft" unicode="&#x5b;" horiz-adv-x="350" d="M91 -128 L277 -128 L285 -94 L227 -87 C202 -84 200 -69 207 -40 L352 604 C359 633 365 648 393 651 L455 658 L463 692 L277 692 L91 -128 Z " />
<glyph glyph-name="backslash" unicode="&#x5c;" horiz-adv-x="460" d="M360 -15 L460 -15 L249 707 L149 707 L360 -15 Z " />
<glyph glyph-name="bracketright" unicode="&#x5d;" horiz-adv-x="350" d="M385 692 L199 692 L191 658 L249 651 C274 648 276 633 269 604 L124 -40 C117 -69 111 -84 83 -87 L21 -94 L13 -128 L199 -128 L385 692 Z " />
<glyph glyph-name="asciicircum" unicode="&#x5e;" horiz-adv-x="600" d="M602 215 L410 668 L311 668 L114 215 L218 215 L360 556 L498 215 L602 215 Z " />
<glyph glyph-name="underscore" unicode="&#x5f;" horiz-adv-x="500" d="M500 -75 L0 -75 L0 -125 L500 -125 L500 -75 Z " />
<glyph glyph-name="grave" unicode="&#x60;" horiz-adv-x="400" d="M416 541 L271 690 C234 728 217 740 197 740 C173 740 144 705 144 680 C144 654 176 634 212 614 L395 511 L416 541 Z " />
<glyph glyph-name="a" unicode="a" horiz-adv-x="596" d="M484 494 L480 485 C462 496 436 502 409 502 C171 502 61 239 61 108 C61 47 88 -12 159 -12 C278 -12 352 111 405 202 L411 202 L386 114 C362 29 385 -12 448 -12 C543 -12 605 65 647 149 L618 165 C593 121 555 68 531 68 C513 68 513 88 520 115 L621 494 L484 494 Z M364 194 C315 116 276 68 244 68 C221 68 215 87 215 115 C215 220 305 456 418 456 C437 456 454 451 467 442 C449 371 413 274 364 194 L364 194 Z " />
<glyph glyph-name="b" unicode="b" horiz-adv-x="586" d="M437 422 C462 422 473 404 473 363 C473 284 413 34 302 34 C259 34 243 65 243 109 C243 152 266 226 297 284 C339 361 390 422 437 422 L437 422 Z M379 736 L373 742 L150 715 L145 683 L195 676 C214 674 218 662 210 626 L69 5 L117 0 L154 44 C181 12 229 -12 297 -12 C434 -12 513 66 562 154 C611 242 627 334 627 375 C627 449 593 502 515 502 C425 502 341 430 272 304 L267 304 L379 736 Z " />
<glyph glyph-name="c" unicode="c" horiz-adv-x="456" d="M448 180 C410 119 363 54 297 54 C244 54 226 101 226 162 C226 298 298 456 361 456 C381 456 392 442 405 389 C411 364 419 342 446 342 C481 342 533 369 533 405 C533 462 476 502 384 502 C179 502 73 310 73 155 C73 34 146 -12 234 -12 C309 -12 406 16 478 159 L448 180 Z " />
<glyph glyph-name="d" unicode="d" horiz-adv-x="609" d="M256 68 C230 68 218 90 218 126 C218 220 302 456 421 456 C443 456 462 450 474 440 C459 371 423 265 379 192 C333 116 293 68 256 68 L256 68 Z M686 736 L679 742 L461 715 L454 684 L505 677 C523 674 526 662 520 635 L485 486 L483 485 C464 496 436 502 403 502 C166 502 64 238 64 120 C64 55 87 -12 171 -12 C298 -12 369 111 426 212 L430 211 L400 103 C378 21 405 -14 470 -12 C564 -12 626 65 666 152 L637 166 C612 121 574 68 552 68 C533 68 533 88 540 115 L686 736 Z " />
<glyph glyph-name="e" unicode="e" horiz-adv-x="476" d="M460 176 C407 100 360 54 300 54 C241 54 222 109 222 163 L222 187 C372 216 443 248 486 286 C525 322 532 355 532 386 C532 457 469 502 384 502 C285 502 208 456 154 388 C100 320 73 238 73 161 C73 23 164 -12 236 -12 C323 -12 417 20 490 152 L460 176 Z M226 232 C240 347 308 456 367 456 C391 456 404 440 404 412 C404 334 342 255 226 232 L226 232 Z " />
<glyph glyph-name="f" unicode="f" horiz-adv-x="348" d="M194 442 L71 -169 C67 -187 60 -196 52 -196 C42 -196 29 -182 5 -140 C-4 -125 -12 -109 -34 -109 C-66 -109 -94 -137 -94 -168 C-94 -210 -51 -242 26 -242 C147 -239 203 -151 245 28 L342 442 L467 442 L479 490 L351 490 L386 636 C396 678 406 696 422 696 C437 696 450 682 477 624 C485 608 495 594 519 594 C550 594 588 618 588 654 C588 700 532 741 445 742 C374 743 323 715 287 674 C248 629 227 571 212 516 L205 490 L119 490 L105 442 L194 442 Z " />
<glyph glyph-name="g" unicode="g" horiz-adv-x="522" d="M613 428 L644 503 L638 512 L494 472 C461 489 406 502 355 502 C160 502 104 390 106 313 C107 243 160 204 202 191 L202 189 C191 185 172 178 162 174 C121 157 88 134 88 100 C88 68 122 38 179 20 L179 18 C110 9 21 -24 21 -105 C23 -186 116 -242 260 -242 C421 -242 525 -186 525 -70 C525 23 448 70 345 94 C251 116 224 124 223 147 C223 164 238 173 255 179 C280 177 295 177 315 177 C456 178 554 243 554 352 C554 379 547 401 537 416 L613 428 Z M258 291 C258 361 294 456 359 456 C385 456 416 443 418 395 C418 349 406 304 387 271 C369 240 344 223 316 223 C276 223 258 252 258 291 L258 291 Z M158 -93 C158 -29 210 -4 233 0 C292 -9 396 -27 398 -105 C399 -169 337 -196 284 -196 C220 -196 159 -162 158 -93 L158 -93 Z " />
<glyph glyph-name="h" unicode="h" horiz-adv-x="629" d="M218 0 C245 102 260 156 283 213 C322 314 404 422 453 422 C475 422 485 401 473 364 L399 113 C375 30 406 -12 470 -12 C565 -12 626 65 666 152 L637 167 C612 121 574 68 551 68 C532 68 532 87 540 115 L612 347 C641 439 615 502 536 502 C431 502 342 397 288 295 L283 295 L390 737 L385 742 L156 715 L148 683 L206 676 C225 674 229 662 222 633 L79 -12 L218 0 Z " />
<glyph glyph-name="i" unicode="i" horiz-adv-x="339" d="M348 166 C323 121 285 68 262 68 C243 68 244 89 251 115 L354 496 L348 502 L118 473 L110 440 L168 434 C188 432 192 419 185 392 L108 107 C87 30 111 -12 178 -12 C275 -12 336 65 378 149 L348 166 Z M306 559 C357 559 392 592 392 647 C392 696 356 720 312 720 C253 720 225 675 225 632 C225 587 258 559 306 559 L306 559 Z " />
<glyph glyph-name="j" unicode="j" horiz-adv-x="333" d="M128 473 L121 440 L185 434 C204 432 206 418 200 391 L78 -162 C72 -189 67 -196 59 -196 C50 -196 39 -185 14 -147 C4 -132 -6 -114 -25 -114 C-54 -114 -85 -147 -85 -174 C-85 -210 -45 -242 41 -242 C87 -242 129 -228 161 -201 C204 -163 230 -99 252 -5 L367 497 L360 502 L128 473 Z M319 720 C260 720 232 675 232 632 C232 587 265 559 313 559 C364 559 399 592 399 647 C399 696 363 720 319 720 L319 720 Z " />
<glyph glyph-name="k" unicode="k" horiz-adv-x="570" d="M216 0 L388 737 L383 742 L159 715 L148 683 L206 676 C225 674 229 662 222 633 L74 -12 L216 0 Z M582 153 C552 102 528 68 509 68 C493 68 480 86 468 117 C446 173 416 264 399 332 C432 370 468 404 489 404 C501 404 512 399 533 383 C547 373 560 365 578 365 C615 365 639 401 639 443 C639 473 618 502 577 502 C499 502 407 400 335 318 C318 299 300 278 285 254 C296 207 316 134 337 79 C358 22 389 -12 445 -12 C521 -12 574 45 613 137 L582 153 Z " />
<glyph glyph-name="l" unicode="l" horiz-adv-x="327" d="M342 166 C316 118 277 68 255 68 C237 68 238 88 244 115 L395 737 L389 742 L162 715 L155 683 L213 676 C232 674 236 662 229 633 L104 115 C84 32 108 -12 176 -12 C271 -12 332 65 373 148 L342 166 Z " />
<glyph glyph-name="m" unicode="m" horiz-adv-x="914" d="M219 0 C248 102 266 156 288 212 C318 287 408 422 455 422 C479 422 484 409 475 374 L370 -12 L508 0 C536 102 555 156 578 214 C609 289 698 422 745 422 C772 422 773 398 763 364 L687 107 C666 29 695 -12 754 -12 C852 -12 912 65 952 148 L925 166 C900 121 862 68 838 68 C819 68 819 89 828 115 L901 357 C925 435 909 502 830 502 C731 502 642 402 580 283 L575 284 L596 356 C621 439 614 502 535 502 C446 502 352 401 290 283 L285 283 L349 496 L344 502 L116 473 L109 440 L167 434 C186 432 189 418 182 391 L81 -12 L219 0 Z " />
<glyph glyph-name="n" unicode="n" horiz-adv-x="635" d="M221 0 C250 102 270 155 293 213 C323 288 413 422 461 422 C492 422 490 393 481 363 L405 107 C383 30 412 -12 473 -12 C573 -12 633 64 674 148 L645 166 C621 121 583 68 559 68 C541 68 540 89 548 115 L623 357 C646 436 632 502 548 502 C445 502 354 396 292 280 L286 280 L354 497 L349 502 L116 473 L108 440 L168 434 C187 432 191 418 183 391 L80 -12 L221 0 Z " />
<glyph glyph-name="o" unicode="o" horiz-adv-x="562" d="M284 -12 C410 -12 482 40 529 115 C575 188 591 263 591 308 C591 462 484 502 381 502 C252 502 181 441 136 371 C90 300 77 219 77 174 C77 66 139 -12 284 -12 L284 -12 Z M222 107 C222 174 242 266 274 339 C305 408 342 456 389 456 C436 456 446 416 446 374 C446 300 387 34 282 34 C245 34 222 57 222 107 L222 107 Z " />
<glyph glyph-name="p" unicode="p" horiz-adv-x="606" d="M457 422 C483 422 494 403 494 367 C497 299 435 34 318 34 C287 34 261 46 243 64 C255 117 285 217 321 283 C366 364 418 422 457 422 L457 422 Z M175 -230 L232 9 C252 -3 287 -12 339 -12 C581 -12 652 300 648 374 C645 459 609 502 536 502 C449 502 364 429 287 286 L283 286 L340 497 L335 502 L106 473 L99 440 L158 434 C177 432 179 417 173 391 L35 -242 L175 -230 Z " />
<glyph glyph-name="q" unicode="q" horiz-adv-x="584" d="M320 -242 L465 -221 L639 513 L583 513 L543 479 C515 491 474 502 419 502 C162 502 60 237 64 98 C67 21 115 -12 171 -12 C259 -12 340 64 415 190 L418 190 L320 -242 Z M252 68 C224 68 218 95 218 122 C218 217 295 456 431 456 C450 456 469 451 483 442 C458 335 412 234 360 161 C311 92 281 68 252 68 L252 68 Z " />
<glyph glyph-name="r" unicode="r" horiz-adv-x="440" d="M226 0 C244 65 262 146 281 213 C312 322 346 392 378 392 C390 392 403 385 416 376 C430 366 446 357 464 357 C504 357 532 404 532 443 C532 483 508 502 470 502 C409 502 348 443 298 352 L293 352 L330 497 L325 502 L112 473 L105 440 L164 434 C183 432 185 418 179 391 L86 -12 L226 0 Z " />
<glyph glyph-name="s" unicode="s" horiz-adv-x="417" d="M225 -12 C362 -12 417 62 417 145 C417 211 371 261 326 295 C270 337 243 366 241 404 C240 435 262 456 288 456 C314 456 334 436 362 382 C372 362 383 356 401 356 C428 356 467 375 467 415 C467 448 422 502 309 502 C188 502 123 424 127 340 C130 281 175 236 217 202 C259 168 300 131 303 86 C303 55 281 34 251 34 C220 34 192 54 155 128 C147 144 134 158 111 158 C81 158 45 126 45 89 C45 45 100 -12 225 -12 L225 -12 Z " />
<glyph glyph-name="t" unicode="t" horiz-adv-x="359" d="M364 166 C334 116 294 68 265 68 C245 68 246 89 251 111 L333 442 L451 442 L463 490 L343 490 L387 633 L374 641 L223 564 L203 490 L122 490 L110 442 L193 442 L109 111 C87 24 123 -12 181 -12 C274 -12 344 56 392 147 L364 166 Z " />
<glyph glyph-name="u" unicode="u" horiz-adv-x="634" d="M446 210 L415 96 C397 28 425 -12 479 -12 C576 -12 637 65 678 148 L649 166 C623 121 586 68 563 68 C544 68 543 89 551 115 L652 502 L510 490 C481 388 465 335 443 285 C407 199 325 68 278 68 C250 68 249 91 259 128 L353 497 L348 502 L117 476 L109 443 L168 437 C187 435 191 421 183 391 L116 133 C95 53 103 -12 183 -12 C296 -12 379 94 442 210 L446 210 Z " />
<glyph glyph-name="v" unicode="v" horiz-adv-x="518" d="M341 497 L336 502 L110 476 L103 443 L162 437 C180 435 184 421 177 391 L116 128 C94 32 128 -12 205 -12 C299 -12 385 66 457 157 C534 253 581 362 582 424 C582 467 559 502 551 502 C515 502 477 494 444 481 C454 446 456 407 456 355 C448 209 359 67 291 68 C260 68 248 94 258 137 L341 497 Z " />
<glyph glyph-name="w" unicode="w" horiz-adv-x="795" d="M494 487 C462 361 430 249 376 159 C336 94 307 68 284 68 C261 68 246 86 259 140 L344 497 L339 502 L112 476 L105 443 L164 437 C182 435 186 422 179 391 L116 128 C93 33 134 -12 193 -12 C286 -12 372 74 435 195 L439 195 C430 156 422 117 422 81 C422 29 448 -12 512 -12 C602 -12 680 66 747 158 C818 256 860 365 861 425 C861 466 838 502 830 502 C795 502 764 494 727 481 C737 442 741 404 741 355 C735 216 656 68 592 68 C550 68 543 106 561 185 L630 493 L494 487 Z " />
<glyph glyph-name="x" unicode="x" horiz-adv-x="516" d="M106 421 L166 423 C190 423 200 419 206 393 L245 232 C240 221 228 200 223 190 C191 129 165 90 147 90 C135 90 126 95 115 103 C103 111 86 124 67 124 C37 124 9 89 9 50 C9 15 38 -12 87 -12 C151 -12 186 40 223 107 C230 121 248 154 256 170 L259 170 L275 102 C290 37 311 -12 372 -12 C467 -12 523 78 554 164 L523 179 C497 122 467 69 442 68 C425 68 417 84 406 128 L363 301 C391 350 421 399 447 399 C458 399 469 395 483 388 C494 383 510 376 525 376 C554 376 581 408 581 445 C581 484 552 502 520 502 C474 502 437 476 399 424 C383 402 363 370 353 352 L351 352 L320 498 L313 502 L103 452 L106 421 Z " />
<glyph glyph-name="y" unicode="y" horiz-adv-x="489" d="M57 454 L57 424 L119 424 C141 425 148 408 156 363 C171 285 200 86 200 -10 C200 -48 198 -82 189 -112 C177 -152 162 -169 145 -169 C131 -169 116 -154 101 -132 C85 -110 76 -99 54 -99 C18 -100 -16 -141 -14 -180 C-14 -211 19 -242 77 -242 C180 -242 229 -163 311 -29 C332 5 389 113 450 213 C508 309 567 406 567 448 C567 472 554 502 546 502 C522 502 482 495 442 477 C443 442 441 381 433 339 C420 271 377 175 320 72 L317 72 C316 222 297 444 282 498 L274 502 L57 454 Z " />
<glyph glyph-name="z" unicode="z" horiz-adv-x="466" d="M170 490 C147 465 115 404 93 318 L118 306 C150 365 169 396 225 396 L370 396 L370 394 C263 295 147 189 45 78 C32 63 18 39 18 19 C18 4 25 -12 56 -12 C96 -12 124 -3 123 20 L119 50 C119 61 123 68 129 68 C138 68 155 58 231 28 C288 6 339 -12 382 -12 C457 -12 488 87 515 201 L486 211 C457 157 432 105 380 105 C354 105 314 116 278 128 C253 137 226 147 207 150 L207 156 C293 249 417 360 541 474 L533 490 L170 490 Z " />
<glyph glyph-name="braceleft" unicode="&#x7b;" horiz-adv-x="340" d="M125 265 C202 265 207 224 184 153 L152 59 C125 -24 104 -128 262 -128 L289 -128 L296 -94 C217 -88 221 -41 244 25 L271 102 C297 182 333 255 220 279 L221 285 C335 309 340 362 352 462 L362 539 C371 605 386 652 466 658 L474 692 L431 692 C289 692 267 588 257 505 L245 411 C236 340 226 299 132 299 L125 265 Z " />
<glyph glyph-name="bar" unicode="&#x7c;" horiz-adv-x="265" d="M152 -250 L256 -250 L256 750 L152 750 L152 -250 Z " />
<glyph glyph-name="braceright" unicode="&#x7d;" horiz-adv-x="340" d="M178 692 L171 658 C250 652 246 605 223 539 L196 462 C170 382 134 309 247 285 L246 279 C132 255 127 202 115 102 L105 25 C96 -41 81 -88 1 -94 L-7 -128 L36 -128 C178 -128 200 -24 210 59 L222 153 C231 224 236 265 335 265 L342 299 C265 299 260 340 283 411 L315 505 C342 588 363 692 205 692 L178 692 Z " />
<glyph glyph-name="asciitilde" unicode="&#x7e;" horiz-adv-x="600" d="M552 338 C523 284 500 266 465 266 C434 266 400 280 366 295 C332 309 296 323 260 323 C168 323 129 242 105 185 L161 157 C185 208 210 234 244 234 C281 234 310 220 342 206 C373 191 407 177 450 177 C537 177 578 244 606 310 L552 338 Z " />
<glyph glyph-name="exclamdown" unicode="&#xa1;" horiz-adv-x="285" d="M94 -217 C176 -217 190 -183 197 -113 L233 273 L178 273 L37 -113 C11 -183 11 -217 94 -217 L94 -217 Z M236 502 C185 502 143 463 143 402 C143 361 169 324 227 324 C280 324 323 362 323 423 C323 466 296 502 236 502 L236 502 Z " />
<glyph glyph-name="cent" unicode="&#xa2;" horiz-adv-x="560" d="M325 149 C272 163 259 214 260 269 C262 366 322 554 418 553 L325 149 Z M287 -21 L342 -21 L367 87 C452 88 536 125 586 212 L558 234 C503 160 439 136 379 140 L471 553 C490 554 513 530 532 467 C537 449 546 432 572 432 C603 431 645 450 646 490 C647 555 547 597 482 597 L497 668 L443 668 L428 599 C316 598 233 551 183 484 C134 418 115 339 115 280 C115 139 215 90 312 87 L287 -21 Z " />
<glyph glyph-name="sterling" unicode="&#xa3;" horiz-adv-x="560" d="M115 338 L104 290 L226 290 C235 258 237 233 234 207 C228 137 149 93 61 72 L31 9 L41 0 L502 0 L572 151 L539 168 L519 143 C502 123 477 113 441 113 L257 113 L258 116 C312 140 361 187 371 238 C375 256 376 270 375 290 L507 290 L516 338 L370 338 C362 366 351 400 344 434 C335 473 333 503 333 530 C335 596 370 633 411 633 C448 633 473 603 497 538 C504 517 517 504 544 504 C571 504 617 520 618 563 C618 598 581 679 427 679 C264 679 195 562 195 462 C195 419 203 372 215 338 L115 338 Z " />
<glyph glyph-name="currency" unicode="&#xa4;" horiz-adv-x="560" d="M354 570 C310 570 257 557 224 529 L186 578 C171 598 138 604 114 580 C85 552 93 524 114 507 L163 468 C135 436 120 383 120 334 C120 285 135 232 163 200 L114 161 C93 144 85 116 114 88 C138 64 171 70 186 90 L224 139 C257 111 310 98 354 98 C398 98 451 111 484 139 L522 90 C537 70 570 64 594 88 C623 116 615 144 594 161 L545 200 C573 232 588 285 588 334 C588 383 573 436 545 468 L594 507 C615 524 623 552 594 580 C570 604 537 598 522 578 L484 529 C451 557 398 570 354 570 L354 570 Z M354 481 C429 481 486 417 486 334 C486 251 429 187 354 187 C279 187 222 251 222 334 C222 417 279 481 354 481 L354 481 Z " />
<glyph glyph-name="yen" unicode="&#xa5;" horiz-adv-x="560" d="M587 362 L459 362 C527 466 597 564 611 581 C637 613 649 626 674 629 L703 632 L711 668 L486 668 L477 632 L532 627 C547 625 549 614 540 598 C526 573 457 453 397 361 L395 361 C375 454 356 542 348 600 C346 617 348 626 368 628 L415 632 L424 668 L147 668 L138 632 L168 627 C184 625 193 619 201 589 C213 544 233 469 258 362 L145 362 L134 314 L269 314 C271 301 273 286 267 262 L259 227 L111 227 L100 179 L249 179 L227 79 C222 58 213 42 191 40 L134 36 L127 0 L442 0 L449 36 L390 41 C366 43 365 58 370 79 L392 179 L556 179 L566 227 L403 227 L411 263 C416 285 425 306 429 314 L577 314 L587 362 Z " />
<glyph glyph-name="brokenbar" unicode="&#xa6;" horiz-adv-x="265" d="M152 675 L152 325 L256 325 L256 675 L152 675 Z M152 -175 L256 -175 L256 175 L152 175 L152 -175 Z " />
<glyph glyph-name="section" unicode="&#xa7;" horiz-adv-x="568" d="M327 247 C221 315 197 366 197 409 C197 456 228 494 264 506 C274 454 334 408 395 366 C488 302 505 248 505 204 C505 158 476 125 455 109 C447 148 394 204 327 247 L327 247 Z M586 268 C586 346 557 410 465 469 C367 532 352 568 352 600 C352 636 378 661 412 661 C441 661 467 645 494 596 C505 577 513 567 532 567 C561 567 594 587 594 620 C594 662 541 707 438 707 C313 707 261 617 258 561 C177 512 119 439 119 344 C119 283 144 215 256 145 C347 88 370 46 370 -1 C370 -43 336 -69 301 -69 C270 -69 236 -52 205 18 C197 37 184 50 165 50 C126 50 99 22 99 -12 C99 -64 165 -115 277 -115 C391 -115 461 -43 466 49 C521 98 586 184 586 268 L586 268 Z " />
<glyph glyph-name="dieresis" unicode="&#xa8;" horiz-adv-x="400" d="M220 561 C272 561 299 597 299 635 C299 673 272 710 220 710 C169 710 141 673 141 635 C141 597 169 561 220 561 L220 561 Z M460 561 C512 561 539 597 539 635 C539 673 512 710 460 710 C409 710 381 673 381 635 C381 597 409 561 460 561 L460 561 Z " />
<glyph glyph-name="copyright" unicode="&#xa9;" horiz-adv-x="824" d="M490 -15 C691 -15 854 146 854 346 C854 546 691 707 490 707 C289 707 126 546 126 346 C126 146 289 -15 490 -15 L490 -15 Z M209 346 C209 514 335 644 490 644 C645 644 771 514 771 346 C771 178 645 48 490 48 C335 48 209 178 209 346 L209 346 Z M648 415 L648 519 C616 538 565 548 510 548 C360 548 297 458 297 348 C297 236 353 151 509 151 C561 151 615 162 647 182 L658 290 L631 290 C609 238 580 183 523 183 C446 183 417 262 417 354 C417 443 448 516 517 516 C577 516 606 462 621 415 L648 415 Z " />
<glyph glyph-name="ordfeminine" unicode="&#xaa;" horiz-adv-x="444" d="M336 556 C347 556 358 554 367 547 C354 507 335 436 293 381 C265 346 243 323 225 323 C214 323 207 332 207 350 C207 412 269 556 336 556 L336 556 Z M393 585 L391 579 C378 586 357 590 338 590 C172 590 97 424 97 341 C97 298 122 265 168 265 C257 265 305 343 343 398 L347 397 L332 348 C315 291 336 265 372 265 C446 265 488 317 517 373 L495 385 C478 358 451 323 436 323 C425 323 427 338 431 353 L497 585 L393 585 Z " />
<glyph glyph-name="guillemotleft" unicode="&#xab;" horiz-adv-x="560" d="M344 464 L139 270 C124 256 121 246 132 231 L269 37 L297 54 L250 232 C246 246 249 257 258 272 L368 443 L344 464 Z M544 464 L339 270 C324 256 321 246 332 231 L469 37 L497 54 L450 232 C446 246 449 257 458 272 L568 443 L544 464 Z " />
<glyph glyph-name="logicalnot" unicode="&#xac;" horiz-adv-x="600" d="M506 95 L602 95 L602 397 L118 397 L118 317 L506 317 L506 95 Z " />
<glyph glyph-name="registered" unicode="&#xae;" horiz-adv-x="824" d="M504 159 L504 185 L477 189 C461 191 457 201 457 219 L457 331 L475 331 C502 331 511 316 517 295 C523 274 530 230 541 204 C554 174 572 159 630 159 L685 159 L685 185 C675 188 667 191 661 196 C649 205 640 228 634 253 C623 297 617 334 562 349 L562 351 C615 361 651 396 651 448 C651 500 618 540 519 540 L311 540 L311 514 L338 510 C354 508 357 498 357 481 L357 219 C357 201 354 191 338 189 L311 185 L311 159 L504 159 Z M457 488 C457 503 461 508 488 508 C519 508 546 488 546 437 C546 413 541 395 531 382 C521 370 506 363 481 363 L457 363 L457 488 Z M490 -15 C691 -15 854 146 854 346 C854 546 691 707 490 707 C289 707 126 546 126 346 C126 146 289 -15 490 -15 L490 -15 Z M209 346 C209 514 335 644 490 644 C645 644 771 514 771 346 C771 178 645 48 490 48 C335 48 209 178 209 346 L209 346 Z " />
<glyph glyph-name="macron" unicode="&#xaf;" horiz-adv-x="400" d="M183 664 L168 592 L479 592 L494 664 L183 664 Z " />
<glyph glyph-name="degree" unicode="&#xb0;" horiz-adv-x="375" d="M294 360 C386 360 460 430 460 520 C460 610 386 680 294 680 C201 680 127 610 128 520 C128 430 201 360 294 360 L294 360 Z M205 521 C204 579 244 622 293 622 C343 622 383 579 383 521 C383 461 343 418 294 418 C244 418 205 461 205 521 L205 521 Z " />
<glyph glyph-name="plusminus" unicode="&#xb1;" horiz-adv-x="600" d="M118 298 L313 298 L313 129 L409 129 L409 298 L602 298 L602 378 L409 378 L409 549 L313 549 L313 378 L118 378 L118 298 Z M118 0 L602 0 L602 80 L118 80 L118 0 Z " />
<glyph glyph-name="twosuperior" unicode="&#xb2;" horiz-adv-x="402" d="M404 387 C384 359 373 354 346 354 L195 354 C215 381 254 406 320 429 C397 456 458 489 458 566 C458 624 419 680 300 680 C197 680 135 626 135 579 C135 551 166 531 192 531 C217 531 226 547 232 561 C257 616 282 642 305 642 C326 642 333 622 333 594 C333 549 299 487 224 443 C127 387 67 329 64 282 L74 272 L385 272 L432 379 L404 387 Z " />
<glyph glyph-name="threesuperior" unicode="&#xb3;" horiz-adv-x="402" d="M266 468 C285 468 307 458 307 408 C307 332 274 303 250 303 C223 303 207 324 191 373 C185 390 173 403 154 403 C125 403 94 379 94 349 C94 304 152 265 250 265 C366 265 435 312 435 390 C435 441 395 474 344 485 L345 487 C392 493 456 513 456 579 C456 641 386 680 306 680 C206 680 149 633 149 593 C149 565 177 548 198 548 C220 548 229 561 239 578 C265 623 284 642 303 642 C325 642 335 623 335 599 C335 562 313 503 274 503 C248 503 222 517 206 517 C192 517 184 500 184 481 C184 466 191 457 204 457 C218 457 244 468 266 468 L266 468 Z " />
<glyph glyph-name="acute" unicode="&#xb4;" horiz-adv-x="400" d="M242 511 L425 614 C461 634 493 654 493 680 C493 705 464 740 440 740 C420 740 403 728 366 690 L221 541 L242 511 Z " />
<glyph glyph-name="mu" unicode="&#xb5;" horiz-adv-x="634" d="M446 210 L415 96 C397 28 425 -12 479 -12 C576 -12 637 65 678 148 L649 166 C623 121 586 68 563 68 C544 68 543 89 551 115 L652 502 L510 490 C481 388 465 335 443 285 C407 199 325 68 278 68 C250 68 249 91 259 128 L353 497 L348 502 L117 476 L109 443 L168 437 C187 435 191 421 183 391 L35 -180 C26 -216 40 -230 63 -230 C110 -230 166 -197 166 -161 C166 -142 162 -125 156 -102 C149 -71 150 -35 154 -19 L160 4 C173 -6 188 -10 196 -10 C296 -12 379 94 442 210 L446 210 Z " />
<glyph glyph-name="paragraph" unicode="&#xb6;" horiz-adv-x="580" d="M445 692 C265 692 145 576 145 422 C145 299 230 238 342 238 L445 692 Z M583 608 C589 637 594 648 613 650 L681 659 L688 692 L512 692 L353 -7 C347 -36 340 -55 321 -57 L238 -68 L231 -101 L422 -101 L583 608 Z " />
<glyph glyph-name="periodcentered" unicode="&#xb7;" horiz-adv-x="280" d="M198 339 C145 339 102 301 102 240 C102 197 129 161 189 161 C240 161 282 200 282 261 C282 302 256 339 198 339 L198 339 Z " />
<glyph glyph-name="cedilla" unicode="&#xb8;" horiz-adv-x="400" d="M226 0 L160 -90 L163 -98 C185 -100 228 -109 223 -153 C219 -196 178 -211 122 -211 L120 -243 C137 -245 148 -246 168 -246 C215 -246 319 -232 327 -151 C334 -79 270 -60 240 -56 L284 0 L226 0 Z " />
<glyph glyph-name="onesuperior" unicode="&#xb9;" horiz-adv-x="402" d="M372 272 L378 299 L341 304 C321 307 315 314 320 340 L396 673 L390 680 L208 656 L202 630 L242 624 C257 621 264 614 258 590 L201 340 C196 314 186 307 164 304 L125 299 L119 272 L372 272 Z " />
<glyph glyph-name="ordmasculine" unicode="&#xba;" horiz-adv-x="412" d="M323 590 C234 590 188 554 158 510 C130 469 121 420 121 391 C121 319 166 265 273 265 C368 265 414 298 445 341 C472 379 481 425 481 458 C481 562 403 590 323 590 L323 590 Z M230 340 C230 380 243 437 263 482 C282 526 308 556 337 556 C362 556 372 536 372 512 C372 465 331 299 267 299 C244 299 230 315 230 340 L230 340 Z " />
<glyph glyph-name="guillemotright" unicode="&#xbb;" horiz-adv-x="560" d="M117 37 L322 231 C337 245 340 255 329 270 L192 464 L164 447 L211 269 C215 255 212 244 203 229 L93 58 L117 37 Z M318 37 L523 231 C538 245 541 255 530 270 L393 464 L365 447 L412 269 C416 255 413 244 404 229 L294 58 L318 37 Z " />
<glyph glyph-name="onequarter" unicode="&#xbc;" horiz-adv-x="940" d="M601 145 C648 200 708 263 753 313 L755 313 L716 145 L601 145 Z M705 102 L695 54 C692 38 682 31 666 30 L626 27 L621 0 L842 0 L847 27 L823 30 C810 31 804 38 807 54 L817 102 L873 102 L883 145 L827 145 L884 401 L792 401 C706 324 616 226 523 126 L536 102 L705 102 Z M392 272 L398 299 L361 304 C341 307 335 314 340 340 L416 673 L410 680 L228 656 L222 630 L262 624 C277 621 284 614 278 590 L221 340 C216 314 206 307 184 304 L145 299 L139 272 L392 272 Z M309 -27 L814 661 L770 695 L268 11 L309 -27 Z " />
<glyph glyph-name="onehalf" unicode="&#xbd;" horiz-adv-x="940" d="M279 -27 L784 661 L740 695 L238 11 L279 -27 Z M378 272 L384 299 L347 304 C327 307 321 314 326 340 L402 673 L396 680 L214 656 L208 630 L248 624 C263 621 270 614 264 590 L207 340 C202 314 192 307 170 304 L131 299 L125 272 L378 272 Z M860 0 L907 107 L879 115 C859 87 848 82 821 82 L670 82 C690 109 729 134 795 157 C872 184 933 217 933 294 C933 352 894 408 775 408 C672 408 610 354 610 307 C610 279 641 259 667 259 C692 259 701 275 707 289 C732 344 757 370 780 370 C801 370 808 350 808 322 C808 277 774 215 699 171 C602 115 542 57 539 10 L549 0 L860 0 Z " />
<glyph glyph-name="threequarters" unicode="&#xbe;" horiz-adv-x="940" d="M343 -27 L848 661 L804 695 L302 11 L343 -27 Z M302 468 C321 468 343 458 343 408 C343 332 310 303 286 303 C259 303 243 324 227 373 C221 390 209 403 190 403 C161 403 130 379 130 349 C130 304 188 265 286 265 C402 265 471 312 471 390 C471 441 431 474 380 485 L381 487 C428 493 492 513 492 579 C492 641 422 680 342 680 C242 680 185 633 185 593 C185 565 213 548 234 548 C256 548 265 561 275 578 C301 623 320 642 339 642 C361 642 371 623 371 599 C371 562 349 503 310 503 C284 503 258 517 242 517 C228 517 220 500 220 481 C220 466 227 457 240 457 C254 457 280 468 302 468 L302 468 Z M732 102 L722 54 C719 38 709 31 693 30 L653 27 L648 0 L869 0 L874 27 L850 30 C837 31 831 38 834 54 L844 102 L900 102 L910 145 L854 145 L911 401 L819 401 C733 324 643 226 550 126 L563 102 L732 102 Z M628 145 C675 200 735 263 780 313 L782 313 L743 145 L628 145 Z " />
<glyph glyph-name="questiondown" unicode="&#xbf;" horiz-adv-x="454" d="M220 -217 C360 -217 422 -144 422 -95 C422 -49 375 -32 346 -32 C320 -32 306 -45 297 -66 C266 -137 237 -171 208 -171 C184 -171 174 -149 174 -125 C174 -51 222 8 306 53 C373 89 413 126 413 177 C413 234 365 272 297 272 C257 272 204 260 170 237 L177 208 C189 210 202 210 220 208 C241 206 269 191 269 161 C269 117 224 88 163 65 C86 35 25 -6 25 -83 C25 -165 88 -217 220 -217 L220 -217 Z M339 502 C288 502 246 463 246 402 C246 361 272 324 330 324 C383 324 426 362 426 423 C426 466 399 502 339 502 L339 502 Z " />
<glyph glyph-name="Agrave" unicode="&#xc0;" horiz-adv-x="634" d="M260 294 C273 319 386 528 403 555 L405 555 L429 294 L260 294 Z M210 0 L217 38 L161 42 C139 43 138 59 148 79 C176 132 202 188 234 246 L434 246 L449 79 C451 55 446 43 426 42 L374 38 L366 0 L666 0 L674 38 L633 41 C610 43 606 58 602 86 C594 159 580 302 572 375 L538 692 L420 692 L226 349 C166 243 103 133 75 87 C55 54 40 44 10 41 L-17 38 L-24 0 L210 0 Z M583 751 L411 874 C380 897 365 904 347 904 C315 904 293 860 293 840 C293 811 313 800 366 783 L569 719 L583 751 Z " />
<glyph glyph-name="Aacute" unicode="&#xc1;" horiz-adv-x="634" d="M260 294 C273 319 386 528 403 555 L405 555 L429 294 L260 294 Z M210 0 L217 38 L161 42 C139 43 138 59 148 79 C176 132 202 188 234 246 L434 246 L449 79 C451 55 446 43 426 42 L374 38 L366 0 L666 0 L674 38 L633 41 C610 43 606 58 602 86 C594 159 580 302 572 375 L538 692 L420 692 L226 349 C166 243 103 133 75 87 C55 54 40 44 10 41 L-17 38 L-24 0 L210 0 Z M387 719 L590 783 C643 800 663 811 663 840 C663 860 641 904 609 904 C591 904 576 897 545 874 L373 751 L387 719 Z " />
<glyph glyph-name="Acircumflex" unicode="&#xc2;" horiz-adv-x="634" d="M260 294 C273 319 386 528 403 555 L405 555 L429 294 L260 294 Z M210 0 L217 38 L161 42 C139 43 138 59 148 79 C176 132 202 188 234 246 L434 246 L449 79 C451 55 446 43 426 42 L374 38 L366 0 L666 0 L674 38 L633 41 C610 43 606 58 602 86 C594 159 580 302 572 375 L538 692 L420 692 L226 349 C166 243 103 133 75 87 C55 54 40 44 10 41 L-17 38 L-24 0 L210 0 Z M671 755 L559 877 C545 892 532 905 514 905 C497 905 480 892 462 879 L290 755 L307 725 L458 787 C477 795 490 800 500 800 C512 800 522 796 541 785 L647 725 L671 755 Z " />
<glyph glyph-name="Atilde" unicode="&#xc3;" horiz-adv-x="634" d="M260 294 C273 319 386 528 403 555 L405 555 L429 294 L260 294 Z M210 0 L217 38 L161 42 C139 43 138 59 148 79 C176 132 202 188 234 246 L434 246 L449 79 C451 55 446 43 426 42 L374 38 L366 0 L666 0 L674 38 L633 41 C610 43 606 58 602 86 C594 159 580 302 572 375 L538 692 L420 692 L226 349 C166 243 103 133 75 87 C55 54 40 44 10 41 L-17 38 L-24 0 L210 0 Z M407 863 C325 863 290 784 272 741 L304 723 C326 762 342 778 379 778 C409 778 442 768 474 757 C506 747 537 736 562 736 C644 736 679 815 697 858 L665 876 C643 837 627 821 590 821 C564 821 532 832 499 842 C467 853 435 863 407 863 L407 863 Z " />
<glyph glyph-name="Adieresis" unicode="&#xc4;" horiz-adv-x="634" d="M260 294 C273 319 386 528 403 555 L405 555 L429 294 L260 294 Z M210 0 L217 38 L161 42 C139 43 138 59 148 79 C176 132 202 188 234 246 L434 246 L449 79 C451 55 446 43 426 42 L374 38 L366 0 L666 0 L674 38 L633 41 C610 43 606 58 602 86 C594 159 580 302 572 375 L538 692 L420 692 L226 349 C166 243 103 133 75 87 C55 54 40 44 10 41 L-17 38 L-24 0 L210 0 Z M356 732 C408 732 435 768 435 806 C435 844 408 881 356 881 C305 881 277 844 277 806 C277 768 305 732 356 732 L356 732 Z M608 732 C660 732 687 768 687 806 C687 844 660 881 608 881 C557 881 529 844 529 806 C529 768 557 732 608 732 L608 732 Z " />
<glyph glyph-name="Aring" unicode="&#xc5;" horiz-adv-x="634" d="M258 294 C271 319 384 528 401 555 L405 555 L429 294 L258 294 Z M430 741 C430 799 464 840 502 840 C531 840 549 820 549 789 C549 736 518 692 478 692 C452 692 430 708 430 741 L430 741 Z M666 0 L674 38 L633 41 C610 43 606 58 602 86 C594 159 580 302 572 375 L540 667 C588 688 615 731 615 782 C615 844 573 879 508 879 C407 879 364 816 364 743 C364 709 381 681 408 667 L226 349 C166 243 103 133 75 87 C55 54 40 44 10 41 L-17 38 L-24 0 L210 0 L217 38 L161 42 C139 43 138 59 148 79 C176 132 202 188 232 246 L434 246 L449 79 C451 55 446 43 426 42 L374 38 L366 0 L666 0 Z " />
<glyph glyph-name="AE" unicode="&#xc6;" horiz-adv-x="890" d="M336 387 C396 472 460 556 522 640 L532 640 L476 387 L336 387 Z M367 692 L357 654 L425 647 C448 645 445 629 402 571 C301 436 107 172 47 100 C20 68 1 47 -29 43 L-65 38 L-72 0 L192 0 L199 38 L131 44 C113 46 114 63 125 80 C160 134 196 185 300 339 L465 339 L409 98 C401 62 394 44 365 42 L320 38 L311 0 L856 0 L915 208 L877 208 L845 154 C794 69 746 46 669 46 C580 46 550 48 563 105 L616 339 L708 339 C772 339 783 310 780 248 L818 248 L868 478 L830 478 C798 405 782 387 719 387 L627 387 L677 611 C684 642 691 646 722 646 L796 646 C884 646 906 609 910 562 L915 507 L953 507 L993 692 L367 692 Z " />
<glyph glyph-name="Ccedilla" unicode="&#xc7;" horiz-adv-x="672" d="M703 220 L665 220 C601 116 546 31 434 31 C344 31 280 96 280 235 C280 412 354 661 557 661 C674 661 699 571 700 480 L738 480 L777 659 C717 696 611 707 555 707 C362 707 250 631 180 524 C128 444 111 345 111 275 C111 189 138 9 383 -13 L328 -89 L331 -97 C354 -99 399 -109 394 -149 C389 -194 347 -210 289 -210 L286 -243 C304 -245 316 -246 336 -246 C385 -246 495 -231 502 -147 C509 -75 443 -58 411 -53 L441 -15 C507 -15 586 -6 648 26 L703 220 Z " />
<glyph glyph-name="Egrave" unicode="&#xc8;" horiz-adv-x="622" d="M190 692 L179 654 L230 649 C258 647 257 630 249 594 L138 98 C130 62 123 44 94 42 L49 38 L40 0 L590 0 L649 208 L611 208 L579 154 C528 67 480 46 401 46 C310 46 280 48 293 103 L346 339 L440 339 C504 339 515 311 512 249 L550 249 L600 477 L562 477 C530 404 514 387 451 387 L357 387 L407 613 C414 642 421 646 456 646 L525 646 C613 646 635 609 639 562 L644 507 L682 507 L722 692 L190 692 Z M593 751 L421 874 C390 897 375 904 357 904 C325 904 303 860 303 840 C303 811 323 800 376 783 L579 719 L593 751 Z " />
<glyph glyph-name="Eacute" unicode="&#xc9;" horiz-adv-x="622" d="M190 692 L179 654 L230 649 C258 647 257 630 249 594 L138 98 C130 62 123 44 94 42 L49 38 L40 0 L590 0 L649 208 L611 208 L579 154 C528 67 480 46 401 46 C310 46 280 48 293 103 L346 339 L440 339 C504 339 515 311 512 249 L550 249 L600 477 L562 477 C530 404 514 387 451 387 L357 387 L407 613 C414 642 421 646 456 646 L525 646 C613 646 635 609 639 562 L644 507 L682 507 L722 692 L190 692 Z M401 719 L604 783 C657 800 677 811 677 840 C677 860 655 904 623 904 C605 904 590 897 559 874 L387 751 L401 719 Z " />
<glyph glyph-name="Ecircumflex" unicode="&#xca;" horiz-adv-x="622" d="M190 692 L179 654 L230 649 C258 647 257 630 249 594 L138 98 C130 62 123 44 94 42 L49 38 L40 0 L590 0 L649 208 L611 208 L579 154 C528 67 480 46 401 46 C310 46 280 48 293 103 L346 339 L440 339 C504 339 515 311 512 249 L550 249 L600 477 L562 477 C530 404 514 387 451 387 L357 387 L407 613 C414 642 421 646 456 646 L525 646 C613 646 635 609 639 562 L644 507 L682 507 L722 692 L190 692 Z M675 755 L563 877 C549 892 536 905 518 905 C501 905 484 892 466 879 L294 755 L311 725 L462 787 C481 795 494 800 504 800 C516 800 526 796 545 785 L651 725 L675 755 Z " />
<glyph glyph-name="Edieresis" unicode="&#xcb;" horiz-adv-x="622" d="M190 692 L179 654 L230 649 C258 647 257 630 249 594 L138 98 C130 62 123 44 94 42 L49 38 L40 0 L590 0 L649 208 L611 208 L579 154 C528 67 480 46 401 46 C310 46 280 48 293 103 L346 339 L440 339 C504 339 515 311 512 249 L550 249 L600 477 L562 477 C530 404 514 387 451 387 L357 387 L407 613 C414 642 421 646 456 646 L525 646 C613 646 635 609 639 562 L644 507 L682 507 L722 692 L190 692 Z M358 732 C410 732 437 768 437 806 C437 844 410 881 358 881 C307 881 279 844 279 806 C279 768 307 732 358 732 L358 732 Z M610 732 C662 732 689 768 689 806 C689 844 662 881 610 881 C559 881 531 844 531 806 C531 768 559 732 610 732 L610 732 Z " />
<glyph glyph-name="Igrave" unicode="&#xcc;" horiz-adv-x="386" d="M189 692 L179 654 L230 649 C258 647 257 630 249 594 L138 98 C130 62 123 44 94 42 L49 38 L40 0 L352 0 L361 38 L311 42 C283 45 284 62 292 98 L403 594 C411 630 418 648 447 650 L491 654 L501 692 L189 692 Z M471 751 L299 874 C268 897 253 904 235 904 C203 904 181 860 181 840 C181 811 201 800 254 783 L457 719 L471 751 Z " />
<glyph glyph-name="Iacute" unicode="&#xcd;" horiz-adv-x="386" d="M189 692 L179 654 L230 649 C258 647 257 630 249 594 L138 98 C130 62 123 44 94 42 L49 38 L40 0 L352 0 L361 38 L311 42 C283 45 284 62 292 98 L403 594 C411 630 418 648 447 650 L491 654 L501 692 L189 692 Z M258 719 L461 783 C514 800 534 811 534 840 C534 860 512 904 480 904 C462 904 447 897 416 874 L244 751 L258 719 Z " />
<glyph glyph-name="Icircumflex" unicode="&#xce;" horiz-adv-x="386" d="M189 692 L179 654 L230 649 C258 647 257 630 249 594 L138 98 C130 62 123 44 94 42 L49 38 L40 0 L352 0 L361 38 L311 42 C283 45 284 62 292 98 L403 594 C411 630 418 648 447 650 L491 654 L501 692 L189 692 Z M541 755 L429 877 C415 892 402 905 384 905 C367 905 350 892 332 879 L160 755 L177 725 L328 787 C347 795 360 800 370 800 C382 800 392 796 411 785 L517 725 L541 755 Z " />
<glyph glyph-name="Idieresis" unicode="&#xcf;" horiz-adv-x="386" d="M189 692 L179 654 L230 649 C258 647 257 630 249 594 L138 98 C130 62 123 44 94 42 L49 38 L40 0 L352 0 L361 38 L311 42 C283 45 284 62 292 98 L403 594 C411 630 418 648 447 650 L491 654 L501 692 L189 692 Z M237 732 C289 732 316 768 316 806 C316 844 289 881 237 881 C186 881 158 844 158 806 C158 768 186 732 237 732 L237 732 Z M489 732 C541 732 568 768 568 806 C568 844 541 881 489 881 C438 881 410 844 410 806 C410 768 438 732 489 732 L489 732 Z " />
<glyph glyph-name="Eth" unicode="&#xd0;" horiz-adv-x="780" d="M411 606 C418 639 432 646 496 646 C639 646 662 549 662 454 C662 336 598 46 366 46 C318 46 288 54 298 97 L352 339 L495 339 L507 387 L363 387 L411 606 Z M144 98 C136 62 129 44 100 42 L55 38 L46 0 L367 0 C585 0 690 73 759 182 C813 266 825 362 825 403 C825 510 792 582 733 627 C674 672 589 691 470 692 L195 692 L185 654 L236 649 C264 647 263 630 255 594 L209 387 L115 387 L103 339 L198 339 L144 98 Z " />
<glyph glyph-name="Ntilde" unicode="&#xd1;" horiz-adv-x="741" d="M182 692 L172 654 L222 649 C250 647 249 630 241 594 L163 239 C146 164 136 125 125 91 C114 57 99 43 75 41 L38 38 L30 0 L276 0 L284 38 L230 41 C202 43 193 58 196 91 C200 126 208 165 223 239 L295 561 L299 561 C379 374 458 187 536 0 L640 0 L740 453 C757 528 767 567 778 601 C789 635 804 649 828 651 L865 654 L873 692 L627 692 L619 654 L673 651 C702 649 710 634 707 601 C704 566 695 527 679 453 L620 183 L617 183 C545 353 474 522 404 692 L182 692 Z M472 863 C390 863 355 784 337 741 L369 723 C391 762 407 778 444 778 C474 778 507 768 539 757 C571 747 602 736 627 736 C709 736 744 815 762 858 L730 876 C708 837 692 821 655 821 C629 821 597 832 564 842 C532 853 500 863 472 863 L472 863 Z " />
<glyph glyph-name="Ograve" unicode="&#xd2;" horiz-adv-x="761" d="M420 -15 C600 -15 691 74 744 176 C795 274 803 366 803 419 C803 621 675 707 507 707 C326 707 224 611 170 508 C117 406 113 316 113 264 C113 95 219 -15 420 -15 L420 -15 Z M403 31 C319 31 278 88 278 190 C278 349 357 661 522 661 C611 661 638 594 638 506 C638 312 551 31 403 31 L403 31 Z M597 751 L425 874 C394 897 379 904 361 904 C329 904 307 860 307 840 C307 811 327 800 380 783 L583 719 L597 751 Z " />
<glyph glyph-name="Oacute" unicode="&#xd3;" horiz-adv-x="761" d="M420 -15 C600 -15 691 74 744 176 C795 274 803 366 803 419 C803 621 675 707 507 707 C326 707 224 611 170 508 C117 406 113 316 113 264 C113 95 219 -15 420 -15 L420 -15 Z M403 31 C319 31 278 88 278 190 C278 349 357 661 522 661 C611 661 638 594 638 506 C638 312 551 31 403 31 L403 31 Z M436 719 L639 783 C692 800 712 811 712 840 C712 860 690 904 658 904 C640 904 625 897 594 874 L422 751 L436 719 Z " />
<glyph glyph-name="Ocircumflex" unicode="&#xd4;" horiz-adv-x="761" d="M420 -15 C600 -15 691 74 744 176 C795 274 803 366 803 419 C803 621 675 707 507 707 C326 707 224 611 170 508 C117 406 113 316 113 264 C113 95 219 -15 420 -15 L420 -15 Z M403 31 C319 31 278 88 278 190 C278 349 357 661 522 661 C611 661 638 594 638 506 C638 312 551 31 403 31 L403 31 Z M725 755 L613 877 C599 892 586 905 568 905 C551 905 534 892 516 879 L344 755 L361 725 L512 787 C531 795 544 800 554 800 C566 800 576 796 595 785 L701 725 L725 755 Z " />
<glyph glyph-name="Otilde" unicode="&#xd5;" horiz-adv-x="761" d="M420 -15 C600 -15 691 74 744 176 C795 274 803 366 803 419 C803 621 675 707 507 707 C326 707 224 611 170 508 C117 406 113 316 113 264 C113 95 219 -15 420 -15 L420 -15 Z M403 31 C319 31 278 88 278 190 C278 349 357 661 522 661 C611 661 638 594 638 506 C638 312 551 31 403 31 L403 31 Z M464 863 C382 863 347 784 329 741 L361 723 C383 762 399 778 436 778 C466 778 499 768 531 757 C563 747 594 736 619 736 C701 736 736 815 754 858 L722 876 C700 837 684 821 647 821 C621 821 589 832 556 842 C524 853 492 863 464 863 L464 863 Z " />
<glyph glyph-name="Odieresis" unicode="&#xd6;" horiz-adv-x="761" d="M420 -15 C600 -15 691 74 744 176 C795 274 803 366 803 419 C803 621 675 707 507 707 C326 707 224 611 170 508 C117 406 113 316 113 264 C113 95 219 -15 420 -15 L420 -15 Z M403 31 C319 31 278 88 278 190 C278 349 357 661 522 661 C611 661 638 594 638 506 C638 312 551 31 403 31 L403 31 Z M416 732 C468 732 495 768 495 806 C495 844 468 881 416 881 C365 881 337 844 337 806 C337 768 365 732 416 732 L416 732 Z M668 732 C720 732 747 768 747 806 C747 844 720 881 668 881 C617 881 589 844 589 806 C589 768 617 732 668 732 L668 732 Z " />
<glyph glyph-name="multiply" unicode="&#xd7;" horiz-adv-x="600" d="M595 415 L536 478 L370 310 L203 478 L145 415 L310 249 L145 83 L203 22 L370 189 L536 22 L595 83 L430 249 L595 415 Z " />
<glyph glyph-name="Oslash" unicode="&#xd8;" horiz-adv-x="761" d="M278 154 C277 165 274 176 274 188 C274 349 357 661 523 661 C576 661 607 638 623 602 L278 154 Z M638 541 C640 531 642 520 642 508 C642 312 551 31 401 31 C350 31 314 53 294 94 L638 541 Z M763 702 L724 734 L675 670 C626 695 569 707 507 707 C326 707 224 611 170 508 C117 406 112 313 112 260 C112 173 142 101 200 53 L147 -16 L183 -51 L241 24 C288 -1 348 -15 420 -15 C600 -15 691 74 745 176 C796 274 804 366 804 419 C804 522 771 594 716 642 L763 702 Z " />
<glyph glyph-name="Ugrave" unicode="&#xd9;" horiz-adv-x="776" d="M178 692 L168 654 L219 649 C247 647 246 630 238 594 L159 241 C141 161 148 97 185 55 C227 9 306 -15 402 -15 C481 -15 557 -1 612 38 C662 74 701 142 726 253 L804 594 C812 630 819 648 848 650 L892 654 L902 692 L590 692 L580 654 L631 649 C659 647 658 630 650 594 L575 258 C541 104 495 31 407 31 C328 31 279 82 312 233 L392 594 C400 630 407 648 436 650 L480 654 L490 692 L178 692 Z M594 751 L422 874 C391 897 376 904 358 904 C326 904 304 860 304 840 C304 811 324 800 377 783 L580 719 L594 751 Z " />
<glyph glyph-name="Uacute" unicode="&#xda;" horiz-adv-x="776" d="M178 692 L168 654 L219 649 C247 647 246 630 238 594 L159 241 C141 161 148 97 185 55 C227 9 306 -15 402 -15 C481 -15 557 -1 612 38 C662 74 701 142 726 253 L804 594 C812 630 819 648 848 650 L892 654 L902 692 L590 692 L580 654 L631 649 C659 647 658 630 650 594 L575 258 C541 104 495 31 407 31 C328 31 279 82 312 233 L392 594 C400 630 407 648 436 650 L480 654 L490 692 L178 692 Z M533 719 L736 783 C789 800 809 811 809 840 C809 860 787 904 755 904 C737 904 722 897 691 874 L519 751 L533 719 Z " />
<glyph glyph-name="Ucircumflex" unicode="&#xdb;" horiz-adv-x="776" d="M178 692 L168 654 L219 649 C247 647 246 630 238 594 L159 241 C141 161 148 97 185 55 C227 9 306 -15 402 -15 C481 -15 557 -1 612 38 C662 74 701 142 726 253 L804 594 C812 630 819 648 848 650 L892 654 L902 692 L590 692 L580 654 L631 649 C659 647 658 630 650 594 L575 258 C541 104 495 31 407 31 C328 31 279 82 312 233 L392 594 C400 630 407 648 436 650 L480 654 L490 692 L178 692 Z M732 755 L620 877 C606 892 593 905 575 905 C558 905 541 892 523 879 L351 755 L368 725 L519 787 C538 795 551 800 561 800 C573 800 583 796 602 785 L708 725 L732 755 Z " />
<glyph glyph-name="Udieresis" unicode="&#xdc;" horiz-adv-x="776" d="M178 692 L168 654 L219 649 C247 647 246 630 238 594 L159 241 C141 161 148 97 185 55 C227 9 306 -15 402 -15 C481 -15 557 -1 612 38 C662 74 701 142 726 253 L804 594 C812 630 819 648 848 650 L892 654 L902 692 L590 692 L580 654 L631 649 C659 647 658 630 650 594 L575 258 C541 104 495 31 407 31 C328 31 279 82 312 233 L392 594 C400 630 407 648 436 650 L480 654 L490 692 L178 692 Z M422 732 C474 732 501 768 501 806 C501 844 474 881 422 881 C371 881 343 844 343 806 C343 768 371 732 422 732 L422 732 Z M674 732 C726 732 753 768 753 806 C753 844 726 881 674 881 C623 881 595 844 595 806 C595 768 623 732 674 732 L674 732 Z " />
<glyph glyph-name="Yacute" unicode="&#xdd;" horiz-adv-x="622" d="M482 0 L491 38 L427 43 C399 45 400 62 408 98 L443 251 C449 278 459 297 477 323 C543 420 638 547 688 603 C715 633 727 647 764 651 L793 654 L800 692 L548 692 L540 654 L593 649 C615 647 618 635 606 615 C576 565 492 438 428 347 L426 347 L356 619 C352 636 353 646 373 648 L428 654 L436 692 L135 692 L127 656 L161 653 C183 651 192 642 202 609 C231 516 260 414 285 311 C290 292 293 273 287 246 L255 98 C247 62 240 44 211 42 L152 38 L143 0 L482 0 Z M486 719 L689 783 C742 800 762 811 762 840 C762 860 740 904 708 904 C690 904 675 897 644 874 L472 751 L486 719 Z " />
<glyph glyph-name="Thorn" unicode="&#xde;" horiz-adv-x="629" d="M501 692 L190 692 L180 654 L231 649 C259 647 258 630 250 594 L138 98 C130 62 123 44 94 42 L49 38 L40 0 L370 0 L378 38 L313 43 C283 45 284 64 292 98 L310 176 L406 176 C490 176 565 192 614 226 C663 260 693 310 695 373 C697 501 591 548 456 548 L392 548 L403 594 C411 630 418 648 447 650 L491 654 L501 692 Z M374 464 C380 491 392 502 437 502 C500 502 537 463 536 398 C534 314 490 222 364 222 C328 222 321 233 327 261 L374 464 Z " />
<glyph glyph-name="germandbls" unicode="&#xdf;" horiz-adv-x="628" d="M661 479 C717 520 727 565 727 601 C727 676 660 742 512 742 C309 742 240 604 212 512 L205 490 L119 490 L105 442 L194 442 L71 -169 C67 -187 60 -196 52 -196 C42 -196 29 -182 5 -140 C-4 -125 -12 -109 -34 -109 C-66 -109 -94 -137 -94 -168 C-94 -210 -51 -242 26 -242 C147 -239 203 -151 245 28 L339 426 C372 564 425 696 517 696 C566 696 602 661 602 611 C602 576 588 530 539 492 C465 488 397 427 397 342 C397 301 422 254 453 212 C490 161 521 122 521 84 C521 53 501 36 478 36 C457 36 439 50 412 91 C404 103 394 111 378 111 C350 111 322 89 323 58 C323 21 379 -10 456 -10 C589 -10 640 77 640 147 C640 199 614 244 587 281 C567 309 531 354 531 392 C531 424 546 479 661 479 L661 479 Z " />
<glyph glyph-name="agrave" unicode="&#xe0;" horiz-adv-x="596" d="M484 494 L480 485 C462 496 436 502 409 502 C171 502 61 239 61 108 C61 47 88 -12 159 -12 C278 -12 352 111 405 202 L411 202 L386 114 C362 29 385 -12 448 -12 C543 -12 605 65 647 149 L618 165 C593 121 555 68 531 68 C513 68 513 88 520 115 L621 494 L484 494 Z M364 194 C315 116 276 68 244 68 C221 68 215 87 215 115 C215 220 305 456 418 456 C437 456 454 451 467 442 C449 371 413 274 364 194 L364 194 Z M504 541 L359 690 C322 728 305 740 285 740 C261 740 232 705 232 680 C232 654 264 634 300 614 L483 511 L504 541 Z " />
<glyph glyph-name="aacute" unicode="&#xe1;" horiz-adv-x="596" d="M484 494 L480 485 C462 496 436 502 409 502 C171 502 61 239 61 108 C61 47 88 -12 159 -12 C278 -12 352 111 405 202 L411 202 L386 114 C362 29 385 -12 448 -12 C543 -12 605 65 647 149 L618 165 C593 121 555 68 531 68 C513 68 513 88 520 115 L621 494 L484 494 Z M364 194 C315 116 276 68 244 68 C221 68 215 87 215 115 C215 220 305 456 418 456 C437 456 454 451 467 442 C449 371 413 274 364 194 L364 194 Z M365 511 L548 614 C584 634 616 654 616 680 C616 705 587 740 563 740 C543 740 526 728 489 690 L344 541 L365 511 Z " />
<glyph glyph-name="acircumflex" unicode="&#xe2;" horiz-adv-x="596" d="M484 494 L480 485 C462 496 436 502 409 502 C171 502 61 239 61 108 C61 47 88 -12 159 -12 C278 -12 352 111 405 202 L411 202 L386 114 C362 29 385 -12 448 -12 C543 -12 605 65 647 149 L618 165 C593 121 555 68 531 68 C513 68 513 88 520 115 L621 494 L484 494 Z M364 194 C315 116 276 68 244 68 C221 68 215 87 215 115 C215 220 305 456 418 456 C437 456 454 451 467 442 C449 371 413 274 364 194 L364 194 Z M609 547 L495 719 C485 734 476 747 459 747 C444 747 427 736 411 720 L231 547 L254 520 L399 616 C413 625 428 633 437 633 C447 633 457 625 467 616 L580 520 L609 547 Z " />
<glyph glyph-name="atilde" unicode="&#xe3;" horiz-adv-x="596" d="M484 494 L480 485 C462 496 436 502 409 502 C171 502 61 239 61 108 C61 47 88 -12 159 -12 C278 -12 352 111 405 202 L411 202 L386 114 C362 29 385 -12 448 -12 C543 -12 605 65 647 149 L618 165 C593 121 555 68 531 68 C513 68 513 88 520 115 L621 494 L484 494 Z M364 194 C315 116 276 68 244 68 C221 68 215 87 215 115 C215 220 305 456 418 456 C437 456 454 451 467 442 C449 371 413 274 364 194 L364 194 Z M613 697 C577 656 559 648 538 646 C512 645 479 656 446 666 C413 677 380 688 352 688 C271 688 235 609 227 567 L249 549 C271 588 287 604 324 604 C354 604 390 594 423 583 C456 573 487 562 508 562 C581 562 603 620 635 684 L613 697 Z " />
<glyph glyph-name="adieresis" unicode="&#xe4;" horiz-adv-x="596" d="M484 494 L480 485 C462 496 436 502 409 502 C171 502 61 239 61 108 C61 47 88 -12 159 -12 C278 -12 352 111 405 202 L411 202 L386 114 C362 29 385 -12 448 -12 C543 -12 605 65 647 149 L618 165 C593 121 555 68 531 68 C513 68 513 88 520 115 L621 494 L484 494 Z M364 194 C315 116 276 68 244 68 C221 68 215 87 215 115 C215 220 305 456 418 456 C437 456 454 451 467 442 C449 371 413 274 364 194 L364 194 Z M318 561 C370 561 397 597 397 635 C397 673 370 710 318 710 C267 710 239 673 239 635 C239 597 267 561 318 561 L318 561 Z M558 561 C610 561 637 597 637 635 C637 673 610 710 558 710 C507 710 479 673 479 635 C479 597 507 561 558 561 L558 561 Z " />
<glyph glyph-name="aring" unicode="&#xe5;" horiz-adv-x="596" d="M484 494 L480 485 C462 496 436 502 409 502 C171 502 61 239 61 108 C61 47 88 -12 159 -12 C278 -12 352 111 405 202 L411 202 L386 114 C362 29 385 -12 448 -12 C543 -12 605 65 647 149 L618 165 C593 121 555 68 531 68 C513 68 513 88 520 115 L621 494 L484 494 Z M364 194 C315 116 276 68 244 68 C221 68 215 87 215 115 C215 220 305 456 418 456 C437 456 454 451 467 442 C449 371 413 274 364 194 L364 194 Z M437 722 C468 722 487 701 488 667 C490 612 460 569 419 569 C392 569 367 586 367 624 C367 684 399 722 437 722 L437 722 Z M413 529 C505 529 559 586 556 660 C554 726 510 762 443 762 C339 762 297 695 299 627 C301 562 347 529 413 529 L413 529 Z " />
<glyph glyph-name="ae" unicode="&#xe6;" horiz-adv-x="789" d="M467 442 C449 371 413 274 364 194 C315 116 276 68 244 68 C221 68 215 87 215 115 C215 220 305 456 418 456 C437 456 454 451 467 442 L467 442 Z M514 509 L485 485 C462 496 436 502 410 502 C171 502 61 239 61 108 C61 47 88 -12 160 -12 C273 -12 346 101 398 189 L400 187 C399 178 398 167 398 161 C398 23 482 -12 552 -12 C637 -12 731 20 804 152 L774 176 C721 100 674 54 614 54 C553 54 534 107 534 163 L534 187 C687 216 756 248 799 286 C838 322 845 355 845 386 C845 457 783 502 695 502 C648 502 595 483 550 441 L548 443 L568 509 L514 509 Z M538 232 C552 347 620 456 679 456 C704 456 717 440 718 413 C717 334 654 255 538 232 L538 232 Z " />
<glyph glyph-name="ccedilla" unicode="&#xe7;" horiz-adv-x="456" d="M159 -90 L162 -98 C184 -100 227 -109 222 -153 C218 -196 177 -211 121 -211 L119 -243 C136 -245 147 -246 167 -246 C214 -246 318 -232 326 -151 C333 -79 269 -60 239 -56 L277 -8 C343 2 419 42 478 159 L448 180 C410 119 363 54 297 54 C244 54 226 101 226 162 C226 298 298 456 361 456 C381 456 392 442 405 389 C411 364 419 342 446 342 C481 342 533 369 533 405 C533 462 476 502 384 502 C179 502 73 310 73 155 C73 43 136 -5 217 -11 L159 -90 Z " />
<glyph glyph-name="egrave" unicode="&#xe8;" horiz-adv-x="476" d="M460 176 C407 100 360 54 300 54 C241 54 222 109 222 163 L222 187 C372 216 443 248 486 286 C525 322 532 355 532 386 C532 457 469 502 384 502 C285 502 208 456 154 388 C100 320 73 238 73 161 C73 23 164 -12 236 -12 C323 -12 417 20 490 152 L460 176 Z M226 232 C240 347 308 456 367 456 C391 456 404 440 404 412 C404 334 342 255 226 232 L226 232 Z M464 541 L319 690 C282 728 265 740 245 740 C221 740 192 705 192 680 C192 654 224 634 260 614 L443 511 L464 541 Z " />
<glyph glyph-name="eacute" unicode="&#xe9;" horiz-adv-x="476" d="M460 176 C407 100 360 54 300 54 C241 54 222 109 222 163 L222 187 C372 216 443 248 486 286 C525 322 532 355 532 386 C532 457 469 502 384 502 C285 502 208 456 154 388 C100 320 73 238 73 161 C73 23 164 -12 236 -12 C323 -12 417 20 490 152 L460 176 Z M226 232 C240 347 308 456 367 456 C391 456 404 440 404 412 C404 334 342 255 226 232 L226 232 Z M315 511 L498 614 C534 634 566 654 566 680 C566 705 537 740 513 740 C493 740 476 728 439 690 L294 541 L315 511 Z " />
<glyph glyph-name="ecircumflex" unicode="&#xea;" horiz-adv-x="476" d="M460 176 C407 100 360 54 300 54 C241 54 222 109 222 163 L222 187 C372 216 443 248 486 286 C525 322 532 355 532 386 C532 457 469 502 384 502 C285 502 208 456 154 388 C100 320 73 238 73 161 C73 23 164 -12 236 -12 C323 -12 417 20 490 152 L460 176 Z M226 232 C240 347 308 456 367 456 C391 456 404 440 404 412 C404 334 342 255 226 232 L226 232 Z M559 547 L445 719 C435 734 426 747 409 747 C394 747 377 736 361 720 L181 547 L204 520 L349 616 C363 625 378 633 387 633 C397 633 407 625 417 616 L530 520 L559 547 Z " />
<glyph glyph-name="edieresis" unicode="&#xeb;" horiz-adv-x="476" d="M460 176 C407 100 360 54 300 54 C241 54 222 109 222 163 L222 187 C372 216 443 248 486 286 C525 322 532 355 532 386 C532 457 469 502 384 502 C285 502 208 456 154 388 C100 320 73 238 73 161 C73 23 164 -12 236 -12 C323 -12 417 20 490 152 L460 176 Z M226 232 C240 347 308 456 367 456 C391 456 404 440 404 412 C404 334 342 255 226 232 L226 232 Z M258 561 C310 561 337 597 337 635 C337 673 310 710 258 710 C207 710 179 673 179 635 C179 597 207 561 258 561 L258 561 Z M498 561 C550 561 577 597 577 635 C577 673 550 710 498 710 C447 710 419 673 419 635 C419 597 447 561 498 561 L498 561 Z " />
<glyph glyph-name="igrave" unicode="&#xec;" horiz-adv-x="339" d="M348 166 C323 121 285 68 262 68 C243 68 244 89 251 115 L354 496 L348 502 L118 473 L110 440 L168 434 C188 432 192 419 185 392 L108 107 C87 30 111 -12 178 -12 C275 -12 336 65 378 149 L348 166 Z M376 541 L231 690 C194 728 177 740 157 740 C133 740 104 705 104 680 C104 654 136 634 172 614 L355 511 L376 541 Z " />
<glyph glyph-name="iacute" unicode="&#xed;" horiz-adv-x="339" d="M348 166 C323 121 285 68 262 68 C243 68 244 89 251 115 L354 496 L348 502 L118 473 L110 440 L168 434 C188 432 192 419 185 392 L108 107 C87 30 111 -12 178 -12 C275 -12 336 65 378 149 L348 166 Z M192 511 L375 614 C411 634 443 654 443 680 C443 705 414 740 390 740 C370 740 353 728 316 690 L171 541 L192 511 Z " />
<glyph glyph-name="icircumflex" unicode="&#xee;" horiz-adv-x="339" d="M348 166 C323 121 285 68 262 68 C243 68 244 89 251 115 L354 496 L348 502 L118 473 L110 440 L168 434 C188 432 192 419 185 392 L108 107 C87 30 111 -12 178 -12 C275 -12 336 65 378 149 L348 166 Z M451 547 L337 719 C327 734 318 747 301 747 C286 747 269 736 253 720 L73 547 L96 520 L241 616 C255 625 270 633 279 633 C289 633 299 625 309 616 L422 520 L451 547 Z " />
<glyph glyph-name="idieresis" unicode="&#xef;" horiz-adv-x="339" d="M348 166 C323 121 285 68 262 68 C243 68 244 89 251 115 L354 496 L348 502 L118 473 L110 440 L168 434 C188 432 192 419 185 392 L108 107 C87 30 111 -12 178 -12 C275 -12 336 65 378 149 L348 166 Z M160 561 C212 561 239 597 239 635 C239 673 212 710 160 710 C109 710 81 673 81 635 C81 597 109 561 160 561 L160 561 Z M400 561 C452 561 479 597 479 635 C479 673 452 710 400 710 C349 710 321 673 321 635 C321 597 349 561 400 561 L400 561 Z " />
<glyph glyph-name="eth" unicode="&#xf0;" horiz-adv-x="562" d="M593 678 L566 718 L420 659 C386 689 344 718 305 742 L248 727 L247 716 C284 686 316 655 339 626 L206 572 L235 532 L372 588 C396 557 415 526 425 500 L425 497 C417 500 408 502 391 502 C252 502 179 441 135 371 C90 300 77 219 77 174 C77 64 139 -12 284 -12 C410 -12 482 40 529 115 C575 188 591 265 591 323 C591 452 534 545 458 623 L593 678 Z M222 107 C222 174 242 266 274 339 C304 407 342 456 389 456 C436 456 446 416 446 374 C446 300 387 34 281 34 C245 34 222 57 222 107 L222 107 Z " />
<glyph glyph-name="ntilde" unicode="&#xf1;" horiz-adv-x="635" d="M221 0 C250 102 270 155 293 213 C323 288 413 422 461 422 C492 422 490 393 481 363 L405 107 C383 30 412 -12 473 -12 C573 -12 633 64 674 148 L645 166 C621 121 583 68 559 68 C541 68 540 89 548 115 L623 357 C646 436 632 502 548 502 C445 502 354 396 292 280 L286 280 L354 497 L349 502 L116 473 L108 440 L168 434 C187 432 191 418 183 391 L80 -12 L221 0 Z M618 697 C582 656 564 648 543 646 C517 645 484 656 451 666 C418 677 385 688 357 688 C276 688 240 609 232 567 L254 549 C276 588 292 604 329 604 C359 604 395 594 428 583 C461 573 492 562 513 562 C586 562 608 620 640 684 L618 697 Z " />
<glyph glyph-name="ograve" unicode="&#xf2;" horiz-adv-x="562" d="M284 -12 C410 -12 482 40 529 115 C575 188 591 263 591 308 C591 462 484 502 381 502 C252 502 181 441 136 371 C90 300 77 219 77 174 C77 66 139 -12 284 -12 L284 -12 Z M222 107 C222 174 242 266 274 339 C305 408 342 456 389 456 C436 456 446 416 446 374 C446 300 387 34 282 34 C245 34 222 57 222 107 L222 107 Z M487 541 L342 690 C305 728 288 740 268 740 C244 740 215 705 215 680 C215 654 247 634 283 614 L466 511 L487 541 Z " />
<glyph glyph-name="oacute" unicode="&#xf3;" horiz-adv-x="562" d="M284 -12 C410 -12 482 40 529 115 C575 188 591 263 591 308 C591 462 484 502 381 502 C252 502 181 441 136 371 C90 300 77 219 77 174 C77 66 139 -12 284 -12 L284 -12 Z M222 107 C222 174 242 266 274 339 C305 408 342 456 389 456 C436 456 446 416 446 374 C446 300 387 34 282 34 C245 34 222 57 222 107 L222 107 Z M338 511 L521 614 C557 634 589 654 589 680 C589 705 560 740 536 740 C516 740 499 728 462 690 L317 541 L338 511 Z " />
<glyph glyph-name="ocircumflex" unicode="&#xf4;" horiz-adv-x="562" d="M284 -12 C410 -12 482 40 529 115 C575 188 591 263 591 308 C591 462 484 502 381 502 C252 502 181 441 136 371 C90 300 77 219 77 174 C77 66 139 -12 284 -12 L284 -12 Z M222 107 C222 174 242 266 274 339 C305 408 342 456 389 456 C436 456 446 416 446 374 C446 300 387 34 282 34 C245 34 222 57 222 107 L222 107 Z M572 547 L458 719 C448 734 439 747 422 747 C407 747 390 736 374 720 L194 547 L217 520 L362 616 C376 625 391 633 400 633 C410 633 420 625 430 616 L543 520 L572 547 Z " />
<glyph glyph-name="otilde" unicode="&#xf5;" horiz-adv-x="562" d="M284 -12 C410 -12 482 40 529 115 C575 188 591 263 591 308 C591 462 484 502 381 502 C252 502 181 441 136 371 C90 300 77 219 77 174 C77 66 139 -12 284 -12 L284 -12 Z M222 107 C222 174 242 266 274 339 C305 408 342 456 389 456 C436 456 446 416 446 374 C446 300 387 34 282 34 C245 34 222 57 222 107 L222 107 Z M596 697 C560 656 542 648 521 646 C495 645 462 656 429 666 C396 677 363 688 335 688 C254 688 218 609 210 567 L232 549 C254 588 270 604 307 604 C337 604 373 594 406 583 C439 573 470 562 491 562 C564 562 586 620 618 684 L596 697 Z " />
<glyph glyph-name="odieresis" unicode="&#xf6;" horiz-adv-x="562" d="M284 -12 C410 -12 482 40 529 115 C575 188 591 263 591 308 C591 462 484 502 381 502 C252 502 181 441 136 371 C90 300 77 219 77 174 C77 66 139 -12 284 -12 L284 -12 Z M222 107 C222 174 242 266 274 339 C305 408 342 456 389 456 C436 456 446 416 446 374 C446 300 387 34 282 34 C245 34 222 57 222 107 L222 107 Z M301 561 C353 561 380 597 380 635 C380 673 353 710 301 710 C250 710 222 673 222 635 C222 597 250 561 301 561 L301 561 Z M541 561 C593 561 620 597 620 635 C620 673 593 710 541 710 C490 710 462 673 462 635 C462 597 490 561 541 561 L541 561 Z " />
<glyph glyph-name="divide" unicode="&#xf7;" horiz-adv-x="600" d="M340 354 C380 354 410 385 410 424 L411 425 C410 461 380 493 340 493 C301 493 272 461 272 424 C272 385 301 354 340 354 L340 354 Z M340 7 C380 7 410 38 410 77 L411 78 C410 114 380 146 340 146 C301 146 272 114 272 77 C272 38 301 7 340 7 L340 7 Z M98 210 L582 210 L582 290 L98 290 L98 210 Z " />
<glyph glyph-name="oslash" unicode="&#xf8;" horiz-adv-x="562" d="M214 94 C212 96 212 102 212 107 C212 174 232 266 264 339 C295 408 333 456 388 456 C411 456 427 449 438 437 L214 94 Z M455 387 C456 384 456 379 456 374 C456 300 397 34 281 34 C261 34 245 39 234 50 L455 387 Z M544 525 L510 549 L471 489 C442 499 412 502 381 502 C252 502 179 441 135 371 C90 300 77 219 77 174 C77 103 103 46 161 15 L123 -42 L155 -69 L200 0 C224 -8 252 -12 284 -12 C410 -12 482 40 529 115 C575 188 591 265 591 312 C591 398 558 447 510 473 L544 525 Z " />
<glyph glyph-name="ugrave" unicode="&#xf9;" horiz-adv-x="634" d="M446 210 L415 96 C397 28 425 -12 479 -12 C576 -12 637 65 678 148 L649 166 C623 121 586 68 563 68 C544 68 543 89 551 115 L652 502 L510 490 C481 388 465 335 443 285 C407 199 325 68 278 68 C250 68 249 91 259 128 L353 497 L348 502 L117 476 L109 443 L168 437 C187 435 191 421 183 391 L116 133 C95 53 103 -12 183 -12 C296 -12 379 94 442 210 L446 210 Z M483 541 L338 690 C301 728 284 740 264 740 C240 740 211 705 211 680 C211 654 243 634 279 614 L462 511 L483 541 Z " />
<glyph glyph-name="uacute" unicode="&#xfa;" horiz-adv-x="634" d="M446 210 L415 96 C397 28 425 -12 479 -12 C576 -12 637 65 678 148 L649 166 C623 121 586 68 563 68 C544 68 543 89 551 115 L652 502 L510 490 C481 388 465 335 443 285 C407 199 325 68 278 68 C250 68 249 91 259 128 L353 497 L348 502 L117 476 L109 443 L168 437 C187 435 191 421 183 391 L116 133 C95 53 103 -12 183 -12 C296 -12 379 94 442 210 L446 210 Z M409 511 L592 614 C628 634 660 654 660 680 C660 705 631 740 607 740 C587 740 570 728 533 690 L388 541 L409 511 Z " />
<glyph glyph-name="ucircumflex" unicode="&#xfb;" horiz-adv-x="634" d="M446 210 L415 96 C397 28 425 -12 479 -12 C576 -12 637 65 678 148 L649 166 C623 121 586 68 563 68 C544 68 543 89 551 115 L652 502 L510 490 C481 388 465 335 443 285 C407 199 325 68 278 68 C250 68 249 91 259 128 L353 497 L348 502 L117 476 L109 443 L168 437 C187 435 191 421 183 391 L116 133 C95 53 103 -12 183 -12 C296 -12 379 94 442 210 L446 210 Z M603 547 L489 719 C479 734 470 747 453 747 C438 747 421 736 405 720 L225 547 L248 520 L393 616 C407 625 422 633 431 633 C441 633 451 625 461 616 L574 520 L603 547 Z " />
<glyph glyph-name="udieresis" unicode="&#xfc;" horiz-adv-x="634" d="M446 210 L415 96 C397 28 425 -12 479 -12 C576 -12 637 65 678 148 L649 166 C623 121 586 68 563 68 C544 68 543 89 551 115 L652 502 L510 490 C481 388 465 335 443 285 C407 199 325 68 278 68 C250 68 249 91 259 128 L353 497 L348 502 L117 476 L109 443 L168 437 C187 435 191 421 183 391 L116 133 C95 53 103 -12 183 -12 C296 -12 379 94 442 210 L446 210 Z M327 561 C379 561 406 597 406 635 C406 673 379 710 327 710 C276 710 248 673 248 635 C248 597 276 561 327 561 L327 561 Z M567 561 C619 561 646 597 646 635 C646 673 619 710 567 710 C516 710 488 673 488 635 C488 597 516 561 567 561 L567 561 Z " />
<glyph glyph-name="yacute" unicode="&#xfd;" horiz-adv-x="489" d="M57 454 L57 424 L119 424 C141 425 148 408 156 363 C171 285 200 86 200 -10 C200 -48 198 -82 189 -112 C177 -152 162 -169 145 -169 C131 -169 116 -154 101 -132 C85 -110 76 -99 54 -99 C18 -100 -16 -141 -14 -180 C-14 -211 19 -242 77 -242 C180 -242 229 -163 311 -29 C332 5 389 113 450 213 C508 309 567 406 567 448 C567 472 554 502 546 502 C522 502 482 495 442 477 C443 442 441 381 433 339 C420 271 377 175 320 72 L317 72 C316 222 297 444 282 498 L274 502 L57 454 Z M312 511 L495 614 C531 634 563 654 563 680 C563 705 534 740 510 740 C490 740 473 728 436 690 L291 541 L312 511 Z " />
<glyph glyph-name="thorn" unicode="&#xfe;" horiz-adv-x="600" d="M451 422 C477 422 488 403 488 367 C491 299 429 34 312 34 C281 34 255 46 237 64 C249 117 279 217 315 283 C360 364 412 422 451 422 L451 422 Z M169 -230 L226 9 C246 -3 281 -12 333 -12 C575 -12 646 300 642 374 C639 459 603 502 530 502 C443 502 358 429 281 286 L277 286 L384 695 L379 700 L147 671 L138 638 L197 632 C217 630 216 611 209 580 L29 -242 L169 -230 Z " />
<glyph glyph-name="ydieresis" unicode="&#xff;" horiz-adv-x="489" d="M57 454 L57 424 L119 424 C141 425 148 408 156 363 C171 285 200 86 200 -10 C200 -48 198 -82 189 -112 C177 -152 162 -169 145 -169 C131 -169 116 -154 101 -132 C85 -110 76 -99 54 -99 C18 -100 -16 -141 -14 -180 C-14 -211 19 -242 77 -242 C180 -242 229 -163 311 -29 C332 5 389 113 450 213 C508 309 567 406 567 448 C567 472 554 502 546 502 C522 502 482 495 442 477 C443 442 441 381 433 339 C420 271 377 175 320 72 L317 72 C316 222 297 444 282 498 L274 502 L57 454 Z M245 561 C297 561 324 597 324 635 C324 673 297 710 245 710 C194 710 166 673 166 635 C166 597 194 561 245 561 L245 561 Z M485 561 C537 561 564 597 564 635 C564 673 537 710 485 710 C434 710 406 673 406 635 C406 597 434 561 485 561 L485 561 Z " />
<glyph glyph-name="dotlessi" unicode="&#x131;" horiz-adv-x="339" d="M348 166 C323 121 285 68 262 68 C243 68 244 89 251 115 L354 496 L348 502 L118 473 L110 440 L168 434 C188 432 192 419 185 392 L108 107 C87 30 111 -12 178 -12 C275 -12 336 65 378 149 L348 166 Z " />
<glyph glyph-name="Lslash" unicode="&#x141;" horiz-adv-x="592" d="M505 453 L520 519 L372 425 L409 594 C417 630 424 647 453 650 L497 654 L507 692 L195 692 L185 654 L236 650 C264 648 263 630 255 594 L192 311 L85 244 L70 178 L177 246 L144 98 C136 62 129 45 100 42 L55 38 L46 0 L574 0 L632 201 L594 201 L564 153 C512 70 464 46 390 46 C316 46 288 52 299 101 L357 359 L505 453 Z " />
<glyph glyph-name="lslash" unicode="&#x142;" horiz-adv-x="339" d="M440 444 L455 504 L326 425 L401 737 L395 742 L168 715 L161 683 L219 676 C238 674 242 662 235 633 L163 334 L67 276 L53 216 L149 274 L110 115 C90 32 114 -12 182 -12 C277 -12 338 65 379 148 L348 166 C322 118 283 68 261 68 C243 68 244 88 250 115 L311 365 L440 444 Z " />
<glyph glyph-name="OE" unicode="&#x152;" horiz-adv-x="1016" d="M602 692 C136 692 111 368 111 287 C111 108 231 0 473 0 L982 0 L1041 208 L1003 208 L971 154 C920 67 872 46 795 46 C706 46 677 50 689 105 L742 339 L834 339 C898 339 909 310 906 249 L944 249 L994 478 L956 478 C924 405 908 387 845 387 L753 387 L804 613 C811 642 818 646 853 646 L922 646 C1010 646 1032 609 1036 562 L1041 507 L1079 507 L1119 692 L602 692 Z M534 100 C525 61 502 46 459 46 C364 46 276 99 276 255 C276 418 377 646 596 646 C641 646 655 633 647 599 L534 100 Z " />
<glyph glyph-name="oe" unicode="&#x153;" horiz-adv-x="811" d="M221 107 C221 174 241 266 273 339 C304 408 341 456 388 456 C435 456 445 416 445 374 C445 300 386 34 280 34 C244 34 221 57 221 107 L221 107 Z M381 502 C252 502 179 439 135 371 C90 300 77 219 77 174 C77 66 141 -12 280 -12 C338 -12 410 16 453 65 C482 8 533 -12 581 -12 C658 -12 752 20 825 152 L795 176 C742 100 695 54 637 54 C576 54 559 107 559 163 L559 187 C707 216 778 248 821 286 C860 322 867 355 867 386 C867 457 804 502 717 502 C656 502 595 473 538 421 C504 479 437 502 381 502 L381 502 Z M563 232 C577 347 643 456 702 456 C727 456 740 440 740 413 C740 334 675 255 563 232 L563 232 Z " />
<glyph glyph-name="Scaron" unicode="&#x160;" horiz-adv-x="551" d="M571 492 L605 653 C552 695 467 707 412 707 C212 707 157 583 157 497 C157 406 225 351 315 299 C374 265 418 218 418 151 C418 85 378 31 298 31 C221 31 140 105 126 247 L89 247 L66 70 C118 8 221 -15 300 -15 C481 -13 563 85 563 210 C563 302 512 364 412 420 C351 455 297 494 297 553 C297 606 335 661 408 661 C479 661 530 608 533 492 L571 492 Z M266 886 L378 764 C392 749 405 736 423 736 C440 736 457 749 475 762 L647 886 L630 916 L479 854 C460 846 447 841 437 841 C425 841 415 845 396 856 L290 916 L266 886 Z " />
<glyph glyph-name="scaron" unicode="&#x161;" horiz-adv-x="417" d="M225 -12 C362 -12 417 62 417 145 C417 211 371 261 326 295 C270 337 243 366 241 404 C240 435 262 456 288 456 C314 456 334 436 362 382 C372 362 383 356 401 356 C428 356 467 375 467 415 C467 448 422 502 309 502 C188 502 123 424 127 340 C130 281 175 236 217 202 C259 168 300 131 303 86 C303 55 281 34 251 34 C220 34 192 54 155 128 C147 144 134 158 111 158 C81 158 45 126 45 89 C45 45 100 -12 225 -12 L225 -12 Z M179 720 L293 548 C303 533 312 520 329 520 C344 520 361 531 377 547 L557 720 L534 747 L389 651 C375 642 360 634 351 634 C341 634 331 642 321 651 L208 747 L179 720 Z " />
<glyph glyph-name="Ydieresis" unicode="&#x178;" horiz-adv-x="622" d="M482 0 L491 38 L427 43 C399 45 400 62 408 98 L443 251 C449 278 459 297 477 323 C543 420 638 547 688 603 C715 633 727 647 764 651 L793 654 L800 692 L548 692 L540 654 L593 649 C615 647 618 635 606 615 C576 565 492 438 428 347 L426 347 L356 619 C352 636 353 646 373 648 L428 654 L436 692 L135 692 L127 656 L161 653 C183 651 192 642 202 609 C231 516 260 414 285 311 C290 292 293 273 287 246 L255 98 C247 62 240 44 211 42 L152 38 L143 0 L482 0 Z M365 732 C417 732 444 768 444 806 C444 844 417 881 365 881 C314 881 286 844 286 806 C286 768 314 732 365 732 L365 732 Z M617 732 C669 732 696 768 696 806 C696 844 669 881 617 881 C566 881 538 844 538 806 C538 768 566 732 617 732 L617 732 Z " />
<glyph glyph-name="Zcaron" unicode="&#x17d;" horiz-adv-x="618" d="M596 0 L655 208 L617 208 L585 154 C534 69 486 46 409 46 L211 46 C389 256 568 465 749 673 L741 692 L207 692 L168 505 L206 505 L227 552 C260 625 311 646 399 646 L540 646 C363 436 185 228 5 20 L12 0 L596 0 Z M303 886 L415 764 C429 749 442 736 460 736 C477 736 494 749 512 762 L684 886 L667 916 L516 854 C497 846 484 841 474 841 C462 841 452 845 433 856 L327 916 L303 886 Z " />
<glyph glyph-name="zcaron" unicode="&#x17e;" horiz-adv-x="466" d="M170 490 C147 465 115 404 93 318 L118 306 C150 365 169 396 225 396 L370 396 L370 394 C263 295 147 189 45 78 C32 63 18 39 18 19 C18 4 25 -12 56 -12 C96 -12 124 -3 123 20 L119 50 C119 61 123 68 129 68 C138 68 155 58 231 28 C288 6 339 -12 382 -12 C457 -12 488 87 515 201 L486 211 C457 157 432 105 380 105 C354 105 314 116 278 128 C253 137 226 147 207 150 L207 156 C293 249 417 360 541 474 L533 490 L170 490 Z M183 720 L297 548 C307 533 316 520 333 520 C348 520 365 531 381 547 L561 720 L538 747 L393 651 C379 642 364 634 355 634 C345 634 335 642 325 651 L212 747 L183 720 Z " />
<glyph glyph-name="florin" unicode="&#x192;" horiz-adv-x="560" d="M264 361 L179 -58 C174 -81 167 -89 159 -89 C149 -89 132 -72 112 -36 C104 -20 94 -9 77 -9 C48 -9 20 -33 19 -64 C19 -92 54 -135 141 -135 C197 -135 244 -109 273 -71 C318 -12 351 76 390 245 L417 361 L544 361 L554 409 L429 409 L466 575 C477 626 490 645 507 645 C523 645 536 628 558 579 C568 558 578 547 600 547 C631 547 669 566 670 601 C672 627 642 691 516 691 C457 691 404 667 368 629 C327 585 302 525 287 462 L275 409 L171 409 L160 361 L264 361 Z " />
<glyph glyph-name="circumflex" unicode="&#x2c6;" horiz-adv-x="400" d="M506 547 L392 719 C382 734 373 747 356 747 C341 747 324 736 308 720 L128 547 L151 520 L296 616 C310 625 325 633 334 633 C344 633 354 625 364 616 L477 520 L506 547 Z " />
<glyph glyph-name="caron" unicode="&#x2c7;" horiz-adv-x="400" d="M165 720 L279 548 C289 533 298 520 315 520 C330 520 347 531 363 547 L543 720 L520 747 L375 651 C361 642 346 634 337 634 C327 634 317 642 307 651 L194 747 L165 720 Z " />
<glyph glyph-name="breve" unicode="&#x2d8;" horiz-adv-x="400" d="M470 714 C460 688 429 639 326 639 C226 639 221 688 226 714 L192 714 C169 642 171 556 310 556 C449 556 488 632 504 714 L470 714 Z " />
<glyph glyph-name="dotaccent" unicode="&#x2d9;" horiz-adv-x="402" d="M334 561 C386 561 413 597 413 635 C413 673 386 710 334 710 C283 710 255 673 255 635 C255 597 283 561 334 561 L334 561 Z " />
<glyph glyph-name="ring" unicode="&#x2da;" horiz-adv-x="400" d="M339 722 C370 722 389 701 390 667 C392 612 362 569 321 569 C294 569 269 586 269 624 C269 684 301 722 339 722 L339 722 Z M315 529 C407 529 461 586 458 660 C456 726 412 762 345 762 C241 762 199 695 201 627 C203 562 249 529 315 529 L315 529 Z " />
<glyph glyph-name="ogonek" unicode="&#x2db;" horiz-adv-x="350" d="M207 0 C138 -35 77 -98 73 -149 C70 -182 77 -246 181 -246 C210 -246 248 -237 288 -206 L274 -179 C261 -187 240 -192 224 -192 C190 -192 168 -168 170 -128 C174 -90 206 -44 264 0 L207 0 Z " />
<glyph glyph-name="tilde" unicode="&#x2dc;" horiz-adv-x="400" d="M515 697 C479 656 461 648 440 646 C414 645 381 656 348 666 C315 677 282 688 254 688 C173 688 137 609 129 567 L151 549 C173 588 189 604 226 604 C256 604 292 594 325 583 C358 573 389 562 410 562 C483 562 505 620 537 684 L515 697 Z " />
<glyph glyph-name="hungarumlaut" unicode="&#x2dd;" horiz-adv-x="400" d="M221 546 L317 650 C340 675 351 696 351 712 C351 733 312 750 290 750 C268 750 257 730 247 703 L193 563 L221 546 Z M388 546 L484 650 C507 675 517 696 517 712 C517 733 478 750 457 750 C435 750 424 730 414 703 L360 563 L388 546 Z " />
<glyph glyph-name="endash" unicode="&#x2013;" horiz-adv-x="500" d="M66 292 L47 209 L547 209 L566 292 L66 292 Z " />
<glyph glyph-name="emdash" unicode="&#x2014;" horiz-adv-x="1000" d="M66 292 L47 209 L1047 209 L1066 292 L66 292 Z " />
<glyph glyph-name="quoteleft" unicode="&#x2018;" horiz-adv-x="246" d="M325 719 C251 666 149 583 149 481 C149 437 173 398 223 399 C265 399 299 431 299 474 C299 509 276 527 276 564 C276 612 313 657 348 692 L325 719 Z " />
<glyph glyph-name="quoteright" unicode="&#x2019;" horiz-adv-x="246" d="M153 387 C227 440 329 523 329 625 C329 669 305 708 255 707 C213 707 179 675 179 632 C179 597 202 579 202 542 C202 494 165 449 130 414 L153 387 Z " />
<glyph glyph-name="quotesinglbase" unicode="&#x201a;" horiz-adv-x="246" d="M143 167 C101 167 67 135 67 92 C67 57 90 39 90 2 C90 -46 53 -91 18 -126 L41 -153 C115 -100 217 -17 217 85 C217 129 193 168 143 167 L143 167 Z " />
<glyph glyph-name="quotedblleft" unicode="&#x201c;" horiz-adv-x="455" d="M325 719 C251 666 149 583 149 481 C149 437 173 398 223 399 C265 399 299 431 299 474 C299 509 276 527 276 564 C276 612 313 657 348 692 L325 719 Z M534 719 C460 666 358 583 358 481 C358 437 382 398 432 399 C474 399 508 431 508 474 C508 509 485 527 485 564 C485 612 522 657 557 692 L534 719 Z " />
<glyph glyph-name="quotedblright" unicode="&#x201d;" horiz-adv-x="455" d="M255 707 C213 707 179 675 179 632 C179 597 202 579 202 542 C202 494 165 449 130 414 L153 387 C227 440 329 523 329 625 C329 669 305 708 255 707 L255 707 Z M464 707 C422 707 388 675 388 632 C388 597 411 579 411 542 C411 494 374 449 339 414 L362 387 C436 440 538 523 538 625 C538 669 514 708 464 707 L464 707 Z " />
<glyph glyph-name="quotedblbase" unicode="&#x201e;" horiz-adv-x="455" d="M143 167 C101 167 67 135 67 92 C67 57 90 39 90 2 C90 -46 53 -91 18 -126 L41 -153 C115 -100 217 -17 217 85 C217 129 193 168 143 167 L143 167 Z M352 167 C310 167 276 135 276 92 C276 57 299 39 299 2 C299 -46 262 -91 227 -126 L250 -153 C324 -100 426 -17 426 85 C426 129 402 168 352 167 L352 167 Z " />
<glyph glyph-name="dagger" unicode="&#x2020;" horiz-adv-x="514" d="M248 -125 C296 32 379 264 391 316 C399 353 396 386 389 430 C453 420 506 407 535 407 C557 407 570 416 578 453 C586 486 574 499 552 499 C525 499 468 486 399 476 C417 525 465 626 472 657 C479 685 470 707 412 707 C360 707 343 685 336 657 C329 626 331 525 327 476 C265 486 212 499 183 499 C161 499 146 486 138 453 C130 416 142 407 166 407 C191 407 250 420 317 430 C290 386 271 353 263 316 C251 264 230 32 206 -125 L248 -125 Z " />
<glyph glyph-name="daggerdbl" unicode="&#x2021;" horiz-adv-x="490" d="M403 707 C351 709 333 693 327 666 C320 633 326 551 325 510 C257 517 216 530 190 530 C171 530 153 522 145 486 C137 450 155 442 174 442 C200 442 243 455 314 462 C295 422 267 373 256 327 C246 281 250 211 249 175 C181 182 140 195 114 195 C95 195 77 187 69 151 C61 115 79 107 98 107 C124 107 167 120 238 127 C199 32 166 -45 159 -73 C152 -105 163 -121 216 -119 C269 -121 286 -105 292 -78 C300 -45 301 32 306 127 C373 120 414 107 440 107 C459 107 477 115 485 151 C493 187 475 195 456 195 C430 195 387 182 317 175 C332 211 368 281 378 327 C389 373 383 422 382 462 C449 455 490 442 516 442 C535 442 553 450 561 486 C569 522 551 530 532 530 C506 530 463 517 393 510 C410 551 454 633 460 661 C467 693 457 709 403 707 L403 707 Z " />
<glyph glyph-name="bullet" unicode="&#x2022;" horiz-adv-x="465" d="M489 352 C489 450 409 529 312 529 C211 529 134 450 134 352 C134 251 213 174 312 174 C409 174 489 253 489 352 L489 352 Z " />
<glyph glyph-name="ellipsis" unicode="&#x2026;" horiz-adv-x="1000" d="M207 -12 C258 -12 300 27 300 88 C300 129 274 166 216 166 C163 166 120 128 120 67 C120 24 147 -12 207 -12 L207 -12 Z M540 -12 C591 -12 633 27 633 88 C633 129 607 166 549 166 C496 166 453 128 453 67 C453 24 480 -12 540 -12 L540 -12 Z M873 -12 C924 -12 966 27 966 88 C966 129 940 166 882 166 C829 166 786 128 786 67 C786 24 813 -12 873 -12 L873 -12 Z " />
<glyph glyph-name="perthousand" unicode="&#x2030;" horiz-adv-x="1297" d="M1087 28 C1049 28 1041 61 1041 97 C1041 132 1064 320 1144 320 C1181 320 1188 283 1188 248 C1188 208 1168 28 1087 28 L1087 28 Z M1148 360 C1094 360 1044 345 1004 306 C945 249 932 165 932 127 C932 55 966 -12 1078 -12 C1175 -12 1227 26 1260 82 C1291 136 1297 186 1297 219 C1297 290 1270 360 1148 360 L1148 360 Z M686 28 C648 28 640 61 640 97 C640 132 663 320 743 320 C780 320 787 283 787 248 C787 208 767 28 686 28 L686 28 Z M747 360 C693 360 643 345 603 306 C544 249 531 165 531 127 C531 55 565 -12 677 -12 C774 -12 826 26 859 82 C890 136 896 186 896 219 C896 290 869 360 747 360 L747 360 Z M785 702 L764 677 C735 643 705 633 667 633 L545 633 C498 633 480 639 467 647 C435 667 395 680 357 680 C303 680 253 665 213 626 C154 569 141 485 141 447 C141 375 175 308 287 308 C383 308 434 346 467 402 C499 456 505 506 505 539 C505 549 503 567 499 588 L692 588 L214 7 L255 -31 L828 666 L785 702 Z M295 348 C260 348 250 381 250 417 C250 452 273 640 353 640 C390 640 396 603 396 568 C396 528 377 348 295 348 L295 348 Z " />
<glyph glyph-name="guilsinglleft" unicode="&#x2039;" horiz-adv-x="360" d="M344 464 L139 270 C124 256 121 246 132 231 L269 37 L297 54 L250 232 C246 246 249 257 258 272 L368 443 L344 464 Z " />
<glyph glyph-name="guilsinglright" unicode="&#x203a;" horiz-adv-x="360" d="M117 37 L322 231 C337 245 340 255 329 270 L192 464 L164 447 L211 269 C215 255 212 244 203 229 L93 58 L117 37 Z " />
<glyph glyph-name="fraction" unicode="&#x2044;" horiz-adv-x="100" d="M-100 -27 L405 661 L361 695 L-141 11 L-100 -27 Z " />
<glyph glyph-name="trademark" unicode="&#x2122;" horiz-adv-x="1100" d="M274 344 C274 323 271 314 256 312 L210 305 L210 277 L456 277 L456 305 L409 312 C394 314 392 323 392 344 L392 658 L420 658 C465 658 490 640 502 574 L528 574 L528 692 L138 692 L138 574 L164 574 C176 640 201 658 246 658 L274 658 L274 344 Z M1076 631 C1076 647 1079 656 1095 659 L1128 664 L1128 692 L944 692 C929 650 913 608 898 566 L847 432 L842 432 L790 566 C774 608 759 650 744 692 L559 692 L559 664 L593 658 C606 655 608 647 608 631 L608 409 C608 334 607 312 586 309 L557 305 L557 277 L713 277 L713 305 L674 309 C651 312 649 334 649 409 L649 621 L654 621 L783 288 L835 288 L960 621 L965 621 L965 343 C965 321 964 314 945 310 L917 305 L917 277 L1128 277 L1128 305 L1098 309 C1078 312 1076 321 1076 343 L1076 631 Z " />
<glyph glyph-name="minus" unicode="&#x2212;" horiz-adv-x="600" d="M118 210 L602 210 L602 290 L118 290 L118 210 Z " />
<glyph glyph-name="fi" unicode="&#xfb01;" horiz-adv-x="651" d="M661 166 C636 121 598 68 575 68 C556 68 557 89 564 115 L667 494 L661 501 C618 497 546 490 446 490 L352 490 L362 536 C391 663 429 696 471 696 C505 696 532 667 545 605 C549 586 552 561 590 561 C631 561 680 581 680 631 C680 688 611 742 484 742 C286 742 233 604 212 516 L206 490 L205 490 L119 490 L105 442 L194 442 L71 -169 C67 -187 60 -196 52 -196 C42 -196 29 -182 5 -140 C-4 -125 -12 -109 -34 -109 C-66 -109 -94 -137 -94 -168 C-94 -210 -51 -242 26 -242 C147 -239 203 -151 245 28 L342 442 L463 442 C497 442 508 433 498 393 L421 107 C400 30 423 -12 493 -12 C589 -12 650 65 690 152 L661 166 Z " />
<glyph glyph-name="fl" unicode="&#xfb02;" horiz-adv-x="652" d="M457 442 L469 490 L351 490 L361 536 C390 663 428 696 469 696 C498 696 537 671 545 591 L430 115 C410 32 434 -12 502 -12 C597 -12 658 65 699 148 L668 166 C642 118 603 68 581 68 C563 68 563 88 570 115 L720 732 L704 742 L594 701 C565 724 525 742 471 742 C291 742 232 604 209 506 L205 490 L119 490 L105 442 L194 442 L71 -169 C67 -187 60 -196 52 -196 C42 -196 29 -182 5 -140 C-4 -125 -12 -109 -34 -109 C-66 -109 -94 -137 -94 -168 C-94 -210 -51 -242 26 -242 C144 -242 203 -151 245 28 L342 442 L457 442 Z " />
</font>
</svg>
